G04*
G04 #@! TF.GenerationSoftware,Altium Limited,Altium Designer,21.7.2 (23)*
G04*
G04 Layer_Physical_Order=7*
G04 Layer_Color=8388736*
%FSLAX25Y25*%
%MOIN*%
G70*
G04*
G04 #@! TF.SameCoordinates,792C483E-89C0-4906-A524-1A3F29707EC7*
G04*
G04*
G04 #@! TF.FilePolarity,Positive*
G04*
G01*
G75*
%ADD115C,0.07400*%
%ADD117C,0.01200*%
%ADD118C,0.01600*%
%ADD119C,0.01100*%
%ADD120C,0.02400*%
%ADD121C,0.02200*%
%ADD122C,0.01800*%
%ADD123C,0.01000*%
%ADD124C,0.01400*%
G36*
X123319Y173500D02*
X122767Y173271D01*
X121224Y172326D01*
X119849Y171151D01*
X118674Y169776D01*
X117729Y168233D01*
X117036Y166562D01*
X116614Y164803D01*
X116472Y163000D01*
X116614Y161197D01*
X117036Y159438D01*
X117729Y157767D01*
X118674Y156224D01*
X119849Y154849D01*
X121224Y153674D01*
X122767Y152729D01*
X124438Y152036D01*
X125472Y151788D01*
X125536Y151292D01*
X124496Y150736D01*
X122995Y149505D01*
X121764Y148003D01*
X120848Y146291D01*
X120284Y144433D01*
X120094Y142500D01*
X120284Y140567D01*
X120848Y138709D01*
X121764Y136996D01*
X122995Y135495D01*
X124496Y134264D01*
X126209Y133348D01*
X126259Y133333D01*
X126300Y133008D01*
X126276Y132805D01*
X126024Y132637D01*
X125826Y132339D01*
X125756Y131988D01*
X125826Y131637D01*
X126024Y131339D01*
X126322Y131140D01*
X126673Y131071D01*
X127024Y131140D01*
X127322Y131339D01*
X127521Y131637D01*
X127591Y131988D01*
X127521Y132339D01*
X127447Y132450D01*
X127763Y132877D01*
X128067Y132784D01*
X130000Y132594D01*
X131933Y132784D01*
X133791Y133348D01*
X135503Y134264D01*
X137005Y135495D01*
X138236Y136996D01*
X138515Y137517D01*
X139000Y137396D01*
Y133917D01*
X138625Y133657D01*
X138500Y133622D01*
X138091Y133704D01*
X137622Y133611D01*
X137225Y133345D01*
X136960Y132949D01*
X136867Y132480D01*
X136960Y132012D01*
X137225Y131615D01*
X137622Y131350D01*
X138091Y131257D01*
X138500Y131338D01*
X138625Y131304D01*
X139000Y131043D01*
Y77080D01*
X138500Y77048D01*
X138437Y77526D01*
X137963Y78669D01*
X137210Y79651D01*
X136228Y80404D01*
X135085Y80878D01*
X133858Y81040D01*
X132631Y80878D01*
X131488Y80404D01*
X130506Y79651D01*
X129753Y78669D01*
X129279Y77526D01*
X129117Y76299D01*
X129279Y75072D01*
X129753Y73929D01*
X130506Y72947D01*
X131488Y72194D01*
X132631Y71720D01*
X133858Y71558D01*
X135085Y71720D01*
X136228Y72194D01*
X137210Y72947D01*
X137963Y73929D01*
X138437Y75072D01*
X138500Y75550D01*
X139000Y75518D01*
Y67080D01*
X138500Y67048D01*
X138437Y67526D01*
X137963Y68669D01*
X137210Y69651D01*
X136228Y70404D01*
X135085Y70878D01*
X133858Y71040D01*
X132631Y70878D01*
X131488Y70404D01*
X130506Y69651D01*
X129753Y68669D01*
X129279Y67526D01*
X129117Y66299D01*
X129279Y65072D01*
X129753Y63929D01*
X130506Y62947D01*
X131488Y62194D01*
X132631Y61720D01*
X133858Y61558D01*
X135085Y61720D01*
X136228Y62194D01*
X137210Y62947D01*
X137963Y63929D01*
X138437Y65072D01*
X138500Y65550D01*
X139000Y65518D01*
Y57080D01*
X138500Y57048D01*
X138437Y57526D01*
X137963Y58669D01*
X137210Y59651D01*
X136228Y60404D01*
X135085Y60878D01*
X133858Y61040D01*
X132631Y60878D01*
X131488Y60404D01*
X130506Y59651D01*
X129753Y58669D01*
X129279Y57526D01*
X129117Y56299D01*
X129279Y55072D01*
X129753Y53929D01*
X130506Y52947D01*
X131488Y52194D01*
X132631Y51720D01*
X133858Y51558D01*
X135085Y51720D01*
X136228Y52194D01*
X137210Y52947D01*
X137963Y53929D01*
X138437Y55072D01*
X138500Y55550D01*
X139000Y55518D01*
Y47080D01*
X138500Y47048D01*
X138437Y47526D01*
X137963Y48669D01*
X137210Y49651D01*
X136228Y50405D01*
X135085Y50878D01*
X133858Y51040D01*
X132631Y50878D01*
X131488Y50405D01*
X130506Y49651D01*
X129753Y48669D01*
X129279Y47526D01*
X129117Y46299D01*
X129279Y45072D01*
X129753Y43929D01*
X130506Y42947D01*
X131488Y42193D01*
X132631Y41720D01*
X133858Y41558D01*
X135085Y41720D01*
X136228Y42193D01*
X137210Y42947D01*
X137963Y43929D01*
X138437Y45072D01*
X138500Y45550D01*
X139000Y45518D01*
Y37080D01*
X138500Y37048D01*
X138437Y37526D01*
X137963Y38669D01*
X137210Y39651D01*
X136228Y40404D01*
X135085Y40878D01*
X133858Y41040D01*
X132631Y40878D01*
X131488Y40404D01*
X130506Y39651D01*
X129753Y38669D01*
X129279Y37526D01*
X129117Y36299D01*
X129279Y35072D01*
X129753Y33929D01*
X130506Y32947D01*
X131488Y32193D01*
X132631Y31720D01*
X133858Y31558D01*
X135085Y31720D01*
X136228Y32193D01*
X137210Y32947D01*
X137963Y33929D01*
X138437Y35072D01*
X138500Y35550D01*
X139000Y35518D01*
Y27080D01*
X138500Y27048D01*
X138437Y27526D01*
X137963Y28669D01*
X137210Y29651D01*
X136228Y30404D01*
X135085Y30878D01*
X133858Y31040D01*
X132631Y30878D01*
X131488Y30404D01*
X130506Y29651D01*
X129753Y28669D01*
X129279Y27526D01*
X129117Y26299D01*
X129279Y25072D01*
X129753Y23929D01*
X130506Y22947D01*
X131488Y22194D01*
X132631Y21720D01*
X133858Y21558D01*
X135085Y21720D01*
X136228Y22194D01*
X137210Y22947D01*
X137963Y23929D01*
X138437Y25072D01*
X138500Y25550D01*
X139000Y25518D01*
Y17080D01*
X138500Y17048D01*
X138437Y17526D01*
X137963Y18669D01*
X137210Y19651D01*
X136228Y20404D01*
X135085Y20878D01*
X133858Y21040D01*
X132631Y20878D01*
X131488Y20404D01*
X130506Y19651D01*
X129753Y18669D01*
X129279Y17526D01*
X129117Y16299D01*
X129279Y15072D01*
X129753Y13929D01*
X130506Y12947D01*
X131488Y12194D01*
X132631Y11720D01*
X133858Y11558D01*
X135085Y11720D01*
X136228Y12194D01*
X137210Y12947D01*
X137963Y13929D01*
X138437Y15072D01*
X138500Y15550D01*
X139000Y15518D01*
Y7080D01*
X138500Y7048D01*
X138437Y7526D01*
X137963Y8669D01*
X137210Y9651D01*
X136228Y10404D01*
X135085Y10878D01*
X133858Y11040D01*
X132631Y10878D01*
X131488Y10404D01*
X130506Y9651D01*
X129753Y8669D01*
X129279Y7526D01*
X129117Y6299D01*
X129279Y5072D01*
X129753Y3929D01*
X130506Y2947D01*
X131488Y2194D01*
X132631Y1720D01*
X133732Y1575D01*
X133699Y1075D01*
X16458D01*
X16425Y1575D01*
X16651Y1605D01*
X17526Y1720D01*
X18669Y2194D01*
X19651Y2947D01*
X20404Y3929D01*
X20878Y5072D01*
X21040Y6299D01*
X20878Y7526D01*
X20404Y8669D01*
X19651Y9651D01*
X18669Y10404D01*
X17526Y10878D01*
X16299Y11040D01*
X15072Y10878D01*
X13929Y10404D01*
X12947Y9651D01*
X12194Y8669D01*
X11720Y7526D01*
X11558Y6299D01*
X11720Y5072D01*
X12194Y3929D01*
X12947Y2947D01*
X13929Y2194D01*
X15072Y1720D01*
X15947Y1605D01*
X16173Y1575D01*
X16140Y1075D01*
X6458D01*
X6425Y1575D01*
X7526Y1720D01*
X8669Y2194D01*
X9651Y2947D01*
X10404Y3929D01*
X10878Y5072D01*
X10974Y5799D01*
X6299D01*
Y6299D01*
X5799D01*
Y10974D01*
X5072Y10878D01*
X3929Y10404D01*
X2947Y9651D01*
X2194Y8669D01*
X1720Y7526D01*
X1612Y6706D01*
X1112Y6739D01*
Y15859D01*
X1612Y15892D01*
X1720Y15072D01*
X2194Y13929D01*
X2947Y12947D01*
X3929Y12194D01*
X5072Y11720D01*
X6299Y11558D01*
X7526Y11720D01*
X8669Y12194D01*
X9651Y12947D01*
X10404Y13929D01*
X10878Y15072D01*
X11040Y16299D01*
X10878Y17526D01*
X10404Y18669D01*
X9651Y19651D01*
X8669Y20404D01*
X7526Y20878D01*
X6299Y21040D01*
X5072Y20878D01*
X3929Y20404D01*
X2947Y19651D01*
X2194Y18669D01*
X1720Y17526D01*
X1612Y16706D01*
X1112Y16739D01*
Y25859D01*
X1612Y25892D01*
X1720Y25072D01*
X2194Y23929D01*
X2947Y22947D01*
X3929Y22194D01*
X5072Y21720D01*
X6299Y21558D01*
X7526Y21720D01*
X8669Y22194D01*
X9651Y22947D01*
X10404Y23929D01*
X10878Y25072D01*
X11040Y26299D01*
X10878Y27526D01*
X10404Y28669D01*
X9651Y29651D01*
X8669Y30404D01*
X7526Y30878D01*
X6299Y31040D01*
X5072Y30878D01*
X3929Y30404D01*
X2947Y29651D01*
X2194Y28669D01*
X1720Y27526D01*
X1612Y26706D01*
X1112Y26739D01*
Y35859D01*
X1612Y35892D01*
X1720Y35072D01*
X2194Y33929D01*
X2947Y32947D01*
X3929Y32193D01*
X5072Y31720D01*
X6299Y31558D01*
X7526Y31720D01*
X8669Y32193D01*
X9651Y32947D01*
X10404Y33929D01*
X10878Y35072D01*
X11040Y36299D01*
X10878Y37526D01*
X10404Y38669D01*
X9651Y39651D01*
X8669Y40404D01*
X7526Y40878D01*
X6299Y41040D01*
X5072Y40878D01*
X3929Y40404D01*
X2947Y39651D01*
X2194Y38669D01*
X1720Y37526D01*
X1612Y36706D01*
X1112Y36739D01*
Y45859D01*
X1612Y45892D01*
X1720Y45072D01*
X2194Y43929D01*
X2947Y42947D01*
X3929Y42193D01*
X5072Y41720D01*
X6299Y41558D01*
X7526Y41720D01*
X8669Y42193D01*
X9651Y42947D01*
X10404Y43929D01*
X10878Y45072D01*
X11040Y46299D01*
X10878Y47526D01*
X10404Y48669D01*
X9651Y49651D01*
X8669Y50405D01*
X7526Y50878D01*
X6299Y51040D01*
X5072Y50878D01*
X3929Y50405D01*
X2947Y49651D01*
X2194Y48669D01*
X1720Y47526D01*
X1612Y46706D01*
X1112Y46739D01*
Y55859D01*
X1612Y55892D01*
X1720Y55072D01*
X2194Y53929D01*
X2947Y52947D01*
X3929Y52194D01*
X5072Y51720D01*
X6299Y51558D01*
X7526Y51720D01*
X8669Y52194D01*
X9651Y52947D01*
X10404Y53929D01*
X10878Y55072D01*
X11040Y56299D01*
X10878Y57526D01*
X10404Y58669D01*
X9651Y59651D01*
X8669Y60404D01*
X7526Y60878D01*
X6299Y61040D01*
X5072Y60878D01*
X3929Y60404D01*
X2947Y59651D01*
X2194Y58669D01*
X1720Y57526D01*
X1612Y56706D01*
X1112Y56739D01*
Y65859D01*
X1612Y65892D01*
X1720Y65072D01*
X2194Y63929D01*
X2947Y62947D01*
X3929Y62194D01*
X5072Y61720D01*
X6299Y61558D01*
X7526Y61720D01*
X8669Y62194D01*
X9651Y62947D01*
X10404Y63929D01*
X10878Y65072D01*
X11040Y66299D01*
X10878Y67526D01*
X10404Y68669D01*
X9651Y69651D01*
X8669Y70404D01*
X7526Y70878D01*
X6299Y71040D01*
X5072Y70878D01*
X3929Y70404D01*
X2947Y69651D01*
X2194Y68669D01*
X1720Y67526D01*
X1612Y66706D01*
X1112Y66739D01*
Y75859D01*
X1612Y75892D01*
X1720Y75072D01*
X2194Y73929D01*
X2947Y72947D01*
X3929Y72194D01*
X5072Y71720D01*
X6299Y71558D01*
X7526Y71720D01*
X8669Y72194D01*
X9651Y72947D01*
X10404Y73929D01*
X10878Y75072D01*
X11040Y76299D01*
X10878Y77526D01*
X10404Y78669D01*
X9651Y79651D01*
X8669Y80404D01*
X7526Y80878D01*
X6299Y81040D01*
X5072Y80878D01*
X3929Y80404D01*
X2947Y79651D01*
X2194Y78669D01*
X1720Y77526D01*
X1612Y76706D01*
X1112Y76739D01*
Y82368D01*
X16834Y82368D01*
X16901Y82365D01*
X17349Y82286D01*
X17497Y82064D01*
X17778Y81876D01*
X18110Y81810D01*
X18442Y81876D01*
X18723Y82064D01*
X18911Y82345D01*
X18977Y82677D01*
X18911Y83009D01*
X18839Y83116D01*
X18762Y83464D01*
X18839Y83813D01*
X18911Y83920D01*
X18977Y84252D01*
X18911Y84584D01*
X18839Y84691D01*
X18762Y85040D01*
X18839Y85388D01*
X18911Y85495D01*
X18977Y85827D01*
X18911Y86159D01*
X18839Y86266D01*
X18762Y86615D01*
X18839Y86963D01*
X18911Y87070D01*
X18977Y87402D01*
X18911Y87734D01*
X18723Y88015D01*
X18442Y88203D01*
X18110Y88269D01*
X17778Y88203D01*
X17497Y88015D01*
X17383Y87844D01*
X16883Y87958D01*
Y97869D01*
X17383Y97983D01*
X17497Y97812D01*
X17778Y97624D01*
X18110Y97558D01*
X18442Y97624D01*
X18723Y97812D01*
X18911Y98093D01*
X18977Y98425D01*
X18911Y98757D01*
X18839Y98864D01*
X18762Y99212D01*
X18839Y99561D01*
X18911Y99668D01*
X18977Y100000D01*
X18911Y100332D01*
X18839Y100439D01*
X18762Y100787D01*
X18839Y101136D01*
X18911Y101243D01*
X18977Y101575D01*
X18911Y101907D01*
X18839Y102014D01*
X18762Y102363D01*
X18839Y102711D01*
X18911Y102818D01*
X18977Y103150D01*
X18940Y103336D01*
X19242Y103534D01*
X19399Y103583D01*
X19689Y103389D01*
X20079Y103311D01*
X20469Y103389D01*
X20800Y103610D01*
X21021Y103941D01*
X21099Y104331D01*
X21021Y104721D01*
X20800Y105052D01*
X20469Y105273D01*
X20079Y105351D01*
X19689Y105273D01*
X19361Y105054D01*
X19347Y105057D01*
X18891Y105252D01*
X18902Y105312D01*
X18825Y105702D01*
X18604Y106033D01*
X18273Y106254D01*
X17883Y106332D01*
X17493Y106254D01*
X17162Y106033D01*
X16941Y105702D01*
X16863Y105312D01*
X16394Y105110D01*
X1354Y105027D01*
X1000Y105380D01*
Y137396D01*
X1485Y137517D01*
X1764Y136996D01*
X2995Y135495D01*
X4496Y134264D01*
X6209Y133348D01*
X8067Y132784D01*
X10000Y132594D01*
X11933Y132784D01*
X13791Y133348D01*
X14217Y133576D01*
X14661Y133246D01*
X14626Y133071D01*
X14712Y132642D01*
X14955Y132278D01*
X15319Y132035D01*
X15748Y131949D01*
X16177Y132035D01*
X16541Y132278D01*
X16784Y132642D01*
X16802Y132729D01*
X17290Y132739D01*
X17312Y132735D01*
X17497Y132458D01*
X17778Y132270D01*
X18110Y132204D01*
X18442Y132270D01*
X18723Y132458D01*
X18911Y132739D01*
X18977Y133071D01*
X18911Y133403D01*
X18723Y133684D01*
X18442Y133872D01*
X18110Y133938D01*
X17778Y133872D01*
X17497Y133684D01*
X17312Y133407D01*
X17290Y133403D01*
X16802Y133413D01*
X16784Y133500D01*
X16541Y133864D01*
X16177Y134107D01*
X16116Y134119D01*
X15982Y134656D01*
X17005Y135495D01*
X18237Y136996D01*
X19152Y138709D01*
X19716Y140567D01*
X19906Y142500D01*
X19716Y144433D01*
X19152Y146291D01*
X18237Y148003D01*
X17005Y149505D01*
X15504Y150736D01*
X14464Y151292D01*
X14527Y151788D01*
X15562Y152036D01*
X17233Y152729D01*
X18776Y153674D01*
X20151Y154849D01*
X21326Y156224D01*
X22271Y157767D01*
X22964Y159438D01*
X23386Y161197D01*
X23528Y163000D01*
X23386Y164803D01*
X22964Y166562D01*
X22271Y168233D01*
X21326Y169776D01*
X20151Y171151D01*
X18776Y172326D01*
X17233Y173271D01*
X16681Y173500D01*
X16781Y174000D01*
X123219D01*
X123319Y173500D01*
D02*
G37*
%LPC*%
G36*
X84646Y172521D02*
X84314Y172455D01*
X84033Y172267D01*
X83845Y171986D01*
X83779Y171654D01*
X83845Y171322D01*
X84033Y171041D01*
X84314Y170853D01*
X84646Y170787D01*
X84978Y170853D01*
X85259Y171041D01*
X85447Y171322D01*
X85513Y171654D01*
X85447Y171986D01*
X85259Y172267D01*
X84978Y172455D01*
X84646Y172521D01*
D02*
G37*
G36*
X70965Y172520D02*
X70633Y172454D01*
X70352Y172266D01*
X70164Y171985D01*
X70098Y171653D01*
X70164Y171322D01*
X70352Y171041D01*
X70633Y170853D01*
X70965Y170787D01*
X71296Y170853D01*
X71577Y171041D01*
X71765Y171322D01*
X71831Y171653D01*
X71765Y171985D01*
X71577Y172266D01*
X71296Y172454D01*
X70965Y172520D01*
D02*
G37*
G36*
X55512Y172521D02*
X55180Y172455D01*
X54899Y172267D01*
X54711Y171986D01*
X54645Y171654D01*
X54711Y171322D01*
X54899Y171041D01*
X55180Y170853D01*
X55512Y170787D01*
X55844Y170853D01*
X56086Y171015D01*
X56125Y171041D01*
X56671Y171041D01*
X56709Y171015D01*
X56952Y170853D01*
X57284Y170787D01*
X57615Y170853D01*
X57896Y171041D01*
X58084Y171322D01*
X58150Y171653D01*
X58084Y171985D01*
X57896Y172266D01*
X57615Y172454D01*
X57284Y172520D01*
X56952Y172454D01*
X56709Y172292D01*
X56671Y172266D01*
X56125Y172267D01*
X56087Y172292D01*
X55844Y172455D01*
X55512Y172521D01*
D02*
G37*
G36*
X65100Y171552D02*
X64768Y171486D01*
X64487Y171298D01*
X64299Y171017D01*
X64233Y170685D01*
X64299Y170353D01*
X64487Y170072D01*
X64768Y169885D01*
X65100Y169818D01*
X65432Y169885D01*
X65713Y170072D01*
X66231Y169948D01*
X66376Y169852D01*
X66707Y169786D01*
X67039Y169852D01*
X67320Y170039D01*
X67508Y170321D01*
X67574Y170652D01*
X67508Y170984D01*
X67320Y171265D01*
X67039Y171453D01*
X66707Y171519D01*
X66376Y171453D01*
X66095Y171265D01*
X65576Y171389D01*
X65432Y171486D01*
X65100Y171552D01*
D02*
G37*
G36*
X37008Y172090D02*
X36540Y171996D01*
X36143Y171731D01*
X35878Y171334D01*
X35785Y170866D01*
X35878Y170398D01*
X36143Y170001D01*
X36540Y169736D01*
X37008Y169642D01*
X37476Y169736D01*
X37873Y170001D01*
X38138Y170398D01*
X38232Y170866D01*
X38138Y171334D01*
X37873Y171731D01*
X37476Y171996D01*
X37008Y172090D01*
D02*
G37*
G36*
X104626Y170701D02*
X104275Y170631D01*
X103977Y170432D01*
X103778Y170135D01*
X103708Y169783D01*
X103778Y169432D01*
X103977Y169135D01*
X104275Y168936D01*
X104626Y168866D01*
X104977Y168936D01*
X105275Y169135D01*
X105474Y169432D01*
X105544Y169783D01*
X105474Y170135D01*
X105275Y170432D01*
X104977Y170631D01*
X104626Y170701D01*
D02*
G37*
G36*
X94921Y165977D02*
X94570Y165907D01*
X94272Y165708D01*
X93858Y165708D01*
X93760Y165773D01*
X93560Y165907D01*
X93209Y165977D01*
X92857Y165907D01*
X92560Y165708D01*
X92361Y165410D01*
X92291Y165059D01*
X92361Y164708D01*
X92560Y164410D01*
X92857Y164211D01*
X93209Y164141D01*
X93560Y164211D01*
X93858Y164410D01*
X94272Y164410D01*
X94370Y164345D01*
X94570Y164211D01*
X94921Y164141D01*
X95272Y164211D01*
X95570Y164410D01*
X96044Y164410D01*
X96342Y164211D01*
X96693Y164141D01*
X97044Y164211D01*
X97342Y164410D01*
X97541Y164708D01*
X97611Y165059D01*
X97541Y165410D01*
X97342Y165708D01*
X97044Y165907D01*
X96693Y165977D01*
X96342Y165907D01*
X96044Y165708D01*
X95570Y165708D01*
X95272Y165907D01*
X94921Y165977D01*
D02*
G37*
G36*
X45079D02*
X44728Y165907D01*
X44430Y165708D01*
X43956Y165708D01*
X43658Y165907D01*
X43307Y165977D01*
X42956Y165907D01*
X42658Y165708D01*
X42459Y165410D01*
X42389Y165059D01*
X42459Y164708D01*
X42658Y164410D01*
X42956Y164211D01*
X43307Y164141D01*
X43658Y164211D01*
X43956Y164410D01*
X44430Y164410D01*
X44728Y164211D01*
X45079Y164141D01*
X45430Y164211D01*
X45728Y164410D01*
X45926Y164708D01*
X45996Y165059D01*
X45926Y165410D01*
X45728Y165708D01*
X45430Y165907D01*
X45079Y165977D01*
D02*
G37*
G36*
X101647Y166637D02*
X101296Y166568D01*
X100998Y166369D01*
X100799Y166071D01*
X100729Y165720D01*
X100799Y165369D01*
X100998Y165071D01*
X101296Y164872D01*
X101647Y164802D01*
X101998Y164872D01*
X102296Y165071D01*
X102495Y165369D01*
X102564Y165720D01*
X102495Y166071D01*
X102296Y166369D01*
X101998Y166568D01*
X101647Y166637D01*
D02*
G37*
G36*
X48130Y165977D02*
X47779Y165907D01*
X47481Y165708D01*
X47282Y165410D01*
X47212Y165059D01*
X47282Y164708D01*
X47481Y164410D01*
X47779Y164211D01*
X48130Y164141D01*
X48481Y164211D01*
X48779Y164410D01*
X48978Y164708D01*
X49048Y165059D01*
X48978Y165410D01*
X48779Y165708D01*
X48481Y165907D01*
X48130Y165977D01*
D02*
G37*
G36*
X76950Y164417D02*
X76618Y164351D01*
X76337Y164163D01*
X76217Y163984D01*
X76061Y163946D01*
X75854Y163944D01*
X75662Y163984D01*
X75550Y164151D01*
X75269Y164338D01*
X74937Y164404D01*
X74606Y164338D01*
X74325Y164151D01*
X74273Y164074D01*
X73708Y164080D01*
X73652Y164163D01*
X73371Y164351D01*
X73040Y164417D01*
X72708Y164351D01*
X72427Y164163D01*
X72239Y163882D01*
X72173Y163550D01*
X72239Y163219D01*
X72427Y162938D01*
X72708Y162750D01*
X73040Y162684D01*
X73371Y162750D01*
X73652Y162938D01*
X73704Y163014D01*
X74269Y163008D01*
X74325Y162925D01*
X74606Y162737D01*
X74937Y162671D01*
X75269Y162737D01*
X75550Y162925D01*
X75670Y163104D01*
X75827Y163142D01*
X76033Y163145D01*
X76226Y163104D01*
X76337Y162938D01*
X76618Y162750D01*
X76950Y162684D01*
X77265Y162746D01*
X77373Y162701D01*
X77720Y162516D01*
X77750Y162296D01*
X77718Y162237D01*
X77336Y161907D01*
X77165Y161941D01*
X76814Y161871D01*
X76516Y161672D01*
X76318Y161375D01*
X76248Y161024D01*
X76318Y160672D01*
X76516Y160375D01*
X76814Y160176D01*
X77165Y160106D01*
X77517Y160176D01*
X77814Y160375D01*
X78013Y160672D01*
X78083Y161024D01*
X78013Y161375D01*
X77982Y161421D01*
X78343Y161782D01*
X78389Y161751D01*
X78740Y161681D01*
X79091Y161751D01*
X79389Y161950D01*
X79588Y162247D01*
X79658Y162598D01*
X79588Y162950D01*
X79389Y163247D01*
X79091Y163446D01*
X78740Y163516D01*
X78389Y163446D01*
X78293Y163382D01*
X78090Y163454D01*
X77799Y163641D01*
X77751Y163882D01*
X77563Y164163D01*
X77282Y164351D01*
X76950Y164417D01*
D02*
G37*
G36*
X63281Y164554D02*
X62949Y164488D01*
X62668Y164300D01*
X62480Y164019D01*
X62451Y163872D01*
X62447Y163849D01*
X61937D01*
X61933Y163866D01*
X61746Y164147D01*
X61465Y164335D01*
X61133Y164401D01*
X60801Y164335D01*
X60520Y164147D01*
X60332Y163866D01*
X60271Y163558D01*
X60266Y163534D01*
X60266Y163534D01*
X60285Y163342D01*
X59832Y163154D01*
X59704Y163346D01*
X59406Y163545D01*
X59055Y163614D01*
X58704Y163545D01*
X58406Y163346D01*
X58207Y163048D01*
X58138Y162697D01*
X58207Y162346D01*
X58406Y162048D01*
X58704Y161849D01*
X59055Y161779D01*
X59406Y161849D01*
X59704Y162048D01*
X59903Y162346D01*
X59973Y162697D01*
X59932Y162901D01*
X60403Y163096D01*
X60520Y162921D01*
X60801Y162733D01*
X61133Y162668D01*
X61465Y162733D01*
X61746Y162921D01*
X61933Y163203D01*
X61963Y163349D01*
X61967Y163372D01*
X62477D01*
X62480Y163355D01*
X62668Y163074D01*
X62949Y162886D01*
X63281Y162820D01*
X63613Y162886D01*
X63894Y163074D01*
X64082Y163355D01*
X64148Y163687D01*
X64082Y164019D01*
X63894Y164300D01*
X63613Y164488D01*
X63281Y164554D01*
D02*
G37*
G36*
X49016Y163811D02*
X48665Y163742D01*
X48367Y163543D01*
X48168Y163245D01*
X48098Y162894D01*
X48168Y162542D01*
X48367Y162245D01*
X48665Y162046D01*
X49016Y161976D01*
X49367Y162046D01*
X49665Y162245D01*
X49863Y162542D01*
X49933Y162894D01*
X49863Y163245D01*
X49665Y163543D01*
X49367Y163742D01*
X49016Y163811D01*
D02*
G37*
G36*
X86516Y163614D02*
X86165Y163545D01*
X85867Y163346D01*
X85668Y163048D01*
X85598Y162697D01*
X85668Y162346D01*
X85867Y162048D01*
X86165Y161849D01*
X86516Y161779D01*
X86867Y161849D01*
X87165Y162048D01*
X87363Y162346D01*
X87433Y162697D01*
X87363Y163048D01*
X87165Y163346D01*
X86867Y163545D01*
X86516Y163614D01*
D02*
G37*
G36*
X83366D02*
X83015Y163545D01*
X82717Y163346D01*
X82518Y163048D01*
X82449Y162697D01*
X82518Y162346D01*
X82717Y162048D01*
X83015Y161849D01*
X83366Y161779D01*
X83717Y161849D01*
X84015Y162048D01*
X84214Y162346D01*
X84284Y162697D01*
X84214Y163048D01*
X84015Y163346D01*
X83717Y163545D01*
X83366Y163614D01*
D02*
G37*
G36*
X68996D02*
X68645Y163545D01*
X68347Y163346D01*
X68148Y163048D01*
X68078Y162697D01*
X68148Y162346D01*
X68347Y162048D01*
X68645Y161849D01*
X68996Y161779D01*
X69347Y161849D01*
X69645Y162048D01*
X69844Y162346D01*
X69914Y162697D01*
X69844Y163048D01*
X69645Y163346D01*
X69347Y163545D01*
X68996Y163614D01*
D02*
G37*
G36*
X53051D02*
X52700Y163545D01*
X52402Y163346D01*
X52203Y163048D01*
X52134Y162697D01*
X52203Y162346D01*
X52402Y162048D01*
X52700Y161849D01*
X53051Y161779D01*
X53402Y161849D01*
X53700Y162048D01*
X53899Y162346D01*
X53969Y162697D01*
X53899Y163048D01*
X53700Y163346D01*
X53402Y163545D01*
X53051Y163614D01*
D02*
G37*
G36*
X96693Y163155D02*
X96342Y163085D01*
X96044Y162886D01*
X95845Y162589D01*
X95775Y162238D01*
X95845Y161886D01*
X96044Y161589D01*
X96342Y161390D01*
X96693Y161320D01*
X97044Y161390D01*
X97342Y161589D01*
X97541Y161886D01*
X97611Y162238D01*
X97541Y162589D01*
X97342Y162886D01*
X97044Y163085D01*
X96693Y163155D01*
D02*
G37*
G36*
X43307D02*
X42956Y163085D01*
X42658Y162886D01*
X42459Y162589D01*
X42389Y162238D01*
X42459Y161886D01*
X42658Y161589D01*
X42956Y161390D01*
X43307Y161320D01*
X43658Y161390D01*
X43956Y161589D01*
X44155Y161886D01*
X44225Y162238D01*
X44155Y162589D01*
X43956Y162886D01*
X43658Y163085D01*
X43307Y163155D01*
D02*
G37*
G36*
X91142Y163122D02*
X90791Y163052D01*
X90493Y162854D01*
X90294Y162556D01*
X90224Y162205D01*
X90294Y161854D01*
X90493Y161556D01*
X90791Y161357D01*
X91142Y161287D01*
X91493Y161357D01*
X91791Y161556D01*
X91989Y161854D01*
X92059Y162205D01*
X91989Y162556D01*
X91791Y162854D01*
X91493Y163052D01*
X91142Y163122D01*
D02*
G37*
G36*
X65945Y162532D02*
X65594Y162462D01*
X65296Y162263D01*
X65097Y161965D01*
X65027Y161614D01*
X65097Y161263D01*
X65296Y160965D01*
X65594Y160766D01*
X65945Y160696D01*
X66296Y160766D01*
X66594Y160965D01*
X66793Y161263D01*
X66862Y161614D01*
X66793Y161965D01*
X66594Y162263D01*
X66296Y162462D01*
X65945Y162532D01*
D02*
G37*
G36*
X112992Y161252D02*
X112641Y161182D01*
X112343Y160984D01*
X112144Y160686D01*
X112074Y160335D01*
X112144Y159984D01*
X112343Y159686D01*
X112641Y159487D01*
X112992Y159417D01*
X113343Y159487D01*
X113641Y159686D01*
X113840Y159984D01*
X113910Y160335D01*
X113840Y160686D01*
X113641Y160984D01*
X113343Y161182D01*
X112992Y161252D01*
D02*
G37*
G36*
X91142Y160366D02*
X90791Y160297D01*
X90493Y160098D01*
X90294Y159800D01*
X90224Y159449D01*
X90294Y159098D01*
X90493Y158800D01*
X90791Y158601D01*
X91142Y158531D01*
X91493Y158601D01*
X91791Y158800D01*
X91989Y159098D01*
X92059Y159449D01*
X91989Y159800D01*
X91791Y160098D01*
X91493Y160297D01*
X91142Y160366D01*
D02*
G37*
G36*
X96693Y160334D02*
X96342Y160264D01*
X96044Y160065D01*
X95845Y159767D01*
X95775Y159416D01*
X95845Y159065D01*
X96044Y158767D01*
X96342Y158568D01*
X96693Y158498D01*
X97044Y158568D01*
X97342Y158767D01*
X97541Y159065D01*
X97611Y159416D01*
X97541Y159767D01*
X97342Y160065D01*
X97044Y160264D01*
X96693Y160334D01*
D02*
G37*
G36*
X43307D02*
X42956Y160264D01*
X42658Y160065D01*
X42459Y159767D01*
X42389Y159416D01*
X42459Y159065D01*
X42658Y158767D01*
X42956Y158568D01*
X43307Y158498D01*
X43658Y158568D01*
X43956Y158767D01*
X44155Y159065D01*
X44225Y159416D01*
X44155Y159767D01*
X43956Y160065D01*
X43658Y160264D01*
X43307Y160334D01*
D02*
G37*
G36*
X61221Y160268D02*
X60869Y160198D01*
X60572Y159999D01*
X60373Y159702D01*
X60303Y159350D01*
X60373Y158999D01*
X60572Y158702D01*
X60869Y158503D01*
X61221Y158433D01*
X61572Y158503D01*
X61869Y158702D01*
X62068Y158999D01*
X62138Y159350D01*
X62068Y159702D01*
X61869Y159999D01*
X61572Y160198D01*
X61221Y160268D01*
D02*
G37*
G36*
X49016Y159678D02*
X48665Y159608D01*
X48367Y159409D01*
X48168Y159111D01*
X48098Y158760D01*
X48168Y158409D01*
X48367Y158111D01*
X48665Y157912D01*
X49016Y157842D01*
X49367Y157912D01*
X49665Y158111D01*
X49863Y158409D01*
X49933Y158760D01*
X49863Y159111D01*
X49665Y159409D01*
X49367Y159608D01*
X49016Y159678D01*
D02*
G37*
G36*
X26181Y158004D02*
X25830Y157934D01*
X25532Y157736D01*
X25333Y157438D01*
X25264Y157087D01*
X25333Y156735D01*
X25532Y156438D01*
X25830Y156239D01*
X26181Y156169D01*
X26532Y156239D01*
X26830Y156438D01*
X27029Y156735D01*
X27099Y157087D01*
X27029Y157438D01*
X26830Y157736D01*
X26532Y157934D01*
X26181Y158004D01*
D02*
G37*
G36*
X96693Y157512D02*
X96342Y157442D01*
X96044Y157243D01*
X95845Y156946D01*
X95775Y156595D01*
X95845Y156243D01*
X96044Y155946D01*
X96342Y155747D01*
X96693Y155677D01*
X97044Y155747D01*
X97342Y155946D01*
X97541Y156243D01*
X97611Y156595D01*
X97541Y156946D01*
X97342Y157243D01*
X97044Y157442D01*
X96693Y157512D01*
D02*
G37*
G36*
X43307D02*
X42956Y157442D01*
X42658Y157243D01*
X42459Y156946D01*
X42389Y156595D01*
X42459Y156243D01*
X42658Y155946D01*
X42956Y155747D01*
X43307Y155677D01*
X43658Y155747D01*
X43956Y155946D01*
X44155Y156243D01*
X44225Y156595D01*
X44155Y156946D01*
X43956Y157243D01*
X43658Y157442D01*
X43307Y157512D01*
D02*
G37*
G36*
X61137Y157296D02*
X60805Y157230D01*
X60524Y157042D01*
X60336Y156761D01*
X60270Y156429D01*
X60336Y156098D01*
X60524Y155816D01*
X60805Y155629D01*
X61137Y155563D01*
X61468Y155629D01*
X61750Y155816D01*
X61937Y156098D01*
X62003Y156429D01*
X61937Y156761D01*
X61750Y157042D01*
X61468Y157230D01*
X61137Y157296D01*
D02*
G37*
G36*
X69021Y157381D02*
X68670Y157311D01*
X68372Y157112D01*
X68173Y156814D01*
X68103Y156463D01*
X68173Y156112D01*
X68372Y155814D01*
X68670Y155615D01*
X69021Y155545D01*
X69372Y155615D01*
X69670Y155814D01*
X69868Y156112D01*
X69938Y156463D01*
X69868Y156814D01*
X69670Y157112D01*
X69372Y157311D01*
X69021Y157381D01*
D02*
G37*
G36*
X96653Y155000D02*
X96322Y154935D01*
X96041Y154747D01*
X95853Y154465D01*
X95787Y154134D01*
X95853Y153802D01*
X96041Y153521D01*
X96322Y153333D01*
X96653Y153267D01*
X96985Y153333D01*
X97266Y153521D01*
X97454Y153802D01*
X97520Y154134D01*
X97454Y154465D01*
X97266Y154747D01*
X96985Y154935D01*
X96653Y155000D01*
D02*
G37*
G36*
X90866Y156318D02*
X90015Y156149D01*
X89294Y155666D01*
X88811Y154945D01*
X88642Y154094D01*
X88811Y153243D01*
X89294Y152522D01*
X90015Y152040D01*
X90866Y151870D01*
X91717Y152040D01*
X92438Y152522D01*
X92921Y153243D01*
X93090Y154094D01*
X92921Y154945D01*
X92438Y155666D01*
X91717Y156149D01*
X90866Y156318D01*
D02*
G37*
G36*
X49134D02*
X48283Y156149D01*
X47562Y155666D01*
X47080Y154945D01*
X46910Y154094D01*
X47080Y153243D01*
X47562Y152522D01*
X48283Y152040D01*
X49134Y151870D01*
X49985Y152040D01*
X50706Y152522D01*
X51188Y153243D01*
X51358Y154094D01*
X51188Y154945D01*
X50706Y155666D01*
X49985Y156149D01*
X49134Y156318D01*
D02*
G37*
G36*
X57185Y150276D02*
X56853Y150210D01*
X56572Y150022D01*
X56511Y149931D01*
X55955Y149908D01*
X55943Y149912D01*
X55899Y149979D01*
X55618Y150166D01*
X55286Y150233D01*
X54954Y150166D01*
X54673Y149979D01*
X54608Y149881D01*
X54561Y149866D01*
X54051Y149883D01*
X53965Y150013D01*
X53684Y150201D01*
X53352Y150267D01*
X53020Y150201D01*
X52739Y150013D01*
X52551Y149732D01*
X52485Y149400D01*
X52551Y149068D01*
X52739Y148787D01*
X53020Y148599D01*
X53352Y148533D01*
X53684Y148599D01*
X53965Y148787D01*
X54030Y148884D01*
X54076Y148900D01*
X54586Y148883D01*
X54673Y148753D01*
X54954Y148565D01*
X55286Y148499D01*
X55618Y148565D01*
X55899Y148753D01*
X55960Y148844D01*
X56516Y148868D01*
X56528Y148863D01*
X56572Y148797D01*
X56853Y148609D01*
X57185Y148543D01*
X57517Y148609D01*
X57798Y148797D01*
X57986Y149078D01*
X58052Y149409D01*
X57986Y149741D01*
X57798Y150022D01*
X57517Y150210D01*
X57185Y150276D01*
D02*
G37*
G36*
X100798Y151237D02*
X100330Y151144D01*
X99933Y150878D01*
X99668Y150481D01*
X99575Y150013D01*
X99668Y149545D01*
X99933Y149148D01*
X100330Y148883D01*
X100798Y148790D01*
X101266Y148883D01*
X101663Y149148D01*
X101928Y149545D01*
X102022Y150013D01*
X101928Y150481D01*
X101663Y150878D01*
X101266Y151144D01*
X100798Y151237D01*
D02*
G37*
G36*
X40945Y150626D02*
X40555Y150548D01*
X40224Y150327D01*
X40003Y149996D01*
X39925Y149606D01*
X40003Y149216D01*
X40224Y148885D01*
X40555Y148664D01*
X40945Y148586D01*
X41335Y148664D01*
X41666Y148885D01*
X41887Y149216D01*
X41965Y149606D01*
X41887Y149996D01*
X41666Y150327D01*
X41335Y150548D01*
X40945Y150626D01*
D02*
G37*
G36*
X59524Y150197D02*
X59193Y150131D01*
X58911Y149943D01*
X58723Y149662D01*
X58658Y149330D01*
X58723Y148998D01*
X58911Y148717D01*
X59193Y148530D01*
X59524Y148463D01*
X59856Y148530D01*
X60137Y148717D01*
X60325Y148998D01*
X60391Y149330D01*
X60325Y149662D01*
X60137Y149943D01*
X59856Y150131D01*
X59524Y150197D01*
D02*
G37*
G36*
X65101Y150219D02*
X64750Y150149D01*
X64452Y149950D01*
X64253Y149653D01*
X64183Y149302D01*
X64253Y148950D01*
X64452Y148653D01*
X64750Y148454D01*
X65101Y148384D01*
X65452Y148454D01*
X65750Y148653D01*
X65949Y148950D01*
X66018Y149302D01*
X65949Y149653D01*
X65750Y149950D01*
X65452Y150149D01*
X65101Y150219D01*
D02*
G37*
G36*
X33465Y149441D02*
X33113Y149371D01*
X32816Y149172D01*
X32617Y148875D01*
X32547Y148524D01*
X32617Y148172D01*
X32816Y147875D01*
X33113Y147676D01*
X33465Y147606D01*
X33816Y147676D01*
X34113Y147875D01*
X34312Y148172D01*
X34382Y148524D01*
X34312Y148875D01*
X34113Y149172D01*
X33816Y149371D01*
X33465Y149441D01*
D02*
G37*
G36*
X78232Y149257D02*
X77901Y149191D01*
X77619Y149003D01*
X77432Y148722D01*
X77366Y148390D01*
X77432Y148059D01*
X77619Y147778D01*
X77901Y147590D01*
X78232Y147524D01*
X78564Y147590D01*
X78845Y147778D01*
X79033Y148059D01*
X79099Y148390D01*
X79033Y148722D01*
X78845Y149003D01*
X78564Y149191D01*
X78232Y149257D01*
D02*
G37*
G36*
X73032Y150276D02*
X72700Y150210D01*
X72419Y150022D01*
X72231Y149741D01*
X72165Y149409D01*
X72231Y149078D01*
X72419Y148797D01*
X72700Y148609D01*
X73032Y148543D01*
X73219Y148580D01*
X73559Y148322D01*
X73645Y148196D01*
X73633Y148135D01*
X73699Y147804D01*
X73887Y147523D01*
X74168Y147335D01*
X74500Y147269D01*
X74832Y147335D01*
X75113Y147523D01*
X75301Y147804D01*
X75367Y148135D01*
X75301Y148467D01*
X75113Y148748D01*
X74832Y148936D01*
X74500Y149002D01*
X74312Y148965D01*
X73972Y149223D01*
X73886Y149349D01*
X73898Y149409D01*
X73832Y149741D01*
X73644Y150022D01*
X73363Y150210D01*
X73032Y150276D01*
D02*
G37*
G36*
X71260Y148899D02*
X70928Y148833D01*
X70647Y148645D01*
X70459Y148364D01*
X70393Y148032D01*
X70459Y147700D01*
X70647Y147419D01*
X70928Y147231D01*
X71260Y147165D01*
X71592Y147231D01*
X71873Y147419D01*
X72061Y147700D01*
X72127Y148032D01*
X72061Y148364D01*
X71873Y148645D01*
X71592Y148833D01*
X71260Y148899D01*
D02*
G37*
G36*
X67323Y148950D02*
X66972Y148880D01*
X66674Y148681D01*
X66475Y148383D01*
X66405Y148032D01*
X66475Y147681D01*
X66674Y147383D01*
X66972Y147184D01*
X67323Y147114D01*
X67674Y147184D01*
X67972Y147383D01*
X68171Y147681D01*
X68241Y148032D01*
X68171Y148383D01*
X67972Y148681D01*
X67674Y148880D01*
X67323Y148950D01*
D02*
G37*
G36*
X63031Y148853D02*
X62680Y148784D01*
X62382Y148585D01*
X62183Y148287D01*
X62113Y147936D01*
X62183Y147585D01*
X62382Y147287D01*
X62680Y147088D01*
X63031Y147018D01*
X63382Y147088D01*
X63680Y147287D01*
X63879Y147585D01*
X63949Y147936D01*
X63879Y148287D01*
X63680Y148585D01*
X63382Y148784D01*
X63031Y148853D01*
D02*
G37*
G36*
X83231Y149925D02*
X82900Y149859D01*
X82618Y149671D01*
X82431Y149390D01*
X82365Y149058D01*
X82431Y148727D01*
X82617Y148448D01*
X82612Y148424D01*
X82509Y148066D01*
X82447Y147958D01*
X82129Y147895D01*
X81831Y147696D01*
X81633Y147398D01*
X81563Y147047D01*
X81633Y146696D01*
X81831Y146398D01*
X82129Y146200D01*
X82480Y146130D01*
X82832Y146200D01*
X83129Y146398D01*
X83328Y146696D01*
X83398Y147047D01*
X83328Y147398D01*
X83129Y147696D01*
X83116Y147705D01*
X83202Y148067D01*
X83275Y148200D01*
X83563Y148258D01*
X83844Y148445D01*
X84032Y148727D01*
X84098Y149058D01*
X84032Y149390D01*
X83844Y149671D01*
X83563Y149859D01*
X83231Y149925D01*
D02*
G37*
G36*
X107098Y147039D02*
X106747Y146969D01*
X106449Y146770D01*
X106250Y146472D01*
X106181Y146121D01*
X106250Y145770D01*
X106449Y145472D01*
X106747Y145273D01*
X107098Y145203D01*
X107449Y145273D01*
X107747Y145472D01*
X107946Y145770D01*
X108016Y146121D01*
X107946Y146472D01*
X107747Y146770D01*
X107449Y146969D01*
X107098Y147039D01*
D02*
G37*
G36*
X43097Y146918D02*
X42746Y146848D01*
X42448Y146650D01*
X42249Y146352D01*
X42179Y146001D01*
X42249Y145650D01*
X42448Y145352D01*
X42746Y145153D01*
X43097Y145083D01*
X43448Y145153D01*
X43746Y145352D01*
X43945Y145650D01*
X44014Y146001D01*
X43945Y146352D01*
X43746Y146650D01*
X43448Y146848D01*
X43097Y146918D01*
D02*
G37*
G36*
X53150Y146791D02*
X52720Y146705D01*
X52357Y146462D01*
X52113Y146098D01*
X52028Y145669D01*
X52113Y145240D01*
X52357Y144876D01*
X52720Y144633D01*
X53150Y144548D01*
X53579Y144633D01*
X53943Y144876D01*
X54186Y145240D01*
X54271Y145669D01*
X54186Y146098D01*
X53943Y146462D01*
X53579Y146705D01*
X53150Y146791D01*
D02*
G37*
G36*
X73228Y145701D02*
X72877Y145631D01*
X72579Y145432D01*
X72381Y145135D01*
X72311Y144783D01*
X72381Y144432D01*
X72579Y144135D01*
X72877Y143936D01*
X73228Y143866D01*
X73580Y143936D01*
X73877Y144135D01*
X74076Y144432D01*
X74146Y144783D01*
X74076Y145135D01*
X73877Y145432D01*
X73580Y145631D01*
X73228Y145701D01*
D02*
G37*
G36*
X116929Y145406D02*
X116578Y145336D01*
X116280Y145137D01*
X116081Y144839D01*
X116012Y144488D01*
X116081Y144137D01*
X116280Y143839D01*
X116578Y143640D01*
X116929Y143571D01*
X117280Y143640D01*
X117578Y143839D01*
X117777Y144137D01*
X117847Y144488D01*
X117777Y144839D01*
X117578Y145137D01*
X117280Y145336D01*
X116929Y145406D01*
D02*
G37*
G36*
X111909D02*
X111558Y145336D01*
X111261Y145137D01*
X111062Y144839D01*
X110992Y144488D01*
X111062Y144137D01*
X111261Y143839D01*
X111558Y143640D01*
X111909Y143571D01*
X112261Y143640D01*
X112558Y143839D01*
X112757Y144137D01*
X112827Y144488D01*
X112757Y144839D01*
X112558Y145137D01*
X112261Y145336D01*
X111909Y145406D01*
D02*
G37*
G36*
X58563Y145012D02*
X58212Y144942D01*
X57914Y144743D01*
X57715Y144446D01*
X57645Y144095D01*
X57715Y143743D01*
X57914Y143446D01*
X58212Y143247D01*
X58563Y143177D01*
X58914Y143247D01*
X59212Y143446D01*
X59411Y143743D01*
X59481Y144095D01*
X59411Y144446D01*
X59212Y144743D01*
X58914Y144942D01*
X58563Y145012D01*
D02*
G37*
G36*
X43110Y143339D02*
X42759Y143269D01*
X42461Y143070D01*
X42263Y142772D01*
X42193Y142421D01*
X42263Y142070D01*
X42461Y141772D01*
X42759Y141574D01*
X43110Y141504D01*
X43461Y141574D01*
X43759Y141772D01*
X43958Y142070D01*
X44028Y142421D01*
X43958Y142772D01*
X43759Y143070D01*
X43461Y143269D01*
X43110Y143339D01*
D02*
G37*
G36*
X114961Y141571D02*
X114571Y141493D01*
X114240Y141272D01*
X114019Y140942D01*
X113941Y140551D01*
X114019Y140161D01*
X114240Y139831D01*
X114571Y139610D01*
X114961Y139532D01*
X115351Y139610D01*
X115682Y139831D01*
X115903Y140161D01*
X115981Y140551D01*
X115903Y140942D01*
X115682Y141272D01*
X115351Y141493D01*
X114961Y141571D01*
D02*
G37*
G36*
X102362D02*
X101972Y141493D01*
X101641Y141272D01*
X101420Y140942D01*
X101342Y140551D01*
X101420Y140161D01*
X101641Y139831D01*
X101972Y139610D01*
X102362Y139532D01*
X102752Y139610D01*
X103083Y139831D01*
X103304Y140161D01*
X103382Y140551D01*
X103304Y140942D01*
X103083Y141272D01*
X102752Y141493D01*
X102362Y141571D01*
D02*
G37*
G36*
X25689Y139599D02*
X25338Y139529D01*
X25040Y139330D01*
X24841Y139032D01*
X24771Y138681D01*
X24841Y138330D01*
X25040Y138032D01*
X25338Y137833D01*
X25689Y137764D01*
X26040Y137833D01*
X26338Y138032D01*
X26537Y138330D01*
X26607Y138681D01*
X26537Y139032D01*
X26338Y139330D01*
X26040Y139529D01*
X25689Y139599D01*
D02*
G37*
G36*
X72393Y139249D02*
X72041Y139179D01*
X71744Y138980D01*
X71545Y138682D01*
X71475Y138331D01*
X71545Y137980D01*
X71744Y137682D01*
X72041Y137483D01*
X72393Y137414D01*
X72744Y137483D01*
X73041Y137682D01*
X73240Y137980D01*
X73310Y138331D01*
X73240Y138682D01*
X73041Y138980D01*
X72744Y139179D01*
X72393Y139249D01*
D02*
G37*
G36*
X53445Y137433D02*
X53094Y137364D01*
X52796Y137165D01*
X52597Y136867D01*
X52527Y136516D01*
X52597Y136165D01*
X52796Y135867D01*
X53094Y135668D01*
X53445Y135598D01*
X53796Y135668D01*
X54094Y135867D01*
X54293Y136165D01*
X54362Y136516D01*
X54293Y136867D01*
X54094Y137165D01*
X53796Y137364D01*
X53445Y137433D01*
D02*
G37*
G36*
X39370Y137240D02*
X38980Y137162D01*
X38649Y136941D01*
X38428Y136610D01*
X38350Y136220D01*
X38428Y135830D01*
X38649Y135499D01*
X38980Y135278D01*
X39370Y135200D01*
X39760Y135278D01*
X40091Y135499D01*
X40312Y135830D01*
X40390Y136220D01*
X40312Y136610D01*
X40091Y136941D01*
X39760Y137162D01*
X39370Y137240D01*
D02*
G37*
G36*
X57480Y136941D02*
X57129Y136871D01*
X56831Y136672D01*
X56633Y136375D01*
X56563Y136024D01*
X56633Y135672D01*
X56831Y135375D01*
X57129Y135176D01*
X57480Y135106D01*
X57832Y135176D01*
X58129Y135375D01*
X58328Y135672D01*
X58398Y136024D01*
X58328Y136375D01*
X58129Y136672D01*
X57832Y136871D01*
X57480Y136941D01*
D02*
G37*
G36*
X108661Y136846D02*
X108271Y136768D01*
X107940Y136548D01*
X107719Y136217D01*
X107641Y135827D01*
X107719Y135436D01*
X107940Y135106D01*
X108271Y134885D01*
X108661Y134807D01*
X109051Y134885D01*
X109382Y135106D01*
X109603Y135436D01*
X109681Y135827D01*
X109603Y136217D01*
X109382Y136548D01*
X109051Y136768D01*
X108661Y136846D01*
D02*
G37*
G36*
X93504Y135957D02*
X93153Y135887D01*
X92855Y135688D01*
X92656Y135390D01*
X92586Y135039D01*
X92656Y134688D01*
X92855Y134390D01*
X93153Y134192D01*
X93504Y134122D01*
X93855Y134192D01*
X94153Y134390D01*
X94352Y134688D01*
X94422Y135039D01*
X94352Y135390D01*
X94153Y135688D01*
X93855Y135887D01*
X93504Y135957D01*
D02*
G37*
G36*
X47933Y137236D02*
X47582Y137167D01*
X47284Y136968D01*
X47085Y136670D01*
X47015Y136319D01*
X47035Y136219D01*
X47030Y135928D01*
X46678Y135677D01*
X46676Y135677D01*
X46378Y135478D01*
X46180Y135180D01*
X46110Y134829D01*
X46180Y134478D01*
X46378Y134180D01*
X46676Y133981D01*
X47027Y133911D01*
X47378Y133981D01*
X47676Y134180D01*
X47875Y134478D01*
X47945Y134829D01*
X47925Y134929D01*
X47930Y135219D01*
X48282Y135471D01*
X48284Y135471D01*
X48582Y135670D01*
X48781Y135968D01*
X48851Y136319D01*
X48781Y136670D01*
X48582Y136968D01*
X48284Y137167D01*
X47933Y137236D01*
D02*
G37*
G36*
X121457Y134382D02*
X121106Y134312D01*
X120808Y134113D01*
X120609Y133816D01*
X120539Y133465D01*
X120609Y133113D01*
X120808Y132816D01*
X121106Y132617D01*
X121457Y132547D01*
X121808Y132617D01*
X122106Y132816D01*
X122304Y133113D01*
X122374Y133465D01*
X122304Y133816D01*
X122106Y134113D01*
X121808Y134312D01*
X121457Y134382D01*
D02*
G37*
G36*
X55118Y132414D02*
X54767Y132344D01*
X54469Y132145D01*
X54280Y131862D01*
X54050Y131808D01*
X53755Y131817D01*
X53602Y132046D01*
X53304Y132245D01*
X52953Y132315D01*
X52602Y132245D01*
X52460Y132151D01*
X52116Y132083D01*
X51772Y132151D01*
X51631Y132245D01*
X51279Y132315D01*
X50928Y132245D01*
X50631Y132046D01*
X50432Y131749D01*
X50362Y131398D01*
X50432Y131046D01*
X50631Y130749D01*
X50928Y130550D01*
X51279Y130480D01*
X51631Y130550D01*
X51772Y130645D01*
X52116Y130712D01*
X52460Y130645D01*
X52602Y130550D01*
X52953Y130480D01*
X53304Y130550D01*
X53602Y130749D01*
X53790Y131032D01*
X54020Y131086D01*
X54316Y131076D01*
X54469Y130847D01*
X54767Y130648D01*
X55118Y130578D01*
X55469Y130648D01*
X55767Y130847D01*
X56283Y130770D01*
X56580Y130571D01*
X56932Y130501D01*
X57283Y130571D01*
X57580Y130770D01*
X57779Y131067D01*
X57849Y131419D01*
X57779Y131770D01*
X57580Y132067D01*
X57283Y132266D01*
X56932Y132336D01*
X56580Y132266D01*
X56283Y132067D01*
X55767Y132145D01*
X55469Y132344D01*
X55118Y132414D01*
D02*
G37*
G36*
X33563Y133799D02*
X33134Y133713D01*
X32770Y133470D01*
X32527Y133106D01*
X32441Y132677D01*
X32527Y132248D01*
X32770Y131884D01*
X33134Y131641D01*
X33563Y131556D01*
X33992Y131641D01*
X34356Y131884D01*
X34599Y132248D01*
X34685Y132677D01*
X34599Y133106D01*
X34356Y133470D01*
X33992Y133713D01*
X33563Y133799D01*
D02*
G37*
G36*
X29249Y133044D02*
X28917Y132978D01*
X28636Y132790D01*
X28448Y132509D01*
X28382Y132178D01*
X28448Y131846D01*
X28636Y131565D01*
X28917Y131377D01*
X29249Y131311D01*
X29580Y131377D01*
X29862Y131565D01*
X30049Y131846D01*
X30115Y132178D01*
X30049Y132509D01*
X29862Y132790D01*
X29580Y132978D01*
X29249Y133044D01*
D02*
G37*
G36*
X94674Y132011D02*
X94322Y131942D01*
X94025Y131743D01*
X93826Y131445D01*
X93756Y131094D01*
X93826Y130743D01*
X94025Y130445D01*
X94322Y130246D01*
X94674Y130176D01*
X95025Y130246D01*
X95322Y130445D01*
X95521Y130743D01*
X95591Y131094D01*
X95521Y131445D01*
X95322Y131743D01*
X95025Y131942D01*
X94674Y132011D01*
D02*
G37*
G36*
X114961Y132122D02*
X114571Y132044D01*
X114240Y131824D01*
X114019Y131493D01*
X113941Y131103D01*
X114019Y130712D01*
X114240Y130382D01*
X114571Y130160D01*
X114961Y130083D01*
X115351Y130160D01*
X115682Y130382D01*
X115903Y130712D01*
X115981Y131103D01*
X115903Y131493D01*
X115682Y131824D01*
X115351Y132044D01*
X114961Y132122D01*
D02*
G37*
G36*
X102362D02*
X101972Y132044D01*
X101641Y131824D01*
X101420Y131493D01*
X101342Y131103D01*
X101420Y130712D01*
X101641Y130382D01*
X101972Y130160D01*
X102362Y130083D01*
X102752Y130160D01*
X103083Y130382D01*
X103304Y130712D01*
X103382Y131103D01*
X103304Y131493D01*
X103083Y131824D01*
X102752Y132044D01*
X102362Y132122D01*
D02*
G37*
G36*
X67785Y130555D02*
X67473Y130493D01*
X67208Y130316D01*
X67032Y130051D01*
X66969Y129739D01*
X67032Y129427D01*
X67208Y129162D01*
X67473Y128985D01*
X67785Y128923D01*
X68097Y128985D01*
X68362Y129162D01*
X68539Y129427D01*
X68601Y129739D01*
X68539Y130051D01*
X68362Y130316D01*
X68097Y130493D01*
X67785Y130555D01*
D02*
G37*
G36*
X70374Y130540D02*
X70062Y130478D01*
X69797Y130301D01*
X69620Y130037D01*
X69558Y129724D01*
X69620Y129412D01*
X69797Y129148D01*
X70062Y128971D01*
X70374Y128909D01*
X70686Y128971D01*
X70951Y129148D01*
X71128Y129412D01*
X71190Y129724D01*
X71128Y130037D01*
X70951Y130301D01*
X70686Y130478D01*
X70374Y130540D01*
D02*
G37*
G36*
X50000Y130347D02*
X49649Y130277D01*
X49351Y130078D01*
X49152Y129780D01*
X49082Y129429D01*
X49152Y129078D01*
X49351Y128780D01*
X49649Y128581D01*
X50000Y128512D01*
X50351Y128581D01*
X50649Y128780D01*
X50848Y129078D01*
X50918Y129429D01*
X50848Y129780D01*
X50649Y130078D01*
X50351Y130277D01*
X50000Y130347D01*
D02*
G37*
G36*
X127264Y129953D02*
X126913Y129883D01*
X126615Y129684D01*
X126416Y129387D01*
X126346Y129035D01*
X126416Y128684D01*
X126615Y128387D01*
X126913Y128188D01*
X127264Y128118D01*
X127615Y128188D01*
X127913Y128387D01*
X128112Y128684D01*
X128181Y129035D01*
X128112Y129387D01*
X127913Y129684D01*
X127615Y129883D01*
X127264Y129953D01*
D02*
G37*
G36*
X35925Y127886D02*
X35574Y127816D01*
X35276Y127617D01*
X35077Y127320D01*
X35008Y126969D01*
X35077Y126617D01*
X35276Y126320D01*
X35574Y126121D01*
X35925Y126051D01*
X36276Y126121D01*
X36574Y126320D01*
X36773Y126617D01*
X36843Y126969D01*
X36773Y127320D01*
X36574Y127617D01*
X36276Y127816D01*
X35925Y127886D01*
D02*
G37*
G36*
X80708Y127390D02*
X80396Y127328D01*
X80131Y127151D01*
X79954Y126886D01*
X79892Y126574D01*
X79954Y126262D01*
X80131Y125997D01*
X80396Y125820D01*
X80708Y125758D01*
X81020Y125820D01*
X81285Y125997D01*
X81462Y126262D01*
X81524Y126574D01*
X81462Y126886D01*
X81285Y127151D01*
X81020Y127328D01*
X80708Y127390D01*
D02*
G37*
G36*
X78149D02*
X77837Y127328D01*
X77572Y127151D01*
X77395Y126886D01*
X77333Y126574D01*
X77395Y126262D01*
X77572Y125997D01*
X77837Y125820D01*
X78149Y125758D01*
X78461Y125820D01*
X78726Y125997D01*
X78903Y126262D01*
X78965Y126574D01*
X78903Y126886D01*
X78726Y127151D01*
X78461Y127328D01*
X78149Y127390D01*
D02*
G37*
G36*
X75590D02*
X75278Y127328D01*
X75013Y127151D01*
X74836Y126886D01*
X74774Y126574D01*
X74836Y126262D01*
X75013Y125997D01*
X75278Y125820D01*
X75590Y125758D01*
X75902Y125820D01*
X76167Y125997D01*
X76344Y126262D01*
X76406Y126574D01*
X76344Y126886D01*
X76167Y127151D01*
X75902Y127328D01*
X75590Y127390D01*
D02*
G37*
G36*
X73031D02*
X72719Y127328D01*
X72454Y127151D01*
X72277Y126886D01*
X72215Y126574D01*
X72277Y126262D01*
X72454Y125997D01*
X72719Y125820D01*
X73031Y125758D01*
X73343Y125820D01*
X73608Y125997D01*
X73785Y126262D01*
X73847Y126574D01*
X73785Y126886D01*
X73608Y127151D01*
X73343Y127328D01*
X73031Y127390D01*
D02*
G37*
G36*
X67914D02*
X67602Y127328D01*
X67337Y127151D01*
X67160Y126886D01*
X67098Y126574D01*
X67160Y126262D01*
X67337Y125997D01*
X67602Y125820D01*
X67914Y125758D01*
X68226Y125820D01*
X68491Y125997D01*
X68668Y126262D01*
X68730Y126574D01*
X68668Y126886D01*
X68491Y127151D01*
X68226Y127328D01*
X67914Y127390D01*
D02*
G37*
G36*
X62795D02*
X62483Y127328D01*
X62218Y127151D01*
X62041Y126886D01*
X61979Y126574D01*
X62041Y126262D01*
X62218Y125997D01*
X62483Y125820D01*
X62795Y125758D01*
X63107Y125820D01*
X63372Y125997D01*
X63549Y126262D01*
X63611Y126574D01*
X63549Y126886D01*
X63372Y127151D01*
X63107Y127328D01*
X62795Y127390D01*
D02*
G37*
G36*
X60236D02*
X59924Y127328D01*
X59659Y127151D01*
X59483Y126886D01*
X59420Y126574D01*
X59483Y126262D01*
X59659Y125997D01*
X59924Y125820D01*
X60236Y125758D01*
X60548Y125820D01*
X60813Y125997D01*
X60990Y126262D01*
X61052Y126574D01*
X60990Y126886D01*
X60813Y127151D01*
X60548Y127328D01*
X60236Y127390D01*
D02*
G37*
G36*
X52559D02*
X52247Y127328D01*
X51982Y127151D01*
X51806Y126886D01*
X51743Y126574D01*
X51806Y126262D01*
X51982Y125997D01*
X52247Y125820D01*
X52559Y125758D01*
X52871Y125820D01*
X53136Y125997D01*
X53313Y126262D01*
X53375Y126574D01*
X53313Y126886D01*
X53136Y127151D01*
X52871Y127328D01*
X52559Y127390D01*
D02*
G37*
G36*
X8661Y127996D02*
X8193Y127902D01*
X7796Y127637D01*
X7531Y127240D01*
X7438Y126772D01*
X7531Y126304D01*
X7796Y125907D01*
X8193Y125642D01*
X8661Y125549D01*
X9129Y125642D01*
X9526Y125907D01*
X9791Y126304D01*
X9884Y126772D01*
X9791Y127240D01*
X9526Y127637D01*
X9129Y127902D01*
X8661Y127996D01*
D02*
G37*
G36*
X94477Y126612D02*
X94126Y126542D01*
X93828Y126344D01*
X93629Y126046D01*
X93559Y125695D01*
X93629Y125344D01*
X93828Y125046D01*
X94126Y124847D01*
X94477Y124777D01*
X94828Y124847D01*
X95126Y125046D01*
X95325Y125344D01*
X95394Y125695D01*
X95325Y126046D01*
X95126Y126344D01*
X94828Y126542D01*
X94477Y126612D01*
D02*
G37*
G36*
X127461Y126607D02*
X127110Y126537D01*
X126812Y126338D01*
X126613Y126040D01*
X126543Y125689D01*
X126613Y125338D01*
X126812Y125040D01*
X127110Y124841D01*
X127461Y124771D01*
X127812Y124841D01*
X128110Y125040D01*
X128308Y125338D01*
X128378Y125689D01*
X128308Y126040D01*
X128110Y126338D01*
X127812Y126537D01*
X127461Y126607D01*
D02*
G37*
G36*
X30168Y127029D02*
X29660Y126928D01*
X29230Y126641D01*
X28943Y126211D01*
X28842Y125704D01*
X28943Y125197D01*
X29230Y124767D01*
X29660Y124479D01*
X30168Y124378D01*
X30675Y124479D01*
X31105Y124767D01*
X31392Y125197D01*
X31493Y125704D01*
X31392Y126211D01*
X31105Y126641D01*
X30675Y126928D01*
X30168Y127029D01*
D02*
G37*
G36*
X43406Y128477D02*
X43054Y128407D01*
X42757Y128208D01*
X42558Y127910D01*
X42488Y127559D01*
X42015Y127372D01*
X41775Y127324D01*
X41477Y127125D01*
X41278Y126828D01*
X41208Y126476D01*
X41278Y126125D01*
X41477Y125828D01*
X41775Y125629D01*
X42126Y125559D01*
X42477Y125629D01*
X42775Y125828D01*
X42974Y126125D01*
X43044Y126476D01*
X43507Y126660D01*
X43788Y126668D01*
X44034Y126322D01*
X44233Y126024D01*
X44531Y125826D01*
X44882Y125756D01*
X45233Y125826D01*
X45531Y126024D01*
X45718Y126304D01*
X45834Y126322D01*
X46119Y126322D01*
X46236Y126304D01*
X46401Y126058D01*
X46644Y125895D01*
X46665Y125881D01*
X46665Y125881D01*
X46758Y125856D01*
Y125353D01*
X46593Y125320D01*
X46328Y125144D01*
X46152Y124879D01*
X46089Y124567D01*
X46152Y124255D01*
X46328Y123990D01*
X46593Y123813D01*
X46905Y123751D01*
X47217Y123813D01*
X47482Y123990D01*
X47659Y124255D01*
X47721Y124567D01*
X47659Y124879D01*
X47482Y125144D01*
X47238Y125306D01*
X47217Y125320D01*
X47217Y125320D01*
X47125Y125346D01*
Y125848D01*
X47290Y125881D01*
X47554Y126058D01*
X47731Y126323D01*
X47793Y126635D01*
X47731Y126947D01*
X47554Y127211D01*
X47290Y127388D01*
X46977Y127450D01*
X46665Y127388D01*
X46401Y127211D01*
X46248Y126983D01*
X46100Y126966D01*
X45735Y127024D01*
X45730Y127025D01*
X45531Y127322D01*
X45233Y127521D01*
X44882Y127591D01*
X44791Y127573D01*
X44500Y127564D01*
X44253Y127910D01*
X44054Y128208D01*
X43757Y128407D01*
X43406Y128477D01*
D02*
G37*
G36*
X73027Y125160D02*
X72715Y125097D01*
X72450Y124921D01*
X72274Y124656D01*
X72211Y124344D01*
X72274Y124032D01*
X72450Y123767D01*
X72715Y123590D01*
X73027Y123528D01*
X73339Y123590D01*
X73604Y123767D01*
X73781Y124032D01*
X73843Y124344D01*
X73781Y124656D01*
X73604Y124921D01*
X73339Y125097D01*
X73027Y125160D01*
D02*
G37*
G36*
X99213Y125327D02*
X98861Y125257D01*
X98564Y125058D01*
X98365Y124761D01*
X98295Y124409D01*
X98365Y124058D01*
X98564Y123761D01*
X98861Y123562D01*
X99213Y123492D01*
X99564Y123562D01*
X99862Y123761D01*
X100060Y124058D01*
X100130Y124409D01*
X100060Y124761D01*
X99862Y125058D01*
X99564Y125257D01*
X99213Y125327D01*
D02*
G37*
G36*
X80709Y124832D02*
X80397Y124770D01*
X80132Y124593D01*
X79956Y124328D01*
X79893Y124016D01*
X79956Y123704D01*
X80132Y123439D01*
X80397Y123263D01*
X80709Y123200D01*
X81021Y123263D01*
X81286Y123439D01*
X81463Y123704D01*
X81525Y124016D01*
X81463Y124328D01*
X81286Y124593D01*
X81021Y124770D01*
X80709Y124832D01*
D02*
G37*
G36*
X78149Y124831D02*
X77837Y124768D01*
X77572Y124592D01*
X77395Y124327D01*
X77333Y124015D01*
X77395Y123703D01*
X77572Y123438D01*
X77837Y123261D01*
X78149Y123199D01*
X78461Y123261D01*
X78726Y123438D01*
X78903Y123703D01*
X78965Y124015D01*
X78903Y124327D01*
X78726Y124592D01*
X78461Y124768D01*
X78149Y124831D01*
D02*
G37*
G36*
X75590D02*
X75278Y124768D01*
X75013Y124592D01*
X74836Y124327D01*
X74774Y124015D01*
X74836Y123703D01*
X75013Y123438D01*
X75278Y123261D01*
X75590Y123199D01*
X75902Y123261D01*
X76167Y123438D01*
X76344Y123703D01*
X76406Y124015D01*
X76344Y124327D01*
X76167Y124592D01*
X75902Y124768D01*
X75590Y124831D01*
D02*
G37*
G36*
X70472D02*
X70160Y124768D01*
X69895Y124592D01*
X69718Y124327D01*
X69656Y124015D01*
X69718Y123703D01*
X69895Y123438D01*
X70160Y123261D01*
X70472Y123199D01*
X70784Y123261D01*
X71049Y123438D01*
X71226Y123703D01*
X71288Y124015D01*
X71226Y124327D01*
X71049Y124592D01*
X70784Y124768D01*
X70472Y124831D01*
D02*
G37*
G36*
X67914D02*
X67602Y124768D01*
X67337Y124592D01*
X67160Y124327D01*
X67098Y124015D01*
X67160Y123703D01*
X67337Y123438D01*
X67602Y123261D01*
X67914Y123199D01*
X68226Y123261D01*
X68491Y123438D01*
X68668Y123703D01*
X68730Y124015D01*
X68668Y124327D01*
X68491Y124592D01*
X68226Y124768D01*
X67914Y124831D01*
D02*
G37*
G36*
X62795D02*
X62483Y124768D01*
X62218Y124592D01*
X62041Y124327D01*
X61979Y124015D01*
X62041Y123703D01*
X62218Y123438D01*
X62483Y123261D01*
X62795Y123199D01*
X63107Y123261D01*
X63372Y123438D01*
X63549Y123703D01*
X63611Y124015D01*
X63549Y124327D01*
X63372Y124592D01*
X63107Y124768D01*
X62795Y124831D01*
D02*
G37*
G36*
X60236D02*
X59924Y124768D01*
X59659Y124592D01*
X59483Y124327D01*
X59420Y124015D01*
X59483Y123703D01*
X59659Y123438D01*
X59924Y123261D01*
X60236Y123199D01*
X60548Y123261D01*
X60813Y123438D01*
X60990Y123703D01*
X61052Y124015D01*
X60990Y124327D01*
X60813Y124592D01*
X60548Y124768D01*
X60236Y124831D01*
D02*
G37*
G36*
X57677D02*
X57365Y124768D01*
X57100Y124592D01*
X56924Y124327D01*
X56861Y124015D01*
X56924Y123703D01*
X57100Y123438D01*
X57365Y123261D01*
X57677Y123199D01*
X57989Y123261D01*
X58254Y123438D01*
X58431Y123703D01*
X58493Y124015D01*
X58431Y124327D01*
X58254Y124592D01*
X57989Y124768D01*
X57677Y124831D01*
D02*
G37*
G36*
X55118D02*
X54806Y124768D01*
X54541Y124592D01*
X54365Y124327D01*
X54302Y124015D01*
X54365Y123703D01*
X54541Y123438D01*
X54806Y123261D01*
X55118Y123199D01*
X55430Y123261D01*
X55695Y123438D01*
X55872Y123703D01*
X55934Y124015D01*
X55872Y124327D01*
X55695Y124592D01*
X55430Y124768D01*
X55118Y124831D01*
D02*
G37*
G36*
X52559D02*
X52247Y124768D01*
X51982Y124592D01*
X51806Y124327D01*
X51743Y124015D01*
X51806Y123703D01*
X51982Y123438D01*
X52247Y123261D01*
X52559Y123199D01*
X52871Y123261D01*
X53136Y123438D01*
X53313Y123703D01*
X53375Y124015D01*
X53313Y124327D01*
X53136Y124592D01*
X52871Y124768D01*
X52559Y124831D01*
D02*
G37*
G36*
X50000D02*
X49688Y124768D01*
X49423Y124592D01*
X49246Y124327D01*
X49184Y124015D01*
X49246Y123703D01*
X49423Y123438D01*
X49688Y123261D01*
X50000Y123199D01*
X50312Y123261D01*
X50577Y123438D01*
X50754Y123703D01*
X50816Y124015D01*
X50754Y124327D01*
X50577Y124592D01*
X50312Y124768D01*
X50000Y124831D01*
D02*
G37*
G36*
X83957Y123946D02*
X83645Y123883D01*
X83380Y123707D01*
X83203Y123442D01*
X83141Y123130D01*
X83203Y122818D01*
X83380Y122553D01*
X83645Y122376D01*
X83957Y122314D01*
X84269Y122376D01*
X84534Y122553D01*
X84710Y122818D01*
X84772Y123130D01*
X84710Y123442D01*
X84534Y123707D01*
X84269Y123883D01*
X83957Y123946D01*
D02*
G37*
G36*
X78149Y122272D02*
X77837Y122210D01*
X77572Y122033D01*
X77395Y121768D01*
X77333Y121456D01*
X77395Y121144D01*
X77572Y120879D01*
X77837Y120702D01*
X78149Y120640D01*
X78461Y120702D01*
X78726Y120879D01*
X78903Y121144D01*
X78965Y121456D01*
X78903Y121768D01*
X78726Y122033D01*
X78461Y122210D01*
X78149Y122272D01*
D02*
G37*
G36*
X75590D02*
X75278Y122210D01*
X75013Y122033D01*
X74836Y121768D01*
X74774Y121456D01*
X74836Y121144D01*
X75013Y120879D01*
X75278Y120702D01*
X75590Y120640D01*
X75902Y120702D01*
X76167Y120879D01*
X76344Y121144D01*
X76406Y121456D01*
X76344Y121768D01*
X76167Y122033D01*
X75902Y122210D01*
X75590Y122272D01*
D02*
G37*
G36*
X73031D02*
X72719Y122210D01*
X72454Y122033D01*
X72277Y121768D01*
X72215Y121456D01*
X72277Y121144D01*
X72454Y120879D01*
X72719Y120702D01*
X73031Y120640D01*
X73343Y120702D01*
X73608Y120879D01*
X73785Y121144D01*
X73847Y121456D01*
X73785Y121768D01*
X73608Y122033D01*
X73343Y122210D01*
X73031Y122272D01*
D02*
G37*
G36*
X70472D02*
X70160Y122210D01*
X69895Y122033D01*
X69718Y121768D01*
X69656Y121456D01*
X69718Y121144D01*
X69895Y120879D01*
X70160Y120702D01*
X70472Y120640D01*
X70784Y120702D01*
X71049Y120879D01*
X71226Y121144D01*
X71288Y121456D01*
X71226Y121768D01*
X71049Y122033D01*
X70784Y122210D01*
X70472Y122272D01*
D02*
G37*
G36*
X67914D02*
X67602Y122210D01*
X67337Y122033D01*
X67160Y121768D01*
X67098Y121456D01*
X67160Y121144D01*
X67337Y120879D01*
X67602Y120702D01*
X67914Y120640D01*
X68226Y120702D01*
X68491Y120879D01*
X68668Y121144D01*
X68730Y121456D01*
X68668Y121768D01*
X68491Y122033D01*
X68226Y122210D01*
X67914Y122272D01*
D02*
G37*
G36*
X62795D02*
X62483Y122210D01*
X62218Y122033D01*
X62041Y121768D01*
X61979Y121456D01*
X62041Y121144D01*
X62218Y120879D01*
X62483Y120702D01*
X62795Y120640D01*
X63107Y120702D01*
X63372Y120879D01*
X63549Y121144D01*
X63611Y121456D01*
X63549Y121768D01*
X63372Y122033D01*
X63107Y122210D01*
X62795Y122272D01*
D02*
G37*
G36*
X60236D02*
X59924Y122210D01*
X59659Y122033D01*
X59483Y121768D01*
X59420Y121456D01*
X59483Y121144D01*
X59659Y120879D01*
X59924Y120702D01*
X60236Y120640D01*
X60548Y120702D01*
X60813Y120879D01*
X60990Y121144D01*
X61052Y121456D01*
X60990Y121768D01*
X60813Y122033D01*
X60548Y122210D01*
X60236Y122272D01*
D02*
G37*
G36*
X57677D02*
X57365Y122210D01*
X57100Y122033D01*
X56924Y121768D01*
X56861Y121456D01*
X56924Y121144D01*
X57100Y120879D01*
X57365Y120702D01*
X57677Y120640D01*
X57989Y120702D01*
X58254Y120879D01*
X58431Y121144D01*
X58493Y121456D01*
X58431Y121768D01*
X58254Y122033D01*
X57989Y122210D01*
X57677Y122272D01*
D02*
G37*
G36*
X55118D02*
X54806Y122210D01*
X54541Y122033D01*
X54365Y121768D01*
X54302Y121456D01*
X54365Y121144D01*
X54541Y120879D01*
X54806Y120702D01*
X55118Y120640D01*
X55430Y120702D01*
X55695Y120879D01*
X55872Y121144D01*
X55934Y121456D01*
X55872Y121768D01*
X55695Y122033D01*
X55430Y122210D01*
X55118Y122272D01*
D02*
G37*
G36*
X52559D02*
X52247Y122210D01*
X51982Y122033D01*
X51806Y121768D01*
X51743Y121456D01*
X51806Y121144D01*
X51982Y120879D01*
X52247Y120702D01*
X52559Y120640D01*
X52871Y120702D01*
X53136Y120879D01*
X53313Y121144D01*
X53375Y121456D01*
X53313Y121768D01*
X53136Y122033D01*
X52871Y122210D01*
X52559Y122272D01*
D02*
G37*
G36*
X50000D02*
X49688Y122210D01*
X49423Y122033D01*
X49246Y121768D01*
X49184Y121456D01*
X49246Y121144D01*
X49423Y120879D01*
X49688Y120702D01*
X50000Y120640D01*
X50312Y120702D01*
X50577Y120879D01*
X50754Y121144D01*
X50816Y121456D01*
X50754Y121768D01*
X50577Y122033D01*
X50312Y122210D01*
X50000Y122272D01*
D02*
G37*
G36*
X47441D02*
X47129Y122210D01*
X46864Y122033D01*
X46687Y121768D01*
X46625Y121456D01*
X46687Y121144D01*
X46864Y120879D01*
X47129Y120702D01*
X47441Y120640D01*
X47753Y120702D01*
X48018Y120879D01*
X48195Y121144D01*
X48257Y121456D01*
X48195Y121768D01*
X48018Y122033D01*
X47753Y122210D01*
X47441Y122272D01*
D02*
G37*
G36*
X18110Y129115D02*
X17779Y129049D01*
X17497Y128861D01*
X17310Y128580D01*
X17244Y128248D01*
X17310Y127916D01*
X17497Y127635D01*
X17505Y127630D01*
X17594Y127102D01*
X17551Y127022D01*
X17408Y126808D01*
X17342Y126476D01*
X17408Y126145D01*
X17551Y125931D01*
X17594Y125851D01*
X17505Y125323D01*
X17497Y125318D01*
X17310Y125036D01*
X17244Y124705D01*
X17310Y124373D01*
X17497Y124092D01*
X17541Y124063D01*
X17587Y123498D01*
X17575Y123474D01*
X17399Y123211D01*
X17333Y122879D01*
X17399Y122547D01*
X17587Y122266D01*
X17595Y121808D01*
X17408Y121527D01*
X17342Y121195D01*
X17408Y120864D01*
X17595Y120583D01*
X17877Y120395D01*
X18208Y120329D01*
X18540Y120395D01*
X18821Y120583D01*
X19009Y120864D01*
X19075Y121195D01*
X19009Y121527D01*
X18821Y121808D01*
X18813Y122266D01*
X19001Y122547D01*
X19067Y122879D01*
X19001Y123211D01*
X18813Y123492D01*
X18769Y123521D01*
X18724Y124085D01*
X18735Y124110D01*
X18911Y124373D01*
X18977Y124705D01*
X18911Y125036D01*
X18768Y125250D01*
X18725Y125330D01*
X18814Y125858D01*
X18822Y125864D01*
X19009Y126145D01*
X19075Y126476D01*
X19009Y126808D01*
X18822Y127089D01*
X18814Y127094D01*
X18725Y127622D01*
X18768Y127703D01*
X18911Y127916D01*
X18977Y128248D01*
X18911Y128580D01*
X18723Y128861D01*
X18442Y129049D01*
X18110Y129115D01*
D02*
G37*
G36*
X123409Y122371D02*
X123097Y122309D01*
X122832Y122132D01*
X122655Y121867D01*
X122593Y121555D01*
X122655Y121243D01*
X122458Y120854D01*
X122194Y120678D01*
X122017Y120413D01*
X121955Y120101D01*
X122017Y119789D01*
X122194Y119524D01*
X122458Y119347D01*
X122771Y119285D01*
X123083Y119347D01*
X123347Y119524D01*
X123524Y119789D01*
X123586Y120101D01*
X123524Y120413D01*
X123721Y120801D01*
X123986Y120978D01*
X124163Y121243D01*
X124225Y121555D01*
X124163Y121867D01*
X123986Y122132D01*
X123721Y122309D01*
X123409Y122371D01*
D02*
G37*
G36*
X15663Y120154D02*
X15331Y120088D01*
X15050Y119900D01*
X14862Y119619D01*
X14796Y119287D01*
X14862Y118956D01*
X15050Y118675D01*
X15331Y118487D01*
X15663Y118421D01*
X15994Y118487D01*
X16276Y118675D01*
X16464Y118956D01*
X16530Y119287D01*
X16464Y119619D01*
X16276Y119900D01*
X15994Y120088D01*
X15663Y120154D01*
D02*
G37*
G36*
X107283Y120209D02*
X106932Y120139D01*
X106635Y119940D01*
X106436Y119642D01*
X106366Y119291D01*
X106436Y118940D01*
X106635Y118642D01*
X106932Y118444D01*
X107283Y118374D01*
X107635Y118444D01*
X107932Y118642D01*
X108131Y118940D01*
X108201Y119291D01*
X108131Y119642D01*
X107932Y119940D01*
X107635Y120139D01*
X107283Y120209D01*
D02*
G37*
G36*
X78149Y119713D02*
X77837Y119650D01*
X77572Y119474D01*
X77395Y119209D01*
X77333Y118897D01*
X77395Y118585D01*
X77572Y118320D01*
X77837Y118143D01*
X78149Y118081D01*
X78461Y118143D01*
X78726Y118320D01*
X78903Y118585D01*
X78965Y118897D01*
X78903Y119209D01*
X78726Y119474D01*
X78461Y119650D01*
X78149Y119713D01*
D02*
G37*
G36*
X75590D02*
X75278Y119650D01*
X75013Y119474D01*
X74836Y119209D01*
X74774Y118897D01*
X74836Y118585D01*
X75013Y118320D01*
X75278Y118143D01*
X75590Y118081D01*
X75902Y118143D01*
X76167Y118320D01*
X76344Y118585D01*
X76406Y118897D01*
X76344Y119209D01*
X76167Y119474D01*
X75902Y119650D01*
X75590Y119713D01*
D02*
G37*
G36*
X73031D02*
X72719Y119650D01*
X72454Y119474D01*
X72277Y119209D01*
X72215Y118897D01*
X72277Y118585D01*
X72454Y118320D01*
X72719Y118143D01*
X73031Y118081D01*
X73343Y118143D01*
X73608Y118320D01*
X73785Y118585D01*
X73847Y118897D01*
X73785Y119209D01*
X73608Y119474D01*
X73343Y119650D01*
X73031Y119713D01*
D02*
G37*
G36*
X70472D02*
X70160Y119650D01*
X69895Y119474D01*
X69718Y119209D01*
X69656Y118897D01*
X69718Y118585D01*
X69895Y118320D01*
X70160Y118143D01*
X70472Y118081D01*
X70784Y118143D01*
X71049Y118320D01*
X71226Y118585D01*
X71288Y118897D01*
X71226Y119209D01*
X71049Y119474D01*
X70784Y119650D01*
X70472Y119713D01*
D02*
G37*
G36*
X67914D02*
X67602Y119650D01*
X67337Y119474D01*
X67160Y119209D01*
X67098Y118897D01*
X67160Y118585D01*
X67337Y118320D01*
X67602Y118143D01*
X67914Y118081D01*
X68226Y118143D01*
X68491Y118320D01*
X68668Y118585D01*
X68730Y118897D01*
X68668Y119209D01*
X68491Y119474D01*
X68226Y119650D01*
X67914Y119713D01*
D02*
G37*
G36*
X62795D02*
X62483Y119650D01*
X62218Y119474D01*
X62041Y119209D01*
X61979Y118897D01*
X62041Y118585D01*
X62218Y118320D01*
X62483Y118143D01*
X62795Y118081D01*
X63107Y118143D01*
X63372Y118320D01*
X63549Y118585D01*
X63611Y118897D01*
X63549Y119209D01*
X63372Y119474D01*
X63107Y119650D01*
X62795Y119713D01*
D02*
G37*
G36*
X60236D02*
X59924Y119650D01*
X59659Y119474D01*
X59483Y119209D01*
X59420Y118897D01*
X59483Y118585D01*
X59659Y118320D01*
X59924Y118143D01*
X60236Y118081D01*
X60548Y118143D01*
X60813Y118320D01*
X60990Y118585D01*
X61052Y118897D01*
X60990Y119209D01*
X60813Y119474D01*
X60548Y119650D01*
X60236Y119713D01*
D02*
G37*
G36*
X57677D02*
X57365Y119650D01*
X57100Y119474D01*
X56924Y119209D01*
X56861Y118897D01*
X56924Y118585D01*
X57100Y118320D01*
X57365Y118143D01*
X57677Y118081D01*
X57989Y118143D01*
X58254Y118320D01*
X58431Y118585D01*
X58493Y118897D01*
X58431Y119209D01*
X58254Y119474D01*
X57989Y119650D01*
X57677Y119713D01*
D02*
G37*
G36*
X55118D02*
X54806Y119650D01*
X54541Y119474D01*
X54365Y119209D01*
X54302Y118897D01*
X54365Y118585D01*
X54541Y118320D01*
X54806Y118143D01*
X55118Y118081D01*
X55430Y118143D01*
X55695Y118320D01*
X55872Y118585D01*
X55934Y118897D01*
X55872Y119209D01*
X55695Y119474D01*
X55430Y119650D01*
X55118Y119713D01*
D02*
G37*
G36*
X52559D02*
X52247Y119650D01*
X51982Y119474D01*
X51806Y119209D01*
X51743Y118897D01*
X51806Y118585D01*
X51982Y118320D01*
X52247Y118143D01*
X52559Y118081D01*
X52871Y118143D01*
X53136Y118320D01*
X53313Y118585D01*
X53375Y118897D01*
X53313Y119209D01*
X53136Y119474D01*
X52871Y119650D01*
X52559Y119713D01*
D02*
G37*
G36*
X50000D02*
X49688Y119650D01*
X49423Y119474D01*
X49246Y119209D01*
X49184Y118897D01*
X49246Y118585D01*
X49423Y118320D01*
X49688Y118143D01*
X50000Y118081D01*
X50312Y118143D01*
X50577Y118320D01*
X50754Y118585D01*
X50816Y118897D01*
X50754Y119209D01*
X50577Y119474D01*
X50312Y119650D01*
X50000Y119713D01*
D02*
G37*
G36*
X37528Y119628D02*
X37177Y119558D01*
X36879Y119359D01*
X36680Y119061D01*
X36611Y118710D01*
X36680Y118359D01*
X36879Y118061D01*
X37177Y117862D01*
X37528Y117792D01*
X37879Y117862D01*
X38177Y118061D01*
X38376Y118359D01*
X38446Y118710D01*
X38376Y119061D01*
X38177Y119359D01*
X37879Y119558D01*
X37528Y119628D01*
D02*
G37*
G36*
X130052Y119133D02*
X129720Y119067D01*
X129439Y118879D01*
X129251Y118598D01*
X129185Y118267D01*
X129251Y117935D01*
X129439Y117654D01*
X129720Y117466D01*
X130052Y117400D01*
X130383Y117466D01*
X130665Y117654D01*
X130852Y117935D01*
X130918Y118267D01*
X130852Y118598D01*
X130665Y118879D01*
X130383Y119067D01*
X130052Y119133D01*
D02*
G37*
G36*
X88021Y118741D02*
X87670Y118672D01*
X87373Y118473D01*
X87174Y118175D01*
X87104Y117824D01*
X87174Y117473D01*
X87373Y117175D01*
X87670Y116976D01*
X88021Y116906D01*
X88373Y116976D01*
X88670Y117175D01*
X88869Y117473D01*
X88939Y117824D01*
X88869Y118175D01*
X88670Y118473D01*
X88373Y118672D01*
X88021Y118741D01*
D02*
G37*
G36*
X116990Y118491D02*
X116638Y118421D01*
X116341Y118222D01*
X116142Y117924D01*
X116072Y117573D01*
X116142Y117222D01*
X116341Y116925D01*
X116638Y116726D01*
X116990Y116656D01*
X117341Y116726D01*
X117638Y116925D01*
X117837Y117222D01*
X117907Y117573D01*
X117837Y117924D01*
X117638Y118222D01*
X117341Y118421D01*
X116990Y118491D01*
D02*
G37*
G36*
X18182Y118370D02*
X17850Y118304D01*
X17569Y118116D01*
X17381Y117835D01*
X17315Y117503D01*
X17381Y117171D01*
X17569Y116890D01*
X17850Y116702D01*
X18182Y116636D01*
X18514Y116702D01*
X18795Y116890D01*
X18983Y117171D01*
X19049Y117503D01*
X18983Y117835D01*
X18795Y118116D01*
X18514Y118304D01*
X18182Y118370D01*
D02*
G37*
G36*
X110836Y117953D02*
X110484Y117883D01*
X110187Y117684D01*
X109988Y117386D01*
X109918Y117035D01*
X109988Y116684D01*
X110187Y116386D01*
X110484Y116187D01*
X110836Y116118D01*
X111187Y116187D01*
X111484Y116386D01*
X111683Y116684D01*
X111753Y117035D01*
X111683Y117386D01*
X111484Y117684D01*
X111187Y117883D01*
X110836Y117953D01*
D02*
G37*
G36*
X103642Y117748D02*
X103291Y117678D01*
X102993Y117480D01*
X102794Y117182D01*
X102724Y116831D01*
X102794Y116480D01*
X102993Y116182D01*
X103291Y115983D01*
X103642Y115913D01*
X103993Y115983D01*
X104291Y116182D01*
X104490Y116480D01*
X104559Y116831D01*
X104490Y117182D01*
X104291Y117480D01*
X103993Y117678D01*
X103642Y117748D01*
D02*
G37*
G36*
X83267Y117154D02*
X82955Y117092D01*
X82690Y116915D01*
X82513Y116650D01*
X82451Y116338D01*
X82513Y116026D01*
X82690Y115761D01*
X82955Y115584D01*
X83267Y115522D01*
X83579Y115584D01*
X83844Y115761D01*
X84021Y116026D01*
X84083Y116338D01*
X84021Y116650D01*
X83844Y116915D01*
X83579Y117092D01*
X83267Y117154D01*
D02*
G37*
G36*
X78149D02*
X77837Y117092D01*
X77572Y116915D01*
X77395Y116650D01*
X77333Y116338D01*
X77395Y116026D01*
X77572Y115761D01*
X77837Y115584D01*
X78149Y115522D01*
X78461Y115584D01*
X78726Y115761D01*
X78903Y116026D01*
X78965Y116338D01*
X78903Y116650D01*
X78726Y116915D01*
X78461Y117092D01*
X78149Y117154D01*
D02*
G37*
G36*
X75590D02*
X75278Y117092D01*
X75013Y116915D01*
X74836Y116650D01*
X74774Y116338D01*
X74836Y116026D01*
X75013Y115761D01*
X75278Y115584D01*
X75590Y115522D01*
X75902Y115584D01*
X76167Y115761D01*
X76344Y116026D01*
X76406Y116338D01*
X76344Y116650D01*
X76167Y116915D01*
X75902Y117092D01*
X75590Y117154D01*
D02*
G37*
G36*
X73031D02*
X72719Y117092D01*
X72454Y116915D01*
X72277Y116650D01*
X72215Y116338D01*
X72277Y116026D01*
X72454Y115761D01*
X72719Y115584D01*
X73031Y115522D01*
X73343Y115584D01*
X73608Y115761D01*
X73785Y116026D01*
X73847Y116338D01*
X73785Y116650D01*
X73608Y116915D01*
X73343Y117092D01*
X73031Y117154D01*
D02*
G37*
G36*
X67914D02*
X67602Y117092D01*
X67337Y116915D01*
X67160Y116650D01*
X67098Y116338D01*
X67160Y116026D01*
X67337Y115761D01*
X67602Y115584D01*
X67914Y115522D01*
X68226Y115584D01*
X68491Y115761D01*
X68668Y116026D01*
X68730Y116338D01*
X68668Y116650D01*
X68491Y116915D01*
X68226Y117092D01*
X67914Y117154D01*
D02*
G37*
G36*
X62795D02*
X62483Y117092D01*
X62218Y116915D01*
X62041Y116650D01*
X61979Y116338D01*
X62041Y116026D01*
X62218Y115761D01*
X62483Y115584D01*
X62795Y115522D01*
X63107Y115584D01*
X63372Y115761D01*
X63549Y116026D01*
X63611Y116338D01*
X63549Y116650D01*
X63372Y116915D01*
X63107Y117092D01*
X62795Y117154D01*
D02*
G37*
G36*
X57677D02*
X57365Y117092D01*
X57100Y116915D01*
X56924Y116650D01*
X56861Y116338D01*
X56924Y116026D01*
X57100Y115761D01*
X57365Y115584D01*
X57677Y115522D01*
X57989Y115584D01*
X58254Y115761D01*
X58431Y116026D01*
X58493Y116338D01*
X58431Y116650D01*
X58254Y116915D01*
X57989Y117092D01*
X57677Y117154D01*
D02*
G37*
G36*
X55118D02*
X54806Y117092D01*
X54541Y116915D01*
X54365Y116650D01*
X54302Y116338D01*
X54365Y116026D01*
X54541Y115761D01*
X54806Y115584D01*
X55118Y115522D01*
X55430Y115584D01*
X55695Y115761D01*
X55872Y116026D01*
X55934Y116338D01*
X55872Y116650D01*
X55695Y116915D01*
X55430Y117092D01*
X55118Y117154D01*
D02*
G37*
G36*
X52559D02*
X52247Y117092D01*
X51982Y116915D01*
X51806Y116650D01*
X51743Y116338D01*
X51806Y116026D01*
X51982Y115761D01*
X52247Y115584D01*
X52559Y115522D01*
X52871Y115584D01*
X53136Y115761D01*
X53313Y116026D01*
X53375Y116338D01*
X53313Y116650D01*
X53136Y116915D01*
X52871Y117092D01*
X52559Y117154D01*
D02*
G37*
G36*
X50000D02*
X49688Y117092D01*
X49423Y116915D01*
X49246Y116650D01*
X49184Y116338D01*
X49246Y116026D01*
X49423Y115761D01*
X49688Y115584D01*
X50000Y115522D01*
X50312Y115584D01*
X50577Y115761D01*
X50754Y116026D01*
X50816Y116338D01*
X50754Y116650D01*
X50577Y116915D01*
X50312Y117092D01*
X50000Y117154D01*
D02*
G37*
G36*
X47441D02*
X47129Y117092D01*
X46864Y116915D01*
X46687Y116650D01*
X46625Y116338D01*
X46687Y116026D01*
X46864Y115761D01*
X47129Y115584D01*
X47441Y115522D01*
X47753Y115584D01*
X48018Y115761D01*
X48195Y116026D01*
X48257Y116338D01*
X48195Y116650D01*
X48018Y116915D01*
X47753Y117092D01*
X47441Y117154D01*
D02*
G37*
G36*
X15439Y116848D02*
X15088Y116778D01*
X14791Y116579D01*
X14592Y116281D01*
X14522Y115930D01*
X14592Y115579D01*
X14791Y115281D01*
X15088Y115082D01*
X15439Y115012D01*
X15791Y115082D01*
X16088Y115281D01*
X16287Y115579D01*
X16357Y115930D01*
X16287Y116281D01*
X16088Y116579D01*
X15791Y116778D01*
X15439Y116848D01*
D02*
G37*
G36*
X134050Y116720D02*
X133582Y116627D01*
X133185Y116362D01*
X132920Y115965D01*
X132827Y115497D01*
X132920Y115028D01*
X133185Y114631D01*
X133582Y114366D01*
X134050Y114273D01*
X134519Y114366D01*
X134915Y114631D01*
X135181Y115028D01*
X135274Y115497D01*
X135181Y115965D01*
X134915Y116362D01*
X134519Y116627D01*
X134050Y116720D01*
D02*
G37*
G36*
X19488Y115878D02*
X19137Y115808D01*
X18839Y115610D01*
X18640Y115312D01*
X18571Y114961D01*
X18640Y114610D01*
X18839Y114312D01*
X19137Y114113D01*
X19488Y114043D01*
X19839Y114113D01*
X20137Y114312D01*
X20336Y114610D01*
X20406Y114961D01*
X20336Y115312D01*
X20137Y115610D01*
X19839Y115808D01*
X19488Y115878D01*
D02*
G37*
G36*
X73036Y114626D02*
X72724Y114564D01*
X72459Y114387D01*
X72282Y114122D01*
X72220Y113810D01*
X72282Y113498D01*
X72459Y113233D01*
X72724Y113056D01*
X73036Y112994D01*
X73348Y113056D01*
X73613Y113233D01*
X73790Y113498D01*
X73852Y113810D01*
X73790Y114122D01*
X73613Y114387D01*
X73348Y114564D01*
X73036Y114626D01*
D02*
G37*
G36*
X70473Y114595D02*
X70161Y114532D01*
X69896Y114356D01*
X69719Y114091D01*
X69657Y113779D01*
X69719Y113467D01*
X69896Y113202D01*
X70161Y113025D01*
X70473Y112963D01*
X70785Y113025D01*
X71050Y113202D01*
X71227Y113467D01*
X71289Y113779D01*
X71227Y114091D01*
X71050Y114356D01*
X70785Y114532D01*
X70473Y114595D01*
D02*
G37*
G36*
X67914D02*
X67602Y114532D01*
X67337Y114356D01*
X67160Y114091D01*
X67098Y113779D01*
X67160Y113467D01*
X67337Y113202D01*
X67602Y113025D01*
X67914Y112963D01*
X68226Y113025D01*
X68491Y113202D01*
X68668Y113467D01*
X68730Y113779D01*
X68668Y114091D01*
X68491Y114356D01*
X68226Y114532D01*
X67914Y114595D01*
D02*
G37*
G36*
X65354D02*
X65042Y114532D01*
X64777Y114356D01*
X64600Y114091D01*
X64538Y113779D01*
X64600Y113467D01*
X64777Y113202D01*
X65042Y113025D01*
X65354Y112963D01*
X65666Y113025D01*
X65931Y113202D01*
X66107Y113467D01*
X66170Y113779D01*
X66107Y114091D01*
X65931Y114356D01*
X65666Y114532D01*
X65354Y114595D01*
D02*
G37*
G36*
X62794D02*
X62482Y114532D01*
X62217Y114356D01*
X62040Y114091D01*
X61978Y113779D01*
X62040Y113467D01*
X62217Y113202D01*
X62482Y113025D01*
X62794Y112963D01*
X63106Y113025D01*
X63371Y113202D01*
X63547Y113467D01*
X63610Y113779D01*
X63547Y114091D01*
X63371Y114356D01*
X63106Y114532D01*
X62794Y114595D01*
D02*
G37*
G36*
X55118D02*
X54806Y114532D01*
X54541Y114356D01*
X54365Y114091D01*
X54302Y113779D01*
X54365Y113467D01*
X54541Y113202D01*
X54806Y113025D01*
X55118Y112963D01*
X55430Y113025D01*
X55695Y113202D01*
X55872Y113467D01*
X55934Y113779D01*
X55872Y114091D01*
X55695Y114356D01*
X55430Y114532D01*
X55118Y114595D01*
D02*
G37*
G36*
X52559D02*
X52247Y114532D01*
X51982Y114356D01*
X51806Y114091D01*
X51743Y113779D01*
X51806Y113467D01*
X51982Y113202D01*
X52247Y113025D01*
X52559Y112963D01*
X52871Y113025D01*
X53136Y113202D01*
X53313Y113467D01*
X53375Y113779D01*
X53313Y114091D01*
X53136Y114356D01*
X52871Y114532D01*
X52559Y114595D01*
D02*
G37*
G36*
X50000D02*
X49688Y114532D01*
X49423Y114356D01*
X49246Y114091D01*
X49184Y113779D01*
X49246Y113467D01*
X49423Y113202D01*
X49688Y113025D01*
X50000Y112963D01*
X50312Y113025D01*
X50577Y113202D01*
X50754Y113467D01*
X50816Y113779D01*
X50754Y114091D01*
X50577Y114356D01*
X50312Y114532D01*
X50000Y114595D01*
D02*
G37*
G36*
X114961Y114406D02*
X114571Y114328D01*
X114240Y114107D01*
X114019Y113776D01*
X113941Y113386D01*
X114019Y112996D01*
X114240Y112665D01*
X114571Y112444D01*
X114961Y112366D01*
X115351Y112444D01*
X115682Y112665D01*
X115903Y112996D01*
X115981Y113386D01*
X115903Y113776D01*
X115682Y114107D01*
X115351Y114328D01*
X114961Y114406D01*
D02*
G37*
G36*
X102362D02*
X101972Y114328D01*
X101641Y114107D01*
X101420Y113776D01*
X101342Y113386D01*
X101420Y112996D01*
X101641Y112665D01*
X101972Y112444D01*
X102362Y112366D01*
X102752Y112444D01*
X103083Y112665D01*
X103304Y112996D01*
X103382Y113386D01*
X103304Y113776D01*
X103083Y114107D01*
X102752Y114328D01*
X102362Y114406D01*
D02*
G37*
G36*
X14945Y113030D02*
X14555Y112952D01*
X14224Y112731D01*
X14003Y112400D01*
X13926Y112010D01*
X14003Y111620D01*
X14224Y111289D01*
X14555Y111068D01*
X14945Y110991D01*
X15336Y111068D01*
X15666Y111289D01*
X15887Y111620D01*
X15965Y112010D01*
X15887Y112400D01*
X15666Y112731D01*
X15336Y112952D01*
X14945Y113030D01*
D02*
G37*
G36*
X31290Y114485D02*
X30939Y114415D01*
X30642Y114216D01*
X30443Y113918D01*
X30373Y113567D01*
X30443Y113216D01*
X30564Y113034D01*
X30708Y112529D01*
X30611Y112383D01*
X30509Y112231D01*
X30440Y111880D01*
X30509Y111529D01*
X30708Y111231D01*
X31006Y111032D01*
X31357Y110962D01*
X31708Y111032D01*
X32006Y111231D01*
X32205Y111529D01*
X32275Y111880D01*
X32205Y112231D01*
X32083Y112413D01*
X31939Y112918D01*
X32037Y113064D01*
X32138Y113216D01*
X32208Y113567D01*
X32138Y113918D01*
X31939Y114216D01*
X31642Y114415D01*
X31290Y114485D01*
D02*
G37*
G36*
X42533Y112434D02*
X42182Y112364D01*
X41884Y112165D01*
X41685Y111868D01*
X41615Y111516D01*
X41685Y111165D01*
X41884Y110868D01*
X42182Y110669D01*
X42533Y110599D01*
X42884Y110669D01*
X43182Y110868D01*
X43381Y111165D01*
X43451Y111516D01*
X43381Y111868D01*
X43182Y112165D01*
X42884Y112364D01*
X42533Y112434D01*
D02*
G37*
G36*
X78149Y112037D02*
X77837Y111975D01*
X77572Y111798D01*
X77395Y111533D01*
X77333Y111221D01*
X77395Y110909D01*
X77572Y110644D01*
X77837Y110468D01*
X78149Y110405D01*
X78461Y110468D01*
X78726Y110644D01*
X78903Y110909D01*
X78965Y111221D01*
X78903Y111533D01*
X78726Y111798D01*
X78461Y111975D01*
X78149Y112037D01*
D02*
G37*
G36*
X80709Y112036D02*
X80397Y111974D01*
X80132Y111797D01*
X79956Y111532D01*
X79893Y111220D01*
X79956Y110908D01*
X80132Y110643D01*
X80397Y110466D01*
X80709Y110404D01*
X81021Y110466D01*
X81286Y110643D01*
X81463Y110908D01*
X81525Y111220D01*
X81463Y111532D01*
X81286Y111797D01*
X81021Y111974D01*
X80709Y112036D01*
D02*
G37*
G36*
X47441D02*
X47129Y111974D01*
X46864Y111797D01*
X46687Y111532D01*
X46625Y111220D01*
X46687Y110908D01*
X46864Y110643D01*
X47129Y110466D01*
X47441Y110404D01*
X47753Y110466D01*
X48018Y110643D01*
X48195Y110908D01*
X48257Y111220D01*
X48195Y111532D01*
X48018Y111797D01*
X47753Y111974D01*
X47441Y112036D01*
D02*
G37*
G36*
X99436Y116899D02*
X99124Y116837D01*
X98860Y116660D01*
X98683Y116396D01*
X98621Y116084D01*
X98579Y115665D01*
X98326Y115406D01*
X98304Y115391D01*
X98128Y115127D01*
X98065Y114814D01*
X98128Y114502D01*
X97921Y114276D01*
X97656Y114099D01*
X97479Y113834D01*
X97417Y113522D01*
X97479Y113210D01*
X97281Y112837D01*
X97104Y112573D01*
X97066Y112382D01*
X97042Y112261D01*
X96887Y111867D01*
X96623Y111690D01*
X96623Y111690D01*
X96579Y111624D01*
X96446Y111425D01*
X96384Y111113D01*
X96446Y110801D01*
X96623Y110537D01*
X96887Y110360D01*
X97199Y110298D01*
X97512Y110360D01*
X97776Y110537D01*
X97953Y110801D01*
X98015Y111113D01*
X98170Y111507D01*
X98435Y111684D01*
X98611Y111949D01*
X98673Y112261D01*
X98611Y112573D01*
X98809Y112945D01*
X98986Y113210D01*
X99048Y113522D01*
X98986Y113834D01*
X99193Y114061D01*
X99458Y114238D01*
X99635Y114502D01*
X99697Y114814D01*
X99739Y115233D01*
X99992Y115492D01*
X100013Y115507D01*
X100190Y115772D01*
X100252Y116084D01*
X100190Y116396D01*
X100013Y116660D01*
X99749Y116837D01*
X99436Y116899D01*
D02*
G37*
G36*
X4921Y111890D02*
X4589Y111824D01*
X4308Y111636D01*
X4120Y111355D01*
X4054Y111023D01*
X4120Y110692D01*
X4308Y110411D01*
X4589Y110223D01*
X4921Y110157D01*
X5252Y110223D01*
X5534Y110411D01*
X5722Y110692D01*
X5787Y111023D01*
X5722Y111355D01*
X5534Y111636D01*
X5252Y111824D01*
X4921Y111890D01*
D02*
G37*
G36*
X16619Y110387D02*
X16229Y110310D01*
X15898Y110089D01*
X15677Y109758D01*
X15600Y109368D01*
X15677Y108977D01*
X15898Y108647D01*
X16229Y108425D01*
X16619Y108348D01*
X17010Y108425D01*
X17340Y108647D01*
X17561Y108977D01*
X17639Y109368D01*
X17561Y109758D01*
X17340Y110089D01*
X17010Y110310D01*
X16619Y110387D01*
D02*
G37*
G36*
X95768Y110013D02*
X95417Y109943D01*
X95119Y109745D01*
X94920Y109447D01*
X94850Y109096D01*
X94920Y108745D01*
X95119Y108447D01*
X95417Y108248D01*
X95768Y108178D01*
X96119Y108248D01*
X96417Y108447D01*
X96615Y108745D01*
X96685Y109096D01*
X96615Y109447D01*
X96417Y109745D01*
X96119Y109943D01*
X95768Y110013D01*
D02*
G37*
G36*
X50071Y109511D02*
X49759Y109449D01*
X49494Y109272D01*
X49317Y109008D01*
X49255Y108696D01*
X49317Y108384D01*
X49494Y108119D01*
X49759Y107942D01*
X50071Y107880D01*
X50383Y107942D01*
X50648Y108119D01*
X50824Y108384D01*
X50887Y108696D01*
X50824Y109008D01*
X50648Y109272D01*
X50383Y109449D01*
X50071Y109511D01*
D02*
G37*
G36*
X80708Y109478D02*
X80396Y109416D01*
X80131Y109239D01*
X79954Y108974D01*
X79892Y108662D01*
X79954Y108350D01*
X80131Y108085D01*
X80396Y107908D01*
X80708Y107846D01*
X81020Y107908D01*
X81285Y108085D01*
X81462Y108350D01*
X81524Y108662D01*
X81462Y108974D01*
X81285Y109239D01*
X81020Y109416D01*
X80708Y109478D01*
D02*
G37*
G36*
X78149D02*
X77837Y109416D01*
X77572Y109239D01*
X77395Y108974D01*
X77333Y108662D01*
X77395Y108350D01*
X77572Y108085D01*
X77837Y107908D01*
X78149Y107846D01*
X78461Y107908D01*
X78726Y108085D01*
X78903Y108350D01*
X78965Y108662D01*
X78903Y108974D01*
X78726Y109239D01*
X78461Y109416D01*
X78149Y109478D01*
D02*
G37*
G36*
X75590D02*
X75278Y109416D01*
X75013Y109239D01*
X74836Y108974D01*
X74774Y108662D01*
X74836Y108350D01*
X75013Y108085D01*
X75278Y107908D01*
X75590Y107846D01*
X75902Y107908D01*
X76167Y108085D01*
X76344Y108350D01*
X76406Y108662D01*
X76344Y108974D01*
X76167Y109239D01*
X75902Y109416D01*
X75590Y109478D01*
D02*
G37*
G36*
X73031D02*
X72719Y109416D01*
X72454Y109239D01*
X72277Y108974D01*
X72215Y108662D01*
X72277Y108350D01*
X72454Y108085D01*
X72719Y107908D01*
X73031Y107846D01*
X73343Y107908D01*
X73608Y108085D01*
X73785Y108350D01*
X73847Y108662D01*
X73785Y108974D01*
X73608Y109239D01*
X73343Y109416D01*
X73031Y109478D01*
D02*
G37*
G36*
X65354D02*
X65042Y109416D01*
X64777Y109239D01*
X64600Y108974D01*
X64538Y108662D01*
X64600Y108350D01*
X64777Y108085D01*
X65042Y107908D01*
X65354Y107846D01*
X65666Y107908D01*
X65931Y108085D01*
X66108Y108350D01*
X66170Y108662D01*
X66108Y108974D01*
X65931Y109239D01*
X65666Y109416D01*
X65354Y109478D01*
D02*
G37*
G36*
X62795D02*
X62483Y109416D01*
X62218Y109239D01*
X62041Y108974D01*
X61979Y108662D01*
X62041Y108350D01*
X62218Y108085D01*
X62483Y107908D01*
X62795Y107846D01*
X63107Y107908D01*
X63372Y108085D01*
X63549Y108350D01*
X63611Y108662D01*
X63549Y108974D01*
X63372Y109239D01*
X63107Y109416D01*
X62795Y109478D01*
D02*
G37*
G36*
X57677D02*
X57365Y109416D01*
X57100Y109239D01*
X56924Y108974D01*
X56861Y108662D01*
X56924Y108350D01*
X57100Y108085D01*
X57365Y107908D01*
X57677Y107846D01*
X57989Y107908D01*
X58254Y108085D01*
X58431Y108350D01*
X58493Y108662D01*
X58431Y108974D01*
X58254Y109239D01*
X57989Y109416D01*
X57677Y109478D01*
D02*
G37*
G36*
X55118D02*
X54806Y109416D01*
X54541Y109239D01*
X54365Y108974D01*
X54302Y108662D01*
X54365Y108350D01*
X54541Y108085D01*
X54806Y107908D01*
X55118Y107846D01*
X55430Y107908D01*
X55695Y108085D01*
X55872Y108350D01*
X55934Y108662D01*
X55872Y108974D01*
X55695Y109239D01*
X55430Y109416D01*
X55118Y109478D01*
D02*
G37*
G36*
X52559D02*
X52247Y109416D01*
X51982Y109239D01*
X51806Y108974D01*
X51743Y108662D01*
X51806Y108350D01*
X51982Y108085D01*
X52247Y107908D01*
X52559Y107846D01*
X52871Y107908D01*
X53136Y108085D01*
X53313Y108350D01*
X53375Y108662D01*
X53313Y108974D01*
X53136Y109239D01*
X52871Y109416D01*
X52559Y109478D01*
D02*
G37*
G36*
X67913Y109477D02*
X67601Y109415D01*
X67337Y109238D01*
X67160Y108974D01*
X67098Y108661D01*
X67160Y108349D01*
X67337Y108085D01*
X67601Y107908D01*
X67913Y107846D01*
X68226Y107908D01*
X68490Y108085D01*
X68667Y108349D01*
X68729Y108661D01*
X68667Y108974D01*
X68490Y109238D01*
X68226Y109415D01*
X67913Y109477D01*
D02*
G37*
G36*
X83858Y109481D02*
X83507Y109411D01*
X83209Y109212D01*
X83011Y108914D01*
X82941Y108563D01*
X83011Y108212D01*
X83209Y107914D01*
X83507Y107715D01*
X83858Y107645D01*
X84209Y107715D01*
X84507Y107914D01*
X84706Y108212D01*
X84776Y108563D01*
X84706Y108914D01*
X84507Y109212D01*
X84209Y109411D01*
X83858Y109481D01*
D02*
G37*
G36*
X108661Y109681D02*
X108271Y109603D01*
X107940Y109382D01*
X107719Y109051D01*
X107641Y108661D01*
X107719Y108271D01*
X107940Y107940D01*
X108271Y107719D01*
X108661Y107641D01*
X109051Y107719D01*
X109382Y107940D01*
X109603Y108271D01*
X109681Y108661D01*
X109603Y109051D01*
X109382Y109382D01*
X109051Y109603D01*
X108661Y109681D01*
D02*
G37*
G36*
X99016Y108099D02*
X98704Y108037D01*
X98439Y107860D01*
X98262Y107596D01*
X98200Y107283D01*
X98262Y106971D01*
X98439Y106707D01*
X98704Y106530D01*
X99016Y106468D01*
X99328Y106530D01*
X99593Y106707D01*
X99769Y106971D01*
X99831Y107283D01*
X99769Y107596D01*
X99593Y107860D01*
X99328Y108037D01*
X99016Y108099D01*
D02*
G37*
G36*
X75374Y107276D02*
X75062Y107214D01*
X74797Y107037D01*
X74621Y106772D01*
X74559Y106460D01*
X74621Y106148D01*
X74797Y105883D01*
X75062Y105707D01*
X75374Y105645D01*
X75686Y105707D01*
X75951Y105883D01*
X76128Y106148D01*
X76190Y106460D01*
X76128Y106772D01*
X75951Y107037D01*
X75686Y107214D01*
X75374Y107276D01*
D02*
G37*
G36*
X4921Y109579D02*
X4570Y109509D01*
X4272Y109310D01*
X4073Y109013D01*
X4004Y108661D01*
X4073Y108310D01*
X4272Y108013D01*
X4524Y107844D01*
X4548Y107579D01*
X4524Y107313D01*
X4272Y107145D01*
X4073Y106847D01*
X4004Y106496D01*
X4073Y106145D01*
X4272Y105847D01*
X4570Y105648D01*
X4921Y105578D01*
X5272Y105648D01*
X5570Y105847D01*
X5769Y106145D01*
X5839Y106496D01*
X5769Y106847D01*
X5570Y107145D01*
X5319Y107313D01*
X5294Y107579D01*
X5319Y107844D01*
X5570Y108013D01*
X5769Y108310D01*
X5839Y108661D01*
X5769Y109013D01*
X5570Y109310D01*
X5272Y109509D01*
X4921Y109579D01*
D02*
G37*
G36*
X29134Y105591D02*
X28802Y105525D01*
X28695Y105453D01*
X28346Y105376D01*
X27998Y105453D01*
X27891Y105525D01*
X27559Y105591D01*
X27227Y105525D01*
X27120Y105453D01*
X26772Y105376D01*
X26423Y105453D01*
X26316Y105525D01*
X25984Y105591D01*
X25652Y105525D01*
X25371Y105337D01*
X25260Y105170D01*
X24853Y105078D01*
X24680Y105090D01*
X24406Y105273D01*
X24016Y105351D01*
X23626Y105273D01*
X23295Y105052D01*
X23074Y104721D01*
X22996Y104331D01*
X23074Y103941D01*
X23295Y103610D01*
X23626Y103389D01*
X24016Y103311D01*
X24406Y103389D01*
X24737Y103610D01*
X24921Y103885D01*
X25072Y103961D01*
X25486Y104034D01*
X25652Y103923D01*
X25984Y103857D01*
X26316Y103923D01*
X26423Y103995D01*
X26772Y104072D01*
X27120Y103995D01*
X27227Y103923D01*
X27559Y103857D01*
X27891Y103923D01*
X27980Y103983D01*
X28019Y103974D01*
X28383Y103609D01*
X28385Y103600D01*
X28381Y103552D01*
X28333Y103482D01*
X28267Y103150D01*
X28333Y102818D01*
X28521Y102537D01*
Y102188D01*
X28333Y101907D01*
X28267Y101575D01*
X28333Y101243D01*
X28405Y101136D01*
X28482Y100787D01*
X28405Y100439D01*
X28333Y100332D01*
X28267Y100000D01*
X28333Y99668D01*
X28405Y99561D01*
X28482Y99212D01*
X28405Y98864D01*
X28333Y98757D01*
X28267Y98425D01*
X28333Y98093D01*
X28356Y98059D01*
X28207Y97777D01*
X27925Y97628D01*
X27891Y97651D01*
X27559Y97717D01*
X27227Y97651D01*
X27120Y97579D01*
X26772Y97502D01*
X26423Y97579D01*
X26316Y97651D01*
X25984Y97717D01*
X25652Y97651D01*
X25545Y97579D01*
X25196Y97502D01*
X24848Y97579D01*
X24741Y97651D01*
X24409Y97717D01*
X24077Y97651D01*
X23971Y97580D01*
X23622Y97502D01*
X23273Y97580D01*
X23167Y97651D01*
X22835Y97717D01*
X22503Y97651D01*
X22396Y97579D01*
X22048Y97502D01*
X21699Y97579D01*
X21592Y97651D01*
X21260Y97717D01*
X20928Y97651D01*
X20821Y97579D01*
X20472Y97502D01*
X20124Y97579D01*
X20017Y97651D01*
X19685Y97717D01*
X19353Y97651D01*
X19072Y97463D01*
X18884Y97182D01*
X18818Y96850D01*
X18884Y96518D01*
X19072Y96237D01*
X19353Y96049D01*
X19685Y95983D01*
X20017Y96049D01*
X20124Y96121D01*
X20472Y96198D01*
X20821Y96121D01*
X20928Y96049D01*
X21260Y95983D01*
X21592Y96049D01*
X21699Y96121D01*
X22048Y96198D01*
X22396Y96121D01*
X22503Y96049D01*
X22835Y95983D01*
X23167Y96049D01*
X23273Y96120D01*
X23622Y96198D01*
X23971Y96120D01*
X24077Y96049D01*
X24409Y95983D01*
X24741Y96049D01*
X24848Y96121D01*
X25196Y96198D01*
X25545Y96121D01*
X25652Y96049D01*
X25984Y95983D01*
X26316Y96049D01*
X26423Y96121D01*
X26772Y96198D01*
X27120Y96121D01*
X27227Y96049D01*
X27559Y95983D01*
X27891Y96049D01*
X27998Y96121D01*
X28346Y96198D01*
X28695Y96121D01*
X28802Y96049D01*
X29134Y95983D01*
X29466Y96049D01*
X29747Y96237D01*
X29935Y96518D01*
X30001Y96850D01*
X29935Y97182D01*
X29863Y97289D01*
X29786Y97637D01*
X29863Y97986D01*
X29935Y98093D01*
X30001Y98425D01*
X29935Y98757D01*
X29863Y98864D01*
X29786Y99212D01*
X29863Y99561D01*
X29935Y99668D01*
X30001Y100000D01*
X29935Y100332D01*
X29863Y100439D01*
X29786Y100787D01*
X29863Y101136D01*
X29935Y101243D01*
X30001Y101575D01*
X29935Y101907D01*
X29747Y102188D01*
Y102537D01*
X29935Y102818D01*
X30001Y103150D01*
X29935Y103482D01*
X29864Y103588D01*
X29786Y103937D01*
X29864Y104286D01*
X29935Y104392D01*
X30001Y104724D01*
X29935Y105056D01*
X29747Y105337D01*
X29466Y105525D01*
X29134Y105591D01*
D02*
G37*
G36*
X78149Y106918D02*
X77837Y106856D01*
X77572Y106679D01*
X77395Y106414D01*
X77333Y106102D01*
X77395Y105790D01*
X77572Y105525D01*
X77837Y105349D01*
X78149Y105286D01*
X78461Y105349D01*
X78726Y105525D01*
X78903Y105790D01*
X78965Y106102D01*
X78903Y106414D01*
X78726Y106679D01*
X78461Y106856D01*
X78149Y106918D01*
D02*
G37*
G36*
X73031D02*
X72719Y106856D01*
X72454Y106679D01*
X72277Y106414D01*
X72215Y106102D01*
X72277Y105790D01*
X72454Y105525D01*
X72719Y105349D01*
X73031Y105286D01*
X73343Y105349D01*
X73608Y105525D01*
X73785Y105790D01*
X73847Y106102D01*
X73785Y106414D01*
X73608Y106679D01*
X73343Y106856D01*
X73031Y106918D01*
D02*
G37*
G36*
X57677D02*
X57365Y106856D01*
X57100Y106679D01*
X56924Y106414D01*
X56861Y106102D01*
X56924Y105790D01*
X57100Y105525D01*
X57365Y105349D01*
X57677Y105286D01*
X57989Y105349D01*
X58254Y105525D01*
X58431Y105790D01*
X58493Y106102D01*
X58431Y106414D01*
X58254Y106679D01*
X57989Y106856D01*
X57677Y106918D01*
D02*
G37*
G36*
X55118D02*
X54806Y106856D01*
X54541Y106679D01*
X54365Y106414D01*
X54302Y106102D01*
X54365Y105790D01*
X54541Y105525D01*
X54806Y105349D01*
X55118Y105286D01*
X55430Y105349D01*
X55695Y105525D01*
X55872Y105790D01*
X55934Y106102D01*
X55872Y106414D01*
X55695Y106679D01*
X55430Y106856D01*
X55118Y106918D01*
D02*
G37*
G36*
X52559D02*
X52247Y106856D01*
X51982Y106679D01*
X51806Y106414D01*
X51743Y106102D01*
X51806Y105790D01*
X51982Y105525D01*
X52247Y105349D01*
X52559Y105286D01*
X52871Y105349D01*
X53136Y105525D01*
X53313Y105790D01*
X53375Y106102D01*
X53313Y106414D01*
X53136Y106679D01*
X52871Y106856D01*
X52559Y106918D01*
D02*
G37*
G36*
X50000D02*
X49688Y106856D01*
X49423Y106679D01*
X49246Y106414D01*
X49184Y106102D01*
X49246Y105790D01*
X49423Y105525D01*
X49688Y105349D01*
X50000Y105286D01*
X50312Y105349D01*
X50577Y105525D01*
X50754Y105790D01*
X50816Y106102D01*
X50754Y106414D01*
X50577Y106679D01*
X50312Y106856D01*
X50000Y106918D01*
D02*
G37*
G36*
X47441D02*
X47129Y106856D01*
X46864Y106679D01*
X46687Y106414D01*
X46625Y106102D01*
X46687Y105790D01*
X46864Y105525D01*
X47129Y105349D01*
X47441Y105286D01*
X47753Y105349D01*
X48018Y105525D01*
X48195Y105790D01*
X48257Y106102D01*
X48195Y106414D01*
X48018Y106679D01*
X47753Y106856D01*
X47441Y106918D01*
D02*
G37*
G36*
X44580Y106884D02*
X44268Y106822D01*
X44004Y106645D01*
X43827Y106380D01*
X43765Y106068D01*
X43827Y105756D01*
X44004Y105491D01*
X44268Y105315D01*
X44580Y105252D01*
X44892Y105315D01*
X45157Y105491D01*
X45334Y105756D01*
X45396Y106068D01*
X45334Y106380D01*
X45157Y106645D01*
X44892Y106822D01*
X44580Y106884D01*
D02*
G37*
G36*
X84153Y106922D02*
X83802Y106852D01*
X83505Y106653D01*
X83306Y106355D01*
X83236Y106004D01*
X83306Y105653D01*
X83505Y105355D01*
X83802Y105156D01*
X84153Y105086D01*
X84505Y105156D01*
X84802Y105355D01*
X85001Y105653D01*
X85071Y106004D01*
X85001Y106355D01*
X84802Y106653D01*
X84505Y106852D01*
X84153Y106922D01*
D02*
G37*
G36*
X62696Y106703D02*
X62384Y106641D01*
X62119Y106464D01*
X61942Y106200D01*
X61880Y105888D01*
X61942Y105576D01*
X62119Y105311D01*
X62384Y105134D01*
X62696Y105072D01*
X63008Y105134D01*
X63273Y105311D01*
X63449Y105576D01*
X63511Y105888D01*
X63449Y106200D01*
X63273Y106464D01*
X63008Y106641D01*
X62696Y106703D01*
D02*
G37*
G36*
X114961Y104957D02*
X114571Y104879D01*
X114240Y104658D01*
X114019Y104327D01*
X113941Y103937D01*
X114019Y103547D01*
X114240Y103216D01*
X114571Y102995D01*
X114961Y102917D01*
X115351Y102995D01*
X115682Y103216D01*
X115903Y103547D01*
X115981Y103937D01*
X115903Y104327D01*
X115682Y104658D01*
X115351Y104879D01*
X114961Y104957D01*
D02*
G37*
G36*
X102362D02*
X101972Y104879D01*
X101641Y104658D01*
X101420Y104327D01*
X101342Y103937D01*
X101420Y103547D01*
X101641Y103216D01*
X101972Y102995D01*
X102362Y102917D01*
X102752Y102995D01*
X103083Y103216D01*
X103304Y103547D01*
X103382Y103937D01*
X103304Y104327D01*
X103083Y104658D01*
X102752Y104879D01*
X102362Y104957D01*
D02*
G37*
G36*
X80589Y104442D02*
X80277Y104380D01*
X80012Y104203D01*
X79835Y103938D01*
X79773Y103626D01*
X79835Y103314D01*
X80012Y103049D01*
X80277Y102873D01*
X80589Y102811D01*
X80901Y102873D01*
X81165Y103049D01*
X81342Y103314D01*
X81404Y103626D01*
X81342Y103938D01*
X81165Y104203D01*
X80901Y104380D01*
X80589Y104442D01*
D02*
G37*
G36*
X95371Y104359D02*
X95059Y104297D01*
X94794Y104120D01*
X94618Y103855D01*
X94556Y103543D01*
X94618Y103231D01*
X94794Y102966D01*
X95059Y102789D01*
X95371Y102727D01*
X95683Y102789D01*
X95948Y102966D01*
X96125Y103231D01*
X96187Y103543D01*
X96125Y103855D01*
X95948Y104120D01*
X95683Y104297D01*
X95371Y104359D01*
D02*
G37*
G36*
X78149D02*
X77837Y104297D01*
X77572Y104120D01*
X77395Y103855D01*
X77333Y103543D01*
X77395Y103231D01*
X77572Y102966D01*
X77837Y102789D01*
X78149Y102727D01*
X78461Y102789D01*
X78726Y102966D01*
X78903Y103231D01*
X78965Y103543D01*
X78903Y103855D01*
X78726Y104120D01*
X78461Y104297D01*
X78149Y104359D01*
D02*
G37*
G36*
X75590D02*
X75278Y104297D01*
X75013Y104120D01*
X74836Y103855D01*
X74774Y103543D01*
X74836Y103231D01*
X75013Y102966D01*
X75278Y102789D01*
X75590Y102727D01*
X75902Y102789D01*
X76167Y102966D01*
X76344Y103231D01*
X76406Y103543D01*
X76344Y103855D01*
X76167Y104120D01*
X75902Y104297D01*
X75590Y104359D01*
D02*
G37*
G36*
X73031D02*
X72719Y104297D01*
X72454Y104120D01*
X72277Y103855D01*
X72215Y103543D01*
X72277Y103231D01*
X72454Y102966D01*
X72719Y102789D01*
X73031Y102727D01*
X73343Y102789D01*
X73608Y102966D01*
X73785Y103231D01*
X73847Y103543D01*
X73785Y103855D01*
X73608Y104120D01*
X73343Y104297D01*
X73031Y104359D01*
D02*
G37*
G36*
X62795D02*
X62483Y104297D01*
X62218Y104120D01*
X62041Y103855D01*
X61979Y103543D01*
X62041Y103231D01*
X62218Y102966D01*
X62483Y102789D01*
X62795Y102727D01*
X63107Y102789D01*
X63372Y102966D01*
X63549Y103231D01*
X63611Y103543D01*
X63549Y103855D01*
X63372Y104120D01*
X63107Y104297D01*
X62795Y104359D01*
D02*
G37*
G36*
X55118D02*
X54806Y104297D01*
X54541Y104120D01*
X54365Y103855D01*
X54302Y103543D01*
X54365Y103231D01*
X54541Y102966D01*
X54806Y102789D01*
X55118Y102727D01*
X55430Y102789D01*
X55695Y102966D01*
X55872Y103231D01*
X55934Y103543D01*
X55872Y103855D01*
X55695Y104120D01*
X55430Y104297D01*
X55118Y104359D01*
D02*
G37*
G36*
X52559D02*
X52247Y104297D01*
X51982Y104120D01*
X51806Y103855D01*
X51743Y103543D01*
X51806Y103231D01*
X51982Y102966D01*
X52247Y102789D01*
X52559Y102727D01*
X52871Y102789D01*
X53136Y102966D01*
X53313Y103231D01*
X53375Y103543D01*
X53313Y103855D01*
X53136Y104120D01*
X52871Y104297D01*
X52559Y104359D01*
D02*
G37*
G36*
X50000D02*
X49688Y104297D01*
X49423Y104120D01*
X49246Y103855D01*
X49184Y103543D01*
X49246Y103231D01*
X49423Y102966D01*
X49688Y102789D01*
X50000Y102727D01*
X50312Y102789D01*
X50577Y102966D01*
X50754Y103231D01*
X50816Y103543D01*
X50754Y103855D01*
X50577Y104120D01*
X50312Y104297D01*
X50000Y104359D01*
D02*
G37*
G36*
X47441D02*
X47129Y104297D01*
X46864Y104120D01*
X46687Y103855D01*
X46625Y103543D01*
X46687Y103231D01*
X46864Y102966D01*
X47129Y102789D01*
X47441Y102727D01*
X47753Y102789D01*
X48018Y102966D01*
X48195Y103231D01*
X48257Y103543D01*
X48195Y103855D01*
X48018Y104120D01*
X47753Y104297D01*
X47441Y104359D01*
D02*
G37*
G36*
X65355Y104358D02*
X65043Y104296D01*
X64778Y104119D01*
X64601Y103854D01*
X64539Y103542D01*
X64601Y103230D01*
X64778Y102965D01*
X65043Y102788D01*
X65355Y102726D01*
X65667Y102788D01*
X65932Y102965D01*
X66109Y103230D01*
X66171Y103542D01*
X66109Y103854D01*
X65932Y104119D01*
X65667Y104296D01*
X65355Y104358D01*
D02*
G37*
G36*
X67914Y104358D02*
X67602Y104296D01*
X67337Y104119D01*
X67160Y103854D01*
X67098Y103542D01*
X67160Y103230D01*
X67337Y102965D01*
X67602Y102788D01*
X67914Y102726D01*
X68226Y102788D01*
X68491Y102965D01*
X68668Y103230D01*
X68730Y103542D01*
X68668Y103854D01*
X68491Y104119D01*
X68226Y104296D01*
X67914Y104358D01*
D02*
G37*
G36*
X83267Y101800D02*
X82955Y101738D01*
X82690Y101561D01*
X82513Y101296D01*
X82451Y100984D01*
X82513Y100672D01*
X82690Y100407D01*
X82955Y100231D01*
X83267Y100168D01*
X83579Y100231D01*
X83844Y100407D01*
X84021Y100672D01*
X84083Y100984D01*
X84021Y101296D01*
X83844Y101561D01*
X83579Y101738D01*
X83267Y101800D01*
D02*
G37*
G36*
X80708D02*
X80396Y101738D01*
X80131Y101561D01*
X79954Y101296D01*
X79892Y100984D01*
X79954Y100672D01*
X80131Y100407D01*
X80396Y100231D01*
X80708Y100168D01*
X81020Y100231D01*
X81285Y100407D01*
X81462Y100672D01*
X81524Y100984D01*
X81462Y101296D01*
X81285Y101561D01*
X81020Y101738D01*
X80708Y101800D01*
D02*
G37*
G36*
X78149D02*
X77837Y101738D01*
X77572Y101561D01*
X77395Y101296D01*
X77333Y100984D01*
X77395Y100672D01*
X77572Y100407D01*
X77837Y100231D01*
X78149Y100168D01*
X78461Y100231D01*
X78726Y100407D01*
X78903Y100672D01*
X78965Y100984D01*
X78903Y101296D01*
X78726Y101561D01*
X78461Y101738D01*
X78149Y101800D01*
D02*
G37*
G36*
X75590D02*
X75278Y101738D01*
X75013Y101561D01*
X74836Y101296D01*
X74774Y100984D01*
X74836Y100672D01*
X75013Y100407D01*
X75278Y100231D01*
X75590Y100168D01*
X75902Y100231D01*
X76167Y100407D01*
X76344Y100672D01*
X76406Y100984D01*
X76344Y101296D01*
X76167Y101561D01*
X75902Y101738D01*
X75590Y101800D01*
D02*
G37*
G36*
X62795D02*
X62483Y101738D01*
X62218Y101561D01*
X62041Y101296D01*
X61979Y100984D01*
X62041Y100672D01*
X62218Y100407D01*
X62483Y100231D01*
X62795Y100168D01*
X63107Y100231D01*
X63372Y100407D01*
X63549Y100672D01*
X63611Y100984D01*
X63549Y101296D01*
X63372Y101561D01*
X63107Y101738D01*
X62795Y101800D01*
D02*
G37*
G36*
X57677D02*
X57365Y101738D01*
X57100Y101561D01*
X56924Y101296D01*
X56861Y100984D01*
X56924Y100672D01*
X57100Y100407D01*
X57365Y100231D01*
X57677Y100168D01*
X57989Y100231D01*
X58254Y100407D01*
X58431Y100672D01*
X58493Y100984D01*
X58431Y101296D01*
X58254Y101561D01*
X57989Y101738D01*
X57677Y101800D01*
D02*
G37*
G36*
X55118D02*
X54806Y101738D01*
X54541Y101561D01*
X54365Y101296D01*
X54302Y100984D01*
X54365Y100672D01*
X54541Y100407D01*
X54806Y100231D01*
X55118Y100168D01*
X55430Y100231D01*
X55695Y100407D01*
X55872Y100672D01*
X55934Y100984D01*
X55872Y101296D01*
X55695Y101561D01*
X55430Y101738D01*
X55118Y101800D01*
D02*
G37*
G36*
X52559D02*
X52247Y101738D01*
X51982Y101561D01*
X51806Y101296D01*
X51743Y100984D01*
X51806Y100672D01*
X51982Y100407D01*
X52247Y100231D01*
X52559Y100168D01*
X52871Y100231D01*
X53136Y100407D01*
X53313Y100672D01*
X53375Y100984D01*
X53313Y101296D01*
X53136Y101561D01*
X52871Y101738D01*
X52559Y101800D01*
D02*
G37*
G36*
X50000D02*
X49688Y101738D01*
X49423Y101561D01*
X49246Y101296D01*
X49184Y100984D01*
X49246Y100672D01*
X49423Y100407D01*
X49688Y100231D01*
X50000Y100168D01*
X50312Y100231D01*
X50577Y100407D01*
X50754Y100672D01*
X50816Y100984D01*
X50754Y101296D01*
X50577Y101561D01*
X50312Y101738D01*
X50000Y101800D01*
D02*
G37*
G36*
X47441D02*
X47129Y101738D01*
X46864Y101561D01*
X46687Y101296D01*
X46625Y100984D01*
X46687Y100672D01*
X46864Y100407D01*
X47129Y100231D01*
X47441Y100168D01*
X47753Y100231D01*
X48018Y100407D01*
X48195Y100672D01*
X48257Y100984D01*
X48195Y101296D01*
X48018Y101561D01*
X47753Y101738D01*
X47441Y101800D01*
D02*
G37*
G36*
X67914Y101799D02*
X67602Y101737D01*
X67337Y101560D01*
X67160Y101295D01*
X67098Y100983D01*
X67160Y100671D01*
X67337Y100406D01*
X67602Y100230D01*
X67914Y100167D01*
X68226Y100230D01*
X68491Y100406D01*
X68668Y100671D01*
X68730Y100983D01*
X68668Y101295D01*
X68491Y101560D01*
X68226Y101737D01*
X67914Y101799D01*
D02*
G37*
G36*
X65355D02*
X65043Y101737D01*
X64778Y101560D01*
X64601Y101295D01*
X64539Y100983D01*
X64601Y100671D01*
X64778Y100406D01*
X65043Y100230D01*
X65355Y100167D01*
X65667Y100230D01*
X65932Y100406D01*
X66109Y100671D01*
X66171Y100983D01*
X66109Y101295D01*
X65932Y101560D01*
X65667Y101737D01*
X65355Y101799D01*
D02*
G37*
G36*
X60236Y101799D02*
X59924Y101736D01*
X59659Y101560D01*
X59483Y101295D01*
X59420Y100983D01*
X59483Y100671D01*
X59659Y100406D01*
X59924Y100229D01*
X60236Y100167D01*
X60548Y100229D01*
X60813Y100406D01*
X60990Y100671D01*
X61052Y100983D01*
X60990Y101295D01*
X60813Y101560D01*
X60548Y101736D01*
X60236Y101799D01*
D02*
G37*
G36*
X110827Y100327D02*
X110476Y100257D01*
X110178Y100058D01*
X109979Y99761D01*
X109909Y99410D01*
X109979Y99058D01*
X110178Y98761D01*
X110476Y98562D01*
X110827Y98492D01*
X111178Y98562D01*
X111476Y98761D01*
X111674Y99058D01*
X111744Y99410D01*
X111674Y99761D01*
X111476Y100058D01*
X111178Y100257D01*
X110827Y100327D01*
D02*
G37*
G36*
X83267Y99241D02*
X82955Y99179D01*
X82690Y99002D01*
X82513Y98737D01*
X82451Y98425D01*
X82513Y98113D01*
X82690Y97848D01*
X82955Y97672D01*
X83267Y97609D01*
X83579Y97672D01*
X83844Y97848D01*
X84021Y98113D01*
X84083Y98425D01*
X84021Y98737D01*
X83844Y99002D01*
X83579Y99179D01*
X83267Y99241D01*
D02*
G37*
G36*
X80708D02*
X80396Y99179D01*
X80131Y99002D01*
X79954Y98737D01*
X79892Y98425D01*
X79954Y98113D01*
X80131Y97848D01*
X80396Y97672D01*
X80708Y97609D01*
X81020Y97672D01*
X81285Y97848D01*
X81462Y98113D01*
X81524Y98425D01*
X81462Y98737D01*
X81285Y99002D01*
X81020Y99179D01*
X80708Y99241D01*
D02*
G37*
G36*
X78149D02*
X77837Y99179D01*
X77572Y99002D01*
X77395Y98737D01*
X77333Y98425D01*
X77395Y98113D01*
X77572Y97848D01*
X77837Y97672D01*
X78149Y97609D01*
X78461Y97672D01*
X78726Y97848D01*
X78903Y98113D01*
X78965Y98425D01*
X78903Y98737D01*
X78726Y99002D01*
X78461Y99179D01*
X78149Y99241D01*
D02*
G37*
G36*
X75590D02*
X75278Y99179D01*
X75013Y99002D01*
X74836Y98737D01*
X74774Y98425D01*
X74836Y98113D01*
X75013Y97848D01*
X75278Y97672D01*
X75590Y97609D01*
X75902Y97672D01*
X76167Y97848D01*
X76344Y98113D01*
X76406Y98425D01*
X76344Y98737D01*
X76167Y99002D01*
X75902Y99179D01*
X75590Y99241D01*
D02*
G37*
G36*
X67914D02*
X67602Y99179D01*
X67337Y99002D01*
X67160Y98737D01*
X67098Y98425D01*
X67160Y98113D01*
X67337Y97848D01*
X67602Y97672D01*
X67914Y97609D01*
X68226Y97672D01*
X68491Y97848D01*
X68668Y98113D01*
X68730Y98425D01*
X68668Y98737D01*
X68491Y99002D01*
X68226Y99179D01*
X67914Y99241D01*
D02*
G37*
G36*
X62795D02*
X62483Y99179D01*
X62218Y99002D01*
X62041Y98737D01*
X61979Y98425D01*
X62041Y98113D01*
X62218Y97848D01*
X62483Y97672D01*
X62795Y97609D01*
X63107Y97672D01*
X63372Y97848D01*
X63549Y98113D01*
X63611Y98425D01*
X63549Y98737D01*
X63372Y99002D01*
X63107Y99179D01*
X62795Y99241D01*
D02*
G37*
G36*
X60236D02*
X59924Y99179D01*
X59659Y99002D01*
X59483Y98737D01*
X59420Y98425D01*
X59483Y98113D01*
X59659Y97848D01*
X59924Y97672D01*
X60236Y97609D01*
X60548Y97672D01*
X60813Y97848D01*
X60990Y98113D01*
X61052Y98425D01*
X60990Y98737D01*
X60813Y99002D01*
X60548Y99179D01*
X60236Y99241D01*
D02*
G37*
G36*
X57677D02*
X57365Y99179D01*
X57100Y99002D01*
X56924Y98737D01*
X56861Y98425D01*
X56924Y98113D01*
X57100Y97848D01*
X57365Y97672D01*
X57677Y97609D01*
X57989Y97672D01*
X58254Y97848D01*
X58431Y98113D01*
X58493Y98425D01*
X58431Y98737D01*
X58254Y99002D01*
X57989Y99179D01*
X57677Y99241D01*
D02*
G37*
G36*
X55118D02*
X54806Y99179D01*
X54541Y99002D01*
X54365Y98737D01*
X54302Y98425D01*
X54365Y98113D01*
X54541Y97848D01*
X54806Y97672D01*
X55118Y97609D01*
X55430Y97672D01*
X55695Y97848D01*
X55872Y98113D01*
X55934Y98425D01*
X55872Y98737D01*
X55695Y99002D01*
X55430Y99179D01*
X55118Y99241D01*
D02*
G37*
G36*
X52559D02*
X52247Y99179D01*
X51982Y99002D01*
X51806Y98737D01*
X51743Y98425D01*
X51806Y98113D01*
X51982Y97848D01*
X52247Y97672D01*
X52559Y97609D01*
X52871Y97672D01*
X53136Y97848D01*
X53313Y98113D01*
X53375Y98425D01*
X53313Y98737D01*
X53136Y99002D01*
X52871Y99179D01*
X52559Y99241D01*
D02*
G37*
G36*
X50000D02*
X49688Y99179D01*
X49423Y99002D01*
X49246Y98737D01*
X49184Y98425D01*
X49246Y98113D01*
X49423Y97848D01*
X49688Y97672D01*
X50000Y97609D01*
X50312Y97672D01*
X50577Y97848D01*
X50754Y98113D01*
X50816Y98425D01*
X50754Y98737D01*
X50577Y99002D01*
X50312Y99179D01*
X50000Y99241D01*
D02*
G37*
G36*
X47441D02*
X47129Y99179D01*
X46864Y99002D01*
X46687Y98737D01*
X46625Y98425D01*
X46687Y98113D01*
X46864Y97848D01*
X47129Y97672D01*
X47441Y97609D01*
X47753Y97672D01*
X48018Y97848D01*
X48195Y98113D01*
X48257Y98425D01*
X48195Y98737D01*
X48018Y99002D01*
X47753Y99179D01*
X47441Y99241D01*
D02*
G37*
G36*
X65355Y99240D02*
X65043Y99178D01*
X64778Y99001D01*
X64601Y98736D01*
X64539Y98424D01*
X64601Y98112D01*
X64778Y97847D01*
X65043Y97671D01*
X65355Y97608D01*
X65667Y97671D01*
X65932Y97847D01*
X66109Y98112D01*
X66171Y98424D01*
X66109Y98736D01*
X65932Y99001D01*
X65667Y99178D01*
X65355Y99240D01*
D02*
G37*
G36*
X90059Y99044D02*
X89747Y98982D01*
X89482Y98805D01*
X89306Y98541D01*
X89243Y98228D01*
X89306Y97916D01*
X89482Y97652D01*
X89747Y97475D01*
X90059Y97413D01*
X90371Y97475D01*
X90636Y97652D01*
X90813Y97916D01*
X90875Y98228D01*
X90813Y98541D01*
X90636Y98805D01*
X90371Y98982D01*
X90059Y99044D01*
D02*
G37*
G36*
X58455Y96808D02*
X58143Y96746D01*
X57878Y96569D01*
X57701Y96304D01*
X57669Y96142D01*
X57165D01*
X57134Y96270D01*
X57134Y96270D01*
X57121Y96289D01*
X56957Y96535D01*
X56692Y96712D01*
X56380Y96774D01*
X56068Y96712D01*
X55804Y96535D01*
X55627Y96270D01*
X55565Y95958D01*
X55627Y95646D01*
X55804Y95381D01*
X56068Y95205D01*
X56380Y95143D01*
X56692Y95205D01*
X56957Y95381D01*
X57134Y95646D01*
X57166Y95808D01*
X57670D01*
X57701Y95680D01*
X57701Y95680D01*
X57714Y95661D01*
X57878Y95415D01*
X58143Y95238D01*
X58455Y95176D01*
X58767Y95238D01*
X59032Y95415D01*
X59190Y95652D01*
X59357Y95673D01*
X59548Y95665D01*
X59710Y95640D01*
X59875Y95393D01*
X60140Y95216D01*
X60452Y95154D01*
X60764Y95216D01*
X61028Y95393D01*
X61205Y95658D01*
X61267Y95970D01*
X61205Y96282D01*
X61028Y96547D01*
X60764Y96724D01*
X60452Y96786D01*
X60140Y96724D01*
X59875Y96547D01*
X59717Y96310D01*
X59550Y96289D01*
X59358Y96297D01*
X59196Y96322D01*
X59032Y96569D01*
X58767Y96746D01*
X58455Y96808D01*
D02*
G37*
G36*
X83267Y96682D02*
X82955Y96620D01*
X82690Y96443D01*
X82513Y96178D01*
X82451Y95866D01*
X82513Y95554D01*
X82690Y95289D01*
X82955Y95113D01*
X83267Y95050D01*
X83579Y95113D01*
X83844Y95289D01*
X84021Y95554D01*
X84083Y95866D01*
X84021Y96178D01*
X83844Y96443D01*
X83579Y96620D01*
X83267Y96682D01*
D02*
G37*
G36*
X78736Y96726D02*
X78424Y96664D01*
X78160Y96487D01*
X77983Y96223D01*
X77921Y95911D01*
X77983Y95598D01*
X78160Y95334D01*
X78424Y95157D01*
X78736Y95095D01*
X79049Y95157D01*
X79313Y95334D01*
X79448Y95536D01*
X79762Y95551D01*
X79983Y95512D01*
X80131Y95289D01*
X80396Y95113D01*
X80708Y95050D01*
X81020Y95113D01*
X81285Y95289D01*
X81462Y95554D01*
X81524Y95866D01*
X81462Y96178D01*
X81285Y96443D01*
X81020Y96620D01*
X80708Y96682D01*
X80396Y96620D01*
X80131Y96443D01*
X79996Y96241D01*
X79682Y96226D01*
X79462Y96265D01*
X79313Y96487D01*
X79049Y96664D01*
X78736Y96726D01*
D02*
G37*
G36*
X73031Y96682D02*
X72719Y96620D01*
X72454Y96443D01*
X72277Y96178D01*
X72215Y95866D01*
X72277Y95554D01*
X72454Y95289D01*
X72719Y95113D01*
X73031Y95050D01*
X73343Y95113D01*
X73608Y95289D01*
X73785Y95554D01*
X73847Y95866D01*
X73785Y96178D01*
X73608Y96443D01*
X73343Y96620D01*
X73031Y96682D01*
D02*
G37*
G36*
X70472D02*
X70160Y96620D01*
X69895Y96443D01*
X69718Y96178D01*
X69656Y95866D01*
X69718Y95554D01*
X69895Y95289D01*
X70160Y95113D01*
X70472Y95050D01*
X70784Y95113D01*
X71049Y95289D01*
X71226Y95554D01*
X71288Y95866D01*
X71226Y96178D01*
X71049Y96443D01*
X70784Y96620D01*
X70472Y96682D01*
D02*
G37*
G36*
X67914D02*
X67602Y96620D01*
X67337Y96443D01*
X67160Y96178D01*
X67098Y95866D01*
X67160Y95554D01*
X67337Y95289D01*
X67602Y95113D01*
X67914Y95050D01*
X68226Y95113D01*
X68491Y95289D01*
X68668Y95554D01*
X68730Y95866D01*
X68668Y96178D01*
X68491Y96443D01*
X68226Y96620D01*
X67914Y96682D01*
D02*
G37*
G36*
X62795D02*
X62483Y96620D01*
X62218Y96443D01*
X62041Y96178D01*
X61979Y95866D01*
X62041Y95554D01*
X62218Y95289D01*
X62483Y95113D01*
X62795Y95050D01*
X63107Y95113D01*
X63372Y95289D01*
X63549Y95554D01*
X63611Y95866D01*
X63549Y96178D01*
X63372Y96443D01*
X63107Y96620D01*
X62795Y96682D01*
D02*
G37*
G36*
X52559D02*
X52247Y96620D01*
X51982Y96443D01*
X51806Y96178D01*
X51743Y95866D01*
X51806Y95554D01*
X51982Y95289D01*
X52247Y95113D01*
X52559Y95050D01*
X52871Y95113D01*
X53136Y95289D01*
X53313Y95554D01*
X53375Y95866D01*
X53313Y96178D01*
X53136Y96443D01*
X52871Y96620D01*
X52559Y96682D01*
D02*
G37*
G36*
X50000D02*
X49688Y96620D01*
X49423Y96443D01*
X49246Y96178D01*
X49184Y95866D01*
X49246Y95554D01*
X49423Y95289D01*
X49688Y95113D01*
X50000Y95050D01*
X50312Y95113D01*
X50577Y95289D01*
X50754Y95554D01*
X50816Y95866D01*
X50754Y96178D01*
X50577Y96443D01*
X50312Y96620D01*
X50000Y96682D01*
D02*
G37*
G36*
X75242Y96644D02*
X74930Y96582D01*
X74665Y96406D01*
X74489Y96141D01*
X74427Y95829D01*
X74489Y95517D01*
X74665Y95252D01*
X74930Y95075D01*
X75242Y95013D01*
X75554Y95075D01*
X75819Y95252D01*
X75996Y95517D01*
X76058Y95829D01*
X75996Y96141D01*
X75819Y96406D01*
X75554Y96582D01*
X75242Y96644D01*
D02*
G37*
G36*
X88287Y96496D02*
X87858Y96410D01*
X87494Y96167D01*
X87251Y95803D01*
X87166Y95374D01*
X87251Y94945D01*
X87494Y94581D01*
X87858Y94338D01*
X88287Y94253D01*
X88717Y94338D01*
X89081Y94581D01*
X89324Y94945D01*
X89409Y95374D01*
X89324Y95803D01*
X89081Y96167D01*
X88717Y96410D01*
X88287Y96496D01*
D02*
G37*
G36*
X105709Y95406D02*
X105358Y95336D01*
X105060Y95137D01*
X104861Y94839D01*
X104791Y94488D01*
X104861Y94137D01*
X105060Y93839D01*
X105358Y93640D01*
X105709Y93571D01*
X106060Y93640D01*
X106358Y93839D01*
X106556Y94137D01*
X106626Y94488D01*
X106556Y94839D01*
X106358Y95137D01*
X106060Y95336D01*
X105709Y95406D01*
D02*
G37*
G36*
X100689D02*
X100338Y95336D01*
X100040Y95137D01*
X99841Y94839D01*
X99771Y94488D01*
X99841Y94137D01*
X100040Y93839D01*
X100338Y93640D01*
X100689Y93571D01*
X101040Y93640D01*
X101338Y93839D01*
X101537Y94137D01*
X101607Y94488D01*
X101537Y94839D01*
X101338Y95137D01*
X101040Y95336D01*
X100689Y95406D01*
D02*
G37*
G36*
X47441Y96682D02*
X47129Y96620D01*
X46864Y96443D01*
X46687Y96178D01*
X46625Y95866D01*
X46687Y95554D01*
X46741Y95474D01*
X46805Y95176D01*
X46630Y94845D01*
X46580Y94811D01*
X46403Y94547D01*
X46341Y94235D01*
X46403Y93923D01*
X46580Y93658D01*
X46845Y93481D01*
X47157Y93419D01*
X47469Y93481D01*
X47734Y93658D01*
X47910Y93923D01*
X47973Y94235D01*
X47910Y94547D01*
X47857Y94626D01*
X47793Y94925D01*
X47968Y95256D01*
X48018Y95289D01*
X48195Y95554D01*
X48257Y95866D01*
X48195Y96178D01*
X48018Y96443D01*
X47753Y96620D01*
X47441Y96682D01*
D02*
G37*
G36*
X56389Y94214D02*
X56077Y94152D01*
X55812Y93975D01*
X55635Y93710D01*
X55573Y93398D01*
X55635Y93086D01*
X55812Y92821D01*
X56077Y92644D01*
X56389Y92582D01*
X56701Y92644D01*
X56966Y92821D01*
X57142Y93086D01*
X57204Y93398D01*
X57142Y93710D01*
X56966Y93975D01*
X56701Y94152D01*
X56389Y94214D01*
D02*
G37*
G36*
X58626Y94221D02*
X58314Y94159D01*
X58049Y93982D01*
X57872Y93717D01*
X57810Y93405D01*
X57872Y93093D01*
X58049Y92828D01*
X58314Y92651D01*
X58626Y92589D01*
X58938Y92651D01*
X59203Y92828D01*
X59305Y92982D01*
X59528Y93022D01*
X59694Y93018D01*
X59859Y92979D01*
X59974Y92806D01*
X60239Y92629D01*
X60551Y92567D01*
X60863Y92629D01*
X61128Y92806D01*
X61305Y93071D01*
X61367Y93383D01*
X61305Y93695D01*
X61128Y93960D01*
X60863Y94136D01*
X60551Y94199D01*
X60239Y94136D01*
X59974Y93960D01*
X59872Y93806D01*
X59649Y93766D01*
X59483Y93770D01*
X59318Y93809D01*
X59203Y93982D01*
X58938Y94159D01*
X58626Y94221D01*
D02*
G37*
G36*
X50382Y94132D02*
X50070Y94070D01*
X49805Y93893D01*
X49628Y93629D01*
X49566Y93317D01*
X49628Y93004D01*
X49805Y92740D01*
X50070Y92563D01*
X50382Y92501D01*
X50694Y92563D01*
X50959Y92740D01*
X51135Y93004D01*
X51197Y93317D01*
X51135Y93629D01*
X50959Y93893D01*
X50694Y94070D01*
X50382Y94132D01*
D02*
G37*
G36*
X83267Y94123D02*
X82955Y94061D01*
X82690Y93884D01*
X82513Y93619D01*
X82451Y93307D01*
X82513Y92995D01*
X82690Y92730D01*
X82955Y92554D01*
X83267Y92491D01*
X83579Y92554D01*
X83844Y92730D01*
X84021Y92995D01*
X84083Y93307D01*
X84021Y93619D01*
X83844Y93884D01*
X83579Y94061D01*
X83267Y94123D01*
D02*
G37*
G36*
X80708D02*
X80396Y94061D01*
X80131Y93884D01*
X79954Y93619D01*
X79892Y93307D01*
X79954Y92995D01*
X80131Y92730D01*
X80396Y92554D01*
X80708Y92491D01*
X81020Y92554D01*
X81285Y92730D01*
X81462Y92995D01*
X81524Y93307D01*
X81462Y93619D01*
X81285Y93884D01*
X81020Y94061D01*
X80708Y94123D01*
D02*
G37*
G36*
X70473D02*
X70161Y94061D01*
X69896Y93884D01*
X69719Y93619D01*
X69657Y93307D01*
X69719Y92995D01*
X69896Y92730D01*
X70161Y92554D01*
X70473Y92491D01*
X70785Y92554D01*
X71050Y92730D01*
X71227Y92995D01*
X71289Y93307D01*
X71227Y93619D01*
X71050Y93884D01*
X70785Y94061D01*
X70473Y94123D01*
D02*
G37*
G36*
X67914D02*
X67602Y94061D01*
X67337Y93884D01*
X67160Y93619D01*
X67098Y93307D01*
X67160Y92995D01*
X67337Y92730D01*
X67602Y92554D01*
X67914Y92491D01*
X68226Y92554D01*
X68491Y92730D01*
X68668Y92995D01*
X68730Y93307D01*
X68668Y93619D01*
X68491Y93884D01*
X68226Y94061D01*
X67914Y94123D01*
D02*
G37*
G36*
X65355D02*
X65043Y94061D01*
X64778Y93884D01*
X64601Y93619D01*
X64539Y93307D01*
X64601Y92995D01*
X64778Y92730D01*
X65043Y92554D01*
X65355Y92491D01*
X65667Y92554D01*
X65932Y92730D01*
X66109Y92995D01*
X66171Y93307D01*
X66109Y93619D01*
X65932Y93884D01*
X65667Y94061D01*
X65355Y94123D01*
D02*
G37*
G36*
X62795D02*
X62483Y94061D01*
X62218Y93884D01*
X62041Y93619D01*
X61979Y93307D01*
X62041Y92995D01*
X62218Y92730D01*
X62483Y92554D01*
X62795Y92491D01*
X63107Y92554D01*
X63372Y92730D01*
X63549Y92995D01*
X63611Y93307D01*
X63549Y93619D01*
X63372Y93884D01*
X63107Y94061D01*
X62795Y94123D01*
D02*
G37*
G36*
X60656Y91457D02*
X60344Y91395D01*
X60079Y91218D01*
X60016Y91123D01*
X59477Y91114D01*
X59458Y91120D01*
X59405Y91200D01*
X59141Y91377D01*
X58829Y91439D01*
X58516Y91377D01*
X58252Y91200D01*
X58075Y90935D01*
X58013Y90623D01*
X58075Y90311D01*
X58252Y90046D01*
X58516Y89869D01*
X58828Y89807D01*
X58928Y89468D01*
X58991Y89156D01*
X59167Y88892D01*
X59023Y88387D01*
X59007Y88362D01*
X58944Y88050D01*
X59007Y87738D01*
X59183Y87473D01*
X59448Y87296D01*
X59760Y87234D01*
X60072Y87296D01*
X60337Y87473D01*
X60514Y87738D01*
X60576Y88050D01*
X60514Y88362D01*
X60337Y88626D01*
X60481Y89132D01*
X60498Y89156D01*
X60534Y89340D01*
X60654Y89816D01*
X60948Y89884D01*
X60968Y89888D01*
X61233Y90065D01*
X61409Y90329D01*
X61471Y90641D01*
X61409Y90953D01*
X61233Y91218D01*
X60968Y91395D01*
X60656Y91457D01*
D02*
G37*
G36*
X29134Y91221D02*
X28802Y91155D01*
X28695Y91083D01*
X28346Y91006D01*
X27998Y91083D01*
X27891Y91155D01*
X27559Y91221D01*
X27227Y91155D01*
X27120Y91083D01*
X26772Y91006D01*
X26423Y91083D01*
X26316Y91155D01*
X25984Y91221D01*
X25652Y91155D01*
X25545Y91083D01*
X25196Y91006D01*
X24848Y91083D01*
X24741Y91155D01*
X24409Y91221D01*
X24077Y91155D01*
X23971Y91084D01*
X23622Y91006D01*
X23273Y91084D01*
X23167Y91155D01*
X22835Y91221D01*
X22503Y91155D01*
X22396Y91083D01*
X22048Y91006D01*
X21699Y91083D01*
X21592Y91155D01*
X21260Y91221D01*
X20928Y91155D01*
X20821Y91083D01*
X20472Y91006D01*
X20124Y91083D01*
X20017Y91155D01*
X19685Y91221D01*
X19353Y91155D01*
X19072Y90967D01*
X18884Y90686D01*
X18818Y90354D01*
X18884Y90022D01*
X19072Y89741D01*
X19353Y89553D01*
X19685Y89487D01*
X20017Y89553D01*
X20124Y89625D01*
X20472Y89702D01*
X20821Y89625D01*
X20928Y89553D01*
X21260Y89487D01*
X21592Y89553D01*
X21699Y89625D01*
X22048Y89702D01*
X22396Y89625D01*
X22503Y89553D01*
X22835Y89487D01*
X23167Y89553D01*
X23273Y89625D01*
X23622Y89702D01*
X23971Y89625D01*
X24077Y89553D01*
X24409Y89487D01*
X24741Y89553D01*
X24848Y89625D01*
X25196Y89702D01*
X25545Y89625D01*
X25652Y89553D01*
X25984Y89487D01*
X26316Y89553D01*
X26423Y89625D01*
X26772Y89702D01*
X27120Y89625D01*
X27227Y89553D01*
X27559Y89487D01*
X27891Y89553D01*
X27998Y89625D01*
X28346Y89702D01*
X28695Y89625D01*
X28802Y89553D01*
X29134Y89487D01*
X29466Y89553D01*
X29747Y89741D01*
X29935Y90022D01*
X30001Y90354D01*
X29935Y90686D01*
X29747Y90967D01*
X29466Y91155D01*
X29134Y91221D01*
D02*
G37*
G36*
X65355Y91564D02*
X65043Y91502D01*
X64778Y91325D01*
X64601Y91060D01*
X64539Y90748D01*
X64589Y90500D01*
X64423Y90309D01*
X64193Y90147D01*
X63915Y90202D01*
X63603Y90140D01*
X63338Y89963D01*
X63161Y89698D01*
X63099Y89386D01*
X63161Y89074D01*
X63338Y88810D01*
X63603Y88633D01*
X63915Y88571D01*
X64227Y88633D01*
X64492Y88810D01*
X64668Y89074D01*
X64731Y89386D01*
X64681Y89635D01*
X64847Y89825D01*
X65076Y89988D01*
X65355Y89932D01*
X65667Y89995D01*
X65932Y90171D01*
X66109Y90436D01*
X66171Y90748D01*
X66109Y91060D01*
X65932Y91325D01*
X65667Y91502D01*
X65355Y91564D01*
D02*
G37*
G36*
X47841Y91893D02*
X47529Y91831D01*
X47264Y91654D01*
X47087Y91389D01*
X47025Y91077D01*
X47087Y90765D01*
X47264Y90500D01*
X47529Y90324D01*
X47841Y90262D01*
X48153Y90324D01*
X48418Y90500D01*
X48551Y90700D01*
X48815Y90711D01*
X49071Y90647D01*
X49071Y90647D01*
X49248Y90382D01*
X49513Y90205D01*
X49825Y90143D01*
X50137Y90205D01*
X50402Y90382D01*
X50578Y90647D01*
X50640Y90959D01*
X50578Y91271D01*
X50402Y91536D01*
X50137Y91712D01*
X49825Y91774D01*
X49513Y91712D01*
X49248Y91536D01*
X49115Y91336D01*
X48851Y91325D01*
X48595Y91389D01*
X48594Y91389D01*
X48418Y91654D01*
X48153Y91831D01*
X47841Y91893D01*
D02*
G37*
G36*
X83267Y91564D02*
X82955Y91502D01*
X82690Y91325D01*
X82513Y91060D01*
X82451Y90748D01*
X82513Y90436D01*
X82690Y90171D01*
X82955Y89995D01*
X83267Y89932D01*
X83579Y89995D01*
X83844Y90171D01*
X84021Y90436D01*
X84083Y90748D01*
X84021Y91060D01*
X83844Y91325D01*
X83579Y91502D01*
X83267Y91564D01*
D02*
G37*
G36*
X80708D02*
X80396Y91502D01*
X80131Y91325D01*
X79954Y91060D01*
X79892Y90748D01*
X79954Y90436D01*
X80131Y90171D01*
X80396Y89995D01*
X80708Y89932D01*
X81020Y89995D01*
X81285Y90171D01*
X81462Y90436D01*
X81524Y90748D01*
X81462Y91060D01*
X81285Y91325D01*
X81020Y91502D01*
X80708Y91564D01*
D02*
G37*
G36*
X70473D02*
X70161Y91502D01*
X69896Y91325D01*
X69719Y91060D01*
X69657Y90748D01*
X69719Y90436D01*
X69896Y90171D01*
X70161Y89995D01*
X70473Y89932D01*
X70785Y89995D01*
X71050Y90171D01*
X71227Y90436D01*
X71289Y90748D01*
X71227Y91060D01*
X71050Y91325D01*
X70785Y91502D01*
X70473Y91564D01*
D02*
G37*
G36*
X67914D02*
X67602Y91502D01*
X67337Y91325D01*
X67160Y91060D01*
X67098Y90748D01*
X67160Y90436D01*
X67337Y90171D01*
X67602Y89995D01*
X67914Y89932D01*
X68226Y89995D01*
X68491Y90171D01*
X68668Y90436D01*
X68730Y90748D01*
X68668Y91060D01*
X68491Y91325D01*
X68226Y91502D01*
X67914Y91564D01*
D02*
G37*
G36*
X75394Y91564D02*
X75082Y91502D01*
X74817Y91325D01*
X74640Y91060D01*
X74578Y90748D01*
X74640Y90436D01*
X74817Y90171D01*
X75082Y89994D01*
X75394Y89932D01*
X75706Y89994D01*
X75971Y90171D01*
X76147Y90436D01*
X76209Y90748D01*
X76147Y91060D01*
X75971Y91325D01*
X75706Y91502D01*
X75394Y91564D01*
D02*
G37*
G36*
X78014Y91531D02*
X77702Y91469D01*
X77438Y91292D01*
X77261Y91028D01*
X77199Y90716D01*
X77261Y90403D01*
X77438Y90139D01*
X77702Y89962D01*
X78014Y89900D01*
X78327Y89962D01*
X78591Y90139D01*
X78768Y90403D01*
X78830Y90716D01*
X78768Y91028D01*
X78591Y91292D01*
X78327Y91469D01*
X78014Y91531D01*
D02*
G37*
G36*
X55783Y90051D02*
X55471Y89988D01*
X55207Y89812D01*
X55030Y89547D01*
X54968Y89235D01*
X55030Y88923D01*
X55207Y88658D01*
X55471Y88481D01*
X55783Y88419D01*
X56095Y88481D01*
X56360Y88658D01*
X56537Y88923D01*
X56599Y89235D01*
X56537Y89547D01*
X56360Y89812D01*
X56095Y89988D01*
X55783Y90051D01*
D02*
G37*
G36*
X136636Y90498D02*
X136168Y90405D01*
X135771Y90139D01*
X135506Y89742D01*
X135413Y89274D01*
X135506Y88806D01*
X135771Y88409D01*
X136168Y88144D01*
X136636Y88051D01*
X137105Y88144D01*
X137502Y88409D01*
X137767Y88806D01*
X137860Y89274D01*
X137767Y89742D01*
X137502Y90139D01*
X137105Y90405D01*
X136636Y90498D01*
D02*
G37*
G36*
X33366Y105607D02*
X33034Y105541D01*
X32753Y105353D01*
X32565Y105072D01*
X32499Y104741D01*
X32565Y104409D01*
X32636Y104303D01*
X32714Y103954D01*
X32636Y103604D01*
X32565Y103498D01*
X32499Y103167D01*
X32565Y102835D01*
X32637Y102728D01*
X32714Y102379D01*
X32637Y102030D01*
X32565Y101923D01*
X32499Y101592D01*
X32565Y101260D01*
X32637Y101153D01*
X32714Y100804D01*
X32637Y100455D01*
X32565Y100348D01*
X32499Y100017D01*
X32565Y99685D01*
X32637Y99578D01*
X32714Y99229D01*
X32637Y98880D01*
X32565Y98773D01*
X32499Y98442D01*
X32565Y98110D01*
X32637Y98003D01*
X32714Y97654D01*
X32637Y97305D01*
X32565Y97198D01*
X32499Y96867D01*
X32565Y96535D01*
X32753Y96254D01*
X33034Y96066D01*
X33156Y95608D01*
X33090Y95276D01*
X33156Y94944D01*
X33228Y94837D01*
X33305Y94489D01*
X33228Y94140D01*
X33156Y94033D01*
X33090Y93701D01*
X33156Y93369D01*
X33228Y93262D01*
X33305Y92914D01*
X33228Y92565D01*
X33156Y92458D01*
X33090Y92126D01*
X33156Y91794D01*
X33228Y91687D01*
X33305Y91338D01*
X33228Y90990D01*
X33156Y90883D01*
X33090Y90551D01*
X33156Y90219D01*
X33228Y90112D01*
X33305Y89763D01*
X33228Y89415D01*
X33156Y89308D01*
X33090Y88976D01*
X33156Y88644D01*
X33227Y88538D01*
X33305Y88189D01*
X33227Y87840D01*
X33156Y87734D01*
X33090Y87402D01*
X33156Y87070D01*
X33344Y86789D01*
X33625Y86601D01*
X33957Y86535D01*
X34288Y86601D01*
X34569Y86789D01*
X34757Y87070D01*
X34823Y87402D01*
X34757Y87734D01*
X34686Y87840D01*
X34608Y88189D01*
X34686Y88538D01*
X34757Y88644D01*
X34823Y88976D01*
X34757Y89308D01*
X34686Y89415D01*
X34608Y89763D01*
X34686Y90112D01*
X34757Y90219D01*
X34823Y90551D01*
X34757Y90883D01*
X34686Y90990D01*
X34608Y91338D01*
X34686Y91687D01*
X34757Y91794D01*
X34823Y92126D01*
X34757Y92458D01*
X34686Y92565D01*
X34608Y92914D01*
X34686Y93262D01*
X34757Y93369D01*
X34823Y93701D01*
X34757Y94033D01*
X34686Y94140D01*
X34608Y94489D01*
X34686Y94837D01*
X34757Y94944D01*
X34823Y95276D01*
X34757Y95608D01*
X34569Y95889D01*
X34288Y96077D01*
X34167Y96535D01*
X34233Y96867D01*
X34167Y97198D01*
X34095Y97305D01*
X34018Y97654D01*
X34095Y98003D01*
X34167Y98110D01*
X34233Y98442D01*
X34167Y98773D01*
X34095Y98880D01*
X34018Y99229D01*
X34095Y99578D01*
X34167Y99685D01*
X34233Y100017D01*
X34167Y100348D01*
X34095Y100455D01*
X34018Y100804D01*
X34095Y101153D01*
X34167Y101260D01*
X34233Y101592D01*
X34167Y101923D01*
X34095Y102030D01*
X34018Y102379D01*
X34095Y102728D01*
X34167Y102835D01*
X34233Y103167D01*
X34167Y103498D01*
X34096Y103604D01*
X34018Y103954D01*
X34096Y104303D01*
X34167Y104409D01*
X34233Y104741D01*
X34167Y105072D01*
X33979Y105353D01*
X33698Y105541D01*
X33366Y105607D01*
D02*
G37*
G36*
X87697Y88319D02*
X87346Y88249D01*
X87048Y88050D01*
X86849Y87753D01*
X86779Y87402D01*
X86849Y87050D01*
X87048Y86753D01*
X87346Y86554D01*
X87697Y86484D01*
X88048Y86554D01*
X88346Y86753D01*
X88545Y87050D01*
X88614Y87402D01*
X88545Y87753D01*
X88346Y88050D01*
X88048Y88249D01*
X87697Y88319D01*
D02*
G37*
G36*
X118898Y85475D02*
X118430Y85382D01*
X118033Y85117D01*
X117768Y84720D01*
X117675Y84252D01*
X117768Y83784D01*
X118033Y83387D01*
X118430Y83122D01*
X118898Y83029D01*
X119366Y83122D01*
X119763Y83387D01*
X120028Y83784D01*
X120122Y84252D01*
X120028Y84720D01*
X119763Y85117D01*
X119366Y85382D01*
X118898Y85475D01*
D02*
G37*
G36*
X87459Y83529D02*
X87108Y83460D01*
X86811Y83261D01*
X86612Y82963D01*
X86542Y82612D01*
X86612Y82261D01*
X86811Y81963D01*
X87108Y81764D01*
X87459Y81694D01*
X87811Y81764D01*
X88108Y81963D01*
X88307Y82261D01*
X88377Y82612D01*
X88307Y82963D01*
X88108Y83261D01*
X87811Y83460D01*
X87459Y83529D01*
D02*
G37*
G36*
X100563Y83176D02*
X100212Y83106D01*
X99914Y82907D01*
X99716Y82610D01*
X99646Y82258D01*
X99716Y81907D01*
X99914Y81610D01*
X100212Y81411D01*
X100563Y81341D01*
X100914Y81411D01*
X101212Y81610D01*
X101411Y81907D01*
X101481Y82258D01*
X101411Y82610D01*
X101212Y82907D01*
X100914Y83106D01*
X100563Y83176D01*
D02*
G37*
G36*
X74406Y83379D02*
X74055Y83309D01*
X73758Y83110D01*
X73559Y82812D01*
X73489Y82461D01*
X73559Y82110D01*
X73758Y81812D01*
X73554Y81347D01*
X73550Y81342D01*
X73480Y80991D01*
X73550Y80640D01*
X73749Y80342D01*
X74047Y80143D01*
X74398Y80073D01*
X74749Y80143D01*
X75047Y80342D01*
X75245Y80640D01*
X75315Y80991D01*
X75245Y81342D01*
X75047Y81640D01*
X75251Y82105D01*
X75254Y82110D01*
X75324Y82461D01*
X75254Y82812D01*
X75055Y83110D01*
X74758Y83309D01*
X74406Y83379D01*
D02*
G37*
G36*
X78966Y83414D02*
X78615Y83344D01*
X78317Y83145D01*
X78118Y82847D01*
X78048Y82496D01*
X78118Y82145D01*
X78131Y82126D01*
X78263Y81717D01*
X78121Y81377D01*
X78092Y81333D01*
X78022Y80982D01*
X78092Y80631D01*
X78291Y80333D01*
X78588Y80134D01*
X78940Y80065D01*
X79291Y80134D01*
X79589Y80333D01*
X79787Y80631D01*
X79857Y80982D01*
X79787Y81333D01*
X79589Y81631D01*
Y81830D01*
X79615Y81847D01*
X79814Y82145D01*
X79884Y82496D01*
X79814Y82847D01*
X79615Y83145D01*
X79317Y83344D01*
X78966Y83414D01*
D02*
G37*
G36*
X33957Y82804D02*
X33645Y82742D01*
X33380Y82565D01*
X33203Y82300D01*
X33141Y81988D01*
X33203Y81676D01*
X33335Y81479D01*
X33275Y81114D01*
X33208Y80925D01*
X32983Y80775D01*
X32807Y80511D01*
X32744Y80198D01*
X32807Y79886D01*
X32983Y79622D01*
X33248Y79445D01*
X33560Y79383D01*
X33872Y79445D01*
X34137Y79622D01*
X34314Y79886D01*
X34376Y80198D01*
X34314Y80511D01*
X34182Y80708D01*
X34242Y81073D01*
X34309Y81261D01*
X34534Y81411D01*
X34710Y81676D01*
X34772Y81988D01*
X34710Y82300D01*
X34534Y82565D01*
X34269Y82742D01*
X33957Y82804D01*
D02*
G37*
G36*
X111024Y78807D02*
X110692Y78741D01*
X110411Y78553D01*
X110223Y78272D01*
X110157Y77940D01*
X110223Y77608D01*
X110411Y77327D01*
X110692Y77139D01*
X111024Y77073D01*
X111356Y77139D01*
X111637Y77327D01*
X111825Y77608D01*
X111891Y77940D01*
X111825Y78272D01*
X111637Y78553D01*
X111356Y78741D01*
X111024Y78807D01*
D02*
G37*
G36*
X98680Y78454D02*
X98329Y78384D01*
X98031Y78185D01*
X97832Y77887D01*
X97762Y77536D01*
X97832Y77185D01*
X98031Y76887D01*
X98329Y76688D01*
X98680Y76618D01*
X99031Y76688D01*
X99329Y76887D01*
X99392Y76982D01*
X99436Y76996D01*
X99956Y76969D01*
X100046Y76834D01*
X100344Y76635D01*
X100695Y76566D01*
X101046Y76635D01*
X101309Y76811D01*
X101344Y76834D01*
X101910Y76812D01*
X101924Y76803D01*
X102208Y76613D01*
X102559Y76543D01*
X102910Y76613D01*
X103208Y76812D01*
X103254Y76881D01*
X103832D01*
X103879Y76812D01*
X104176Y76613D01*
X104528Y76543D01*
X104879Y76613D01*
X105176Y76812D01*
X105223Y76881D01*
X105801D01*
X105847Y76812D01*
X106145Y76613D01*
X106496Y76543D01*
X106847Y76613D01*
X107145Y76812D01*
X107344Y77109D01*
X107414Y77461D01*
X107344Y77812D01*
X107145Y78110D01*
X106847Y78308D01*
X106496Y78378D01*
X106145Y78308D01*
X105847Y78110D01*
X105801Y78040D01*
X105223D01*
X105176Y78110D01*
X104879Y78308D01*
X104528Y78378D01*
X104176Y78308D01*
X103879Y78110D01*
X103832Y78040D01*
X103254D01*
X103208Y78110D01*
X102910Y78308D01*
X102559Y78378D01*
X102208Y78308D01*
X101945Y78133D01*
X101910Y78110D01*
X101344Y78132D01*
X101330Y78141D01*
X101046Y78331D01*
X100695Y78401D01*
X100344Y78331D01*
X100046Y78132D01*
X99983Y78038D01*
X99939Y78023D01*
X99419Y78050D01*
X99329Y78185D01*
X99031Y78384D01*
X98680Y78454D01*
D02*
G37*
G36*
X80509Y75579D02*
X80119Y75501D01*
X79788Y75280D01*
X79567Y74949D01*
X79489Y74559D01*
X79567Y74169D01*
X79788Y73838D01*
X80119Y73617D01*
X80509Y73540D01*
X80899Y73617D01*
X81230Y73838D01*
X81451Y74169D01*
X81528Y74559D01*
X81451Y74949D01*
X81230Y75280D01*
X80899Y75501D01*
X80509Y75579D01*
D02*
G37*
G36*
X16299Y81040D02*
X15072Y80878D01*
X13929Y80404D01*
X12947Y79651D01*
X12194Y78669D01*
X11720Y77526D01*
X11558Y76299D01*
X11720Y75072D01*
X12194Y73929D01*
X12947Y72947D01*
X13929Y72194D01*
X15072Y71720D01*
X16299Y71558D01*
X17526Y71720D01*
X18669Y72194D01*
X19651Y72947D01*
X20404Y73929D01*
X20878Y75072D01*
X21040Y76299D01*
X20878Y77526D01*
X20404Y78669D01*
X19651Y79651D01*
X18669Y80404D01*
X17526Y80878D01*
X16299Y81040D01*
D02*
G37*
G36*
X93961Y73640D02*
X93493Y73547D01*
X93096Y73282D01*
X92830Y72885D01*
X92737Y72417D01*
X92830Y71949D01*
X93096Y71552D01*
X93493Y71286D01*
X93961Y71193D01*
X94429Y71286D01*
X94826Y71552D01*
X95091Y71949D01*
X95184Y72417D01*
X95091Y72885D01*
X94826Y73282D01*
X94429Y73547D01*
X93961Y73640D01*
D02*
G37*
G36*
X56340Y68012D02*
X56028Y67950D01*
X55763Y67773D01*
X55586Y67509D01*
X55524Y67197D01*
X55586Y66884D01*
X55763Y66620D01*
X56028Y66443D01*
X56340Y66381D01*
X56652Y66443D01*
X56917Y66620D01*
X57094Y66884D01*
X57156Y67197D01*
X57094Y67509D01*
X56917Y67773D01*
X56652Y67950D01*
X56340Y68012D01*
D02*
G37*
G36*
X60680Y67981D02*
X60368Y67918D01*
X60103Y67742D01*
X59926Y67477D01*
X59864Y67165D01*
X59926Y66853D01*
X60103Y66588D01*
X60368Y66411D01*
X60680Y66349D01*
X60992Y66411D01*
X61256Y66588D01*
X61433Y66853D01*
X61495Y67165D01*
X61433Y67477D01*
X61256Y67742D01*
X60992Y67918D01*
X60680Y67981D01*
D02*
G37*
G36*
X95669Y67942D02*
X95357Y67880D01*
X95092Y67703D01*
X94916Y67438D01*
X94854Y67126D01*
X94916Y66814D01*
X95092Y66549D01*
X95357Y66372D01*
X95669Y66310D01*
X95981Y66372D01*
X96246Y66549D01*
X96423Y66814D01*
X96485Y67126D01*
X96423Y67438D01*
X96246Y67703D01*
X95981Y67880D01*
X95669Y67942D01*
D02*
G37*
G36*
X86910D02*
X86597Y67880D01*
X86333Y67703D01*
X86156Y67438D01*
X86094Y67126D01*
X86156Y66814D01*
X86333Y66549D01*
X86597Y66372D01*
X86910Y66310D01*
X87222Y66372D01*
X87486Y66549D01*
X87663Y66814D01*
X87725Y67126D01*
X87663Y67438D01*
X87486Y67703D01*
X87222Y67880D01*
X86910Y67942D01*
D02*
G37*
G36*
X39961Y66418D02*
X39629Y66352D01*
X39348Y66164D01*
X39316Y66116D01*
X38735D01*
X38703Y66164D01*
X38422Y66352D01*
X38091Y66418D01*
X37759Y66352D01*
X37478Y66164D01*
X37290Y65883D01*
X37224Y65551D01*
X37290Y65219D01*
X37478Y64938D01*
X37759Y64750D01*
X38091Y64684D01*
X38422Y64750D01*
X38703Y64938D01*
X38735Y64986D01*
X39316D01*
X39348Y64938D01*
X39629Y64750D01*
X39961Y64684D01*
X40292Y64750D01*
X40573Y64938D01*
X40712Y65146D01*
X41035Y65153D01*
X41239Y65103D01*
X41415Y64840D01*
X41696Y64652D01*
X41723Y64647D01*
X42212Y64546D01*
X42274Y64234D01*
X42451Y63970D01*
X42716Y63793D01*
X43028Y63731D01*
X43340Y63793D01*
X43605Y63970D01*
X43782Y64234D01*
X43844Y64546D01*
X43782Y64859D01*
X43605Y65123D01*
X43340Y65300D01*
X43028Y65362D01*
X42828Y65784D01*
X42640Y66066D01*
X42359Y66253D01*
X42028Y66319D01*
X41696Y66253D01*
X41415Y66066D01*
X41276Y65858D01*
X40953Y65851D01*
X40749Y65901D01*
X40573Y66164D01*
X40292Y66352D01*
X39961Y66418D01*
D02*
G37*
G36*
X69439Y67353D02*
X69088Y67283D01*
X68791Y67084D01*
X68592Y66787D01*
X68522Y66435D01*
X68592Y66084D01*
X68791Y65787D01*
X69088Y65588D01*
X69439Y65518D01*
X69791Y65588D01*
X70070Y65775D01*
X70261Y65489D01*
X70559Y65290D01*
X70910Y65220D01*
X71261Y65290D01*
X71558Y65489D01*
X71757Y65787D01*
X71827Y66138D01*
X71757Y66489D01*
X71558Y66787D01*
X71261Y66986D01*
X70910Y67056D01*
X70559Y66986D01*
X70279Y66799D01*
X70088Y67084D01*
X69791Y67283D01*
X69439Y67353D01*
D02*
G37*
G36*
X64075Y68041D02*
X63763Y67979D01*
X63498Y67802D01*
X63322Y67537D01*
X63260Y67225D01*
X63322Y66913D01*
X63498Y66648D01*
X63763Y66472D01*
X64061Y66412D01*
X64075Y66409D01*
X64187Y66340D01*
X64539Y66017D01*
X64586Y65783D01*
X64689Y65629D01*
X64796Y65099D01*
X64597Y64801D01*
X64527Y64450D01*
X64597Y64099D01*
X64796Y63801D01*
X65093Y63602D01*
X65444Y63532D01*
X65795Y63602D01*
X66093Y63801D01*
X66292Y64099D01*
X66362Y64450D01*
X66292Y64801D01*
X66189Y64956D01*
X66082Y65486D01*
X66281Y65783D01*
X66351Y66135D01*
X66281Y66486D01*
X66082Y66783D01*
X65784Y66982D01*
X65433Y67052D01*
X65364Y67038D01*
X64969Y67194D01*
X64855Y67408D01*
X64829Y67537D01*
X64652Y67802D01*
X64387Y67979D01*
X64075Y68041D01*
D02*
G37*
G36*
X56050Y64846D02*
X55738Y64784D01*
X55473Y64607D01*
X55296Y64342D01*
X55234Y64030D01*
X55296Y63718D01*
X55473Y63453D01*
X55738Y63276D01*
X56050Y63214D01*
X56362Y63276D01*
X56627Y63453D01*
X56804Y63718D01*
X56866Y64030D01*
X56804Y64342D01*
X56627Y64607D01*
X56362Y64784D01*
X56050Y64846D01*
D02*
G37*
G36*
X60601Y64791D02*
X60289Y64729D01*
X60024Y64552D01*
X59847Y64288D01*
X59785Y63976D01*
X59847Y63663D01*
X60024Y63399D01*
X60289Y63222D01*
X60601Y63160D01*
X60913Y63222D01*
X61178Y63399D01*
X61354Y63663D01*
X61417Y63976D01*
X61354Y64288D01*
X61178Y64552D01*
X60913Y64729D01*
X60601Y64791D01*
D02*
G37*
G36*
X73228Y64647D02*
X72896Y64581D01*
X72615Y64393D01*
X72427Y64112D01*
X72361Y63780D01*
X72427Y63448D01*
X72615Y63167D01*
X72896Y62979D01*
X73228Y62913D01*
X73560Y62979D01*
X73841Y63167D01*
X74029Y63448D01*
X74095Y63780D01*
X74029Y64112D01*
X73841Y64393D01*
X73560Y64581D01*
X73228Y64647D01*
D02*
G37*
G36*
X32087Y64599D02*
X31735Y64529D01*
X31438Y64330D01*
X31239Y64032D01*
X31169Y63681D01*
X31239Y63330D01*
X31438Y63032D01*
X31735Y62833D01*
X32087Y62764D01*
X32438Y62833D01*
X32735Y63032D01*
X32934Y63330D01*
X33004Y63681D01*
X32934Y64032D01*
X32735Y64330D01*
X32438Y64529D01*
X32087Y64599D01*
D02*
G37*
G36*
X46360Y64315D02*
X46009Y64245D01*
X45711Y64046D01*
X45512Y63749D01*
X45443Y63398D01*
X45512Y63046D01*
X45711Y62749D01*
X46009Y62550D01*
X46360Y62480D01*
X46711Y62550D01*
X47009Y62749D01*
X47208Y63046D01*
X47278Y63398D01*
X47208Y63749D01*
X47009Y64046D01*
X46711Y64245D01*
X46360Y64315D01*
D02*
G37*
G36*
X118799Y63414D02*
X118487Y63352D01*
X118222Y63175D01*
X118046Y62911D01*
X117983Y62598D01*
X118046Y62286D01*
X118222Y62022D01*
X118487Y61845D01*
X118799Y61783D01*
X119111Y61845D01*
X119376Y62022D01*
X119553Y62286D01*
X119615Y62598D01*
X119553Y62911D01*
X119376Y63175D01*
X119111Y63352D01*
X118799Y63414D01*
D02*
G37*
G36*
X16299Y71040D02*
X15072Y70878D01*
X13929Y70404D01*
X12947Y69651D01*
X12194Y68669D01*
X11720Y67526D01*
X11558Y66299D01*
X11720Y65072D01*
X12194Y63929D01*
X12947Y62947D01*
X13929Y62194D01*
X15072Y61720D01*
X16299Y61558D01*
X17526Y61720D01*
X18669Y62194D01*
X19651Y62947D01*
X20404Y63929D01*
X20878Y65072D01*
X21040Y66299D01*
X20878Y67526D01*
X20404Y68669D01*
X19651Y69651D01*
X18669Y70404D01*
X17526Y70878D01*
X16299Y71040D01*
D02*
G37*
G36*
X80015Y61443D02*
X79664Y61373D01*
X79366Y61174D01*
X79167Y60877D01*
X79097Y60526D01*
X79167Y60174D01*
X79366Y59877D01*
X79664Y59678D01*
X80015Y59608D01*
X80366Y59678D01*
X80664Y59877D01*
X80863Y60174D01*
X80933Y60526D01*
X80863Y60877D01*
X80664Y61174D01*
X80366Y61373D01*
X80015Y61443D01*
D02*
G37*
G36*
X69193Y61351D02*
X68842Y61281D01*
X68544Y61082D01*
X68345Y60784D01*
X68275Y60433D01*
X68345Y60082D01*
X68544Y59784D01*
X68842Y59585D01*
X69193Y59515D01*
X69544Y59585D01*
X69842Y59784D01*
X70041Y60082D01*
X70110Y60433D01*
X70041Y60784D01*
X69842Y61082D01*
X69544Y61281D01*
X69193Y61351D01*
D02*
G37*
G36*
X25197D02*
X24846Y61281D01*
X24548Y61082D01*
X24349Y60784D01*
X24279Y60433D01*
X24349Y60082D01*
X24548Y59784D01*
X24846Y59585D01*
X25197Y59515D01*
X25548Y59585D01*
X25846Y59784D01*
X26045Y60082D01*
X26114Y60433D01*
X26045Y60784D01*
X25846Y61082D01*
X25548Y61281D01*
X25197Y61351D01*
D02*
G37*
G36*
X64040Y60428D02*
X63728Y60366D01*
X63464Y60189D01*
X63287Y59925D01*
X63225Y59613D01*
X63287Y59300D01*
X63464Y59036D01*
X63728Y58859D01*
X64040Y58797D01*
X64353Y58859D01*
X64617Y59036D01*
X64794Y59300D01*
X64856Y59613D01*
X64794Y59925D01*
X64617Y60189D01*
X64353Y60366D01*
X64040Y60428D01*
D02*
G37*
G36*
X86828Y59586D02*
X86516Y59524D01*
X86251Y59347D01*
X86074Y59082D01*
X86012Y58770D01*
X86074Y58458D01*
X86251Y58193D01*
X86516Y58017D01*
X86828Y57955D01*
X87140Y58017D01*
X87405Y58193D01*
X87581Y58458D01*
X87644Y58770D01*
X87581Y59082D01*
X87405Y59347D01*
X87140Y59524D01*
X86828Y59586D01*
D02*
G37*
G36*
X94784Y58690D02*
X94471Y58628D01*
X94207Y58451D01*
X94030Y58186D01*
X93968Y57874D01*
X94030Y57562D01*
X94207Y57297D01*
X94471Y57120D01*
X94784Y57058D01*
X95096Y57120D01*
X95360Y57297D01*
X95537Y57562D01*
X95599Y57874D01*
X95537Y58186D01*
X95360Y58451D01*
X95096Y58628D01*
X94784Y58690D01*
D02*
G37*
G36*
X107263Y58222D02*
X106951Y58160D01*
X106686Y57983D01*
X106509Y57718D01*
X106447Y57406D01*
X106448Y57400D01*
X106031Y56978D01*
X106009Y56983D01*
X105677Y56917D01*
X105396Y56729D01*
X105208Y56448D01*
X105142Y56116D01*
X105208Y55784D01*
X105396Y55503D01*
X105677Y55315D01*
X106009Y55249D01*
X106139Y55275D01*
X106388Y54815D01*
X106286Y54663D01*
X106220Y54331D01*
X106286Y53999D01*
X106474Y53718D01*
X106615Y53624D01*
X106636Y53554D01*
Y53139D01*
X106615Y53069D01*
X106474Y52975D01*
X106286Y52694D01*
X106220Y52362D01*
X106286Y52030D01*
X106474Y51749D01*
X106614Y51656D01*
X106635Y51587D01*
Y51169D01*
X106614Y51100D01*
X106474Y51007D01*
X106286Y50726D01*
X106220Y50394D01*
X106286Y50062D01*
X106474Y49781D01*
X106615Y49687D01*
X106636Y49617D01*
Y49202D01*
X106615Y49132D01*
X106474Y49038D01*
X106286Y48757D01*
X106220Y48425D01*
X106286Y48093D01*
X106474Y47812D01*
X106614Y47719D01*
X106635Y47650D01*
Y47232D01*
X106614Y47163D01*
X106474Y47070D01*
X106286Y46789D01*
X106220Y46457D01*
X106286Y46125D01*
X106474Y45844D01*
X106755Y45656D01*
X107087Y45590D01*
X107419Y45656D01*
X107700Y45844D01*
X107888Y46125D01*
X107954Y46457D01*
X107888Y46789D01*
X107700Y47070D01*
X107560Y47163D01*
X107539Y47232D01*
Y47650D01*
X107560Y47719D01*
X107700Y47812D01*
X107888Y48093D01*
X107954Y48425D01*
X107888Y48757D01*
X107700Y49038D01*
X107559Y49132D01*
X107538Y49202D01*
Y49617D01*
X107559Y49687D01*
X107700Y49781D01*
X107888Y50062D01*
X107954Y50394D01*
X107888Y50726D01*
X107700Y51007D01*
X107560Y51100D01*
X107539Y51169D01*
Y51587D01*
X107560Y51656D01*
X107700Y51749D01*
X107888Y52030D01*
X107954Y52362D01*
X107888Y52694D01*
X107700Y52975D01*
X107559Y53069D01*
X107538Y53139D01*
Y53554D01*
X107559Y53624D01*
X107700Y53718D01*
X107888Y53999D01*
X107954Y54331D01*
X107888Y54663D01*
X107700Y54944D01*
X107419Y55132D01*
X107087Y55198D01*
X106957Y55172D01*
X106707Y55632D01*
X106809Y55784D01*
X106875Y56116D01*
X106867Y56160D01*
X107262Y56590D01*
X107268Y56592D01*
X107575Y56653D01*
X107840Y56830D01*
X108016Y57094D01*
X108078Y57406D01*
X108016Y57718D01*
X107840Y57983D01*
X107575Y58160D01*
X107263Y58222D01*
D02*
G37*
G36*
X70472Y58496D02*
X70121Y58426D01*
X69824Y58228D01*
X69625Y57930D01*
X69555Y57579D01*
X69625Y57228D01*
X69824Y56930D01*
X70121Y56731D01*
X70472Y56661D01*
X70824Y56731D01*
X71121Y56930D01*
X71320Y57228D01*
X71390Y57579D01*
X71320Y57930D01*
X71121Y58228D01*
X70824Y58426D01*
X70472Y58496D01*
D02*
G37*
G36*
X80002Y58087D02*
X79651Y58017D01*
X79353Y57818D01*
X79154Y57521D01*
X79084Y57170D01*
X79154Y56818D01*
X79353Y56521D01*
X79651Y56322D01*
X80002Y56252D01*
X80353Y56322D01*
X80651Y56521D01*
X80850Y56818D01*
X80919Y57170D01*
X80850Y57521D01*
X80651Y57818D01*
X80353Y58017D01*
X80002Y58087D01*
D02*
G37*
G36*
X126673Y57906D02*
X126322Y57836D01*
X126024Y57637D01*
X125826Y57339D01*
X125756Y56988D01*
X125826Y56637D01*
X126024Y56339D01*
X126322Y56140D01*
X126673Y56071D01*
X127024Y56140D01*
X127322Y56339D01*
X127521Y56637D01*
X127591Y56988D01*
X127521Y57339D01*
X127322Y57637D01*
X127024Y57836D01*
X126673Y57906D01*
D02*
G37*
G36*
X39469D02*
X39117Y57836D01*
X38820Y57637D01*
X38621Y57339D01*
X38551Y56988D01*
X38621Y56637D01*
X38820Y56339D01*
X39117Y56140D01*
X39469Y56071D01*
X39820Y56140D01*
X40117Y56339D01*
X40316Y56637D01*
X40386Y56988D01*
X40316Y57339D01*
X40117Y57637D01*
X39820Y57836D01*
X39469Y57906D01*
D02*
G37*
G36*
X46656Y57730D02*
X46325Y57664D01*
X46043Y57476D01*
X45855Y57195D01*
X45789Y56863D01*
X45855Y56532D01*
X46043Y56251D01*
X46325Y56063D01*
X46656Y55997D01*
X46988Y56063D01*
X47269Y56251D01*
X47457Y56532D01*
X47523Y56863D01*
X47457Y57195D01*
X47269Y57476D01*
X46988Y57664D01*
X46656Y57730D01*
D02*
G37*
G36*
X27291Y59938D02*
X26901Y59860D01*
X26570Y59639D01*
X26349Y59308D01*
X26272Y58918D01*
X26349Y58528D01*
X26468Y58351D01*
X26337Y57883D01*
X26278Y57803D01*
X26206Y57789D01*
X25875Y57568D01*
X25655Y57237D01*
X25577Y56847D01*
X25655Y56457D01*
X25875Y56126D01*
X26206Y55905D01*
X26597Y55827D01*
X26987Y55905D01*
X27317Y56126D01*
X27538Y56457D01*
X27616Y56847D01*
X27538Y57237D01*
X27420Y57414D01*
X27551Y57882D01*
X27610Y57962D01*
X27682Y57976D01*
X28012Y58197D01*
X28233Y58528D01*
X28311Y58918D01*
X28233Y59308D01*
X28012Y59639D01*
X27682Y59860D01*
X27291Y59938D01*
D02*
G37*
G36*
X113548Y57487D02*
X113216Y57421D01*
X112935Y57233D01*
X112747Y56952D01*
X112681Y56620D01*
X112747Y56288D01*
X112935Y56007D01*
X113216Y55819D01*
X113548Y55753D01*
X113880Y55819D01*
X114161Y56007D01*
X114349Y56288D01*
X114415Y56620D01*
X114349Y56952D01*
X114161Y57233D01*
X113880Y57421D01*
X113548Y57487D01*
D02*
G37*
G36*
X73183Y57474D02*
X72852Y57409D01*
X72570Y57221D01*
X72383Y56940D01*
X72317Y56608D01*
X72383Y56276D01*
X72570Y55995D01*
X72852Y55807D01*
X73183Y55741D01*
X73515Y55807D01*
X73796Y55995D01*
X73984Y56276D01*
X74050Y56608D01*
X73984Y56940D01*
X73796Y57221D01*
X73515Y57409D01*
X73183Y57474D01*
D02*
G37*
G36*
X96752Y57118D02*
X96401Y57049D01*
X96103Y56850D01*
X95904Y56552D01*
X95834Y56201D01*
X95904Y55850D01*
X96103Y55552D01*
X96401Y55353D01*
X96752Y55283D01*
X97103Y55353D01*
X97401Y55552D01*
X97600Y55850D01*
X97670Y56201D01*
X97600Y56552D01*
X97401Y56850D01*
X97103Y57049D01*
X96752Y57118D01*
D02*
G37*
G36*
X101279Y56674D02*
X100948Y56608D01*
X100667Y56420D01*
X100479Y56139D01*
X100413Y55807D01*
X100479Y55475D01*
X100667Y55194D01*
X100948Y55006D01*
X101279Y54940D01*
X101611Y55006D01*
X101892Y55194D01*
X102080Y55475D01*
X102146Y55807D01*
X102080Y56139D01*
X101892Y56420D01*
X101611Y56608D01*
X101279Y56674D01*
D02*
G37*
G36*
X119193Y56575D02*
X118861Y56509D01*
X118580Y56322D01*
X118392Y56040D01*
X118326Y55709D01*
X118392Y55377D01*
X118580Y55096D01*
X118861Y54908D01*
X119193Y54842D01*
X119525Y54908D01*
X119806Y55096D01*
X119994Y55377D01*
X120060Y55709D01*
X119994Y56040D01*
X119806Y56322D01*
X119525Y56509D01*
X119193Y56575D01*
D02*
G37*
G36*
X57972Y62036D02*
X57660Y61974D01*
X57396Y61797D01*
X57219Y61533D01*
X57157Y61221D01*
X57219Y60908D01*
X57340Y60727D01*
X57290Y60370D01*
X57211Y60166D01*
X57002Y60026D01*
X56825Y59761D01*
X56763Y59449D01*
X56825Y59137D01*
X56906Y59016D01*
X57174Y58594D01*
X56997Y58329D01*
X56935Y58017D01*
X56997Y57705D01*
X57152Y57473D01*
X57163Y57454D01*
X57131Y56980D01*
X57122Y56874D01*
X57117Y56871D01*
X56940Y56606D01*
X56878Y56294D01*
X56940Y55982D01*
X57117Y55717D01*
X57142Y55700D01*
X57281Y55256D01*
X57223Y55091D01*
X57120Y54938D01*
X57058Y54626D01*
X57120Y54314D01*
X57297Y54049D01*
X57562Y53872D01*
X57874Y53810D01*
X58186Y53872D01*
X58451Y54049D01*
X58628Y54314D01*
X58690Y54626D01*
X58628Y54938D01*
X58451Y55203D01*
X58425Y55220D01*
X58287Y55664D01*
X58345Y55829D01*
X58447Y55982D01*
X58509Y56294D01*
X58447Y56606D01*
X58292Y56838D01*
X58282Y56857D01*
X58313Y57331D01*
X58323Y57437D01*
X58328Y57440D01*
X58504Y57705D01*
X58566Y58017D01*
X58504Y58329D01*
X58424Y58450D01*
X58156Y58872D01*
X58332Y59137D01*
X58394Y59449D01*
X58332Y59761D01*
X58211Y59943D01*
X58261Y60300D01*
X58340Y60504D01*
X58549Y60644D01*
X58726Y60908D01*
X58788Y61221D01*
X58726Y61533D01*
X58549Y61797D01*
X58285Y61974D01*
X57972Y62036D01*
D02*
G37*
G36*
X64099Y55413D02*
X63786Y55351D01*
X63522Y55174D01*
X63345Y54909D01*
X63283Y54597D01*
X63345Y54285D01*
X63522Y54020D01*
X63786Y53843D01*
X64099Y53781D01*
X64411Y53843D01*
X64675Y54020D01*
X64852Y54285D01*
X64914Y54597D01*
X64852Y54909D01*
X64675Y55174D01*
X64411Y55351D01*
X64099Y55413D01*
D02*
G37*
G36*
X112697Y54646D02*
X112346Y54576D01*
X112048Y54378D01*
X111850Y54080D01*
X111780Y53729D01*
X111850Y53378D01*
X112048Y53080D01*
X112346Y52881D01*
X112697Y52811D01*
X113049Y52881D01*
X113346Y53080D01*
X113545Y53378D01*
X113615Y53729D01*
X113545Y54080D01*
X113346Y54378D01*
X113049Y54576D01*
X112697Y54646D01*
D02*
G37*
G36*
X46740Y53815D02*
X46408Y53749D01*
X46127Y53562D01*
X45939Y53280D01*
X45873Y52949D01*
X45939Y52617D01*
X46127Y52336D01*
X46408Y52148D01*
X46740Y52082D01*
X47071Y52148D01*
X47353Y52336D01*
X47540Y52617D01*
X47606Y52949D01*
X47540Y53280D01*
X47353Y53562D01*
X47071Y53749D01*
X46740Y53815D01*
D02*
G37*
G36*
X39975Y53841D02*
X39624Y53771D01*
X39327Y53572D01*
X39128Y53274D01*
X39058Y52923D01*
X39128Y52572D01*
X39327Y52274D01*
X39624Y52075D01*
X39975Y52005D01*
X40327Y52075D01*
X40624Y52274D01*
X40823Y52572D01*
X40893Y52923D01*
X40823Y53274D01*
X40624Y53572D01*
X40327Y53771D01*
X39975Y53841D01*
D02*
G37*
G36*
X16299Y61040D02*
X15072Y60878D01*
X13929Y60404D01*
X12947Y59651D01*
X12194Y58669D01*
X11720Y57526D01*
X11558Y56299D01*
X11720Y55072D01*
X12194Y53929D01*
X12947Y52947D01*
X13929Y52194D01*
X15072Y51720D01*
X16299Y51558D01*
X17526Y51720D01*
X18669Y52194D01*
X19651Y52947D01*
X20404Y53929D01*
X20878Y55072D01*
X21040Y56299D01*
X20878Y57526D01*
X20404Y58669D01*
X19651Y59651D01*
X18669Y60404D01*
X17526Y60878D01*
X16299Y61040D01*
D02*
G37*
G36*
X37205Y53280D02*
X36854Y53210D01*
X36556Y53011D01*
X36357Y52713D01*
X36287Y52362D01*
X36357Y52011D01*
X36556Y51713D01*
X36854Y51514D01*
X37205Y51445D01*
X37556Y51514D01*
X37854Y51713D01*
X38052Y52011D01*
X38122Y52362D01*
X38052Y52713D01*
X37854Y53011D01*
X37556Y53210D01*
X37205Y53280D01*
D02*
G37*
G36*
X79962Y55386D02*
X79611Y55316D01*
X79313Y55117D01*
X79114Y54819D01*
X79044Y54468D01*
X79114Y54117D01*
X79313Y53819D01*
X79611Y53620D01*
X79655Y53611D01*
X79688Y53605D01*
Y53095D01*
X79645Y53087D01*
X79520Y53062D01*
X79222Y52863D01*
X79023Y52565D01*
X78954Y52214D01*
X79023Y51863D01*
X79222Y51565D01*
X79520Y51366D01*
X79871Y51296D01*
X80222Y51366D01*
X80520Y51565D01*
X80719Y51863D01*
X80789Y52214D01*
X80719Y52565D01*
X80520Y52863D01*
X80222Y53062D01*
X80178Y53070D01*
X80145Y53077D01*
Y53587D01*
X80188Y53595D01*
X80313Y53620D01*
X80611Y53819D01*
X80810Y54117D01*
X80880Y54468D01*
X80810Y54819D01*
X80611Y55117D01*
X80313Y55316D01*
X79962Y55386D01*
D02*
G37*
G36*
X52465Y51968D02*
X52153Y51906D01*
X51889Y51729D01*
X51712Y51464D01*
X51650Y51152D01*
X51712Y50840D01*
X51889Y50576D01*
X52153Y50399D01*
X52465Y50337D01*
X52778Y50399D01*
X53042Y50576D01*
X53219Y50840D01*
X53281Y51152D01*
X53219Y51464D01*
X53042Y51729D01*
X52778Y51906D01*
X52465Y51968D01*
D02*
G37*
G36*
X58071Y51603D02*
X57759Y51541D01*
X57494Y51364D01*
X57317Y51099D01*
X57255Y50787D01*
X57317Y50475D01*
X57494Y50211D01*
X57759Y50034D01*
X58071Y49972D01*
X58383Y50034D01*
X58648Y50211D01*
X58824Y50475D01*
X58886Y50787D01*
X58824Y51099D01*
X58648Y51364D01*
X58383Y51541D01*
X58071Y51603D01*
D02*
G37*
G36*
X54921D02*
X54609Y51541D01*
X54344Y51364D01*
X54168Y51099D01*
X54106Y50787D01*
X54168Y50475D01*
X54344Y50211D01*
X54609Y50034D01*
X54921Y49972D01*
X55233Y50034D01*
X55498Y50211D01*
X55675Y50475D01*
X55737Y50787D01*
X55675Y51099D01*
X55498Y51364D01*
X55233Y51541D01*
X54921Y51603D01*
D02*
G37*
G36*
X114272Y51705D02*
X113920Y51635D01*
X113623Y51436D01*
X113424Y51139D01*
X113354Y50787D01*
X113424Y50436D01*
X113623Y50138D01*
X113920Y49940D01*
X114272Y49870D01*
X114623Y49940D01*
X114920Y50138D01*
X115119Y50436D01*
X115189Y50787D01*
X115119Y51139D01*
X114920Y51436D01*
X114623Y51635D01*
X114272Y51705D01*
D02*
G37*
G36*
X64468Y52591D02*
X64117Y52521D01*
X63820Y52322D01*
X63621Y52024D01*
X63551Y51673D01*
X63621Y51322D01*
X63820Y51024D01*
X64117Y50826D01*
X64430Y50763D01*
X64547Y50300D01*
X64511Y50257D01*
X64404Y50185D01*
X64213Y50058D01*
X64014Y49761D01*
X63945Y49409D01*
X64014Y49058D01*
X64213Y48761D01*
X64511Y48562D01*
X64862Y48492D01*
X65213Y48562D01*
X65511Y48761D01*
X65710Y49058D01*
X65780Y49409D01*
X65710Y49761D01*
X65511Y50058D01*
X65213Y50257D01*
X64900Y50319D01*
X64784Y50782D01*
X64820Y50825D01*
X64927Y50897D01*
X65117Y51024D01*
X65316Y51322D01*
X65386Y51673D01*
X65316Y52024D01*
X65117Y52322D01*
X64820Y52521D01*
X64468Y52591D01*
D02*
G37*
G36*
X112430Y50245D02*
X112079Y50175D01*
X111781Y49976D01*
X111582Y49679D01*
X111513Y49327D01*
X111582Y48976D01*
X111781Y48678D01*
X112079Y48480D01*
X112430Y48410D01*
X112781Y48480D01*
X113079Y48678D01*
X113278Y48976D01*
X113348Y49327D01*
X113278Y49679D01*
X113079Y49976D01*
X112781Y50175D01*
X112430Y50245D01*
D02*
G37*
G36*
X95866Y54871D02*
X95515Y54801D01*
X95217Y54602D01*
X95018Y54304D01*
X94948Y53953D01*
X95018Y53602D01*
X94826Y53210D01*
X94528Y53011D01*
X94329Y52713D01*
X94260Y52362D01*
X94296Y52177D01*
X94294Y51974D01*
X93975Y51642D01*
X93940Y51635D01*
X93642Y51436D01*
X93444Y51139D01*
X93374Y50787D01*
X93391Y50702D01*
X93244Y50321D01*
X93021Y50191D01*
X92857Y50159D01*
X92560Y49960D01*
X92361Y49662D01*
X92291Y49311D01*
X92361Y48960D01*
X92560Y48662D01*
X92857Y48463D01*
X93209Y48393D01*
X93560Y48463D01*
X93858Y48662D01*
X94056Y48960D01*
X94126Y49311D01*
X94109Y49396D01*
X94256Y49778D01*
X94479Y49907D01*
X94643Y49940D01*
X94940Y50138D01*
X95139Y50436D01*
X95209Y50787D01*
X95172Y50973D01*
X95174Y51175D01*
X95494Y51508D01*
X95528Y51514D01*
X95826Y51713D01*
X96025Y52011D01*
X96095Y52362D01*
X96025Y52713D01*
X96217Y53105D01*
X96515Y53304D01*
X96714Y53602D01*
X96784Y53953D01*
X96714Y54304D01*
X96515Y54602D01*
X96217Y54801D01*
X95866Y54871D01*
D02*
G37*
G36*
X61122Y49143D02*
X60810Y49081D01*
X60545Y48904D01*
X60368Y48639D01*
X60306Y48327D01*
X60368Y48015D01*
X60545Y47750D01*
X60810Y47574D01*
X61122Y47512D01*
X61434Y47574D01*
X61699Y47750D01*
X61875Y48015D01*
X61937Y48327D01*
X61875Y48639D01*
X61699Y48904D01*
X61434Y49081D01*
X61122Y49143D01*
D02*
G37*
G36*
X57972D02*
X57660Y49081D01*
X57395Y48904D01*
X57218Y48639D01*
X57156Y48327D01*
X57218Y48015D01*
X57395Y47750D01*
X57660Y47574D01*
X57972Y47512D01*
X58284Y47574D01*
X58549Y47750D01*
X58725Y48015D01*
X58788Y48327D01*
X58725Y48639D01*
X58549Y48904D01*
X58284Y49081D01*
X57972Y49143D01*
D02*
G37*
G36*
X54823D02*
X54511Y49081D01*
X54246Y48904D01*
X54069Y48639D01*
X54007Y48327D01*
X54069Y48015D01*
X54246Y47750D01*
X54511Y47574D01*
X54823Y47512D01*
X55135Y47574D01*
X55400Y47750D01*
X55576Y48015D01*
X55638Y48327D01*
X55576Y48639D01*
X55400Y48904D01*
X55135Y49081D01*
X54823Y49143D01*
D02*
G37*
G36*
X46632Y49029D02*
X46301Y48963D01*
X46020Y48776D01*
X45832Y48494D01*
X45766Y48163D01*
X45832Y47831D01*
X46020Y47550D01*
X46301Y47362D01*
X46632Y47296D01*
X46964Y47362D01*
X47245Y47550D01*
X47433Y47831D01*
X47499Y48163D01*
X47433Y48494D01*
X47245Y48776D01*
X46964Y48963D01*
X46632Y49029D01*
D02*
G37*
G36*
X89961Y48749D02*
X89648Y48687D01*
X89384Y48510D01*
X89207Y48245D01*
X89145Y47933D01*
X89207Y47621D01*
X89384Y47356D01*
X89648Y47179D01*
X89961Y47117D01*
X90273Y47179D01*
X90537Y47356D01*
X90714Y47621D01*
X90776Y47933D01*
X90714Y48245D01*
X90537Y48510D01*
X90273Y48687D01*
X89961Y48749D01*
D02*
G37*
G36*
X96214Y48536D02*
X95863Y48466D01*
X95565Y48267D01*
X95366Y47970D01*
X95296Y47619D01*
X95366Y47267D01*
X95565Y46970D01*
X95863Y46771D01*
X96214Y46701D01*
X96565Y46771D01*
X96863Y46970D01*
X97062Y47267D01*
X97132Y47619D01*
X97062Y47970D01*
X96863Y48267D01*
X96565Y48466D01*
X96214Y48536D01*
D02*
G37*
G36*
X83207Y48427D02*
X82856Y48357D01*
X82558Y48158D01*
X82359Y47861D01*
X82289Y47510D01*
X82359Y47158D01*
X82558Y46861D01*
X82856Y46662D01*
X83207Y46592D01*
X83558Y46662D01*
X83856Y46861D01*
X84055Y47158D01*
X84125Y47510D01*
X84055Y47861D01*
X83856Y48158D01*
X83558Y48357D01*
X83207Y48427D01*
D02*
G37*
G36*
X64764Y47965D02*
X64413Y47895D01*
X64115Y47696D01*
X63916Y47398D01*
X63846Y47047D01*
X63916Y46696D01*
X64115Y46398D01*
X64413Y46200D01*
X64764Y46130D01*
X65115Y46200D01*
X65413Y46398D01*
X65612Y46696D01*
X65681Y47047D01*
X65612Y47398D01*
X65413Y47696D01*
X65115Y47895D01*
X64764Y47965D01*
D02*
G37*
G36*
X116831Y47768D02*
X116480Y47698D01*
X116182Y47499D01*
X115983Y47201D01*
X115913Y46850D01*
X115983Y46499D01*
X116182Y46202D01*
X116480Y46003D01*
X116831Y45933D01*
X117182Y46003D01*
X117480Y46202D01*
X117678Y46499D01*
X117748Y46850D01*
X117678Y47201D01*
X117480Y47499D01*
X117182Y47698D01*
X116831Y47768D01*
D02*
G37*
G36*
X69980Y47571D02*
X69629Y47501D01*
X69331Y47302D01*
X69133Y47005D01*
X69063Y46654D01*
X69133Y46302D01*
X69331Y46005D01*
X69629Y45806D01*
X69980Y45736D01*
X70332Y45806D01*
X70629Y46005D01*
X70828Y46302D01*
X70898Y46654D01*
X70828Y47005D01*
X70629Y47302D01*
X70332Y47501D01*
X69980Y47571D01*
D02*
G37*
G36*
X86696Y47170D02*
X86384Y47108D01*
X86119Y46931D01*
X85942Y46667D01*
X85880Y46354D01*
X85942Y46042D01*
X86119Y45778D01*
X86384Y45601D01*
X86696Y45539D01*
X87008Y45601D01*
X87273Y45778D01*
X87450Y46042D01*
X87512Y46354D01*
X87450Y46667D01*
X87273Y46931D01*
X87008Y47108D01*
X86696Y47170D01*
D02*
G37*
G36*
X61122Y45993D02*
X60810Y45931D01*
X60545Y45754D01*
X60368Y45489D01*
X60306Y45177D01*
X60368Y44865D01*
X60545Y44600D01*
X60810Y44424D01*
X61122Y44361D01*
X61434Y44424D01*
X61699Y44600D01*
X61875Y44865D01*
X61937Y45177D01*
X61875Y45489D01*
X61699Y45754D01*
X61434Y45931D01*
X61122Y45993D01*
D02*
G37*
G36*
X57972D02*
X57660Y45931D01*
X57395Y45754D01*
X57218Y45489D01*
X57156Y45177D01*
X57218Y44865D01*
X57395Y44600D01*
X57660Y44424D01*
X57972Y44361D01*
X58284Y44424D01*
X58549Y44600D01*
X58725Y44865D01*
X58788Y45177D01*
X58725Y45489D01*
X58549Y45754D01*
X58284Y45931D01*
X57972Y45993D01*
D02*
G37*
G36*
X54823D02*
X54511Y45931D01*
X54246Y45754D01*
X54069Y45489D01*
X54007Y45177D01*
X54069Y44865D01*
X54246Y44600D01*
X54511Y44424D01*
X54823Y44361D01*
X55135Y44424D01*
X55400Y44600D01*
X55576Y44865D01*
X55638Y45177D01*
X55576Y45489D01*
X55400Y45754D01*
X55135Y45931D01*
X54823Y45993D01*
D02*
G37*
G36*
X73524Y50032D02*
X73172Y49962D01*
X72875Y49763D01*
X72676Y49465D01*
X72606Y49114D01*
X72676Y48763D01*
X72875Y48465D01*
X73087Y48324D01*
X73102Y48279D01*
X73125Y47972D01*
X73093Y47772D01*
X72945Y47674D01*
X72747Y47376D01*
X72677Y47025D01*
X72747Y46674D01*
X72945Y46376D01*
X72995Y46343D01*
X73203Y46024D01*
X73121Y45703D01*
X73070Y45627D01*
X73000Y45276D01*
X73070Y44924D01*
X73269Y44627D01*
X73566Y44428D01*
X73917Y44358D01*
X74269Y44428D01*
X74566Y44627D01*
X74765Y44924D01*
X74835Y45276D01*
X74765Y45627D01*
X74566Y45924D01*
X74517Y45957D01*
X74308Y46277D01*
X74391Y46597D01*
X74442Y46674D01*
X74512Y47025D01*
X74442Y47376D01*
X74243Y47674D01*
X74031Y47815D01*
X74016Y47860D01*
X73993Y48167D01*
X74025Y48367D01*
X74173Y48465D01*
X74371Y48763D01*
X74441Y49114D01*
X74371Y49465D01*
X74173Y49763D01*
X73875Y49962D01*
X73524Y50032D01*
D02*
G37*
G36*
X104891Y44675D02*
X104540Y44605D01*
X104242Y44406D01*
X104213Y44363D01*
X103620Y44350D01*
X103600Y44380D01*
X103302Y44579D01*
X102951Y44649D01*
X102600Y44579D01*
X102302Y44380D01*
X102103Y44082D01*
X102033Y43731D01*
X102103Y43380D01*
X102302Y43082D01*
X102600Y42883D01*
X102951Y42813D01*
X103302Y42883D01*
X103600Y43082D01*
X103629Y43126D01*
X104222Y43139D01*
X104242Y43108D01*
X104540Y42910D01*
X104891Y42840D01*
X105242Y42910D01*
X105540Y43108D01*
X105738Y43406D01*
X105808Y43757D01*
X105738Y44108D01*
X105540Y44406D01*
X105242Y44605D01*
X104891Y44675D01*
D02*
G37*
G36*
X123622Y45749D02*
X123290Y45683D01*
X123009Y45495D01*
X122821Y45214D01*
X122755Y44882D01*
X122821Y44550D01*
X123009Y44269D01*
X123290Y44081D01*
X123622Y44015D01*
X123954Y44081D01*
X124235Y44269D01*
X124423Y44550D01*
X124489Y44882D01*
X124423Y45214D01*
X124235Y45495D01*
X123954Y45683D01*
X123622Y45749D01*
D02*
G37*
G36*
X77175Y45254D02*
X76824Y45184D01*
X76527Y44985D01*
X76328Y44688D01*
X76258Y44337D01*
X76328Y43985D01*
X76527Y43688D01*
X76824Y43489D01*
X77175Y43419D01*
X77527Y43489D01*
X77824Y43688D01*
X78023Y43985D01*
X78093Y44337D01*
X78023Y44688D01*
X77824Y44985D01*
X77527Y45184D01*
X77175Y45254D01*
D02*
G37*
G36*
X65551Y44228D02*
X65161Y44151D01*
X64830Y43930D01*
X64609Y43599D01*
X64532Y43209D01*
X64609Y42818D01*
X64830Y42488D01*
X65161Y42267D01*
X65551Y42189D01*
X65941Y42267D01*
X66272Y42488D01*
X66493Y42818D01*
X66571Y43209D01*
X66493Y43599D01*
X66272Y43930D01*
X65941Y44151D01*
X65551Y44228D01*
D02*
G37*
G36*
X44882Y43878D02*
X44550Y43813D01*
X44269Y43625D01*
X44081Y43343D01*
X44015Y43012D01*
X44081Y42680D01*
X44269Y42399D01*
X44550Y42211D01*
X44882Y42145D01*
X45213Y42211D01*
X45495Y42399D01*
X45683Y42680D01*
X45748Y43012D01*
X45683Y43343D01*
X45495Y43625D01*
X45213Y43813D01*
X44882Y43878D01*
D02*
G37*
G36*
X34154Y44174D02*
X33822Y44108D01*
X33541Y43920D01*
X33353Y43639D01*
X33287Y43307D01*
X33353Y42975D01*
X33541Y42694D01*
X33822Y42506D01*
X34154Y42440D01*
X34485Y42506D01*
X34766Y42694D01*
X34784Y42720D01*
X34796Y42720D01*
X35285Y42570D01*
X35321Y42385D01*
X35509Y42104D01*
X35790Y41916D01*
X36122Y41850D01*
X36454Y41916D01*
X36735Y42104D01*
X36923Y42385D01*
X36989Y42717D01*
X36923Y43048D01*
X36735Y43329D01*
X36454Y43517D01*
X36122Y43583D01*
X35790Y43517D01*
X35509Y43329D01*
X35492Y43303D01*
X35479Y43303D01*
X34991Y43454D01*
X34954Y43639D01*
X34766Y43920D01*
X34485Y44108D01*
X34154Y44174D01*
D02*
G37*
G36*
X38484Y43485D02*
X38153Y43419D01*
X37871Y43231D01*
X37684Y42950D01*
X37618Y42618D01*
X37684Y42287D01*
X37871Y42005D01*
X38153Y41817D01*
X38484Y41752D01*
X38816Y41817D01*
X39097Y42005D01*
X39285Y42287D01*
X39351Y42618D01*
X39285Y42950D01*
X39097Y43231D01*
X38816Y43419D01*
X38484Y43485D01*
D02*
G37*
G36*
X41142Y43386D02*
X40810Y43320D01*
X40529Y43132D01*
X40341Y42851D01*
X40275Y42520D01*
X40341Y42188D01*
X40529Y41907D01*
X40810Y41719D01*
X41142Y41653D01*
X41473Y41719D01*
X41754Y41907D01*
X41942Y42188D01*
X42008Y42520D01*
X41942Y42851D01*
X41754Y43132D01*
X41473Y43320D01*
X41142Y43386D01*
D02*
G37*
G36*
X16299Y51040D02*
X15072Y50878D01*
X13929Y50405D01*
X12947Y49651D01*
X12194Y48669D01*
X11720Y47526D01*
X11558Y46299D01*
X11720Y45072D01*
X12194Y43929D01*
X12947Y42947D01*
X13929Y42193D01*
X15072Y41720D01*
X16299Y41558D01*
X17526Y41720D01*
X18669Y42193D01*
X19651Y42947D01*
X20404Y43929D01*
X20878Y45072D01*
X21040Y46299D01*
X20878Y47526D01*
X20404Y48669D01*
X19651Y49651D01*
X18669Y50405D01*
X17526Y50878D01*
X16299Y51040D01*
D02*
G37*
G36*
X100207Y43050D02*
X99856Y42980D01*
X99558Y42781D01*
X99359Y42483D01*
X99289Y42132D01*
X99359Y41781D01*
X99558Y41483D01*
X99856Y41284D01*
X100207Y41214D01*
X100558Y41284D01*
X100856Y41483D01*
X101055Y41781D01*
X101125Y42132D01*
X101055Y42483D01*
X100856Y42781D01*
X100558Y42980D01*
X100207Y43050D01*
D02*
G37*
G36*
X61122Y42844D02*
X60810Y42782D01*
X60545Y42605D01*
X60368Y42340D01*
X60306Y42028D01*
X60368Y41716D01*
X60545Y41451D01*
X60810Y41275D01*
X61122Y41212D01*
X61434Y41275D01*
X61699Y41451D01*
X61875Y41716D01*
X61937Y42028D01*
X61875Y42340D01*
X61699Y42605D01*
X61434Y42782D01*
X61122Y42844D01*
D02*
G37*
G36*
X57972D02*
X57660Y42782D01*
X57395Y42605D01*
X57218Y42340D01*
X57156Y42028D01*
X57218Y41716D01*
X57395Y41451D01*
X57660Y41275D01*
X57972Y41212D01*
X58284Y41275D01*
X58549Y41451D01*
X58725Y41716D01*
X58788Y42028D01*
X58725Y42340D01*
X58549Y42605D01*
X58284Y42782D01*
X57972Y42844D01*
D02*
G37*
G36*
X48917Y41862D02*
X48566Y41793D01*
X48268Y41594D01*
X48070Y41296D01*
X48000Y40945D01*
X48070Y40594D01*
X48179Y40429D01*
X47967Y40130D01*
X47845Y40030D01*
X47539Y40091D01*
X47188Y40021D01*
X46891Y39822D01*
X46692Y39524D01*
X46622Y39173D01*
X46692Y38822D01*
X46891Y38524D01*
X47188Y38326D01*
X47539Y38256D01*
X47890Y38326D01*
X48188Y38524D01*
X48387Y38822D01*
X48457Y39173D01*
X48387Y39524D01*
X48277Y39689D01*
X48489Y39988D01*
X48612Y40088D01*
X48917Y40027D01*
X49185Y40080D01*
X49428Y39850D01*
X49538Y39680D01*
X49476Y39370D01*
X49546Y39019D01*
X49745Y38721D01*
X50042Y38522D01*
X50394Y38452D01*
X50745Y38522D01*
X51043Y38721D01*
X51241Y39019D01*
X51311Y39370D01*
X51241Y39721D01*
X51043Y40019D01*
X50745Y40218D01*
X50394Y40288D01*
X50126Y40235D01*
X49883Y40465D01*
X49773Y40635D01*
X49835Y40945D01*
X49765Y41296D01*
X49566Y41594D01*
X49268Y41793D01*
X48917Y41862D01*
D02*
G37*
G36*
X54502Y41262D02*
X54190Y41200D01*
X53925Y41023D01*
X53748Y40758D01*
X53686Y40446D01*
X53748Y40134D01*
X53925Y39869D01*
X54190Y39693D01*
X54502Y39631D01*
X54814Y39693D01*
X55079Y39869D01*
X55256Y40134D01*
X55318Y40446D01*
X55256Y40758D01*
X55079Y41023D01*
X54814Y41200D01*
X54502Y41262D01*
D02*
G37*
G36*
X79958Y43142D02*
X79607Y43072D01*
X79309Y42873D01*
X79110Y42576D01*
X79040Y42225D01*
X79110Y41873D01*
X79211Y41722D01*
X79260Y41457D01*
X79114Y41105D01*
X79003Y41031D01*
X78804Y40733D01*
X78734Y40382D01*
X78804Y40031D01*
X79003Y39733D01*
X79301Y39534D01*
X79652Y39465D01*
X80003Y39534D01*
X80301Y39733D01*
X80500Y40031D01*
X80570Y40382D01*
X80500Y40733D01*
X80399Y40885D01*
X80350Y41150D01*
X80496Y41502D01*
X80607Y41576D01*
X80806Y41873D01*
X80875Y42225D01*
X80806Y42576D01*
X80607Y42873D01*
X80309Y43072D01*
X79958Y43142D01*
D02*
G37*
G36*
X119685Y41279D02*
X119256Y41193D01*
X118892Y40950D01*
X118649Y40586D01*
X118563Y40157D01*
X118649Y39728D01*
X118892Y39364D01*
X119256Y39121D01*
X119685Y39035D01*
X120114Y39121D01*
X120478Y39364D01*
X120721Y39728D01*
X120807Y40157D01*
X120721Y40586D01*
X120478Y40950D01*
X120114Y41193D01*
X119685Y41279D01*
D02*
G37*
G36*
X89854Y41140D02*
X89386Y41046D01*
X88989Y40781D01*
X88724Y40384D01*
X88630Y39916D01*
X88724Y39448D01*
X88989Y39051D01*
X89386Y38786D01*
X89854Y38693D01*
X90322Y38786D01*
X90719Y39051D01*
X90984Y39448D01*
X91078Y39916D01*
X90984Y40384D01*
X90719Y40781D01*
X90322Y41046D01*
X89854Y41140D01*
D02*
G37*
G36*
X101181Y36453D02*
X100791Y36375D01*
X100460Y36154D01*
X100239Y35823D01*
X100217Y35714D01*
X100204Y35647D01*
X99694D01*
X99667Y35784D01*
X99468Y36082D01*
X99170Y36281D01*
X98819Y36351D01*
X98468Y36281D01*
X98170Y36082D01*
X97971Y35784D01*
X97901Y35433D01*
X97971Y35082D01*
X98170Y34784D01*
X98468Y34585D01*
X98819Y34515D01*
X99170Y34585D01*
X99468Y34784D01*
X99667Y35082D01*
X99681Y35152D01*
X99694Y35219D01*
X100204D01*
X100217Y35152D01*
X100239Y35043D01*
X100460Y34712D01*
X100791Y34491D01*
X101181Y34413D01*
X101571Y34491D01*
X101591Y34504D01*
X101824Y34362D01*
X101996Y34174D01*
X101933Y33858D01*
X102011Y33468D01*
X102232Y33137D01*
X102563Y32916D01*
X102953Y32838D01*
X103343Y32916D01*
X103674Y33137D01*
X103895Y33468D01*
X103973Y33858D01*
X103895Y34248D01*
X103674Y34579D01*
X103343Y34800D01*
X102953Y34878D01*
X102563Y34800D01*
X102543Y34787D01*
X102310Y34929D01*
X102138Y35117D01*
X102201Y35433D01*
X102123Y35823D01*
X101902Y36154D01*
X101571Y36375D01*
X101181Y36453D01*
D02*
G37*
G36*
X109055Y36351D02*
X108704Y36281D01*
X108406Y36082D01*
X108207Y35784D01*
X108137Y35433D01*
X108207Y35082D01*
X108406Y34784D01*
X108704Y34585D01*
X109055Y34515D01*
X109406Y34585D01*
X109704Y34784D01*
X109903Y35082D01*
X109973Y35433D01*
X109903Y35784D01*
X109704Y36082D01*
X109406Y36281D01*
X109055Y36351D01*
D02*
G37*
G36*
X113780Y36759D02*
X113273Y36658D01*
X112843Y36370D01*
X112555Y35940D01*
X112454Y35433D01*
X112555Y34926D01*
X112843Y34496D01*
X113273Y34208D01*
X113780Y34108D01*
X114287Y34208D01*
X114717Y34496D01*
X115005Y34926D01*
X115105Y35433D01*
X115005Y35940D01*
X114717Y36370D01*
X114287Y36658D01*
X113780Y36759D01*
D02*
G37*
G36*
X94094D02*
X93587Y36658D01*
X93157Y36370D01*
X92869Y35940D01*
X92769Y35433D01*
X92869Y34926D01*
X93157Y34496D01*
X93587Y34208D01*
X94094Y34108D01*
X94601Y34208D01*
X95031Y34496D01*
X95319Y34926D01*
X95420Y35433D01*
X95319Y35940D01*
X95031Y36370D01*
X94601Y36658D01*
X94094Y36759D01*
D02*
G37*
G36*
X104921Y36453D02*
X104531Y36375D01*
X104200Y36154D01*
X103979Y35823D01*
X103901Y35433D01*
X103979Y35043D01*
X104200Y34712D01*
X104531Y34491D01*
X104921Y34413D01*
X105311Y34491D01*
X105331Y34504D01*
X105564Y34362D01*
X105736Y34174D01*
X105673Y33858D01*
X105751Y33468D01*
X105972Y33137D01*
X106303Y32916D01*
X106693Y32838D01*
X107083Y32916D01*
X107414Y33137D01*
X107635Y33468D01*
X107713Y33858D01*
X107635Y34248D01*
X107414Y34579D01*
X107083Y34800D01*
X106693Y34878D01*
X106303Y34800D01*
X106283Y34787D01*
X106050Y34929D01*
X105878Y35117D01*
X105941Y35433D01*
X105863Y35823D01*
X105642Y36154D01*
X105311Y36375D01*
X104921Y36453D01*
D02*
G37*
G36*
X75412Y33997D02*
X74983Y33912D01*
X74619Y33669D01*
X74375Y33305D01*
X74290Y32876D01*
X74375Y32447D01*
X74619Y32083D01*
X74983Y31840D01*
X75412Y31754D01*
X75841Y31840D01*
X76205Y32083D01*
X76448Y32447D01*
X76533Y32876D01*
X76448Y33305D01*
X76205Y33669D01*
X75841Y33912D01*
X75412Y33997D01*
D02*
G37*
G36*
X78642Y33996D02*
X78212Y33910D01*
X77849Y33667D01*
X77606Y33303D01*
X77520Y32874D01*
X77606Y32445D01*
X77849Y32081D01*
X78212Y31838D01*
X78642Y31752D01*
X79071Y31838D01*
X79435Y32081D01*
X79678Y32445D01*
X79763Y32874D01*
X79678Y33303D01*
X79435Y33667D01*
X79071Y33910D01*
X78642Y33996D01*
D02*
G37*
G36*
X16299Y41040D02*
X15072Y40878D01*
X13929Y40404D01*
X12947Y39651D01*
X12194Y38669D01*
X11720Y37526D01*
X11558Y36299D01*
X11720Y35072D01*
X12194Y33929D01*
X12947Y32947D01*
X13929Y32193D01*
X15072Y31720D01*
X16299Y31558D01*
X17526Y31720D01*
X18669Y32193D01*
X19651Y32947D01*
X20404Y33929D01*
X20878Y35072D01*
X21040Y36299D01*
X20878Y37526D01*
X20404Y38669D01*
X19651Y39651D01*
X18669Y40404D01*
X17526Y40878D01*
X16299Y41040D01*
D02*
G37*
G36*
X81988Y32435D02*
X81403Y32318D01*
X80907Y31987D01*
X80575Y31491D01*
X80459Y30906D01*
X80575Y30320D01*
X80907Y29824D01*
X81403Y29493D01*
X81988Y29376D01*
X82573Y29493D01*
X83070Y29824D01*
X83401Y30320D01*
X83518Y30906D01*
X83401Y31491D01*
X83070Y31987D01*
X82573Y32318D01*
X81988Y32435D01*
D02*
G37*
G36*
X120945Y32641D02*
X120144Y32535D01*
X119398Y32226D01*
X118757Y31735D01*
X118266Y31094D01*
X117957Y30348D01*
X117851Y29547D01*
Y26719D01*
X117351Y26567D01*
X116958Y27155D01*
X116204Y27659D01*
X115315Y27836D01*
X114426Y27659D01*
X113672Y27155D01*
X113168Y26401D01*
X112991Y25512D01*
X113168Y24622D01*
X113672Y23868D01*
X114426Y23365D01*
X115315Y23188D01*
X116204Y23365D01*
X116958Y23868D01*
X117453Y24609D01*
X117528Y24621D01*
X117912Y24614D01*
X117966Y24591D01*
X118266Y23867D01*
X118757Y23226D01*
X119398Y22734D01*
X120144Y22425D01*
X120945Y22320D01*
X121746Y22425D01*
X122492Y22734D01*
X123132Y23226D01*
X123624Y23867D01*
X123933Y24613D01*
X124038Y25413D01*
Y29547D01*
X123933Y30348D01*
X123624Y31094D01*
X123132Y31735D01*
X122492Y32226D01*
X121746Y32535D01*
X120945Y32641D01*
D02*
G37*
G36*
X43307Y29030D02*
X42315Y28899D01*
X41391Y28516D01*
X40597Y27907D01*
X39988Y27113D01*
X39631Y26253D01*
X39377Y26189D01*
X39364D01*
X39109Y26253D01*
X38752Y27113D01*
X38143Y27907D01*
X37349Y28516D01*
X36425Y28899D01*
X35433Y29030D01*
X34441Y28899D01*
X33517Y28516D01*
X32723Y27907D01*
X32114Y27113D01*
X31731Y26189D01*
X31600Y25197D01*
X31731Y24205D01*
X32114Y23281D01*
X32723Y22487D01*
X33517Y21878D01*
X34441Y21495D01*
X35433Y21364D01*
X36425Y21495D01*
X37349Y21878D01*
X38143Y22487D01*
X38752Y23281D01*
X39109Y24141D01*
X39364Y24205D01*
X39377D01*
X39631Y24141D01*
X39988Y23281D01*
X40597Y22487D01*
X41391Y21878D01*
X42315Y21495D01*
X43307Y21364D01*
X44299Y21495D01*
X45223Y21878D01*
X46017Y22487D01*
X46626Y23281D01*
X47009Y24205D01*
X47140Y25197D01*
X47009Y26189D01*
X46626Y27113D01*
X46017Y27907D01*
X45223Y28516D01*
X44299Y28899D01*
X43307Y29030D01*
D02*
G37*
G36*
X86929Y32641D02*
X86128Y32535D01*
X85382Y32226D01*
X84742Y31735D01*
X84250Y31094D01*
X83941Y30348D01*
X83836Y29547D01*
Y25413D01*
X83941Y24613D01*
X84250Y23867D01*
X84742Y23226D01*
X85382Y22734D01*
X86128Y22425D01*
X86929Y22320D01*
X87730Y22425D01*
X88476Y22734D01*
X89117Y23226D01*
X89608Y23867D01*
X89908Y24591D01*
X89962Y24614D01*
X90346Y24621D01*
X90421Y24609D01*
X90916Y23868D01*
X91670Y23365D01*
X92559Y23188D01*
X93449Y23365D01*
X94203Y23868D01*
X94706Y24622D01*
X94883Y25512D01*
X94706Y26401D01*
X94203Y27155D01*
X93449Y27659D01*
X92559Y27836D01*
X91670Y27659D01*
X90916Y27155D01*
X90522Y26567D01*
X90022Y26719D01*
Y29547D01*
X89917Y30348D01*
X89608Y31094D01*
X89117Y31735D01*
X88476Y32226D01*
X87730Y32535D01*
X86929Y32641D01*
D02*
G37*
G36*
X16299Y31040D02*
X15072Y30878D01*
X13929Y30404D01*
X12947Y29651D01*
X12194Y28669D01*
X11720Y27526D01*
X11558Y26299D01*
X11720Y25072D01*
X12194Y23929D01*
X12947Y22947D01*
X13929Y22194D01*
X15072Y21720D01*
X16299Y21558D01*
X17526Y21720D01*
X18669Y22194D01*
X19651Y22947D01*
X20404Y23929D01*
X20878Y25072D01*
X21040Y26299D01*
X20878Y27526D01*
X20404Y28669D01*
X19651Y29651D01*
X18669Y30404D01*
X17526Y30878D01*
X16299Y31040D01*
D02*
G37*
G36*
X63765Y25918D02*
X63297Y25824D01*
X62900Y25559D01*
X62635Y25162D01*
X62542Y24694D01*
X62635Y24226D01*
X62900Y23829D01*
X62828Y23276D01*
X62649Y23008D01*
X62556Y22539D01*
X62649Y22071D01*
X62914Y21674D01*
X63311Y21409D01*
X63779Y21316D01*
X64248Y21409D01*
X64645Y21674D01*
X64910Y22071D01*
X65003Y22539D01*
X64910Y23008D01*
X64645Y23404D01*
X64717Y23958D01*
X64896Y24226D01*
X64989Y24694D01*
X64896Y25162D01*
X64630Y25559D01*
X64233Y25824D01*
X63765Y25918D01*
D02*
G37*
G36*
X47354Y20127D02*
X46769Y20010D01*
X46273Y19679D01*
X45941Y19183D01*
X45825Y18597D01*
X45941Y18012D01*
X46273Y17516D01*
X46769Y17184D01*
X47354Y17068D01*
X47939Y17184D01*
X48436Y17516D01*
X48767Y18012D01*
X48884Y18597D01*
X48767Y19183D01*
X48436Y19679D01*
X47939Y20010D01*
X47354Y20127D01*
D02*
G37*
G36*
X48343Y15584D02*
X47992Y15514D01*
X47694Y15315D01*
X47495Y15018D01*
X47426Y14666D01*
X47495Y14315D01*
X47694Y14017D01*
X47992Y13819D01*
X48343Y13749D01*
X48694Y13819D01*
X48992Y14017D01*
X49191Y14315D01*
X49261Y14666D01*
X49191Y15018D01*
X48992Y15315D01*
X48694Y15514D01*
X48343Y15584D01*
D02*
G37*
G36*
X60033Y16119D02*
X59565Y16026D01*
X59168Y15761D01*
X58902Y15364D01*
X58809Y14896D01*
X58902Y14427D01*
X59168Y14030D01*
X59565Y13765D01*
X60033Y13672D01*
X60501Y13765D01*
X60898Y14030D01*
X61163Y14427D01*
X61256Y14896D01*
X61163Y15364D01*
X60898Y15761D01*
X60501Y16026D01*
X60033Y16119D01*
D02*
G37*
G36*
X78839Y14201D02*
X78526Y14139D01*
X78262Y13963D01*
X78085Y13698D01*
X78023Y13386D01*
X78085Y13074D01*
X78262Y12809D01*
X78526Y12632D01*
X78839Y12570D01*
X79151Y12632D01*
X79415Y12809D01*
X79592Y13074D01*
X79654Y13386D01*
X79592Y13698D01*
X79415Y13963D01*
X79151Y14139D01*
X78839Y14201D01*
D02*
G37*
G36*
X63189Y14402D02*
X62838Y14332D01*
X62540Y14133D01*
X62341Y13835D01*
X62271Y13484D01*
X62341Y13133D01*
X62540Y12835D01*
X62838Y12637D01*
X63189Y12567D01*
X63540Y12637D01*
X63838Y12835D01*
X64037Y13133D01*
X64107Y13484D01*
X64037Y13835D01*
X63838Y14133D01*
X63540Y14332D01*
X63189Y14402D01*
D02*
G37*
G36*
X16299Y21040D02*
X15072Y20878D01*
X13929Y20404D01*
X12947Y19651D01*
X12194Y18669D01*
X11720Y17526D01*
X11558Y16299D01*
X11720Y15072D01*
X12194Y13929D01*
X12947Y12947D01*
X13929Y12194D01*
X15072Y11720D01*
X16299Y11558D01*
X17526Y11720D01*
X18669Y12194D01*
X19651Y12947D01*
X20404Y13929D01*
X20878Y15072D01*
X21040Y16299D01*
X20878Y17526D01*
X20404Y18669D01*
X19651Y19651D01*
X18669Y20404D01*
X17526Y20878D01*
X16299Y21040D01*
D02*
G37*
G36*
X81226Y11177D02*
X80758Y11084D01*
X80361Y10819D01*
X80096Y10422D01*
X80003Y9954D01*
X80096Y9485D01*
X80361Y9088D01*
X80758Y8823D01*
X81226Y8730D01*
X81694Y8823D01*
X82091Y9088D01*
X82357Y9485D01*
X82450Y9954D01*
X82357Y10422D01*
X82091Y10819D01*
X81694Y11084D01*
X81226Y11177D01*
D02*
G37*
G36*
X52348Y10468D02*
X51996Y10398D01*
X51699Y10199D01*
X51500Y9901D01*
X51430Y9550D01*
X51500Y9199D01*
X51699Y8901D01*
X51996Y8702D01*
X52348Y8633D01*
X52699Y8702D01*
X52997Y8901D01*
X53196Y9199D01*
X53265Y9550D01*
X53196Y9901D01*
X52997Y10199D01*
X52699Y10398D01*
X52348Y10468D01*
D02*
G37*
G36*
X56061Y11527D02*
X55475Y11411D01*
X54979Y11079D01*
X54648Y10583D01*
X54531Y9998D01*
X54648Y9413D01*
X54979Y8916D01*
X55475Y8585D01*
X56061Y8468D01*
X56646Y8585D01*
X57142Y8916D01*
X57474Y9413D01*
X57590Y9998D01*
X57474Y10583D01*
X57142Y11079D01*
X56646Y11411D01*
X56061Y11527D01*
D02*
G37*
G36*
X6799Y10974D02*
Y6799D01*
X10974D01*
X10878Y7526D01*
X10404Y8669D01*
X9651Y9651D01*
X8669Y10404D01*
X7526Y10878D01*
X6799Y10974D01*
D02*
G37*
G36*
X120945Y15986D02*
X120170Y15884D01*
X119448Y15585D01*
X118828Y15109D01*
X118352Y14489D01*
X118053Y13767D01*
X117951Y12992D01*
Y9055D01*
X118053Y8280D01*
X118352Y7558D01*
X118828Y6938D01*
X119448Y6462D01*
X120170Y6163D01*
X120945Y6061D01*
X121720Y6163D01*
X122442Y6462D01*
X123062Y6938D01*
X123538Y7558D01*
X123837Y8280D01*
X123939Y9055D01*
Y12992D01*
X123837Y13767D01*
X123538Y14489D01*
X123062Y15109D01*
X122442Y15585D01*
X121720Y15884D01*
X120945Y15986D01*
D02*
G37*
G36*
X86929D02*
X86154Y15884D01*
X85432Y15585D01*
X84812Y15109D01*
X84336Y14489D01*
X84037Y13767D01*
X83935Y12992D01*
Y9055D01*
X84037Y8280D01*
X84336Y7558D01*
X84812Y6938D01*
X85432Y6462D01*
X86154Y6163D01*
X86929Y6061D01*
X87704Y6163D01*
X88426Y6462D01*
X89046Y6938D01*
X89522Y7558D01*
X89821Y8280D01*
X89923Y9055D01*
Y12992D01*
X89821Y13767D01*
X89522Y14489D01*
X89046Y15109D01*
X88426Y15585D01*
X87704Y15884D01*
X86929Y15986D01*
D02*
G37*
G36*
X77427Y7442D02*
X76842Y7326D01*
X76346Y6994D01*
X76014Y6498D01*
X75898Y5913D01*
X76014Y5328D01*
X76346Y4831D01*
X76842Y4500D01*
X77427Y4383D01*
X78012Y4500D01*
X78509Y4831D01*
X78840Y5328D01*
X78957Y5913D01*
X78840Y6498D01*
X78509Y6994D01*
X78012Y7326D01*
X77427Y7442D01*
D02*
G37*
G36*
X48032Y6331D02*
X47681Y6262D01*
X47383Y6063D01*
X47184Y5765D01*
X47114Y5414D01*
X47184Y5063D01*
X47383Y4765D01*
X47681Y4566D01*
X48032Y4496D01*
X48383Y4566D01*
X48573Y4693D01*
X48779Y4736D01*
X49182Y4614D01*
X49261Y4496D01*
X49558Y4297D01*
X49909Y4228D01*
X50261Y4297D01*
X50558Y4496D01*
X50757Y4794D01*
X50827Y5145D01*
X50757Y5496D01*
X50558Y5794D01*
X50261Y5993D01*
X49909Y6063D01*
X49558Y5993D01*
X49368Y5866D01*
X49163Y5824D01*
X48760Y5945D01*
X48681Y6063D01*
X48383Y6262D01*
X48032Y6331D01*
D02*
G37*
G36*
X37008Y6943D02*
X36423Y6827D01*
X35927Y6495D01*
X35595Y5999D01*
X35479Y5414D01*
X35595Y4829D01*
X35927Y4332D01*
X36423Y4001D01*
X37008Y3884D01*
X37593Y4001D01*
X38089Y4332D01*
X38421Y4829D01*
X38537Y5414D01*
X38421Y5999D01*
X38089Y6495D01*
X37593Y6827D01*
X37008Y6943D01*
D02*
G37*
G36*
X63189Y6746D02*
X62604Y6629D01*
X62107Y6298D01*
X61776Y5802D01*
X61660Y5217D01*
X61776Y4631D01*
X62107Y4135D01*
X62604Y3804D01*
X63189Y3687D01*
X63774Y3804D01*
X64270Y4135D01*
X64602Y4631D01*
X64718Y5217D01*
X64602Y5802D01*
X64270Y6298D01*
X63774Y6629D01*
X63189Y6746D01*
D02*
G37*
G36*
X28937Y5456D02*
X28469Y5363D01*
X28072Y5097D01*
X27807Y4701D01*
X27714Y4232D01*
X27807Y3764D01*
X28072Y3367D01*
X28469Y3102D01*
X28937Y3009D01*
X29405Y3102D01*
X29802Y3367D01*
X30067Y3764D01*
X30160Y4232D01*
X30067Y4701D01*
X29802Y5097D01*
X29405Y5363D01*
X28937Y5456D01*
D02*
G37*
%LPD*%
D115*
X6299Y6299D02*
D03*
D117*
X94980Y69193D02*
D03*
X90551Y150197D02*
D03*
X67586Y142031D02*
D03*
X25787Y62402D02*
D03*
X87057Y136063D02*
D03*
D118*
X116732Y152067D02*
D03*
X46903Y51001D02*
D03*
D119*
X73051Y53586D02*
D03*
X86730Y170834D02*
D03*
X69072Y172313D02*
D03*
X78839Y171653D02*
D03*
X81102Y38583D02*
D03*
X81496Y67717D02*
D03*
X73228Y59843D02*
D03*
Y66142D02*
D03*
X59055Y171654D02*
D03*
X53150D02*
D03*
D120*
X81536Y24880D02*
D03*
X78972Y24855D02*
D03*
X76476Y24902D02*
D03*
D121*
X28934Y43564D02*
D03*
D122*
X133750Y107168D02*
D03*
X95384Y80373D02*
D03*
X11575Y124040D02*
D03*
X50394Y171654D02*
D03*
D123*
X80398Y121767D02*
D03*
X64094Y62201D02*
D03*
X64075Y57776D02*
D03*
X73032Y93307D02*
D03*
X57677Y113779D02*
D03*
X60236Y113780D02*
D03*
Y103542D02*
D03*
X70473Y98425D02*
D03*
Y100984D02*
D03*
X75590Y93307D02*
D03*
X70472Y103543D02*
D03*
X57677D02*
D03*
X70472Y116338D02*
D03*
D124*
X15244Y114125D02*
D03*
X22047Y104724D02*
D03*
X118898Y124016D02*
D03*
Y98819D02*
D03*
X39370Y138583D02*
D03*
M02*
