G04*
G04 #@! TF.GenerationSoftware,Altium Limited,Altium Designer,21.7.2 (23)*
G04*
G04 Layer_Color=32896*
%FSLAX25Y25*%
%MOIN*%
G70*
G04*
G04 #@! TF.SameCoordinates,6C021EAB-9281-4005-87E3-4CD7810296B7*
G04*
G04*
G04 #@! TF.FilePolarity,Positive*
G04*
G01*
G75*
%ADD10C,0.00500*%
%ADD12C,0.00787*%
%ADD13C,0.00591*%
%ADD16C,0.00394*%
%ADD17C,0.00800*%
%ADD19C,0.00544*%
%ADD20C,0.00510*%
%ADD177R,0.35827X0.41535*%
G36*
X66207Y129652D02*
X66907D01*
Y129552D01*
X67307D01*
Y129452D01*
X67607D01*
Y129352D01*
X67907D01*
Y129252D01*
X68107D01*
Y129152D01*
X68307D01*
Y129052D01*
X68507D01*
Y128952D01*
X68607D01*
Y128852D01*
X68807D01*
Y128752D01*
X68907D01*
Y128652D01*
X69007D01*
Y128552D01*
X68807D01*
Y128452D01*
X68607D01*
Y128352D01*
X68507D01*
Y128252D01*
X68307D01*
Y128152D01*
X68107D01*
Y128052D01*
X67907D01*
Y127952D01*
X67807D01*
Y127852D01*
X67607D01*
Y127752D01*
X67407D01*
Y127652D01*
X67307D01*
Y127552D01*
X67107D01*
Y127452D01*
X66907D01*
Y127352D01*
X66707D01*
Y127252D01*
X66607D01*
Y127152D01*
X66407D01*
Y127052D01*
X66207D01*
Y126952D01*
X66007D01*
Y126852D01*
X65907D01*
Y126752D01*
X65707D01*
Y126652D01*
X65507D01*
Y126552D01*
X65407D01*
Y126452D01*
X65207D01*
Y126352D01*
X65007D01*
Y126252D01*
X64807D01*
Y126152D01*
X64707D01*
Y126052D01*
X64607D01*
Y126152D01*
Y126252D01*
Y126352D01*
Y126452D01*
Y126552D01*
Y126652D01*
Y126752D01*
Y126852D01*
Y126952D01*
Y127052D01*
Y127152D01*
Y127252D01*
Y127352D01*
Y127452D01*
Y127552D01*
Y127652D01*
Y127752D01*
Y127852D01*
Y127952D01*
Y128052D01*
Y128152D01*
Y128252D01*
Y128352D01*
Y128452D01*
Y128552D01*
Y128652D01*
Y128752D01*
Y128852D01*
Y128952D01*
Y129052D01*
Y129152D01*
Y129252D01*
Y129352D01*
Y129452D01*
Y129552D01*
X64707D01*
Y129652D01*
X65407D01*
Y129752D01*
X66207D01*
Y129652D01*
D02*
G37*
G36*
X63907Y129252D02*
Y129152D01*
Y129052D01*
Y128952D01*
Y128852D01*
Y128752D01*
Y128652D01*
Y128552D01*
Y128452D01*
Y128352D01*
Y128252D01*
Y128152D01*
Y128052D01*
Y127952D01*
Y127852D01*
Y127752D01*
Y127652D01*
Y127552D01*
Y127452D01*
Y127352D01*
Y127252D01*
Y127152D01*
Y127052D01*
Y126952D01*
Y126852D01*
Y126752D01*
Y126652D01*
Y126552D01*
Y126452D01*
Y126352D01*
Y126252D01*
Y126152D01*
Y126052D01*
Y125952D01*
Y125852D01*
Y125752D01*
Y125652D01*
Y125552D01*
Y125452D01*
Y125352D01*
Y125252D01*
Y125152D01*
Y125052D01*
Y124952D01*
Y124852D01*
Y124752D01*
Y124652D01*
Y124552D01*
Y124452D01*
Y124352D01*
Y124252D01*
Y124152D01*
X63807D01*
Y124252D01*
X63707D01*
Y124352D01*
X63507D01*
Y124452D01*
X63307D01*
Y124552D01*
X63207D01*
Y124652D01*
X63007D01*
Y124752D01*
X62807D01*
Y124852D01*
X62607D01*
Y124952D01*
X62507D01*
Y125052D01*
X62307D01*
Y125152D01*
X62107D01*
Y125252D01*
X61907D01*
Y125352D01*
X61807D01*
Y125452D01*
X61607D01*
Y125552D01*
X61407D01*
Y125652D01*
X61307D01*
Y125752D01*
X61107D01*
Y125852D01*
X60907D01*
Y125952D01*
Y126052D01*
Y126152D01*
Y126252D01*
X61007D01*
Y126352D01*
Y126452D01*
Y126552D01*
X61107D01*
Y126652D01*
Y126752D01*
X61207D01*
Y126852D01*
Y126952D01*
X61307D01*
Y127052D01*
Y127152D01*
X61407D01*
Y127252D01*
Y127352D01*
X61507D01*
Y127452D01*
X61607D01*
Y127552D01*
Y127652D01*
X61707D01*
Y127752D01*
X61807D01*
Y127852D01*
X61907D01*
Y127952D01*
X62007D01*
Y128052D01*
X62107D01*
Y128152D01*
X62207D01*
Y128252D01*
X62307D01*
Y128352D01*
X62407D01*
Y128452D01*
X62507D01*
Y128552D01*
X62607D01*
Y128652D01*
X62707D01*
Y128752D01*
X62907D01*
Y128852D01*
X63007D01*
Y128952D01*
X63207D01*
Y129052D01*
X63407D01*
Y129152D01*
X63607D01*
Y129252D01*
X63807D01*
Y129352D01*
X63907D01*
Y129252D01*
D02*
G37*
G36*
X69607Y128052D02*
X69707D01*
Y127952D01*
X69807D01*
Y127852D01*
X69907D01*
Y127752D01*
Y127652D01*
X70007D01*
Y127552D01*
X70107D01*
Y127452D01*
X70207D01*
Y127352D01*
Y127252D01*
X70307D01*
Y127152D01*
Y127052D01*
X70407D01*
Y126952D01*
Y126852D01*
X70507D01*
Y126752D01*
Y126652D01*
X70607D01*
Y126552D01*
Y126452D01*
X70707D01*
Y126352D01*
Y126252D01*
Y126152D01*
X70807D01*
Y126052D01*
Y125952D01*
Y125852D01*
X70907D01*
Y125752D01*
Y125652D01*
Y125552D01*
Y125452D01*
X71007D01*
Y125352D01*
Y125252D01*
Y125152D01*
Y125052D01*
Y124952D01*
Y124852D01*
Y124752D01*
Y124652D01*
Y124552D01*
Y124452D01*
Y124352D01*
Y124252D01*
Y124152D01*
Y124052D01*
Y123952D01*
Y123852D01*
X70807D01*
Y123952D01*
X70607D01*
Y124052D01*
X70407D01*
Y124152D01*
X70307D01*
Y124252D01*
X70107D01*
Y124352D01*
X69907D01*
Y124452D01*
X69807D01*
Y124552D01*
X69607D01*
Y124652D01*
X69407D01*
Y124752D01*
X69207D01*
Y124852D01*
X69107D01*
Y124952D01*
X68907D01*
Y125052D01*
X68707D01*
Y125152D01*
X68507D01*
Y125252D01*
X68407D01*
Y125352D01*
X68207D01*
Y125452D01*
X68007D01*
Y125552D01*
X67907D01*
Y125652D01*
X67707D01*
Y125752D01*
X67507D01*
Y125852D01*
X67307D01*
Y125952D01*
X67207D01*
Y126052D01*
X67007D01*
Y126152D01*
X66807D01*
Y126252D01*
X66607D01*
Y126352D01*
Y126452D01*
X66807D01*
Y126552D01*
X66907D01*
Y126652D01*
X67107D01*
Y126752D01*
X67307D01*
Y126852D01*
X67407D01*
Y126952D01*
X67607D01*
Y127052D01*
X67807D01*
Y127152D01*
X68007D01*
Y127252D01*
X68107D01*
Y127352D01*
X68307D01*
Y127452D01*
X68507D01*
Y127552D01*
X68607D01*
Y127652D01*
X68807D01*
Y127752D01*
X69007D01*
Y127852D01*
X69207D01*
Y127952D01*
X69307D01*
Y128052D01*
X69507D01*
Y128152D01*
X69607D01*
Y128052D01*
D02*
G37*
G36*
X44507Y126052D02*
Y125952D01*
Y125852D01*
Y125752D01*
Y125652D01*
X44607D01*
Y125552D01*
Y125452D01*
Y125352D01*
Y125252D01*
Y125152D01*
Y125052D01*
Y124952D01*
Y124852D01*
Y124752D01*
Y124652D01*
Y124552D01*
Y124452D01*
Y124352D01*
Y124252D01*
Y124152D01*
X44707D01*
Y124052D01*
Y123952D01*
Y123852D01*
Y123752D01*
Y123652D01*
Y123552D01*
Y123452D01*
Y123352D01*
Y123252D01*
Y123152D01*
Y123052D01*
X44807D01*
Y122952D01*
Y122852D01*
Y122752D01*
Y122652D01*
Y122552D01*
Y122452D01*
Y122352D01*
Y122252D01*
Y122152D01*
Y122052D01*
Y121952D01*
X44907D01*
Y121852D01*
Y121752D01*
Y121652D01*
Y121552D01*
Y121452D01*
Y121352D01*
Y121252D01*
Y121152D01*
Y121052D01*
X43607D01*
Y121152D01*
Y121252D01*
Y121352D01*
Y121452D01*
Y121552D01*
Y121652D01*
Y121752D01*
Y121852D01*
Y121952D01*
Y122052D01*
Y122152D01*
Y122252D01*
Y122352D01*
Y122452D01*
Y122552D01*
Y122652D01*
Y122752D01*
X43507D01*
Y122852D01*
Y122952D01*
Y123052D01*
Y123152D01*
Y123252D01*
Y123352D01*
Y123452D01*
Y123552D01*
Y123652D01*
Y123752D01*
Y123852D01*
Y123952D01*
Y124052D01*
Y124152D01*
X43407D01*
Y124252D01*
Y124352D01*
Y124452D01*
Y124552D01*
X43307D01*
Y124452D01*
Y124352D01*
Y124252D01*
Y124152D01*
Y124052D01*
X43207D01*
Y123952D01*
Y123852D01*
Y123752D01*
Y123652D01*
X43107D01*
Y123552D01*
Y123452D01*
Y123352D01*
Y123252D01*
X43007D01*
Y123152D01*
Y123052D01*
Y122952D01*
Y122852D01*
X42907D01*
Y122752D01*
Y122652D01*
Y122552D01*
Y122452D01*
Y122352D01*
X42807D01*
Y122252D01*
Y122152D01*
Y122052D01*
Y121952D01*
X42707D01*
Y121852D01*
Y121752D01*
Y121652D01*
Y121552D01*
X42607D01*
Y121452D01*
Y121352D01*
Y121252D01*
Y121152D01*
Y121052D01*
X41207D01*
Y121152D01*
X41107D01*
Y121252D01*
Y121352D01*
Y121452D01*
X41007D01*
Y121552D01*
Y121652D01*
Y121752D01*
X40907D01*
Y121852D01*
Y121952D01*
Y122052D01*
X40807D01*
Y122152D01*
Y122252D01*
Y122352D01*
X40707D01*
Y122452D01*
Y122552D01*
Y122652D01*
X40607D01*
Y122752D01*
Y122852D01*
Y122952D01*
X40507D01*
Y123052D01*
Y123152D01*
Y123252D01*
X40407D01*
Y123352D01*
Y123452D01*
Y123552D01*
X40307D01*
Y123652D01*
Y123752D01*
Y123852D01*
X40207D01*
Y123952D01*
Y124052D01*
Y124152D01*
X40107D01*
Y124252D01*
Y124352D01*
Y124452D01*
X39907D01*
Y124352D01*
Y124252D01*
Y124152D01*
X40007D01*
Y124052D01*
Y123952D01*
Y123852D01*
Y123752D01*
Y123652D01*
Y123552D01*
Y123452D01*
Y123352D01*
Y123252D01*
Y123152D01*
Y123052D01*
Y122952D01*
Y122852D01*
Y122752D01*
Y122652D01*
Y122552D01*
Y122452D01*
Y122352D01*
Y122252D01*
Y122152D01*
Y122052D01*
Y121952D01*
Y121852D01*
Y121752D01*
Y121652D01*
Y121552D01*
Y121452D01*
Y121352D01*
Y121252D01*
X40107D01*
Y121152D01*
Y121052D01*
X38707D01*
Y121152D01*
Y121252D01*
Y121352D01*
Y121452D01*
Y121552D01*
Y121652D01*
Y121752D01*
Y121852D01*
Y121952D01*
Y122052D01*
Y122152D01*
Y122252D01*
Y122352D01*
Y122452D01*
Y122552D01*
Y122652D01*
Y122752D01*
Y122852D01*
Y122952D01*
Y123052D01*
Y123152D01*
Y123252D01*
Y123352D01*
X38607D01*
Y123452D01*
Y123552D01*
Y123652D01*
Y123752D01*
Y123852D01*
Y123952D01*
Y124052D01*
Y124152D01*
Y124252D01*
Y124352D01*
Y124452D01*
Y124552D01*
Y124652D01*
Y124752D01*
Y124852D01*
Y124952D01*
Y125052D01*
Y125152D01*
Y125252D01*
Y125352D01*
Y125452D01*
Y125552D01*
Y125652D01*
Y125752D01*
Y125852D01*
Y125952D01*
Y126052D01*
X38507D01*
Y126152D01*
X40707D01*
Y126052D01*
Y125952D01*
Y125852D01*
X40807D01*
Y125752D01*
Y125652D01*
Y125552D01*
X40907D01*
Y125452D01*
Y125352D01*
Y125252D01*
X41007D01*
Y125152D01*
Y125052D01*
X41107D01*
Y124952D01*
Y124852D01*
Y124752D01*
X41207D01*
Y124652D01*
Y124552D01*
Y124452D01*
X41307D01*
Y124352D01*
Y124252D01*
Y124152D01*
X41407D01*
Y124052D01*
Y123952D01*
Y123852D01*
X41507D01*
Y123752D01*
Y123652D01*
Y123552D01*
X41607D01*
Y123452D01*
Y123352D01*
Y123252D01*
Y123152D01*
X41807D01*
Y123252D01*
Y123352D01*
Y123452D01*
Y123552D01*
Y123652D01*
X41907D01*
Y123752D01*
Y123852D01*
Y123952D01*
Y124052D01*
Y124152D01*
X42007D01*
Y124252D01*
Y124352D01*
Y124452D01*
Y124552D01*
X42107D01*
Y124652D01*
Y124752D01*
Y124852D01*
Y124952D01*
X42207D01*
Y125052D01*
Y125152D01*
Y125252D01*
Y125352D01*
X42307D01*
Y125452D01*
Y125552D01*
Y125652D01*
Y125752D01*
X42407D01*
Y125852D01*
Y125952D01*
Y126052D01*
Y126152D01*
X44507D01*
Y126052D01*
D02*
G37*
G36*
X38107D02*
Y125952D01*
Y125852D01*
X38007D01*
Y125752D01*
Y125652D01*
Y125552D01*
X37907D01*
Y125452D01*
Y125352D01*
Y125252D01*
X37807D01*
Y125152D01*
Y125052D01*
X37707D01*
Y124952D01*
Y124852D01*
Y124752D01*
X37607D01*
Y124652D01*
Y124552D01*
Y124452D01*
X37507D01*
Y124352D01*
Y124252D01*
Y124152D01*
X37407D01*
Y124052D01*
Y123952D01*
Y123852D01*
X37307D01*
Y123752D01*
Y123652D01*
Y123552D01*
X37207D01*
Y123452D01*
Y123352D01*
Y123252D01*
X37107D01*
Y123152D01*
Y123052D01*
X37007D01*
Y122952D01*
Y122852D01*
Y122752D01*
X36907D01*
Y122652D01*
Y122552D01*
Y122452D01*
X36807D01*
Y122352D01*
Y122252D01*
Y122152D01*
X36707D01*
Y122052D01*
Y121952D01*
Y121852D01*
X36607D01*
Y121752D01*
Y121652D01*
Y121552D01*
X36507D01*
Y121452D01*
Y121352D01*
Y121252D01*
X36407D01*
Y121152D01*
Y121052D01*
X34507D01*
Y121152D01*
Y121252D01*
X34407D01*
Y121352D01*
Y121452D01*
X34307D01*
Y121552D01*
Y121652D01*
X34207D01*
Y121752D01*
Y121852D01*
X34107D01*
Y121952D01*
Y122052D01*
X34007D01*
Y122152D01*
Y122252D01*
X33907D01*
Y122352D01*
Y122452D01*
X33807D01*
Y122552D01*
Y122652D01*
X33707D01*
Y122752D01*
Y122852D01*
X33607D01*
Y122952D01*
Y123052D01*
X33507D01*
Y123152D01*
Y123252D01*
X33407D01*
Y123352D01*
Y123452D01*
X33307D01*
Y123552D01*
Y123652D01*
X33207D01*
Y123752D01*
Y123852D01*
X33107D01*
Y123952D01*
Y124052D01*
X33007D01*
Y124152D01*
Y124252D01*
X32907D01*
Y124352D01*
Y124452D01*
X32807D01*
Y124552D01*
Y124652D01*
X32707D01*
Y124752D01*
Y124852D01*
X32607D01*
Y124952D01*
Y125052D01*
X32507D01*
Y125152D01*
Y125252D01*
X32407D01*
Y125352D01*
Y125452D01*
X32307D01*
Y125552D01*
Y125652D01*
X32207D01*
Y125752D01*
Y125852D01*
X32107D01*
Y125952D01*
Y126052D01*
X32007D01*
Y126152D01*
X33707D01*
Y126052D01*
Y125952D01*
X33807D01*
Y125852D01*
Y125752D01*
Y125652D01*
X33907D01*
Y125552D01*
Y125452D01*
X34007D01*
Y125352D01*
Y125252D01*
X34107D01*
Y125152D01*
Y125052D01*
X34207D01*
Y124952D01*
Y124852D01*
X34307D01*
Y124752D01*
Y124652D01*
Y124552D01*
X34407D01*
Y124452D01*
Y124352D01*
X34507D01*
Y124252D01*
Y124152D01*
X34607D01*
Y124052D01*
Y123952D01*
X34707D01*
Y123852D01*
Y123752D01*
X34807D01*
Y123652D01*
Y123552D01*
Y123452D01*
X34907D01*
Y123352D01*
Y123252D01*
X35007D01*
Y123152D01*
Y123052D01*
X35107D01*
Y122952D01*
Y122852D01*
X35207D01*
Y122752D01*
Y122652D01*
Y122552D01*
X35307D01*
Y122452D01*
Y122352D01*
X35407D01*
Y122452D01*
Y122552D01*
Y122652D01*
X35507D01*
Y122752D01*
Y122852D01*
Y122952D01*
Y123052D01*
X35607D01*
Y123152D01*
Y123252D01*
Y123352D01*
X35707D01*
Y123452D01*
Y123552D01*
Y123652D01*
X35807D01*
Y123752D01*
Y123852D01*
Y123952D01*
Y124052D01*
X35907D01*
Y124152D01*
Y124252D01*
Y124352D01*
X36007D01*
Y124452D01*
Y124552D01*
Y124652D01*
X36107D01*
Y124752D01*
Y124852D01*
Y124952D01*
X36207D01*
Y125052D01*
Y125152D01*
Y125252D01*
X36307D01*
Y125352D01*
Y125452D01*
Y125552D01*
Y125652D01*
X36407D01*
Y125752D01*
Y125852D01*
Y125952D01*
X36507D01*
Y126052D01*
Y126152D01*
X38107D01*
Y126052D01*
D02*
G37*
G36*
X53407Y124852D02*
X53707D01*
Y124752D01*
X53907D01*
Y124652D01*
X54007D01*
Y124552D01*
X54207D01*
Y124452D01*
X54307D01*
Y124352D01*
Y124252D01*
X54407D01*
Y124152D01*
X54507D01*
Y124052D01*
Y123952D01*
X54607D01*
Y123852D01*
Y123752D01*
X54707D01*
Y123652D01*
Y123552D01*
Y123452D01*
X54807D01*
Y123352D01*
Y123252D01*
Y123152D01*
Y123052D01*
Y122952D01*
Y122852D01*
Y122752D01*
Y122652D01*
Y122552D01*
Y122452D01*
Y122352D01*
Y122252D01*
X54707D01*
Y122152D01*
Y122052D01*
Y121952D01*
X54607D01*
Y121852D01*
Y121752D01*
X54507D01*
Y121652D01*
X54407D01*
Y121552D01*
X54307D01*
Y121452D01*
X54207D01*
Y121352D01*
X54107D01*
Y121252D01*
X53907D01*
Y121152D01*
X53707D01*
Y121052D01*
X53307D01*
Y120952D01*
X51707D01*
Y121052D01*
X51207D01*
Y121152D01*
Y121252D01*
Y121352D01*
X51107D01*
Y121452D01*
Y121552D01*
Y121652D01*
Y121752D01*
Y121852D01*
Y121952D01*
X51007D01*
Y122052D01*
Y122152D01*
X51307D01*
Y122052D01*
X51707D01*
Y121952D01*
X52807D01*
Y122052D01*
X53007D01*
Y122152D01*
X53207D01*
Y122252D01*
X53307D01*
Y122352D01*
Y122452D01*
Y122552D01*
X53407D01*
Y122652D01*
Y122752D01*
Y122852D01*
X50707D01*
Y122952D01*
Y123052D01*
Y123152D01*
Y123252D01*
Y123352D01*
Y123452D01*
Y123552D01*
Y123652D01*
Y123752D01*
Y123852D01*
X50807D01*
Y123952D01*
Y124052D01*
Y124152D01*
X50907D01*
Y124252D01*
Y124352D01*
X51007D01*
Y124452D01*
X51107D01*
Y124552D01*
X51207D01*
Y124652D01*
X51407D01*
Y124752D01*
X51607D01*
Y124852D01*
X51807D01*
Y124952D01*
X53407D01*
Y124852D01*
D02*
G37*
G36*
X47707D02*
X48007D01*
Y124752D01*
X48207D01*
Y124652D01*
X48307D01*
Y124552D01*
X48407D01*
Y124452D01*
X48507D01*
Y124552D01*
Y124652D01*
Y124752D01*
Y124852D01*
X50007D01*
Y124752D01*
Y124652D01*
Y124552D01*
Y124452D01*
Y124352D01*
Y124252D01*
Y124152D01*
Y124052D01*
Y123952D01*
Y123852D01*
Y123752D01*
Y123652D01*
Y123552D01*
Y123452D01*
Y123352D01*
Y123252D01*
Y123152D01*
Y123052D01*
Y122952D01*
Y122852D01*
Y122752D01*
Y122652D01*
Y122552D01*
X50107D01*
Y122452D01*
Y122352D01*
Y122252D01*
Y122152D01*
Y122052D01*
Y121952D01*
Y121852D01*
Y121752D01*
Y121652D01*
Y121552D01*
Y121452D01*
X50207D01*
Y121352D01*
Y121252D01*
Y121152D01*
Y121052D01*
X48707D01*
Y121152D01*
Y121252D01*
Y121352D01*
X48607D01*
Y121452D01*
Y121552D01*
Y121652D01*
Y121752D01*
Y121852D01*
Y121952D01*
Y122052D01*
Y122152D01*
Y122252D01*
Y122352D01*
Y122452D01*
Y122552D01*
Y122652D01*
Y122752D01*
Y122852D01*
X48507D01*
Y122952D01*
Y123052D01*
Y123152D01*
Y123252D01*
X48407D01*
Y123352D01*
Y123452D01*
X48307D01*
Y123552D01*
X48207D01*
Y123652D01*
X48107D01*
Y123752D01*
X47407D01*
Y123652D01*
X47307D01*
Y123552D01*
X47207D01*
Y123452D01*
Y123352D01*
Y123252D01*
Y123152D01*
X47107D01*
Y123052D01*
Y122952D01*
Y122852D01*
X47207D01*
Y122752D01*
Y122652D01*
Y122552D01*
Y122452D01*
Y122352D01*
Y122252D01*
Y122152D01*
Y122052D01*
Y121952D01*
Y121852D01*
Y121752D01*
Y121652D01*
Y121552D01*
Y121452D01*
Y121352D01*
Y121252D01*
Y121152D01*
Y121052D01*
X45707D01*
Y121152D01*
Y121252D01*
Y121352D01*
Y121452D01*
Y121552D01*
Y121652D01*
Y121752D01*
Y121852D01*
Y121952D01*
Y122052D01*
Y122152D01*
Y122252D01*
Y122352D01*
Y122452D01*
Y122552D01*
Y122652D01*
Y122752D01*
Y122852D01*
Y122952D01*
Y123052D01*
Y123152D01*
Y123252D01*
X45607D01*
Y123352D01*
Y123452D01*
Y123552D01*
Y123652D01*
Y123752D01*
Y123852D01*
Y123952D01*
Y124052D01*
X45707D01*
Y124152D01*
Y124252D01*
Y124352D01*
X45807D01*
Y124452D01*
Y124552D01*
X45907D01*
Y124652D01*
X46007D01*
Y124752D01*
X46207D01*
Y124852D01*
X46407D01*
Y124952D01*
X47707D01*
Y124852D01*
D02*
G37*
G36*
X60907Y125052D02*
X61107D01*
Y124952D01*
X61307D01*
Y124852D01*
X61407D01*
Y124752D01*
X61607D01*
Y124652D01*
X61807D01*
Y124552D01*
X61907D01*
Y124452D01*
X62107D01*
Y124352D01*
X62307D01*
Y124252D01*
X62507D01*
Y124152D01*
X62607D01*
Y124052D01*
X62807D01*
Y123952D01*
X63007D01*
Y123852D01*
X63207D01*
Y123752D01*
X63307D01*
Y123652D01*
X63507D01*
Y123552D01*
X63707D01*
Y123452D01*
X63807D01*
Y123352D01*
X64007D01*
Y123252D01*
X64207D01*
Y123152D01*
X64407D01*
Y123052D01*
X64507D01*
Y122952D01*
X64707D01*
Y122852D01*
X64907D01*
Y122752D01*
X65007D01*
Y122652D01*
X65107D01*
Y122552D01*
X64907D01*
Y122452D01*
X64707D01*
Y122352D01*
X64507D01*
Y122252D01*
X64407D01*
Y122152D01*
X64207D01*
Y122052D01*
X64007D01*
Y121952D01*
X63907D01*
Y121852D01*
X63707D01*
Y121752D01*
X63507D01*
Y121652D01*
X63307D01*
Y121552D01*
X63207D01*
Y121452D01*
X63007D01*
Y121352D01*
X62807D01*
Y121252D01*
X62607D01*
Y121152D01*
X62507D01*
Y121052D01*
X62307D01*
Y120952D01*
X62007D01*
Y121052D01*
X61907D01*
Y121152D01*
X61807D01*
Y121252D01*
X61707D01*
Y121352D01*
Y121452D01*
X61607D01*
Y121552D01*
X61507D01*
Y121652D01*
Y121752D01*
X61407D01*
Y121852D01*
X61307D01*
Y121952D01*
Y122052D01*
X61207D01*
Y122152D01*
Y122252D01*
X61107D01*
Y122352D01*
Y122452D01*
X61007D01*
Y122552D01*
Y122652D01*
Y122752D01*
X60907D01*
Y122852D01*
Y122952D01*
Y123052D01*
X60807D01*
Y123152D01*
Y123252D01*
Y123352D01*
Y123452D01*
X60707D01*
Y123552D01*
Y123652D01*
Y123752D01*
Y123852D01*
Y123952D01*
Y124052D01*
Y124152D01*
Y124252D01*
X60607D01*
Y124352D01*
Y124452D01*
Y124552D01*
Y124652D01*
Y124752D01*
Y124852D01*
X60707D01*
Y124952D01*
Y125052D01*
Y125152D01*
X60907D01*
Y125052D01*
D02*
G37*
G36*
X68007Y124652D02*
X68207D01*
Y124552D01*
X68407D01*
Y124452D01*
X68507D01*
Y124352D01*
X68707D01*
Y124252D01*
X68907D01*
Y124152D01*
X69007D01*
Y124052D01*
X69207D01*
Y123952D01*
X69407D01*
Y123852D01*
X69607D01*
Y123752D01*
X69707D01*
Y123652D01*
X69907D01*
Y123552D01*
X70107D01*
Y123452D01*
X70307D01*
Y123352D01*
X70407D01*
Y123252D01*
X70607D01*
Y123152D01*
X70807D01*
Y123052D01*
Y122952D01*
Y122852D01*
Y122752D01*
X70707D01*
Y122652D01*
Y122552D01*
X70607D01*
Y122452D01*
Y122352D01*
X70507D01*
Y122252D01*
Y122152D01*
X70407D01*
Y122052D01*
Y121952D01*
X70307D01*
Y121852D01*
Y121752D01*
X70207D01*
Y121652D01*
Y121552D01*
X70107D01*
Y121452D01*
X70007D01*
Y121352D01*
X69907D01*
Y121252D01*
Y121152D01*
X69807D01*
Y121052D01*
X69707D01*
Y120952D01*
X69607D01*
Y120852D01*
X69507D01*
Y120752D01*
X69407D01*
Y120652D01*
X69307D01*
Y120552D01*
X69207D01*
Y120452D01*
X69007D01*
Y120352D01*
X68907D01*
Y120252D01*
X68807D01*
Y120152D01*
X68607D01*
Y120052D01*
X68507D01*
Y119952D01*
X68307D01*
Y119852D01*
X68107D01*
Y119752D01*
X67907D01*
Y119652D01*
X67807D01*
Y119752D01*
Y119852D01*
Y119952D01*
Y120052D01*
Y120152D01*
Y120252D01*
Y120352D01*
Y120452D01*
Y120552D01*
Y120652D01*
Y120752D01*
Y120852D01*
Y120952D01*
Y121052D01*
Y121152D01*
Y121252D01*
Y121352D01*
Y121452D01*
Y121552D01*
Y121652D01*
Y121752D01*
Y121852D01*
Y121952D01*
Y122052D01*
Y122152D01*
Y122252D01*
Y122352D01*
Y122452D01*
Y122552D01*
Y122652D01*
Y122752D01*
Y122852D01*
Y122952D01*
Y123052D01*
Y123152D01*
Y123252D01*
Y123352D01*
Y123452D01*
Y123552D01*
Y123652D01*
Y123752D01*
Y123852D01*
Y123952D01*
Y124052D01*
Y124152D01*
Y124252D01*
Y124352D01*
Y124452D01*
Y124552D01*
Y124652D01*
Y124752D01*
X68007D01*
Y124652D01*
D02*
G37*
G36*
X67107Y122852D02*
Y122752D01*
Y122652D01*
Y122552D01*
Y122452D01*
Y122352D01*
Y122252D01*
Y122152D01*
Y122052D01*
Y121952D01*
Y121852D01*
Y121752D01*
Y121652D01*
Y121552D01*
Y121452D01*
Y121352D01*
Y121252D01*
Y121152D01*
Y121052D01*
Y120952D01*
Y120852D01*
Y120752D01*
Y120652D01*
Y120552D01*
Y120452D01*
Y120352D01*
Y120252D01*
Y120152D01*
Y120052D01*
Y119952D01*
Y119852D01*
Y119752D01*
Y119652D01*
Y119552D01*
Y119452D01*
X67007D01*
Y119352D01*
X66207D01*
Y119252D01*
X65607D01*
Y119352D01*
X64807D01*
Y119452D01*
X64407D01*
Y119552D01*
X64007D01*
Y119652D01*
X63807D01*
Y119752D01*
X63607D01*
Y119852D01*
X63407D01*
Y119952D01*
X63207D01*
Y120052D01*
X63007D01*
Y120152D01*
X62907D01*
Y120252D01*
X62707D01*
Y120352D01*
X62607D01*
Y120452D01*
X62807D01*
Y120552D01*
X63007D01*
Y120652D01*
X63207D01*
Y120752D01*
X63307D01*
Y120852D01*
X63507D01*
Y120952D01*
X63707D01*
Y121052D01*
X63907D01*
Y121152D01*
X64007D01*
Y121252D01*
X64207D01*
Y121352D01*
X64407D01*
Y121452D01*
X64607D01*
Y121552D01*
X64707D01*
Y121652D01*
X64907D01*
Y121752D01*
X65107D01*
Y121852D01*
X65207D01*
Y121952D01*
X65407D01*
Y122052D01*
X65607D01*
Y122152D01*
X65807D01*
Y122252D01*
X65907D01*
Y122352D01*
X66107D01*
Y122452D01*
X66307D01*
Y122552D01*
X66407D01*
Y122652D01*
X66607D01*
Y122752D01*
X66807D01*
Y122852D01*
X67007D01*
Y122952D01*
X67107D01*
Y122852D01*
D02*
G37*
G36*
X58907Y124852D02*
X59607D01*
Y124752D01*
Y124652D01*
Y124552D01*
Y124452D01*
Y124352D01*
Y124252D01*
Y124152D01*
Y124052D01*
Y123952D01*
Y123852D01*
Y123752D01*
Y123652D01*
Y123552D01*
Y123452D01*
X59707D01*
Y123352D01*
Y123252D01*
Y123152D01*
Y123052D01*
Y122952D01*
Y122852D01*
Y122752D01*
Y122652D01*
Y122552D01*
Y122452D01*
Y122352D01*
Y122252D01*
Y122152D01*
Y122052D01*
Y121952D01*
Y121852D01*
Y121752D01*
Y121652D01*
Y121552D01*
Y121452D01*
Y121352D01*
X59807D01*
Y121252D01*
Y121152D01*
Y121052D01*
Y120952D01*
Y120852D01*
Y120752D01*
Y120652D01*
Y120552D01*
Y120452D01*
Y120352D01*
Y120252D01*
Y120152D01*
Y120052D01*
Y119952D01*
Y119852D01*
X59907D01*
Y119752D01*
Y119652D01*
Y119552D01*
Y119452D01*
Y119352D01*
Y119252D01*
X58407D01*
Y119352D01*
Y119452D01*
Y119552D01*
Y119652D01*
Y119752D01*
Y119852D01*
Y119952D01*
Y120052D01*
Y120152D01*
Y120252D01*
Y120352D01*
Y120452D01*
Y120552D01*
Y120652D01*
X58307D01*
Y120752D01*
Y120852D01*
Y120952D01*
Y121052D01*
Y121152D01*
Y121252D01*
Y121352D01*
X58107D01*
Y121252D01*
X58007D01*
Y121152D01*
X57707D01*
Y121052D01*
X57407D01*
Y120952D01*
X56607D01*
Y121052D01*
X56307D01*
Y121152D01*
X56107D01*
Y121252D01*
X56007D01*
Y121352D01*
X55907D01*
Y121452D01*
X55807D01*
Y121552D01*
X55707D01*
Y121652D01*
X55607D01*
Y121752D01*
Y121852D01*
X55507D01*
Y121952D01*
Y122052D01*
X55407D01*
Y122152D01*
Y122252D01*
Y122352D01*
Y122452D01*
X55307D01*
Y122552D01*
Y122652D01*
Y122752D01*
Y122852D01*
Y122952D01*
Y123052D01*
Y123152D01*
Y123252D01*
Y123352D01*
Y123452D01*
X55407D01*
Y123552D01*
Y123652D01*
Y123752D01*
Y123852D01*
X55507D01*
Y123952D01*
Y124052D01*
X55607D01*
Y124152D01*
Y124252D01*
X55707D01*
Y124352D01*
X55807D01*
Y124452D01*
X55907D01*
Y124552D01*
X56007D01*
Y124652D01*
X56107D01*
Y124752D01*
X56307D01*
Y124852D01*
X56607D01*
Y124952D01*
X58907D01*
Y124852D01*
D02*
G37*
G36*
X8772Y84584D02*
X6549Y82361D01*
X6049Y82361D01*
X3827Y84584D01*
X4019Y85046D01*
X8580D01*
X8772Y84584D01*
D02*
G37*
G36*
X109783Y43097D02*
X109883D01*
Y42996D01*
X109983D01*
Y42897D01*
X110083D01*
Y42796D01*
X110283D01*
Y42696D01*
X110383D01*
Y42597D01*
X110283D01*
Y42496D01*
X110183D01*
Y42397D01*
X110083D01*
Y42296D01*
X109983D01*
Y42197D01*
X109783D01*
Y42096D01*
X109683D01*
Y41996D01*
X109583D01*
Y41897D01*
X109483D01*
Y41796D01*
X109383D01*
Y41697D01*
X109283D01*
Y41596D01*
X109083D01*
Y41497D01*
X108983D01*
Y41396D01*
X108883D01*
Y41296D01*
X108783D01*
Y41197D01*
X108683D01*
Y41096D01*
X108583D01*
Y40997D01*
X108383D01*
Y40896D01*
X108283D01*
Y40797D01*
X108183D01*
Y40696D01*
X108083D01*
Y40597D01*
X107983D01*
Y40497D01*
X107883D01*
Y40396D01*
X107783D01*
Y40297D01*
X107583D01*
Y40196D01*
X107483D01*
Y40097D01*
X107383D01*
Y39996D01*
X107283D01*
Y39897D01*
X107183D01*
Y39797D01*
X107083D01*
Y39696D01*
X106883D01*
Y39597D01*
Y39496D01*
X106783D01*
Y39397D01*
Y39296D01*
Y39197D01*
Y39097D01*
Y38996D01*
Y38897D01*
Y38796D01*
Y38697D01*
X106683D01*
Y38596D01*
Y38497D01*
Y38396D01*
Y38296D01*
Y38197D01*
Y38096D01*
Y37997D01*
Y37896D01*
X106583D01*
Y37797D01*
Y37696D01*
Y37596D01*
Y37497D01*
Y37396D01*
Y37297D01*
Y37196D01*
Y37097D01*
Y36996D01*
Y36896D01*
X106483D01*
Y36797D01*
Y36696D01*
Y36597D01*
Y36496D01*
Y36397D01*
Y36296D01*
Y36197D01*
Y36097D01*
X106383D01*
Y35996D01*
Y35897D01*
Y35796D01*
Y35697D01*
Y35596D01*
Y35497D01*
Y35397D01*
Y35296D01*
X106283D01*
Y35197D01*
Y35096D01*
Y34997D01*
Y34896D01*
Y34797D01*
Y34696D01*
Y34596D01*
Y34497D01*
X106383D01*
Y34396D01*
X106483D01*
Y34297D01*
X106583D01*
Y34196D01*
X106783D01*
Y34097D01*
X106883D01*
Y33996D01*
X106983D01*
Y33896D01*
X107083D01*
Y33797D01*
X107183D01*
Y33696D01*
X107283D01*
Y33597D01*
X107383D01*
Y33496D01*
X107583D01*
Y33397D01*
X107683D01*
Y33296D01*
X107783D01*
Y33196D01*
X107883D01*
Y33097D01*
X107983D01*
Y32996D01*
X108083D01*
Y32897D01*
X108183D01*
Y32796D01*
X108383D01*
Y32697D01*
X108483D01*
Y32596D01*
X108583D01*
Y32497D01*
X108683D01*
Y32397D01*
X108783D01*
Y32296D01*
X108883D01*
Y32197D01*
X109083D01*
Y32096D01*
X109183D01*
Y31997D01*
X109283D01*
Y31896D01*
X109383D01*
Y31797D01*
X109483D01*
Y31697D01*
X109583D01*
Y31596D01*
X109683D01*
Y31497D01*
X109883D01*
Y31396D01*
X109983D01*
Y31297D01*
X110083D01*
Y31196D01*
X110183D01*
Y31097D01*
X110283D01*
Y30997D01*
Y30896D01*
X110183D01*
Y30797D01*
X110083D01*
Y30696D01*
X109983D01*
Y30597D01*
X109883D01*
Y30496D01*
X109783D01*
Y30397D01*
X109683D01*
Y30496D01*
X109583D01*
Y30597D01*
X109383D01*
Y30696D01*
X109283D01*
Y30797D01*
X109183D01*
Y30896D01*
X109083D01*
Y30997D01*
X108983D01*
Y31097D01*
X108883D01*
Y31196D01*
X108783D01*
Y31297D01*
X108583D01*
Y31396D01*
X108483D01*
Y31497D01*
X108383D01*
Y31596D01*
X108283D01*
Y31697D01*
X108183D01*
Y31797D01*
X108083D01*
Y31896D01*
X107883D01*
Y31997D01*
X107783D01*
Y32096D01*
X107683D01*
Y32197D01*
X107583D01*
Y32296D01*
X107483D01*
Y32397D01*
X107383D01*
Y32497D01*
X107283D01*
Y32596D01*
X107083D01*
Y32697D01*
X106983D01*
Y32796D01*
X106883D01*
Y32897D01*
X106783D01*
Y32996D01*
X106683D01*
Y33097D01*
X106583D01*
Y33196D01*
X106383D01*
Y33296D01*
X106283D01*
Y33397D01*
X106083D01*
Y33296D01*
Y33196D01*
Y33097D01*
Y32996D01*
Y32897D01*
Y32796D01*
Y32697D01*
X105983D01*
Y32596D01*
Y32497D01*
Y32397D01*
Y32296D01*
Y32197D01*
Y32096D01*
Y31997D01*
Y31896D01*
Y31797D01*
X105883D01*
Y31697D01*
X105783D01*
Y31596D01*
X105483D01*
Y31497D01*
Y31396D01*
Y31297D01*
Y31196D01*
Y31097D01*
Y30997D01*
Y30896D01*
X104883D01*
Y30997D01*
X104783D01*
Y31097D01*
Y31196D01*
Y31297D01*
Y31396D01*
Y31497D01*
Y31596D01*
X101483D01*
Y31497D01*
X101383D01*
Y31396D01*
Y31297D01*
X101283D01*
Y31196D01*
X101183D01*
Y31097D01*
X100983D01*
Y30997D01*
X100683D01*
Y30896D01*
X100283D01*
Y30997D01*
X99983D01*
Y31097D01*
X99783D01*
Y31196D01*
X99683D01*
Y31297D01*
X99583D01*
Y31396D01*
Y31497D01*
X99483D01*
Y31596D01*
Y31697D01*
Y31797D01*
Y31896D01*
Y31997D01*
Y32096D01*
X99583D01*
Y32197D01*
Y32296D01*
X99683D01*
Y32397D01*
X99783D01*
Y32497D01*
X99983D01*
Y32596D01*
Y32697D01*
Y32796D01*
Y32897D01*
Y32996D01*
X99883D01*
Y33097D01*
Y33196D01*
Y33296D01*
Y33397D01*
Y33496D01*
X99783D01*
Y33397D01*
X99683D01*
Y33296D01*
X99583D01*
Y33196D01*
X99383D01*
Y33097D01*
X99283D01*
Y32996D01*
X99183D01*
Y32897D01*
X99083D01*
Y32796D01*
X98983D01*
Y32697D01*
X98883D01*
Y32596D01*
X98683D01*
Y32497D01*
X98583D01*
Y32397D01*
X98483D01*
Y32296D01*
X98383D01*
Y32197D01*
X98283D01*
Y32096D01*
X98183D01*
Y31997D01*
X98083D01*
Y31896D01*
X97883D01*
Y31797D01*
X97783D01*
Y31697D01*
X97683D01*
Y31596D01*
X97583D01*
Y31497D01*
X97483D01*
Y31396D01*
X97383D01*
Y31297D01*
X97183D01*
Y31196D01*
X97083D01*
Y31097D01*
X96983D01*
Y30997D01*
X96883D01*
Y30896D01*
X96783D01*
Y30797D01*
X96683D01*
Y30696D01*
X96583D01*
Y30597D01*
X96383D01*
Y30496D01*
X96283D01*
Y30397D01*
X96183D01*
Y30496D01*
X96083D01*
Y30597D01*
X95983D01*
Y30696D01*
X95883D01*
Y30797D01*
X95783D01*
Y30896D01*
X95683D01*
Y30997D01*
Y31097D01*
X95783D01*
Y31196D01*
X95883D01*
Y31297D01*
X95983D01*
Y31396D01*
X96083D01*
Y31497D01*
X96283D01*
Y31596D01*
X96383D01*
Y31697D01*
X96483D01*
Y31797D01*
X96583D01*
Y31896D01*
X96683D01*
Y31997D01*
X96783D01*
Y32096D01*
X96883D01*
Y32197D01*
X97083D01*
Y32296D01*
X97183D01*
Y32397D01*
X97283D01*
Y32497D01*
X97383D01*
Y32596D01*
X97483D01*
Y32697D01*
X97583D01*
Y32796D01*
X97783D01*
Y32897D01*
X97883D01*
Y32996D01*
X97983D01*
Y33097D01*
X98083D01*
Y33196D01*
X98183D01*
Y33296D01*
X98283D01*
Y33397D01*
X98383D01*
Y33496D01*
X98583D01*
Y33597D01*
X98683D01*
Y33696D01*
X98783D01*
Y33797D01*
X98883D01*
Y33896D01*
X98983D01*
Y33996D01*
X99083D01*
Y34097D01*
X99283D01*
Y34196D01*
X99383D01*
Y34297D01*
X99483D01*
Y34396D01*
X99583D01*
Y34497D01*
X99683D01*
Y34596D01*
Y34696D01*
Y34797D01*
Y34896D01*
Y34997D01*
Y35096D01*
Y35197D01*
Y35296D01*
Y35397D01*
Y35497D01*
Y35596D01*
X99583D01*
Y35697D01*
Y35796D01*
Y35897D01*
Y35996D01*
Y36097D01*
Y36197D01*
Y36296D01*
Y36397D01*
X99483D01*
Y36496D01*
Y36597D01*
Y36696D01*
Y36797D01*
Y36896D01*
Y36996D01*
Y37097D01*
Y37196D01*
X99383D01*
Y37297D01*
Y37396D01*
Y37497D01*
Y37596D01*
Y37696D01*
Y37797D01*
Y37896D01*
Y37997D01*
Y38096D01*
Y38197D01*
X99283D01*
Y38296D01*
Y38396D01*
Y38497D01*
Y38596D01*
Y38697D01*
Y38796D01*
Y38897D01*
Y38996D01*
X99183D01*
Y39097D01*
Y39197D01*
Y39296D01*
Y39397D01*
Y39496D01*
Y39597D01*
X99083D01*
Y39696D01*
X98883D01*
Y39797D01*
X98783D01*
Y39897D01*
X98383D01*
Y39996D01*
Y40097D01*
Y40196D01*
Y40297D01*
X98183D01*
Y40396D01*
X98083D01*
Y40497D01*
X97983D01*
Y40597D01*
X97883D01*
Y40696D01*
X97783D01*
Y40797D01*
X97683D01*
Y40896D01*
X97583D01*
Y40997D01*
X97383D01*
Y41096D01*
X97283D01*
Y41197D01*
X97183D01*
Y41296D01*
X97083D01*
Y41396D01*
X96983D01*
Y41497D01*
X96883D01*
Y41596D01*
X96683D01*
Y41697D01*
X96583D01*
Y41796D01*
X96483D01*
Y41897D01*
X96383D01*
Y41996D01*
X96283D01*
Y42096D01*
X96183D01*
Y42197D01*
X95983D01*
Y42296D01*
X95883D01*
Y42397D01*
X95783D01*
Y42496D01*
X95683D01*
Y42597D01*
X95583D01*
Y42696D01*
X95683D01*
Y42796D01*
X95883D01*
Y42897D01*
X95983D01*
Y42996D01*
X96083D01*
Y43097D01*
X96183D01*
Y43196D01*
X96283D01*
Y43097D01*
X96483D01*
Y42996D01*
X96583D01*
Y42897D01*
X96683D01*
Y42796D01*
X96783D01*
Y42696D01*
X96883D01*
Y42597D01*
X96983D01*
Y42496D01*
X97183D01*
Y42397D01*
X97283D01*
Y42296D01*
X97383D01*
Y42197D01*
X97483D01*
Y42096D01*
X97583D01*
Y41996D01*
X97683D01*
Y41897D01*
X97783D01*
Y41796D01*
X97983D01*
Y41697D01*
X98083D01*
Y41596D01*
X98183D01*
Y41497D01*
X98283D01*
Y41396D01*
X98383D01*
Y41296D01*
X98483D01*
Y41197D01*
X98683D01*
Y41096D01*
X98783D01*
Y40997D01*
X98883D01*
Y40896D01*
X98983D01*
Y40997D01*
Y41096D01*
Y41197D01*
Y41296D01*
X98583D01*
Y41396D01*
X98483D01*
Y41497D01*
X98383D01*
Y41596D01*
Y41697D01*
Y41796D01*
Y41897D01*
Y41996D01*
X98483D01*
Y42096D01*
X98583D01*
Y42197D01*
X99283D01*
Y42296D01*
X99683D01*
Y42397D01*
X100383D01*
Y42496D01*
X101883D01*
Y42597D01*
X103883D01*
Y42496D01*
X105783D01*
Y42597D01*
Y42696D01*
X106283D01*
Y42597D01*
Y42496D01*
Y42397D01*
X106483D01*
Y42296D01*
X106783D01*
Y42197D01*
X106883D01*
Y42096D01*
X106983D01*
Y41996D01*
Y41897D01*
X107083D01*
Y41796D01*
X107583D01*
Y41697D01*
Y41596D01*
Y41497D01*
Y41396D01*
X107683D01*
Y41497D01*
X107783D01*
Y41596D01*
X107883D01*
Y41697D01*
X107983D01*
Y41796D01*
X108183D01*
Y41897D01*
X108283D01*
Y41996D01*
X108383D01*
Y42096D01*
X108483D01*
Y42197D01*
X108583D01*
Y42296D01*
X108683D01*
Y42397D01*
X108783D01*
Y42496D01*
X108983D01*
Y42597D01*
X109083D01*
Y42696D01*
X109183D01*
Y42796D01*
X109283D01*
Y42897D01*
X109383D01*
Y42996D01*
X109483D01*
Y43097D01*
X109683D01*
Y43196D01*
X109783D01*
Y43097D01*
D02*
G37*
G36*
X110483Y30097D02*
Y29996D01*
Y29897D01*
Y29796D01*
Y29697D01*
Y29596D01*
Y29496D01*
Y29397D01*
Y29296D01*
Y29197D01*
Y29096D01*
Y28997D01*
Y28896D01*
Y28796D01*
Y28697D01*
Y28596D01*
Y28497D01*
Y28396D01*
Y28297D01*
X95483D01*
Y28396D01*
Y28497D01*
Y28596D01*
Y28697D01*
Y28796D01*
Y28896D01*
Y28997D01*
Y29096D01*
Y29197D01*
Y29296D01*
Y29397D01*
Y29496D01*
Y29596D01*
Y29697D01*
Y29796D01*
Y29897D01*
Y29996D01*
Y30097D01*
Y30196D01*
X110483D01*
Y30097D01*
D02*
G37*
G36*
X68628Y28941D02*
X69928D01*
Y28841D01*
X70328D01*
Y28741D01*
X70628D01*
Y28641D01*
X71028D01*
Y28541D01*
X71228D01*
Y28441D01*
X71628D01*
Y28341D01*
X71728D01*
Y28241D01*
X71828D01*
Y28141D01*
X72128D01*
Y28041D01*
X72328D01*
Y27941D01*
X72628D01*
Y27841D01*
Y27741D01*
X72828D01*
Y27641D01*
X73028D01*
Y27541D01*
X73128D01*
Y27441D01*
X73328D01*
Y27341D01*
Y27241D01*
X73628D01*
Y27141D01*
Y27041D01*
X73728D01*
Y26941D01*
X73828D01*
Y26841D01*
X73928D01*
Y26741D01*
X74128D01*
Y26641D01*
Y26541D01*
X74228D01*
Y26441D01*
X74328D01*
Y26341D01*
X74428D01*
Y26241D01*
X74628D01*
Y26141D01*
Y26041D01*
Y25941D01*
X74828D01*
Y25841D01*
Y25741D01*
X74928D01*
Y25641D01*
X75028D01*
Y25541D01*
Y25440D01*
X75128D01*
Y25341D01*
Y25240D01*
X75328D01*
Y25141D01*
Y25041D01*
Y24940D01*
X75428D01*
Y24840D01*
X75528D01*
Y24740D01*
Y24641D01*
Y24541D01*
X75628D01*
Y24441D01*
Y24340D01*
X75728D01*
Y24240D01*
X75828D01*
Y24140D01*
Y24040D01*
Y23941D01*
Y23841D01*
X75928D01*
Y23741D01*
X76028D01*
Y23641D01*
Y23540D01*
Y23440D01*
Y23340D01*
Y23241D01*
X76128D01*
Y23141D01*
Y23041D01*
X76228D01*
Y22941D01*
Y22840D01*
Y22740D01*
Y22640D01*
X76328D01*
Y22540D01*
Y22441D01*
Y22341D01*
Y22241D01*
Y22140D01*
Y22040D01*
Y21940D01*
Y21840D01*
Y21741D01*
Y21641D01*
Y21541D01*
Y21441D01*
Y21340D01*
X76428D01*
Y21240D01*
Y21140D01*
Y21041D01*
Y20941D01*
Y20841D01*
Y20741D01*
Y20640D01*
X76328D01*
Y20540D01*
Y20440D01*
Y20340D01*
Y20241D01*
Y20141D01*
Y20041D01*
Y19940D01*
Y19840D01*
Y19740D01*
Y19640D01*
Y19541D01*
Y19441D01*
X76228D01*
Y19341D01*
Y19241D01*
Y19140D01*
Y19040D01*
X76128D01*
Y18940D01*
Y18841D01*
X76028D01*
Y18741D01*
Y18641D01*
Y18541D01*
Y18440D01*
Y18340D01*
X75928D01*
Y18240D01*
X75828D01*
Y18140D01*
Y18041D01*
Y17941D01*
Y17841D01*
X75728D01*
Y17740D01*
Y17640D01*
X75628D01*
Y17540D01*
X75528D01*
Y17440D01*
Y17341D01*
Y17241D01*
X75428D01*
Y17141D01*
X75328D01*
Y17041D01*
Y16940D01*
Y16840D01*
X75128D01*
Y16740D01*
Y16641D01*
X75028D01*
Y16541D01*
Y16441D01*
X74928D01*
Y16341D01*
X74828D01*
Y16240D01*
Y16140D01*
X74628D01*
Y16040D01*
Y15940D01*
Y15841D01*
X74428D01*
Y15741D01*
X74328D01*
Y15641D01*
X74228D01*
Y15540D01*
X74128D01*
Y15440D01*
Y15340D01*
X73928D01*
Y15240D01*
X73828D01*
Y15141D01*
X73728D01*
Y15041D01*
X73628D01*
Y14941D01*
Y14841D01*
X73328D01*
Y14740D01*
Y14640D01*
X73128D01*
Y14540D01*
X73028D01*
Y14441D01*
X72828D01*
Y14341D01*
X72628D01*
Y14241D01*
Y14141D01*
X72328D01*
Y14040D01*
X72128D01*
Y13940D01*
X71928D01*
Y13840D01*
X71728D01*
Y13740D01*
X71628D01*
Y13641D01*
X71228D01*
Y13541D01*
X71028D01*
Y13441D01*
X70628D01*
Y13340D01*
X70328D01*
Y13240D01*
X70028D01*
Y13140D01*
X68528D01*
Y13040D01*
X68428D01*
Y13140D01*
X68328D01*
Y13040D01*
X68228D01*
Y13140D01*
X66928D01*
Y13240D01*
X66528D01*
Y13340D01*
X66228D01*
Y13441D01*
X65828D01*
Y13541D01*
X65628D01*
Y13641D01*
X65228D01*
Y13740D01*
X65128D01*
Y13840D01*
X65028D01*
Y13940D01*
X64728D01*
Y14040D01*
X64528D01*
Y14141D01*
X64328D01*
Y14241D01*
X64228D01*
Y14341D01*
X64128D01*
Y14441D01*
X63928D01*
Y14540D01*
X63728D01*
Y14640D01*
X63528D01*
Y14740D01*
Y14841D01*
X63328D01*
Y14941D01*
X63228D01*
Y15041D01*
X63128D01*
Y15141D01*
X63028D01*
Y15240D01*
X62928D01*
Y15340D01*
X62728D01*
Y15440D01*
Y15540D01*
X62628D01*
Y15641D01*
X62528D01*
Y15741D01*
X62428D01*
Y15841D01*
X62328D01*
Y15940D01*
X62228D01*
Y16040D01*
Y16140D01*
X62028D01*
Y16240D01*
Y16341D01*
X61928D01*
Y16441D01*
Y16541D01*
X61828D01*
Y16641D01*
Y16740D01*
X61728D01*
Y16840D01*
X61628D01*
Y16940D01*
X61528D01*
Y17041D01*
Y17141D01*
X61428D01*
Y17241D01*
Y17341D01*
X61328D01*
Y17440D01*
Y17540D01*
Y17640D01*
X61228D01*
Y17740D01*
X61128D01*
Y17841D01*
X61028D01*
Y17941D01*
Y18041D01*
Y18140D01*
Y18240D01*
Y18340D01*
X60928D01*
Y18440D01*
X60828D01*
Y18541D01*
Y18641D01*
Y18741D01*
Y18841D01*
Y18940D01*
X60728D01*
Y19040D01*
Y19140D01*
Y19241D01*
X60628D01*
Y19341D01*
Y19441D01*
Y19541D01*
X60528D01*
Y19640D01*
Y19740D01*
Y19840D01*
Y19940D01*
Y20041D01*
Y20141D01*
Y20241D01*
Y20340D01*
Y20440D01*
Y20540D01*
Y20640D01*
Y20741D01*
Y20841D01*
Y20941D01*
Y21041D01*
Y21140D01*
Y21240D01*
Y21340D01*
Y21441D01*
Y21541D01*
Y21641D01*
Y21741D01*
Y21840D01*
Y21940D01*
Y22040D01*
Y22140D01*
Y22241D01*
Y22341D01*
Y22441D01*
Y22540D01*
X60628D01*
Y22640D01*
Y22740D01*
Y22840D01*
X60728D01*
Y22941D01*
Y23041D01*
Y23141D01*
X60828D01*
Y23241D01*
Y23340D01*
Y23440D01*
Y23540D01*
Y23641D01*
X60928D01*
Y23741D01*
X61028D01*
Y23841D01*
Y23941D01*
Y24040D01*
Y24140D01*
X61128D01*
Y24240D01*
Y24340D01*
X61228D01*
Y24441D01*
X61328D01*
Y24541D01*
Y24641D01*
Y24740D01*
X61428D01*
Y24840D01*
Y24940D01*
X61528D01*
Y25041D01*
Y25141D01*
X61628D01*
Y25240D01*
X61728D01*
Y25341D01*
X61828D01*
Y25440D01*
Y25541D01*
X61928D01*
Y25641D01*
Y25741D01*
X62028D01*
Y25841D01*
X62128D01*
Y25941D01*
X62228D01*
Y26041D01*
Y26141D01*
X62328D01*
Y26241D01*
X62428D01*
Y26341D01*
X62528D01*
Y26441D01*
X62628D01*
Y26541D01*
X62728D01*
Y26641D01*
Y26741D01*
X62928D01*
Y26841D01*
X63028D01*
Y26941D01*
X63128D01*
Y27041D01*
X63228D01*
Y27141D01*
X63328D01*
Y27241D01*
X63528D01*
Y27341D01*
Y27441D01*
X63728D01*
Y27541D01*
X63928D01*
Y27641D01*
X64128D01*
Y27741D01*
X64228D01*
Y27841D01*
X64328D01*
Y27941D01*
X64528D01*
Y28041D01*
X64728D01*
Y28141D01*
X65028D01*
Y28241D01*
X65128D01*
Y28341D01*
X65228D01*
Y28441D01*
X65628D01*
Y28541D01*
X65828D01*
Y28641D01*
X66328D01*
Y28741D01*
X66528D01*
Y28841D01*
X66928D01*
Y28941D01*
X68328D01*
Y29041D01*
X68628D01*
Y28941D01*
D02*
G37*
%LPC*%
G36*
X52807Y124152D02*
X52407D01*
Y124052D01*
X52207D01*
Y123952D01*
Y123852D01*
X52107D01*
Y123752D01*
Y123652D01*
Y123552D01*
Y123452D01*
Y123352D01*
X53307D01*
Y123452D01*
Y123552D01*
Y123652D01*
Y123752D01*
X53207D01*
Y123852D01*
X53107D01*
Y123952D01*
X53007D01*
Y124052D01*
X52807D01*
Y124152D01*
D02*
G37*
G36*
X57907Y123952D02*
X57307D01*
Y123852D01*
X57107D01*
Y123752D01*
X57007D01*
Y123652D01*
X56907D01*
Y123552D01*
X56807D01*
Y123452D01*
Y123352D01*
Y123252D01*
Y123152D01*
Y123052D01*
Y122952D01*
Y122852D01*
Y122752D01*
Y122652D01*
Y122552D01*
Y122452D01*
X56907D01*
Y122352D01*
X57007D01*
Y122252D01*
Y122152D01*
X57207D01*
Y122052D01*
X57807D01*
Y122152D01*
X58007D01*
Y122252D01*
X58107D01*
Y122352D01*
Y122452D01*
X58207D01*
Y122552D01*
Y122652D01*
Y122752D01*
Y122852D01*
X58307D01*
Y122952D01*
Y123052D01*
Y123152D01*
X58207D01*
Y123252D01*
Y123352D01*
Y123452D01*
Y123552D01*
Y123652D01*
Y123752D01*
Y123852D01*
X57907D01*
Y123952D01*
D02*
G37*
G36*
X103683Y42496D02*
X102183D01*
Y42397D01*
X103683D01*
Y42496D01*
D02*
G37*
G36*
X104783Y42397D02*
X103883D01*
Y42296D01*
Y42197D01*
X101883D01*
Y42296D01*
Y42397D01*
X101583D01*
Y42296D01*
X100283D01*
Y42197D01*
X99583D01*
Y42096D01*
X99283D01*
Y41996D01*
X99383D01*
Y41897D01*
X105783D01*
Y41996D01*
Y42096D01*
Y42197D01*
Y42296D01*
X104783D01*
Y42397D01*
D02*
G37*
G36*
X106583Y42197D02*
X106283D01*
Y42096D01*
Y41996D01*
Y41897D01*
X106783D01*
Y41996D01*
Y42096D01*
X106583D01*
Y42197D01*
D02*
G37*
G36*
X107383Y41697D02*
X99483D01*
Y41596D01*
X99383D01*
Y41497D01*
X107383D01*
Y41596D01*
Y41697D01*
D02*
G37*
G36*
X107583Y41396D02*
X107083D01*
Y41296D01*
X106983D01*
Y41197D01*
Y41096D01*
Y40997D01*
Y40896D01*
X107083D01*
Y40997D01*
X107183D01*
Y41096D01*
X107283D01*
Y41197D01*
X107483D01*
Y41296D01*
X107583D01*
Y41396D01*
D02*
G37*
G36*
X106783D02*
X99183D01*
Y41296D01*
Y41197D01*
Y41096D01*
Y40997D01*
Y40896D01*
Y40797D01*
X99283D01*
Y40696D01*
Y40597D01*
Y40497D01*
X99483D01*
Y40396D01*
X99583D01*
Y40297D01*
X99683D01*
Y40196D01*
X99783D01*
Y40097D01*
X99883D01*
Y39996D01*
X99983D01*
Y39897D01*
X100183D01*
Y39797D01*
X100283D01*
Y39696D01*
X100383D01*
Y39597D01*
X100483D01*
Y39496D01*
X100583D01*
Y39397D01*
X100683D01*
Y39296D01*
X100883D01*
Y39197D01*
X100983D01*
Y39097D01*
X101083D01*
Y38996D01*
X103683D01*
Y38897D01*
Y38796D01*
Y38697D01*
Y38596D01*
Y38497D01*
X101783D01*
Y38396D01*
X101883D01*
Y38296D01*
X101983D01*
Y38197D01*
X102083D01*
Y38096D01*
X102183D01*
Y37997D01*
X102383D01*
Y37896D01*
X102483D01*
Y37797D01*
X102583D01*
Y37696D01*
X102683D01*
Y37596D01*
X102783D01*
Y37497D01*
X102883D01*
Y37396D01*
X103083D01*
Y37497D01*
X103183D01*
Y37596D01*
X103283D01*
Y37696D01*
X103383D01*
Y37797D01*
X103483D01*
Y37896D01*
X103583D01*
Y37997D01*
X103783D01*
Y38096D01*
X103883D01*
Y38197D01*
X103983D01*
Y38296D01*
X104083D01*
Y38396D01*
X104183D01*
Y38497D01*
X104283D01*
Y38596D01*
X104483D01*
Y38697D01*
X104583D01*
Y38796D01*
X104683D01*
Y38897D01*
X104783D01*
Y38996D01*
X104883D01*
Y39097D01*
X104983D01*
Y39197D01*
X105083D01*
Y39296D01*
X105283D01*
Y39397D01*
X105383D01*
Y39496D01*
X105483D01*
Y39597D01*
X105583D01*
Y39696D01*
X105683D01*
Y39797D01*
X105783D01*
Y39897D01*
X105983D01*
Y39996D01*
X106083D01*
Y40097D01*
X106183D01*
Y40196D01*
X106283D01*
Y40297D01*
X106383D01*
Y40396D01*
X106483D01*
Y40497D01*
X106683D01*
Y40597D01*
X106783D01*
Y40696D01*
Y40797D01*
Y40896D01*
Y40997D01*
Y41096D01*
Y41197D01*
Y41296D01*
Y41396D01*
D02*
G37*
G36*
X106583Y39296D02*
X106483D01*
Y39197D01*
X106383D01*
Y39097D01*
X106283D01*
Y38996D01*
X106083D01*
Y38897D01*
X105983D01*
Y38796D01*
X105883D01*
Y38697D01*
X105783D01*
Y38596D01*
X105683D01*
Y38497D01*
X105583D01*
Y38396D01*
X105383D01*
Y38296D01*
X105283D01*
Y38197D01*
X105183D01*
Y38096D01*
X105083D01*
Y37997D01*
X104983D01*
Y37896D01*
X104883D01*
Y37797D01*
X104683D01*
Y37696D01*
X104583D01*
Y37596D01*
X104483D01*
Y37497D01*
X104383D01*
Y37396D01*
X104283D01*
Y37297D01*
X104183D01*
Y37196D01*
X104083D01*
Y37097D01*
X103983D01*
Y36996D01*
X103783D01*
Y36896D01*
X103683D01*
Y36797D01*
Y36696D01*
X103883D01*
Y36597D01*
X103983D01*
Y36496D01*
X104083D01*
Y36397D01*
X104183D01*
Y36296D01*
X104283D01*
Y36197D01*
X104383D01*
Y36097D01*
X104583D01*
Y35996D01*
X104683D01*
Y35897D01*
X104783D01*
Y35796D01*
X104883D01*
Y35697D01*
X104983D01*
Y35596D01*
X105083D01*
Y35497D01*
X105283D01*
Y35397D01*
X105383D01*
Y35296D01*
X105483D01*
Y35197D01*
X105583D01*
Y35096D01*
X105683D01*
Y34997D01*
X105783D01*
Y34896D01*
X105883D01*
Y34797D01*
X106083D01*
Y34896D01*
Y34997D01*
Y35096D01*
Y35197D01*
X106183D01*
Y35296D01*
Y35397D01*
Y35497D01*
Y35596D01*
Y35697D01*
Y35796D01*
Y35897D01*
Y35996D01*
Y36097D01*
X106283D01*
Y36197D01*
Y36296D01*
Y36397D01*
Y36496D01*
Y36597D01*
Y36696D01*
Y36797D01*
Y36896D01*
Y36996D01*
X106383D01*
Y37097D01*
Y37196D01*
Y37297D01*
Y37396D01*
Y37497D01*
Y37596D01*
Y37696D01*
Y37797D01*
Y37896D01*
X106483D01*
Y37997D01*
Y38096D01*
Y38197D01*
Y38296D01*
Y38396D01*
Y38497D01*
Y38596D01*
Y38697D01*
X106583D01*
Y38796D01*
Y38897D01*
Y38996D01*
Y39097D01*
Y39197D01*
Y39296D01*
D02*
G37*
G36*
X99483D02*
X99383D01*
Y39197D01*
Y39097D01*
Y38996D01*
X99483D01*
Y38897D01*
Y38796D01*
Y38697D01*
Y38596D01*
Y38497D01*
Y38396D01*
Y38296D01*
Y38197D01*
Y38096D01*
X99583D01*
Y37997D01*
Y37896D01*
Y37797D01*
Y37696D01*
Y37596D01*
Y37497D01*
Y37396D01*
X99683D01*
Y37297D01*
Y37196D01*
Y37097D01*
Y36996D01*
Y36896D01*
Y36797D01*
Y36696D01*
Y36597D01*
Y36496D01*
Y36397D01*
X99783D01*
Y36296D01*
Y36197D01*
Y36097D01*
Y35996D01*
Y35897D01*
Y35796D01*
Y35697D01*
Y35596D01*
Y35497D01*
X99883D01*
Y35397D01*
Y35296D01*
Y35197D01*
Y35096D01*
Y34997D01*
Y34896D01*
Y34797D01*
X100083D01*
Y34896D01*
X100183D01*
Y34997D01*
X100283D01*
Y35096D01*
X100383D01*
Y35197D01*
X100483D01*
Y35296D01*
X100583D01*
Y35397D01*
X100783D01*
Y35497D01*
X100883D01*
Y35596D01*
X100983D01*
Y35697D01*
X101083D01*
Y35796D01*
X101183D01*
Y35897D01*
X101283D01*
Y35996D01*
X101383D01*
Y36097D01*
X101583D01*
Y36197D01*
X101683D01*
Y36296D01*
X101783D01*
Y36397D01*
X101883D01*
Y36496D01*
X101983D01*
Y36597D01*
X102083D01*
Y36696D01*
X102283D01*
Y36797D01*
Y36896D01*
X102183D01*
Y36996D01*
X102083D01*
Y37097D01*
X101883D01*
Y37196D01*
X101783D01*
Y37297D01*
X101683D01*
Y37396D01*
X101583D01*
Y37497D01*
X101483D01*
Y37596D01*
X101383D01*
Y37696D01*
X101283D01*
Y37797D01*
X101083D01*
Y37896D01*
X100983D01*
Y37997D01*
X100883D01*
Y38096D01*
X100783D01*
Y38197D01*
X100683D01*
Y38296D01*
X100583D01*
Y38396D01*
X100383D01*
Y38497D01*
X100283D01*
Y38596D01*
X100183D01*
Y38697D01*
X100083D01*
Y38796D01*
X99983D01*
Y38897D01*
X99883D01*
Y38996D01*
X99683D01*
Y39097D01*
X99583D01*
Y39197D01*
X99483D01*
Y39296D01*
D02*
G37*
G36*
X103083Y36197D02*
X102883D01*
Y36097D01*
X102783D01*
Y35996D01*
X102683D01*
Y35897D01*
X102583D01*
Y35796D01*
X102483D01*
Y35697D01*
X102283D01*
Y35596D01*
X102183D01*
Y35497D01*
X102083D01*
Y35397D01*
X101983D01*
Y35296D01*
X101883D01*
Y35197D01*
X101783D01*
Y35096D01*
X101583D01*
Y34997D01*
X101483D01*
Y34896D01*
X101383D01*
Y34797D01*
X101283D01*
Y34696D01*
X101183D01*
Y34596D01*
X101083D01*
Y34497D01*
X100883D01*
Y34396D01*
X100783D01*
Y34297D01*
X100683D01*
Y34196D01*
X100583D01*
Y34097D01*
X100483D01*
Y33996D01*
X100383D01*
Y33896D01*
X100283D01*
Y33797D01*
X100083D01*
Y33696D01*
Y33597D01*
Y33496D01*
Y33397D01*
Y33296D01*
Y33196D01*
Y33097D01*
Y32996D01*
Y32897D01*
X100183D01*
Y32796D01*
Y32697D01*
X100783D01*
Y32596D01*
X100983D01*
Y32497D01*
X101183D01*
Y32397D01*
X101283D01*
Y32296D01*
X101383D01*
Y32197D01*
Y32096D01*
X101483D01*
Y31997D01*
Y31896D01*
Y31797D01*
X105683D01*
Y31896D01*
X105783D01*
Y31997D01*
Y32096D01*
Y32197D01*
Y32296D01*
Y32397D01*
Y32497D01*
Y32596D01*
X105883D01*
Y32697D01*
Y32796D01*
Y32897D01*
Y32996D01*
Y33097D01*
Y33196D01*
Y33296D01*
Y33397D01*
Y33496D01*
X105983D01*
Y33597D01*
Y33696D01*
X105883D01*
Y33797D01*
X105683D01*
Y33896D01*
X105583D01*
Y33996D01*
X105483D01*
Y34097D01*
X105383D01*
Y34196D01*
X105283D01*
Y34297D01*
X105183D01*
Y34396D01*
X105083D01*
Y34497D01*
X104883D01*
Y34596D01*
X104783D01*
Y34696D01*
X104683D01*
Y34797D01*
X104583D01*
Y34896D01*
X104483D01*
Y34997D01*
X104383D01*
Y35096D01*
X104183D01*
Y35197D01*
X104083D01*
Y35296D01*
X103983D01*
Y35397D01*
X103883D01*
Y35497D01*
X103783D01*
Y35596D01*
X103683D01*
Y35697D01*
X103483D01*
Y35796D01*
X103383D01*
Y35897D01*
X103283D01*
Y35996D01*
X103183D01*
Y36097D01*
X103083D01*
Y36197D01*
D02*
G37*
G36*
X100783Y32296D02*
X100183D01*
Y32197D01*
X99983D01*
Y32096D01*
Y31997D01*
X99883D01*
Y31896D01*
Y31797D01*
Y31697D01*
Y31596D01*
X99983D01*
Y31497D01*
Y31396D01*
X100183D01*
Y31297D01*
X100783D01*
Y31396D01*
X100983D01*
Y31497D01*
Y31596D01*
X101083D01*
Y31697D01*
Y31797D01*
Y31896D01*
Y31997D01*
X100983D01*
Y32096D01*
Y32197D01*
X100783D01*
Y32296D01*
D02*
G37*
%LPD*%
G36*
X100683Y32096D02*
X100883D01*
Y31997D01*
Y31896D01*
X100983D01*
Y31797D01*
X100883D01*
Y31697D01*
Y31596D01*
X100783D01*
Y31497D01*
X100683D01*
Y31396D01*
X100283D01*
Y31497D01*
X100183D01*
Y31596D01*
X100083D01*
Y31697D01*
Y31797D01*
Y31896D01*
Y31997D01*
Y32096D01*
X100283D01*
Y32197D01*
X100683D01*
Y32096D01*
D02*
G37*
%LPC*%
G36*
X69228Y28441D02*
X67628D01*
Y28341D01*
X67128D01*
Y28241D01*
X66728D01*
Y28141D01*
X66228D01*
Y28041D01*
X66028D01*
Y27941D01*
X65628D01*
Y27841D01*
X65428D01*
Y27741D01*
X65328D01*
Y27641D01*
X65028D01*
Y27541D01*
X64928D01*
Y27441D01*
X64628D01*
Y27341D01*
X64528D01*
Y27241D01*
X64228D01*
Y27141D01*
Y27041D01*
X64128D01*
Y26941D01*
X63928D01*
Y26841D01*
X63828D01*
Y26741D01*
X63628D01*
Y26641D01*
X63528D01*
Y26541D01*
Y26441D01*
X63328D01*
Y26341D01*
X63228D01*
Y26241D01*
X63128D01*
Y26141D01*
X63028D01*
Y26041D01*
Y25941D01*
X62828D01*
Y25841D01*
X62728D01*
Y25741D01*
X62628D01*
Y25641D01*
Y25541D01*
X62528D01*
Y25440D01*
X62428D01*
Y25341D01*
Y25240D01*
X62228D01*
Y25141D01*
Y25041D01*
Y24940D01*
X62128D01*
Y24840D01*
X62028D01*
Y24740D01*
Y24641D01*
X61928D01*
Y24541D01*
Y24441D01*
X61828D01*
Y24340D01*
Y24240D01*
X61728D01*
Y24140D01*
Y24040D01*
X61628D01*
Y23941D01*
X61528D01*
Y23841D01*
Y23741D01*
Y23641D01*
Y23540D01*
X61428D01*
Y23440D01*
Y23340D01*
X61328D01*
Y23241D01*
Y23141D01*
Y23041D01*
Y22941D01*
X61228D01*
Y22840D01*
Y22740D01*
Y22640D01*
Y22540D01*
X61128D01*
Y22441D01*
Y22341D01*
Y22241D01*
X61028D01*
Y22140D01*
Y22040D01*
Y21940D01*
Y21840D01*
Y21741D01*
Y21641D01*
Y21541D01*
Y21441D01*
Y21340D01*
Y21240D01*
Y21140D01*
Y21041D01*
Y20941D01*
Y20841D01*
Y20741D01*
Y20640D01*
Y20540D01*
Y20440D01*
Y20340D01*
Y20241D01*
Y20141D01*
Y20041D01*
Y19940D01*
Y19840D01*
Y19740D01*
X61128D01*
Y19640D01*
Y19541D01*
Y19441D01*
Y19341D01*
X61228D01*
Y19241D01*
Y19140D01*
Y19040D01*
X61328D01*
Y18940D01*
Y18841D01*
Y18741D01*
Y18641D01*
Y18541D01*
X61428D01*
Y18440D01*
Y18340D01*
X61528D01*
Y18240D01*
Y18140D01*
Y18041D01*
X61628D01*
Y17941D01*
Y17841D01*
X61728D01*
Y17740D01*
X61828D01*
Y17640D01*
Y17540D01*
Y17440D01*
X61928D01*
Y17341D01*
X62028D01*
Y17241D01*
Y17141D01*
X62128D01*
Y17041D01*
Y16940D01*
X62228D01*
Y16840D01*
Y16740D01*
X62328D01*
Y16641D01*
X62428D01*
Y16541D01*
X62528D01*
Y16441D01*
Y16341D01*
X62728D01*
Y16240D01*
Y16140D01*
X62828D01*
Y16040D01*
X62928D01*
Y15940D01*
X63028D01*
Y15841D01*
X63128D01*
Y15741D01*
X63228D01*
Y15641D01*
X63328D01*
Y15540D01*
X63428D01*
Y15440D01*
X63528D01*
Y15340D01*
X63628D01*
Y15240D01*
X63728D01*
Y15141D01*
X63928D01*
Y15041D01*
X64028D01*
Y14941D01*
X64128D01*
Y14841D01*
X64328D01*
Y14740D01*
X64428D01*
Y14640D01*
X64728D01*
Y14540D01*
Y14441D01*
X65028D01*
Y14341D01*
X65228D01*
Y14241D01*
X65328D01*
Y14141D01*
X65728D01*
Y14040D01*
X65828D01*
Y13940D01*
X66228D01*
Y13840D01*
X66528D01*
Y13740D01*
X66828D01*
Y13641D01*
X67728D01*
Y13541D01*
X69128D01*
Y13641D01*
X70028D01*
Y13740D01*
X70328D01*
Y13840D01*
X70628D01*
Y13940D01*
X71028D01*
Y14040D01*
X71128D01*
Y14141D01*
X71528D01*
Y14241D01*
X71628D01*
Y14341D01*
X71828D01*
Y14441D01*
X72128D01*
Y14540D01*
Y14640D01*
X72428D01*
Y14740D01*
X72528D01*
Y14841D01*
X72728D01*
Y14941D01*
X72828D01*
Y15041D01*
X72928D01*
Y15141D01*
X73128D01*
Y15240D01*
Y15340D01*
X73328D01*
Y15440D01*
X73428D01*
Y15540D01*
X73528D01*
Y15641D01*
X73628D01*
Y15741D01*
X73728D01*
Y15841D01*
X73828D01*
Y15940D01*
X73928D01*
Y16040D01*
X74028D01*
Y16140D01*
X74128D01*
Y16240D01*
Y16341D01*
X74328D01*
Y16441D01*
Y16541D01*
Y16641D01*
X74528D01*
Y16740D01*
X74628D01*
Y16840D01*
Y16940D01*
X74728D01*
Y17041D01*
Y17141D01*
X74828D01*
Y17241D01*
Y17341D01*
X74928D01*
Y17440D01*
X75028D01*
Y17540D01*
Y17640D01*
Y17740D01*
X75128D01*
Y17841D01*
X75228D01*
Y17941D01*
Y18041D01*
X75328D01*
Y18140D01*
Y18240D01*
Y18340D01*
X75428D01*
Y18440D01*
Y18541D01*
X75528D01*
Y18641D01*
Y18741D01*
Y18841D01*
Y18940D01*
Y19040D01*
X75628D01*
Y19140D01*
Y19241D01*
Y19341D01*
X75728D01*
Y19441D01*
Y19541D01*
Y19640D01*
Y19740D01*
X75828D01*
Y19840D01*
Y19940D01*
Y20041D01*
Y20141D01*
Y20241D01*
Y20340D01*
Y20440D01*
Y20540D01*
Y20640D01*
Y20741D01*
Y20841D01*
Y20941D01*
Y21041D01*
Y21140D01*
Y21240D01*
Y21340D01*
Y21441D01*
Y21541D01*
Y21641D01*
Y21741D01*
Y21840D01*
Y21940D01*
Y22040D01*
Y22140D01*
Y22241D01*
X75728D01*
Y22341D01*
Y22441D01*
Y22540D01*
X75628D01*
Y22640D01*
Y22740D01*
Y22840D01*
X75528D01*
Y22941D01*
Y23041D01*
Y23141D01*
Y23241D01*
Y23340D01*
X75428D01*
Y23440D01*
Y23540D01*
X75328D01*
Y23641D01*
Y23741D01*
Y23841D01*
Y23941D01*
X75228D01*
Y24040D01*
X75128D01*
Y24140D01*
Y24240D01*
X75028D01*
Y24340D01*
Y24441D01*
X74928D01*
Y24541D01*
Y24641D01*
X74828D01*
Y24740D01*
Y24840D01*
X74728D01*
Y24940D01*
X74628D01*
Y25041D01*
Y25141D01*
Y25240D01*
X74428D01*
Y25341D01*
Y25440D01*
X74328D01*
Y25541D01*
X74228D01*
Y25641D01*
X74128D01*
Y25741D01*
Y25841D01*
X74028D01*
Y25941D01*
X73828D01*
Y26041D01*
Y26141D01*
X73728D01*
Y26241D01*
X73628D01*
Y26341D01*
X73528D01*
Y26441D01*
X73328D01*
Y26541D01*
Y26641D01*
X73228D01*
Y26741D01*
X73028D01*
Y26841D01*
X72928D01*
Y26941D01*
X72728D01*
Y27041D01*
X72628D01*
Y27141D01*
X72528D01*
Y27241D01*
X72328D01*
Y27341D01*
X72228D01*
Y27441D01*
X71928D01*
Y27541D01*
X71828D01*
Y27641D01*
X71528D01*
Y27741D01*
X71428D01*
Y27841D01*
X71228D01*
Y27941D01*
X70828D01*
Y28041D01*
X70628D01*
Y28141D01*
X70128D01*
Y28241D01*
X69728D01*
Y28341D01*
X69228D01*
Y28441D01*
D02*
G37*
%LPD*%
G36*
X65728Y26841D02*
Y26741D01*
X65928D01*
Y26641D01*
Y26541D01*
X66028D01*
Y26441D01*
X66228D01*
Y26341D01*
Y26241D01*
X66428D01*
Y26141D01*
Y26041D01*
X66528D01*
Y25941D01*
X66728D01*
Y25841D01*
Y25741D01*
X66828D01*
Y25641D01*
X66928D01*
Y25541D01*
Y25440D01*
X67028D01*
Y25341D01*
Y25240D01*
X67228D01*
Y25141D01*
Y25041D01*
Y24940D01*
X67328D01*
Y24840D01*
X67428D01*
Y24740D01*
Y24641D01*
X67528D01*
Y24541D01*
Y24441D01*
X67628D01*
Y24340D01*
X67728D01*
Y24240D01*
Y24140D01*
X67828D01*
Y24040D01*
X67928D01*
Y23941D01*
Y23841D01*
Y23741D01*
X68028D01*
Y23641D01*
Y23540D01*
X68128D01*
Y23440D01*
X68228D01*
Y23340D01*
Y23241D01*
Y23141D01*
X68328D01*
Y23041D01*
X68428D01*
Y22941D01*
Y22840D01*
Y22740D01*
X68528D01*
Y22640D01*
Y22540D01*
X68628D01*
Y22441D01*
Y22341D01*
Y22241D01*
X68728D01*
Y22140D01*
Y22040D01*
X68828D01*
Y21940D01*
X68928D01*
Y21840D01*
Y21741D01*
Y21641D01*
X69028D01*
Y21541D01*
X69128D01*
Y21441D01*
Y21340D01*
Y21240D01*
X69228D01*
Y21140D01*
X69428D01*
Y21240D01*
X69528D01*
Y21340D01*
Y21441D01*
X69628D01*
Y21541D01*
Y21641D01*
Y21741D01*
X69728D01*
Y21840D01*
X69828D01*
Y21940D01*
Y22040D01*
X69928D01*
Y22140D01*
Y22241D01*
Y22341D01*
X70028D01*
Y22441D01*
Y22540D01*
X70128D01*
Y22640D01*
Y22740D01*
Y22840D01*
X70228D01*
Y22941D01*
Y23041D01*
X70328D01*
Y22941D01*
X70528D01*
Y22840D01*
X70628D01*
Y22740D01*
X70828D01*
Y22640D01*
X70928D01*
Y22540D01*
X71128D01*
Y22441D01*
Y22341D01*
X71228D01*
Y22241D01*
X71428D01*
Y22140D01*
X71528D01*
Y22040D01*
X71628D01*
Y21940D01*
X71728D01*
Y21840D01*
X71828D01*
Y21741D01*
X71928D01*
Y21641D01*
Y21541D01*
X71828D01*
Y21441D01*
X71728D01*
Y21340D01*
X71628D01*
Y21240D01*
X71528D01*
Y21140D01*
X71428D01*
Y21041D01*
X71228D01*
Y20941D01*
X71128D01*
Y20841D01*
X71028D01*
Y20741D01*
X70928D01*
Y20640D01*
Y20540D01*
X70728D01*
Y20440D01*
X70628D01*
Y20340D01*
X70428D01*
Y20241D01*
Y20141D01*
X70328D01*
Y20041D01*
X70228D01*
Y19940D01*
X70128D01*
Y19840D01*
X70028D01*
Y19740D01*
X69928D01*
Y19640D01*
Y19541D01*
X69828D01*
Y19441D01*
X69728D01*
Y19341D01*
X69628D01*
Y19241D01*
Y19140D01*
Y19040D01*
X69428D01*
Y18940D01*
Y18841D01*
X69328D01*
Y18741D01*
Y18641D01*
X69128D01*
Y18741D01*
Y18841D01*
Y18940D01*
X69028D01*
Y19040D01*
X68928D01*
Y19140D01*
Y19241D01*
Y19341D01*
X68828D01*
Y19441D01*
Y19541D01*
X68728D01*
Y19640D01*
X68628D01*
Y19740D01*
Y19840D01*
X68528D01*
Y19940D01*
Y20041D01*
X68428D01*
Y20141D01*
Y20241D01*
Y20340D01*
X68228D01*
Y20440D01*
Y20540D01*
Y20640D01*
X68128D01*
Y20741D01*
X68028D01*
Y20841D01*
X67928D01*
Y20941D01*
Y21041D01*
X67828D01*
Y21140D01*
X67728D01*
Y21240D01*
Y21340D01*
X67628D01*
Y21441D01*
Y21541D01*
X67428D01*
Y21641D01*
Y21741D01*
X67328D01*
Y21840D01*
X67228D01*
Y21940D01*
Y22040D01*
X67128D01*
Y22140D01*
X67028D01*
Y22241D01*
X66928D01*
Y22341D01*
Y22441D01*
X66828D01*
Y22540D01*
X66728D01*
Y22640D01*
Y22740D01*
X66528D01*
Y22840D01*
X66428D01*
Y22941D01*
Y23041D01*
X66228D01*
Y23141D01*
Y23241D01*
X66028D01*
Y23340D01*
X65928D01*
Y23440D01*
Y23540D01*
X65728D01*
Y23641D01*
X65628D01*
Y23741D01*
X65428D01*
Y23841D01*
Y23941D01*
Y24040D01*
Y24140D01*
Y24240D01*
Y24340D01*
Y24441D01*
Y24541D01*
Y24641D01*
Y24740D01*
Y24840D01*
Y24940D01*
Y25041D01*
Y25141D01*
Y25240D01*
Y25341D01*
Y25440D01*
Y25541D01*
Y25641D01*
Y25741D01*
Y25841D01*
Y25941D01*
Y26041D01*
Y26141D01*
Y26241D01*
Y26341D01*
Y26441D01*
Y26541D01*
Y26641D01*
Y26741D01*
Y26841D01*
Y26941D01*
X65728D01*
Y26841D01*
D02*
G37*
G36*
X68028Y18641D02*
Y18541D01*
Y18440D01*
Y18340D01*
Y18240D01*
Y18140D01*
Y18041D01*
Y17941D01*
Y17841D01*
Y17740D01*
Y17640D01*
Y17540D01*
Y17440D01*
Y17341D01*
Y17241D01*
Y17141D01*
Y17041D01*
Y16940D01*
Y16840D01*
Y16740D01*
Y16641D01*
Y16541D01*
Y16441D01*
Y16341D01*
Y16240D01*
Y16140D01*
Y16040D01*
Y15940D01*
Y15841D01*
Y15741D01*
X67728D01*
Y15841D01*
Y15940D01*
Y16040D01*
Y16140D01*
Y16240D01*
Y16341D01*
Y16441D01*
Y16541D01*
Y16641D01*
Y16740D01*
Y16840D01*
Y16940D01*
Y17041D01*
Y17141D01*
X66428D01*
Y17041D01*
Y16940D01*
Y16840D01*
Y16740D01*
Y16641D01*
Y16541D01*
Y16441D01*
Y16341D01*
Y16240D01*
Y16140D01*
Y16040D01*
Y15940D01*
Y15841D01*
Y15741D01*
X66128D01*
Y15841D01*
Y15940D01*
Y16040D01*
Y16140D01*
Y16240D01*
Y16341D01*
Y16441D01*
Y16541D01*
Y16641D01*
Y16740D01*
Y16840D01*
Y16940D01*
Y17041D01*
Y17141D01*
Y17241D01*
Y17341D01*
Y17440D01*
Y17540D01*
Y17640D01*
Y17740D01*
Y17841D01*
Y17941D01*
Y18041D01*
Y18140D01*
Y18240D01*
Y18340D01*
Y18440D01*
Y18541D01*
Y18641D01*
Y18741D01*
X66228D01*
Y18641D01*
X66428D01*
Y18541D01*
Y18440D01*
Y18340D01*
Y18240D01*
Y18140D01*
Y18041D01*
Y17941D01*
Y17841D01*
Y17740D01*
Y17640D01*
Y17540D01*
Y17440D01*
X67728D01*
Y17540D01*
Y17640D01*
Y17740D01*
Y17841D01*
Y17941D01*
Y18041D01*
Y18140D01*
Y18240D01*
Y18340D01*
Y18440D01*
Y18541D01*
Y18641D01*
X67928D01*
Y18741D01*
X68028D01*
Y18641D01*
D02*
G37*
G36*
X73028D02*
Y18541D01*
Y18440D01*
Y18340D01*
Y18240D01*
Y18140D01*
Y18041D01*
Y17941D01*
Y17841D01*
Y17740D01*
Y17640D01*
Y17540D01*
Y17440D01*
Y17341D01*
Y17241D01*
Y17141D01*
Y17041D01*
Y16940D01*
Y16840D01*
Y16740D01*
Y16641D01*
Y16541D01*
Y16441D01*
Y16341D01*
Y16240D01*
Y16140D01*
Y16040D01*
Y15940D01*
Y15841D01*
Y15741D01*
X72628D01*
Y15841D01*
Y15940D01*
Y16040D01*
Y16140D01*
Y16240D01*
Y16341D01*
Y16441D01*
Y16541D01*
Y16641D01*
Y16740D01*
Y16840D01*
Y16940D01*
Y17041D01*
X72128D01*
Y16940D01*
X71828D01*
Y16840D01*
X71728D01*
Y16740D01*
Y16641D01*
X71628D01*
Y16541D01*
Y16441D01*
Y16341D01*
X71528D01*
Y16240D01*
X71428D01*
Y16140D01*
Y16040D01*
Y15940D01*
X71328D01*
Y15841D01*
X71228D01*
Y15741D01*
X70928D01*
Y15841D01*
Y15940D01*
X71028D01*
Y16040D01*
Y16140D01*
X71128D01*
Y16240D01*
Y16341D01*
X71228D01*
Y16441D01*
Y16541D01*
X71328D01*
Y16641D01*
X71428D01*
Y16740D01*
Y16840D01*
X71528D01*
Y16940D01*
X71628D01*
Y17041D01*
X71728D01*
Y17141D01*
X71628D01*
Y17241D01*
X71528D01*
Y17341D01*
X71328D01*
Y17440D01*
Y17540D01*
X71228D01*
Y17640D01*
Y17740D01*
Y17841D01*
Y17941D01*
Y18041D01*
Y18140D01*
Y18240D01*
X71328D01*
Y18340D01*
X71428D01*
Y18440D01*
Y18541D01*
X71728D01*
Y18641D01*
X72828D01*
Y18741D01*
X73028D01*
Y18641D01*
D02*
G37*
G36*
X69928Y17841D02*
X70128D01*
Y17740D01*
X70228D01*
Y17640D01*
X70428D01*
Y17540D01*
Y17440D01*
Y17341D01*
Y17241D01*
Y17141D01*
X70528D01*
Y17041D01*
Y16940D01*
Y16840D01*
Y16740D01*
Y16641D01*
X70428D01*
Y16541D01*
Y16441D01*
Y16341D01*
Y16240D01*
Y16140D01*
X70328D01*
Y16040D01*
Y15940D01*
X70228D01*
Y15841D01*
X70028D01*
Y15741D01*
X69828D01*
Y15641D01*
X69428D01*
Y15741D01*
X69128D01*
Y15841D01*
X68928D01*
Y15940D01*
Y16040D01*
X68828D01*
Y16140D01*
X68728D01*
Y16240D01*
Y16341D01*
X68628D01*
Y16441D01*
Y16541D01*
Y16641D01*
Y16740D01*
Y16840D01*
Y16940D01*
Y17041D01*
Y17141D01*
Y17241D01*
Y17341D01*
X68728D01*
Y17440D01*
Y17540D01*
X68828D01*
Y17640D01*
X68928D01*
Y17740D01*
Y17841D01*
X69128D01*
Y17941D01*
X69928D01*
Y17841D01*
D02*
G37*
G36*
X64928Y18641D02*
X65028D01*
Y18541D01*
X65228D01*
Y18440D01*
X65328D01*
Y18340D01*
X65428D01*
Y18240D01*
Y18140D01*
Y18041D01*
Y17941D01*
Y17841D01*
Y17740D01*
Y17640D01*
Y17540D01*
Y17440D01*
X65328D01*
Y17341D01*
X65128D01*
Y17241D01*
X65028D01*
Y17141D01*
X64528D01*
Y17041D01*
X64228D01*
Y16940D01*
X64128D01*
Y16840D01*
X64028D01*
Y16740D01*
Y16641D01*
Y16541D01*
Y16441D01*
Y16341D01*
Y16240D01*
Y16140D01*
X64228D01*
Y16040D01*
Y15940D01*
X65028D01*
Y16040D01*
X65228D01*
Y16140D01*
X65428D01*
Y16040D01*
Y15940D01*
Y15841D01*
X65228D01*
Y15741D01*
X65028D01*
Y15641D01*
X64328D01*
Y15741D01*
X64028D01*
Y15841D01*
X63828D01*
Y15940D01*
X63728D01*
Y16040D01*
Y16140D01*
Y16240D01*
X63628D01*
Y16341D01*
Y16441D01*
Y16541D01*
Y16641D01*
Y16740D01*
Y16840D01*
X63728D01*
Y16940D01*
Y17041D01*
X63828D01*
Y17141D01*
X64028D01*
Y17241D01*
X64128D01*
Y17341D01*
X64528D01*
Y17440D01*
X64828D01*
Y17540D01*
X65028D01*
Y17640D01*
X65128D01*
Y17740D01*
X65228D01*
Y17841D01*
Y17941D01*
Y18041D01*
Y18140D01*
X65128D01*
Y18240D01*
X65028D01*
Y18340D01*
X64928D01*
Y18440D01*
X64128D01*
Y18340D01*
X63728D01*
Y18440D01*
Y18541D01*
X63928D01*
Y18641D01*
X64128D01*
Y18741D01*
X64928D01*
Y18641D01*
D02*
G37*
%LPC*%
G36*
X72628Y18440D02*
X72028D01*
Y18340D01*
X71728D01*
Y18240D01*
X71628D01*
Y18140D01*
Y18041D01*
Y17941D01*
Y17841D01*
Y17740D01*
Y17640D01*
Y17540D01*
Y17440D01*
X71728D01*
Y17341D01*
X72628D01*
Y17440D01*
Y17540D01*
Y17640D01*
Y17740D01*
Y17841D01*
Y17941D01*
Y18041D01*
Y18140D01*
Y18240D01*
Y18340D01*
Y18440D01*
D02*
G37*
G36*
X69828Y17740D02*
X69328D01*
Y17640D01*
X69128D01*
Y17540D01*
Y17440D01*
X69028D01*
Y17341D01*
Y17241D01*
X68928D01*
Y17141D01*
Y17041D01*
Y16940D01*
Y16840D01*
Y16740D01*
Y16641D01*
Y16541D01*
Y16441D01*
X69028D01*
Y16341D01*
Y16240D01*
X69128D01*
Y16140D01*
Y16040D01*
X69328D01*
Y15940D01*
X69528D01*
Y15841D01*
X69628D01*
Y15940D01*
X69928D01*
Y16040D01*
Y16140D01*
X70128D01*
Y16240D01*
Y16341D01*
Y16441D01*
Y16541D01*
Y16641D01*
Y16740D01*
Y16840D01*
Y16940D01*
Y17041D01*
Y17141D01*
Y17241D01*
Y17341D01*
Y17440D01*
X70028D01*
Y17540D01*
Y17640D01*
X69828D01*
Y17740D01*
D02*
G37*
%LPD*%
D10*
X63673Y6721D02*
G03*
X63673Y6721I-166J0D01*
G01*
X43085Y150626D02*
G03*
X43085Y150626I-278J0D01*
G01*
X35200Y80923D02*
G03*
X35200Y80923I-166J0D01*
G01*
X72952Y144159D02*
G03*
X72952Y144159I-200J0D01*
G01*
X115132Y69077D02*
G03*
X115132Y69077I-166J0D01*
G01*
X97415Y46243D02*
G03*
X97415Y46243I-166J0D01*
G01*
X115525D02*
G03*
X115525Y46243I-166J0D01*
G01*
X51575Y139370D02*
Y148818D01*
X42913Y139370D02*
Y148818D01*
X28346Y81103D02*
X33858D01*
X28346Y70079D02*
X33858D01*
X48819Y4626D02*
Y5808D01*
X37007Y4626D02*
Y5808D01*
X48819Y15256D02*
Y16438D01*
X37007Y15256D02*
Y16438D01*
X47637Y4626D02*
X48819D01*
X37007D02*
X38189D01*
X47637Y16438D02*
X48819D01*
X37007D02*
X38189D01*
X127559Y14665D02*
X129527D01*
X93012Y130500D02*
X131201D01*
X93012Y125972D02*
Y130500D01*
X93012Y102449D02*
Y117114D01*
X93012Y83256D02*
Y93590D01*
Y83256D02*
X95472D01*
X115453Y83157D02*
X133071Y83256D01*
X100689Y83256D02*
X110138D01*
X20571Y14763D02*
X22539D01*
X35729Y28740D02*
Y30708D01*
X116142Y68897D02*
X121654D01*
X116142Y79921D02*
X121654D01*
X98425Y46063D02*
X103937D01*
X98425Y57087D02*
X103937D01*
X116535Y46063D02*
X122047D01*
X116535Y57087D02*
X122047D01*
X7776Y10039D02*
Y12008D01*
X14665Y107087D02*
Y109449D01*
X7579Y107087D02*
Y109449D01*
X91240Y77362D02*
X93208D01*
X27067Y27067D02*
X29035D01*
D12*
X77207Y11188D02*
G03*
X77207Y11188I-394J0D01*
G01*
X37402Y17618D02*
G03*
X37402Y17618I-394J0D01*
G01*
X63189Y9055D02*
Y11023D01*
X54921D02*
X63189D01*
X54921Y9055D02*
Y11023D01*
Y9055D02*
X63189D01*
X99902Y65945D02*
X102854D01*
X99902Y58071D02*
Y65945D01*
Y58071D02*
X102854D01*
Y65945D01*
X104232Y66536D02*
X107185D01*
X116733Y65945D02*
X119685D01*
X116733Y58071D02*
Y65945D01*
Y58071D02*
X119685D01*
Y65945D01*
X121063Y66536D02*
X124016D01*
X87402Y153052D02*
Y156004D01*
X79528D02*
X87402D01*
X79528Y153052D02*
Y156004D01*
Y153052D02*
X87402D01*
X87993Y148721D02*
Y151674D01*
X83170Y146949D02*
X86122D01*
X83170Y139075D02*
Y146949D01*
Y139075D02*
X86122D01*
Y146949D01*
X87500Y147540D02*
X90453D01*
X91141Y63189D02*
X94094D01*
X89763Y54724D02*
Y62598D01*
X86811Y54724D02*
X89763D01*
X86811D02*
Y62598D01*
X89763D01*
D13*
X129626Y10728D02*
Y11515D01*
X127460Y10728D02*
Y11515D01*
X86614Y134153D02*
Y134547D01*
X84252Y134153D02*
Y134547D01*
X87599Y33465D02*
X88976D01*
X87599Y37402D02*
X88976D01*
X92028Y65453D02*
X92815D01*
X92028Y67618D02*
X92815D01*
X66634Y7776D02*
Y8169D01*
X64272Y7776D02*
Y8169D01*
X29921Y4823D02*
X30315D01*
X29921Y7185D02*
X30315D01*
X85728Y44685D02*
Y45472D01*
X83563Y44685D02*
Y45472D01*
X28346Y64764D02*
X29134D01*
X28346Y62598D02*
X29134D01*
X20472Y10826D02*
Y11614D01*
X22637Y10826D02*
Y11614D01*
X81102Y110039D02*
Y110433D01*
X83465Y110039D02*
Y110433D01*
X87500Y134153D02*
Y134547D01*
X89862Y134153D02*
Y134547D01*
X85102Y120394D02*
X85496D01*
X85102Y118032D02*
X85496D01*
X66437Y83858D02*
Y84252D01*
X68799Y83858D02*
Y84252D01*
X87106Y91634D02*
Y92028D01*
X89468Y91634D02*
Y92028D01*
X29527Y12598D02*
X30315D01*
X29527Y14764D02*
X30315D01*
X29528Y8661D02*
X30315D01*
X29528Y10827D02*
X30315D01*
X29527Y17323D02*
X30315D01*
X29527Y19489D02*
X30315D01*
X43908Y21267D02*
X44302D01*
X43908Y18905D02*
X44302D01*
X38878Y30807D02*
X39666D01*
X38878Y28641D02*
X39666D01*
X86024Y38583D02*
X86417D01*
X86024Y40945D02*
X86417D01*
X72933Y61516D02*
Y61910D01*
X70571Y61516D02*
Y61910D01*
X83206Y69420D02*
Y69814D01*
X85568Y69420D02*
Y69814D01*
X52226Y139526D02*
Y140313D01*
X54391Y139526D02*
Y140313D01*
X58268Y139469D02*
Y140256D01*
X60433Y139469D02*
Y140256D01*
X55315Y139469D02*
Y140256D01*
X57480Y139469D02*
Y140256D01*
X32382Y131595D02*
X33169D01*
X32382Y129429D02*
X33169D01*
X63484Y143209D02*
Y143996D01*
X61319Y143209D02*
Y143996D01*
X66339Y152165D02*
Y152953D01*
X68504Y152165D02*
Y152953D01*
X66535Y143209D02*
Y143996D01*
X64370Y143209D02*
Y143996D01*
X75394Y152461D02*
Y153248D01*
X77559Y152461D02*
Y153248D01*
X91339Y167224D02*
Y167618D01*
X88976Y167224D02*
Y167618D01*
X97539Y172244D02*
X98721D01*
X97539Y166929D02*
X98721D01*
X80020Y167126D02*
Y167520D01*
X77658Y167126D02*
Y167520D01*
X70276Y167224D02*
Y167618D01*
X67913Y167224D02*
Y167618D01*
X60335Y167224D02*
Y167618D01*
X57972Y167224D02*
Y167618D01*
X54331Y167224D02*
Y167618D01*
X51968Y167224D02*
Y167618D01*
X52559Y156004D02*
X53347D01*
X52559Y158169D02*
X53347D01*
X52559Y159449D02*
X53347D01*
X52559Y161614D02*
X53347D01*
X87795Y167224D02*
Y167618D01*
X85433Y167224D02*
Y167618D01*
X35974Y46411D02*
Y47199D01*
X38139Y46411D02*
Y47199D01*
X29429Y61811D02*
X29823D01*
X29429Y59449D02*
X29823D01*
X38976Y54331D02*
X40157D01*
X38976Y59646D02*
X40157D01*
X29240Y53158D02*
X30421D01*
X29240Y47842D02*
X30421D01*
X27661Y44295D02*
X28054D01*
X27661Y46657D02*
X28054D01*
X45374Y63189D02*
Y63976D01*
X43209Y63189D02*
Y63976D01*
X42815Y44882D02*
X43602D01*
X42815Y47047D02*
X43602D01*
X36220Y64173D02*
X36614D01*
X36220Y61811D02*
X36614D01*
X10926Y12106D02*
X11713D01*
X10926Y9941D02*
X11713D01*
X111221Y66339D02*
X112008D01*
X111221Y64173D02*
X112008D01*
X11713Y116535D02*
Y116929D01*
X14075Y116535D02*
Y116929D01*
X20276Y109547D02*
Y109941D01*
X17913Y109547D02*
Y109941D01*
X25787Y111417D02*
X26181D01*
X25787Y109055D02*
X26181D01*
X42815Y48524D02*
X43209D01*
X42815Y50886D02*
X43209D01*
X72441Y83858D02*
Y84252D01*
X70079Y83858D02*
Y84252D01*
X59842Y80905D02*
Y82087D01*
X65158Y80905D02*
Y82087D01*
X77854Y84252D02*
Y84646D01*
X75492Y84252D02*
Y84646D01*
X86319Y127165D02*
Y127559D01*
X83957Y127165D02*
Y127559D01*
X38583Y143504D02*
Y143898D01*
X40945Y143504D02*
Y143898D01*
X22736Y100492D02*
X23130D01*
X22736Y102854D02*
X23130D01*
X51681Y112929D02*
X52075D01*
X51681Y110567D02*
X52075D01*
X73327Y112402D02*
Y112795D01*
X75689Y112402D02*
Y112795D01*
X76968Y134744D02*
X78150D01*
X76968Y129429D02*
X78150D01*
X90158Y107972D02*
Y109153D01*
X84842Y107972D02*
Y109153D01*
X84646Y167224D02*
Y167618D01*
X82284Y167224D02*
Y167618D01*
X43110Y168209D02*
X44292D01*
X43110Y173523D02*
X44292D01*
X91831Y142618D02*
Y143405D01*
X93996Y142618D02*
Y143405D01*
X96161Y151673D02*
Y152461D01*
X93996Y151673D02*
Y152461D01*
X93307Y73425D02*
Y74212D01*
X91141Y73425D02*
Y74212D01*
X71555Y46752D02*
Y47933D01*
X66240Y46752D02*
Y47933D01*
X79822Y32875D02*
Y34056D01*
X74507Y32875D02*
Y34056D01*
X79823Y71752D02*
Y72933D01*
X74508Y71752D02*
Y72933D01*
X29724Y1280D02*
X30512D01*
X29724Y3445D02*
X30512D01*
X118422Y32745D02*
X118815D01*
X118422Y35107D02*
X118815D01*
X118079Y38222D02*
X118866D01*
X118079Y36057D02*
X118866D01*
X28839Y56496D02*
X29232D01*
X28839Y54134D02*
X29232D01*
X67224Y7776D02*
Y8169D01*
X69587Y7776D02*
Y8169D01*
X78248Y8071D02*
Y8465D01*
X80610Y8071D02*
Y8465D01*
X51575Y5020D02*
Y5413D01*
X53937Y5020D02*
Y5413D01*
X55610Y15354D02*
X56004D01*
X55610Y17717D02*
X56004D01*
X89370Y51181D02*
X90158D01*
X89370Y53347D02*
X90158D01*
X29133Y23130D02*
Y23917D01*
X26968Y23130D02*
Y23917D01*
X59744Y4626D02*
X60138D01*
X59744Y2264D02*
X60138D01*
D16*
X113386Y69685D02*
G03*
X112992Y69685I-197J0D01*
G01*
D02*
G03*
X113386Y69685I197J0D01*
G01*
X27855Y131497D02*
G03*
X27855Y131103I0J-197D01*
G01*
D02*
G03*
X27855Y131497I0J197D01*
G01*
X67579Y143504D02*
X72225D01*
X67579Y136812D02*
Y143504D01*
Y136812D02*
X72225D01*
Y143504D01*
X111023Y71654D02*
Y74016D01*
X96063Y71654D02*
Y74016D01*
X23524Y129134D02*
X25886D01*
X23524Y114174D02*
X25886D01*
D17*
X20079Y79921D02*
X21654Y81496D01*
X23622Y83465D02*
X24409Y84252D01*
X35039D01*
Y104331D01*
X48819D01*
Y66535D02*
Y104331D01*
X22933Y70472D02*
Y72047D01*
X24803Y12205D02*
Y12598D01*
X22933Y20472D02*
Y22047D01*
Y30709D02*
Y32283D01*
Y40551D02*
Y42126D01*
Y50787D02*
Y52362D01*
Y61024D02*
Y62598D01*
X18504Y86614D02*
X24016Y81102D01*
X6299Y86614D02*
X18504D01*
X6299Y82677D02*
Y86614D01*
D19*
X45825Y68801D02*
X46278Y69254D01*
X47185D01*
X47638Y68801D01*
Y66988D01*
X47185Y66535D01*
X46278D01*
X45825Y66988D01*
Y67895D01*
X46732D01*
X44919Y66535D02*
Y69254D01*
X43106Y66535D01*
Y69254D01*
X42200D02*
Y66535D01*
X40840D01*
X40387Y66988D01*
Y68801D01*
X40840Y69254D01*
X42200D01*
X47638Y71335D02*
Y74054D01*
X46278D01*
X45825Y73601D01*
Y72695D01*
X46278Y72241D01*
X47638D01*
X46732D02*
X45825Y71335D01*
X44919D02*
Y73148D01*
X44012Y74054D01*
X43106Y73148D01*
Y71335D01*
Y72695D01*
X44919D01*
X42200Y74054D02*
Y71335D01*
X41293Y72241D01*
X40387Y71335D01*
Y74054D01*
X47638Y76135D02*
Y78854D01*
X46278D01*
X45825Y78401D01*
Y77495D01*
X46278Y77041D01*
X47638D01*
X44919Y78854D02*
Y76135D01*
X43559D01*
X43106Y76588D01*
Y77041D01*
X43559Y77495D01*
X44919D01*
X43559D01*
X43106Y77948D01*
Y78401D01*
X43559Y78854D01*
X44919D01*
X42200D02*
X40387D01*
X41293D01*
Y76135D01*
X39481D02*
Y78854D01*
X37668Y76135D01*
Y78854D01*
X45825Y83654D02*
X47638D01*
Y80935D01*
X45825D01*
X47638Y82295D02*
X46732D01*
X44919Y83654D02*
X43106D01*
X44012D01*
Y80935D01*
X42200Y83654D02*
X40387Y80935D01*
Y83654D02*
X42200Y80935D01*
X39481D02*
Y83654D01*
X38121D01*
X37668Y83201D01*
Y82295D01*
X38121Y81841D01*
X39481D01*
X45825Y88454D02*
X47638D01*
Y85735D01*
X45825D01*
X47638Y87095D02*
X46732D01*
X44919Y88454D02*
X43106D01*
X44012D01*
Y85735D01*
X42200Y88454D02*
X40387Y85735D01*
Y88454D02*
X42200Y85735D01*
X39481D02*
Y88454D01*
X37668Y85735D01*
Y88454D01*
X45825Y93254D02*
X47638D01*
Y90535D01*
X45825D01*
X47638Y91895D02*
X46732D01*
X44919Y90535D02*
Y93254D01*
X43559D01*
X43106Y92801D01*
Y91895D01*
X43559Y91441D01*
X44919D01*
X44012D02*
X43106Y90535D01*
X42200Y93254D02*
X40387Y90535D01*
Y93254D02*
X42200Y90535D01*
X39481D02*
Y93254D01*
X38121D01*
X37668Y92801D01*
Y91895D01*
X38121Y91441D01*
X39481D01*
X45825Y98054D02*
X47638D01*
Y95335D01*
X45825D01*
X47638Y96695D02*
X46732D01*
X44919Y95335D02*
Y98054D01*
X43559D01*
X43106Y97601D01*
Y96695D01*
X43559Y96241D01*
X44919D01*
X44012D02*
X43106Y95335D01*
X42200Y98054D02*
X40387Y95335D01*
Y98054D02*
X42200Y95335D01*
X39481D02*
Y98054D01*
X37668Y95335D01*
Y98054D01*
X45825Y102854D02*
X47638D01*
Y100135D01*
X45825D01*
X47638Y101495D02*
X46732D01*
X44919Y102854D02*
Y100135D01*
X43106D01*
X40387Y102854D02*
X42200D01*
Y100135D01*
X40387D01*
X42200Y101495D02*
X41293D01*
X39481Y102854D02*
Y100135D01*
X38121D01*
X37668Y100588D01*
Y102401D01*
X38121Y102854D01*
X39481D01*
X112992Y17483D02*
X111179D01*
X112086D01*
Y14764D01*
X109820D02*
X108913D01*
X108460Y15217D01*
Y16123D01*
X108913Y16577D01*
X109820D01*
X110273Y16123D01*
Y15217D01*
X109820Y14764D01*
X107554D02*
X106648D01*
X107101D01*
Y17483D01*
X107554D01*
X103928Y14764D02*
X104835D01*
X105288Y15217D01*
Y16123D01*
X104835Y16577D01*
X103928D01*
X103475Y16123D01*
Y15670D01*
X105288D01*
X102569Y16577D02*
Y14764D01*
Y15670D01*
X102116Y16123D01*
X101663Y16577D01*
X101209D01*
X99397D02*
X98490D01*
X98037Y16123D01*
Y14764D01*
X99397D01*
X99850Y15217D01*
X99397Y15670D01*
X98037D01*
X97131Y14764D02*
Y16577D01*
X95771D01*
X95318Y16123D01*
Y14764D01*
X93958Y17030D02*
Y16577D01*
X94411D01*
X93505D01*
X93958D01*
Y15217D01*
X93505Y14764D01*
X114961Y22011D02*
X114054D01*
X114507D01*
Y19291D01*
X114961D01*
X114054D01*
X112695D02*
X110882Y21104D01*
X108616Y22011D02*
X109522D01*
X109976Y21557D01*
Y19745D01*
X109522Y19291D01*
X108616D01*
X108163Y19745D01*
Y21557D01*
X108616Y22011D01*
X107256Y19291D02*
X105897D01*
X105444Y19745D01*
X105897Y20198D01*
X106803D01*
X107256Y20651D01*
X106803Y21104D01*
X105444D01*
X101818Y21557D02*
X101365Y22011D01*
X100459D01*
X100005Y21557D01*
Y21104D01*
X100459Y20651D01*
X100912D01*
X100459D01*
X100005Y20198D01*
Y19745D01*
X100459Y19291D01*
X101365D01*
X101818Y19745D01*
X99099Y19291D02*
Y19745D01*
X98646D01*
Y19291D01*
X99099D01*
X96833Y21557D02*
X96380Y22011D01*
X95474D01*
X95020Y21557D01*
Y21104D01*
X95474Y20651D01*
X95927D01*
X95474D01*
X95020Y20198D01*
Y19745D01*
X95474Y19291D01*
X96380D01*
X96833Y19745D01*
X94114Y22011D02*
Y20198D01*
X93208Y19291D01*
X92301Y20198D01*
Y22011D01*
X125189Y43500D02*
X127908D01*
Y44860D01*
X127455Y45313D01*
X126549D01*
X126095Y44860D01*
Y43500D01*
X125642Y46219D02*
X125189Y46672D01*
Y47579D01*
X125642Y48032D01*
X127455D01*
X127908Y47579D01*
Y46672D01*
X127455Y46219D01*
X127002D01*
X126549Y46672D01*
Y48032D01*
X125189Y51000D02*
X127908D01*
Y52360D01*
X127455Y52813D01*
X126549D01*
X126095Y52360D01*
Y51000D01*
X125189Y53719D02*
Y54625D01*
Y54172D01*
X127908D01*
X127455Y53719D01*
Y55985D02*
X127908Y56438D01*
Y57345D01*
X127455Y57798D01*
X125642D01*
X125189Y57345D01*
Y56438D01*
X125642Y55985D01*
X127455D01*
X116437Y9904D02*
Y8091D01*
X115531Y7185D01*
X114624Y8091D01*
Y9904D01*
X113718D02*
X112812D01*
X113265D01*
Y7185D01*
X113718D01*
X112812D01*
X111452D02*
Y9904D01*
X109639Y7185D01*
Y9904D01*
X104201D02*
X106014D01*
Y8545D01*
X105107Y8998D01*
X104654D01*
X104201Y8545D01*
Y7638D01*
X104654Y7185D01*
X105561D01*
X106014Y7638D01*
X103295Y9904D02*
Y8091D01*
X102388Y7185D01*
X101482Y8091D01*
Y9904D01*
X97856Y7185D02*
Y9904D01*
X96950Y8998D01*
X96044Y9904D01*
Y7185D01*
X94684Y8998D02*
X93778D01*
X93325Y8545D01*
Y7185D01*
X94684D01*
X95137Y7638D01*
X94684Y8091D01*
X93325D01*
X92418Y8998D02*
X90605Y7185D01*
X91512Y8091D01*
X90605Y8998D01*
X92418Y7185D01*
X125189Y72500D02*
X127908D01*
Y73860D01*
X127455Y74313D01*
X126549D01*
X126095Y73860D01*
Y72500D01*
Y73406D02*
X125189Y74313D01*
X127455Y77032D02*
X127908Y76579D01*
Y75672D01*
X127455Y75219D01*
X127002D01*
X126549Y75672D01*
Y76579D01*
X126095Y77032D01*
X125642D01*
X125189Y76579D01*
Y75672D01*
X125642Y75219D01*
X127908Y77938D02*
Y79751D01*
Y78845D01*
X125189D01*
Y33500D02*
X127908D01*
Y34860D01*
X127455Y35313D01*
X126549D01*
X126095Y34860D01*
Y33500D01*
X127455Y36219D02*
X127908Y36672D01*
Y37579D01*
X127455Y38032D01*
X127002D01*
X126549Y37579D01*
X126095Y38032D01*
X125642D01*
X125189Y37579D01*
Y36672D01*
X125642Y36219D01*
X126095D01*
X126549Y36672D01*
X127002Y36219D01*
X127455D01*
X126549Y36672D02*
Y37579D01*
X125189Y24000D02*
X127908D01*
Y25360D01*
X127455Y25813D01*
X126549D01*
X126095Y25360D01*
Y24000D01*
X127908Y26719D02*
Y28532D01*
X127455D01*
X125642Y26719D01*
X125189D01*
X129331Y19747D02*
Y17934D01*
X128424Y17028D01*
X127518Y17934D01*
Y19747D01*
X126612D02*
X125705D01*
X126158D01*
Y17028D01*
X126612D01*
X125705D01*
X124346D02*
Y19747D01*
X122533Y17028D01*
Y19747D01*
X127715Y4530D02*
X128168Y4983D01*
X129074D01*
X129528Y4530D01*
Y2717D01*
X129074Y2264D01*
X128168D01*
X127715Y2717D01*
Y3623D01*
X128621D01*
X126808Y2264D02*
Y4983D01*
X124996Y2264D01*
Y4983D01*
X124089D02*
Y2264D01*
X122730D01*
X122277Y2717D01*
Y4530D01*
X122730Y4983D01*
X124089D01*
X21358Y73622D02*
X24077D01*
Y74982D01*
X23624Y75435D01*
X22718D01*
X22265Y74982D01*
Y73622D01*
X23624Y76341D02*
X24077Y76794D01*
Y77701D01*
X23624Y78154D01*
X21812D01*
X21358Y77701D01*
Y76794D01*
X21812Y76341D01*
X23624D01*
X21358Y63780D02*
X24077D01*
Y65140D01*
X23624Y65593D01*
X22718D01*
X22265Y65140D01*
Y63780D01*
X21358Y66499D02*
Y67405D01*
Y66952D01*
X24077D01*
X23624Y66499D01*
X21358Y53937D02*
X24077D01*
Y55297D01*
X23624Y55750D01*
X22718D01*
X22265Y55297D01*
Y53937D01*
X21358Y58469D02*
Y56656D01*
X23171Y58469D01*
X23624D01*
X24077Y58016D01*
Y57109D01*
X23624Y56656D01*
X21358Y43701D02*
X24077D01*
Y45061D01*
X23624Y45514D01*
X22718D01*
X22265Y45061D01*
Y43701D01*
X23624Y46420D02*
X24077Y46873D01*
Y47780D01*
X23624Y48233D01*
X23171D01*
X22718Y47780D01*
Y47326D01*
Y47780D01*
X22265Y48233D01*
X21812D01*
X21358Y47780D01*
Y46873D01*
X21812Y46420D01*
X21358Y33858D02*
X24077D01*
Y35218D01*
X23624Y35671D01*
X22718D01*
X22265Y35218D01*
Y33858D01*
X21358Y37937D02*
X24077D01*
X22718Y36577D01*
Y38390D01*
X21358Y23622D02*
X24077D01*
Y24982D01*
X23624Y25435D01*
X22718D01*
X22265Y24982D01*
Y23622D01*
X24077Y28154D02*
Y26341D01*
X22718D01*
X23171Y27248D01*
Y27701D01*
X22718Y28154D01*
X21812D01*
X21358Y27701D01*
Y26794D01*
X21812Y26341D01*
X23720Y14272D02*
X26440D01*
Y15631D01*
X25986Y16084D01*
X25080D01*
X24627Y15631D01*
Y14272D01*
X26440Y18803D02*
X25986Y17897D01*
X25080Y16991D01*
X24174D01*
X23720Y17444D01*
Y18350D01*
X24174Y18803D01*
X24627D01*
X25080Y18350D01*
Y16991D01*
X25593Y1181D02*
X26046Y1634D01*
Y2541D01*
X25593Y2994D01*
X25139D01*
X24686Y2541D01*
Y2087D01*
Y2541D01*
X24233Y2994D01*
X23780D01*
X23327Y2541D01*
Y1634D01*
X23780Y1181D01*
X23327Y3900D02*
X23780D01*
Y4353D01*
X23327D01*
Y3900D01*
X25593Y6166D02*
X26046Y6619D01*
Y7526D01*
X25593Y7979D01*
X25139D01*
X24686Y7526D01*
Y7073D01*
Y7526D01*
X24233Y7979D01*
X23780D01*
X23327Y7526D01*
Y6619D01*
X23780Y6166D01*
X26046Y8885D02*
X24233D01*
X23327Y9792D01*
X24233Y10698D01*
X26046D01*
D20*
X127738Y60750D02*
X125189D01*
X126039Y61600D01*
X125189Y62450D01*
X127738D01*
X125189Y63299D02*
X126888D01*
X127738Y64149D01*
X126888Y64999D01*
X125189D01*
X126464D01*
Y63299D01*
X127738Y65848D02*
X125189D01*
X126039D01*
X127738Y67548D01*
X126464Y66273D01*
X125189Y67548D01*
X127738Y70097D02*
Y68397D01*
X125189D01*
Y70097D01*
X126464Y68397D02*
Y69247D01*
D177*
X115453Y108169D02*
D03*
M02*
