G04*
G04 #@! TF.GenerationSoftware,Altium Limited,Altium Designer,21.7.2 (23)*
G04*
G04 Layer_Physical_Order=5*
G04 Layer_Color=16737945*
%FSLAX25Y25*%
%MOIN*%
G70*
G04*
G04 #@! TF.SameCoordinates,6C021EAB-9281-4005-87E3-4CD7810296B7*
G04*
G04*
G04 #@! TF.FilePolarity,Positive*
G04*
G01*
G75*
%ADD109C,0.05600*%
%ADD115C,0.07400*%
%ADD117C,0.01200*%
%ADD118C,0.01600*%
%ADD119C,0.01100*%
%ADD120C,0.02400*%
%ADD122C,0.01800*%
%ADD123C,0.01000*%
%ADD124C,0.01400*%
%ADD125C,0.02000*%
G36*
X124205Y173851D02*
X123589Y173650D01*
X121977Y172829D01*
X120513Y171766D01*
X119234Y170487D01*
X118171Y169023D01*
X117350Y167411D01*
X116791Y165691D01*
X116508Y163904D01*
Y162096D01*
X116791Y160309D01*
X117350Y158589D01*
X118171Y156977D01*
X119234Y155513D01*
X120513Y154234D01*
X121977Y153171D01*
X123589Y152350D01*
X125309Y151791D01*
X125383Y151779D01*
X125442Y151283D01*
X125330Y151236D01*
X123716Y150157D01*
X122343Y148784D01*
X121264Y147170D01*
X120521Y145376D01*
X120142Y143471D01*
Y141529D01*
X120521Y139625D01*
X121264Y137830D01*
X122343Y136216D01*
X123716Y134843D01*
X125330Y133764D01*
X126329Y133350D01*
X126316Y132814D01*
X126163Y132751D01*
X125910Y132498D01*
X125773Y132167D01*
Y131809D01*
X125910Y131478D01*
X126163Y131225D01*
X126494Y131088D01*
X126852D01*
X127183Y131225D01*
X127436Y131478D01*
X127573Y131809D01*
Y132167D01*
X127458Y132444D01*
X127557Y132655D01*
X127744Y132897D01*
X129029Y132642D01*
X130971D01*
X132876Y133021D01*
X134670Y133764D01*
X136284Y134843D01*
X137657Y136216D01*
X138736Y137830D01*
X138860Y138129D01*
X139351Y138032D01*
Y649D01*
X649D01*
Y82368D01*
X16883D01*
Y104191D01*
X17101Y104329D01*
X17383Y104437D01*
X17684Y104312D01*
X18082D01*
X18449Y104464D01*
X18731Y104746D01*
X18883Y105113D01*
Y105511D01*
X18731Y105878D01*
X18449Y106160D01*
X18082Y106312D01*
X17684D01*
X17316Y106160D01*
X17035Y105878D01*
X16919Y105598D01*
X16883Y105511D01*
X16629Y105112D01*
X1004Y105025D01*
X649Y105378D01*
Y138032D01*
X1140Y138129D01*
X1264Y137830D01*
X2343Y136216D01*
X3716Y134843D01*
X5330Y133764D01*
X7124Y133021D01*
X9029Y132642D01*
X10971D01*
X12876Y133021D01*
X14670Y133764D01*
X16284Y134843D01*
X17657Y136216D01*
X18736Y137830D01*
X19479Y139625D01*
X19858Y141529D01*
Y143471D01*
X19479Y145376D01*
X18736Y147170D01*
X17657Y148784D01*
X16284Y150157D01*
X14670Y151236D01*
X14558Y151283D01*
X14617Y151779D01*
X14691Y151791D01*
X16411Y152350D01*
X18023Y153171D01*
X19487Y154234D01*
X20766Y155513D01*
X21829Y156977D01*
X22650Y158589D01*
X23209Y160309D01*
X23492Y162096D01*
Y163904D01*
X23209Y165691D01*
X22650Y167411D01*
X21829Y169023D01*
X20766Y170487D01*
X19487Y171766D01*
X18023Y172829D01*
X16411Y173650D01*
X15795Y173851D01*
X15874Y174351D01*
X124126D01*
X124205Y173851D01*
D02*
G37*
%LPC*%
G36*
X59224Y172504D02*
X58886D01*
X58574Y172375D01*
X58483Y172284D01*
X58170Y172187D01*
X57855Y172284D01*
X57765Y172374D01*
X57452Y172503D01*
X57114D01*
X56802Y172374D01*
X56712Y172284D01*
X56397Y172187D01*
X56084Y172284D01*
X55993Y172375D01*
X55681Y172504D01*
X55343D01*
X55031Y172375D01*
X54791Y172135D01*
X54662Y171823D01*
Y171485D01*
X54791Y171172D01*
X55031Y170933D01*
X55343Y170804D01*
X55681D01*
X55993Y170933D01*
X56083Y171023D01*
X56398Y171121D01*
X56712Y171023D01*
X56802Y170933D01*
X57114Y170803D01*
X57452D01*
X57765Y170933D01*
X57855Y171023D01*
X58169Y171121D01*
X58484Y171023D01*
X58574Y170933D01*
X58886Y170804D01*
X59224D01*
X59536Y170933D01*
X59776Y171172D01*
X59905Y171485D01*
Y171823D01*
X59776Y172135D01*
X59536Y172375D01*
X59224Y172504D01*
D02*
G37*
G36*
X84815D02*
X84477D01*
X84165Y172375D01*
X83925Y172135D01*
X83796Y171823D01*
Y171485D01*
X83925Y171172D01*
X84165Y170933D01*
X84477Y170804D01*
X84815D01*
X85128Y170933D01*
X85367Y171172D01*
X85496Y171485D01*
Y171823D01*
X85367Y172135D01*
X85128Y172375D01*
X84815Y172504D01*
D02*
G37*
G36*
X53319D02*
X52981D01*
X52668Y172375D01*
X52429Y172135D01*
X52300Y171823D01*
Y171485D01*
X52429Y171172D01*
X52668Y170933D01*
X52981Y170804D01*
X53319D01*
X53632Y170933D01*
X53871Y171172D01*
X54000Y171485D01*
Y171823D01*
X53871Y172135D01*
X53632Y172375D01*
X53319Y172504D01*
D02*
G37*
G36*
X79008Y172503D02*
X78670D01*
X78357Y172374D01*
X78118Y172135D01*
X77989Y171823D01*
Y171484D01*
X78118Y171172D01*
X78357Y170933D01*
X78670Y170803D01*
X79008D01*
X79320Y170933D01*
X79559Y171172D01*
X79689Y171484D01*
Y171823D01*
X79559Y172135D01*
X79320Y172374D01*
X79008Y172503D01*
D02*
G37*
G36*
X69241Y173163D02*
X68903D01*
X68590Y173034D01*
X68351Y172795D01*
X68222Y172482D01*
Y172144D01*
X68351Y171832D01*
X68590Y171593D01*
X68903Y171463D01*
X69241D01*
X69553Y171593D01*
X69615Y171654D01*
X70115Y171484D01*
X70244Y171172D01*
X70483Y170933D01*
X70796Y170803D01*
X71134D01*
X71446Y170933D01*
X71685Y171172D01*
X71815Y171484D01*
Y171823D01*
X71685Y172135D01*
X71446Y172374D01*
X71134Y172503D01*
X70796D01*
X70483Y172374D01*
X70422Y172313D01*
X69922Y172482D01*
X69792Y172795D01*
X69553Y173034D01*
X69241Y173163D01*
D02*
G37*
G36*
X50633Y172854D02*
X50155D01*
X49714Y172671D01*
X49377Y172334D01*
X49194Y171893D01*
Y171415D01*
X49377Y170974D01*
X49714Y170637D01*
X50155Y170454D01*
X50633D01*
X51074Y170637D01*
X51411Y170974D01*
X51594Y171415D01*
Y171893D01*
X51411Y172334D01*
X51074Y172671D01*
X50633Y172854D01*
D02*
G37*
G36*
X86899Y171684D02*
X86561D01*
X86248Y171554D01*
X86009Y171315D01*
X85880Y171003D01*
Y170664D01*
X86009Y170352D01*
X86248Y170113D01*
X86561Y169983D01*
X86899D01*
X87211Y170113D01*
X87450Y170352D01*
X87580Y170664D01*
Y171003D01*
X87450Y171315D01*
X87211Y171554D01*
X86899Y171684D01*
D02*
G37*
G36*
X65269Y171535D02*
X64931D01*
X64619Y171406D01*
X64380Y171167D01*
X64250Y170854D01*
Y170516D01*
X64380Y170204D01*
X64619Y169965D01*
X64931Y169835D01*
X65269D01*
X65582Y169965D01*
X65921Y170137D01*
X66214Y169944D01*
X66226Y169932D01*
X66538Y169802D01*
X66877D01*
X67189Y169932D01*
X67428Y170171D01*
X67558Y170483D01*
Y170821D01*
X67428Y171134D01*
X67189Y171373D01*
X66877Y171502D01*
X66538D01*
X66226Y171373D01*
X65886Y171200D01*
X65594Y171394D01*
X65582Y171406D01*
X65269Y171535D01*
D02*
G37*
G36*
X77119Y164400D02*
X76781D01*
X76468Y164271D01*
X76229Y164032D01*
X76212Y163989D01*
X75670D01*
X75658Y164019D01*
X75419Y164258D01*
X75107Y164388D01*
X74768D01*
X74456Y164258D01*
X74280Y164083D01*
X73970Y164052D01*
X73704Y164088D01*
X73521Y164271D01*
X73209Y164400D01*
X72871D01*
X72558Y164271D01*
X72319Y164032D01*
X72190Y163719D01*
Y163381D01*
X72319Y163069D01*
X72558Y162830D01*
X72871Y162700D01*
X73209D01*
X73521Y162830D01*
X73697Y163005D01*
X74007Y163036D01*
X74273Y163000D01*
X74456Y162817D01*
X74768Y162688D01*
X75107D01*
X75419Y162817D01*
X75658Y163056D01*
X75676Y163099D01*
X76217D01*
X76229Y163069D01*
X76468Y162830D01*
X76781Y162700D01*
X77119D01*
X77431Y162830D01*
X77671Y163069D01*
X77800Y163381D01*
Y163719D01*
X77671Y164032D01*
X77431Y164271D01*
X77119Y164400D01*
D02*
G37*
G36*
X63450Y164537D02*
X63112D01*
X62800Y164408D01*
X62560Y164169D01*
X62445Y163889D01*
X62323Y163850D01*
X61931Y163828D01*
X61925Y163843D01*
X61853Y164016D01*
X61614Y164255D01*
X61302Y164384D01*
X60964D01*
X60651Y164255D01*
X60412Y164016D01*
X60283Y163703D01*
Y163365D01*
X60412Y163053D01*
X60651Y162814D01*
X60964Y162684D01*
X61302D01*
X61614Y162814D01*
X61853Y163053D01*
X61969Y163332D01*
X62091Y163371D01*
X62483Y163393D01*
X62489Y163378D01*
X62560Y163206D01*
X62800Y162966D01*
X63112Y162837D01*
X63450D01*
X63762Y162966D01*
X64002Y163206D01*
X64131Y163518D01*
Y163856D01*
X64002Y164169D01*
X63762Y164408D01*
X63450Y164537D01*
D02*
G37*
G36*
X96823Y154984D02*
X96485D01*
X96172Y154854D01*
X95933Y154615D01*
X95803Y154303D01*
Y153965D01*
X95933Y153652D01*
X96172Y153413D01*
X96485Y153284D01*
X96823D01*
X97135Y153413D01*
X97374Y153652D01*
X97504Y153965D01*
Y154303D01*
X97374Y154615D01*
X97135Y154854D01*
X96823Y154984D01*
D02*
G37*
G36*
X91300Y156275D02*
X90432D01*
X89631Y155943D01*
X89017Y155329D01*
X88685Y154528D01*
Y153660D01*
X89017Y152859D01*
X89631Y152245D01*
X90432Y151913D01*
X91300D01*
X92101Y152245D01*
X92715Y152859D01*
X93047Y153660D01*
Y154528D01*
X92715Y155329D01*
X92101Y155943D01*
X91300Y156275D01*
D02*
G37*
G36*
X49568D02*
X48700D01*
X47899Y155943D01*
X47285Y155329D01*
X46953Y154528D01*
Y153660D01*
X47285Y152859D01*
X47899Y152245D01*
X48700Y151913D01*
X49568D01*
X50369Y152245D01*
X50983Y152859D01*
X51315Y153660D01*
Y154528D01*
X50983Y155329D01*
X50369Y155943D01*
X49568Y156275D01*
D02*
G37*
G36*
X116951Y153167D02*
X116514D01*
X116109Y152999D01*
X115800Y152690D01*
X115632Y152286D01*
Y151848D01*
X115800Y151444D01*
X116109Y151134D01*
X116514Y150967D01*
X116951D01*
X117355Y151134D01*
X117665Y151444D01*
X117832Y151848D01*
Y152286D01*
X117665Y152690D01*
X117355Y152999D01*
X116951Y153167D01*
D02*
G37*
G36*
X57354Y150259D02*
X57016D01*
X56704Y150130D01*
X56511Y149937D01*
X56300Y149900D01*
X55935Y149919D01*
X55767Y150086D01*
X55455Y150216D01*
X55117D01*
X54804Y150086D01*
X54610Y149891D01*
X54156Y149876D01*
X54072Y149882D01*
X53833Y150121D01*
X53521Y150250D01*
X53183D01*
X52870Y150121D01*
X52631Y149881D01*
X52502Y149569D01*
Y149231D01*
X52631Y148919D01*
X52870Y148679D01*
X53183Y148550D01*
X53521D01*
X53833Y148679D01*
X54028Y148874D01*
X54482Y148890D01*
X54565Y148884D01*
X54804Y148645D01*
X55117Y148516D01*
X55455D01*
X55767Y148645D01*
X55960Y148838D01*
X56171Y148876D01*
X56536Y148856D01*
X56704Y148689D01*
X57016Y148559D01*
X57354D01*
X57666Y148689D01*
X57906Y148928D01*
X58035Y149240D01*
Y149578D01*
X57906Y149891D01*
X57666Y150130D01*
X57354Y150259D01*
D02*
G37*
G36*
X90730Y151097D02*
X90372D01*
X90042Y150960D01*
X89788Y150707D01*
X89651Y150376D01*
Y150018D01*
X89788Y149687D01*
X90042Y149434D01*
X90372Y149297D01*
X90730D01*
X91061Y149434D01*
X91314Y149687D01*
X91451Y150018D01*
Y150376D01*
X91314Y150707D01*
X91061Y150960D01*
X90730Y151097D01*
D02*
G37*
G36*
X59693Y150180D02*
X59355D01*
X59043Y150051D01*
X58804Y149812D01*
X58674Y149499D01*
Y149161D01*
X58804Y148849D01*
X59043Y148610D01*
X59355Y148480D01*
X59693D01*
X60006Y148610D01*
X60245Y148849D01*
X60374Y149161D01*
Y149499D01*
X60245Y149812D01*
X60006Y150051D01*
X59693Y150180D01*
D02*
G37*
G36*
X65280Y150201D02*
X64922D01*
X64591Y150065D01*
X64338Y149811D01*
X64201Y149481D01*
Y149123D01*
X64338Y148792D01*
X64591Y148539D01*
X64922Y148401D01*
X65280D01*
X65611Y148539D01*
X65864Y148792D01*
X66001Y149123D01*
Y149481D01*
X65864Y149811D01*
X65611Y150065D01*
X65280Y150201D01*
D02*
G37*
G36*
X78401Y149241D02*
X78063D01*
X77751Y149111D01*
X77512Y148872D01*
X77382Y148560D01*
Y148222D01*
X77512Y147909D01*
X77751Y147670D01*
X78063Y147540D01*
X78401D01*
X78714Y147670D01*
X78953Y147909D01*
X79082Y148222D01*
Y148560D01*
X78953Y148872D01*
X78714Y149111D01*
X78401Y149241D01*
D02*
G37*
G36*
X73201Y150259D02*
X72862D01*
X72550Y150130D01*
X72311Y149891D01*
X72181Y149578D01*
Y149240D01*
X72311Y148928D01*
X72550Y148689D01*
X72862Y148559D01*
X73201D01*
X73217Y148566D01*
X73396Y148458D01*
X73650Y148204D01*
Y147966D01*
X73779Y147654D01*
X74018Y147415D01*
X74331Y147285D01*
X74669D01*
X74981Y147415D01*
X75221Y147654D01*
X75350Y147966D01*
Y148305D01*
X75221Y148617D01*
X74981Y148856D01*
X74669Y148986D01*
X74331D01*
X74314Y148979D01*
X74136Y149086D01*
X73882Y149341D01*
Y149578D01*
X73752Y149891D01*
X73513Y150130D01*
X73201Y150259D01*
D02*
G37*
G36*
X71429Y148882D02*
X71091D01*
X70779Y148753D01*
X70539Y148513D01*
X70410Y148201D01*
Y147863D01*
X70539Y147550D01*
X70779Y147311D01*
X71091Y147182D01*
X71429D01*
X71741Y147311D01*
X71981Y147550D01*
X72110Y147863D01*
Y148201D01*
X71981Y148513D01*
X71741Y148753D01*
X71429Y148882D01*
D02*
G37*
G36*
X67502Y148932D02*
X67144D01*
X66813Y148795D01*
X66560Y148542D01*
X66423Y148211D01*
Y147853D01*
X66560Y147522D01*
X66813Y147269D01*
X67144Y147132D01*
X67502D01*
X67833Y147269D01*
X68086Y147522D01*
X68223Y147853D01*
Y148211D01*
X68086Y148542D01*
X67833Y148795D01*
X67502Y148932D01*
D02*
G37*
G36*
X63210Y148836D02*
X62852D01*
X62521Y148699D01*
X62268Y148445D01*
X62131Y148115D01*
Y147757D01*
X62268Y147426D01*
X62521Y147173D01*
X62852Y147036D01*
X63210D01*
X63541Y147173D01*
X63794Y147426D01*
X63931Y147757D01*
Y148115D01*
X63794Y148445D01*
X63541Y148699D01*
X63210Y148836D01*
D02*
G37*
G36*
X82659Y147947D02*
X82301D01*
X81971Y147810D01*
X81717Y147557D01*
X81580Y147226D01*
Y146868D01*
X81717Y146537D01*
X81971Y146284D01*
X82301Y146147D01*
X82659D01*
X82990Y146284D01*
X83243Y146537D01*
X83380Y146868D01*
Y147226D01*
X83243Y147557D01*
X82990Y147810D01*
X82659Y147947D01*
D02*
G37*
G36*
X107277Y147021D02*
X106919D01*
X106588Y146884D01*
X106335Y146631D01*
X106198Y146300D01*
Y145942D01*
X106335Y145611D01*
X106588Y145358D01*
X106919Y145221D01*
X107277D01*
X107608Y145358D01*
X107861Y145611D01*
X107998Y145942D01*
Y146300D01*
X107861Y146631D01*
X107608Y146884D01*
X107277Y147021D01*
D02*
G37*
G36*
X117108Y145388D02*
X116750D01*
X116419Y145251D01*
X116166Y144998D01*
X116029Y144667D01*
Y144309D01*
X116166Y143978D01*
X116419Y143725D01*
X116750Y143588D01*
X117108D01*
X117439Y143725D01*
X117692Y143978D01*
X117829Y144309D01*
Y144667D01*
X117692Y144998D01*
X117439Y145251D01*
X117108Y145388D01*
D02*
G37*
G36*
X112089D02*
X111730D01*
X111400Y145251D01*
X111146Y144998D01*
X111009Y144667D01*
Y144309D01*
X111146Y143978D01*
X111400Y143725D01*
X111730Y143588D01*
X112089D01*
X112419Y143725D01*
X112672Y143978D01*
X112809Y144309D01*
Y144667D01*
X112672Y144998D01*
X112419Y145251D01*
X112089Y145388D01*
D02*
G37*
G36*
X58742Y144994D02*
X58384D01*
X58053Y144858D01*
X57800Y144604D01*
X57663Y144273D01*
Y143915D01*
X57800Y143585D01*
X58053Y143332D01*
X58384Y143194D01*
X58742D01*
X59073Y143332D01*
X59326Y143585D01*
X59463Y143915D01*
Y144273D01*
X59326Y144604D01*
X59073Y144858D01*
X58742Y144994D01*
D02*
G37*
G36*
X67765Y142931D02*
X67407D01*
X67076Y142794D01*
X66823Y142541D01*
X66686Y142210D01*
Y141852D01*
X66823Y141521D01*
X67076Y141268D01*
X67407Y141131D01*
X67765D01*
X68095Y141268D01*
X68349Y141521D01*
X68486Y141852D01*
Y142210D01*
X68349Y142541D01*
X68095Y142794D01*
X67765Y142931D01*
D02*
G37*
G36*
X39569Y139583D02*
X39171D01*
X38804Y139431D01*
X38522Y139149D01*
X38370Y138782D01*
Y138384D01*
X38522Y138017D01*
X38804Y137735D01*
X39171Y137583D01*
X39569D01*
X39937Y137735D01*
X40218Y138017D01*
X40370Y138384D01*
Y138782D01*
X40218Y139149D01*
X39937Y139431D01*
X39569Y139583D01*
D02*
G37*
G36*
X53624Y137416D02*
X53266D01*
X52935Y137279D01*
X52682Y137026D01*
X52545Y136695D01*
Y136337D01*
X52682Y136006D01*
X52935Y135753D01*
X53266Y135616D01*
X53624D01*
X53955Y135753D01*
X54208Y136006D01*
X54345Y136337D01*
Y136695D01*
X54208Y137026D01*
X53955Y137279D01*
X53624Y137416D01*
D02*
G37*
G36*
X87236Y136963D02*
X86878D01*
X86547Y136826D01*
X86294Y136573D01*
X86157Y136242D01*
Y135884D01*
X86294Y135553D01*
X86547Y135300D01*
X86878Y135163D01*
X87236D01*
X87567Y135300D01*
X87820Y135553D01*
X87957Y135884D01*
Y136242D01*
X87820Y136573D01*
X87567Y136826D01*
X87236Y136963D01*
D02*
G37*
G36*
X57659Y136924D02*
X57301D01*
X56971Y136787D01*
X56717Y136533D01*
X56580Y136203D01*
Y135845D01*
X56717Y135514D01*
X56971Y135261D01*
X57301Y135124D01*
X57659D01*
X57990Y135261D01*
X58243Y135514D01*
X58380Y135845D01*
Y136203D01*
X58243Y136533D01*
X57990Y136787D01*
X57659Y136924D01*
D02*
G37*
G36*
X93683Y135939D02*
X93325D01*
X92994Y135802D01*
X92741Y135549D01*
X92604Y135218D01*
Y134860D01*
X92741Y134530D01*
X92994Y134276D01*
X93325Y134139D01*
X93683D01*
X94014Y134276D01*
X94267Y134530D01*
X94404Y134860D01*
Y135218D01*
X94267Y135549D01*
X94014Y135802D01*
X93683Y135939D01*
D02*
G37*
G36*
X48112Y137219D02*
X47754D01*
X47423Y137082D01*
X47170Y136829D01*
X47033Y136498D01*
X47033Y136140D01*
X46848Y135729D01*
X46517Y135592D01*
X46264Y135339D01*
X46127Y135008D01*
Y134650D01*
X46264Y134319D01*
X46517Y134066D01*
X46848Y133929D01*
X47206D01*
X47537Y134066D01*
X47790Y134319D01*
X47927Y134650D01*
X47927Y135008D01*
X48112Y135419D01*
X48443Y135556D01*
X48696Y135809D01*
X48833Y136140D01*
Y136498D01*
X48696Y136829D01*
X48443Y137082D01*
X48112Y137219D01*
D02*
G37*
G36*
X18279Y133921D02*
X17941D01*
X17628Y133792D01*
X17389Y133553D01*
X17260Y133240D01*
Y132902D01*
X17389Y132589D01*
X17628Y132350D01*
X17941Y132221D01*
X18279D01*
X18591Y132350D01*
X18831Y132589D01*
X18960Y132902D01*
Y133240D01*
X18831Y133553D01*
X18591Y133792D01*
X18279Y133921D01*
D02*
G37*
G36*
X55297Y132396D02*
X54939D01*
X54608Y132259D01*
X54355Y132006D01*
X54286Y131838D01*
X53756Y131810D01*
X53716Y131907D01*
X53463Y132161D01*
X53132Y132298D01*
X52774D01*
X52443Y132161D01*
X52443Y132160D01*
X52116Y131954D01*
X51789Y132160D01*
X51789Y132161D01*
X51459Y132298D01*
X51100D01*
X50770Y132161D01*
X50517Y131907D01*
X50380Y131577D01*
Y131219D01*
X50517Y130888D01*
X50770Y130635D01*
X51100Y130498D01*
X51459D01*
X51789Y130635D01*
X51789Y130635D01*
X52116Y130841D01*
X52443Y130635D01*
X52443Y130635D01*
X52774Y130498D01*
X53132D01*
X53463Y130635D01*
X53716Y130888D01*
X53785Y131056D01*
X54315Y131084D01*
X54355Y130986D01*
X54608Y130733D01*
X54939Y130596D01*
X55297D01*
X55628Y130733D01*
X55679Y130784D01*
X56077Y130885D01*
X56313Y130764D01*
X56422Y130656D01*
X56752Y130518D01*
X57111D01*
X57441Y130656D01*
X57694Y130909D01*
X57832Y131239D01*
Y131597D01*
X57694Y131928D01*
X57441Y132182D01*
X57111Y132318D01*
X56752D01*
X56422Y132182D01*
X56371Y132131D01*
X55972Y132029D01*
X55737Y132150D01*
X55628Y132259D01*
X55297Y132396D01*
D02*
G37*
G36*
X29418Y133028D02*
X29080D01*
X28767Y132898D01*
X28528Y132659D01*
X28399Y132347D01*
Y132009D01*
X28528Y131696D01*
X28767Y131457D01*
X29080Y131328D01*
X29418D01*
X29730Y131457D01*
X29969Y131696D01*
X30099Y132009D01*
Y132347D01*
X29969Y132659D01*
X29730Y132898D01*
X29418Y133028D01*
D02*
G37*
G36*
X94853Y131994D02*
X94494D01*
X94164Y131857D01*
X93910Y131604D01*
X93774Y131273D01*
Y130915D01*
X93910Y130584D01*
X94164Y130331D01*
X94494Y130194D01*
X94853D01*
X95183Y130331D01*
X95436Y130584D01*
X95574Y130915D01*
Y131273D01*
X95436Y131604D01*
X95183Y131857D01*
X94853Y131994D01*
D02*
G37*
G36*
X67944Y130539D02*
X67626D01*
X67332Y130417D01*
X67107Y130192D01*
X66985Y129898D01*
Y129580D01*
X67107Y129286D01*
X67332Y129061D01*
X67626Y128939D01*
X67944D01*
X68238Y129061D01*
X68463Y129286D01*
X68585Y129580D01*
Y129898D01*
X68463Y130192D01*
X68238Y130417D01*
X67944Y130539D01*
D02*
G37*
G36*
X70533Y130524D02*
X70215D01*
X69921Y130403D01*
X69696Y130178D01*
X69574Y129884D01*
Y129565D01*
X69696Y129271D01*
X69921Y129046D01*
X70215Y128924D01*
X70533D01*
X70827Y129046D01*
X71052Y129271D01*
X71174Y129565D01*
Y129884D01*
X71052Y130178D01*
X70827Y130403D01*
X70533Y130524D01*
D02*
G37*
G36*
X50179Y130329D02*
X49821D01*
X49490Y130192D01*
X49237Y129939D01*
X49100Y129608D01*
Y129250D01*
X49237Y128919D01*
X49490Y128666D01*
X49821Y128529D01*
X50179D01*
X50510Y128666D01*
X50763Y128919D01*
X50900Y129250D01*
Y129608D01*
X50763Y129939D01*
X50510Y130192D01*
X50179Y130329D01*
D02*
G37*
G36*
X127443Y129935D02*
X127085D01*
X126754Y129798D01*
X126501Y129545D01*
X126364Y129215D01*
Y128856D01*
X126501Y128526D01*
X126754Y128272D01*
X127085Y128135D01*
X127443D01*
X127774Y128272D01*
X128027Y128526D01*
X128164Y128856D01*
Y129215D01*
X128027Y129545D01*
X127774Y129798D01*
X127443Y129935D01*
D02*
G37*
G36*
X36104Y127868D02*
X35746D01*
X35415Y127732D01*
X35162Y127478D01*
X35025Y127147D01*
Y126789D01*
X35162Y126459D01*
X35415Y126206D01*
X35746Y126068D01*
X36104D01*
X36435Y126206D01*
X36688Y126459D01*
X36825Y126789D01*
Y127147D01*
X36688Y127478D01*
X36435Y127732D01*
X36104Y127868D01*
D02*
G37*
G36*
X80867Y127374D02*
X80549D01*
X80255Y127252D01*
X80030Y127027D01*
X79908Y126733D01*
Y126415D01*
X80030Y126121D01*
X80255Y125896D01*
X80549Y125774D01*
X80867D01*
X81161Y125896D01*
X81386Y126121D01*
X81508Y126415D01*
Y126733D01*
X81386Y127027D01*
X81161Y127252D01*
X80867Y127374D01*
D02*
G37*
G36*
X78308D02*
X77990D01*
X77696Y127252D01*
X77471Y127027D01*
X77349Y126733D01*
Y126415D01*
X77471Y126121D01*
X77696Y125896D01*
X77990Y125774D01*
X78308D01*
X78602Y125896D01*
X78827Y126121D01*
X78949Y126415D01*
Y126733D01*
X78827Y127027D01*
X78602Y127252D01*
X78308Y127374D01*
D02*
G37*
G36*
X75749D02*
X75431D01*
X75137Y127252D01*
X74912Y127027D01*
X74790Y126733D01*
Y126415D01*
X74912Y126121D01*
X75137Y125896D01*
X75431Y125774D01*
X75749D01*
X76043Y125896D01*
X76268Y126121D01*
X76390Y126415D01*
Y126733D01*
X76268Y127027D01*
X76043Y127252D01*
X75749Y127374D01*
D02*
G37*
G36*
X73190D02*
X72872D01*
X72578Y127252D01*
X72353Y127027D01*
X72231Y126733D01*
Y126415D01*
X72353Y126121D01*
X72578Y125896D01*
X72872Y125774D01*
X73190D01*
X73484Y125896D01*
X73709Y126121D01*
X73831Y126415D01*
Y126733D01*
X73709Y127027D01*
X73484Y127252D01*
X73190Y127374D01*
D02*
G37*
G36*
X68073D02*
X67755D01*
X67461Y127252D01*
X67236Y127027D01*
X67114Y126733D01*
Y126415D01*
X67236Y126121D01*
X67461Y125896D01*
X67755Y125774D01*
X68073D01*
X68367Y125896D01*
X68592Y126121D01*
X68714Y126415D01*
Y126733D01*
X68592Y127027D01*
X68367Y127252D01*
X68073Y127374D01*
D02*
G37*
G36*
X62954D02*
X62636D01*
X62342Y127252D01*
X62117Y127027D01*
X61995Y126733D01*
Y126415D01*
X62117Y126121D01*
X62342Y125896D01*
X62636Y125774D01*
X62954D01*
X63248Y125896D01*
X63473Y126121D01*
X63595Y126415D01*
Y126733D01*
X63473Y127027D01*
X63248Y127252D01*
X62954Y127374D01*
D02*
G37*
G36*
X60395D02*
X60077D01*
X59783Y127252D01*
X59558Y127027D01*
X59436Y126733D01*
Y126415D01*
X59558Y126121D01*
X59783Y125896D01*
X60077Y125774D01*
X60395D01*
X60689Y125896D01*
X60914Y126121D01*
X61036Y126415D01*
Y126733D01*
X60914Y127027D01*
X60689Y127252D01*
X60395Y127374D01*
D02*
G37*
G36*
X52718D02*
X52400D01*
X52106Y127252D01*
X51881Y127027D01*
X51759Y126733D01*
Y126415D01*
X51881Y126121D01*
X52106Y125896D01*
X52400Y125774D01*
X52718D01*
X53012Y125896D01*
X53237Y126121D01*
X53359Y126415D01*
Y126733D01*
X53237Y127027D01*
X53012Y127252D01*
X52718Y127374D01*
D02*
G37*
G36*
X43584Y128459D02*
X43227D01*
X42896Y128322D01*
X42643Y128069D01*
X42505Y127738D01*
X42306Y127378D01*
X42044Y127376D01*
X41947D01*
X41616Y127239D01*
X41363Y126986D01*
X41226Y126655D01*
Y126297D01*
X41363Y125967D01*
X41616Y125713D01*
X41947Y125576D01*
X42305D01*
X42636Y125713D01*
X42889Y125967D01*
X43026Y126297D01*
X43225Y126657D01*
X43488Y126659D01*
X43584Y126659D01*
X43982Y126494D01*
X44119Y126163D01*
X44372Y125910D01*
X44703Y125773D01*
X45061D01*
X45392Y125910D01*
X45645Y126163D01*
X45782Y126494D01*
Y126852D01*
X45645Y127183D01*
X45392Y127436D01*
X45061Y127573D01*
X44703Y127573D01*
X44306Y127738D01*
X44168Y128069D01*
X43915Y128322D01*
X43584Y128459D01*
D02*
G37*
G36*
X127640Y126589D02*
X127282D01*
X126951Y126452D01*
X126698Y126199D01*
X126561Y125868D01*
Y125510D01*
X126698Y125179D01*
X126951Y124926D01*
X127282Y124789D01*
X127640D01*
X127970Y124926D01*
X128224Y125179D01*
X128361Y125510D01*
Y125868D01*
X128224Y126199D01*
X127970Y126452D01*
X127640Y126589D01*
D02*
G37*
G36*
X47064Y125367D02*
X46746D01*
X46452Y125245D01*
X46227Y125020D01*
X46105Y124726D01*
Y124408D01*
X46227Y124114D01*
X46452Y123889D01*
X46746Y123767D01*
X47064D01*
X47358Y123889D01*
X47583Y124114D01*
X47705Y124408D01*
Y124726D01*
X47583Y125020D01*
X47358Y125245D01*
X47064Y125367D01*
D02*
G37*
G36*
X99392Y125309D02*
X99034D01*
X98703Y125172D01*
X98450Y124919D01*
X98313Y124589D01*
Y124230D01*
X98450Y123900D01*
X98703Y123646D01*
X99034Y123509D01*
X99392D01*
X99722Y123646D01*
X99976Y123900D01*
X100113Y124230D01*
Y124589D01*
X99976Y124919D01*
X99722Y125172D01*
X99392Y125309D01*
D02*
G37*
G36*
X78308Y124815D02*
X77990D01*
X77696Y124693D01*
X77471Y124468D01*
X77349Y124174D01*
Y123856D01*
X77471Y123562D01*
X77696Y123337D01*
X77990Y123215D01*
X78308D01*
X78602Y123337D01*
X78827Y123562D01*
X78949Y123856D01*
Y124174D01*
X78827Y124468D01*
X78602Y124693D01*
X78308Y124815D01*
D02*
G37*
G36*
X75749D02*
X75431D01*
X75137Y124693D01*
X74912Y124468D01*
X74790Y124174D01*
Y123856D01*
X74912Y123562D01*
X75137Y123337D01*
X75431Y123215D01*
X75749D01*
X76043Y123337D01*
X76268Y123562D01*
X76390Y123856D01*
Y124174D01*
X76268Y124468D01*
X76043Y124693D01*
X75749Y124815D01*
D02*
G37*
G36*
X70631D02*
X70313D01*
X70019Y124693D01*
X69794Y124468D01*
X69672Y124174D01*
Y123856D01*
X69794Y123562D01*
X70019Y123337D01*
X70313Y123215D01*
X70631D01*
X70925Y123337D01*
X71150Y123562D01*
X71272Y123856D01*
Y124174D01*
X71150Y124468D01*
X70925Y124693D01*
X70631Y124815D01*
D02*
G37*
G36*
X68073D02*
X67755D01*
X67461Y124693D01*
X67236Y124468D01*
X67114Y124174D01*
Y123856D01*
X67236Y123562D01*
X67461Y123337D01*
X67755Y123215D01*
X68073D01*
X68367Y123337D01*
X68592Y123562D01*
X68714Y123856D01*
Y124174D01*
X68592Y124468D01*
X68367Y124693D01*
X68073Y124815D01*
D02*
G37*
G36*
X62954D02*
X62636D01*
X62342Y124693D01*
X62117Y124468D01*
X61995Y124174D01*
Y123856D01*
X62117Y123562D01*
X62342Y123337D01*
X62636Y123215D01*
X62954D01*
X63248Y123337D01*
X63473Y123562D01*
X63595Y123856D01*
Y124174D01*
X63473Y124468D01*
X63248Y124693D01*
X62954Y124815D01*
D02*
G37*
G36*
X60395D02*
X60077D01*
X59783Y124693D01*
X59558Y124468D01*
X59436Y124174D01*
Y123856D01*
X59558Y123562D01*
X59783Y123337D01*
X60077Y123215D01*
X60395D01*
X60689Y123337D01*
X60914Y123562D01*
X61036Y123856D01*
Y124174D01*
X60914Y124468D01*
X60689Y124693D01*
X60395Y124815D01*
D02*
G37*
G36*
X55277D02*
X54959D01*
X54665Y124693D01*
X54440Y124468D01*
X54318Y124174D01*
Y123856D01*
X54440Y123562D01*
X54665Y123337D01*
X54959Y123215D01*
X55277D01*
X55571Y123337D01*
X55796Y123562D01*
X55918Y123856D01*
Y124174D01*
X55796Y124468D01*
X55571Y124693D01*
X55277Y124815D01*
D02*
G37*
G36*
X52718D02*
X52400D01*
X52106Y124693D01*
X51881Y124468D01*
X51759Y124174D01*
Y123856D01*
X51881Y123562D01*
X52106Y123337D01*
X52400Y123215D01*
X52718D01*
X53012Y123337D01*
X53237Y123562D01*
X53359Y123856D01*
Y124174D01*
X53237Y124468D01*
X53012Y124693D01*
X52718Y124815D01*
D02*
G37*
G36*
X50159D02*
X49841D01*
X49547Y124693D01*
X49322Y124468D01*
X49200Y124174D01*
Y123856D01*
X49322Y123562D01*
X49547Y123337D01*
X49841Y123215D01*
X50159D01*
X50453Y123337D01*
X50678Y123562D01*
X50800Y123856D01*
Y124174D01*
X50678Y124468D01*
X50453Y124693D01*
X50159Y124815D01*
D02*
G37*
G36*
X119097Y125016D02*
X118699D01*
X118332Y124864D01*
X118050Y124582D01*
X117898Y124215D01*
Y123817D01*
X118050Y123450D01*
X118332Y123168D01*
X118699Y123016D01*
X119097D01*
X119465Y123168D01*
X119746Y123450D01*
X119898Y123817D01*
Y124215D01*
X119746Y124582D01*
X119465Y124864D01*
X119097Y125016D01*
D02*
G37*
G36*
X11814Y125240D02*
X11337D01*
X10896Y125057D01*
X10558Y124720D01*
X10375Y124279D01*
Y123802D01*
X10558Y123360D01*
X10896Y123023D01*
X11337Y122840D01*
X11814D01*
X12255Y123023D01*
X12593Y123360D01*
X12775Y123802D01*
Y124279D01*
X12593Y124720D01*
X12255Y125057D01*
X11814Y125240D01*
D02*
G37*
G36*
X84116Y123930D02*
X83798D01*
X83504Y123808D01*
X83279Y123583D01*
X83157Y123289D01*
Y122971D01*
X83279Y122677D01*
X83504Y122452D01*
X83798Y122330D01*
X84116D01*
X84410Y122452D01*
X84635Y122677D01*
X84757Y122971D01*
Y123289D01*
X84635Y123583D01*
X84410Y123808D01*
X84116Y123930D01*
D02*
G37*
G36*
X80558Y122567D02*
X80239D01*
X79945Y122445D01*
X79720Y122220D01*
X79598Y121926D01*
Y121607D01*
X79720Y121313D01*
X79945Y121088D01*
X80239Y120967D01*
X80558D01*
X80852Y121088D01*
X81077Y121313D01*
X81198Y121607D01*
Y121926D01*
X81077Y122220D01*
X80852Y122445D01*
X80558Y122567D01*
D02*
G37*
G36*
X78308Y122256D02*
X77990D01*
X77696Y122134D01*
X77471Y121909D01*
X77349Y121615D01*
Y121297D01*
X77471Y121003D01*
X77696Y120778D01*
X77990Y120656D01*
X78308D01*
X78602Y120778D01*
X78827Y121003D01*
X78949Y121297D01*
Y121615D01*
X78827Y121909D01*
X78602Y122134D01*
X78308Y122256D01*
D02*
G37*
G36*
X75749D02*
X75431D01*
X75137Y122134D01*
X74912Y121909D01*
X74790Y121615D01*
Y121297D01*
X74912Y121003D01*
X75137Y120778D01*
X75431Y120656D01*
X75749D01*
X76043Y120778D01*
X76268Y121003D01*
X76390Y121297D01*
Y121615D01*
X76268Y121909D01*
X76043Y122134D01*
X75749Y122256D01*
D02*
G37*
G36*
X73190D02*
X72872D01*
X72578Y122134D01*
X72353Y121909D01*
X72231Y121615D01*
Y121297D01*
X72353Y121003D01*
X72578Y120778D01*
X72872Y120656D01*
X73190D01*
X73484Y120778D01*
X73709Y121003D01*
X73831Y121297D01*
Y121615D01*
X73709Y121909D01*
X73484Y122134D01*
X73190Y122256D01*
D02*
G37*
G36*
X70631D02*
X70313D01*
X70019Y122134D01*
X69794Y121909D01*
X69672Y121615D01*
Y121297D01*
X69794Y121003D01*
X70019Y120778D01*
X70313Y120656D01*
X70631D01*
X70925Y120778D01*
X71150Y121003D01*
X71272Y121297D01*
Y121615D01*
X71150Y121909D01*
X70925Y122134D01*
X70631Y122256D01*
D02*
G37*
G36*
X68073D02*
X67755D01*
X67461Y122134D01*
X67236Y121909D01*
X67114Y121615D01*
Y121297D01*
X67236Y121003D01*
X67461Y120778D01*
X67755Y120656D01*
X68073D01*
X68367Y120778D01*
X68592Y121003D01*
X68714Y121297D01*
Y121615D01*
X68592Y121909D01*
X68367Y122134D01*
X68073Y122256D01*
D02*
G37*
G36*
X62954D02*
X62636D01*
X62342Y122134D01*
X62117Y121909D01*
X61995Y121615D01*
Y121297D01*
X62117Y121003D01*
X62342Y120778D01*
X62636Y120656D01*
X62954D01*
X63248Y120778D01*
X63473Y121003D01*
X63595Y121297D01*
Y121615D01*
X63473Y121909D01*
X63248Y122134D01*
X62954Y122256D01*
D02*
G37*
G36*
X60395D02*
X60077D01*
X59783Y122134D01*
X59558Y121909D01*
X59436Y121615D01*
Y121297D01*
X59558Y121003D01*
X59783Y120778D01*
X60077Y120656D01*
X60395D01*
X60689Y120778D01*
X60914Y121003D01*
X61036Y121297D01*
Y121615D01*
X60914Y121909D01*
X60689Y122134D01*
X60395Y122256D01*
D02*
G37*
G36*
X57836D02*
X57518D01*
X57224Y122134D01*
X56999Y121909D01*
X56877Y121615D01*
Y121297D01*
X56999Y121003D01*
X57224Y120778D01*
X57518Y120656D01*
X57836D01*
X58130Y120778D01*
X58355Y121003D01*
X58477Y121297D01*
Y121615D01*
X58355Y121909D01*
X58130Y122134D01*
X57836Y122256D01*
D02*
G37*
G36*
X55277D02*
X54959D01*
X54665Y122134D01*
X54440Y121909D01*
X54318Y121615D01*
Y121297D01*
X54440Y121003D01*
X54665Y120778D01*
X54959Y120656D01*
X55277D01*
X55571Y120778D01*
X55796Y121003D01*
X55918Y121297D01*
Y121615D01*
X55796Y121909D01*
X55571Y122134D01*
X55277Y122256D01*
D02*
G37*
G36*
X52718D02*
X52400D01*
X52106Y122134D01*
X51881Y121909D01*
X51759Y121615D01*
Y121297D01*
X51881Y121003D01*
X52106Y120778D01*
X52400Y120656D01*
X52718D01*
X53012Y120778D01*
X53237Y121003D01*
X53359Y121297D01*
Y121615D01*
X53237Y121909D01*
X53012Y122134D01*
X52718Y122256D01*
D02*
G37*
G36*
X50159D02*
X49841D01*
X49547Y122134D01*
X49322Y121909D01*
X49200Y121615D01*
Y121297D01*
X49322Y121003D01*
X49547Y120778D01*
X49841Y120656D01*
X50159D01*
X50453Y120778D01*
X50678Y121003D01*
X50800Y121297D01*
Y121615D01*
X50678Y121909D01*
X50453Y122134D01*
X50159Y122256D01*
D02*
G37*
G36*
X47600D02*
X47282D01*
X46988Y122134D01*
X46763Y121909D01*
X46641Y121615D01*
Y121297D01*
X46763Y121003D01*
X46988Y120778D01*
X47282Y120656D01*
X47600D01*
X47894Y120778D01*
X48119Y121003D01*
X48241Y121297D01*
Y121615D01*
X48119Y121909D01*
X47894Y122134D01*
X47600Y122256D01*
D02*
G37*
G36*
X18279Y129098D02*
X17941D01*
X17629Y128969D01*
X17390Y128729D01*
X17260Y128417D01*
Y128079D01*
X17390Y127767D01*
X17517Y127640D01*
X17614Y127434D01*
X17549Y127019D01*
X17488Y126958D01*
X17359Y126646D01*
Y126307D01*
X17488Y125995D01*
X17549Y125934D01*
X17614Y125518D01*
X17517Y125313D01*
X17390Y125186D01*
X17260Y124874D01*
Y124536D01*
X17390Y124223D01*
X17544Y124069D01*
X17618Y123869D01*
X17582Y123462D01*
X17479Y123360D01*
X17350Y123048D01*
Y122710D01*
X17479Y122397D01*
X17517Y122360D01*
X17667Y122043D01*
X17517Y121706D01*
X17488Y121677D01*
X17358Y121365D01*
Y121026D01*
X17488Y120714D01*
X17727Y120475D01*
X18039Y120345D01*
X18377D01*
X18690Y120475D01*
X18929Y120714D01*
X19058Y121026D01*
Y121365D01*
X18929Y121677D01*
X18891Y121715D01*
X18741Y122032D01*
X18891Y122368D01*
X18921Y122397D01*
X19050Y122710D01*
Y123048D01*
X18921Y123360D01*
X18766Y123515D01*
X18692Y123714D01*
X18729Y124121D01*
X18831Y124223D01*
X18960Y124536D01*
Y124874D01*
X18831Y125186D01*
X18770Y125248D01*
X18705Y125663D01*
X18802Y125868D01*
X18929Y125995D01*
X19059Y126307D01*
Y126646D01*
X18929Y126958D01*
X18802Y127085D01*
X18705Y127290D01*
X18770Y127705D01*
X18831Y127767D01*
X18960Y128079D01*
Y128417D01*
X18831Y128729D01*
X18592Y128969D01*
X18279Y129098D01*
D02*
G37*
G36*
X123568Y122355D02*
X123250D01*
X122956Y122233D01*
X122731Y122008D01*
X122609Y121714D01*
Y121396D01*
X122611Y121004D01*
X122358Y120796D01*
X122317Y120779D01*
X122092Y120554D01*
X121970Y120260D01*
Y119942D01*
X122092Y119648D01*
X122317Y119423D01*
X122611Y119301D01*
X122930D01*
X123224Y119423D01*
X123449Y119648D01*
X123571Y119942D01*
Y120260D01*
X123569Y120652D01*
X123822Y120860D01*
X123862Y120877D01*
X124087Y121102D01*
X124209Y121396D01*
Y121714D01*
X124087Y122008D01*
X123862Y122233D01*
X123568Y122355D01*
D02*
G37*
G36*
X15832Y120137D02*
X15494D01*
X15181Y120008D01*
X14942Y119769D01*
X14813Y119456D01*
Y119118D01*
X14942Y118806D01*
X15181Y118567D01*
X15494Y118437D01*
X15832D01*
X16144Y118567D01*
X16383Y118806D01*
X16513Y119118D01*
Y119456D01*
X16383Y119769D01*
X16144Y120008D01*
X15832Y120137D01*
D02*
G37*
G36*
X107463Y120191D02*
X107104D01*
X106774Y120054D01*
X106520Y119801D01*
X106384Y119470D01*
Y119112D01*
X106520Y118781D01*
X106774Y118528D01*
X107104Y118391D01*
X107463D01*
X107793Y118528D01*
X108046Y118781D01*
X108184Y119112D01*
Y119470D01*
X108046Y119801D01*
X107793Y120054D01*
X107463Y120191D01*
D02*
G37*
G36*
X78308Y119697D02*
X77990D01*
X77696Y119575D01*
X77471Y119350D01*
X77349Y119056D01*
Y118738D01*
X77471Y118444D01*
X77696Y118219D01*
X77990Y118097D01*
X78308D01*
X78602Y118219D01*
X78827Y118444D01*
X78949Y118738D01*
Y119056D01*
X78827Y119350D01*
X78602Y119575D01*
X78308Y119697D01*
D02*
G37*
G36*
X75749D02*
X75431D01*
X75137Y119575D01*
X74912Y119350D01*
X74790Y119056D01*
Y118738D01*
X74912Y118444D01*
X75137Y118219D01*
X75431Y118097D01*
X75749D01*
X76043Y118219D01*
X76268Y118444D01*
X76390Y118738D01*
Y119056D01*
X76268Y119350D01*
X76043Y119575D01*
X75749Y119697D01*
D02*
G37*
G36*
X73190D02*
X72872D01*
X72578Y119575D01*
X72353Y119350D01*
X72231Y119056D01*
Y118738D01*
X72353Y118444D01*
X72578Y118219D01*
X72872Y118097D01*
X73190D01*
X73484Y118219D01*
X73709Y118444D01*
X73831Y118738D01*
Y119056D01*
X73709Y119350D01*
X73484Y119575D01*
X73190Y119697D01*
D02*
G37*
G36*
X70631D02*
X70313D01*
X70019Y119575D01*
X69794Y119350D01*
X69672Y119056D01*
Y118738D01*
X69794Y118444D01*
X70019Y118219D01*
X70313Y118097D01*
X70631D01*
X70925Y118219D01*
X71150Y118444D01*
X71272Y118738D01*
Y119056D01*
X71150Y119350D01*
X70925Y119575D01*
X70631Y119697D01*
D02*
G37*
G36*
X68073D02*
X67755D01*
X67461Y119575D01*
X67236Y119350D01*
X67114Y119056D01*
Y118738D01*
X67236Y118444D01*
X67461Y118219D01*
X67755Y118097D01*
X68073D01*
X68367Y118219D01*
X68592Y118444D01*
X68714Y118738D01*
Y119056D01*
X68592Y119350D01*
X68367Y119575D01*
X68073Y119697D01*
D02*
G37*
G36*
X62954D02*
X62636D01*
X62342Y119575D01*
X62117Y119350D01*
X61995Y119056D01*
Y118738D01*
X62117Y118444D01*
X62342Y118219D01*
X62636Y118097D01*
X62954D01*
X63248Y118219D01*
X63473Y118444D01*
X63595Y118738D01*
Y119056D01*
X63473Y119350D01*
X63248Y119575D01*
X62954Y119697D01*
D02*
G37*
G36*
X60395D02*
X60077D01*
X59783Y119575D01*
X59558Y119350D01*
X59436Y119056D01*
Y118738D01*
X59558Y118444D01*
X59783Y118219D01*
X60077Y118097D01*
X60395D01*
X60689Y118219D01*
X60914Y118444D01*
X61036Y118738D01*
Y119056D01*
X60914Y119350D01*
X60689Y119575D01*
X60395Y119697D01*
D02*
G37*
G36*
X57836D02*
X57518D01*
X57224Y119575D01*
X56999Y119350D01*
X56877Y119056D01*
Y118738D01*
X56999Y118444D01*
X57224Y118219D01*
X57518Y118097D01*
X57836D01*
X58130Y118219D01*
X58355Y118444D01*
X58477Y118738D01*
Y119056D01*
X58355Y119350D01*
X58130Y119575D01*
X57836Y119697D01*
D02*
G37*
G36*
X55277D02*
X54959D01*
X54665Y119575D01*
X54440Y119350D01*
X54318Y119056D01*
Y118738D01*
X54440Y118444D01*
X54665Y118219D01*
X54959Y118097D01*
X55277D01*
X55571Y118219D01*
X55796Y118444D01*
X55918Y118738D01*
Y119056D01*
X55796Y119350D01*
X55571Y119575D01*
X55277Y119697D01*
D02*
G37*
G36*
X52718D02*
X52400D01*
X52106Y119575D01*
X51881Y119350D01*
X51759Y119056D01*
Y118738D01*
X51881Y118444D01*
X52106Y118219D01*
X52400Y118097D01*
X52718D01*
X53012Y118219D01*
X53237Y118444D01*
X53359Y118738D01*
Y119056D01*
X53237Y119350D01*
X53012Y119575D01*
X52718Y119697D01*
D02*
G37*
G36*
X50159D02*
X49841D01*
X49547Y119575D01*
X49322Y119350D01*
X49200Y119056D01*
Y118738D01*
X49322Y118444D01*
X49547Y118219D01*
X49841Y118097D01*
X50159D01*
X50453Y118219D01*
X50678Y118444D01*
X50800Y118738D01*
Y119056D01*
X50678Y119350D01*
X50453Y119575D01*
X50159Y119697D01*
D02*
G37*
G36*
X37707Y119610D02*
X37349D01*
X37018Y119473D01*
X36765Y119220D01*
X36628Y118889D01*
Y118531D01*
X36765Y118200D01*
X37018Y117947D01*
X37349Y117810D01*
X37707D01*
X38038Y117947D01*
X38291Y118200D01*
X38428Y118531D01*
Y118889D01*
X38291Y119220D01*
X38038Y119473D01*
X37707Y119610D01*
D02*
G37*
G36*
X130221Y119117D02*
X129883D01*
X129570Y118987D01*
X129331Y118748D01*
X129202Y118436D01*
Y118097D01*
X129331Y117785D01*
X129570Y117546D01*
X129883Y117417D01*
X130221D01*
X130533Y117546D01*
X130772Y117785D01*
X130902Y118097D01*
Y118436D01*
X130772Y118748D01*
X130533Y118987D01*
X130221Y119117D01*
D02*
G37*
G36*
X117168Y118473D02*
X116811D01*
X116480Y118336D01*
X116226Y118083D01*
X116089Y117752D01*
Y117394D01*
X116226Y117063D01*
X116480Y116810D01*
X116811Y116673D01*
X117168D01*
X117499Y116810D01*
X117753Y117063D01*
X117889Y117394D01*
Y117752D01*
X117753Y118083D01*
X117499Y118336D01*
X117168Y118473D01*
D02*
G37*
G36*
X18351Y118353D02*
X18013D01*
X17700Y118224D01*
X17461Y117984D01*
X17332Y117672D01*
Y117334D01*
X17461Y117021D01*
X17700Y116782D01*
X18013Y116653D01*
X18351D01*
X18663Y116782D01*
X18902Y117021D01*
X19032Y117334D01*
Y117672D01*
X18902Y117984D01*
X18663Y118224D01*
X18351Y118353D01*
D02*
G37*
G36*
X111014Y117935D02*
X110656D01*
X110326Y117798D01*
X110073Y117545D01*
X109935Y117214D01*
Y116856D01*
X110073Y116525D01*
X110326Y116272D01*
X110656Y116135D01*
X111014D01*
X111345Y116272D01*
X111599Y116525D01*
X111735Y116856D01*
Y117214D01*
X111599Y117545D01*
X111345Y117798D01*
X111014Y117935D01*
D02*
G37*
G36*
X103821Y117731D02*
X103463D01*
X103132Y117594D01*
X102879Y117341D01*
X102742Y117010D01*
Y116652D01*
X102879Y116321D01*
X103132Y116068D01*
X103463Y115931D01*
X103821D01*
X104151Y116068D01*
X104405Y116321D01*
X104542Y116652D01*
Y117010D01*
X104405Y117341D01*
X104151Y117594D01*
X103821Y117731D01*
D02*
G37*
G36*
X83426Y117138D02*
X83108D01*
X82814Y117016D01*
X82589Y116791D01*
X82467Y116497D01*
Y116179D01*
X82589Y115885D01*
X82814Y115660D01*
X83108Y115538D01*
X83426D01*
X83720Y115660D01*
X83945Y115885D01*
X84067Y116179D01*
Y116497D01*
X83945Y116791D01*
X83720Y117016D01*
X83426Y117138D01*
D02*
G37*
G36*
X78308D02*
X77990D01*
X77696Y117016D01*
X77471Y116791D01*
X77349Y116497D01*
Y116179D01*
X77471Y115885D01*
X77696Y115660D01*
X77990Y115538D01*
X78308D01*
X78602Y115660D01*
X78827Y115885D01*
X78949Y116179D01*
Y116497D01*
X78827Y116791D01*
X78602Y117016D01*
X78308Y117138D01*
D02*
G37*
G36*
X75749D02*
X75431D01*
X75137Y117016D01*
X74912Y116791D01*
X74790Y116497D01*
Y116179D01*
X74912Y115885D01*
X75137Y115660D01*
X75431Y115538D01*
X75749D01*
X76043Y115660D01*
X76268Y115885D01*
X76390Y116179D01*
Y116497D01*
X76268Y116791D01*
X76043Y117016D01*
X75749Y117138D01*
D02*
G37*
G36*
X73190D02*
X72872D01*
X72578Y117016D01*
X72353Y116791D01*
X72231Y116497D01*
Y116179D01*
X72353Y115885D01*
X72578Y115660D01*
X72872Y115538D01*
X73190D01*
X73484Y115660D01*
X73709Y115885D01*
X73831Y116179D01*
Y116497D01*
X73709Y116791D01*
X73484Y117016D01*
X73190Y117138D01*
D02*
G37*
G36*
X70631D02*
X70313D01*
X70019Y117016D01*
X69794Y116791D01*
X69672Y116497D01*
Y116179D01*
X69794Y115885D01*
X70019Y115660D01*
X70313Y115538D01*
X70631D01*
X70925Y115660D01*
X71150Y115885D01*
X71272Y116179D01*
Y116497D01*
X71150Y116791D01*
X70925Y117016D01*
X70631Y117138D01*
D02*
G37*
G36*
X68073D02*
X67755D01*
X67461Y117016D01*
X67236Y116791D01*
X67114Y116497D01*
Y116179D01*
X67236Y115885D01*
X67461Y115660D01*
X67755Y115538D01*
X68073D01*
X68367Y115660D01*
X68592Y115885D01*
X68714Y116179D01*
Y116497D01*
X68592Y116791D01*
X68367Y117016D01*
X68073Y117138D01*
D02*
G37*
G36*
X62954D02*
X62636D01*
X62342Y117016D01*
X62117Y116791D01*
X61995Y116497D01*
Y116179D01*
X62117Y115885D01*
X62342Y115660D01*
X62636Y115538D01*
X62954D01*
X63248Y115660D01*
X63473Y115885D01*
X63595Y116179D01*
Y116497D01*
X63473Y116791D01*
X63248Y117016D01*
X62954Y117138D01*
D02*
G37*
G36*
X57836D02*
X57518D01*
X57224Y117016D01*
X56999Y116791D01*
X56877Y116497D01*
Y116179D01*
X56999Y115885D01*
X57224Y115660D01*
X57518Y115538D01*
X57836D01*
X58130Y115660D01*
X58355Y115885D01*
X58477Y116179D01*
Y116497D01*
X58355Y116791D01*
X58130Y117016D01*
X57836Y117138D01*
D02*
G37*
G36*
X55277D02*
X54959D01*
X54665Y117016D01*
X54440Y116791D01*
X54318Y116497D01*
Y116179D01*
X54440Y115885D01*
X54665Y115660D01*
X54959Y115538D01*
X55277D01*
X55571Y115660D01*
X55796Y115885D01*
X55918Y116179D01*
Y116497D01*
X55796Y116791D01*
X55571Y117016D01*
X55277Y117138D01*
D02*
G37*
G36*
X52718D02*
X52400D01*
X52106Y117016D01*
X51881Y116791D01*
X51759Y116497D01*
Y116179D01*
X51881Y115885D01*
X52106Y115660D01*
X52400Y115538D01*
X52718D01*
X53012Y115660D01*
X53237Y115885D01*
X53359Y116179D01*
Y116497D01*
X53237Y116791D01*
X53012Y117016D01*
X52718Y117138D01*
D02*
G37*
G36*
X47600D02*
X47282D01*
X46988Y117016D01*
X46763Y116791D01*
X46641Y116497D01*
Y116179D01*
X46763Y115885D01*
X46988Y115660D01*
X47282Y115538D01*
X47600D01*
X47894Y115660D01*
X48119Y115885D01*
X48241Y116179D01*
Y116497D01*
X48119Y116791D01*
X47894Y117016D01*
X47600Y117138D01*
D02*
G37*
G36*
X60395Y114580D02*
X60077D01*
X59783Y114458D01*
X59558Y114233D01*
X59436Y113939D01*
Y113621D01*
X59558Y113327D01*
X59783Y113102D01*
X60077Y112980D01*
X60395D01*
X60689Y113102D01*
X60914Y113327D01*
X61036Y113621D01*
Y113939D01*
X60914Y114233D01*
X60689Y114458D01*
X60395Y114580D01*
D02*
G37*
G36*
X68073Y114579D02*
X67755D01*
X67461Y114457D01*
X67236Y114232D01*
X67114Y113938D01*
Y113620D01*
X67236Y113326D01*
X67461Y113101D01*
X67755Y112979D01*
X68073D01*
X68367Y113101D01*
X68592Y113326D01*
X68714Y113620D01*
Y113938D01*
X68592Y114232D01*
X68367Y114457D01*
X68073Y114579D01*
D02*
G37*
G36*
X65513D02*
X65195D01*
X64901Y114457D01*
X64676Y114232D01*
X64554Y113938D01*
Y113620D01*
X64676Y113326D01*
X64901Y113101D01*
X65195Y112979D01*
X65513D01*
X65807Y113101D01*
X66032Y113326D01*
X66154Y113620D01*
Y113938D01*
X66032Y114232D01*
X65807Y114457D01*
X65513Y114579D01*
D02*
G37*
G36*
X62953D02*
X62635D01*
X62341Y114457D01*
X62116Y114232D01*
X61994Y113938D01*
Y113620D01*
X62116Y113326D01*
X62341Y113101D01*
X62635Y112979D01*
X62953D01*
X63247Y113101D01*
X63472Y113326D01*
X63594Y113620D01*
Y113938D01*
X63472Y114232D01*
X63247Y114457D01*
X62953Y114579D01*
D02*
G37*
G36*
X57836D02*
X57518D01*
X57224Y114457D01*
X56999Y114232D01*
X56877Y113938D01*
Y113620D01*
X56999Y113326D01*
X57224Y113101D01*
X57518Y112979D01*
X57836D01*
X58130Y113101D01*
X58355Y113326D01*
X58477Y113620D01*
Y113938D01*
X58355Y114232D01*
X58130Y114457D01*
X57836Y114579D01*
D02*
G37*
G36*
X55277D02*
X54959D01*
X54665Y114457D01*
X54440Y114232D01*
X54318Y113938D01*
Y113620D01*
X54440Y113326D01*
X54665Y113101D01*
X54959Y112979D01*
X55277D01*
X55571Y113101D01*
X55796Y113326D01*
X55918Y113620D01*
Y113938D01*
X55796Y114232D01*
X55571Y114457D01*
X55277Y114579D01*
D02*
G37*
G36*
X52718D02*
X52400D01*
X52106Y114457D01*
X51881Y114232D01*
X51759Y113938D01*
Y113620D01*
X51881Y113326D01*
X52106Y113101D01*
X52400Y112979D01*
X52718D01*
X53012Y113101D01*
X53237Y113326D01*
X53359Y113620D01*
Y113938D01*
X53237Y114232D01*
X53012Y114457D01*
X52718Y114579D01*
D02*
G37*
G36*
X50159D02*
X49841D01*
X49547Y114457D01*
X49322Y114232D01*
X49200Y113938D01*
Y113620D01*
X49322Y113326D01*
X49547Y113101D01*
X49841Y112979D01*
X50159D01*
X50453Y113101D01*
X50678Y113326D01*
X50800Y113620D01*
Y113938D01*
X50678Y114232D01*
X50453Y114457D01*
X50159Y114579D01*
D02*
G37*
G36*
X15442Y115125D02*
X15045D01*
X14677Y114973D01*
X14396Y114691D01*
X14244Y114324D01*
Y113926D01*
X14396Y113558D01*
X14503Y113451D01*
X14432Y112888D01*
X14424Y112877D01*
X14379Y112858D01*
X14098Y112577D01*
X13945Y112209D01*
Y111811D01*
X14098Y111444D01*
X14379Y111162D01*
X14747Y111010D01*
X15144D01*
X15512Y111162D01*
X15793Y111444D01*
X15945Y111811D01*
Y112209D01*
X15793Y112577D01*
X15686Y112684D01*
X15757Y113247D01*
X15765Y113258D01*
X15810Y113277D01*
X16091Y113558D01*
X16244Y113926D01*
Y114324D01*
X16091Y114691D01*
X15810Y114973D01*
X15442Y115125D01*
D02*
G37*
G36*
X31470Y114467D02*
X31111D01*
X30781Y114330D01*
X30527Y114077D01*
X30390Y113746D01*
Y113388D01*
X30527Y113057D01*
X30568Y113017D01*
X30760Y112759D01*
X30594Y112390D01*
X30457Y112059D01*
Y111701D01*
X30594Y111370D01*
X30847Y111117D01*
X31178Y110980D01*
X31536D01*
X31867Y111117D01*
X32120Y111370D01*
X32257Y111701D01*
Y112059D01*
X32120Y112390D01*
X32080Y112430D01*
X31887Y112688D01*
X32053Y113057D01*
X32190Y113388D01*
Y113746D01*
X32053Y114077D01*
X31800Y114330D01*
X31470Y114467D01*
D02*
G37*
G36*
X42712Y112416D02*
X42354D01*
X42023Y112279D01*
X41770Y112026D01*
X41633Y111695D01*
Y111337D01*
X41770Y111007D01*
X42023Y110753D01*
X42354Y110616D01*
X42712D01*
X43043Y110753D01*
X43296Y111007D01*
X43433Y111337D01*
Y111695D01*
X43296Y112026D01*
X43043Y112279D01*
X42712Y112416D01*
D02*
G37*
G36*
X78308Y112021D02*
X77990D01*
X77696Y111899D01*
X77471Y111674D01*
X77349Y111380D01*
Y111062D01*
X77471Y110768D01*
X77696Y110543D01*
X77990Y110421D01*
X78308D01*
X78602Y110543D01*
X78827Y110768D01*
X78949Y111062D01*
Y111380D01*
X78827Y111674D01*
X78602Y111899D01*
X78308Y112021D01*
D02*
G37*
G36*
X80868Y112020D02*
X80550D01*
X80256Y111898D01*
X80031Y111673D01*
X79909Y111379D01*
Y111061D01*
X80031Y110767D01*
X80256Y110542D01*
X80550Y110420D01*
X80868D01*
X81162Y110542D01*
X81387Y110767D01*
X81509Y111061D01*
Y111379D01*
X81387Y111673D01*
X81162Y111898D01*
X80868Y112020D01*
D02*
G37*
G36*
X99596Y116884D02*
X99277D01*
X98983Y116762D01*
X98758Y116537D01*
X98637Y116243D01*
Y115925D01*
X98722Y115615D01*
X98428Y115493D01*
X98203Y115268D01*
X98081Y114974D01*
Y114655D01*
X98074Y114322D01*
X97780Y114200D01*
X97554Y113975D01*
X97433Y113681D01*
Y113363D01*
X97405Y112939D01*
X97180Y112714D01*
X97058Y112420D01*
Y112101D01*
X96746Y111792D01*
X96521Y111567D01*
X96399Y111273D01*
Y110954D01*
X96521Y110660D01*
X96746Y110435D01*
X97040Y110313D01*
X97359D01*
X97653Y110435D01*
X97878Y110660D01*
X98000Y110954D01*
Y111273D01*
X98311Y111582D01*
X98536Y111808D01*
X98658Y112101D01*
Y112420D01*
X98686Y112844D01*
X98911Y113069D01*
X99033Y113363D01*
Y113681D01*
X99040Y114014D01*
X99334Y114136D01*
X99559Y114361D01*
X99681Y114655D01*
Y114974D01*
X99596Y115283D01*
X99890Y115405D01*
X100115Y115631D01*
X100236Y115925D01*
Y116243D01*
X100115Y116537D01*
X99890Y116762D01*
X99596Y116884D01*
D02*
G37*
G36*
X5090Y111873D02*
X4752D01*
X4439Y111744D01*
X4200Y111505D01*
X4071Y111193D01*
Y110854D01*
X4200Y110542D01*
X4439Y110303D01*
X4752Y110173D01*
X5090D01*
X5402Y110303D01*
X5641Y110542D01*
X5771Y110854D01*
Y111193D01*
X5641Y111505D01*
X5402Y111744D01*
X5090Y111873D01*
D02*
G37*
G36*
X50230Y109496D02*
X49912D01*
X49618Y109374D01*
X49393Y109149D01*
X49271Y108855D01*
Y108537D01*
X49393Y108242D01*
X49618Y108018D01*
X49912Y107896D01*
X50230D01*
X50524Y108018D01*
X50749Y108242D01*
X50871Y108537D01*
Y108855D01*
X50749Y109149D01*
X50524Y109374D01*
X50230Y109496D01*
D02*
G37*
G36*
X78308Y109462D02*
X77990D01*
X77696Y109340D01*
X77471Y109115D01*
X77349Y108821D01*
Y108503D01*
X77471Y108209D01*
X77696Y107984D01*
X77990Y107862D01*
X78308D01*
X78602Y107984D01*
X78827Y108209D01*
X78949Y108503D01*
Y108821D01*
X78827Y109115D01*
X78602Y109340D01*
X78308Y109462D01*
D02*
G37*
G36*
X75749D02*
X75431D01*
X75137Y109340D01*
X74912Y109115D01*
X74790Y108821D01*
Y108503D01*
X74912Y108209D01*
X75137Y107984D01*
X75431Y107862D01*
X75749D01*
X76043Y107984D01*
X76268Y108209D01*
X76390Y108503D01*
Y108821D01*
X76268Y109115D01*
X76043Y109340D01*
X75749Y109462D01*
D02*
G37*
G36*
X73190D02*
X72872D01*
X72578Y109340D01*
X72353Y109115D01*
X72231Y108821D01*
Y108503D01*
X72353Y108209D01*
X72578Y107984D01*
X72872Y107862D01*
X73190D01*
X73484Y107984D01*
X73709Y108209D01*
X73831Y108503D01*
Y108821D01*
X73709Y109115D01*
X73484Y109340D01*
X73190Y109462D01*
D02*
G37*
G36*
X57836D02*
X57518D01*
X57224Y109340D01*
X56999Y109115D01*
X56877Y108821D01*
Y108503D01*
X56999Y108209D01*
X57224Y107984D01*
X57518Y107862D01*
X57836D01*
X58130Y107984D01*
X58355Y108209D01*
X58477Y108503D01*
Y108821D01*
X58355Y109115D01*
X58130Y109340D01*
X57836Y109462D01*
D02*
G37*
G36*
X55277D02*
X54959D01*
X54665Y109340D01*
X54440Y109115D01*
X54318Y108821D01*
Y108503D01*
X54440Y108209D01*
X54665Y107984D01*
X54959Y107862D01*
X55277D01*
X55571Y107984D01*
X55796Y108209D01*
X55918Y108503D01*
Y108821D01*
X55796Y109115D01*
X55571Y109340D01*
X55277Y109462D01*
D02*
G37*
G36*
X52718D02*
X52400D01*
X52106Y109340D01*
X51881Y109115D01*
X51759Y108821D01*
Y108503D01*
X51881Y108209D01*
X52106Y107984D01*
X52400Y107862D01*
X52718D01*
X53012Y107984D01*
X53237Y108209D01*
X53359Y108503D01*
Y108821D01*
X53237Y109115D01*
X53012Y109340D01*
X52718Y109462D01*
D02*
G37*
G36*
X99175Y108083D02*
X98857D01*
X98563Y107962D01*
X98338Y107737D01*
X98216Y107443D01*
Y107124D01*
X98338Y106830D01*
X98563Y106605D01*
X98857Y106483D01*
X99175D01*
X99469Y106605D01*
X99694Y106830D01*
X99816Y107124D01*
Y107443D01*
X99694Y107737D01*
X99469Y107962D01*
X99175Y108083D01*
D02*
G37*
G36*
X133989Y108368D02*
X133512D01*
X133071Y108185D01*
X132733Y107847D01*
X132550Y107406D01*
Y106929D01*
X132733Y106488D01*
X133071Y106150D01*
X133512Y105968D01*
X133989D01*
X134430Y106150D01*
X134768Y106488D01*
X134950Y106929D01*
Y107406D01*
X134768Y107847D01*
X134430Y108185D01*
X133989Y108368D01*
D02*
G37*
G36*
X75533Y107260D02*
X75215D01*
X74921Y107138D01*
X74696Y106913D01*
X74574Y106619D01*
Y106301D01*
X74696Y106007D01*
X74921Y105782D01*
X75215Y105660D01*
X75533D01*
X75827Y105782D01*
X76052Y106007D01*
X76174Y106301D01*
Y106619D01*
X76052Y106913D01*
X75827Y107138D01*
X75533Y107260D01*
D02*
G37*
G36*
X5100Y109561D02*
X4742D01*
X4411Y109424D01*
X4158Y109171D01*
X4021Y108840D01*
Y108482D01*
X4158Y108152D01*
X4411Y107898D01*
X4530Y107849D01*
Y107308D01*
X4411Y107259D01*
X4158Y107006D01*
X4021Y106675D01*
Y106317D01*
X4158Y105986D01*
X4411Y105733D01*
X4742Y105596D01*
X5100D01*
X5431Y105733D01*
X5684Y105986D01*
X5821Y106317D01*
Y106675D01*
X5684Y107006D01*
X5431Y107259D01*
X5313Y107308D01*
Y107849D01*
X5431Y107898D01*
X5684Y108152D01*
X5821Y108482D01*
Y108840D01*
X5684Y109171D01*
X5431Y109424D01*
X5100Y109561D01*
D02*
G37*
G36*
X78308Y106902D02*
X77990D01*
X77696Y106780D01*
X77471Y106555D01*
X77349Y106261D01*
Y105943D01*
X77471Y105649D01*
X77696Y105424D01*
X77990Y105302D01*
X78308D01*
X78602Y105424D01*
X78827Y105649D01*
X78949Y105943D01*
Y106261D01*
X78827Y106555D01*
X78602Y106780D01*
X78308Y106902D01*
D02*
G37*
G36*
X73190D02*
X72872D01*
X72578Y106780D01*
X72353Y106555D01*
X72231Y106261D01*
Y105943D01*
X72353Y105649D01*
X72578Y105424D01*
X72872Y105302D01*
X73190D01*
X73484Y105424D01*
X73709Y105649D01*
X73831Y105943D01*
Y106261D01*
X73709Y106555D01*
X73484Y106780D01*
X73190Y106902D01*
D02*
G37*
G36*
X57836D02*
X57518D01*
X57224Y106780D01*
X56999Y106555D01*
X56877Y106261D01*
Y105943D01*
X56999Y105649D01*
X57224Y105424D01*
X57518Y105302D01*
X57836D01*
X58130Y105424D01*
X58355Y105649D01*
X58477Y105943D01*
Y106261D01*
X58355Y106555D01*
X58130Y106780D01*
X57836Y106902D01*
D02*
G37*
G36*
X55277D02*
X54959D01*
X54665Y106780D01*
X54440Y106555D01*
X54318Y106261D01*
Y105943D01*
X54440Y105649D01*
X54665Y105424D01*
X54959Y105302D01*
X55277D01*
X55571Y105424D01*
X55796Y105649D01*
X55918Y105943D01*
Y106261D01*
X55796Y106555D01*
X55571Y106780D01*
X55277Y106902D01*
D02*
G37*
G36*
X52718D02*
X52400D01*
X52106Y106780D01*
X51881Y106555D01*
X51759Y106261D01*
Y105943D01*
X51881Y105649D01*
X52106Y105424D01*
X52400Y105302D01*
X52718D01*
X53012Y105424D01*
X53237Y105649D01*
X53359Y105943D01*
Y106261D01*
X53237Y106555D01*
X53012Y106780D01*
X52718Y106902D01*
D02*
G37*
G36*
X50159D02*
X49841D01*
X49547Y106780D01*
X49322Y106555D01*
X49200Y106261D01*
Y105943D01*
X49322Y105649D01*
X49547Y105424D01*
X49841Y105302D01*
X50159D01*
X50453Y105424D01*
X50678Y105649D01*
X50800Y105943D01*
Y106261D01*
X50678Y106555D01*
X50453Y106780D01*
X50159Y106902D01*
D02*
G37*
G36*
X47600D02*
X47282D01*
X46988Y106780D01*
X46763Y106555D01*
X46641Y106261D01*
Y105943D01*
X46763Y105649D01*
X46988Y105424D01*
X47282Y105302D01*
X47600D01*
X47894Y105424D01*
X48119Y105649D01*
X48241Y105943D01*
Y106261D01*
X48119Y106555D01*
X47894Y106780D01*
X47600Y106902D01*
D02*
G37*
G36*
X44739Y106868D02*
X44421D01*
X44127Y106746D01*
X43902Y106521D01*
X43780Y106227D01*
Y105909D01*
X43902Y105615D01*
X44127Y105390D01*
X44421Y105268D01*
X44739D01*
X45034Y105390D01*
X45259Y105615D01*
X45380Y105909D01*
Y106227D01*
X45259Y106521D01*
X45034Y106746D01*
X44739Y106868D01*
D02*
G37*
G36*
X27728Y105574D02*
X27390D01*
X27077Y105445D01*
X26772Y105248D01*
X26465Y105445D01*
X26153Y105574D01*
X25815D01*
X25502Y105445D01*
X25263Y105206D01*
X25134Y104893D01*
Y104555D01*
X25263Y104243D01*
X25502Y104003D01*
X25815Y103874D01*
X26153D01*
X26465Y104003D01*
X26772Y104200D01*
X27077Y104003D01*
X27390Y103874D01*
X27728D01*
X28041Y104003D01*
X28280Y104243D01*
X28409Y104555D01*
Y104893D01*
X28280Y105206D01*
X28041Y105445D01*
X27728Y105574D01*
D02*
G37*
G36*
X84333Y106904D02*
X83974D01*
X83644Y106767D01*
X83391Y106514D01*
X83254Y106183D01*
Y105825D01*
X83391Y105494D01*
X83644Y105241D01*
X83974Y105104D01*
X84333D01*
X84663Y105241D01*
X84917Y105494D01*
X85053Y105825D01*
Y106183D01*
X84917Y106514D01*
X84663Y106767D01*
X84333Y106904D01*
D02*
G37*
G36*
X62855Y106688D02*
X62537D01*
X62243Y106566D01*
X62018Y106341D01*
X61896Y106047D01*
Y105728D01*
X62018Y105435D01*
X62243Y105209D01*
X62537Y105088D01*
X62855D01*
X63149Y105209D01*
X63374Y105435D01*
X63496Y105728D01*
Y106047D01*
X63374Y106341D01*
X63149Y106566D01*
X62855Y106688D01*
D02*
G37*
G36*
X22246Y105724D02*
X21848D01*
X21481Y105572D01*
X21199Y105290D01*
X21047Y104923D01*
Y104525D01*
X21199Y104157D01*
X21481Y103876D01*
X21848Y103724D01*
X22246D01*
X22614Y103876D01*
X22895Y104157D01*
X23047Y104525D01*
Y104923D01*
X22895Y105290D01*
X22614Y105572D01*
X22246Y105724D01*
D02*
G37*
G36*
X80748Y104426D02*
X80430D01*
X80136Y104304D01*
X79910Y104079D01*
X79789Y103785D01*
Y103467D01*
X79910Y103173D01*
X80136Y102948D01*
X80430Y102826D01*
X80748D01*
X81042Y102948D01*
X81267Y103173D01*
X81389Y103467D01*
Y103785D01*
X81267Y104079D01*
X81042Y104304D01*
X80748Y104426D01*
D02*
G37*
G36*
X95530Y104343D02*
X95212D01*
X94918Y104221D01*
X94693Y103996D01*
X94571Y103702D01*
Y103384D01*
X94693Y103090D01*
X94918Y102865D01*
X95212Y102743D01*
X95530D01*
X95824Y102865D01*
X96049Y103090D01*
X96171Y103384D01*
Y103702D01*
X96049Y103996D01*
X95824Y104221D01*
X95530Y104343D01*
D02*
G37*
G36*
X78308D02*
X77990D01*
X77696Y104221D01*
X77471Y103996D01*
X77349Y103702D01*
Y103384D01*
X77471Y103090D01*
X77696Y102865D01*
X77990Y102743D01*
X78308D01*
X78602Y102865D01*
X78827Y103090D01*
X78949Y103384D01*
Y103702D01*
X78827Y103996D01*
X78602Y104221D01*
X78308Y104343D01*
D02*
G37*
G36*
X75749D02*
X75431D01*
X75137Y104221D01*
X74912Y103996D01*
X74790Y103702D01*
Y103384D01*
X74912Y103090D01*
X75137Y102865D01*
X75431Y102743D01*
X75749D01*
X76043Y102865D01*
X76268Y103090D01*
X76390Y103384D01*
Y103702D01*
X76268Y103996D01*
X76043Y104221D01*
X75749Y104343D01*
D02*
G37*
G36*
X70631D02*
X70313D01*
X70019Y104221D01*
X69794Y103996D01*
X69672Y103702D01*
Y103384D01*
X69794Y103090D01*
X70019Y102865D01*
X70313Y102743D01*
X70631D01*
X70925Y102865D01*
X71150Y103090D01*
X71272Y103384D01*
Y103702D01*
X71150Y103996D01*
X70925Y104221D01*
X70631Y104343D01*
D02*
G37*
G36*
X62954D02*
X62636D01*
X62342Y104221D01*
X62117Y103996D01*
X61995Y103702D01*
Y103384D01*
X62117Y103090D01*
X62342Y102865D01*
X62636Y102743D01*
X62954D01*
X63248Y102865D01*
X63473Y103090D01*
X63595Y103384D01*
Y103702D01*
X63473Y103996D01*
X63248Y104221D01*
X62954Y104343D01*
D02*
G37*
G36*
X57836D02*
X57518D01*
X57224Y104221D01*
X56999Y103996D01*
X56877Y103702D01*
Y103384D01*
X56999Y103090D01*
X57224Y102865D01*
X57518Y102743D01*
X57836D01*
X58130Y102865D01*
X58355Y103090D01*
X58477Y103384D01*
Y103702D01*
X58355Y103996D01*
X58130Y104221D01*
X57836Y104343D01*
D02*
G37*
G36*
X55277D02*
X54959D01*
X54665Y104221D01*
X54440Y103996D01*
X54318Y103702D01*
Y103384D01*
X54440Y103090D01*
X54665Y102865D01*
X54959Y102743D01*
X55277D01*
X55571Y102865D01*
X55796Y103090D01*
X55918Y103384D01*
Y103702D01*
X55796Y103996D01*
X55571Y104221D01*
X55277Y104343D01*
D02*
G37*
G36*
X52718D02*
X52400D01*
X52106Y104221D01*
X51881Y103996D01*
X51759Y103702D01*
Y103384D01*
X51881Y103090D01*
X52106Y102865D01*
X52400Y102743D01*
X52718D01*
X53012Y102865D01*
X53237Y103090D01*
X53359Y103384D01*
Y103702D01*
X53237Y103996D01*
X53012Y104221D01*
X52718Y104343D01*
D02*
G37*
G36*
X50159D02*
X49841D01*
X49547Y104221D01*
X49322Y103996D01*
X49200Y103702D01*
Y103384D01*
X49322Y103090D01*
X49547Y102865D01*
X49841Y102743D01*
X50159D01*
X50453Y102865D01*
X50678Y103090D01*
X50800Y103384D01*
Y103702D01*
X50678Y103996D01*
X50453Y104221D01*
X50159Y104343D01*
D02*
G37*
G36*
X47600D02*
X47282D01*
X46988Y104221D01*
X46763Y103996D01*
X46641Y103702D01*
Y103384D01*
X46763Y103090D01*
X46988Y102865D01*
X47282Y102743D01*
X47600D01*
X47894Y102865D01*
X48119Y103090D01*
X48241Y103384D01*
Y103702D01*
X48119Y103996D01*
X47894Y104221D01*
X47600Y104343D01*
D02*
G37*
G36*
X65514Y104342D02*
X65196D01*
X64902Y104220D01*
X64677Y103995D01*
X64555Y103701D01*
Y103383D01*
X64677Y103089D01*
X64902Y102864D01*
X65196Y102742D01*
X65514D01*
X65808Y102864D01*
X66033Y103089D01*
X66155Y103383D01*
Y103701D01*
X66033Y103995D01*
X65808Y104220D01*
X65514Y104342D01*
D02*
G37*
G36*
X68073Y104342D02*
X67755D01*
X67461Y104220D01*
X67236Y103995D01*
X67114Y103701D01*
Y103383D01*
X67236Y103089D01*
X67461Y102864D01*
X67755Y102742D01*
X68073D01*
X68367Y102864D01*
X68592Y103089D01*
X68714Y103383D01*
Y103701D01*
X68592Y103995D01*
X68367Y104220D01*
X68073Y104342D01*
D02*
G37*
G36*
X60395D02*
X60077D01*
X59783Y104220D01*
X59558Y103995D01*
X59436Y103701D01*
Y103383D01*
X59558Y103089D01*
X59783Y102864D01*
X60077Y102742D01*
X60395D01*
X60689Y102864D01*
X60914Y103089D01*
X61036Y103383D01*
Y103701D01*
X60914Y103995D01*
X60689Y104220D01*
X60395Y104342D01*
D02*
G37*
G36*
X83426Y101784D02*
X83108D01*
X82814Y101662D01*
X82589Y101437D01*
X82467Y101143D01*
Y100825D01*
X82589Y100531D01*
X82814Y100306D01*
X83108Y100184D01*
X83426D01*
X83720Y100306D01*
X83945Y100531D01*
X84067Y100825D01*
Y101143D01*
X83945Y101437D01*
X83720Y101662D01*
X83426Y101784D01*
D02*
G37*
G36*
X78308D02*
X77990D01*
X77696Y101662D01*
X77471Y101437D01*
X77349Y101143D01*
Y100825D01*
X77471Y100531D01*
X77696Y100306D01*
X77990Y100184D01*
X78308D01*
X78602Y100306D01*
X78827Y100531D01*
X78949Y100825D01*
Y101143D01*
X78827Y101437D01*
X78602Y101662D01*
X78308Y101784D01*
D02*
G37*
G36*
X75749D02*
X75431D01*
X75137Y101662D01*
X74912Y101437D01*
X74790Y101143D01*
Y100825D01*
X74912Y100531D01*
X75137Y100306D01*
X75431Y100184D01*
X75749D01*
X76043Y100306D01*
X76268Y100531D01*
X76390Y100825D01*
Y101143D01*
X76268Y101437D01*
X76043Y101662D01*
X75749Y101784D01*
D02*
G37*
G36*
X70632D02*
X70314D01*
X70020Y101662D01*
X69795Y101437D01*
X69673Y101143D01*
Y100825D01*
X69795Y100531D01*
X70020Y100306D01*
X70314Y100184D01*
X70632D01*
X70926Y100306D01*
X71151Y100531D01*
X71273Y100825D01*
Y101143D01*
X71151Y101437D01*
X70926Y101662D01*
X70632Y101784D01*
D02*
G37*
G36*
X62954D02*
X62636D01*
X62342Y101662D01*
X62117Y101437D01*
X61995Y101143D01*
Y100825D01*
X62117Y100531D01*
X62342Y100306D01*
X62636Y100184D01*
X62954D01*
X63248Y100306D01*
X63473Y100531D01*
X63595Y100825D01*
Y101143D01*
X63473Y101437D01*
X63248Y101662D01*
X62954Y101784D01*
D02*
G37*
G36*
X57836D02*
X57518D01*
X57224Y101662D01*
X56999Y101437D01*
X56877Y101143D01*
Y100825D01*
X56999Y100531D01*
X57224Y100306D01*
X57518Y100184D01*
X57836D01*
X58130Y100306D01*
X58355Y100531D01*
X58477Y100825D01*
Y101143D01*
X58355Y101437D01*
X58130Y101662D01*
X57836Y101784D01*
D02*
G37*
G36*
X55277D02*
X54959D01*
X54665Y101662D01*
X54440Y101437D01*
X54318Y101143D01*
Y100825D01*
X54440Y100531D01*
X54665Y100306D01*
X54959Y100184D01*
X55277D01*
X55571Y100306D01*
X55796Y100531D01*
X55918Y100825D01*
Y101143D01*
X55796Y101437D01*
X55571Y101662D01*
X55277Y101784D01*
D02*
G37*
G36*
X52718D02*
X52400D01*
X52106Y101662D01*
X51881Y101437D01*
X51759Y101143D01*
Y100825D01*
X51881Y100531D01*
X52106Y100306D01*
X52400Y100184D01*
X52718D01*
X53012Y100306D01*
X53237Y100531D01*
X53359Y100825D01*
Y101143D01*
X53237Y101437D01*
X53012Y101662D01*
X52718Y101784D01*
D02*
G37*
G36*
X47600D02*
X47282D01*
X46988Y101662D01*
X46763Y101437D01*
X46641Y101143D01*
Y100825D01*
X46763Y100531D01*
X46988Y100306D01*
X47282Y100184D01*
X47600D01*
X47894Y100306D01*
X48119Y100531D01*
X48241Y100825D01*
Y101143D01*
X48119Y101437D01*
X47894Y101662D01*
X47600Y101784D01*
D02*
G37*
G36*
X65514Y101783D02*
X65196D01*
X64902Y101661D01*
X64677Y101436D01*
X64555Y101142D01*
Y100824D01*
X64677Y100530D01*
X64902Y100305D01*
X65196Y100183D01*
X65514D01*
X65808Y100305D01*
X66033Y100530D01*
X66155Y100824D01*
Y101142D01*
X66033Y101436D01*
X65808Y101661D01*
X65514Y101783D01*
D02*
G37*
G36*
X111006Y100310D02*
X110648D01*
X110317Y100172D01*
X110064Y99919D01*
X109927Y99589D01*
Y99230D01*
X110064Y98900D01*
X110317Y98646D01*
X110648Y98510D01*
X111006D01*
X111337Y98646D01*
X111590Y98900D01*
X111727Y99230D01*
Y99589D01*
X111590Y99919D01*
X111337Y100172D01*
X111006Y100310D01*
D02*
G37*
G36*
X119097Y99819D02*
X118699D01*
X118332Y99667D01*
X118050Y99385D01*
X117898Y99018D01*
Y98620D01*
X118050Y98252D01*
X118332Y97971D01*
X118699Y97819D01*
X119097D01*
X119465Y97971D01*
X119746Y98252D01*
X119898Y98620D01*
Y99018D01*
X119746Y99385D01*
X119465Y99667D01*
X119097Y99819D01*
D02*
G37*
G36*
X83426Y99225D02*
X83108D01*
X82814Y99103D01*
X82589Y98878D01*
X82467Y98584D01*
Y98266D01*
X82589Y97972D01*
X82814Y97747D01*
X83108Y97625D01*
X83426D01*
X83720Y97747D01*
X83945Y97972D01*
X84067Y98266D01*
Y98584D01*
X83945Y98878D01*
X83720Y99103D01*
X83426Y99225D01*
D02*
G37*
G36*
X80867D02*
X80549D01*
X80255Y99103D01*
X80030Y98878D01*
X79908Y98584D01*
Y98266D01*
X80030Y97972D01*
X80255Y97747D01*
X80549Y97625D01*
X80867D01*
X81161Y97747D01*
X81386Y97972D01*
X81508Y98266D01*
Y98584D01*
X81386Y98878D01*
X81161Y99103D01*
X80867Y99225D01*
D02*
G37*
G36*
X78308D02*
X77990D01*
X77696Y99103D01*
X77471Y98878D01*
X77349Y98584D01*
Y98266D01*
X77471Y97972D01*
X77696Y97747D01*
X77990Y97625D01*
X78308D01*
X78602Y97747D01*
X78827Y97972D01*
X78949Y98266D01*
Y98584D01*
X78827Y98878D01*
X78602Y99103D01*
X78308Y99225D01*
D02*
G37*
G36*
X75749D02*
X75431D01*
X75137Y99103D01*
X74912Y98878D01*
X74790Y98584D01*
Y98266D01*
X74912Y97972D01*
X75137Y97747D01*
X75431Y97625D01*
X75749D01*
X76043Y97747D01*
X76268Y97972D01*
X76390Y98266D01*
Y98584D01*
X76268Y98878D01*
X76043Y99103D01*
X75749Y99225D01*
D02*
G37*
G36*
X70632D02*
X70314D01*
X70020Y99103D01*
X69795Y98878D01*
X69673Y98584D01*
Y98266D01*
X69795Y97972D01*
X70020Y97747D01*
X70314Y97625D01*
X70632D01*
X70926Y97747D01*
X71151Y97972D01*
X71273Y98266D01*
Y98584D01*
X71151Y98878D01*
X70926Y99103D01*
X70632Y99225D01*
D02*
G37*
G36*
X68073D02*
X67755D01*
X67461Y99103D01*
X67236Y98878D01*
X67114Y98584D01*
Y98266D01*
X67236Y97972D01*
X67461Y97747D01*
X67755Y97625D01*
X68073D01*
X68367Y97747D01*
X68592Y97972D01*
X68714Y98266D01*
Y98584D01*
X68592Y98878D01*
X68367Y99103D01*
X68073Y99225D01*
D02*
G37*
G36*
X62954D02*
X62636D01*
X62342Y99103D01*
X62117Y98878D01*
X61995Y98584D01*
Y98266D01*
X62117Y97972D01*
X62342Y97747D01*
X62636Y97625D01*
X62954D01*
X63248Y97747D01*
X63473Y97972D01*
X63595Y98266D01*
Y98584D01*
X63473Y98878D01*
X63248Y99103D01*
X62954Y99225D01*
D02*
G37*
G36*
X60395D02*
X60077D01*
X59783Y99103D01*
X59558Y98878D01*
X59436Y98584D01*
Y98266D01*
X59558Y97972D01*
X59783Y97747D01*
X60077Y97625D01*
X60395D01*
X60689Y97747D01*
X60914Y97972D01*
X61036Y98266D01*
Y98584D01*
X60914Y98878D01*
X60689Y99103D01*
X60395Y99225D01*
D02*
G37*
G36*
X57836D02*
X57518D01*
X57224Y99103D01*
X56999Y98878D01*
X56877Y98584D01*
Y98266D01*
X56999Y97972D01*
X57224Y97747D01*
X57518Y97625D01*
X57836D01*
X58130Y97747D01*
X58355Y97972D01*
X58477Y98266D01*
Y98584D01*
X58355Y98878D01*
X58130Y99103D01*
X57836Y99225D01*
D02*
G37*
G36*
X55277D02*
X54959D01*
X54665Y99103D01*
X54440Y98878D01*
X54318Y98584D01*
Y98266D01*
X54440Y97972D01*
X54665Y97747D01*
X54959Y97625D01*
X55277D01*
X55571Y97747D01*
X55796Y97972D01*
X55918Y98266D01*
Y98584D01*
X55796Y98878D01*
X55571Y99103D01*
X55277Y99225D01*
D02*
G37*
G36*
X52718D02*
X52400D01*
X52106Y99103D01*
X51881Y98878D01*
X51759Y98584D01*
Y98266D01*
X51881Y97972D01*
X52106Y97747D01*
X52400Y97625D01*
X52718D01*
X53012Y97747D01*
X53237Y97972D01*
X53359Y98266D01*
Y98584D01*
X53237Y98878D01*
X53012Y99103D01*
X52718Y99225D01*
D02*
G37*
G36*
X50159D02*
X49841D01*
X49547Y99103D01*
X49322Y98878D01*
X49200Y98584D01*
Y98266D01*
X49322Y97972D01*
X49547Y97747D01*
X49841Y97625D01*
X50159D01*
X50453Y97747D01*
X50678Y97972D01*
X50800Y98266D01*
Y98584D01*
X50678Y98878D01*
X50453Y99103D01*
X50159Y99225D01*
D02*
G37*
G36*
X47600D02*
X47282D01*
X46988Y99103D01*
X46763Y98878D01*
X46641Y98584D01*
Y98266D01*
X46763Y97972D01*
X46988Y97747D01*
X47282Y97625D01*
X47600D01*
X47894Y97747D01*
X48119Y97972D01*
X48241Y98266D01*
Y98584D01*
X48119Y98878D01*
X47894Y99103D01*
X47600Y99225D01*
D02*
G37*
G36*
X65514Y99224D02*
X65196D01*
X64902Y99102D01*
X64677Y98877D01*
X64555Y98583D01*
Y98265D01*
X64677Y97971D01*
X64902Y97746D01*
X65196Y97624D01*
X65514D01*
X65808Y97746D01*
X66033Y97971D01*
X66155Y98265D01*
Y98583D01*
X66033Y98877D01*
X65808Y99102D01*
X65514Y99224D01*
D02*
G37*
G36*
X90218Y99028D02*
X89900D01*
X89606Y98907D01*
X89381Y98681D01*
X89259Y98387D01*
Y98069D01*
X89381Y97775D01*
X89606Y97550D01*
X89900Y97428D01*
X90218D01*
X90512Y97550D01*
X90737Y97775D01*
X90859Y98069D01*
Y98387D01*
X90737Y98681D01*
X90512Y98907D01*
X90218Y99028D01*
D02*
G37*
G36*
X58614Y96792D02*
X58296D01*
X58002Y96670D01*
X57777Y96445D01*
X57655Y96151D01*
X57180Y96117D01*
X57059Y96411D01*
X56833Y96636D01*
X56539Y96758D01*
X56221D01*
X55927Y96636D01*
X55702Y96411D01*
X55580Y96117D01*
Y95799D01*
X55702Y95505D01*
X55927Y95280D01*
X56221Y95158D01*
X56539D01*
X56833Y95280D01*
X57059Y95505D01*
X57180Y95799D01*
X57655Y95833D01*
X57777Y95539D01*
X58002Y95314D01*
X58296Y95192D01*
X58614D01*
X58908Y95314D01*
X59133Y95539D01*
X59190Y95676D01*
X59717Y95653D01*
X59773Y95517D01*
X59999Y95292D01*
X60293Y95170D01*
X60611D01*
X60905Y95292D01*
X61130Y95517D01*
X61252Y95811D01*
Y96129D01*
X61130Y96423D01*
X60905Y96648D01*
X60611Y96770D01*
X60293D01*
X59999Y96648D01*
X59773Y96423D01*
X59717Y96286D01*
X59190Y96308D01*
X59133Y96445D01*
X58908Y96670D01*
X58614Y96792D01*
D02*
G37*
G36*
X83426Y96666D02*
X83108D01*
X82814Y96544D01*
X82589Y96319D01*
X82467Y96025D01*
Y95707D01*
X82589Y95413D01*
X82814Y95188D01*
X83108Y95066D01*
X83426D01*
X83720Y95188D01*
X83945Y95413D01*
X84067Y95707D01*
Y96025D01*
X83945Y96319D01*
X83720Y96544D01*
X83426Y96666D01*
D02*
G37*
G36*
X78895Y96710D02*
X78577D01*
X78283Y96589D01*
X78058Y96364D01*
X77936Y96070D01*
Y95751D01*
X78058Y95457D01*
X78283Y95232D01*
X78577Y95110D01*
X78895D01*
X79189Y95232D01*
X79415Y95457D01*
X79446Y95533D01*
X79984Y95524D01*
X80030Y95413D01*
X80255Y95188D01*
X80549Y95066D01*
X80867D01*
X81161Y95188D01*
X81386Y95413D01*
X81508Y95707D01*
Y96025D01*
X81386Y96319D01*
X81161Y96544D01*
X80867Y96666D01*
X80549D01*
X80255Y96544D01*
X80030Y96319D01*
X79998Y96243D01*
X79461Y96252D01*
X79415Y96364D01*
X79189Y96589D01*
X78895Y96710D01*
D02*
G37*
G36*
X73190Y96666D02*
X72872D01*
X72578Y96544D01*
X72353Y96319D01*
X72231Y96025D01*
Y95707D01*
X72353Y95413D01*
X72578Y95188D01*
X72872Y95066D01*
X73190D01*
X73484Y95188D01*
X73709Y95413D01*
X73831Y95707D01*
Y96025D01*
X73709Y96319D01*
X73484Y96544D01*
X73190Y96666D01*
D02*
G37*
G36*
X70631D02*
X70313D01*
X70019Y96544D01*
X69794Y96319D01*
X69672Y96025D01*
Y95707D01*
X69794Y95413D01*
X70019Y95188D01*
X70313Y95066D01*
X70631D01*
X70925Y95188D01*
X71150Y95413D01*
X71272Y95707D01*
Y96025D01*
X71150Y96319D01*
X70925Y96544D01*
X70631Y96666D01*
D02*
G37*
G36*
X68073D02*
X67755D01*
X67461Y96544D01*
X67236Y96319D01*
X67114Y96025D01*
Y95707D01*
X67236Y95413D01*
X67461Y95188D01*
X67755Y95066D01*
X68073D01*
X68367Y95188D01*
X68592Y95413D01*
X68714Y95707D01*
Y96025D01*
X68592Y96319D01*
X68367Y96544D01*
X68073Y96666D01*
D02*
G37*
G36*
X62954D02*
X62636D01*
X62342Y96544D01*
X62117Y96319D01*
X61995Y96025D01*
Y95707D01*
X62117Y95413D01*
X62342Y95188D01*
X62636Y95066D01*
X62954D01*
X63248Y95188D01*
X63473Y95413D01*
X63595Y95707D01*
Y96025D01*
X63473Y96319D01*
X63248Y96544D01*
X62954Y96666D01*
D02*
G37*
G36*
X52718D02*
X52400D01*
X52106Y96544D01*
X51881Y96319D01*
X51759Y96025D01*
Y95707D01*
X51881Y95413D01*
X52106Y95188D01*
X52400Y95066D01*
X52718D01*
X53012Y95188D01*
X53237Y95413D01*
X53359Y95707D01*
Y96025D01*
X53237Y96319D01*
X53012Y96544D01*
X52718Y96666D01*
D02*
G37*
G36*
X50159D02*
X49841D01*
X49547Y96544D01*
X49322Y96319D01*
X49200Y96025D01*
Y95707D01*
X49322Y95413D01*
X49547Y95188D01*
X49841Y95066D01*
X50159D01*
X50453Y95188D01*
X50678Y95413D01*
X50800Y95707D01*
Y96025D01*
X50678Y96319D01*
X50453Y96544D01*
X50159Y96666D01*
D02*
G37*
G36*
X75401Y96629D02*
X75083D01*
X74789Y96507D01*
X74564Y96282D01*
X74442Y95988D01*
Y95670D01*
X74564Y95376D01*
X74789Y95151D01*
X75083Y95029D01*
X75401D01*
X75695Y95151D01*
X75920Y95376D01*
X76042Y95670D01*
Y95988D01*
X75920Y96282D01*
X75695Y96507D01*
X75401Y96629D01*
D02*
G37*
G36*
X88506Y96474D02*
X88069D01*
X87664Y96307D01*
X87355Y95997D01*
X87187Y95593D01*
Y95155D01*
X87355Y94751D01*
X87664Y94441D01*
X88069Y94274D01*
X88506D01*
X88911Y94441D01*
X89220Y94751D01*
X89387Y95155D01*
Y95593D01*
X89220Y95997D01*
X88911Y96307D01*
X88506Y96474D01*
D02*
G37*
G36*
X105888Y95388D02*
X105530D01*
X105199Y95251D01*
X104946Y94998D01*
X104809Y94667D01*
Y94309D01*
X104946Y93978D01*
X105199Y93725D01*
X105530Y93588D01*
X105888D01*
X106219Y93725D01*
X106472Y93978D01*
X106609Y94309D01*
Y94667D01*
X106472Y94998D01*
X106219Y95251D01*
X105888Y95388D01*
D02*
G37*
G36*
X100868D02*
X100510D01*
X100179Y95251D01*
X99926Y94998D01*
X99789Y94667D01*
Y94309D01*
X99926Y93978D01*
X100179Y93725D01*
X100510Y93588D01*
X100868D01*
X101199Y93725D01*
X101452Y93978D01*
X101589Y94309D01*
Y94667D01*
X101452Y94998D01*
X101199Y95251D01*
X100868Y95388D01*
D02*
G37*
G36*
X47600Y96666D02*
X47282D01*
X46988Y96544D01*
X46763Y96319D01*
X46641Y96025D01*
Y95707D01*
X46740Y95469D01*
X46763Y95413D01*
Y95413D01*
X46704Y94913D01*
X46630Y94839D01*
X46479Y94688D01*
X46357Y94394D01*
Y94076D01*
X46479Y93782D01*
X46704Y93556D01*
X46998Y93435D01*
X47316D01*
X47610Y93556D01*
X47835Y93782D01*
X47957Y94076D01*
Y94394D01*
X47858Y94632D01*
X47835Y94688D01*
Y94688D01*
X47894Y95188D01*
X47968Y95262D01*
X48119Y95413D01*
X48241Y95707D01*
Y96025D01*
X48119Y96319D01*
X47894Y96544D01*
X47600Y96666D01*
D02*
G37*
G36*
X56548Y94198D02*
X56230D01*
X55936Y94076D01*
X55711Y93851D01*
X55589Y93557D01*
Y93239D01*
X55711Y92945D01*
X55936Y92720D01*
X56230Y92598D01*
X56548D01*
X56842Y92720D01*
X57067Y92945D01*
X57189Y93239D01*
Y93557D01*
X57067Y93851D01*
X56842Y94076D01*
X56548Y94198D01*
D02*
G37*
G36*
X60710Y94183D02*
X60392D01*
X60098Y94061D01*
X59873Y93836D01*
X59751Y93542D01*
Y93224D01*
X59873Y92930D01*
X60098Y92705D01*
X60392Y92583D01*
X60710D01*
X61004Y92705D01*
X61229Y92930D01*
X61351Y93224D01*
Y93542D01*
X61229Y93836D01*
X61004Y94061D01*
X60710Y94183D01*
D02*
G37*
G36*
X50541Y94116D02*
X50223D01*
X49929Y93995D01*
X49704Y93770D01*
X49582Y93476D01*
Y93157D01*
X49704Y92863D01*
X49929Y92638D01*
X50223Y92516D01*
X50541D01*
X50835Y92638D01*
X51060Y92863D01*
X51182Y93157D01*
Y93476D01*
X51060Y93770D01*
X50835Y93995D01*
X50541Y94116D01*
D02*
G37*
G36*
X83426Y94107D02*
X83108D01*
X82814Y93985D01*
X82589Y93760D01*
X82467Y93466D01*
Y93148D01*
X82589Y92854D01*
X82814Y92629D01*
X83108Y92507D01*
X83426D01*
X83720Y92629D01*
X83945Y92854D01*
X84067Y93148D01*
Y93466D01*
X83945Y93760D01*
X83720Y93985D01*
X83426Y94107D01*
D02*
G37*
G36*
X75749D02*
X75431D01*
X75137Y93985D01*
X74912Y93760D01*
X74790Y93466D01*
Y93148D01*
X74912Y92854D01*
X75137Y92629D01*
X75431Y92507D01*
X75749D01*
X76043Y92629D01*
X76268Y92854D01*
X76390Y93148D01*
Y93466D01*
X76268Y93760D01*
X76043Y93985D01*
X75749Y94107D01*
D02*
G37*
G36*
X73191D02*
X72873D01*
X72579Y93985D01*
X72354Y93760D01*
X72232Y93466D01*
Y93148D01*
X72354Y92854D01*
X72579Y92629D01*
X72873Y92507D01*
X73191D01*
X73485Y92629D01*
X73710Y92854D01*
X73832Y93148D01*
Y93466D01*
X73710Y93760D01*
X73485Y93985D01*
X73191Y94107D01*
D02*
G37*
G36*
X68073D02*
X67755D01*
X67461Y93985D01*
X67236Y93760D01*
X67114Y93466D01*
Y93148D01*
X67236Y92854D01*
X67461Y92629D01*
X67755Y92507D01*
X68073D01*
X68367Y92629D01*
X68592Y92854D01*
X68714Y93148D01*
Y93466D01*
X68592Y93760D01*
X68367Y93985D01*
X68073Y94107D01*
D02*
G37*
G36*
X65514D02*
X65196D01*
X64902Y93985D01*
X64677Y93760D01*
X64555Y93466D01*
Y93148D01*
X64677Y92854D01*
X64902Y92629D01*
X65196Y92507D01*
X65514D01*
X65808Y92629D01*
X66033Y92854D01*
X66155Y93148D01*
Y93466D01*
X66033Y93760D01*
X65808Y93985D01*
X65514Y94107D01*
D02*
G37*
G36*
X62954D02*
X62636D01*
X62342Y93985D01*
X62117Y93760D01*
X61995Y93466D01*
Y93148D01*
X62117Y92854D01*
X62342Y92629D01*
X62636Y92507D01*
X62954D01*
X63248Y92629D01*
X63473Y92854D01*
X63595Y93148D01*
Y93466D01*
X63473Y93760D01*
X63248Y93985D01*
X62954Y94107D01*
D02*
G37*
G36*
X60815Y91441D02*
X60497D01*
X60203Y91320D01*
X60022Y91139D01*
X59774Y91109D01*
X59452Y91131D01*
X59282Y91301D01*
X58988Y91423D01*
X58669D01*
X58375Y91301D01*
X58150Y91076D01*
X58029Y90782D01*
Y90464D01*
X58150Y90170D01*
X58375Y89945D01*
X58511Y89889D01*
X58944Y89628D01*
X58944Y89309D01*
X59066Y89015D01*
X59274Y88767D01*
X59082Y88503D01*
X58960Y88209D01*
Y87891D01*
X59082Y87597D01*
X59307Y87372D01*
X59601Y87250D01*
X59919D01*
X60213Y87372D01*
X60438Y87597D01*
X60560Y87891D01*
Y88209D01*
X60438Y88503D01*
X60230Y88751D01*
X60422Y89015D01*
X60544Y89309D01*
X60544Y89628D01*
X60970Y89906D01*
X61109Y89963D01*
X61334Y90188D01*
X61456Y90482D01*
Y90800D01*
X61334Y91095D01*
X61109Y91320D01*
X60815Y91441D01*
D02*
G37*
G36*
X49984Y91759D02*
X49666D01*
X49372Y91637D01*
X49147Y91412D01*
X49025Y91118D01*
Y90800D01*
X49147Y90506D01*
X49372Y90280D01*
X49666Y90159D01*
X49984D01*
X50278Y90280D01*
X50503Y90506D01*
X50625Y90800D01*
Y91118D01*
X50503Y91412D01*
X50278Y91637D01*
X49984Y91759D01*
D02*
G37*
G36*
X65514Y91548D02*
X65196D01*
X64902Y91426D01*
X64677Y91201D01*
X64555Y90907D01*
Y90589D01*
X64596Y90490D01*
X64203Y90133D01*
X64074Y90186D01*
X63756D01*
X63462Y90065D01*
X63237Y89840D01*
X63115Y89546D01*
Y89227D01*
X63237Y88933D01*
X63462Y88708D01*
X63756Y88586D01*
X64074D01*
X64368Y88708D01*
X64593Y88933D01*
X64715Y89227D01*
Y89546D01*
X64674Y89645D01*
X65067Y90001D01*
X65196Y89948D01*
X65514D01*
X65808Y90070D01*
X66033Y90295D01*
X66155Y90589D01*
Y90907D01*
X66033Y91201D01*
X65808Y91426D01*
X65514Y91548D01*
D02*
G37*
G36*
X70632D02*
X70314D01*
X70020Y91426D01*
X69795Y91201D01*
X69673Y90907D01*
Y90589D01*
X69795Y90295D01*
X70020Y90070D01*
X70314Y89948D01*
X70632D01*
X70926Y90070D01*
X71151Y90295D01*
X71273Y90589D01*
Y90907D01*
X71151Y91201D01*
X70926Y91426D01*
X70632Y91548D01*
D02*
G37*
G36*
X68073D02*
X67755D01*
X67461Y91426D01*
X67236Y91201D01*
X67114Y90907D01*
Y90589D01*
X67236Y90295D01*
X67461Y90070D01*
X67755Y89948D01*
X68073D01*
X68367Y90070D01*
X68592Y90295D01*
X68714Y90589D01*
Y90907D01*
X68592Y91201D01*
X68367Y91426D01*
X68073Y91548D01*
D02*
G37*
G36*
X55942Y90035D02*
X55624D01*
X55330Y89913D01*
X55105Y89688D01*
X54983Y89394D01*
Y89076D01*
X55105Y88782D01*
X55330Y88557D01*
X55624Y88435D01*
X55942D01*
X56236Y88557D01*
X56462Y88782D01*
X56583Y89076D01*
Y89394D01*
X56462Y89688D01*
X56236Y89913D01*
X55942Y90035D01*
D02*
G37*
G36*
X100742Y83158D02*
X100384D01*
X100053Y83021D01*
X99800Y82768D01*
X99663Y82437D01*
Y82079D01*
X99800Y81749D01*
X100053Y81495D01*
X100384Y81358D01*
X100742D01*
X101073Y81495D01*
X101326Y81749D01*
X101463Y82079D01*
Y82437D01*
X101326Y82768D01*
X101073Y83021D01*
X100742Y83158D01*
D02*
G37*
G36*
X74585Y83361D02*
X74227D01*
X73897Y83224D01*
X73643Y82971D01*
X73506Y82640D01*
Y82282D01*
X73643Y81951D01*
X73864Y81731D01*
X73635Y81501D01*
X73498Y81170D01*
Y80812D01*
X73635Y80481D01*
X73888Y80228D01*
X74219Y80091D01*
X74577D01*
X74907Y80228D01*
X75161Y80481D01*
X75298Y80812D01*
Y81170D01*
X75161Y81501D01*
X74940Y81722D01*
X75169Y81951D01*
X75306Y82282D01*
Y82640D01*
X75169Y82971D01*
X74916Y83224D01*
X74585Y83361D01*
D02*
G37*
G36*
X79145Y83396D02*
X78787D01*
X78456Y83259D01*
X78203Y83006D01*
X78066Y82675D01*
Y82317D01*
X78203Y81986D01*
X78177Y81492D01*
X78040Y81161D01*
Y80803D01*
X78177Y80472D01*
X78430Y80219D01*
X78761Y80082D01*
X79119D01*
X79449Y80219D01*
X79703Y80472D01*
X79840Y80803D01*
Y81161D01*
X79703Y81492D01*
X79729Y81986D01*
X79774Y82097D01*
X79866Y82317D01*
Y82675D01*
X79729Y83006D01*
X79476Y83259D01*
X79145Y83396D01*
D02*
G37*
G36*
X34116Y82788D02*
X33798D01*
X33503Y82666D01*
X33279Y82441D01*
X33157Y82147D01*
Y81829D01*
X33279Y81535D01*
X33340Y81473D01*
X33346Y81430D01*
X33225Y80925D01*
X33107Y80877D01*
X32882Y80652D01*
X32760Y80357D01*
Y80039D01*
X32882Y79745D01*
X33107Y79520D01*
X33401Y79398D01*
X33719D01*
X34013Y79520D01*
X34238Y79745D01*
X34360Y80039D01*
Y80357D01*
X34238Y80652D01*
X34176Y80713D01*
X34171Y80757D01*
X34292Y81261D01*
X34410Y81310D01*
X34635Y81535D01*
X34757Y81829D01*
Y82147D01*
X34635Y82441D01*
X34410Y82666D01*
X34116Y82788D01*
D02*
G37*
G36*
X95623Y81573D02*
X95145D01*
X94704Y81390D01*
X94367Y81053D01*
X94184Y80612D01*
Y80134D01*
X94367Y79693D01*
X94704Y79356D01*
X95145Y79173D01*
X95623D01*
X96064Y79356D01*
X96402Y79693D01*
X96584Y80134D01*
Y80612D01*
X96402Y81053D01*
X96064Y81390D01*
X95623Y81573D01*
D02*
G37*
G36*
X111193Y78790D02*
X110855D01*
X110543Y78661D01*
X110303Y78421D01*
X110174Y78109D01*
Y77771D01*
X110303Y77459D01*
X110543Y77219D01*
X110855Y77090D01*
X111193D01*
X111505Y77219D01*
X111745Y77459D01*
X111874Y77771D01*
Y78109D01*
X111745Y78421D01*
X111505Y78661D01*
X111193Y78790D01*
D02*
G37*
G36*
X98859Y78436D02*
X98501D01*
X98170Y78299D01*
X97917Y78046D01*
X97780Y77715D01*
Y77357D01*
X97917Y77026D01*
X98170Y76773D01*
X98501Y76636D01*
X98859D01*
X99190Y76773D01*
X99391Y76974D01*
X99832Y76984D01*
X99932Y76973D01*
X100185Y76720D01*
X100516Y76583D01*
X100874D01*
X101205Y76720D01*
X101308Y76823D01*
X101644Y76911D01*
X101933Y76814D01*
X102049Y76698D01*
X102380Y76561D01*
X102738D01*
X103069Y76698D01*
X103252Y76881D01*
X103543Y76921D01*
X103834Y76881D01*
X104018Y76698D01*
X104349Y76561D01*
X104707D01*
X105037Y76698D01*
X105221Y76881D01*
X105512Y76921D01*
X105803Y76881D01*
X105986Y76698D01*
X106317Y76561D01*
X106675D01*
X107006Y76698D01*
X107259Y76951D01*
X107396Y77282D01*
Y77640D01*
X107259Y77970D01*
X107006Y78224D01*
X106675Y78361D01*
X106317D01*
X105986Y78224D01*
X105803Y78040D01*
X105512Y78001D01*
X105221Y78040D01*
X105037Y78224D01*
X104707Y78361D01*
X104349D01*
X104018Y78224D01*
X103834Y78040D01*
X103543Y78001D01*
X103252Y78040D01*
X103069Y78224D01*
X102738Y78361D01*
X102380D01*
X102049Y78224D01*
X101946Y78121D01*
X101610Y78033D01*
X101321Y78130D01*
X101205Y78246D01*
X100874Y78383D01*
X100516D01*
X100185Y78246D01*
X99984Y78045D01*
X99543Y78035D01*
X99443Y78046D01*
X99190Y78299D01*
X98859Y78436D01*
D02*
G37*
G36*
X134477Y80999D02*
X133239D01*
X132044Y80679D01*
X130972Y80060D01*
X130097Y79185D01*
X129478Y78113D01*
X129158Y76918D01*
Y75680D01*
X129478Y74485D01*
X130097Y73413D01*
X130972Y72538D01*
X132044Y71919D01*
X133239Y71599D01*
X134477D01*
X135672Y71919D01*
X136744Y72538D01*
X137619Y73413D01*
X138238Y74485D01*
X138558Y75680D01*
Y76918D01*
X138238Y78113D01*
X137619Y79185D01*
X136744Y80060D01*
X135672Y80679D01*
X134477Y80999D01*
D02*
G37*
G36*
X16918D02*
X15680D01*
X14485Y80679D01*
X13413Y80060D01*
X12538Y79185D01*
X11919Y78113D01*
X11599Y76918D01*
Y75680D01*
X11919Y74485D01*
X12538Y73413D01*
X13413Y72538D01*
X14485Y71919D01*
X15680Y71599D01*
X16918D01*
X18113Y71919D01*
X19185Y72538D01*
X20060Y73413D01*
X20679Y74485D01*
X20999Y75680D01*
Y76918D01*
X20679Y78113D01*
X20060Y79185D01*
X19185Y80060D01*
X18113Y80679D01*
X16918Y80999D01*
D02*
G37*
G36*
X6918D02*
X5680D01*
X4485Y80679D01*
X3413Y80060D01*
X2538Y79185D01*
X1919Y78113D01*
X1599Y76918D01*
Y75680D01*
X1919Y74485D01*
X2538Y73413D01*
X3413Y72538D01*
X4485Y71919D01*
X5680Y71599D01*
X6918D01*
X8113Y71919D01*
X9185Y72538D01*
X10060Y73413D01*
X10679Y74485D01*
X10999Y75680D01*
Y76918D01*
X10679Y78113D01*
X10060Y79185D01*
X9185Y80060D01*
X8113Y80679D01*
X6918Y80999D01*
D02*
G37*
G36*
X81665Y68567D02*
X81327D01*
X81015Y68438D01*
X80775Y68199D01*
X80646Y67886D01*
Y67548D01*
X80775Y67235D01*
X81015Y66996D01*
X81327Y66867D01*
X81665D01*
X81977Y66996D01*
X82217Y67235D01*
X82346Y67548D01*
Y67886D01*
X82217Y68199D01*
X81977Y68438D01*
X81665Y68567D01*
D02*
G37*
G36*
X60839Y67965D02*
X60520D01*
X60227Y67843D01*
X60001Y67618D01*
X59880Y67324D01*
Y67006D01*
X60001Y66712D01*
X60227Y66487D01*
X60520Y66365D01*
X60839D01*
X61133Y66487D01*
X61358Y66712D01*
X61480Y67006D01*
Y67324D01*
X61358Y67618D01*
X61133Y67843D01*
X60839Y67965D01*
D02*
G37*
G36*
X95159Y70093D02*
X94801D01*
X94471Y69956D01*
X94217Y69703D01*
X94080Y69372D01*
Y69014D01*
X94217Y68683D01*
X94471Y68430D01*
X94801Y68293D01*
X95022Y68293D01*
X95224Y67820D01*
X95216Y67804D01*
X95106Y67694D01*
X94991Y67579D01*
X94869Y67285D01*
Y66967D01*
X94991Y66673D01*
X95216Y66448D01*
X95510Y66326D01*
X95828D01*
X96122Y66448D01*
X96347Y66673D01*
X96469Y66967D01*
Y67285D01*
X96347Y67579D01*
X96122Y67804D01*
X95828Y67926D01*
X95666Y67926D01*
X95479Y68413D01*
X95490Y68430D01*
X95573Y68512D01*
X95743Y68683D01*
X95880Y69014D01*
Y69372D01*
X95743Y69703D01*
X95490Y69956D01*
X95159Y70093D01*
D02*
G37*
G36*
X87069Y67926D02*
X86750D01*
X86456Y67804D01*
X86231Y67579D01*
X86110Y67285D01*
Y66967D01*
X86231Y66673D01*
X86456Y66448D01*
X86750Y66326D01*
X87069D01*
X87363Y66448D01*
X87588Y66673D01*
X87709Y66967D01*
Y67285D01*
X87588Y67579D01*
X87363Y67804D01*
X87069Y67926D01*
D02*
G37*
G36*
X40130Y66401D02*
X39792D01*
X39479Y66272D01*
X39320Y66112D01*
X39026Y66066D01*
X38732Y66112D01*
X38572Y66272D01*
X38260Y66401D01*
X37922D01*
X37609Y66272D01*
X37370Y66033D01*
X37241Y65720D01*
Y65382D01*
X37370Y65070D01*
X37609Y64831D01*
X37922Y64701D01*
X38260D01*
X38572Y64831D01*
X38732Y64990D01*
X39026Y65036D01*
X39320Y64990D01*
X39479Y64831D01*
X39792Y64701D01*
X40130D01*
X40442Y64831D01*
X40681Y65070D01*
X40716Y65153D01*
X41244Y65122D01*
X41307Y64971D01*
X41546Y64732D01*
X41859Y64603D01*
X42228Y64387D01*
X42350Y64093D01*
X42575Y63868D01*
X42869Y63746D01*
X43187D01*
X43481Y63868D01*
X43706Y64093D01*
X43828Y64387D01*
Y64706D01*
X43706Y65000D01*
X43481Y65225D01*
X43187Y65346D01*
X42878D01*
Y65622D01*
X42748Y65934D01*
X42509Y66173D01*
X42197Y66303D01*
X41859D01*
X41546Y66173D01*
X41307Y65934D01*
X41273Y65851D01*
X40744Y65881D01*
X40681Y66033D01*
X40442Y66272D01*
X40130Y66401D01*
D02*
G37*
G36*
X73397Y66992D02*
X73059D01*
X72746Y66863D01*
X72507Y66624D01*
X72378Y66311D01*
Y65973D01*
X72507Y65661D01*
X72746Y65421D01*
X73059Y65292D01*
X73397D01*
X73709Y65421D01*
X73949Y65661D01*
X74078Y65973D01*
Y66311D01*
X73949Y66624D01*
X73709Y66863D01*
X73397Y66992D01*
D02*
G37*
G36*
X69618Y67335D02*
X69260D01*
X68930Y67198D01*
X68676Y66945D01*
X68539Y66614D01*
Y66256D01*
X68676Y65926D01*
X68930Y65672D01*
X69260Y65535D01*
X69618D01*
X69640Y65544D01*
X70147Y65628D01*
X70400Y65375D01*
X70731Y65238D01*
X71089D01*
X71420Y65375D01*
X71673Y65628D01*
X71810Y65959D01*
Y66317D01*
X71673Y66648D01*
X71420Y66901D01*
X71089Y67038D01*
X70731D01*
X70709Y67029D01*
X70202Y66945D01*
X69949Y67198D01*
X69618Y67335D01*
D02*
G37*
G36*
X65612Y67035D02*
X65254D01*
X64924Y66897D01*
X64670Y66644D01*
X64533Y66314D01*
Y65956D01*
X64670Y65625D01*
X64682Y65613D01*
X64881Y65298D01*
X64682Y64960D01*
X64681Y64960D01*
X64544Y64629D01*
Y64271D01*
X64681Y63940D01*
X64934Y63687D01*
X65265Y63550D01*
X65623D01*
X65954Y63687D01*
X66207Y63940D01*
X66344Y64271D01*
Y64629D01*
X66207Y64960D01*
X66196Y64971D01*
X65997Y65286D01*
X66196Y65624D01*
X66196Y65625D01*
X66333Y65956D01*
Y66314D01*
X66196Y66644D01*
X65943Y66897D01*
X65612Y67035D01*
D02*
G37*
G36*
X56209Y64830D02*
X55891D01*
X55597Y64708D01*
X55372Y64483D01*
X55250Y64189D01*
Y63871D01*
X55372Y63577D01*
X55597Y63352D01*
X55891Y63230D01*
X56209D01*
X56503Y63352D01*
X56728Y63577D01*
X56850Y63871D01*
Y64189D01*
X56728Y64483D01*
X56503Y64708D01*
X56209Y64830D01*
D02*
G37*
G36*
X60760Y64776D02*
X60442D01*
X60148Y64654D01*
X59923Y64429D01*
X59801Y64135D01*
Y63816D01*
X59923Y63522D01*
X60148Y63297D01*
X60442Y63175D01*
X60760D01*
X61054Y63297D01*
X61279Y63522D01*
X61401Y63816D01*
Y64135D01*
X61279Y64429D01*
X61054Y64654D01*
X60760Y64776D01*
D02*
G37*
G36*
X32266Y64581D02*
X31908D01*
X31577Y64444D01*
X31324Y64191D01*
X31187Y63860D01*
Y63502D01*
X31324Y63171D01*
X31577Y62918D01*
X31908Y62781D01*
X32266D01*
X32596Y62918D01*
X32850Y63171D01*
X32987Y63502D01*
Y63860D01*
X32850Y64191D01*
X32596Y64444D01*
X32266Y64581D01*
D02*
G37*
G36*
X46539Y64298D02*
X46181D01*
X45850Y64161D01*
X45597Y63907D01*
X45460Y63577D01*
Y63219D01*
X45597Y62888D01*
X45850Y62635D01*
X46181Y62498D01*
X46539D01*
X46870Y62635D01*
X47123Y62888D01*
X47260Y63219D01*
Y63577D01*
X47123Y63907D01*
X46870Y64161D01*
X46539Y64298D01*
D02*
G37*
G36*
X118958Y63398D02*
X118640D01*
X118346Y63277D01*
X118121Y63052D01*
X117999Y62758D01*
Y62439D01*
X118121Y62145D01*
X118346Y61920D01*
X118640Y61798D01*
X118958D01*
X119252Y61920D01*
X119477Y62145D01*
X119599Y62439D01*
Y62758D01*
X119477Y63052D01*
X119252Y63277D01*
X118958Y63398D01*
D02*
G37*
G36*
X134477Y70999D02*
X133239D01*
X132044Y70679D01*
X130972Y70060D01*
X130097Y69185D01*
X129478Y68113D01*
X129158Y66918D01*
Y65680D01*
X129478Y64485D01*
X130097Y63413D01*
X130972Y62538D01*
X132044Y61919D01*
X133239Y61599D01*
X134477D01*
X135672Y61919D01*
X136744Y62538D01*
X137619Y63413D01*
X138238Y64485D01*
X138558Y65680D01*
Y66918D01*
X138238Y68113D01*
X137619Y69185D01*
X136744Y70060D01*
X135672Y70679D01*
X134477Y70999D01*
D02*
G37*
G36*
X16918D02*
X15680D01*
X14485Y70679D01*
X13413Y70060D01*
X12538Y69185D01*
X11919Y68113D01*
X11599Y66918D01*
Y65680D01*
X11919Y64485D01*
X12538Y63413D01*
X13413Y62538D01*
X14485Y61919D01*
X15680Y61599D01*
X16918D01*
X18113Y61919D01*
X19185Y62538D01*
X20060Y63413D01*
X20679Y64485D01*
X20999Y65680D01*
Y66918D01*
X20679Y68113D01*
X20060Y69185D01*
X19185Y70060D01*
X18113Y70679D01*
X16918Y70999D01*
D02*
G37*
G36*
X6918D02*
X5680D01*
X4485Y70679D01*
X3413Y70060D01*
X2538Y69185D01*
X1919Y68113D01*
X1599Y66918D01*
Y65680D01*
X1919Y64485D01*
X2538Y63413D01*
X3413Y62538D01*
X4485Y61919D01*
X5680Y61599D01*
X6918D01*
X8113Y61919D01*
X9185Y62538D01*
X10060Y63413D01*
X10679Y64485D01*
X10999Y65680D01*
Y66918D01*
X10679Y68113D01*
X10060Y69185D01*
X9185Y70060D01*
X8113Y70679D01*
X6918Y70999D01*
D02*
G37*
G36*
X25966Y63302D02*
X25608D01*
X25278Y63165D01*
X25024Y62911D01*
X24887Y62581D01*
Y62223D01*
X25024Y61892D01*
X25278Y61639D01*
X25608Y61502D01*
X25966D01*
X26297Y61639D01*
X26550Y61892D01*
X26687Y62223D01*
Y62581D01*
X26550Y62911D01*
X26297Y63165D01*
X25966Y63302D01*
D02*
G37*
G36*
X64253Y63001D02*
X63935D01*
X63640Y62879D01*
X63415Y62654D01*
X63294Y62360D01*
Y62042D01*
X63415Y61748D01*
X63640Y61523D01*
X63935Y61401D01*
X64253D01*
X64547Y61523D01*
X64772Y61748D01*
X64894Y62042D01*
Y62360D01*
X64772Y62654D01*
X64547Y62879D01*
X64253Y63001D01*
D02*
G37*
G36*
X80194Y61426D02*
X79836D01*
X79505Y61288D01*
X79252Y61035D01*
X79115Y60705D01*
Y60347D01*
X79252Y60016D01*
X79505Y59763D01*
X79836Y59626D01*
X80194D01*
X80525Y59763D01*
X80778Y60016D01*
X80915Y60347D01*
Y60705D01*
X80778Y61035D01*
X80525Y61288D01*
X80194Y61426D01*
D02*
G37*
G36*
X69372Y61333D02*
X69014D01*
X68683Y61196D01*
X68430Y60943D01*
X68293Y60612D01*
Y60254D01*
X68430Y59923D01*
X68683Y59670D01*
X69014Y59533D01*
X69372D01*
X69703Y59670D01*
X69956Y59923D01*
X70093Y60254D01*
Y60612D01*
X69956Y60943D01*
X69703Y61196D01*
X69372Y61333D01*
D02*
G37*
G36*
X73397Y60693D02*
X73059D01*
X72746Y60564D01*
X72507Y60325D01*
X72378Y60012D01*
Y59674D01*
X72507Y59361D01*
X72746Y59122D01*
X73059Y58993D01*
X73397D01*
X73709Y59122D01*
X73949Y59361D01*
X74078Y59674D01*
Y60012D01*
X73949Y60325D01*
X73709Y60564D01*
X73397Y60693D01*
D02*
G37*
G36*
X86987Y59570D02*
X86669D01*
X86375Y59448D01*
X86150Y59223D01*
X86028Y58929D01*
Y58611D01*
X86150Y58317D01*
X86375Y58092D01*
X86669Y57970D01*
X86987D01*
X87281Y58092D01*
X87506Y58317D01*
X87628Y58611D01*
Y58929D01*
X87506Y59223D01*
X87281Y59448D01*
X86987Y59570D01*
D02*
G37*
G36*
X94943Y58674D02*
X94624D01*
X94330Y58552D01*
X94105Y58327D01*
X93984Y58033D01*
Y57715D01*
X94105Y57421D01*
X94330Y57196D01*
X94624Y57074D01*
X94943D01*
X95237Y57196D01*
X95462Y57421D01*
X95583Y57715D01*
Y58033D01*
X95462Y58327D01*
X95237Y58552D01*
X94943Y58674D01*
D02*
G37*
G36*
X64234Y58576D02*
X63916D01*
X63622Y58454D01*
X63397Y58229D01*
X63275Y57935D01*
Y57617D01*
X63397Y57323D01*
X63622Y57098D01*
X63916Y56976D01*
X64234D01*
X64528Y57098D01*
X64753Y57323D01*
X64875Y57617D01*
Y57935D01*
X64753Y58229D01*
X64528Y58454D01*
X64234Y58576D01*
D02*
G37*
G36*
X70652Y58479D02*
X70293D01*
X69963Y58342D01*
X69709Y58088D01*
X69572Y57758D01*
Y57400D01*
X69709Y57069D01*
X69963Y56816D01*
X70293Y56679D01*
X70652D01*
X70982Y56816D01*
X71235Y57069D01*
X71372Y57400D01*
Y57758D01*
X71235Y58088D01*
X70982Y58342D01*
X70652Y58479D01*
D02*
G37*
G36*
X80181Y58069D02*
X79823D01*
X79492Y57933D01*
X79239Y57679D01*
X79102Y57349D01*
Y56990D01*
X79239Y56660D01*
X79492Y56407D01*
X79823Y56270D01*
X80181D01*
X80512Y56407D01*
X80765Y56660D01*
X80902Y56990D01*
Y57349D01*
X80765Y57679D01*
X80512Y57933D01*
X80181Y58069D01*
D02*
G37*
G36*
X126852Y57888D02*
X126494D01*
X126163Y57751D01*
X125910Y57498D01*
X125773Y57167D01*
Y56809D01*
X125910Y56478D01*
X126163Y56225D01*
X126494Y56088D01*
X126852D01*
X127183Y56225D01*
X127436Y56478D01*
X127573Y56809D01*
Y57167D01*
X127436Y57498D01*
X127183Y57751D01*
X126852Y57888D01*
D02*
G37*
G36*
X46825Y57714D02*
X46487D01*
X46175Y57584D01*
X45935Y57345D01*
X45806Y57033D01*
Y56694D01*
X45935Y56382D01*
X46175Y56143D01*
X46487Y56014D01*
X46825D01*
X47138Y56143D01*
X47377Y56382D01*
X47506Y56694D01*
Y57033D01*
X47377Y57345D01*
X47138Y57584D01*
X46825Y57714D01*
D02*
G37*
G36*
X27490Y59918D02*
X27092D01*
X26725Y59766D01*
X26444Y59485D01*
X26291Y59117D01*
Y58719D01*
X26444Y58352D01*
X26449Y58347D01*
X26430Y58164D01*
X26287Y57801D01*
X26030Y57695D01*
X25749Y57413D01*
X25596Y57046D01*
Y56648D01*
X25749Y56280D01*
X26030Y55999D01*
X26398Y55847D01*
X26795D01*
X27163Y55999D01*
X27444Y56280D01*
X27597Y56648D01*
Y57046D01*
X27444Y57413D01*
X27439Y57418D01*
X27458Y57600D01*
X27601Y57964D01*
X27858Y58070D01*
X28139Y58352D01*
X28291Y58719D01*
Y59117D01*
X28139Y59485D01*
X27858Y59766D01*
X27490Y59918D01*
D02*
G37*
G36*
X113717Y57470D02*
X113379D01*
X113066Y57341D01*
X112827Y57102D01*
X112698Y56789D01*
Y56451D01*
X112827Y56139D01*
X113066Y55900D01*
X113379Y55770D01*
X113717D01*
X114029Y55900D01*
X114269Y56139D01*
X114398Y56451D01*
Y56789D01*
X114269Y57102D01*
X114029Y57341D01*
X113717Y57470D01*
D02*
G37*
G36*
X96931Y57101D02*
X96573D01*
X96242Y56964D01*
X95989Y56711D01*
X95852Y56380D01*
Y56022D01*
X95989Y55691D01*
X96242Y55438D01*
X96573Y55301D01*
X96931D01*
X97262Y55438D01*
X97515Y55691D01*
X97652Y56022D01*
Y56380D01*
X97515Y56711D01*
X97262Y56964D01*
X96931Y57101D01*
D02*
G37*
G36*
X58132Y62020D02*
X57813D01*
X57519Y61899D01*
X57294Y61674D01*
X57172Y61380D01*
Y61061D01*
X57294Y60767D01*
X57344Y60717D01*
X57347Y60697D01*
X57220Y60166D01*
X57126Y60127D01*
X56901Y59902D01*
X56779Y59608D01*
Y59290D01*
X56901Y58996D01*
X57126Y58771D01*
X56995Y58283D01*
X56951Y58176D01*
Y57858D01*
X57073Y57564D01*
X57157Y57479D01*
X57218Y57109D01*
X57134Y56866D01*
X57015Y56747D01*
X56893Y56453D01*
Y56135D01*
X57015Y55841D01*
X57160Y55696D01*
X57238Y55579D01*
X57206Y55089D01*
X57196Y55079D01*
X57074Y54785D01*
Y54467D01*
X57196Y54173D01*
X57421Y53948D01*
X57715Y53826D01*
X58033D01*
X58327Y53948D01*
X58552Y54173D01*
X58674Y54467D01*
Y54785D01*
X58552Y55079D01*
X58408Y55224D01*
X58330Y55341D01*
X58362Y55831D01*
X58372Y55841D01*
X58493Y56135D01*
Y56453D01*
X58372Y56747D01*
X58287Y56832D01*
X58226Y57202D01*
X58311Y57446D01*
X58429Y57564D01*
X58551Y57858D01*
Y58176D01*
X58429Y58470D01*
X58204Y58695D01*
X58334Y59183D01*
X58379Y59290D01*
Y59608D01*
X58257Y59902D01*
X58207Y59952D01*
X58204Y59973D01*
X58331Y60503D01*
X58426Y60542D01*
X58651Y60767D01*
X58772Y61061D01*
Y61380D01*
X58651Y61674D01*
X58426Y61899D01*
X58132Y62020D01*
D02*
G37*
G36*
X112876Y54629D02*
X112518D01*
X112188Y54492D01*
X111934Y54239D01*
X111797Y53908D01*
Y53550D01*
X111934Y53219D01*
X112188Y52966D01*
X112518Y52829D01*
X112876D01*
X113207Y52966D01*
X113460Y53219D01*
X113597Y53550D01*
Y53908D01*
X113460Y54239D01*
X113207Y54492D01*
X112876Y54629D01*
D02*
G37*
G36*
X73220Y54436D02*
X72882D01*
X72570Y54307D01*
X72330Y54067D01*
X72201Y53755D01*
Y53417D01*
X72330Y53104D01*
X72570Y52865D01*
X72882Y52736D01*
X73220D01*
X73533Y52865D01*
X73772Y53104D01*
X73901Y53417D01*
Y53755D01*
X73772Y54067D01*
X73533Y54307D01*
X73220Y54436D01*
D02*
G37*
G36*
X134477Y60999D02*
X133239D01*
X132044Y60679D01*
X130972Y60060D01*
X130097Y59185D01*
X129478Y58113D01*
X129158Y56918D01*
Y55680D01*
X129478Y54485D01*
X130097Y53413D01*
X130972Y52538D01*
X132044Y51919D01*
X133239Y51599D01*
X134477D01*
X135672Y51919D01*
X136744Y52538D01*
X137619Y53413D01*
X138238Y54485D01*
X138558Y55680D01*
Y56918D01*
X138238Y58113D01*
X137619Y59185D01*
X136744Y60060D01*
X135672Y60679D01*
X134477Y60999D01*
D02*
G37*
G36*
X16918D02*
X15680D01*
X14485Y60679D01*
X13413Y60060D01*
X12538Y59185D01*
X11919Y58113D01*
X11599Y56918D01*
Y55680D01*
X11919Y54485D01*
X12538Y53413D01*
X13413Y52538D01*
X14485Y51919D01*
X15680Y51599D01*
X16918D01*
X18113Y51919D01*
X19185Y52538D01*
X20060Y53413D01*
X20679Y54485D01*
X20999Y55680D01*
Y56918D01*
X20679Y58113D01*
X20060Y59185D01*
X19185Y60060D01*
X18113Y60679D01*
X16918Y60999D01*
D02*
G37*
G36*
X6918D02*
X5680D01*
X4485Y60679D01*
X3413Y60060D01*
X2538Y59185D01*
X1919Y58113D01*
X1599Y56918D01*
Y55680D01*
X1919Y54485D01*
X2538Y53413D01*
X3413Y52538D01*
X4485Y51919D01*
X5680Y51599D01*
X6918D01*
X8113Y51919D01*
X9185Y52538D01*
X10060Y53413D01*
X10679Y54485D01*
X10999Y55680D01*
Y56918D01*
X10679Y58113D01*
X10060Y59185D01*
X9185Y60060D01*
X8113Y60679D01*
X6918Y60999D01*
D02*
G37*
G36*
X80141Y55368D02*
X79783D01*
X79452Y55231D01*
X79199Y54978D01*
X79062Y54647D01*
Y54289D01*
X79199Y53958D01*
X79452Y53705D01*
X79659Y53619D01*
X79682Y53610D01*
X79690Y53195D01*
X79673Y53106D01*
X79361Y52977D01*
X79108Y52724D01*
X78971Y52393D01*
Y52035D01*
X79108Y51704D01*
X79361Y51451D01*
X79692Y51314D01*
X80050D01*
X80381Y51451D01*
X80634Y51704D01*
X80771Y52035D01*
Y52393D01*
X80634Y52724D01*
X80381Y52977D01*
X80174Y53062D01*
X80151Y53072D01*
X80143Y53487D01*
X80160Y53576D01*
X80472Y53705D01*
X80725Y53958D01*
X80862Y54289D01*
Y54647D01*
X80725Y54978D01*
X80472Y55231D01*
X80141Y55368D01*
D02*
G37*
G36*
X52625Y51952D02*
X52306D01*
X52012Y51831D01*
X51787Y51605D01*
X51666Y51311D01*
Y50993D01*
X51787Y50699D01*
X52012Y50474D01*
X52306Y50352D01*
X52625D01*
X52919Y50474D01*
X53144Y50699D01*
X53266Y50993D01*
Y51311D01*
X53144Y51605D01*
X52919Y51831D01*
X52625Y51952D01*
D02*
G37*
G36*
X58230Y51587D02*
X57912D01*
X57618Y51466D01*
X57393Y51241D01*
X57271Y50946D01*
Y50628D01*
X57393Y50334D01*
X57618Y50109D01*
X57912Y49987D01*
X58230D01*
X58524Y50109D01*
X58749Y50334D01*
X58871Y50628D01*
Y50946D01*
X58749Y51241D01*
X58524Y51466D01*
X58230Y51587D01*
D02*
G37*
G36*
X55080D02*
X54762D01*
X54468Y51466D01*
X54243Y51241D01*
X54121Y50946D01*
Y50628D01*
X54243Y50334D01*
X54468Y50109D01*
X54762Y49987D01*
X55080D01*
X55374Y50109D01*
X55599Y50334D01*
X55721Y50628D01*
Y50946D01*
X55599Y51241D01*
X55374Y51466D01*
X55080Y51587D01*
D02*
G37*
G36*
X46909Y53799D02*
X46571D01*
X46258Y53669D01*
X46019Y53430D01*
X45890Y53118D01*
Y52780D01*
X46019Y52467D01*
X46090Y52396D01*
X46214Y52095D01*
X46099Y51753D01*
X45970Y51624D01*
X45803Y51219D01*
Y50782D01*
X45970Y50378D01*
X46280Y50068D01*
X46684Y49901D01*
X47122D01*
X47526Y50068D01*
X47835Y50378D01*
X48003Y50782D01*
Y51219D01*
X47835Y51624D01*
X47526Y51933D01*
X47462Y52454D01*
X47473Y52497D01*
X47590Y52780D01*
Y53118D01*
X47460Y53430D01*
X47221Y53669D01*
X46909Y53799D01*
D02*
G37*
G36*
X114451Y51687D02*
X114093D01*
X113762Y51550D01*
X113509Y51297D01*
X113372Y50966D01*
Y50608D01*
X113509Y50278D01*
X113762Y50024D01*
X114093Y49887D01*
X114451D01*
X114781Y50024D01*
X115035Y50278D01*
X115172Y50608D01*
Y50966D01*
X115035Y51297D01*
X114781Y51550D01*
X114451Y51687D01*
D02*
G37*
G36*
X64648Y52573D02*
X64289D01*
X63959Y52436D01*
X63705Y52183D01*
X63569Y51852D01*
Y51494D01*
X63705Y51163D01*
X63959Y50910D01*
X64249Y50790D01*
X64294Y50728D01*
X64352Y50172D01*
X64304Y50124D01*
X64099Y49919D01*
X63962Y49589D01*
Y49230D01*
X64099Y48900D01*
X64352Y48647D01*
X64683Y48509D01*
X65041D01*
X65372Y48647D01*
X65625Y48900D01*
X65762Y49230D01*
Y49589D01*
X65625Y49919D01*
X65372Y50172D01*
X65082Y50293D01*
X65036Y50354D01*
X64978Y50910D01*
X65026Y50959D01*
X65232Y51163D01*
X65368Y51494D01*
Y51852D01*
X65232Y52183D01*
X64978Y52436D01*
X64648Y52573D01*
D02*
G37*
G36*
X112609Y50227D02*
X112251D01*
X111920Y50090D01*
X111667Y49837D01*
X111530Y49506D01*
Y49148D01*
X111667Y48818D01*
X111920Y48564D01*
X112251Y48427D01*
X112609D01*
X112940Y48564D01*
X113193Y48818D01*
X113330Y49148D01*
Y49506D01*
X113193Y49837D01*
X112940Y50090D01*
X112609Y50227D01*
D02*
G37*
G36*
X96045Y54853D02*
X95687D01*
X95356Y54716D01*
X95103Y54463D01*
X94966Y54132D01*
Y53774D01*
X94975Y53752D01*
X94994Y53358D01*
X94725Y53149D01*
X94667Y53125D01*
X94414Y52872D01*
X94277Y52541D01*
Y52183D01*
X94117Y51700D01*
X94002Y51641D01*
X93782Y51550D01*
X93528Y51297D01*
X93391Y50966D01*
Y50709D01*
X93391Y50608D01*
X93030Y50211D01*
X93017Y50206D01*
X92699Y50074D01*
X92446Y49821D01*
X92309Y49490D01*
Y49132D01*
X92446Y48801D01*
X92699Y48548D01*
X93030Y48411D01*
X93388D01*
X93718Y48548D01*
X93972Y48801D01*
X94109Y49132D01*
Y49389D01*
X94109Y49491D01*
X94470Y49887D01*
X94483Y49893D01*
X94801Y50024D01*
X95054Y50278D01*
X95191Y50608D01*
Y50966D01*
X95352Y51449D01*
X95467Y51508D01*
X95687Y51599D01*
X95940Y51852D01*
X96077Y52183D01*
Y52541D01*
X96068Y52563D01*
X96049Y52957D01*
X96318Y53166D01*
X96376Y53190D01*
X96629Y53443D01*
X96766Y53774D01*
Y54132D01*
X96629Y54463D01*
X96376Y54716D01*
X96045Y54853D01*
D02*
G37*
G36*
X61281Y49127D02*
X60963D01*
X60669Y49005D01*
X60444Y48780D01*
X60322Y48486D01*
Y48168D01*
X60444Y47874D01*
X60669Y47649D01*
X60963Y47527D01*
X61281D01*
X61575Y47649D01*
X61800Y47874D01*
X61922Y48168D01*
Y48486D01*
X61800Y48780D01*
X61575Y49005D01*
X61281Y49127D01*
D02*
G37*
G36*
X58131D02*
X57813D01*
X57519Y49005D01*
X57294Y48780D01*
X57172Y48486D01*
Y48168D01*
X57294Y47874D01*
X57519Y47649D01*
X57813Y47527D01*
X58131D01*
X58425Y47649D01*
X58650Y47874D01*
X58772Y48168D01*
Y48486D01*
X58650Y48780D01*
X58425Y49005D01*
X58131Y49127D01*
D02*
G37*
G36*
X54982D02*
X54664D01*
X54370Y49005D01*
X54145Y48780D01*
X54023Y48486D01*
Y48168D01*
X54145Y47874D01*
X54370Y47649D01*
X54664Y47527D01*
X54982D01*
X55276Y47649D01*
X55501Y47874D01*
X55623Y48168D01*
Y48486D01*
X55501Y48780D01*
X55276Y49005D01*
X54982Y49127D01*
D02*
G37*
G36*
X46801Y49013D02*
X46463D01*
X46151Y48883D01*
X45912Y48644D01*
X45782Y48332D01*
Y47994D01*
X45912Y47681D01*
X46151Y47442D01*
X46463Y47313D01*
X46801D01*
X47114Y47442D01*
X47353Y47681D01*
X47482Y47994D01*
Y48332D01*
X47353Y48644D01*
X47114Y48883D01*
X46801Y49013D01*
D02*
G37*
G36*
X90120Y48733D02*
X89802D01*
X89508Y48611D01*
X89282Y48386D01*
X89161Y48092D01*
Y47774D01*
X89282Y47480D01*
X89508Y47255D01*
X89802Y47133D01*
X90120D01*
X90414Y47255D01*
X90639Y47480D01*
X90761Y47774D01*
Y48092D01*
X90639Y48386D01*
X90414Y48611D01*
X90120Y48733D01*
D02*
G37*
G36*
X96393Y48519D02*
X96035D01*
X95704Y48382D01*
X95451Y48129D01*
X95314Y47798D01*
Y47440D01*
X95451Y47109D01*
X95704Y46856D01*
X96035Y46719D01*
X96393D01*
X96724Y46856D01*
X96977Y47109D01*
X97114Y47440D01*
Y47798D01*
X96977Y48129D01*
X96724Y48382D01*
X96393Y48519D01*
D02*
G37*
G36*
X83386Y48410D02*
X83028D01*
X82697Y48272D01*
X82444Y48019D01*
X82307Y47688D01*
Y47330D01*
X82444Y47000D01*
X82697Y46747D01*
X83028Y46610D01*
X83386D01*
X83717Y46747D01*
X83970Y47000D01*
X84107Y47330D01*
Y47688D01*
X83970Y48019D01*
X83717Y48272D01*
X83386Y48410D01*
D02*
G37*
G36*
X64943Y47947D02*
X64585D01*
X64254Y47810D01*
X64001Y47557D01*
X63864Y47226D01*
Y46868D01*
X64001Y46537D01*
X64254Y46284D01*
X64585Y46147D01*
X64943D01*
X65274Y46284D01*
X65527Y46537D01*
X65664Y46868D01*
Y47226D01*
X65527Y47557D01*
X65274Y47810D01*
X64943Y47947D01*
D02*
G37*
G36*
X117010Y47750D02*
X116652D01*
X116321Y47613D01*
X116068Y47360D01*
X115931Y47029D01*
Y46671D01*
X116068Y46341D01*
X116321Y46087D01*
X116652Y45950D01*
X117010D01*
X117341Y46087D01*
X117594Y46341D01*
X117731Y46671D01*
Y47029D01*
X117594Y47360D01*
X117341Y47613D01*
X117010Y47750D01*
D02*
G37*
G36*
X107422Y58206D02*
X107104D01*
X106810Y58084D01*
X106585Y57859D01*
X106463Y57565D01*
Y57389D01*
X106290Y57133D01*
X106038Y56966D01*
X105840D01*
X105527Y56837D01*
X105288Y56598D01*
X105158Y56285D01*
Y55947D01*
X105288Y55635D01*
X105527Y55396D01*
X105840Y55266D01*
X106113D01*
X106248Y55091D01*
X106363Y54804D01*
X106237Y54500D01*
Y54162D01*
X106366Y53850D01*
X106606Y53610D01*
Y53083D01*
X106366Y52843D01*
X106237Y52531D01*
Y52193D01*
X106366Y51881D01*
X106606Y51641D01*
Y51115D01*
X106366Y50876D01*
X106237Y50563D01*
Y50225D01*
X106366Y49913D01*
X106606Y49673D01*
Y49146D01*
X106366Y48906D01*
X106237Y48594D01*
Y48256D01*
X106366Y47943D01*
X106606Y47704D01*
Y47178D01*
X106366Y46938D01*
X106237Y46626D01*
Y46288D01*
X106366Y45976D01*
X106606Y45736D01*
X106918Y45607D01*
X107256D01*
X107569Y45736D01*
X107808Y45976D01*
X107937Y46288D01*
Y46626D01*
X107808Y46938D01*
X107569Y47178D01*
Y47704D01*
X107808Y47943D01*
X107937Y48256D01*
Y48594D01*
X107808Y48906D01*
X107569Y49146D01*
Y49673D01*
X107808Y49913D01*
X107937Y50225D01*
Y50563D01*
X107808Y50876D01*
X107569Y51115D01*
Y51641D01*
X107808Y51881D01*
X107937Y52193D01*
Y52531D01*
X107808Y52843D01*
X107569Y53083D01*
Y53610D01*
X107808Y53850D01*
X107937Y54162D01*
Y54500D01*
X107808Y54813D01*
X107569Y55052D01*
X107256Y55181D01*
X106983D01*
X106848Y55356D01*
X106733Y55643D01*
X106859Y55947D01*
Y56167D01*
X106976Y56378D01*
X107267Y56606D01*
X107422D01*
X107716Y56728D01*
X107941Y56953D01*
X108063Y57247D01*
Y57565D01*
X107941Y57859D01*
X107716Y58084D01*
X107422Y58206D01*
D02*
G37*
G36*
X86855Y47154D02*
X86537D01*
X86243Y47033D01*
X86018Y46808D01*
X85896Y46514D01*
Y46195D01*
X86018Y45901D01*
X86243Y45676D01*
X86537Y45554D01*
X86855D01*
X87149Y45676D01*
X87374Y45901D01*
X87496Y46195D01*
Y46514D01*
X87374Y46808D01*
X87149Y47033D01*
X86855Y47154D01*
D02*
G37*
G36*
X61281Y45977D02*
X60963D01*
X60669Y45855D01*
X60444Y45630D01*
X60322Y45336D01*
Y45018D01*
X60444Y44724D01*
X60669Y44499D01*
X60963Y44377D01*
X61281D01*
X61575Y44499D01*
X61800Y44724D01*
X61922Y45018D01*
Y45336D01*
X61800Y45630D01*
X61575Y45855D01*
X61281Y45977D01*
D02*
G37*
G36*
X58131D02*
X57813D01*
X57519Y45855D01*
X57294Y45630D01*
X57172Y45336D01*
Y45018D01*
X57294Y44724D01*
X57519Y44499D01*
X57813Y44377D01*
X58131D01*
X58425Y44499D01*
X58650Y44724D01*
X58772Y45018D01*
Y45336D01*
X58650Y45630D01*
X58425Y45855D01*
X58131Y45977D01*
D02*
G37*
G36*
X54982D02*
X54664D01*
X54370Y45855D01*
X54145Y45630D01*
X54023Y45336D01*
Y45018D01*
X54145Y44724D01*
X54370Y44499D01*
X54664Y44377D01*
X54982D01*
X55276Y44499D01*
X55501Y44724D01*
X55623Y45018D01*
Y45336D01*
X55501Y45630D01*
X55276Y45855D01*
X54982Y45977D01*
D02*
G37*
G36*
X73703Y50014D02*
X73345D01*
X73014Y49877D01*
X72761Y49624D01*
X72624Y49293D01*
Y48935D01*
X72761Y48604D01*
X73014Y48351D01*
X73076Y48325D01*
X73084Y47788D01*
X72831Y47535D01*
X72694Y47204D01*
Y46846D01*
X72831Y46515D01*
X73084Y46262D01*
X73154Y45785D01*
X73017Y45455D01*
Y45097D01*
X73154Y44766D01*
X73408Y44513D01*
X73738Y44376D01*
X74096D01*
X74427Y44513D01*
X74680Y44766D01*
X74817Y45097D01*
Y45455D01*
X74680Y45785D01*
X74427Y46039D01*
X74357Y46515D01*
X74494Y46846D01*
Y47204D01*
X74357Y47535D01*
X74104Y47788D01*
X74042Y47814D01*
X74033Y48351D01*
X74287Y48604D01*
X74424Y48935D01*
Y49293D01*
X74287Y49624D01*
X74033Y49877D01*
X73703Y50014D01*
D02*
G37*
G36*
X105070Y44657D02*
X104712D01*
X104381Y44520D01*
X104210Y44349D01*
X103948Y44292D01*
X103616Y44339D01*
X103461Y44494D01*
X103130Y44631D01*
X102772D01*
X102441Y44494D01*
X102188Y44241D01*
X102051Y43910D01*
Y43552D01*
X102188Y43221D01*
X102441Y42968D01*
X102772Y42831D01*
X103130D01*
X103461Y42968D01*
X103631Y43139D01*
X103893Y43196D01*
X104225Y43150D01*
X104381Y42994D01*
X104712Y42857D01*
X105070D01*
X105401Y42994D01*
X105654Y43247D01*
X105791Y43578D01*
Y43936D01*
X105654Y44267D01*
X105401Y44520D01*
X105070Y44657D01*
D02*
G37*
G36*
X123791Y45732D02*
X123453D01*
X123141Y45603D01*
X122901Y45364D01*
X122772Y45051D01*
Y44713D01*
X122901Y44401D01*
X123141Y44161D01*
X123453Y44032D01*
X123791D01*
X124103Y44161D01*
X124343Y44401D01*
X124472Y44713D01*
Y45051D01*
X124343Y45364D01*
X124103Y45603D01*
X123791Y45732D01*
D02*
G37*
G36*
X77355Y45237D02*
X76996D01*
X76666Y45099D01*
X76412Y44846D01*
X76275Y44515D01*
Y44157D01*
X76412Y43827D01*
X76666Y43573D01*
X76996Y43437D01*
X77355D01*
X77685Y43573D01*
X77938Y43827D01*
X78075Y44157D01*
Y44515D01*
X77938Y44846D01*
X77685Y45099D01*
X77355Y45237D01*
D02*
G37*
G36*
X29213Y44964D02*
X28656D01*
X28141Y44751D01*
X27747Y44357D01*
X27534Y43842D01*
Y43285D01*
X27747Y42771D01*
X28141Y42377D01*
X28656Y42164D01*
X29213D01*
X29727Y42377D01*
X30121Y42771D01*
X30334Y43285D01*
Y43842D01*
X30121Y44357D01*
X29727Y44751D01*
X29213Y44964D01*
D02*
G37*
G36*
X45051Y43862D02*
X44713D01*
X44400Y43732D01*
X44161Y43493D01*
X44032Y43181D01*
Y42843D01*
X44161Y42530D01*
X44400Y42291D01*
X44713Y42162D01*
X45051D01*
X45363Y42291D01*
X45603Y42530D01*
X45732Y42843D01*
Y43181D01*
X45603Y43493D01*
X45363Y43732D01*
X45051Y43862D01*
D02*
G37*
G36*
X34323Y44157D02*
X33985D01*
X33672Y44028D01*
X33433Y43789D01*
X33303Y43476D01*
Y43138D01*
X33433Y42826D01*
X33672Y42586D01*
X33985Y42457D01*
X34323D01*
X34635Y42586D01*
X34772Y42724D01*
X35247Y42586D01*
X35272Y42570D01*
Y42548D01*
X35401Y42235D01*
X35641Y41996D01*
X35953Y41866D01*
X36291D01*
X36604Y41996D01*
X36843Y42235D01*
X36972Y42548D01*
Y42886D01*
X36843Y43198D01*
X36604Y43437D01*
X36291Y43567D01*
X35953D01*
X35641Y43437D01*
X35504Y43300D01*
X35029Y43437D01*
X35004Y43453D01*
Y43476D01*
X34874Y43789D01*
X34635Y44028D01*
X34323Y44157D01*
D02*
G37*
G36*
X38653Y43468D02*
X38315D01*
X38003Y43339D01*
X37764Y43100D01*
X37634Y42787D01*
Y42449D01*
X37764Y42137D01*
X38003Y41897D01*
X38315Y41768D01*
X38653D01*
X38966Y41897D01*
X39205Y42137D01*
X39334Y42449D01*
Y42787D01*
X39205Y43100D01*
X38966Y43339D01*
X38653Y43468D01*
D02*
G37*
G36*
X41311Y43370D02*
X40973D01*
X40660Y43240D01*
X40421Y43001D01*
X40292Y42689D01*
Y42351D01*
X40421Y42038D01*
X40660Y41799D01*
X40973Y41670D01*
X41311D01*
X41623Y41799D01*
X41862Y42038D01*
X41992Y42351D01*
Y42689D01*
X41862Y43001D01*
X41623Y43240D01*
X41311Y43370D01*
D02*
G37*
G36*
X134477Y50999D02*
X133239D01*
X132044Y50679D01*
X130972Y50060D01*
X130097Y49185D01*
X129478Y48113D01*
X129158Y46918D01*
Y45680D01*
X129478Y44485D01*
X130097Y43413D01*
X130972Y42538D01*
X132044Y41919D01*
X133239Y41599D01*
X134477D01*
X135672Y41919D01*
X136744Y42538D01*
X137619Y43413D01*
X138238Y44485D01*
X138558Y45680D01*
Y46918D01*
X138238Y48113D01*
X137619Y49185D01*
X136744Y50060D01*
X135672Y50679D01*
X134477Y50999D01*
D02*
G37*
G36*
X16918D02*
X15680D01*
X14485Y50679D01*
X13413Y50060D01*
X12538Y49185D01*
X11919Y48113D01*
X11599Y46918D01*
Y45680D01*
X11919Y44485D01*
X12538Y43413D01*
X13413Y42538D01*
X14485Y41919D01*
X15680Y41599D01*
X16918D01*
X18113Y41919D01*
X19185Y42538D01*
X20060Y43413D01*
X20679Y44485D01*
X20999Y45680D01*
Y46918D01*
X20679Y48113D01*
X20060Y49185D01*
X19185Y50060D01*
X18113Y50679D01*
X16918Y50999D01*
D02*
G37*
G36*
X6918D02*
X5680D01*
X4485Y50679D01*
X3413Y50060D01*
X2538Y49185D01*
X1919Y48113D01*
X1599Y46918D01*
Y45680D01*
X1919Y44485D01*
X2538Y43413D01*
X3413Y42538D01*
X4485Y41919D01*
X5680Y41599D01*
X6918D01*
X8113Y41919D01*
X9185Y42538D01*
X10060Y43413D01*
X10679Y44485D01*
X10999Y45680D01*
Y46918D01*
X10679Y48113D01*
X10060Y49185D01*
X9185Y50060D01*
X8113Y50679D01*
X6918Y50999D01*
D02*
G37*
G36*
X61281Y42828D02*
X60963D01*
X60669Y42706D01*
X60444Y42481D01*
X60322Y42187D01*
Y41869D01*
X60444Y41575D01*
X60669Y41350D01*
X60963Y41228D01*
X61281D01*
X61575Y41350D01*
X61800Y41575D01*
X61922Y41869D01*
Y42187D01*
X61800Y42481D01*
X61575Y42706D01*
X61281Y42828D01*
D02*
G37*
G36*
X58131D02*
X57813D01*
X57519Y42706D01*
X57294Y42481D01*
X57172Y42187D01*
Y41869D01*
X57294Y41575D01*
X57519Y41350D01*
X57813Y41228D01*
X58131D01*
X58425Y41350D01*
X58650Y41575D01*
X58772Y41869D01*
Y42187D01*
X58650Y42481D01*
X58425Y42706D01*
X58131Y42828D01*
D02*
G37*
G36*
X80137Y43125D02*
X79779D01*
X79448Y42988D01*
X79195Y42734D01*
X79058Y42404D01*
Y42046D01*
X79195Y41715D01*
X79200Y41710D01*
X79189Y41604D01*
X79127Y41131D01*
X79102Y41105D01*
X78889Y40892D01*
X78752Y40561D01*
Y40203D01*
X78889Y39872D01*
X79142Y39619D01*
X79473Y39482D01*
X79831D01*
X80162Y39619D01*
X80415Y39872D01*
X80552Y40203D01*
Y40561D01*
X80415Y40892D01*
X80410Y40897D01*
X80421Y41003D01*
X80483Y41476D01*
X80508Y41502D01*
X80721Y41715D01*
X80858Y42046D01*
Y42404D01*
X80721Y42734D01*
X80468Y42988D01*
X80137Y43125D01*
D02*
G37*
G36*
X49096Y41845D02*
X48738D01*
X48408Y41708D01*
X48154Y41455D01*
X48017Y41124D01*
Y40766D01*
X48154Y40435D01*
X48156Y40433D01*
X47873Y40009D01*
X47718Y40073D01*
X47360D01*
X47030Y39936D01*
X46776Y39683D01*
X46639Y39352D01*
Y38994D01*
X46776Y38663D01*
X47030Y38410D01*
X47360Y38273D01*
X47718D01*
X48049Y38410D01*
X48302Y38663D01*
X48439Y38994D01*
Y39352D01*
X48302Y39683D01*
X48300Y39685D01*
X48583Y40109D01*
X48738Y40045D01*
X49096D01*
X49175Y40077D01*
X49553Y39693D01*
X49494Y39549D01*
Y39191D01*
X49631Y38860D01*
X49884Y38607D01*
X50215Y38470D01*
X50573D01*
X50903Y38607D01*
X51157Y38860D01*
X51294Y39191D01*
Y39549D01*
X51157Y39880D01*
X50903Y40133D01*
X50573Y40270D01*
X50215D01*
X50136Y40238D01*
X49758Y40622D01*
X49817Y40766D01*
Y41124D01*
X49680Y41455D01*
X49427Y41708D01*
X49096Y41845D01*
D02*
G37*
G36*
X81271Y39433D02*
X80933D01*
X80620Y39304D01*
X80381Y39064D01*
X80252Y38752D01*
Y38414D01*
X80381Y38102D01*
X80620Y37862D01*
X80933Y37733D01*
X81271D01*
X81583Y37862D01*
X81823Y38102D01*
X81952Y38414D01*
Y38752D01*
X81823Y39064D01*
X81583Y39304D01*
X81271Y39433D01*
D02*
G37*
G36*
X101380Y36433D02*
X100982D01*
X100615Y36281D01*
X100333Y36000D01*
X100220Y35726D01*
X100181Y35632D01*
X99719Y35612D01*
X99671Y35728D01*
X99582Y35943D01*
X99329Y36196D01*
X98998Y36333D01*
X98640D01*
X98309Y36196D01*
X98056Y35943D01*
X97919Y35612D01*
Y35254D01*
X98056Y34923D01*
X98309Y34670D01*
X98640Y34533D01*
X98998D01*
X99329Y34670D01*
X99582Y34923D01*
X99671Y35138D01*
X99719Y35254D01*
X100181Y35234D01*
X100220Y35140D01*
X100333Y34867D01*
X100615Y34585D01*
X100982Y34433D01*
X101380D01*
X101606Y34527D01*
X102008Y34196D01*
X102010Y34194D01*
X101953Y34057D01*
Y33659D01*
X102105Y33292D01*
X102386Y33010D01*
X102754Y32858D01*
X103152D01*
X103519Y33010D01*
X103801Y33292D01*
X103953Y33659D01*
Y34057D01*
X103801Y34424D01*
X103519Y34706D01*
X103152Y34858D01*
X102754D01*
X102527Y34764D01*
X102126Y35095D01*
X102124Y35097D01*
X102181Y35234D01*
Y35632D01*
X102029Y36000D01*
X101748Y36281D01*
X101380Y36433D01*
D02*
G37*
G36*
X109234Y36333D02*
X108876D01*
X108545Y36196D01*
X108292Y35943D01*
X108155Y35612D01*
Y35254D01*
X108292Y34923D01*
X108545Y34670D01*
X108876Y34533D01*
X109234D01*
X109565Y34670D01*
X109818Y34923D01*
X109955Y35254D01*
Y35612D01*
X109818Y35943D01*
X109565Y36196D01*
X109234Y36333D01*
D02*
G37*
G36*
X114039Y36733D02*
X113521D01*
X113044Y36535D01*
X112678Y36169D01*
X112480Y35692D01*
Y35174D01*
X112678Y34697D01*
X113044Y34331D01*
X113521Y34133D01*
X114039D01*
X114516Y34331D01*
X114882Y34697D01*
X115080Y35174D01*
Y35692D01*
X114882Y36169D01*
X114516Y36535D01*
X114039Y36733D01*
D02*
G37*
G36*
X94353D02*
X93835D01*
X93358Y36535D01*
X92992Y36169D01*
X92794Y35692D01*
Y35174D01*
X92992Y34697D01*
X93358Y34331D01*
X93835Y34133D01*
X94353D01*
X94830Y34331D01*
X95196Y34697D01*
X95394Y35174D01*
Y35692D01*
X95196Y36169D01*
X94830Y36535D01*
X94353Y36733D01*
D02*
G37*
G36*
X105120Y36433D02*
X104722D01*
X104355Y36281D01*
X104073Y36000D01*
X103921Y35632D01*
Y35234D01*
X104073Y34867D01*
X104355Y34585D01*
X104722Y34433D01*
X105120D01*
X105347Y34527D01*
X105748Y34196D01*
X105750Y34194D01*
X105693Y34057D01*
Y33659D01*
X105845Y33292D01*
X106126Y33010D01*
X106494Y32858D01*
X106892D01*
X107259Y33010D01*
X107541Y33292D01*
X107693Y33659D01*
Y34057D01*
X107541Y34424D01*
X107259Y34706D01*
X106892Y34858D01*
X106494D01*
X106268Y34764D01*
X105866Y35095D01*
X105864Y35097D01*
X105921Y35234D01*
Y35632D01*
X105769Y36000D01*
X105487Y36281D01*
X105120Y36433D01*
D02*
G37*
G36*
X134477Y40999D02*
X133239D01*
X132044Y40679D01*
X130972Y40060D01*
X130097Y39185D01*
X129478Y38113D01*
X129158Y36918D01*
Y35680D01*
X129478Y34485D01*
X130097Y33413D01*
X130972Y32538D01*
X132044Y31919D01*
X133239Y31599D01*
X134477D01*
X135672Y31919D01*
X136744Y32538D01*
X137619Y33413D01*
X138238Y34485D01*
X138558Y35680D01*
Y36918D01*
X138238Y38113D01*
X137619Y39185D01*
X136744Y40060D01*
X135672Y40679D01*
X134477Y40999D01*
D02*
G37*
G36*
X16918D02*
X15680D01*
X14485Y40679D01*
X13413Y40060D01*
X12538Y39185D01*
X11919Y38113D01*
X11599Y36918D01*
Y35680D01*
X11919Y34485D01*
X12538Y33413D01*
X13413Y32538D01*
X14485Y31919D01*
X15680Y31599D01*
X16918D01*
X18113Y31919D01*
X19185Y32538D01*
X20060Y33413D01*
X20679Y34485D01*
X20999Y35680D01*
Y36918D01*
X20679Y38113D01*
X20060Y39185D01*
X19185Y40060D01*
X18113Y40679D01*
X16918Y40999D01*
D02*
G37*
G36*
X6918D02*
X5680D01*
X4485Y40679D01*
X3413Y40060D01*
X2538Y39185D01*
X1919Y38113D01*
X1599Y36918D01*
Y35680D01*
X1919Y34485D01*
X2538Y33413D01*
X3413Y32538D01*
X4485Y31919D01*
X5680Y31599D01*
X6918D01*
X8113Y31919D01*
X9185Y32538D01*
X10060Y33413D01*
X10679Y34485D01*
X10999Y35680D01*
Y36918D01*
X10679Y38113D01*
X10060Y39185D01*
X9185Y40060D01*
X8113Y40679D01*
X6918Y40999D01*
D02*
G37*
G36*
X82287Y32405D02*
X81690D01*
X81138Y32177D01*
X80717Y31755D01*
X80488Y31204D01*
Y30607D01*
X80717Y30056D01*
X81138Y29634D01*
X81690Y29406D01*
X82287D01*
X82838Y29634D01*
X83260Y30056D01*
X83488Y30607D01*
Y31204D01*
X83260Y31755D01*
X82838Y32177D01*
X82287Y32405D01*
D02*
G37*
G36*
X120945Y32641D02*
X120144Y32535D01*
X119398Y32226D01*
X118757Y31735D01*
X118266Y31094D01*
X117957Y30348D01*
X117851Y29547D01*
Y26651D01*
X117351Y26552D01*
X117247Y26803D01*
X116606Y27444D01*
X115768Y27791D01*
X114862D01*
X114024Y27444D01*
X113382Y26803D01*
X113035Y25965D01*
Y25058D01*
X113382Y24221D01*
X114024Y23579D01*
X114862Y23232D01*
X115768D01*
X116606Y23579D01*
X117247Y24221D01*
X117442Y24691D01*
X117956Y24623D01*
X117957Y24613D01*
X118266Y23867D01*
X118757Y23226D01*
X119398Y22734D01*
X120144Y22425D01*
X120945Y22320D01*
X121746Y22425D01*
X122492Y22734D01*
X123132Y23226D01*
X123624Y23867D01*
X123933Y24613D01*
X124038Y25413D01*
Y29547D01*
X123933Y30348D01*
X123624Y31094D01*
X123132Y31735D01*
X122492Y32226D01*
X121746Y32535D01*
X120945Y32641D01*
D02*
G37*
G36*
X42807Y28997D02*
X42807D01*
X41840Y28738D01*
X40974Y28238D01*
X40266Y27530D01*
X39766Y26664D01*
X39629Y26152D01*
X39111D01*
X38974Y26664D01*
X38474Y27530D01*
X37766Y28238D01*
X36900Y28738D01*
X35933Y28997D01*
X34933D01*
X33966Y28738D01*
X33100Y28238D01*
X32392Y27530D01*
X31892Y26664D01*
X31633Y25697D01*
Y24697D01*
X31892Y23730D01*
X32392Y22864D01*
X33100Y22156D01*
X33966Y21656D01*
X34933Y21397D01*
X35933D01*
X36900Y21656D01*
X37766Y22156D01*
X38474Y22864D01*
X38974Y23730D01*
X39111Y24242D01*
X39629D01*
X39766Y23730D01*
X40266Y22864D01*
X40974Y22156D01*
X41840Y21656D01*
X42807Y21397D01*
X42807D01*
Y25197D01*
Y28997D01*
D02*
G37*
G36*
X43807D02*
X43807D01*
Y25697D01*
X47107D01*
Y25697D01*
X46848Y26664D01*
X46348Y27530D01*
X45640Y28238D01*
X44774Y28738D01*
X43807Y28997D01*
D02*
G37*
G36*
X76775Y26402D02*
X76178D01*
X75627Y26173D01*
X75205Y25751D01*
X74976Y25200D01*
Y24603D01*
X75205Y24052D01*
X75627Y23630D01*
X76178Y23402D01*
X76775D01*
X77326Y23630D01*
X77701Y24005D01*
X78123Y23584D01*
X78674Y23355D01*
X79270D01*
X79822Y23584D01*
X80244Y24006D01*
X80593Y23702D01*
X80686Y23609D01*
X81238Y23380D01*
X81834D01*
X82386Y23609D01*
X82808Y24031D01*
X83036Y24582D01*
Y25179D01*
X82808Y25730D01*
X82386Y26152D01*
X81834Y26380D01*
X81238D01*
X80686Y26152D01*
X80264Y25730D01*
X79915Y26034D01*
X79822Y26127D01*
X79270Y26355D01*
X78674D01*
X78123Y26127D01*
X77747Y25752D01*
X77326Y26173D01*
X76775Y26402D01*
D02*
G37*
G36*
X86929Y32641D02*
X86128Y32535D01*
X85382Y32226D01*
X84742Y31735D01*
X84250Y31094D01*
X83941Y30348D01*
X83836Y29547D01*
Y25413D01*
X83941Y24613D01*
X84250Y23867D01*
X84742Y23226D01*
X85382Y22734D01*
X86128Y22425D01*
X86929Y22320D01*
X87730Y22425D01*
X88476Y22734D01*
X89117Y23226D01*
X89608Y23867D01*
X89917Y24613D01*
X89919Y24623D01*
X90432Y24691D01*
X90627Y24221D01*
X91268Y23579D01*
X92106Y23232D01*
X93012D01*
X93850Y23579D01*
X94491Y24221D01*
X94839Y25058D01*
Y25965D01*
X94491Y26803D01*
X93850Y27444D01*
X93012Y27791D01*
X92106D01*
X91268Y27444D01*
X90627Y26803D01*
X90522Y26552D01*
X90022Y26651D01*
Y29547D01*
X89917Y30348D01*
X89608Y31094D01*
X89117Y31735D01*
X88476Y32226D01*
X87730Y32535D01*
X86929Y32641D01*
D02*
G37*
G36*
X134477Y30999D02*
X133239D01*
X132044Y30679D01*
X130972Y30060D01*
X130097Y29185D01*
X129478Y28113D01*
X129158Y26918D01*
Y25680D01*
X129478Y24485D01*
X130097Y23413D01*
X130972Y22538D01*
X132044Y21919D01*
X133239Y21599D01*
X134477D01*
X135672Y21919D01*
X136744Y22538D01*
X137619Y23413D01*
X138238Y24485D01*
X138558Y25680D01*
Y26918D01*
X138238Y28113D01*
X137619Y29185D01*
X136744Y30060D01*
X135672Y30679D01*
X134477Y30999D01*
D02*
G37*
G36*
X16918D02*
X15680D01*
X14485Y30679D01*
X13413Y30060D01*
X12538Y29185D01*
X11919Y28113D01*
X11599Y26918D01*
Y25680D01*
X11919Y24485D01*
X12538Y23413D01*
X13413Y22538D01*
X14485Y21919D01*
X15680Y21599D01*
X16918D01*
X18113Y21919D01*
X19185Y22538D01*
X20060Y23413D01*
X20679Y24485D01*
X20999Y25680D01*
Y26918D01*
X20679Y28113D01*
X20060Y29185D01*
X19185Y30060D01*
X18113Y30679D01*
X16918Y30999D01*
D02*
G37*
G36*
X6918D02*
X5680D01*
X4485Y30679D01*
X3413Y30060D01*
X2538Y29185D01*
X1919Y28113D01*
X1599Y26918D01*
Y25680D01*
X1919Y24485D01*
X2538Y23413D01*
X3413Y22538D01*
X4485Y21919D01*
X5680Y21599D01*
X6918D01*
X8113Y21919D01*
X9185Y22538D01*
X10060Y23413D01*
X10679Y24485D01*
X10999Y25680D01*
Y26918D01*
X10679Y28113D01*
X10060Y29185D01*
X9185Y30060D01*
X8113Y30679D01*
X6918Y30999D01*
D02*
G37*
G36*
X47107Y24697D02*
X43807D01*
Y21397D01*
X43807D01*
X44774Y21656D01*
X45640Y22156D01*
X46348Y22864D01*
X46848Y23730D01*
X47107Y24697D01*
Y24697D01*
D02*
G37*
G36*
X48522Y15566D02*
X48164D01*
X47833Y15429D01*
X47580Y15176D01*
X47443Y14845D01*
Y14487D01*
X47580Y14156D01*
X47833Y13903D01*
X48164Y13766D01*
X48522D01*
X48853Y13903D01*
X49106Y14156D01*
X49243Y14487D01*
Y14845D01*
X49106Y15176D01*
X48853Y15429D01*
X48522Y15566D01*
D02*
G37*
G36*
X60272Y16096D02*
X59794D01*
X59353Y15913D01*
X59015Y15575D01*
X58833Y15134D01*
Y14657D01*
X59015Y14216D01*
X59353Y13878D01*
X59794Y13696D01*
X60272D01*
X60712Y13878D01*
X61050Y14216D01*
X61233Y14657D01*
Y15134D01*
X61050Y15575D01*
X60712Y15913D01*
X60272Y16096D01*
D02*
G37*
G36*
X78998Y14186D02*
X78679D01*
X78385Y14064D01*
X78160Y13839D01*
X78039Y13545D01*
Y13227D01*
X78160Y12933D01*
X78385Y12708D01*
X78679Y12586D01*
X78998D01*
X79292Y12708D01*
X79517Y12933D01*
X79639Y13227D01*
Y13545D01*
X79517Y13839D01*
X79292Y14064D01*
X78998Y14186D01*
D02*
G37*
G36*
X63368Y14384D02*
X63010D01*
X62679Y14247D01*
X62426Y13994D01*
X62289Y13663D01*
Y13305D01*
X62426Y12974D01*
X62679Y12721D01*
X63010Y12584D01*
X63368D01*
X63699Y12721D01*
X63952Y12974D01*
X64089Y13305D01*
Y13663D01*
X63952Y13994D01*
X63699Y14247D01*
X63368Y14384D01*
D02*
G37*
G36*
X134477Y20999D02*
X133239D01*
X132044Y20679D01*
X130972Y20060D01*
X130097Y19185D01*
X129478Y18113D01*
X129158Y16918D01*
Y15680D01*
X129478Y14485D01*
X130097Y13413D01*
X130972Y12538D01*
X132044Y11919D01*
X133239Y11599D01*
X134477D01*
X135672Y11919D01*
X136744Y12538D01*
X137619Y13413D01*
X138238Y14485D01*
X138558Y15680D01*
Y16918D01*
X138238Y18113D01*
X137619Y19185D01*
X136744Y20060D01*
X135672Y20679D01*
X134477Y20999D01*
D02*
G37*
G36*
X16918D02*
X15680D01*
X14485Y20679D01*
X13413Y20060D01*
X12538Y19185D01*
X11919Y18113D01*
X11599Y16918D01*
Y15680D01*
X11919Y14485D01*
X12538Y13413D01*
X13413Y12538D01*
X14485Y11919D01*
X15680Y11599D01*
X16918D01*
X18113Y11919D01*
X19185Y12538D01*
X20060Y13413D01*
X20679Y14485D01*
X20999Y15680D01*
Y16918D01*
X20679Y18113D01*
X20060Y19185D01*
X19185Y20060D01*
X18113Y20679D01*
X16918Y20999D01*
D02*
G37*
G36*
X6918D02*
X5680D01*
X4485Y20679D01*
X3413Y20060D01*
X2538Y19185D01*
X1919Y18113D01*
X1599Y16918D01*
Y15680D01*
X1919Y14485D01*
X2538Y13413D01*
X3413Y12538D01*
X4485Y11919D01*
X5680Y11599D01*
X6918D01*
X8113Y11919D01*
X9185Y12538D01*
X10060Y13413D01*
X10679Y14485D01*
X10999Y15680D01*
Y16918D01*
X10679Y18113D01*
X10060Y19185D01*
X9185Y20060D01*
X8113Y20679D01*
X6918Y20999D01*
D02*
G37*
G36*
X81465Y11153D02*
X80988D01*
X80546Y10971D01*
X80209Y10633D01*
X80026Y10192D01*
Y9715D01*
X80209Y9274D01*
X80546Y8936D01*
X80988Y8754D01*
X81465D01*
X81906Y8936D01*
X82244Y9274D01*
X82426Y9715D01*
Y10192D01*
X82244Y10633D01*
X81906Y10971D01*
X81465Y11153D01*
D02*
G37*
G36*
X52527Y10450D02*
X52169D01*
X51838Y10313D01*
X51585Y10060D01*
X51448Y9729D01*
Y9371D01*
X51585Y9040D01*
X51838Y8787D01*
X52169Y8650D01*
X52527D01*
X52858Y8787D01*
X53111Y9040D01*
X53248Y9371D01*
Y9729D01*
X53111Y10060D01*
X52858Y10313D01*
X52527Y10450D01*
D02*
G37*
G36*
X134477Y10999D02*
X134358D01*
Y6799D01*
X138558D01*
Y6918D01*
X138238Y8113D01*
X137619Y9185D01*
X136744Y10060D01*
X135672Y10679D01*
X134477Y10999D01*
D02*
G37*
G36*
X16918D02*
X16799D01*
Y6799D01*
X20999D01*
Y6918D01*
X20679Y8113D01*
X20060Y9185D01*
X19185Y10060D01*
X18113Y10679D01*
X16918Y10999D01*
D02*
G37*
G36*
X15799D02*
X15680D01*
X14485Y10679D01*
X13413Y10060D01*
X12538Y9185D01*
X11919Y8113D01*
X11599Y6918D01*
Y6799D01*
X15799D01*
Y10999D01*
D02*
G37*
G36*
X133358D02*
X133239D01*
X132044Y10679D01*
X130972Y10060D01*
X130097Y9185D01*
X129478Y8113D01*
X129158Y6918D01*
Y6799D01*
X133358D01*
Y10999D01*
D02*
G37*
G36*
X120945Y15986D02*
X120170Y15884D01*
X119448Y15585D01*
X118828Y15109D01*
X118352Y14489D01*
X118053Y13767D01*
X117951Y12992D01*
Y9055D01*
X118053Y8280D01*
X118352Y7558D01*
X118828Y6938D01*
X119448Y6462D01*
X120170Y6163D01*
X120945Y6061D01*
X121720Y6163D01*
X122442Y6462D01*
X123062Y6938D01*
X123538Y7558D01*
X123837Y8280D01*
X123939Y9055D01*
Y12992D01*
X123837Y13767D01*
X123538Y14489D01*
X123062Y15109D01*
X122442Y15585D01*
X121720Y15884D01*
X120945Y15986D01*
D02*
G37*
G36*
X86929D02*
X86154Y15884D01*
X85432Y15585D01*
X84812Y15109D01*
X84336Y14489D01*
X84037Y13767D01*
X83935Y12992D01*
Y9055D01*
X84037Y8280D01*
X84336Y7558D01*
X84812Y6938D01*
X85432Y6462D01*
X86154Y6163D01*
X86929Y6061D01*
X87704Y6163D01*
X88426Y6462D01*
X89046Y6938D01*
X89522Y7558D01*
X89821Y8280D01*
X89923Y9055D01*
Y12992D01*
X89821Y13767D01*
X89522Y14489D01*
X89046Y15109D01*
X88426Y15585D01*
X87704Y15884D01*
X86929Y15986D01*
D02*
G37*
G36*
X48211Y6314D02*
X47853D01*
X47522Y6177D01*
X47269Y5924D01*
X47132Y5593D01*
Y5235D01*
X47269Y4904D01*
X47522Y4651D01*
X47853Y4514D01*
X48211D01*
X48542Y4651D01*
X48582Y4691D01*
X49138Y4636D01*
X49173Y4609D01*
X49400Y4382D01*
X49730Y4245D01*
X50088D01*
X50419Y4382D01*
X50672Y4635D01*
X50809Y4966D01*
Y5324D01*
X50672Y5655D01*
X50419Y5908D01*
X50088Y6045D01*
X49730D01*
X49400Y5908D01*
X49359Y5868D01*
X48803Y5923D01*
X48769Y5950D01*
X48542Y6177D01*
X48211Y6314D01*
D02*
G37*
G36*
X37306Y6914D02*
X36710D01*
X36158Y6685D01*
X35736Y6264D01*
X35508Y5712D01*
Y5116D01*
X35736Y4564D01*
X36158Y4142D01*
X36710Y3914D01*
X37306D01*
X37858Y4142D01*
X38280Y4564D01*
X38508Y5116D01*
Y5712D01*
X38280Y6264D01*
X37858Y6685D01*
X37306Y6914D01*
D02*
G37*
G36*
X138558Y5799D02*
X134358D01*
Y1599D01*
X134477D01*
X135672Y1919D01*
X136744Y2538D01*
X137619Y3413D01*
X138238Y4485D01*
X138558Y5680D01*
Y5799D01*
D02*
G37*
G36*
X133358D02*
X129158D01*
Y5680D01*
X129478Y4485D01*
X130097Y3413D01*
X130972Y2538D01*
X132044Y1919D01*
X133239Y1599D01*
X133358D01*
Y5799D01*
D02*
G37*
G36*
X20999D02*
X16799D01*
Y1599D01*
X16918D01*
X18113Y1919D01*
X19185Y2538D01*
X20060Y3413D01*
X20679Y4485D01*
X20999Y5680D01*
Y5799D01*
D02*
G37*
G36*
X15799D02*
X11599D01*
Y5680D01*
X11919Y4485D01*
X12538Y3413D01*
X13413Y2538D01*
X14485Y1919D01*
X15680Y1599D01*
X15799D01*
Y5799D01*
D02*
G37*
G36*
X6918Y10999D02*
X5680D01*
X4485Y10679D01*
X3413Y10060D01*
X2538Y9185D01*
X1919Y8113D01*
X1599Y6918D01*
Y5680D01*
X1919Y4485D01*
X2538Y3413D01*
X3413Y2538D01*
X4485Y1919D01*
X5680Y1599D01*
X6918D01*
X8113Y1919D01*
X9185Y2538D01*
X10060Y3413D01*
X10679Y4485D01*
X10999Y5680D01*
Y6918D01*
X10679Y8113D01*
X10060Y9185D01*
X9185Y10060D01*
X8113Y10679D01*
X6918Y10999D01*
D02*
G37*
%LPD*%
D109*
X43307Y25197D02*
D03*
D115*
X16299Y6299D02*
D03*
X133858D02*
D03*
D117*
X121457Y133465D02*
D03*
X112992Y160335D02*
D03*
X26181Y157087D02*
D03*
X33465Y148524D02*
D03*
X25689Y138681D02*
D03*
X77165Y161024D02*
D03*
X61221Y159350D02*
D03*
X65945Y161614D02*
D03*
X69980Y46654D02*
D03*
X39469Y56988D02*
D03*
X39975Y52923D02*
D03*
X37205Y52362D02*
D03*
X87459Y82612D02*
D03*
X15439Y115930D02*
D03*
X19488Y114961D02*
D03*
X91142Y159449D02*
D03*
Y162205D02*
D03*
X49016Y158760D02*
D03*
Y162894D02*
D03*
X101647Y165720D02*
D03*
X104626Y169783D02*
D03*
X93209Y165059D02*
D03*
X96693Y156595D02*
D03*
Y159416D02*
D03*
Y162238D02*
D03*
X94921Y165059D02*
D03*
X96693Y165059D02*
D03*
X43307D02*
D03*
X48130Y165059D02*
D03*
X45079D02*
D03*
X43307Y162238D02*
D03*
Y159416D02*
D03*
Y156595D02*
D03*
X43097Y146001D02*
D03*
X43110Y142421D02*
D03*
X69021Y156463D02*
D03*
X86516Y162697D02*
D03*
X83366D02*
D03*
X78740Y162598D02*
D03*
X68996Y162697D02*
D03*
X53051D02*
D03*
X59055D02*
D03*
X73228Y144783D02*
D03*
X72393Y138331D02*
D03*
X25197Y60433D02*
D03*
X100207Y42132D02*
D03*
X87697Y87402D02*
D03*
X83858Y108563D02*
D03*
X94477Y125695D02*
D03*
X88021Y117824D02*
D03*
X95768Y109096D02*
D03*
D118*
X53150Y145669D02*
D03*
X75412Y32876D02*
D03*
X78642Y32874D02*
D03*
X33563Y132677D02*
D03*
X119685Y40157D02*
D03*
X15748Y133071D02*
D03*
D119*
X119193Y55709D02*
D03*
X101279Y55807D02*
D03*
X61137Y156429D02*
D03*
X83231Y149058D02*
D03*
X73183Y56608D02*
D03*
X73228Y63780D02*
D03*
X33366Y98442D02*
D03*
Y100017D02*
D03*
Y104741D02*
D03*
Y103167D02*
D03*
Y101592D02*
D03*
X29134Y96850D02*
D03*
Y103150D02*
D03*
Y101575D02*
D03*
Y104724D02*
D03*
Y98425D02*
D03*
Y100000D02*
D03*
X18110Y103150D02*
D03*
Y101575D02*
D03*
Y98425D02*
D03*
Y100000D02*
D03*
X33957Y95276D02*
D03*
X33366Y96867D02*
D03*
X33957Y88976D02*
D03*
Y87402D02*
D03*
Y93701D02*
D03*
X27559Y96850D02*
D03*
Y90354D02*
D03*
X25984D02*
D03*
X29134D02*
D03*
X24409Y96850D02*
D03*
X25984D02*
D03*
X22835D02*
D03*
X24409Y90354D02*
D03*
X22835D02*
D03*
X21260Y96850D02*
D03*
Y90354D02*
D03*
X19685Y96850D02*
D03*
X18110Y87402D02*
D03*
Y85827D02*
D03*
Y82677D02*
D03*
Y84252D02*
D03*
X19685Y90354D02*
D03*
X33957Y90551D02*
D03*
Y92126D02*
D03*
D120*
X47354Y18597D02*
D03*
X77427Y5913D02*
D03*
X56061Y9998D02*
D03*
X63189Y5217D02*
D03*
D122*
X28937Y4232D02*
D03*
X63779Y22539D02*
D03*
X63765Y24694D02*
D03*
X136636Y89274D02*
D03*
X138091Y132480D02*
D03*
X134050Y115497D02*
D03*
X89854Y39916D02*
D03*
X93961Y72417D02*
D03*
X100798Y150013D02*
D03*
X118898Y84252D02*
D03*
X37008Y170866D02*
D03*
X8661Y126772D02*
D03*
D123*
X46977Y126635D02*
D03*
X73027Y124344D02*
D03*
X64040Y59613D02*
D03*
X58626Y93405D02*
D03*
X56340Y67197D02*
D03*
X64099Y54597D02*
D03*
X64075Y67225D02*
D03*
X47841Y91077D02*
D03*
X54502Y40446D02*
D03*
X47441Y111220D02*
D03*
X78014Y90716D02*
D03*
X75394Y90748D02*
D03*
X70473Y93307D02*
D03*
X80709Y124016D02*
D03*
X70473Y113779D02*
D03*
X60236Y100983D02*
D03*
X67914Y100983D02*
D03*
X80708Y108662D02*
D03*
X57677Y124015D02*
D03*
X50000Y116338D02*
D03*
Y100984D02*
D03*
X83267Y90748D02*
D03*
X80708D02*
D03*
Y93307D02*
D03*
Y100984D02*
D03*
X73031Y103543D02*
D03*
X73036Y113810D02*
D03*
X67913Y108661D02*
D03*
X65354Y108662D02*
D03*
X62795D02*
D03*
D124*
X65551Y43209D02*
D03*
X16619Y109368D02*
D03*
X80509Y74559D02*
D03*
X114961Y140551D02*
D03*
X108661Y135827D02*
D03*
X102362Y140551D02*
D03*
X114961Y131103D02*
D03*
X102362D02*
D03*
X114961Y113386D02*
D03*
X102362D02*
D03*
X108661Y108661D02*
D03*
X102362Y103937D02*
D03*
X114961D02*
D03*
X40945Y149606D02*
D03*
X39370Y136220D02*
D03*
X24016Y104331D02*
D03*
X20079D02*
D03*
D125*
X30168Y125704D02*
D03*
M02*
