G04*
G04 #@! TF.GenerationSoftware,Altium Limited,Altium Designer,21.7.2 (23)*
G04*
G04 Layer_Color=65535*
%FSLAX25Y25*%
%MOIN*%
G70*
G04*
G04 #@! TF.SameCoordinates,792C483E-89C0-4906-A524-1A3F29707EC7*
G04*
G04*
G04 #@! TF.FilePolarity,Positive*
G04*
G01*
G75*
%ADD10C,0.00500*%
%ADD11C,0.01000*%
%ADD12C,0.00787*%
%ADD13C,0.00591*%
%ADD14C,0.01968*%
%ADD15C,0.00787*%
%ADD16C,0.00394*%
%ADD17C,0.00800*%
%ADD18C,0.00600*%
%ADD19C,0.00544*%
%ADD20C,0.00510*%
G36*
X36955Y86641D02*
X37655D01*
Y86541D01*
X37756D01*
Y86440D01*
Y86340D01*
Y86241D01*
Y86141D01*
Y86041D01*
Y85940D01*
Y85840D01*
Y85741D01*
Y85641D01*
Y85540D01*
Y85440D01*
Y85340D01*
Y85241D01*
Y85141D01*
Y85040D01*
Y84940D01*
Y84841D01*
Y84741D01*
Y84641D01*
Y84540D01*
Y84440D01*
Y84341D01*
Y84241D01*
Y84140D01*
Y84040D01*
Y83941D01*
Y83841D01*
Y83741D01*
Y83640D01*
Y83540D01*
Y83441D01*
Y83341D01*
Y83240D01*
Y83140D01*
Y83040D01*
X37655D01*
Y83140D01*
X37556D01*
Y83240D01*
X37356D01*
Y83341D01*
X37156D01*
Y83441D01*
X36955D01*
Y83540D01*
X36856D01*
Y83640D01*
X36656D01*
Y83741D01*
X36456D01*
Y83841D01*
X36356D01*
Y83941D01*
X36156D01*
Y84040D01*
X35956D01*
Y84140D01*
X35756D01*
Y84241D01*
X35656D01*
Y84341D01*
X35456D01*
Y84440D01*
X35256D01*
Y84540D01*
X35056D01*
Y84641D01*
X34955D01*
Y84741D01*
X34756D01*
Y84841D01*
X34556D01*
Y84940D01*
X34455D01*
Y85040D01*
X34255D01*
Y85141D01*
X34056D01*
Y85241D01*
X33856D01*
Y85340D01*
X33755D01*
Y85440D01*
X33555D01*
Y85540D01*
X33356D01*
Y85641D01*
X33456D01*
Y85741D01*
X33555D01*
Y85840D01*
X33755D01*
Y85940D01*
X33856D01*
Y86041D01*
X34056D01*
Y86141D01*
X34255D01*
Y86241D01*
X34455D01*
Y86340D01*
X34756D01*
Y86440D01*
X35056D01*
Y86541D01*
X35456D01*
Y86641D01*
X36156D01*
Y86740D01*
X36955D01*
Y86641D01*
D02*
G37*
G36*
X8772Y84584D02*
X6549Y82361D01*
X6049Y82361D01*
X3827Y84584D01*
X4019Y85046D01*
X8580D01*
X8772Y84584D01*
D02*
G37*
G36*
X55955Y81840D02*
X56156D01*
Y81740D01*
X56356D01*
Y81640D01*
X56455D01*
Y81541D01*
X56555D01*
Y81441D01*
Y81340D01*
X56656D01*
Y81240D01*
Y81141D01*
Y81041D01*
X56756D01*
Y80941D01*
Y80840D01*
Y80740D01*
Y80641D01*
Y80541D01*
Y80440D01*
Y80340D01*
Y80240D01*
X56656D01*
Y80141D01*
Y80041D01*
Y79940D01*
Y79840D01*
Y79741D01*
Y79641D01*
Y79540D01*
Y79440D01*
Y79340D01*
Y79241D01*
Y79141D01*
Y79040D01*
Y78940D01*
Y78841D01*
Y78741D01*
Y78641D01*
Y78540D01*
Y78440D01*
Y78341D01*
Y78241D01*
Y78140D01*
Y78040D01*
X55155D01*
Y78140D01*
Y78241D01*
Y78341D01*
Y78440D01*
Y78540D01*
Y78641D01*
Y78741D01*
Y78841D01*
Y78940D01*
Y79040D01*
Y79141D01*
Y79241D01*
Y79340D01*
Y79440D01*
Y79540D01*
Y79641D01*
Y79741D01*
Y79840D01*
X55256D01*
Y79940D01*
Y80041D01*
Y80141D01*
X55155D01*
Y80240D01*
Y80340D01*
Y80440D01*
Y80541D01*
X55055D01*
Y80641D01*
X54956D01*
Y80740D01*
X54255D01*
Y80641D01*
X54155D01*
Y80541D01*
X54056D01*
Y80440D01*
X53956D01*
Y80340D01*
Y80240D01*
X53856D01*
Y80141D01*
Y80041D01*
Y79940D01*
Y79840D01*
X53755D01*
Y79741D01*
Y79641D01*
Y79540D01*
Y79440D01*
Y79340D01*
Y79241D01*
Y79141D01*
Y79040D01*
Y78940D01*
Y78841D01*
Y78741D01*
Y78641D01*
Y78540D01*
Y78440D01*
Y78341D01*
X53655D01*
Y78241D01*
Y78140D01*
Y78040D01*
X52156D01*
Y78140D01*
Y78241D01*
Y78341D01*
Y78440D01*
X52255D01*
Y78540D01*
Y78641D01*
Y78741D01*
Y78841D01*
Y78940D01*
Y79040D01*
Y79141D01*
Y79241D01*
Y79340D01*
Y79440D01*
Y79540D01*
X52355D01*
Y79641D01*
Y79741D01*
Y79840D01*
Y79940D01*
Y80041D01*
Y80141D01*
Y80240D01*
Y80340D01*
Y80440D01*
Y80541D01*
Y80641D01*
Y80740D01*
Y80840D01*
Y80941D01*
Y81041D01*
Y81141D01*
Y81240D01*
Y81340D01*
Y81441D01*
Y81541D01*
Y81640D01*
Y81740D01*
Y81840D01*
X53856D01*
Y81740D01*
Y81640D01*
Y81541D01*
Y81441D01*
X53956D01*
Y81541D01*
X54056D01*
Y81640D01*
X54155D01*
Y81740D01*
X54356D01*
Y81840D01*
X54655D01*
Y81941D01*
X55955D01*
Y81840D01*
D02*
G37*
G36*
X38555Y86241D02*
X38756D01*
Y86141D01*
X38956D01*
Y86041D01*
X39156D01*
Y85940D01*
X39355D01*
Y85840D01*
X39456D01*
Y85741D01*
X39656D01*
Y85641D01*
X39755D01*
Y85540D01*
X39856D01*
Y85440D01*
X39955D01*
Y85340D01*
X40056D01*
Y85241D01*
X40156D01*
Y85141D01*
X40255D01*
Y85040D01*
X40356D01*
Y84940D01*
X40455D01*
Y84841D01*
X40556D01*
Y84741D01*
X40655D01*
Y84641D01*
X40756D01*
Y84540D01*
Y84440D01*
X40856D01*
Y84341D01*
X40955D01*
Y84241D01*
Y84140D01*
X41056D01*
Y84040D01*
Y83941D01*
X41155D01*
Y83841D01*
Y83741D01*
X41256D01*
Y83640D01*
Y83540D01*
X41355D01*
Y83441D01*
Y83341D01*
Y83240D01*
X41456D01*
Y83140D01*
Y83040D01*
Y82941D01*
Y82841D01*
X41256D01*
Y82740D01*
X41056D01*
Y82640D01*
X40955D01*
Y82541D01*
X40756D01*
Y82441D01*
X40556D01*
Y82341D01*
X40455D01*
Y82240D01*
X40255D01*
Y82140D01*
X40056D01*
Y82041D01*
X39856D01*
Y81941D01*
X39755D01*
Y81840D01*
X39555D01*
Y81740D01*
X39355D01*
Y81640D01*
X39156D01*
Y81541D01*
X39055D01*
Y81441D01*
X38855D01*
Y81340D01*
X38655D01*
Y81240D01*
X38555D01*
Y81141D01*
X38456D01*
Y81240D01*
Y81340D01*
Y81441D01*
Y81541D01*
Y81640D01*
Y81740D01*
Y81840D01*
Y81941D01*
Y82041D01*
Y82140D01*
Y82240D01*
Y82341D01*
Y82441D01*
Y82541D01*
Y82640D01*
Y82740D01*
Y82841D01*
Y82941D01*
Y83040D01*
Y83140D01*
Y83240D01*
Y83341D01*
Y83441D01*
Y83540D01*
Y83640D01*
Y83741D01*
Y83841D01*
Y83941D01*
Y84040D01*
Y84140D01*
Y84241D01*
Y84341D01*
Y84440D01*
Y84540D01*
Y84641D01*
Y84741D01*
Y84841D01*
Y84940D01*
Y85040D01*
Y85141D01*
Y85241D01*
Y85340D01*
Y85440D01*
Y85540D01*
Y85641D01*
Y85741D01*
Y85840D01*
Y85940D01*
Y86041D01*
Y86141D01*
Y86241D01*
Y86340D01*
X38555D01*
Y86241D01*
D02*
G37*
G36*
X32855Y85040D02*
X33055D01*
Y84940D01*
X33156D01*
Y84841D01*
X33356D01*
Y84741D01*
X33555D01*
Y84641D01*
X33755D01*
Y84540D01*
X33856D01*
Y84440D01*
X34056D01*
Y84341D01*
X34255D01*
Y84241D01*
X34356D01*
Y84140D01*
X34556D01*
Y84040D01*
X34756D01*
Y83941D01*
X34955D01*
Y83841D01*
X35056D01*
Y83741D01*
X35256D01*
Y83640D01*
X35456D01*
Y83540D01*
X35555D01*
Y83441D01*
X35756D01*
Y83341D01*
Y83240D01*
X35555D01*
Y83140D01*
X35355D01*
Y83040D01*
X35155D01*
Y82941D01*
X35056D01*
Y82841D01*
X34855D01*
Y82740D01*
X34655D01*
Y82640D01*
X34455D01*
Y82541D01*
X34356D01*
Y82441D01*
X34155D01*
Y82341D01*
X33955D01*
Y82240D01*
X33856D01*
Y82140D01*
X33656D01*
Y82041D01*
X33456D01*
Y81941D01*
X33255D01*
Y81840D01*
X33156D01*
Y81740D01*
X32956D01*
Y81640D01*
X32756D01*
Y81541D01*
X32555D01*
Y81441D01*
X32456D01*
Y81340D01*
X32256D01*
Y81240D01*
X32056D01*
Y81141D01*
X31956D01*
Y81041D01*
X31756D01*
Y80941D01*
X31556D01*
Y80840D01*
X31356D01*
Y80941D01*
Y81041D01*
Y81141D01*
Y81240D01*
Y81340D01*
Y81441D01*
Y81541D01*
Y81640D01*
Y81740D01*
Y81840D01*
Y81941D01*
Y82041D01*
Y82140D01*
Y82240D01*
Y82341D01*
Y82441D01*
X31455D01*
Y82541D01*
Y82640D01*
Y82740D01*
Y82841D01*
X31556D01*
Y82941D01*
Y83040D01*
Y83140D01*
X31655D01*
Y83240D01*
Y83341D01*
Y83441D01*
X31756D01*
Y83540D01*
Y83640D01*
X31855D01*
Y83741D01*
Y83841D01*
X31956D01*
Y83941D01*
Y84040D01*
X32056D01*
Y84140D01*
Y84241D01*
X32155D01*
Y84341D01*
Y84440D01*
X32256D01*
Y84540D01*
X32355D01*
Y84641D01*
X32456D01*
Y84741D01*
Y84841D01*
X32555D01*
Y84940D01*
X32656D01*
Y85040D01*
X32756D01*
Y85141D01*
X32855D01*
Y85040D01*
D02*
G37*
G36*
X63855Y83040D02*
X63756D01*
Y82941D01*
Y82841D01*
Y82740D01*
Y82640D01*
Y82541D01*
Y82441D01*
Y82341D01*
Y82240D01*
Y82140D01*
Y82041D01*
Y81941D01*
Y81840D01*
Y81740D01*
Y81640D01*
Y81541D01*
Y81441D01*
Y81340D01*
Y81240D01*
Y81141D01*
Y81041D01*
Y80941D01*
Y80840D01*
Y80740D01*
Y80641D01*
Y80541D01*
Y80440D01*
Y80340D01*
X63656D01*
Y80240D01*
Y80141D01*
Y80041D01*
Y79940D01*
Y79840D01*
Y79741D01*
Y79641D01*
Y79540D01*
Y79440D01*
Y79340D01*
Y79241D01*
Y79141D01*
Y79040D01*
Y78940D01*
Y78841D01*
Y78741D01*
Y78641D01*
Y78540D01*
Y78440D01*
Y78341D01*
Y78241D01*
Y78140D01*
Y78040D01*
X62256D01*
Y78140D01*
Y78241D01*
X62356D01*
Y78341D01*
Y78440D01*
Y78540D01*
Y78641D01*
Y78741D01*
Y78841D01*
Y78940D01*
Y79040D01*
Y79141D01*
Y79241D01*
Y79340D01*
Y79440D01*
Y79540D01*
Y79641D01*
Y79741D01*
Y79840D01*
Y79940D01*
Y80041D01*
Y80141D01*
Y80240D01*
Y80340D01*
Y80440D01*
Y80541D01*
Y80641D01*
Y80740D01*
Y80840D01*
Y80941D01*
Y81041D01*
Y81141D01*
X62455D01*
Y81240D01*
Y81340D01*
Y81441D01*
X62256D01*
Y81340D01*
Y81240D01*
Y81141D01*
X62155D01*
Y81041D01*
Y80941D01*
Y80840D01*
X62055D01*
Y80740D01*
Y80641D01*
Y80541D01*
X61955D01*
Y80440D01*
Y80340D01*
Y80240D01*
X61856D01*
Y80141D01*
Y80041D01*
Y79940D01*
X61756D01*
Y79840D01*
Y79741D01*
Y79641D01*
X61655D01*
Y79540D01*
Y79440D01*
Y79340D01*
X61555D01*
Y79241D01*
Y79141D01*
Y79040D01*
X61456D01*
Y78940D01*
Y78841D01*
Y78741D01*
X61356D01*
Y78641D01*
Y78540D01*
Y78440D01*
X61256D01*
Y78341D01*
Y78241D01*
Y78140D01*
X61155D01*
Y78040D01*
X59755D01*
Y78140D01*
Y78241D01*
Y78341D01*
Y78440D01*
Y78540D01*
X59655D01*
Y78641D01*
Y78741D01*
Y78841D01*
Y78940D01*
X59556D01*
Y79040D01*
Y79141D01*
Y79241D01*
Y79340D01*
X59456D01*
Y79440D01*
Y79540D01*
Y79641D01*
Y79741D01*
Y79840D01*
X59355D01*
Y79940D01*
Y80041D01*
Y80141D01*
Y80240D01*
X59255D01*
Y80340D01*
Y80440D01*
Y80541D01*
Y80641D01*
X59155D01*
Y80740D01*
Y80840D01*
Y80941D01*
Y81041D01*
X59056D01*
Y81141D01*
Y81240D01*
Y81340D01*
Y81441D01*
Y81541D01*
X58956D01*
Y81441D01*
Y81340D01*
Y81240D01*
Y81141D01*
X58855D01*
Y81041D01*
Y80941D01*
Y80840D01*
Y80740D01*
Y80641D01*
Y80541D01*
Y80440D01*
Y80340D01*
Y80240D01*
Y80141D01*
Y80041D01*
Y79940D01*
Y79840D01*
Y79741D01*
X58755D01*
Y79641D01*
Y79540D01*
Y79440D01*
Y79340D01*
Y79241D01*
Y79141D01*
Y79040D01*
Y78940D01*
Y78841D01*
Y78741D01*
Y78641D01*
Y78540D01*
Y78440D01*
Y78341D01*
Y78241D01*
Y78140D01*
Y78040D01*
X57455D01*
Y78140D01*
Y78241D01*
Y78341D01*
Y78440D01*
Y78540D01*
Y78641D01*
Y78741D01*
Y78841D01*
Y78940D01*
X57556D01*
Y79040D01*
Y79141D01*
Y79241D01*
Y79340D01*
Y79440D01*
Y79540D01*
Y79641D01*
Y79741D01*
Y79840D01*
Y79940D01*
Y80041D01*
X57656D01*
Y80141D01*
Y80240D01*
Y80340D01*
Y80440D01*
Y80541D01*
Y80641D01*
Y80740D01*
Y80840D01*
Y80941D01*
Y81041D01*
Y81141D01*
X57756D01*
Y81240D01*
Y81340D01*
Y81441D01*
Y81541D01*
Y81640D01*
Y81740D01*
Y81840D01*
Y81941D01*
Y82041D01*
Y82140D01*
Y82240D01*
Y82341D01*
Y82441D01*
Y82541D01*
Y82640D01*
X57855D01*
Y82740D01*
Y82841D01*
Y82941D01*
Y83040D01*
Y83140D01*
X59956D01*
Y83040D01*
Y82941D01*
Y82841D01*
Y82740D01*
X60056D01*
Y82640D01*
Y82541D01*
Y82441D01*
Y82341D01*
X60155D01*
Y82240D01*
Y82140D01*
Y82041D01*
Y81941D01*
X60255D01*
Y81840D01*
Y81740D01*
Y81640D01*
Y81541D01*
X60356D01*
Y81441D01*
Y81340D01*
Y81240D01*
Y81141D01*
X60456D01*
Y81041D01*
Y80941D01*
Y80840D01*
Y80740D01*
Y80641D01*
X60555D01*
Y80541D01*
Y80440D01*
Y80340D01*
Y80240D01*
Y80141D01*
X60755D01*
Y80240D01*
Y80340D01*
Y80440D01*
Y80541D01*
X60856D01*
Y80641D01*
Y80740D01*
Y80840D01*
X60956D01*
Y80941D01*
Y81041D01*
Y81141D01*
X61055D01*
Y81240D01*
Y81340D01*
Y81441D01*
X61155D01*
Y81541D01*
Y81640D01*
Y81740D01*
X61256D01*
Y81840D01*
Y81941D01*
Y82041D01*
X61356D01*
Y82140D01*
Y82240D01*
X61456D01*
Y82341D01*
Y82441D01*
Y82541D01*
X61555D01*
Y82640D01*
Y82740D01*
Y82841D01*
X61655D01*
Y82941D01*
Y83040D01*
Y83140D01*
X63855D01*
Y83040D01*
D02*
G37*
G36*
X70355D02*
X70256D01*
Y82941D01*
Y82841D01*
X70156D01*
Y82740D01*
Y82640D01*
X70056D01*
Y82541D01*
Y82441D01*
X69955D01*
Y82341D01*
Y82240D01*
X69855D01*
Y82140D01*
Y82041D01*
X69756D01*
Y81941D01*
Y81840D01*
X69656D01*
Y81740D01*
Y81640D01*
X69555D01*
Y81541D01*
Y81441D01*
X69455D01*
Y81340D01*
Y81240D01*
X69355D01*
Y81141D01*
Y81041D01*
X69256D01*
Y80941D01*
Y80840D01*
X69156D01*
Y80740D01*
Y80641D01*
X69055D01*
Y80541D01*
Y80440D01*
X68955D01*
Y80340D01*
Y80240D01*
X68856D01*
Y80141D01*
Y80041D01*
X68756D01*
Y79940D01*
Y79840D01*
X68656D01*
Y79741D01*
Y79641D01*
X68555D01*
Y79540D01*
Y79440D01*
X68455D01*
Y79340D01*
Y79241D01*
X68356D01*
Y79141D01*
Y79040D01*
X68256D01*
Y78940D01*
Y78841D01*
X68155D01*
Y78741D01*
Y78641D01*
X68055D01*
Y78540D01*
Y78440D01*
X67955D01*
Y78341D01*
Y78241D01*
X67856D01*
Y78140D01*
Y78040D01*
X65956D01*
Y78140D01*
Y78241D01*
X65855D01*
Y78341D01*
Y78440D01*
Y78540D01*
X65755D01*
Y78641D01*
Y78741D01*
Y78841D01*
X65655D01*
Y78940D01*
Y79040D01*
Y79141D01*
X65556D01*
Y79241D01*
Y79340D01*
Y79440D01*
X65456D01*
Y79540D01*
Y79641D01*
Y79741D01*
X65355D01*
Y79840D01*
Y79940D01*
Y80041D01*
X65255D01*
Y80141D01*
Y80240D01*
X65156D01*
Y80340D01*
Y80440D01*
Y80541D01*
X65056D01*
Y80641D01*
Y80740D01*
Y80840D01*
X64956D01*
Y80941D01*
Y81041D01*
Y81141D01*
X64855D01*
Y81240D01*
Y81340D01*
Y81441D01*
X64755D01*
Y81541D01*
Y81640D01*
Y81740D01*
X64656D01*
Y81840D01*
Y81941D01*
Y82041D01*
X64556D01*
Y82140D01*
Y82240D01*
X64455D01*
Y82341D01*
Y82441D01*
Y82541D01*
X64355D01*
Y82640D01*
Y82740D01*
Y82841D01*
X64255D01*
Y82941D01*
Y83040D01*
Y83140D01*
X65855D01*
Y83040D01*
Y82941D01*
X65956D01*
Y82841D01*
Y82740D01*
Y82640D01*
X66056D01*
Y82541D01*
Y82441D01*
Y82341D01*
Y82240D01*
X66155D01*
Y82140D01*
Y82041D01*
Y81941D01*
X66255D01*
Y81840D01*
Y81740D01*
Y81640D01*
X66356D01*
Y81541D01*
Y81441D01*
Y81340D01*
X66456D01*
Y81240D01*
Y81141D01*
Y81041D01*
X66556D01*
Y80941D01*
Y80840D01*
Y80740D01*
Y80641D01*
X66655D01*
Y80541D01*
Y80440D01*
Y80340D01*
X66755D01*
Y80240D01*
Y80141D01*
Y80041D01*
X66856D01*
Y79940D01*
Y79840D01*
Y79741D01*
Y79641D01*
X66956D01*
Y79540D01*
Y79440D01*
Y79340D01*
X67055D01*
Y79440D01*
Y79540D01*
X67155D01*
Y79641D01*
Y79741D01*
Y79840D01*
X67256D01*
Y79940D01*
Y80041D01*
X67356D01*
Y80141D01*
Y80240D01*
X67456D01*
Y80340D01*
Y80440D01*
X67555D01*
Y80541D01*
Y80641D01*
Y80740D01*
X67655D01*
Y80840D01*
Y80941D01*
X67756D01*
Y81041D01*
Y81141D01*
X67856D01*
Y81240D01*
Y81340D01*
X67955D01*
Y81441D01*
Y81541D01*
X68055D01*
Y81640D01*
Y81740D01*
Y81840D01*
X68155D01*
Y81941D01*
Y82041D01*
X68256D01*
Y82140D01*
Y82240D01*
X68356D01*
Y82341D01*
Y82441D01*
X68455D01*
Y82541D01*
Y82640D01*
X68555D01*
Y82740D01*
Y82841D01*
Y82941D01*
X68656D01*
Y83040D01*
Y83140D01*
X70355D01*
Y83040D01*
D02*
G37*
G36*
X50555Y81840D02*
X50756D01*
Y81740D01*
X50955D01*
Y81640D01*
X51156D01*
Y81541D01*
X51256D01*
Y81441D01*
X51355D01*
Y81340D01*
X51455D01*
Y81240D01*
Y81141D01*
X51556D01*
Y81041D01*
Y80941D01*
Y80840D01*
X51656D01*
Y80740D01*
Y80641D01*
Y80541D01*
Y80440D01*
Y80340D01*
Y80240D01*
Y80141D01*
Y80041D01*
Y79940D01*
Y79840D01*
X48956D01*
Y79741D01*
Y79641D01*
Y79540D01*
X49055D01*
Y79440D01*
Y79340D01*
Y79241D01*
X49156D01*
Y79141D01*
X49356D01*
Y79040D01*
X49556D01*
Y78940D01*
X50656D01*
Y79040D01*
X51056D01*
Y79141D01*
X51355D01*
Y79040D01*
Y78940D01*
X51256D01*
Y78841D01*
Y78741D01*
Y78641D01*
Y78540D01*
Y78440D01*
Y78341D01*
X51156D01*
Y78241D01*
Y78140D01*
Y78040D01*
X50656D01*
Y77940D01*
X49055D01*
Y78040D01*
X48656D01*
Y78140D01*
X48456D01*
Y78241D01*
X48256D01*
Y78341D01*
X48156D01*
Y78440D01*
X48055D01*
Y78540D01*
X47956D01*
Y78641D01*
X47855D01*
Y78741D01*
X47756D01*
Y78841D01*
Y78940D01*
X47655D01*
Y79040D01*
Y79141D01*
Y79241D01*
X47556D01*
Y79340D01*
Y79440D01*
Y79540D01*
Y79641D01*
Y79741D01*
Y79840D01*
Y79940D01*
Y80041D01*
Y80141D01*
Y80240D01*
Y80340D01*
Y80440D01*
X47655D01*
Y80541D01*
Y80641D01*
Y80740D01*
X47756D01*
Y80840D01*
Y80941D01*
X47855D01*
Y81041D01*
Y81141D01*
X47956D01*
Y81240D01*
X48055D01*
Y81340D01*
Y81441D01*
X48156D01*
Y81541D01*
X48355D01*
Y81640D01*
X48456D01*
Y81740D01*
X48656D01*
Y81840D01*
X48956D01*
Y81941D01*
X50555D01*
Y81840D01*
D02*
G37*
G36*
X45755D02*
X46055D01*
Y81740D01*
X46255D01*
Y81640D01*
X46356D01*
Y81541D01*
X46455D01*
Y81441D01*
X46556D01*
Y81340D01*
X46655D01*
Y81240D01*
X46755D01*
Y81141D01*
Y81041D01*
X46856D01*
Y80941D01*
Y80840D01*
X46955D01*
Y80740D01*
Y80641D01*
Y80541D01*
Y80440D01*
X47056D01*
Y80340D01*
Y80240D01*
Y80141D01*
Y80041D01*
Y79940D01*
Y79840D01*
Y79741D01*
Y79641D01*
Y79540D01*
Y79440D01*
X46955D01*
Y79340D01*
Y79241D01*
Y79141D01*
Y79040D01*
X46856D01*
Y78940D01*
Y78841D01*
X46755D01*
Y78741D01*
Y78641D01*
X46655D01*
Y78540D01*
X46556D01*
Y78440D01*
X46455D01*
Y78341D01*
X46356D01*
Y78241D01*
X46255D01*
Y78140D01*
X46055D01*
Y78040D01*
X45755D01*
Y77940D01*
X44956D01*
Y78040D01*
X44655D01*
Y78140D01*
X44355D01*
Y78241D01*
X44256D01*
Y78341D01*
X44056D01*
Y78241D01*
Y78140D01*
Y78040D01*
Y77940D01*
Y77841D01*
Y77741D01*
Y77640D01*
X43955D01*
Y77540D01*
Y77441D01*
Y77341D01*
Y77241D01*
Y77140D01*
Y77040D01*
Y76941D01*
Y76841D01*
Y76740D01*
Y76640D01*
Y76540D01*
Y76441D01*
Y76341D01*
Y76240D01*
X42456D01*
Y76341D01*
Y76441D01*
Y76540D01*
Y76640D01*
Y76740D01*
Y76841D01*
X42555D01*
Y76941D01*
Y77040D01*
Y77140D01*
Y77241D01*
Y77341D01*
Y77441D01*
Y77540D01*
Y77640D01*
Y77741D01*
Y77841D01*
Y77940D01*
Y78040D01*
Y78140D01*
Y78241D01*
Y78341D01*
X42656D01*
Y78440D01*
Y78540D01*
Y78641D01*
Y78741D01*
Y78841D01*
Y78940D01*
Y79040D01*
Y79141D01*
Y79241D01*
Y79340D01*
Y79440D01*
Y79540D01*
Y79641D01*
Y79741D01*
Y79840D01*
Y79940D01*
Y80041D01*
Y80141D01*
Y80240D01*
Y80340D01*
Y80440D01*
X42755D01*
Y80541D01*
Y80641D01*
Y80740D01*
Y80840D01*
Y80941D01*
Y81041D01*
Y81141D01*
Y81240D01*
Y81340D01*
Y81441D01*
Y81541D01*
Y81640D01*
Y81740D01*
Y81840D01*
X43455D01*
Y81941D01*
X45755D01*
Y81840D01*
D02*
G37*
G36*
X41655Y82041D02*
Y81941D01*
Y81840D01*
X41756D01*
Y81740D01*
Y81640D01*
Y81541D01*
Y81441D01*
Y81340D01*
Y81240D01*
X41655D01*
Y81141D01*
Y81041D01*
Y80941D01*
Y80840D01*
Y80740D01*
Y80641D01*
Y80541D01*
Y80440D01*
X41556D01*
Y80340D01*
Y80240D01*
Y80141D01*
Y80041D01*
X41456D01*
Y79940D01*
Y79840D01*
Y79741D01*
X41355D01*
Y79641D01*
Y79540D01*
Y79440D01*
X41256D01*
Y79340D01*
Y79241D01*
X41155D01*
Y79141D01*
Y79040D01*
X41056D01*
Y78940D01*
Y78841D01*
X40955D01*
Y78741D01*
X40856D01*
Y78641D01*
Y78540D01*
X40756D01*
Y78440D01*
X40655D01*
Y78341D01*
Y78241D01*
X40556D01*
Y78140D01*
X40455D01*
Y78040D01*
X40356D01*
Y77940D01*
X40056D01*
Y78040D01*
X39856D01*
Y78140D01*
X39755D01*
Y78241D01*
X39555D01*
Y78341D01*
X39355D01*
Y78440D01*
X39156D01*
Y78540D01*
X39055D01*
Y78641D01*
X38855D01*
Y78741D01*
X38655D01*
Y78841D01*
X38456D01*
Y78940D01*
X38355D01*
Y79040D01*
X38155D01*
Y79141D01*
X37955D01*
Y79241D01*
X37855D01*
Y79340D01*
X37655D01*
Y79440D01*
X37455D01*
Y79540D01*
X37255D01*
Y79641D01*
X37356D01*
Y79741D01*
X37455D01*
Y79840D01*
X37655D01*
Y79940D01*
X37855D01*
Y80041D01*
X37955D01*
Y80141D01*
X38155D01*
Y80240D01*
X38355D01*
Y80340D01*
X38555D01*
Y80440D01*
X38655D01*
Y80541D01*
X38855D01*
Y80641D01*
X39055D01*
Y80740D01*
X39156D01*
Y80840D01*
X39355D01*
Y80941D01*
X39555D01*
Y81041D01*
X39755D01*
Y81141D01*
X39856D01*
Y81240D01*
X40056D01*
Y81340D01*
X40255D01*
Y81441D01*
X40455D01*
Y81541D01*
X40556D01*
Y81640D01*
X40756D01*
Y81740D01*
X40955D01*
Y81840D01*
X41056D01*
Y81941D01*
X41256D01*
Y82041D01*
X41456D01*
Y82140D01*
X41655D01*
Y82041D01*
D02*
G37*
G36*
X34556Y81640D02*
Y81541D01*
Y81441D01*
Y81340D01*
Y81240D01*
Y81141D01*
Y81041D01*
Y80941D01*
Y80840D01*
Y80740D01*
Y80641D01*
Y80541D01*
Y80440D01*
Y80340D01*
Y80240D01*
Y80141D01*
Y80041D01*
Y79940D01*
Y79840D01*
Y79741D01*
Y79641D01*
Y79540D01*
Y79440D01*
Y79340D01*
Y79241D01*
Y79141D01*
Y79040D01*
Y78940D01*
Y78841D01*
Y78741D01*
Y78641D01*
Y78540D01*
Y78440D01*
Y78341D01*
Y78241D01*
Y78140D01*
Y78040D01*
Y77940D01*
Y77841D01*
Y77741D01*
Y77640D01*
Y77540D01*
Y77441D01*
Y77341D01*
Y77241D01*
Y77140D01*
Y77040D01*
Y76941D01*
Y76841D01*
Y76740D01*
Y76640D01*
X34455D01*
Y76740D01*
X34255D01*
Y76841D01*
X34056D01*
Y76941D01*
X33856D01*
Y77040D01*
X33755D01*
Y77140D01*
X33555D01*
Y77241D01*
X33456D01*
Y77341D01*
X33356D01*
Y77441D01*
X33156D01*
Y77540D01*
X33055D01*
Y77640D01*
X32956D01*
Y77741D01*
X32855D01*
Y77841D01*
X32756D01*
Y77940D01*
X32656D01*
Y78040D01*
X32555D01*
Y78140D01*
X32456D01*
Y78241D01*
Y78341D01*
X32355D01*
Y78440D01*
X32256D01*
Y78540D01*
X32155D01*
Y78641D01*
Y78741D01*
X32056D01*
Y78841D01*
Y78940D01*
X31956D01*
Y79040D01*
Y79141D01*
X31855D01*
Y79241D01*
Y79340D01*
X31756D01*
Y79440D01*
Y79540D01*
X31655D01*
Y79641D01*
Y79741D01*
X31556D01*
Y79840D01*
Y79940D01*
Y80041D01*
Y80141D01*
X31756D01*
Y80240D01*
X31956D01*
Y80340D01*
X32056D01*
Y80440D01*
X32256D01*
Y80541D01*
X32456D01*
Y80641D01*
X32656D01*
Y80740D01*
X32756D01*
Y80840D01*
X32956D01*
Y80941D01*
X33156D01*
Y81041D01*
X33356D01*
Y81141D01*
X33456D01*
Y81240D01*
X33656D01*
Y81340D01*
X33856D01*
Y81441D01*
X33955D01*
Y81541D01*
X34155D01*
Y81640D01*
X34356D01*
Y81740D01*
X34556D01*
Y81640D01*
D02*
G37*
G36*
X35355Y79840D02*
X35555D01*
Y79741D01*
X35756D01*
Y79641D01*
X35956D01*
Y79540D01*
X36055D01*
Y79440D01*
X36255D01*
Y79340D01*
X36456D01*
Y79241D01*
X36555D01*
Y79141D01*
X36755D01*
Y79040D01*
X36955D01*
Y78940D01*
X37156D01*
Y78841D01*
X37255D01*
Y78741D01*
X37455D01*
Y78641D01*
X37655D01*
Y78540D01*
X37756D01*
Y78440D01*
X37955D01*
Y78341D01*
X38155D01*
Y78241D01*
X38355D01*
Y78140D01*
X38456D01*
Y78040D01*
X38655D01*
Y77940D01*
X38855D01*
Y77841D01*
X39055D01*
Y77741D01*
X39156D01*
Y77640D01*
X39355D01*
Y77540D01*
X39555D01*
Y77441D01*
X39755D01*
Y77341D01*
X39656D01*
Y77241D01*
X39456D01*
Y77140D01*
X39355D01*
Y77040D01*
X39156D01*
Y76941D01*
X38956D01*
Y76841D01*
X38756D01*
Y76740D01*
X38555D01*
Y76640D01*
X38355D01*
Y76540D01*
X37955D01*
Y76441D01*
X37556D01*
Y76341D01*
X36755D01*
Y76240D01*
X36156D01*
Y76341D01*
X35355D01*
Y76441D01*
X35256D01*
Y76540D01*
Y76640D01*
Y76740D01*
Y76841D01*
Y76941D01*
Y77040D01*
Y77140D01*
Y77241D01*
Y77341D01*
Y77441D01*
Y77540D01*
Y77640D01*
Y77741D01*
Y77841D01*
Y77940D01*
Y78040D01*
Y78140D01*
Y78241D01*
Y78341D01*
Y78440D01*
Y78540D01*
Y78641D01*
Y78741D01*
Y78841D01*
Y78940D01*
Y79040D01*
Y79141D01*
Y79241D01*
Y79340D01*
Y79440D01*
Y79540D01*
Y79641D01*
Y79741D01*
Y79840D01*
Y79940D01*
X35355D01*
Y79840D01*
D02*
G37*
G36*
X44996Y30665D02*
X41791D01*
Y31112D01*
X44996D01*
Y30665D01*
D02*
G37*
G36*
X35744Y33590D02*
X35780Y33576D01*
X35816Y33549D01*
Y33544D01*
X35821Y33540D01*
X35830Y33526D01*
X35834Y33508D01*
X35843Y33486D01*
X35852Y33459D01*
X35857Y33427D01*
Y33386D01*
Y31813D01*
X37267D01*
X37285Y31809D01*
X37312D01*
X37367Y31795D01*
X37389Y31786D01*
X37412Y31773D01*
X37421Y31763D01*
X37434Y31741D01*
X37448Y31705D01*
X37457Y31655D01*
Y31651D01*
Y31642D01*
X37453Y31614D01*
X37439Y31578D01*
X37412Y31542D01*
X37407D01*
X37403Y31533D01*
X37389Y31528D01*
X37371Y31519D01*
X37348Y31510D01*
X37321Y31506D01*
X37290Y31497D01*
X35857D01*
Y29937D01*
Y29933D01*
Y29919D01*
X35852Y29897D01*
Y29874D01*
X35839Y29820D01*
X35830Y29797D01*
X35816Y29775D01*
Y29770D01*
X35807Y29766D01*
X35785Y29748D01*
X35748Y29734D01*
X35726Y29725D01*
X35685D01*
X35658Y29730D01*
X35622Y29748D01*
X35604Y29757D01*
X35586Y29775D01*
X35577Y29784D01*
X35572Y29797D01*
X35563Y29815D01*
X35554Y29838D01*
X35550Y29865D01*
X35541Y29897D01*
Y29937D01*
Y31497D01*
X34112D01*
X34090Y31501D01*
X34035Y31515D01*
X34013Y31528D01*
X33990Y31542D01*
X33986D01*
X33981Y31551D01*
X33963Y31574D01*
X33950Y31610D01*
X33940Y31632D01*
Y31655D01*
Y31659D01*
Y31669D01*
X33945Y31696D01*
X33963Y31736D01*
X33972Y31754D01*
X33990Y31773D01*
X33999Y31777D01*
X34013Y31786D01*
X34031Y31791D01*
X34053Y31800D01*
X34081Y31809D01*
X34112Y31813D01*
X35541D01*
Y33386D01*
Y33391D01*
Y33404D01*
Y33422D01*
X35545Y33450D01*
X35559Y33504D01*
X35572Y33526D01*
X35586Y33549D01*
X35595Y33558D01*
X35617Y33571D01*
X35653Y33585D01*
X35703Y33594D01*
X35712D01*
X35744Y33590D01*
D02*
G37*
%LPC*%
G36*
X49955Y81141D02*
X49556D01*
Y81041D01*
X49356D01*
Y80941D01*
X49255D01*
Y80840D01*
X49156D01*
Y80740D01*
X49055D01*
Y80641D01*
Y80541D01*
Y80440D01*
Y80340D01*
X50256D01*
Y80440D01*
Y80541D01*
Y80641D01*
Y80740D01*
Y80840D01*
X50156D01*
Y80941D01*
Y81041D01*
X49955D01*
Y81141D01*
D02*
G37*
G36*
X45055Y80941D02*
X44456D01*
Y80840D01*
X44155D01*
Y80740D01*
Y80641D01*
Y80541D01*
Y80440D01*
Y80340D01*
Y80240D01*
Y80141D01*
X44056D01*
Y80041D01*
Y79940D01*
Y79840D01*
X44155D01*
Y79741D01*
Y79641D01*
Y79540D01*
Y79440D01*
X44256D01*
Y79340D01*
Y79241D01*
X44355D01*
Y79141D01*
X44556D01*
Y79040D01*
X45156D01*
Y79141D01*
X45355D01*
Y79241D01*
Y79340D01*
X45456D01*
Y79440D01*
X45555D01*
Y79540D01*
Y79641D01*
Y79741D01*
Y79840D01*
Y79940D01*
Y80041D01*
Y80141D01*
Y80240D01*
Y80340D01*
Y80440D01*
Y80541D01*
X45456D01*
Y80641D01*
X45355D01*
Y80740D01*
X45256D01*
Y80840D01*
X45055D01*
Y80941D01*
D02*
G37*
%LPD*%
D10*
X86871Y127067D02*
G03*
X86871Y127067I-159J0D01*
G01*
X37206Y110236D02*
G03*
X37206Y110236I-592J0D01*
G01*
X66961Y20979D02*
G03*
X66961Y20979I-176J0D01*
G01*
X27652Y61088D02*
G03*
X27652Y61088I-235J0D01*
G01*
X89169Y150850D02*
G03*
X89169Y150850I-500J0D01*
G01*
X93504Y107559D02*
Y110551D01*
X87598Y107559D02*
Y110551D01*
X14665Y105610D02*
X34941D01*
Y132972D01*
X14665D02*
X34941D01*
X14665Y105610D02*
Y132972D01*
X97968Y98768D02*
Y117368D01*
X118568Y98768D02*
Y117368D01*
X45276Y60236D02*
Y62205D01*
X43307D02*
X45276D01*
X43307Y45669D02*
X45276D01*
Y47638D01*
X28740Y45669D02*
Y47638D01*
Y45669D02*
X30709D01*
X28740Y62205D02*
X30709D01*
X28740Y60236D02*
Y62205D01*
X12992Y118504D02*
Y119882D01*
X11614Y118504D02*
X12992D01*
X7480Y122638D02*
Y124016D01*
X8858D01*
X7480Y118504D02*
X8858D01*
X7480D02*
Y119882D01*
X12992Y122638D02*
Y124016D01*
X11614D02*
X12992D01*
X38189Y788D02*
Y12205D01*
X40551D01*
Y788D02*
Y12205D01*
X30709Y31103D02*
X31102D01*
Y26772D02*
Y31103D01*
X48031Y26772D02*
Y31103D01*
X27559D02*
X30709D01*
X48031D02*
X51181D01*
Y788D02*
Y31103D01*
X27559Y788D02*
Y31103D01*
Y788D02*
X51181D01*
X76279Y18307D02*
Y20669D01*
X83366Y18307D02*
Y20669D01*
X100393Y82618D02*
Y95079D01*
Y45079D02*
Y57540D01*
X120079Y82618D02*
Y95079D01*
Y45079D02*
Y57540D01*
X100393Y95079D02*
X120079D01*
X100393Y45079D02*
X120079D01*
X7481Y90551D02*
X12205D01*
X7481Y96851D02*
X12205D01*
X127165Y122638D02*
Y124016D01*
X128543D01*
X132677Y118504D02*
Y119882D01*
X131299Y118504D02*
X132677D01*
X131299Y124016D02*
X132677D01*
Y122638D02*
Y124016D01*
X127165Y118504D02*
Y119882D01*
Y118504D02*
X128543D01*
X97968Y125934D02*
Y144534D01*
X118568Y125934D02*
Y144534D01*
X134350Y107973D02*
X136319D01*
X93110Y79527D02*
X95079D01*
X81102Y81201D02*
Y83563D01*
X74016Y81201D02*
Y83563D01*
D11*
X118376Y119685D02*
G03*
X118376Y119685I-266J0D01*
G01*
Y146851D02*
G03*
X118376Y146851I-266J0D01*
G01*
D12*
X7087Y124803D02*
G03*
X7087Y124803I-394J0D01*
G01*
X98230Y83179D02*
G03*
X98230Y83179I-394J0D01*
G01*
X34646Y94095D02*
G03*
X34646Y93307I0J-394D01*
G01*
D02*
G03*
X34646Y94095I0J394D01*
G01*
X133858Y117717D02*
G03*
X133858Y117717I-394J0D01*
G01*
X69142Y14370D02*
Y20670D01*
Y14370D02*
X71016D01*
Y20670D01*
X69142D02*
X71016D01*
X108760Y37893D02*
Y42421D01*
X99114Y37893D02*
Y42421D01*
X53150Y65748D02*
X56300Y68898D01*
X53150Y37402D02*
Y65748D01*
Y37402D02*
X84646D01*
Y68898D01*
X56300D02*
X84646D01*
X45669Y92027D02*
X48720Y88976D01*
X85039D01*
Y128346D01*
X45669D02*
X85039D01*
X45669Y92027D02*
Y128346D01*
D13*
X99465Y36614D02*
G03*
X99465Y36614I-252J0D01*
G01*
X127461Y110138D02*
Y111319D01*
X122146Y110138D02*
Y111319D01*
X23622Y92618D02*
X24410D01*
X23622Y94784D02*
X24410D01*
X93307Y41240D02*
X94095D01*
X93307Y39074D02*
X94095D01*
X113779D02*
X114567D01*
X113779Y41240D02*
X114567D01*
X124213Y127461D02*
Y127854D01*
X121850Y127461D02*
Y127854D01*
X115354Y151476D02*
X116142D01*
X115354Y149311D02*
X116142D01*
X124508Y99803D02*
Y100197D01*
X122146Y99803D02*
Y100197D01*
X119783Y119685D02*
Y120472D01*
X121949Y119685D02*
Y120472D01*
X6004Y114173D02*
Y114961D01*
X3839Y114173D02*
Y114961D01*
X9252Y114173D02*
Y114961D01*
X7087Y114173D02*
Y114961D01*
X12500Y114173D02*
Y114961D01*
X10335Y114173D02*
Y114961D01*
X131398Y111221D02*
Y111614D01*
X129035Y111221D02*
Y111614D01*
X136417Y111122D02*
Y111910D01*
X134252Y111122D02*
Y111910D01*
X93012Y75590D02*
Y76377D01*
X95177Y75590D02*
Y76377D01*
X31594Y68701D02*
X32382D01*
X31594Y66535D02*
X32382D01*
X90157Y99508D02*
X90945D01*
X90157Y97342D02*
X90945D01*
X69685Y146063D02*
X70079D01*
X69685Y143701D02*
X70079D01*
X87697Y81201D02*
Y82382D01*
X82382Y81201D02*
Y82382D01*
X96850Y116732D02*
Y117520D01*
X94685Y116732D02*
Y117520D01*
X130217Y125787D02*
X131004D01*
X130217Y127953D02*
X131004D01*
X70768Y28839D02*
X71555D01*
X70768Y31004D02*
X71555D01*
X64173Y28839D02*
X64961D01*
X64173Y31004D02*
X64961D01*
X69390Y27362D02*
X70571D01*
X69390Y22047D02*
X70571D01*
X130217Y130905D02*
X131004D01*
X130217Y128740D02*
X131004D01*
X135827Y120079D02*
Y120866D01*
X133661Y120079D02*
Y120866D01*
X62894Y20177D02*
Y21358D01*
X57579Y20177D02*
Y21358D01*
D14*
X53891Y68898D02*
G03*
X53891Y68898I-742J0D01*
G01*
X46411Y88976D02*
G03*
X46411Y88976I-742J0D01*
G01*
D15*
X20308Y93701D02*
G03*
X20308Y93701I-394J0D01*
G01*
X85079Y787D02*
Y5827D01*
Y787D02*
X122795D01*
Y5827D01*
X85079Y16535D02*
Y21457D01*
X122795Y16535D02*
Y21457D01*
D16*
X19685Y88583D02*
Y98819D01*
D17*
X21299Y73799D02*
Y78799D01*
X18799Y71299D02*
X21299Y73799D01*
X11299D02*
X13799Y71299D01*
X18799Y81299D02*
X21299Y78799D01*
X13799Y81299D02*
X18799D01*
X11299Y78799D02*
X13799Y81299D01*
X11299Y73799D02*
Y78799D01*
X21299Y3799D02*
Y8799D01*
X18799Y1299D02*
X21299Y3799D01*
X11299D02*
X13799Y1299D01*
X18799D01*
Y11299D02*
X21299Y13799D01*
Y18799D01*
X18799Y21299D02*
X21299Y18799D01*
X11299D02*
X13799Y21299D01*
X11299Y13799D02*
Y18799D01*
Y13799D02*
X13799Y11299D01*
X18799D02*
X21299Y8799D01*
X11299D02*
X13799Y11299D01*
X11299Y3799D02*
Y8799D01*
X21299Y33799D02*
Y38799D01*
X18799Y31299D02*
X21299Y33799D01*
X11299D02*
X13799Y31299D01*
X18799Y21299D02*
X21299Y23799D01*
Y28799D01*
X18799Y31299D02*
X21299Y28799D01*
X11299D02*
X13799Y31299D01*
X11299Y23799D02*
Y28799D01*
Y23799D02*
X13799Y21299D01*
X18799Y41299D02*
X21299Y43799D01*
Y48799D01*
X18799Y51299D02*
X21299Y48799D01*
X11299D02*
X13799Y51299D01*
X11299Y43799D02*
Y48799D01*
Y43799D02*
X13799Y41299D01*
X18799D02*
X21299Y38799D01*
X11299D02*
X13799Y41299D01*
X11299Y33799D02*
Y38799D01*
X21299Y63799D02*
Y68799D01*
X18799Y61299D02*
X21299Y63799D01*
X11299D02*
X13799Y61299D01*
X18799Y51299D02*
X21299Y53799D01*
Y58799D01*
X18799Y61299D02*
X21299Y58799D01*
X11299D02*
X13799Y61299D01*
X11299Y53799D02*
Y58799D01*
Y53799D02*
X13799Y51299D01*
X18799Y71299D02*
X21299Y68799D01*
X11299D02*
X13799Y71299D01*
X11299Y63799D02*
Y68799D01*
Y73799D02*
Y78799D01*
X8799Y71299D02*
X11299Y73799D01*
X1299D02*
X3799Y71299D01*
X8799Y81299D02*
X11299Y78799D01*
X3799Y81299D02*
X8799D01*
X1299Y78799D02*
X3799Y81299D01*
X1299Y73799D02*
Y78799D01*
X11299Y3799D02*
Y8799D01*
X8799Y1299D02*
X11299Y3799D01*
X1299D02*
X3799Y1299D01*
X8799D01*
Y11299D02*
X11299Y13799D01*
Y18799D01*
X8799Y21299D02*
X11299Y18799D01*
X1299D02*
X3799Y21299D01*
X1299Y13799D02*
Y18799D01*
Y13799D02*
X3799Y11299D01*
X8799D02*
X11299Y8799D01*
X1299D02*
X3799Y11299D01*
X1299Y3799D02*
Y8799D01*
X11299Y33799D02*
Y38799D01*
X8799Y31299D02*
X11299Y33799D01*
X1299D02*
X3799Y31299D01*
X8799Y21299D02*
X11299Y23799D01*
Y28799D01*
X8799Y31299D02*
X11299Y28799D01*
X1299D02*
X3799Y31299D01*
X1299Y23799D02*
Y28799D01*
Y23799D02*
X3799Y21299D01*
X8799Y41299D02*
X11299Y43799D01*
Y48799D01*
X8799Y51299D02*
X11299Y48799D01*
X1299D02*
X3799Y51299D01*
X1299Y43799D02*
Y48799D01*
Y43799D02*
X3799Y41299D01*
X8799D02*
X11299Y38799D01*
X1299D02*
X3799Y41299D01*
X1299Y33799D02*
Y38799D01*
X11299Y63799D02*
Y68799D01*
X8799Y61299D02*
X11299Y63799D01*
X1299D02*
X3799Y61299D01*
X8799Y51299D02*
X11299Y53799D01*
Y58799D01*
X8799Y61299D02*
X11299Y58799D01*
X1299D02*
X3799Y61299D01*
X1299Y53799D02*
Y58799D01*
Y53799D02*
X3799Y51299D01*
X8799Y71299D02*
X11299Y68799D01*
X1299D02*
X3799Y71299D01*
X1299Y63799D02*
Y68799D01*
X138858Y73799D02*
Y78799D01*
X136358Y71299D02*
X138858Y73799D01*
X128858D02*
X131358Y71299D01*
X136358Y81299D02*
X138858Y78799D01*
X131358Y81299D02*
X136358D01*
X128858Y78799D02*
X131358Y81299D01*
X128858Y73799D02*
Y78799D01*
X138858Y3799D02*
Y8799D01*
X136358Y1299D02*
X138858Y3799D01*
X128858D02*
X131358Y1299D01*
X136358D01*
Y11299D02*
X138858Y13799D01*
Y18799D01*
X136358Y21299D02*
X138858Y18799D01*
X128858D02*
X131358Y21299D01*
X128858Y13799D02*
Y18799D01*
Y13799D02*
X131358Y11299D01*
X136358D02*
X138858Y8799D01*
X128858D02*
X131358Y11299D01*
X128858Y3799D02*
Y8799D01*
X138858Y33799D02*
Y38799D01*
X136358Y31299D02*
X138858Y33799D01*
X128858D02*
X131358Y31299D01*
X136358Y21299D02*
X138858Y23799D01*
Y28799D01*
X136358Y31299D02*
X138858Y28799D01*
X128858D02*
X131358Y31299D01*
X128858Y23799D02*
Y28799D01*
Y23799D02*
X131358Y21299D01*
X136358Y41299D02*
X138858Y43799D01*
Y48799D01*
X136358Y51299D02*
X138858Y48799D01*
X128858D02*
X131358Y51299D01*
X128858Y43799D02*
Y48799D01*
Y43799D02*
X131358Y41299D01*
X136358D02*
X138858Y38799D01*
X128858D02*
X131358Y41299D01*
X128858Y33799D02*
Y38799D01*
X138858Y63799D02*
Y68799D01*
X136358Y61299D02*
X138858Y63799D01*
X128858D02*
X131358Y61299D01*
X136358Y51299D02*
X138858Y53799D01*
Y58799D01*
X136358Y61299D02*
X138858Y58799D01*
X128858D02*
X131358Y61299D01*
X128858Y53799D02*
Y58799D01*
Y53799D02*
X131358Y51299D01*
X136358Y71299D02*
X138858Y68799D01*
X128858D02*
X131358Y71299D01*
X128858Y63799D02*
Y68799D01*
X24016Y12205D02*
Y12598D01*
Y20472D02*
Y22047D01*
Y30709D02*
Y32283D01*
Y40551D02*
Y42126D01*
Y50787D02*
Y52362D01*
Y61024D02*
Y62598D01*
Y70472D02*
Y72047D01*
X6299Y82677D02*
Y85974D01*
X19144D01*
X24016Y81102D01*
D18*
X59646Y6005D02*
X60079Y6438D01*
X60945D01*
X61378Y6005D01*
Y5571D01*
X60945Y5138D01*
X60512D01*
X60945D01*
X61378Y4705D01*
Y4272D01*
X60945Y3839D01*
X60079D01*
X59646Y4272D01*
X62245Y3839D02*
Y4272D01*
X62678D01*
Y3839D01*
X62245D01*
X64411Y6005D02*
X64844Y6438D01*
X65710D01*
X66144Y6005D01*
Y5571D01*
X65710Y5138D01*
X65277D01*
X65710D01*
X66144Y4705D01*
Y4272D01*
X65710Y3839D01*
X64844D01*
X64411Y4272D01*
X67010Y3839D02*
X67876D01*
X67443D01*
Y6438D01*
X67010Y6005D01*
X69176Y3839D02*
Y4272D01*
X69609D01*
Y3839D01*
X69176D01*
X73075D02*
X71342D01*
X73075Y5571D01*
Y6005D01*
X72641Y6438D01*
X71775D01*
X71342Y6005D01*
X73941D02*
X74374Y6438D01*
X75241D01*
X75674Y6005D01*
Y5571D01*
X75241Y5138D01*
X74807D01*
X75241D01*
X75674Y4705D01*
Y4272D01*
X75241Y3839D01*
X74374D01*
X73941Y4272D01*
X54449Y12245D02*
X53583D01*
X53150Y11812D01*
Y10079D01*
X53583Y9646D01*
X54449D01*
X54882Y10079D01*
Y11812D01*
X54449Y12245D01*
X55749Y8779D02*
Y11378D01*
X57048D01*
X57481Y10945D01*
Y10079D01*
X57048Y9646D01*
X55749D01*
X59648D02*
X58781D01*
X58348Y10079D01*
Y10945D01*
X58781Y11378D01*
X59648D01*
X60081Y10945D01*
Y10512D01*
X58348D01*
X60947Y9646D02*
Y11378D01*
X62247D01*
X62680Y10945D01*
Y9646D01*
X63546D02*
Y12245D01*
X64413Y11378D01*
X65279Y12245D01*
Y9646D01*
X66145Y12245D02*
Y10512D01*
X67012Y9646D01*
X67878Y10512D01*
Y12245D01*
X71344Y9646D02*
Y12245D01*
X72643D01*
X73076Y11812D01*
Y10945D01*
X72643Y10512D01*
X71344D01*
X72210D02*
X73076Y9646D01*
X73943Y12245D02*
X75676D01*
X74809D01*
Y9646D01*
X79141D02*
Y12245D01*
X80441D01*
X80874Y11812D01*
Y10945D01*
X80441Y10512D01*
X79141D01*
X80008D02*
X80874Y9646D01*
X81740D02*
X82607D01*
X82174D01*
Y12245D01*
X81740Y11812D01*
D19*
X27165Y37699D02*
X27618Y38152D01*
X28525D01*
X28978Y37699D01*
Y37246D01*
X28525Y36793D01*
X28071D01*
X28525D01*
X28978Y36339D01*
Y35886D01*
X28525Y35433D01*
X27618D01*
X27165Y35886D01*
X29884Y35433D02*
Y35886D01*
X30337D01*
Y35433D01*
X29884D01*
X32150Y38152D02*
X33963D01*
Y37699D01*
X32150Y35886D01*
Y35433D01*
X34869Y38152D02*
Y36339D01*
X35776Y35433D01*
X36682Y36339D01*
Y38152D01*
X40307D02*
Y35433D01*
X42120D01*
X43027D02*
X43933D01*
X43480D01*
Y37246D01*
X43027D01*
X45292Y35433D02*
Y38152D01*
X46652D01*
X47105Y37699D01*
Y36793D01*
X46652Y36339D01*
X45292D01*
X48465Y35433D02*
X49371D01*
X49824Y35886D01*
Y36793D01*
X49371Y37246D01*
X48465D01*
X48012Y36793D01*
Y35886D01*
X48465Y35433D01*
X32480Y75160D02*
Y72441D01*
Y73800D01*
X32934Y74254D01*
X33840D01*
X34293Y73800D01*
Y72441D01*
X35653Y74707D02*
Y74254D01*
X35199D01*
X36106D01*
X35653D01*
Y72894D01*
X36106Y72441D01*
X37918Y74707D02*
Y74254D01*
X37465D01*
X38372D01*
X37918D01*
Y72894D01*
X38372Y72441D01*
X39731Y71535D02*
Y74254D01*
X41091D01*
X41544Y73800D01*
Y72894D01*
X41091Y72441D01*
X39731D01*
X42450D02*
X43810D01*
X44263Y72894D01*
X43810Y73347D01*
X42904D01*
X42450Y73800D01*
X42904Y74254D01*
X44263D01*
X45169D02*
X45623D01*
Y73800D01*
X45169D01*
Y74254D01*
Y72894D02*
X45623D01*
Y72441D01*
X45169D01*
Y72894D01*
X47436Y72441D02*
X49248Y74254D01*
X50155Y72441D02*
X51967Y74254D01*
X53327Y72441D02*
X54233D01*
X54686Y72894D01*
Y73800D01*
X54233Y74254D01*
X53327D01*
X52874Y73800D01*
Y72894D01*
X53327Y72441D01*
X55593Y71535D02*
Y74254D01*
X56952D01*
X57406Y73800D01*
Y72894D01*
X56952Y72441D01*
X55593D01*
X59671D02*
X58765D01*
X58312Y72894D01*
Y73800D01*
X58765Y74254D01*
X59671D01*
X60125Y73800D01*
Y73347D01*
X58312D01*
X61031Y72441D02*
Y74254D01*
X62391D01*
X62844Y73800D01*
Y72441D01*
X63750D02*
Y74254D01*
X64203D01*
X64657Y73800D01*
Y72441D01*
Y73800D01*
X65110Y74254D01*
X65563Y73800D01*
Y72441D01*
X66469Y74254D02*
X67376Y72441D01*
X68282Y74254D01*
X69188Y72441D02*
Y72894D01*
X69642D01*
Y72441D01*
X69188D01*
X71454D02*
X72361D01*
X71908D01*
Y74254D01*
X71454D01*
X74173Y72441D02*
X75080D01*
X75533Y72894D01*
Y73800D01*
X75080Y74254D01*
X74173D01*
X73720Y73800D01*
Y72894D01*
X74173Y72441D01*
X127500Y43500D02*
X124781D01*
Y44860D01*
X125234Y45313D01*
X126140D01*
X126594Y44860D01*
Y43500D01*
X127047Y46219D02*
X127500Y46672D01*
Y47579D01*
X127047Y48032D01*
X125234D01*
X124781Y47579D01*
Y46672D01*
X125234Y46219D01*
X125687D01*
X126140Y46672D01*
Y48032D01*
X127500Y51000D02*
X124781D01*
Y52360D01*
X125234Y52813D01*
X126140D01*
X126594Y52360D01*
Y51000D01*
X127500Y53719D02*
Y54625D01*
Y54172D01*
X124781D01*
X125234Y53719D01*
Y55985D02*
X124781Y56438D01*
Y57345D01*
X125234Y57798D01*
X127047D01*
X127500Y57345D01*
Y56438D01*
X127047Y55985D01*
X125234D01*
X25591Y73622D02*
X22872D01*
Y74982D01*
X23325Y75435D01*
X24231D01*
X24685Y74982D01*
Y73622D01*
X23325Y76341D02*
X22872Y76794D01*
Y77701D01*
X23325Y78154D01*
X25138D01*
X25591Y77701D01*
Y76794D01*
X25138Y76341D01*
X23325D01*
X127500Y33500D02*
X124781D01*
Y34860D01*
X125234Y35313D01*
X126140D01*
X126594Y34860D01*
Y33500D01*
X125234Y36219D02*
X124781Y36672D01*
Y37579D01*
X125234Y38032D01*
X125687D01*
X126140Y37579D01*
X126594Y38032D01*
X127047D01*
X127500Y37579D01*
Y36672D01*
X127047Y36219D01*
X126594D01*
X126140Y36672D01*
X125687Y36219D01*
X125234D01*
X126140Y36672D02*
Y37579D01*
X124781Y12500D02*
X126594D01*
X127500Y13406D01*
X126594Y14313D01*
X124781D01*
Y15219D02*
Y16126D01*
Y15672D01*
X127500D01*
Y15219D01*
Y16126D01*
Y17485D02*
X124781D01*
X127500Y19298D01*
X124781D01*
X23325Y1181D02*
X22872Y1634D01*
Y2541D01*
X23325Y2994D01*
X23778D01*
X24231Y2541D01*
Y2087D01*
Y2541D01*
X24685Y2994D01*
X25138D01*
X25591Y2541D01*
Y1634D01*
X25138Y1181D01*
X25591Y3900D02*
X25138D01*
Y4353D01*
X25591D01*
Y3900D01*
X23325Y6166D02*
X22872Y6619D01*
Y7526D01*
X23325Y7979D01*
X23778D01*
X24231Y7526D01*
Y7072D01*
Y7526D01*
X24685Y7979D01*
X25138D01*
X25591Y7526D01*
Y6619D01*
X25138Y6166D01*
X22872Y8885D02*
X24685D01*
X25591Y9792D01*
X24685Y10698D01*
X22872D01*
X125234Y4313D02*
X124781Y3860D01*
Y2953D01*
X125234Y2500D01*
X127047D01*
X127500Y2953D01*
Y3860D01*
X127047Y4313D01*
X126140D01*
Y3406D01*
X127500Y5219D02*
X124781D01*
X127500Y7032D01*
X124781D01*
Y7938D02*
X127500D01*
Y9298D01*
X127047Y9751D01*
X125234D01*
X124781Y9298D01*
Y7938D01*
X127500Y24000D02*
X124781D01*
Y25360D01*
X125234Y25813D01*
X126140D01*
X126594Y25360D01*
Y24000D01*
X124781Y26719D02*
Y28532D01*
X125234D01*
X127047Y26719D01*
X127500D01*
Y72500D02*
X124781D01*
Y73860D01*
X125234Y74313D01*
X126140D01*
X126594Y73860D01*
Y72500D01*
Y73406D02*
X127500Y74313D01*
X125234Y77032D02*
X124781Y76579D01*
Y75672D01*
X125234Y75219D01*
X125687D01*
X126140Y75672D01*
Y76579D01*
X126594Y77032D01*
X127047D01*
X127500Y76579D01*
Y75672D01*
X127047Y75219D01*
X124781Y77938D02*
Y79751D01*
Y78845D01*
X127500D01*
X25591Y63780D02*
X22872D01*
Y65140D01*
X23325Y65593D01*
X24231D01*
X24685Y65140D01*
Y63780D01*
X25591Y66499D02*
Y67405D01*
Y66952D01*
X22872D01*
X23325Y66499D01*
X25591Y53937D02*
X22872D01*
Y55297D01*
X23325Y55750D01*
X24231D01*
X24685Y55297D01*
Y53937D01*
X25591Y58469D02*
Y56656D01*
X23778Y58469D01*
X23325D01*
X22872Y58016D01*
Y57109D01*
X23325Y56656D01*
X25591Y43701D02*
X22872D01*
Y45061D01*
X23325Y45514D01*
X24231D01*
X24685Y45061D01*
Y43701D01*
X23325Y46420D02*
X22872Y46873D01*
Y47780D01*
X23325Y48233D01*
X23778D01*
X24231Y47780D01*
Y47326D01*
Y47780D01*
X24685Y48233D01*
X25138D01*
X25591Y47780D01*
Y46873D01*
X25138Y46420D01*
X25591Y23622D02*
X22872D01*
Y24982D01*
X23325Y25435D01*
X24231D01*
X24685Y24982D01*
Y23622D01*
X22872Y28154D02*
Y26341D01*
X24231D01*
X23778Y27248D01*
Y27701D01*
X24231Y28154D01*
X25138D01*
X25591Y27701D01*
Y26794D01*
X25138Y26341D01*
X25591Y33858D02*
X22872D01*
Y35218D01*
X23325Y35671D01*
X24231D01*
X24685Y35218D01*
Y33858D01*
X25591Y37937D02*
X22872D01*
X24231Y36577D01*
Y38390D01*
X25591Y13780D02*
X22872D01*
Y15140D01*
X23325Y15593D01*
X24231D01*
X24685Y15140D01*
Y13780D01*
X22872Y18312D02*
X23325Y17405D01*
X24231Y16499D01*
X25138D01*
X25591Y16952D01*
Y17859D01*
X25138Y18312D01*
X24685D01*
X24231Y17859D01*
Y16499D01*
D20*
X124951Y60750D02*
X127500D01*
X126650Y61600D01*
X127500Y62450D01*
X124951D01*
X127500Y63299D02*
X125801D01*
X124951Y64149D01*
X125801Y64999D01*
X127500D01*
X126225D01*
Y63299D01*
X124951Y65848D02*
X127500D01*
X126650D01*
X124951Y67548D01*
X126225Y66273D01*
X127500Y67548D01*
X124951Y70097D02*
Y68397D01*
X127500D01*
Y70097D01*
X126225Y68397D02*
Y69247D01*
M02*
