G04*
G04 #@! TF.GenerationSoftware,Altium Limited,Altium Designer,21.7.2 (23)*
G04*
G04 Layer_Color=8388736*
%FSLAX25Y25*%
%MOIN*%
G70*
G04*
G04 #@! TF.SameCoordinates,792C483E-89C0-4906-A524-1A3F29707EC7*
G04*
G04*
G04 #@! TF.FilePolarity,Negative*
G04*
G01*
G75*
%ADD28R,0.01969X0.03937*%
G04:AMPARAMS|DCode=37|XSize=23.62mil|YSize=45.28mil|CornerRadius=5.91mil|HoleSize=0mil|Usage=FLASHONLY|Rotation=0.000|XOffset=0mil|YOffset=0mil|HoleType=Round|Shape=RoundedRectangle|*
%AMROUNDEDRECTD37*
21,1,0.02362,0.03347,0,0,0.0*
21,1,0.01181,0.04528,0,0,0.0*
1,1,0.01181,0.00591,-0.01673*
1,1,0.01181,-0.00591,-0.01673*
1,1,0.01181,-0.00591,0.01673*
1,1,0.01181,0.00591,0.01673*
%
%ADD37ROUNDEDRECTD37*%
G04:AMPARAMS|DCode=38|XSize=11.81mil|YSize=45.28mil|CornerRadius=2.95mil|HoleSize=0mil|Usage=FLASHONLY|Rotation=0.000|XOffset=0mil|YOffset=0mil|HoleType=Round|Shape=RoundedRectangle|*
%AMROUNDEDRECTD38*
21,1,0.01181,0.03937,0,0,0.0*
21,1,0.00591,0.04528,0,0,0.0*
1,1,0.00591,0.00295,-0.01968*
1,1,0.00591,-0.00295,-0.01968*
1,1,0.00591,-0.00295,0.01968*
1,1,0.00591,0.00295,0.01968*
%
%ADD38ROUNDEDRECTD38*%
%ADD57R,0.01800X0.01500*%
%ADD58R,0.01500X0.01800*%
%ADD59R,0.06699X0.04731*%
G04:AMPARAMS|DCode=60|XSize=33.47mil|YSize=31.5mil|CornerRadius=4.72mil|HoleSize=0mil|Usage=FLASHONLY|Rotation=270.000|XOffset=0mil|YOffset=0mil|HoleType=Round|Shape=RoundedRectangle|*
%AMROUNDEDRECTD60*
21,1,0.03347,0.02205,0,0,270.0*
21,1,0.02402,0.03150,0,0,270.0*
1,1,0.00945,-0.01102,-0.01201*
1,1,0.00945,-0.01102,0.01201*
1,1,0.00945,0.01102,0.01201*
1,1,0.00945,0.01102,-0.01201*
%
%ADD60ROUNDEDRECTD60*%
%ADD61R,0.01384X0.02369*%
%ADD62R,0.02369X0.01384*%
%ADD63R,0.01876X0.02369*%
%ADD64R,0.04337X0.04337*%
%ADD65R,0.02337X0.01581*%
%ADD66R,0.02172X0.03943*%
%ADD67R,0.16542X0.14180*%
%ADD68R,0.03746X0.01581*%
%ADD69R,0.01581X0.03746*%
%ADD70R,0.10439X0.10439*%
%ADD71R,0.01975X0.01975*%
G04:AMPARAMS|DCode=72|XSize=31.56mil|YSize=74.87mil|CornerRadius=8.89mil|HoleSize=0mil|Usage=FLASHONLY|Rotation=90.000|XOffset=0mil|YOffset=0mil|HoleType=Round|Shape=RoundedRectangle|*
%AMROUNDEDRECTD72*
21,1,0.03156,0.05709,0,0,90.0*
21,1,0.01378,0.07487,0,0,90.0*
1,1,0.01778,0.02854,0.00689*
1,1,0.01778,0.02854,-0.00689*
1,1,0.01778,-0.02854,-0.00689*
1,1,0.01778,-0.02854,0.00689*
%
%ADD72ROUNDEDRECTD72*%
%ADD73R,0.01187X0.02762*%
G04:AMPARAMS|DCode=74|XSize=15.81mil|YSize=66.99mil|CornerRadius=4.95mil|HoleSize=0mil|Usage=FLASHONLY|Rotation=180.000|XOffset=0mil|YOffset=0mil|HoleType=Round|Shape=RoundedRectangle|*
%AMROUNDEDRECTD74*
21,1,0.01581,0.05709,0,0,180.0*
21,1,0.00591,0.06699,0,0,180.0*
1,1,0.00991,-0.00295,0.02854*
1,1,0.00991,0.00295,0.02854*
1,1,0.00991,0.00295,-0.02854*
1,1,0.00991,-0.00295,-0.02854*
%
%ADD74ROUNDEDRECTD74*%
G04:AMPARAMS|DCode=75|XSize=39.43mil|YSize=74.87mil|CornerRadius=7.31mil|HoleSize=0mil|Usage=FLASHONLY|Rotation=180.000|XOffset=0mil|YOffset=0mil|HoleType=Round|Shape=RoundedRectangle|*
%AMROUNDEDRECTD75*
21,1,0.03943,0.06024,0,0,180.0*
21,1,0.02480,0.07487,0,0,180.0*
1,1,0.01463,-0.01240,0.03012*
1,1,0.01463,0.01240,0.03012*
1,1,0.01463,0.01240,-0.03012*
1,1,0.01463,-0.01240,-0.03012*
%
%ADD75ROUNDEDRECTD75*%
G04:AMPARAMS|DCode=76|XSize=29.59mil|YSize=112.66mil|CornerRadius=8.4mil|HoleSize=0mil|Usage=FLASHONLY|Rotation=270.000|XOffset=0mil|YOffset=0mil|HoleType=Round|Shape=RoundedRectangle|*
%AMROUNDEDRECTD76*
21,1,0.02959,0.09586,0,0,270.0*
21,1,0.01280,0.11266,0,0,270.0*
1,1,0.01680,-0.04793,-0.00640*
1,1,0.01680,-0.04793,0.00640*
1,1,0.01680,0.04793,0.00640*
1,1,0.01680,0.04793,-0.00640*
%
%ADD76ROUNDEDRECTD76*%
G04:AMPARAMS|DCode=77|XSize=15.94mil|YSize=18.94mil|CornerRadius=4.97mil|HoleSize=0mil|Usage=FLASHONLY|Rotation=270.000|XOffset=0mil|YOffset=0mil|HoleType=Round|Shape=RoundedRectangle|*
%AMROUNDEDRECTD77*
21,1,0.01594,0.00900,0,0,270.0*
21,1,0.00600,0.01894,0,0,270.0*
1,1,0.00994,-0.00450,-0.00300*
1,1,0.00994,-0.00450,0.00300*
1,1,0.00994,0.00450,0.00300*
1,1,0.00994,0.00450,-0.00300*
%
%ADD77ROUNDEDRECTD77*%
G04:AMPARAMS|DCode=78|XSize=20.14mil|YSize=20.14mil|CornerRadius=10.07mil|HoleSize=0mil|Usage=FLASHONLY|Rotation=0.000|XOffset=0mil|YOffset=0mil|HoleType=Round|Shape=RoundedRectangle|*
%AMROUNDEDRECTD78*
21,1,0.02014,0.00000,0,0,0.0*
21,1,0.00000,0.02014,0,0,0.0*
1,1,0.02014,0.00000,0.00000*
1,1,0.02014,0.00000,0.00000*
1,1,0.02014,0.00000,0.00000*
1,1,0.02014,0.00000,0.00000*
%
%ADD78ROUNDEDRECTD78*%
G04:AMPARAMS|DCode=79|XSize=15.42mil|YSize=15.42mil|CornerRadius=7.71mil|HoleSize=0mil|Usage=FLASHONLY|Rotation=90.000|XOffset=0mil|YOffset=0mil|HoleType=Round|Shape=RoundedRectangle|*
%AMROUNDEDRECTD79*
21,1,0.01542,0.00000,0,0,90.0*
21,1,0.00000,0.01542,0,0,90.0*
1,1,0.01542,0.00000,0.00000*
1,1,0.01542,0.00000,0.00000*
1,1,0.01542,0.00000,0.00000*
1,1,0.01542,0.00000,0.00000*
%
%ADD79ROUNDEDRECTD79*%
%ADD80R,0.03550X0.06699*%
%ADD81R,0.09061X0.04534*%
%ADD82R,0.04534X0.04337*%
G04:AMPARAMS|DCode=83|XSize=47.7mil|YSize=61.87mil|CornerRadius=11.83mil|HoleSize=0mil|Usage=FLASHONLY|Rotation=90.000|XOffset=0mil|YOffset=0mil|HoleType=Round|Shape=RoundedRectangle|*
%AMROUNDEDRECTD83*
21,1,0.04770,0.03821,0,0,90.0*
21,1,0.02404,0.06187,0,0,90.0*
1,1,0.02366,0.01910,0.01202*
1,1,0.02366,0.01910,-0.01202*
1,1,0.02366,-0.01910,-0.01202*
1,1,0.02366,-0.01910,0.01202*
%
%ADD83ROUNDEDRECTD83*%
G04:AMPARAMS|DCode=84|XSize=25.59mil|YSize=26.77mil|CornerRadius=7.49mil|HoleSize=0mil|Usage=FLASHONLY|Rotation=0.000|XOffset=0mil|YOffset=0mil|HoleType=Round|Shape=RoundedRectangle|*
%AMROUNDEDRECTD84*
21,1,0.02559,0.01179,0,0,0.0*
21,1,0.01061,0.02677,0,0,0.0*
1,1,0.01498,0.00531,-0.00590*
1,1,0.01498,-0.00531,-0.00590*
1,1,0.01498,-0.00531,0.00590*
1,1,0.01498,0.00531,0.00590*
%
%ADD84ROUNDEDRECTD84*%
G04:AMPARAMS|DCode=85|XSize=28.74mil|YSize=26.77mil|CornerRadius=7.91mil|HoleSize=0mil|Usage=FLASHONLY|Rotation=270.000|XOffset=0mil|YOffset=0mil|HoleType=Round|Shape=RoundedRectangle|*
%AMROUNDEDRECTD85*
21,1,0.02874,0.01096,0,0,270.0*
21,1,0.01293,0.02677,0,0,270.0*
1,1,0.01581,-0.00548,-0.00647*
1,1,0.01581,-0.00548,0.00647*
1,1,0.01581,0.00548,0.00647*
1,1,0.01581,0.00548,-0.00647*
%
%ADD85ROUNDEDRECTD85*%
G04:AMPARAMS|DCode=86|XSize=25.59mil|YSize=26.77mil|CornerRadius=7.49mil|HoleSize=0mil|Usage=FLASHONLY|Rotation=270.000|XOffset=0mil|YOffset=0mil|HoleType=Round|Shape=RoundedRectangle|*
%AMROUNDEDRECTD86*
21,1,0.02559,0.01179,0,0,270.0*
21,1,0.01061,0.02677,0,0,270.0*
1,1,0.01498,-0.00590,-0.00531*
1,1,0.01498,-0.00590,0.00531*
1,1,0.01498,0.00590,0.00531*
1,1,0.01498,0.00590,-0.00531*
%
%ADD86ROUNDEDRECTD86*%
G04:AMPARAMS|DCode=87|XSize=43.37mil|YSize=43.37mil|CornerRadius=21.69mil|HoleSize=0mil|Usage=FLASHONLY|Rotation=0.000|XOffset=0mil|YOffset=0mil|HoleType=Round|Shape=RoundedRectangle|*
%AMROUNDEDRECTD87*
21,1,0.04337,0.00000,0,0,0.0*
21,1,0.00000,0.04337,0,0,0.0*
1,1,0.04337,0.00000,0.00000*
1,1,0.04337,0.00000,0.00000*
1,1,0.04337,0.00000,0.00000*
1,1,0.04337,0.00000,0.00000*
%
%ADD87ROUNDEDRECTD87*%
G04:AMPARAMS|DCode=88|XSize=28.74mil|YSize=26.77mil|CornerRadius=7.91mil|HoleSize=0mil|Usage=FLASHONLY|Rotation=0.000|XOffset=0mil|YOffset=0mil|HoleType=Round|Shape=RoundedRectangle|*
%AMROUNDEDRECTD88*
21,1,0.02874,0.01096,0,0,0.0*
21,1,0.01293,0.02677,0,0,0.0*
1,1,0.01581,0.00647,-0.00548*
1,1,0.01581,-0.00647,-0.00548*
1,1,0.01581,-0.00647,0.00548*
1,1,0.01581,0.00647,0.00548*
%
%ADD88ROUNDEDRECTD88*%
G04:AMPARAMS|DCode=89|XSize=15.94mil|YSize=18.94mil|CornerRadius=4.97mil|HoleSize=0mil|Usage=FLASHONLY|Rotation=180.000|XOffset=0mil|YOffset=0mil|HoleType=Round|Shape=RoundedRectangle|*
%AMROUNDEDRECTD89*
21,1,0.01594,0.00900,0,0,180.0*
21,1,0.00600,0.01894,0,0,180.0*
1,1,0.00994,-0.00300,0.00450*
1,1,0.00994,0.00300,0.00450*
1,1,0.00994,0.00300,-0.00450*
1,1,0.00994,-0.00300,-0.00450*
%
%ADD89ROUNDEDRECTD89*%
G04:AMPARAMS|DCode=90|XSize=47.7mil|YSize=61.87mil|CornerRadius=11.83mil|HoleSize=0mil|Usage=FLASHONLY|Rotation=0.000|XOffset=0mil|YOffset=0mil|HoleType=Round|Shape=RoundedRectangle|*
%AMROUNDEDRECTD90*
21,1,0.04770,0.03821,0,0,0.0*
21,1,0.02404,0.06187,0,0,0.0*
1,1,0.02366,0.01202,-0.01910*
1,1,0.02366,-0.01202,-0.01910*
1,1,0.02366,-0.01202,0.01910*
1,1,0.02366,0.01202,0.01910*
%
%ADD90ROUNDEDRECTD90*%
%ADD91C,0.06000*%
%ADD92O,0.04337X0.08274*%
%ADD93O,0.04534X0.08668*%
%ADD94C,0.02959*%
%ADD95C,0.02762*%
%ADD96C,0.18110*%
%ADD97C,0.07800*%
%ADD98C,0.21378*%
G36*
X30121Y112987D02*
X25400D01*
Y117719D01*
X30121D01*
Y112987D01*
D02*
G37*
G36*
X108110Y41930D02*
X108148Y41919D01*
X108183Y41900D01*
X108213Y41875D01*
X108238Y41844D01*
X108256Y41810D01*
X108268Y41772D01*
X108272Y41733D01*
Y40945D01*
X108268Y40906D01*
X108256Y40868D01*
X108238Y40834D01*
X108213Y40803D01*
X108183Y40778D01*
X108148Y40760D01*
X108110Y40748D01*
X108071Y40744D01*
X106496D01*
X106457Y40748D01*
X106419Y40760D01*
X106384Y40778D01*
X106354Y40803D01*
X106329Y40834D01*
X106310Y40868D01*
X106299Y40906D01*
X106295Y40945D01*
Y41733D01*
X106299Y41772D01*
X106310Y41810D01*
X106329Y41844D01*
X106354Y41875D01*
X106384Y41900D01*
X106419Y41919D01*
X106457Y41930D01*
X106496Y41934D01*
X108071D01*
X108110Y41930D01*
D02*
G37*
G36*
X101417D02*
X101455Y41919D01*
X101490Y41900D01*
X101520Y41875D01*
X101545Y41844D01*
X101564Y41810D01*
X101575Y41772D01*
X101579Y41733D01*
Y40945D01*
X101575Y40906D01*
X101564Y40868D01*
X101545Y40834D01*
X101520Y40803D01*
X101490Y40778D01*
X101455Y40760D01*
X101417Y40748D01*
X101378Y40744D01*
X99803D01*
X99764Y40748D01*
X99726Y40760D01*
X99691Y40778D01*
X99661Y40803D01*
X99636Y40834D01*
X99617Y40868D01*
X99606Y40906D01*
X99602Y40945D01*
Y41733D01*
X99606Y41772D01*
X99617Y41810D01*
X99636Y41844D01*
X99661Y41875D01*
X99691Y41900D01*
X99726Y41919D01*
X99764Y41930D01*
X99803Y41934D01*
X101378D01*
X101417Y41930D01*
D02*
G37*
G36*
X108110Y39566D02*
X108148Y39554D01*
X108183Y39536D01*
X108213Y39511D01*
X108238Y39480D01*
X108256Y39445D01*
X108268Y39408D01*
X108272Y39369D01*
Y38581D01*
X108268Y38542D01*
X108256Y38504D01*
X108238Y38469D01*
X108213Y38439D01*
X108183Y38414D01*
X108148Y38396D01*
X108110Y38384D01*
X108071Y38380D01*
X106496D01*
X106457Y38384D01*
X106419Y38396D01*
X106384Y38414D01*
X106354Y38439D01*
X106329Y38469D01*
X106310Y38504D01*
X106299Y38542D01*
X106295Y38581D01*
Y39369D01*
X106299Y39408D01*
X106310Y39445D01*
X106329Y39480D01*
X106354Y39511D01*
X106384Y39536D01*
X106419Y39554D01*
X106457Y39566D01*
X106496Y39570D01*
X108071D01*
X108110Y39566D01*
D02*
G37*
G36*
X101417D02*
X101455Y39554D01*
X101490Y39536D01*
X101520Y39511D01*
X101545Y39480D01*
X101564Y39445D01*
X101575Y39408D01*
X101579Y39369D01*
Y38581D01*
X101575Y38542D01*
X101564Y38504D01*
X101545Y38469D01*
X101520Y38439D01*
X101490Y38414D01*
X101455Y38396D01*
X101417Y38384D01*
X101378Y38380D01*
X99803D01*
X99764Y38384D01*
X99726Y38396D01*
X99691Y38414D01*
X99661Y38439D01*
X99636Y38469D01*
X99617Y38504D01*
X99606Y38542D01*
X99602Y38581D01*
Y39369D01*
X99606Y39408D01*
X99617Y39445D01*
X99636Y39480D01*
X99661Y39511D01*
X99691Y39536D01*
X99726Y39554D01*
X99764Y39566D01*
X99803Y39570D01*
X101378D01*
X101417Y39566D01*
D02*
G37*
D28*
X26772Y115354D02*
D03*
D37*
X91339Y29744D02*
D03*
X116535D02*
D03*
X94488D02*
D03*
X113386D02*
D03*
D38*
X104921D02*
D03*
X102953D02*
D03*
X106890D02*
D03*
X108858D02*
D03*
X110827D02*
D03*
X100984D02*
D03*
X99016D02*
D03*
X97047D02*
D03*
D57*
X31886Y88530D02*
D03*
X17717Y88533D02*
D03*
X95768Y106824D02*
D03*
X120472Y126839D02*
D03*
X120752Y100055D02*
D03*
X132776Y111664D02*
D03*
X95669Y122492D02*
D03*
X95768Y111368D02*
D03*
D58*
X90699Y128051D02*
D03*
D59*
X90551Y113976D02*
D03*
Y104134D02*
D03*
D60*
X88681Y125000D02*
D03*
X92618Y119685D02*
D03*
X88681D02*
D03*
X92618Y125000D02*
D03*
D61*
X18602Y130807D02*
D03*
X22146D02*
D03*
X31004D02*
D03*
X29232D02*
D03*
X27460D02*
D03*
X25689D02*
D03*
X23917D02*
D03*
X18602Y107775D02*
D03*
X22146D02*
D03*
X31004D02*
D03*
X27460D02*
D03*
X25689D02*
D03*
X20374D02*
D03*
X23917D02*
D03*
X20374Y130807D02*
D03*
X29232Y107775D02*
D03*
D62*
X32775Y112204D02*
D03*
Y113976D02*
D03*
Y117519D02*
D03*
Y128149D02*
D03*
Y126378D02*
D03*
Y124606D02*
D03*
Y122834D02*
D03*
Y121063D02*
D03*
Y119291D02*
D03*
X16831Y112204D02*
D03*
Y113976D02*
D03*
Y117519D02*
D03*
Y128149D02*
D03*
Y126378D02*
D03*
Y124606D02*
D03*
Y122834D02*
D03*
Y121063D02*
D03*
Y119291D02*
D03*
Y110433D02*
D03*
Y115748D02*
D03*
X32775Y110433D02*
D03*
Y115748D02*
D03*
D63*
X16584Y107775D02*
D03*
Y130807D02*
D03*
X33022Y107775D02*
D03*
Y130807D02*
D03*
D64*
X21850Y115354D02*
D03*
Y123228D02*
D03*
X27756D02*
D03*
D65*
X73362Y19489D02*
D03*
Y17520D02*
D03*
Y15551D02*
D03*
X66796D02*
D03*
Y19489D02*
D03*
Y17520D02*
D03*
D66*
X115768Y119268D02*
D03*
X110768D02*
D03*
X105768D02*
D03*
X100768Y97268D02*
D03*
X105768D02*
D03*
X110768D02*
D03*
X115768D02*
D03*
X100768Y119268D02*
D03*
X115768Y146433D02*
D03*
X110768D02*
D03*
X105768D02*
D03*
X100768Y124434D02*
D03*
X105768D02*
D03*
X110768D02*
D03*
X115768D02*
D03*
X100768Y146433D02*
D03*
D67*
X108268Y108268D02*
D03*
Y135433D02*
D03*
D68*
X29331Y58858D02*
D03*
Y56890D02*
D03*
Y54921D02*
D03*
Y52953D02*
D03*
Y50984D02*
D03*
Y49016D02*
D03*
X44685D02*
D03*
Y50984D02*
D03*
Y52953D02*
D03*
Y54921D02*
D03*
Y56890D02*
D03*
Y58858D02*
D03*
D69*
X32087Y46260D02*
D03*
X34055D02*
D03*
X36024D02*
D03*
X37992D02*
D03*
X39961D02*
D03*
X41929D02*
D03*
Y61614D02*
D03*
X39961D02*
D03*
X37992D02*
D03*
X34055D02*
D03*
X32087D02*
D03*
X36024D02*
D03*
D70*
X37008Y53937D02*
D03*
D71*
X11417Y122441D02*
D03*
Y120079D02*
D03*
X9055D02*
D03*
Y122441D02*
D03*
X128740Y120079D02*
D03*
Y122441D02*
D03*
X131102D02*
D03*
Y120079D02*
D03*
D72*
X79823Y22638D02*
D03*
Y16339D02*
D03*
X77559Y79232D02*
D03*
Y85532D02*
D03*
D73*
X100984Y42126D02*
D03*
X102953D02*
D03*
X104921D02*
D03*
X106890D02*
D03*
Y38188D02*
D03*
X104921D02*
D03*
X102953D02*
D03*
X100984D02*
D03*
D74*
X86732Y152913D02*
D03*
Y167087D02*
D03*
X84764Y152913D02*
D03*
Y167087D02*
D03*
X82795Y152913D02*
D03*
Y167087D02*
D03*
X80827Y152913D02*
D03*
Y167087D02*
D03*
X78858Y152913D02*
D03*
Y167087D02*
D03*
X76890Y152913D02*
D03*
Y167087D02*
D03*
X74921Y152913D02*
D03*
Y167087D02*
D03*
X72953Y152913D02*
D03*
Y167087D02*
D03*
X70984Y152913D02*
D03*
Y167087D02*
D03*
X69016Y152913D02*
D03*
Y167087D02*
D03*
X67047Y152913D02*
D03*
Y167087D02*
D03*
X65079Y152913D02*
D03*
Y167087D02*
D03*
X63110Y152913D02*
D03*
Y167087D02*
D03*
X61142Y152913D02*
D03*
Y167087D02*
D03*
X59173Y152913D02*
D03*
Y167087D02*
D03*
X57205Y152913D02*
D03*
Y167087D02*
D03*
X55236Y152913D02*
D03*
Y167087D02*
D03*
X53268Y152913D02*
D03*
Y167087D02*
D03*
D75*
X93622Y160000D02*
D03*
X46378D02*
D03*
D76*
X118189Y70079D02*
D03*
Y75079D02*
D03*
Y80079D02*
D03*
Y65079D02*
D03*
Y60079D02*
D03*
X102283Y70079D02*
D03*
Y75079D02*
D03*
Y80079D02*
D03*
Y65079D02*
D03*
Y60079D02*
D03*
D77*
X31886Y89680D02*
D03*
Y87480D02*
D03*
X17717Y87483D02*
D03*
Y89683D02*
D03*
X95768Y105674D02*
D03*
Y107874D02*
D03*
X120472Y125689D02*
D03*
Y127889D02*
D03*
X120752Y98905D02*
D03*
Y101105D02*
D03*
X132776Y110514D02*
D03*
Y112714D02*
D03*
X95669Y123541D02*
D03*
Y121341D02*
D03*
X95768Y110317D02*
D03*
Y112517D02*
D03*
D78*
X81496Y40552D02*
D03*
X78347D02*
D03*
X75197D02*
D03*
X62599D02*
D03*
X59449D02*
D03*
X81496Y43701D02*
D03*
X78347D02*
D03*
X75197D02*
D03*
X62599D02*
D03*
X59449D02*
D03*
X56300D02*
D03*
X81496Y46851D02*
D03*
X78347D02*
D03*
X75197D02*
D03*
X62599D02*
D03*
X59449D02*
D03*
X56300D02*
D03*
X81496Y50000D02*
D03*
X78347D02*
D03*
X75197D02*
D03*
X62599D02*
D03*
X59449D02*
D03*
X56300D02*
D03*
X81496Y53150D02*
D03*
X78347D02*
D03*
X75197D02*
D03*
X59449D02*
D03*
X56300D02*
D03*
X81496Y56300D02*
D03*
X78347D02*
D03*
X62599D02*
D03*
X59449D02*
D03*
X56300D02*
D03*
X81496Y59449D02*
D03*
X78347D02*
D03*
X75197D02*
D03*
X59449D02*
D03*
X56300D02*
D03*
X81496Y62599D02*
D03*
X78347D02*
D03*
X62599D02*
D03*
X59449D02*
D03*
X56300D02*
D03*
X81496Y65748D02*
D03*
X78347D02*
D03*
X75197D02*
D03*
X59449D02*
D03*
X56300Y40552D02*
D03*
X62599Y53150D02*
D03*
Y59449D02*
D03*
X56300Y65748D02*
D03*
X62599D02*
D03*
X75197Y56300D02*
D03*
Y62599D02*
D03*
D79*
X81988Y122736D02*
D03*
Y120177D02*
D03*
Y117618D02*
D03*
Y115059D02*
D03*
Y112500D02*
D03*
Y109941D02*
D03*
Y107381D02*
D03*
Y104822D02*
D03*
Y102263D02*
D03*
Y99704D02*
D03*
Y97145D02*
D03*
Y94586D02*
D03*
X79429Y125295D02*
D03*
Y122736D02*
D03*
Y120177D02*
D03*
Y117618D02*
D03*
Y115059D02*
D03*
Y112500D02*
D03*
Y107381D02*
D03*
Y104822D02*
D03*
Y99704D02*
D03*
Y97145D02*
D03*
X76870Y125295D02*
D03*
Y122736D02*
D03*
Y120177D02*
D03*
Y117618D02*
D03*
Y115059D02*
D03*
Y112500D02*
D03*
Y109941D02*
D03*
Y107381D02*
D03*
Y104822D02*
D03*
Y102263D02*
D03*
Y99704D02*
D03*
Y97145D02*
D03*
Y94586D02*
D03*
Y92027D02*
D03*
X74311Y125295D02*
D03*
Y122736D02*
D03*
Y120177D02*
D03*
Y117618D02*
D03*
Y115059D02*
D03*
Y109941D02*
D03*
Y107381D02*
D03*
Y104822D02*
D03*
Y102263D02*
D03*
Y99704D02*
D03*
Y97145D02*
D03*
Y94586D02*
D03*
Y92027D02*
D03*
X71752Y125295D02*
D03*
Y120177D02*
D03*
Y117618D02*
D03*
Y115059D02*
D03*
Y109941D02*
D03*
Y107381D02*
D03*
Y102263D02*
D03*
Y99704D02*
D03*
Y97145D02*
D03*
Y92027D02*
D03*
X69193Y125295D02*
D03*
Y122736D02*
D03*
Y120177D02*
D03*
Y117618D02*
D03*
Y115059D02*
D03*
Y112500D02*
D03*
Y104822D02*
D03*
Y102263D02*
D03*
Y99704D02*
D03*
Y97145D02*
D03*
Y94586D02*
D03*
Y92027D02*
D03*
X66634Y125295D02*
D03*
Y122736D02*
D03*
Y120177D02*
D03*
Y117618D02*
D03*
Y115059D02*
D03*
Y112500D02*
D03*
Y104822D02*
D03*
Y102263D02*
D03*
Y99704D02*
D03*
Y97145D02*
D03*
Y94586D02*
D03*
Y92027D02*
D03*
X64074Y125295D02*
D03*
Y122736D02*
D03*
Y120177D02*
D03*
Y117618D02*
D03*
Y115059D02*
D03*
Y112500D02*
D03*
Y104822D02*
D03*
Y102263D02*
D03*
Y99704D02*
D03*
Y97145D02*
D03*
Y94586D02*
D03*
Y92027D02*
D03*
X61515Y125295D02*
D03*
Y122736D02*
D03*
Y120177D02*
D03*
Y117618D02*
D03*
Y115059D02*
D03*
Y112500D02*
D03*
Y109941D02*
D03*
Y107381D02*
D03*
Y104822D02*
D03*
Y102263D02*
D03*
Y99704D02*
D03*
Y97145D02*
D03*
Y94586D02*
D03*
Y92027D02*
D03*
X58956Y125295D02*
D03*
Y120177D02*
D03*
Y117618D02*
D03*
Y115059D02*
D03*
Y112500D02*
D03*
Y109941D02*
D03*
Y107381D02*
D03*
Y104822D02*
D03*
Y102263D02*
D03*
Y99704D02*
D03*
Y97145D02*
D03*
Y92027D02*
D03*
X56397Y125295D02*
D03*
Y122736D02*
D03*
Y120177D02*
D03*
Y117618D02*
D03*
Y115059D02*
D03*
Y112500D02*
D03*
Y109941D02*
D03*
Y107381D02*
D03*
Y104822D02*
D03*
Y102263D02*
D03*
Y99704D02*
D03*
Y97145D02*
D03*
Y94586D02*
D03*
Y92027D02*
D03*
X53838Y125295D02*
D03*
Y122736D02*
D03*
Y120177D02*
D03*
Y117618D02*
D03*
Y115059D02*
D03*
Y112500D02*
D03*
Y109941D02*
D03*
Y107381D02*
D03*
Y104822D02*
D03*
Y102263D02*
D03*
Y99704D02*
D03*
Y97145D02*
D03*
Y94586D02*
D03*
Y92027D02*
D03*
X51279Y125295D02*
D03*
Y122736D02*
D03*
Y120177D02*
D03*
Y117618D02*
D03*
Y112500D02*
D03*
Y109941D02*
D03*
Y107381D02*
D03*
Y104822D02*
D03*
Y99704D02*
D03*
Y97145D02*
D03*
Y94586D02*
D03*
Y92027D02*
D03*
X48720Y122736D02*
D03*
Y120177D02*
D03*
Y117618D02*
D03*
Y115059D02*
D03*
Y112500D02*
D03*
Y109941D02*
D03*
Y107381D02*
D03*
Y104822D02*
D03*
Y102263D02*
D03*
Y99704D02*
D03*
Y97145D02*
D03*
Y94586D02*
D03*
Y92027D02*
D03*
X58956Y94586D02*
D03*
X51279Y102263D02*
D03*
X48720Y125295D02*
D03*
X51279Y115059D02*
D03*
X58956Y122736D02*
D03*
X71752Y94586D02*
D03*
X79429Y92027D02*
D03*
Y94586D02*
D03*
X81988Y92027D02*
D03*
X64074Y107381D02*
D03*
X66634D02*
D03*
X64074Y109941D02*
D03*
X66634D02*
D03*
X71752Y104822D02*
D03*
X79429Y102263D02*
D03*
X69193Y107381D02*
D03*
Y109941D02*
D03*
X79429D02*
D03*
X71752Y112500D02*
D03*
Y122736D02*
D03*
X74311Y112500D02*
D03*
X81988Y125295D02*
D03*
D80*
X16536Y93701D02*
D03*
X3150D02*
D03*
D81*
X24803Y99508D02*
D03*
Y87894D02*
D03*
D82*
X30807Y93701D02*
D03*
D83*
X124803Y114075D02*
D03*
Y107382D02*
D03*
X85039Y85138D02*
D03*
Y78445D02*
D03*
X60236Y17421D02*
D03*
Y24114D02*
D03*
D84*
X25886Y93701D02*
D03*
X22146D02*
D03*
X95571Y40157D02*
D03*
X91831D02*
D03*
X112303D02*
D03*
X116043D02*
D03*
X113878Y150393D02*
D03*
X117618D02*
D03*
X30118Y67618D02*
D03*
X33858D02*
D03*
X88681Y98425D02*
D03*
X92421D02*
D03*
X132480Y126870D02*
D03*
X128740D02*
D03*
X73032Y29921D02*
D03*
X69291D02*
D03*
X66437D02*
D03*
X62697D02*
D03*
X128740Y129823D02*
D03*
X132480D02*
D03*
D85*
X123031Y125945D02*
D03*
Y129370D02*
D03*
X123327Y98287D02*
D03*
Y101713D02*
D03*
X130217Y109705D02*
D03*
Y113130D02*
D03*
D86*
X120866Y118209D02*
D03*
Y121949D02*
D03*
X4921Y116437D02*
D03*
Y112697D02*
D03*
X8169Y116437D02*
D03*
Y112697D02*
D03*
X11417Y116437D02*
D03*
Y112697D02*
D03*
X135334Y109646D02*
D03*
Y113386D02*
D03*
X94094Y77854D02*
D03*
Y74114D02*
D03*
X95768Y115256D02*
D03*
Y118996D02*
D03*
X134744Y122343D02*
D03*
Y118602D02*
D03*
D87*
X55717Y4339D02*
D03*
X107874Y162992D02*
D03*
X31496D02*
D03*
X123622Y40945D02*
D03*
D88*
X71595Y144882D02*
D03*
X68169D02*
D03*
D89*
X91750Y128051D02*
D03*
X89550D02*
D03*
D90*
X73327Y24705D02*
D03*
X66634D02*
D03*
D91*
X35433Y25197D02*
D03*
X43307D02*
D03*
D92*
X86929Y11024D02*
D03*
X120945D02*
D03*
D93*
X86929Y27480D02*
D03*
X120945D02*
D03*
D94*
X115315Y25512D02*
D03*
X92559D02*
D03*
D95*
X90866Y154094D02*
D03*
X49134D02*
D03*
D96*
X130000Y142500D02*
D03*
X10000D02*
D03*
D97*
X16299Y76299D02*
D03*
Y66299D02*
D03*
Y56299D02*
D03*
Y46299D02*
D03*
Y36299D02*
D03*
Y26299D02*
D03*
Y16299D02*
D03*
Y6299D02*
D03*
X6299Y76299D02*
D03*
Y66299D02*
D03*
Y56299D02*
D03*
Y46299D02*
D03*
Y36299D02*
D03*
Y26299D02*
D03*
Y16299D02*
D03*
Y6299D02*
D03*
X133858Y76299D02*
D03*
Y66299D02*
D03*
Y56299D02*
D03*
Y46299D02*
D03*
Y36299D02*
D03*
Y26299D02*
D03*
Y16299D02*
D03*
Y6299D02*
D03*
D98*
X12000Y163000D02*
D03*
X128000D02*
D03*
M02*
