G04*
G04 #@! TF.GenerationSoftware,Altium Limited,Altium Designer,21.7.2 (23)*
G04*
G04 Layer_Physical_Order=4*
G04 Layer_Color=6736896*
%FSLAX25Y25*%
%MOIN*%
G70*
G04*
G04 #@! TF.SameCoordinates,6C021EAB-9281-4005-87E3-4CD7810296B7*
G04*
G04*
G04 #@! TF.FilePolarity,Positive*
G04*
G01*
G75*
%ADD17C,0.00800*%
%ADD100C,0.00400*%
%ADD102C,0.00300*%
%ADD117C,0.01200*%
%ADD119C,0.01100*%
%ADD122C,0.01800*%
%ADD123C,0.01000*%
D17*
X60033Y14896D02*
X60303D01*
X60959Y15551D01*
X70866D01*
X81004Y5413D01*
X126625Y56988D02*
Y114840D01*
X81004Y5413D02*
X122736D01*
X125098Y7776D01*
Y55413D01*
X126673Y56988D01*
X126625Y114840D02*
X130052Y118267D01*
D100*
X49909Y5145D02*
Y13100D01*
X48343Y14666D02*
X49909Y13100D01*
X100575Y82258D02*
X104134Y85818D01*
Y116196D01*
X100563Y82258D02*
X100575D01*
X103642Y116689D02*
Y116831D01*
Y116689D02*
X104134Y116196D01*
X113548Y56620D02*
X116462D01*
X124705Y64863D01*
X96653Y154134D02*
X100000Y157480D01*
X113780D01*
X124705Y64863D02*
Y124901D01*
X119685Y129921D02*
X124705Y124901D01*
X119685Y129921D02*
Y151575D01*
X113780Y157480D02*
X119685Y151575D01*
D102*
X44397Y106251D02*
X44580Y106068D01*
X81226Y9954D02*
X83689Y12417D01*
Y33240D01*
X84257Y33807D01*
X84400Y9499D02*
Y31644D01*
X85925Y33169D01*
X82776Y7874D02*
X84400Y9499D01*
X48032Y5414D02*
X49509Y3937D01*
X51378D01*
X54616Y7176D01*
X66878D01*
X71208Y2845D01*
X123882D01*
X127705Y6668D01*
Y54238D01*
X129070Y55603D02*
Y113950D01*
X127705Y54238D02*
X129070Y55603D01*
Y113950D02*
X132293Y117173D01*
X131693Y117421D02*
Y119587D01*
X128470Y55851D02*
Y114199D01*
X131693Y117421D01*
X127870Y56100D02*
Y114484D01*
X131093Y117707D02*
Y119338D01*
X127870Y114484D02*
X131093Y117707D01*
X125680Y124751D02*
X131093Y119338D01*
X126279Y125000D02*
X131693Y119587D01*
X126381Y54610D02*
X127870Y56100D01*
X127105Y54486D02*
X128470Y55851D01*
X126381Y7040D02*
Y54610D01*
X127105Y6916D02*
Y54486D01*
X123441Y4101D02*
X126381Y7040D01*
X123634Y3445D02*
X127105Y6916D01*
X72769Y4101D02*
X123441D01*
X71457Y3445D02*
X123634D01*
X63386Y13484D02*
X72769Y4101D01*
X63189Y13484D02*
X63386D01*
X52348Y9550D02*
X54122Y7776D01*
X67126D01*
X71457Y3445D01*
X125680Y124751D02*
Y126957D01*
X125665Y126971D02*
X125680Y126957D01*
X125665Y126971D02*
Y130980D01*
X126673Y131988D01*
X132293Y117173D02*
Y123613D01*
X126279Y125000D02*
Y128051D01*
X127264Y129035D01*
X130217Y125689D02*
X132293Y123613D01*
X127461Y125689D02*
X130217D01*
X78839Y9547D02*
Y13386D01*
Y9547D02*
X80512Y7874D01*
X82776D01*
X85925Y33169D02*
Y43898D01*
X89961Y47933D01*
X84257Y33807D02*
Y47944D01*
X84252Y47949D02*
Y66732D01*
Y47949D02*
X84257Y47944D01*
X75886Y75098D02*
X84252Y66732D01*
X86696Y46354D02*
X86828Y46486D01*
Y58770D01*
X92001Y47619D02*
X96214D01*
X88681Y50939D02*
X92001Y47619D01*
X99016Y112962D02*
X99183Y113129D01*
Y113159D01*
X99016Y107283D02*
Y112962D01*
X99183Y113159D02*
X101378Y115354D01*
Y117618D01*
X102165Y118405D01*
X104626D01*
X105709Y117323D01*
Y99213D02*
Y117323D01*
Y99213D02*
X108071Y96850D01*
Y76181D02*
Y96850D01*
X107263Y75373D02*
X108071Y76181D01*
X107263Y57406D02*
Y75373D01*
X75886Y75098D02*
Y83465D01*
X74292Y85058D02*
X75886Y83465D01*
X74292Y85058D02*
Y98471D01*
X75196Y99375D01*
X75359D01*
X76870Y100886D01*
Y109942D02*
X78149Y111221D01*
X76870Y100886D02*
Y109942D01*
X121850Y119093D02*
X122771Y120013D01*
Y120101D01*
X121850Y65650D02*
Y119093D01*
X123721Y64862D02*
Y121000D01*
X123409Y121312D02*
X123721Y121000D01*
X123409Y121312D02*
Y121555D01*
X92913Y59744D02*
Y69095D01*
Y59744D02*
X94784Y57874D01*
X92913Y69095D02*
X95768Y71949D01*
Y73622D01*
X92913Y76476D02*
X95768Y73622D01*
X92913Y76476D02*
Y81299D01*
X95371Y83757D01*
Y103543D01*
X118799Y62598D02*
X121850Y65650D01*
X59941Y43209D02*
X61122Y42028D01*
X53347Y43209D02*
X59941D01*
X83207Y42065D02*
Y47510D01*
X80709Y39567D02*
X83207Y42065D01*
X86828Y58770D02*
X86910Y58852D01*
Y67126D01*
X80775Y61002D02*
Y63619D01*
X80259Y60526D02*
X80559Y60826D01*
X80015Y60526D02*
X80259D01*
X80559Y60826D02*
X80600D01*
X80775Y61002D01*
X61758Y107283D02*
X68405D01*
X56685Y104535D02*
X59010D01*
X61758Y107283D01*
X90059Y98228D02*
X90551Y97736D01*
Y85335D02*
Y97736D01*
X88681Y83465D02*
X90551Y85335D01*
X88681Y50939D02*
Y83465D01*
X89424Y51324D02*
X92487Y48261D01*
X89424Y51324D02*
Y83049D01*
X92487Y48261D02*
X93644D01*
X96227Y50845D02*
Y52797D01*
X95911Y53113D02*
X96227Y52797D01*
X93644Y48261D02*
X96227Y50845D01*
X95911Y53113D02*
Y53908D01*
X95866Y53953D02*
X95911Y53908D01*
X90124Y52395D02*
Y82760D01*
Y52395D02*
X93209Y49311D01*
X90824Y54254D02*
X94291Y50787D01*
X91524Y56015D02*
X95177Y52362D01*
X92224Y57677D02*
X93701Y56201D01*
X96752D01*
X91524Y56015D02*
Y82180D01*
X90824Y54254D02*
Y82470D01*
X92224Y57677D02*
Y81890D01*
X89424Y83049D02*
X91590Y85215D01*
Y111199D01*
X90124Y82760D02*
X92290Y84925D01*
Y110909D01*
X90824Y82470D02*
X92990Y84635D01*
Y110619D01*
X91524Y82180D02*
X93690Y84345D01*
Y110329D01*
X92224Y81890D02*
X94390Y84055D01*
Y110039D01*
X91590Y111199D02*
X96474Y116084D01*
X99436D01*
X92290Y110909D02*
X96195Y114814D01*
X98881D01*
X92990Y110619D02*
X95893Y113522D01*
X98233D01*
X93690Y110329D02*
X95621Y112261D01*
X97858D01*
X94390Y110039D02*
X95464Y111113D01*
X97199D01*
X107141Y146121D02*
X107724Y145538D01*
X117364D01*
X107098Y146121D02*
X107141D01*
X117364Y145538D02*
X118084Y144818D01*
Y143970D02*
Y144818D01*
X116952Y142838D02*
X118084Y143970D01*
X97563Y142838D02*
X116952D01*
X94897Y129444D02*
X95357D01*
X96324Y130410D01*
X90354Y124902D02*
X94897Y129444D01*
X96324Y130410D02*
Y141599D01*
X97563Y142838D01*
X95723Y142869D02*
X96293Y143438D01*
X95723Y130659D02*
Y142869D01*
X95108Y130044D02*
X95723Y130659D01*
X96293Y143438D02*
X112344D01*
X113394Y144488D01*
X116929D01*
X94648Y130044D02*
X95108D01*
X89754Y125150D02*
X94648Y130044D01*
X89154Y126956D02*
X93292Y131094D01*
X94674D01*
X94980Y134252D02*
Y143898D01*
X95571Y144488D02*
X111909D01*
X94980Y143898D02*
X95571Y144488D01*
X86910Y126181D02*
X94980Y134252D01*
X89154Y102859D02*
Y126956D01*
X86910Y106004D02*
Y126181D01*
X86309Y106253D02*
Y127845D01*
X93504Y135039D01*
X57480Y136024D02*
X58169Y135335D01*
Y129724D02*
Y135335D01*
X56496Y128051D02*
X58169Y129724D01*
X56496Y120275D02*
Y128051D01*
X55118Y118897D02*
X56496Y120275D01*
X42126Y133760D02*
X52461Y144095D01*
X58563D01*
X42126Y126476D02*
Y133760D01*
X47027Y134829D02*
X47166Y134690D01*
X48219D02*
X48652Y135123D01*
X47166Y134690D02*
X48219D01*
X48652Y135123D02*
X48705D01*
X48983Y135400D01*
Y136844D01*
X44882Y126673D02*
Y134472D01*
X46729Y136319D02*
X47933D01*
X44882Y134472D02*
X46729Y136319D01*
X46850Y137500D02*
X48327D01*
X48983Y136844D01*
X43406Y134055D02*
X46850Y137500D01*
X43406Y127559D02*
Y134055D01*
X75302Y95829D02*
X76619Y97146D01*
X81004D01*
X75242Y95829D02*
X75302D01*
X112402Y55709D02*
Y56988D01*
X113189Y57776D02*
X116634D01*
X112402Y55709D02*
X116831Y51279D01*
X112402Y56988D02*
X113189Y57776D01*
X116634D02*
X123721Y64862D01*
X116831Y46850D02*
Y51279D01*
X56099Y112792D02*
Y117319D01*
X57677Y118897D01*
X53553Y110246D02*
X56099Y112792D01*
X66634Y128588D02*
X67785Y129739D01*
X66634Y120177D02*
Y128588D01*
Y120177D02*
X67914Y118897D01*
X44397Y106251D02*
Y107531D01*
X44350Y107578D02*
Y110598D01*
X40196Y105118D02*
X45215D01*
X40020Y105294D02*
Y110788D01*
Y105294D02*
X40196Y105118D01*
X45530Y105434D02*
Y109273D01*
X45215Y105118D02*
X45530Y105434D01*
X44350Y107578D02*
X44397Y107531D01*
X44350Y110598D02*
X45958Y112205D01*
X45530Y109273D02*
X46504Y110246D01*
X40020Y110788D02*
X40749Y111516D01*
X42533D01*
X39420Y111960D02*
X40276Y112815D01*
X50927D01*
X39420Y70385D02*
Y111960D01*
X46504Y110246D02*
X53553D01*
X45958Y112205D02*
X52328D01*
X46380Y109273D02*
X46752Y109646D01*
X55119D02*
X58858Y113386D01*
X46752Y109646D02*
X55119D01*
X57677Y121456D02*
X58858Y120275D01*
Y113386D02*
Y120275D01*
X25984Y104724D02*
X26137Y104877D01*
Y105256D01*
X26181Y105300D01*
Y106988D01*
X27657Y108465D01*
Y118701D02*
X35925Y126969D01*
X27657Y108465D02*
Y118701D01*
X40424Y99137D02*
X46380Y105092D01*
Y109273D01*
X40424Y70876D02*
Y99137D01*
X41024Y98712D02*
X47036Y104724D01*
X41024Y71124D02*
Y98712D01*
X47036Y104724D02*
X48819D01*
X52328Y112205D02*
X53839Y113715D01*
Y115058D01*
X55118Y116338D01*
X50927Y112815D02*
X51181Y113069D01*
Y113967D01*
X40424Y70876D02*
X46360Y64939D01*
Y63398D02*
Y64939D01*
X44882Y43194D02*
X45276Y43587D01*
X44882Y43012D02*
Y43194D01*
X45276Y43587D02*
Y49016D01*
X45669Y49409D01*
X43110Y43996D02*
X44374Y45260D01*
Y60252D01*
X42342Y62284D02*
X44374Y60252D01*
X45669Y49409D02*
X47917D01*
X48268Y49761D01*
Y59470D01*
X43978Y63760D02*
X48268Y59470D01*
X39420Y70385D02*
X43978Y65827D01*
Y63760D02*
Y65827D01*
X51181Y113967D02*
X52470Y115256D01*
X53150D01*
X53839Y115945D01*
Y120176D01*
X55118Y121456D01*
X46694Y52995D02*
Y55355D01*
Y52995D02*
X46740Y52949D01*
X46694Y55355D02*
X47668Y56330D01*
Y59221D01*
X41024Y71124D02*
X47590Y64558D01*
Y63549D02*
Y64558D01*
X48478Y60890D02*
Y62661D01*
X47590Y63549D02*
X48478Y62661D01*
X49077Y61138D02*
Y62910D01*
X42008Y71002D02*
Y98110D01*
Y71002D02*
X48190Y64820D01*
Y63797D02*
X49077Y62910D01*
X48190Y63797D02*
Y64820D01*
X42795Y71144D02*
Y96338D01*
X49678Y61387D02*
Y63158D01*
X42795Y71144D02*
X48790Y65149D01*
Y64046D02*
X49678Y63158D01*
X48790Y64046D02*
Y65149D01*
X50278Y61635D02*
Y63407D01*
X49390Y64294D02*
X50278Y63407D01*
X43583Y71303D02*
Y94567D01*
X49390Y64294D02*
Y65496D01*
X43583Y71303D02*
X49390Y65496D01*
X50877Y61884D02*
Y63655D01*
X44283Y71491D02*
X49990Y65783D01*
Y64543D02*
X50877Y63655D01*
X49990Y64543D02*
Y65783D01*
X44283Y71491D02*
Y92708D01*
X45059Y71678D02*
X50590Y66147D01*
Y64791D02*
Y66147D01*
X45059Y71678D02*
Y92137D01*
X51477Y62132D02*
Y63904D01*
X50590Y64791D02*
X51477Y63904D01*
X45748Y71968D02*
Y91413D01*
X52078Y62381D02*
Y64152D01*
X51190Y65040D02*
X52078Y64152D01*
X45748Y71968D02*
X51190Y66526D01*
Y65040D02*
Y66526D01*
X52678Y62629D02*
Y64401D01*
X46473Y72425D02*
X51790Y67107D01*
X46473Y72425D02*
Y91289D01*
X51790Y65288D02*
X52678Y64401D01*
X51790Y65288D02*
Y67107D01*
X49778Y70192D02*
Y89662D01*
X48875Y91352D02*
X49432Y91909D01*
Y93710D02*
X49778Y94056D01*
X49432Y91909D02*
Y93710D01*
X48875Y90565D02*
X49778Y89662D01*
X48875Y90565D02*
Y91352D01*
X49778Y94463D02*
X50000Y94685D01*
X49778Y94056D02*
Y94463D01*
X49825Y90959D02*
X50378Y90405D01*
Y70440D02*
Y90405D01*
Y70440D02*
X52990Y67828D01*
X53277Y62878D02*
Y64649D01*
X49778Y70192D02*
X52390Y67580D01*
Y65537D02*
X53277Y64649D01*
X52390Y65537D02*
Y67580D01*
X53878Y63126D02*
Y64898D01*
X52990Y65785D02*
Y67828D01*
Y65785D02*
X53878Y64898D01*
X50382Y92402D02*
X50978Y91806D01*
Y70689D02*
Y91806D01*
Y70689D02*
X53590Y68077D01*
X54478Y63375D02*
Y65146D01*
X53590Y66034D02*
X54478Y65146D01*
X53590Y66034D02*
Y68077D01*
X51578Y70937D02*
Y102562D01*
X54190Y66282D02*
X55077Y65395D01*
Y63623D02*
Y65395D01*
X54190Y66282D02*
Y68325D01*
X51578Y70937D02*
X54190Y68325D01*
X52178Y71186D02*
Y95143D01*
Y71186D02*
X54790Y68574D01*
X55390Y65931D02*
Y65954D01*
X54790Y66554D02*
X55390Y65954D01*
Y65931D02*
X56050Y65271D01*
X54790Y66554D02*
Y68574D01*
X55390Y66803D02*
X57054Y65140D01*
Y62173D02*
Y65140D01*
X52778Y71434D02*
X55390Y68822D01*
X52778Y71434D02*
Y94742D01*
X55390Y66803D02*
Y68822D01*
X35236Y40945D02*
X41634D01*
X43110Y42421D01*
Y43996D01*
X48935Y46046D02*
Y60432D01*
Y46046D02*
X52952Y42028D01*
X48478Y60890D02*
X48935Y60432D01*
X49578Y46977D02*
Y60637D01*
Y46977D02*
X53347Y43209D01*
X49077Y61138D02*
X49578Y60637D01*
X49678Y61387D02*
X50183Y60881D01*
Y47947D02*
X54135Y43995D01*
X50183Y47947D02*
Y60881D01*
X50787Y48996D02*
X54606Y45177D01*
X50278Y61635D02*
X50787Y61125D01*
Y48996D02*
Y61125D01*
X51476Y49606D02*
Y61285D01*
Y49606D02*
X52755Y48327D01*
X50877Y61884D02*
X51476Y61285D01*
X51477Y62132D02*
X52465Y61144D01*
Y51152D02*
Y61144D01*
X53150Y52559D02*
Y61309D01*
Y52559D02*
X54921Y50787D01*
X52078Y62381D02*
X53150Y61309D01*
X53839Y53448D02*
Y61468D01*
Y53448D02*
X56450Y50837D01*
X52678Y62629D02*
X53839Y61468D01*
X53277Y62878D02*
X54499Y61656D01*
Y54963D02*
X55020Y54443D01*
Y53448D02*
X56554Y51913D01*
X55020Y53448D02*
Y54443D01*
X54499Y54963D02*
Y61656D01*
X55699Y53688D02*
X56874Y52513D01*
X55699Y53688D02*
Y54612D01*
X55099Y55212D02*
X55699Y54612D01*
X56874Y52513D02*
X58867D01*
X55099Y55212D02*
Y61905D01*
X53878Y63126D02*
X55099Y61905D01*
X54478Y63375D02*
X55699Y62153D01*
X56299Y53936D02*
Y54860D01*
X55699Y55460D02*
Y62153D01*
Y55460D02*
X56299Y54860D01*
Y53936D02*
X57072Y53163D01*
X56299Y55709D02*
X57256Y54752D01*
X56299Y55709D02*
Y62402D01*
X55077Y63623D02*
X56299Y62402D01*
X57748Y54752D02*
X57874Y54626D01*
X57256Y54752D02*
X57748D01*
X43406Y63484D02*
X47668Y59221D01*
X38484Y63484D02*
X43406D01*
X46656Y56863D02*
Y59053D01*
X42824Y62884D02*
X46656Y59053D01*
X38236Y62884D02*
X42824D01*
X37913Y62284D02*
X42342D01*
X43028Y64546D02*
Y65929D01*
X38820Y70136D02*
X43028Y65929D01*
X37598Y67913D02*
Y113718D01*
Y67913D02*
X39961Y65551D01*
X37598Y113718D02*
X44353Y120472D01*
X36950Y66692D02*
X38091Y65551D01*
X36950Y66692D02*
Y114017D01*
X44389Y121456D01*
X38820Y70136D02*
Y113242D01*
X38220Y69260D02*
X42028Y65453D01*
X38220Y113491D02*
X44590Y119860D01*
X38820Y113242D02*
X40735Y115157D01*
X38220Y69260D02*
Y113491D01*
X36261Y114176D02*
X44491Y122406D01*
X35061Y65136D02*
Y114673D01*
X43993Y123606D01*
X36261Y65708D02*
Y114176D01*
Y65708D02*
X38484Y63484D01*
X35661Y65459D02*
X38236Y62884D01*
X35661Y114425D02*
X44242Y123006D01*
X35061Y65136D02*
X37913Y62284D01*
X35661Y65459D02*
Y114425D01*
X34154Y42028D02*
Y43307D01*
Y42028D02*
X35236Y40945D01*
X43993Y123606D02*
X49474D01*
X49883Y124015D02*
X50000D01*
X49474Y123606D02*
X49883Y124015D01*
X47634Y125295D02*
X52756D01*
X46905Y124567D02*
X47634Y125295D01*
X44242Y123006D02*
X51550D01*
X52559Y124015D01*
X44491Y122406D02*
X51609D01*
X52559Y121456D01*
X49017Y120472D02*
X50000Y121456D01*
X44353Y120472D02*
X49017D01*
X52636Y119860D02*
X53543Y120768D01*
X44590Y119860D02*
X52636D01*
X44389Y121456D02*
X47441D01*
X52756Y125295D02*
X53543Y124508D01*
Y120768D02*
Y124508D01*
X51379Y115157D02*
X52559Y116338D01*
X40735Y115157D02*
X51379D01*
X58465Y146260D02*
Y159282D01*
Y146260D02*
X61191Y143533D01*
X59941Y146063D02*
Y148754D01*
X59524Y149171D02*
Y149330D01*
Y149171D02*
X59941Y148754D01*
X56511Y161236D02*
Y163627D01*
Y161236D02*
X58465Y159282D01*
X56511Y163627D02*
X64569Y171685D01*
X65675D01*
X57284Y161516D02*
Y162868D01*
X65100Y170685D01*
X65675Y171685D02*
X66707Y170652D01*
X61191Y119852D02*
Y143533D01*
X60236Y118897D02*
X61191Y119852D01*
X59941Y146063D02*
X61791Y144213D01*
Y122460D02*
X62795Y121456D01*
X61791Y122460D02*
Y144213D01*
X57284Y161516D02*
X59252Y159547D01*
Y155512D02*
Y159547D01*
Y155512D02*
X61122Y153642D01*
Y146457D02*
Y153642D01*
Y146457D02*
X62795Y144784D01*
Y126574D02*
Y144784D01*
X61122Y161811D02*
Y163523D01*
X61133Y163534D01*
X61122Y161811D02*
X64196Y158737D01*
X62734Y163111D02*
X63281Y163658D01*
Y163687D01*
X62734Y161145D02*
Y163111D01*
X79823Y137205D02*
Y166278D01*
X74016Y131398D02*
X79823Y137205D01*
X57284Y171653D02*
X58357Y172727D01*
X66090D01*
X69043Y169774D01*
X76326D01*
X79823Y166278D01*
X55512Y171654D02*
X57185Y173327D01*
X66339D01*
X69291Y170374D01*
X76575D01*
X80478Y166471D01*
Y136088D02*
Y166471D01*
X70965Y171653D02*
X76772D01*
X81181Y135709D02*
Y167244D01*
X76772Y171653D02*
X81181Y167244D01*
X74606Y130217D02*
X80478Y136088D01*
X65908Y112365D02*
X66535Y112992D01*
X59378Y106917D02*
X64825Y112365D01*
X65908D01*
X58679Y105152D02*
X59378Y105851D01*
Y106917D01*
X64075Y113389D02*
Y114567D01*
X57677Y106991D02*
X64075Y113389D01*
X57677Y106102D02*
Y106991D01*
X56917Y105152D02*
X58679D01*
X56398Y105671D02*
X56917Y105152D01*
X56398Y105671D02*
Y107383D01*
X55118Y106102D02*
X56685Y104535D01*
X55118Y108662D02*
X56398Y107383D01*
X66535Y112992D02*
Y114469D01*
X65847Y115157D02*
X66535Y114469D01*
X65847Y115157D02*
Y129528D01*
X74500Y138181D01*
Y148135D01*
X64982Y115475D02*
Y130829D01*
X64075Y114567D02*
X64982Y115475D01*
X64272Y116142D02*
Y131398D01*
X57677Y108662D02*
X61319Y112304D01*
Y114173D01*
X62303Y115157D01*
X63287D01*
X64272Y116142D01*
X64982Y130829D02*
X70768Y136614D01*
Y144587D01*
X69980Y137106D02*
Y145276D01*
X64272Y131398D02*
X69980Y137106D01*
Y145276D02*
X71260Y146555D01*
Y148032D01*
X70768Y144587D02*
X73032Y146850D01*
Y149409D01*
X74016Y130474D02*
Y131398D01*
X74006Y130465D02*
X74016Y130474D01*
X73074Y119847D02*
X74006Y120780D01*
Y130465D01*
X71422Y119847D02*
X73074D01*
X70472Y118897D02*
X71422Y119847D01*
X73031Y118897D02*
X74606Y120472D01*
Y130217D01*
X76870Y131398D02*
X81181Y135709D01*
X76870Y117618D02*
Y131398D01*
X62734Y161145D02*
X64442Y159438D01*
X76586D02*
X77148Y158875D01*
X64442Y159438D02*
X76586D01*
X64196Y158737D02*
X75712D01*
X76279Y158169D01*
X69307Y108185D02*
Y121842D01*
X70201Y122736D01*
X68405Y107283D02*
X69307Y108185D01*
X70201Y122736D02*
X70866D01*
X72047Y123917D01*
Y131164D01*
X71444Y131865D02*
X77148Y137569D01*
X70472Y124015D02*
X71444Y124987D01*
Y131865D01*
X77148Y137569D02*
Y158875D01*
X78232Y137348D02*
Y148390D01*
X72047Y131164D02*
X78232Y137348D01*
X76279Y137795D02*
Y158169D01*
X69193Y130708D02*
X76279Y137795D01*
X69193Y122735D02*
Y130708D01*
X67914Y121456D02*
X69193Y122735D01*
X75590Y116338D02*
X76870Y117618D01*
X96850Y126772D02*
X99213Y124409D01*
X93073Y126772D02*
X96850D01*
X82321Y102264D02*
X86309Y106253D01*
X79528Y101378D02*
X80413Y102264D01*
X82321D01*
X78543Y99508D02*
X79528Y100492D01*
Y101378D01*
X76673Y99508D02*
X78543D01*
X75590Y98425D02*
X76673Y99508D01*
X87279Y100984D02*
X89154Y102859D01*
X83267Y100984D02*
X87279D01*
X90954Y124653D02*
X93073Y126772D01*
X84941Y95866D02*
X90954Y101880D01*
Y124653D01*
X83267Y95866D02*
X84941D01*
X81988Y101083D02*
X86910Y106004D01*
X80708Y98425D02*
X81988Y99705D01*
Y101083D01*
X89754Y102611D02*
Y125150D01*
X81004Y97146D02*
X82087Y98228D01*
Y98917D01*
X82874Y99705D01*
X86848D01*
X89754Y102611D01*
X90354Y102362D02*
Y124902D01*
X86417Y98425D02*
X90354Y102362D01*
X83267Y98425D02*
X86417D01*
X79871Y52457D02*
X80166Y52752D01*
X79871Y52214D02*
Y52457D01*
X80166Y52752D02*
Y52804D01*
X83260Y55898D01*
X69587Y66583D02*
Y68246D01*
X69439Y66435D02*
X69587Y66583D01*
X65433Y66135D02*
Y67638D01*
X62589Y70482D02*
X65433Y67638D01*
X66539Y64859D02*
Y67910D01*
Y64859D02*
X71653Y59744D01*
X63090Y71358D02*
X66539Y67910D01*
X66339Y78056D02*
X80775Y63619D01*
X61811Y50000D02*
X64785Y47026D01*
X61811Y50000D02*
Y67377D01*
X64075Y49409D02*
X64862D01*
X63090Y53051D02*
X64468Y51673D01*
X63090Y53051D02*
Y68602D01*
X78740Y38878D02*
X79983D01*
X80672Y39567D02*
X80709D01*
X79983Y38878D02*
X80672Y39567D01*
X71653Y45965D02*
X78740Y38878D01*
X71653Y45965D02*
Y59744D01*
X72441Y48178D02*
X73594Y47025D01*
X72441Y49902D02*
X73032Y50492D01*
X72441Y48178D02*
Y49902D01*
X73032Y50492D02*
X73622D01*
X74508Y51378D01*
Y60433D01*
X73721Y61221D02*
X74508Y60433D01*
X67224Y65748D02*
X71752Y61221D01*
X73721D01*
X75747Y45276D02*
X76575Y46104D01*
X73917Y45276D02*
X75747D01*
X67224Y65748D02*
Y68209D01*
X73524Y49114D02*
X74803D01*
X75295Y49606D01*
X68209Y66043D02*
Y68504D01*
X75295Y49606D02*
Y61516D01*
X74705Y62106D02*
X75295Y61516D01*
X72146Y62106D02*
X74705D01*
X68209Y66043D02*
X72146Y62106D01*
X61703Y76129D02*
Y77076D01*
Y76129D02*
X69587Y68246D01*
X61614Y77165D02*
X61703Y77076D01*
X61614Y77165D02*
Y91043D01*
X70910Y66138D02*
Y67772D01*
X62303Y76378D02*
X70910Y67772D01*
X72018Y65678D02*
Y67511D01*
Y65678D02*
X72736Y64961D01*
X62903Y76626D02*
X72018Y67511D01*
X76575Y46104D02*
Y63090D01*
X77175Y44337D02*
X77348Y44509D01*
Y44948D01*
X77362Y44962D01*
Y63796D01*
X74705Y64961D02*
X76575Y63090D01*
X72736Y64961D02*
X74705D01*
X63915Y77243D02*
Y89386D01*
Y77243D02*
X77362Y63796D01*
X78061Y50591D02*
Y64261D01*
X78839Y41196D02*
X79652Y40382D01*
X78839Y41196D02*
Y49813D01*
X78061Y50591D02*
X78839Y49813D01*
X64961Y77362D02*
X78061Y64261D01*
X65662Y77702D02*
Y90252D01*
Y77702D02*
X78772Y64592D01*
Y51226D02*
Y64592D01*
Y51226D02*
X79958Y50040D01*
Y42225D02*
Y50040D01*
X66939Y78304D02*
X81496Y63747D01*
Y58681D02*
Y63747D01*
X80002Y57187D02*
X81496Y58681D01*
X82480Y56890D02*
Y64221D01*
X68864Y77837D02*
X82480Y64221D01*
X80059Y54468D02*
X82480Y56890D01*
X69464Y78086D02*
X83260Y64289D01*
Y55898D02*
Y64289D01*
X79962Y54468D02*
X80059D01*
X80002Y57170D02*
Y57187D01*
X69464Y78086D02*
Y91083D01*
X68864Y77837D02*
Y91569D01*
X66939Y78304D02*
Y91674D01*
X66330Y92283D02*
X66939Y91674D01*
X64962Y92357D02*
X65407D01*
X66339Y91425D01*
Y78056D02*
Y91425D01*
X64405Y92914D02*
X64962Y92357D01*
X64075Y97047D02*
X66330Y94792D01*
Y92283D02*
Y94792D01*
X64075Y97047D02*
Y99703D01*
X65355Y100983D01*
Y98424D02*
X66930Y96849D01*
Y92617D02*
X67421Y92126D01*
X66930Y92617D02*
Y96849D01*
X68307Y92126D02*
X68864Y91569D01*
X67421Y92126D02*
X68307D01*
X65355Y90559D02*
X65662Y90252D01*
X65355Y90559D02*
Y90748D01*
X69464Y91083D02*
X69587Y91205D01*
Y92126D01*
X69193Y92520D02*
X69587Y92126D01*
X69193Y92520D02*
Y93701D01*
X67914Y94980D02*
X69193Y93701D01*
X67914Y94980D02*
Y95866D01*
X64405Y92914D02*
Y93012D01*
X64345Y93072D02*
Y95660D01*
Y93072D02*
X64405Y93012D01*
X62795Y97210D02*
Y98425D01*
Y97210D02*
X64345Y95660D01*
X64468Y90176D02*
X64961Y89684D01*
X64468Y90176D02*
Y90354D01*
X64961Y77362D02*
Y89684D01*
X63745Y91078D02*
X64468Y90354D01*
X62795Y94651D02*
X63745Y93701D01*
Y91078D02*
Y93701D01*
X62795Y94651D02*
Y95866D01*
Y91559D02*
X62903Y91451D01*
Y76626D02*
Y91451D01*
X62795Y91559D02*
Y93307D01*
X59760Y75673D02*
X67224Y68209D01*
X59760Y75673D02*
Y88050D01*
X58572Y90178D02*
X58829Y90434D01*
X60498Y71358D02*
X63090D01*
X58572Y73284D02*
X60498Y71358D01*
X58829Y90434D02*
Y90623D01*
X58572Y73284D02*
Y90178D01*
X62303Y76378D02*
Y91203D01*
X61516Y91990D02*
X62303Y91203D01*
X61516Y91990D02*
Y93799D01*
X60452Y94863D02*
X61516Y93799D01*
X60452Y94863D02*
Y95970D01*
X60551Y92106D02*
Y93383D01*
Y92106D02*
X61614Y91043D01*
X60827Y75886D02*
X68209Y68504D01*
X60790Y90153D02*
X60827Y90116D01*
X60656Y90641D02*
X60790Y90508D01*
Y90153D02*
Y90508D01*
X60827Y75886D02*
Y90116D01*
X60522Y70482D02*
X62589D01*
X57972Y73032D02*
X60522Y70482D01*
X57972Y73032D02*
Y90086D01*
X56535Y88643D02*
X56733Y88841D01*
X56177Y90185D02*
X56733Y89628D01*
Y88841D02*
Y89628D01*
X57135Y88394D02*
X57333Y88593D01*
X56314Y90896D02*
X57333Y89877D01*
Y88593D02*
Y89877D01*
X57480Y90579D02*
X57972Y90086D01*
X58347Y95356D02*
Y95884D01*
X57480Y94490D02*
X58347Y95356D01*
Y95884D02*
X58455Y95992D01*
X57480Y90579D02*
Y94490D01*
X60039Y69882D02*
X61811D01*
X63090Y68602D01*
X57233Y72688D02*
X60039Y69882D01*
X57135Y72688D02*
X57233D01*
X62411Y51073D02*
X64075Y49409D01*
X62411Y51073D02*
Y68101D01*
X61516Y68996D02*
X62411Y68101D01*
X59744Y68996D02*
X61516D01*
X56535Y72206D02*
X59744Y68996D01*
X59763Y68115D02*
X61073D01*
X61811Y67377D01*
X55783Y72095D02*
X59763Y68115D01*
X55783Y72095D02*
Y89235D01*
X56314Y93323D02*
X56389Y93398D01*
X56314Y90896D02*
Y93323D01*
X57135Y72688D02*
Y88394D01*
X56535Y72206D02*
Y88643D01*
X56173Y90185D02*
X56177D01*
X55385Y90973D02*
X56173Y90185D01*
X55385Y90973D02*
Y93738D01*
X56246Y95448D02*
Y95824D01*
X55943Y95145D02*
X56246Y95448D01*
Y95824D02*
X56380Y95958D01*
X55943Y94296D02*
Y95145D01*
X55385Y93738D02*
X55943Y94296D01*
X54578Y72451D02*
X59055Y67975D01*
X54578Y72451D02*
Y93779D01*
X53978Y71969D02*
Y94028D01*
Y71969D02*
X58333Y67614D01*
X59055Y57656D02*
Y58473D01*
X57693Y56294D02*
X59055Y57656D01*
Y58473D02*
X60157Y59575D01*
X59055Y63222D02*
X60157Y62121D01*
X59055Y63222D02*
Y67975D01*
X60157Y59575D02*
Y62121D01*
X57751Y58017D02*
X59557Y59823D01*
Y61872D01*
X58333Y63096D02*
X59557Y61872D01*
X58333Y63096D02*
Y67614D01*
X57733Y62848D02*
X58957Y61624D01*
Y60433D02*
Y61624D01*
X57733Y62848D02*
Y67366D01*
X53378Y71720D02*
X57733Y67366D01*
X57054Y62173D02*
X57972Y61254D01*
Y61221D02*
Y61254D01*
X55343Y94545D02*
Y96458D01*
X54578Y93779D02*
X55343Y94545D01*
X55118Y100984D02*
X56668Y99434D01*
Y97783D02*
Y99434D01*
X55343Y96458D02*
X56668Y97783D01*
X53378Y94276D02*
X54143Y95042D01*
X53378Y71720D02*
Y94276D01*
X52778Y94742D02*
X53509Y95473D01*
X54743Y94793D02*
Y96707D01*
X53978Y94028D02*
X54743Y94793D01*
Y96707D02*
X56068Y98032D01*
X55477Y99410D02*
X56068Y98819D01*
Y98032D02*
Y98819D01*
X53543Y99410D02*
X55477D01*
X52636Y100317D02*
X53543Y99410D01*
X52636Y100317D02*
Y100908D01*
X52559Y100984D02*
X52636Y100908D01*
X54143Y95042D02*
Y97450D01*
X53543Y95562D02*
Y96555D01*
X53509Y95473D02*
Y95528D01*
X53543Y95562D01*
X52178Y95143D02*
X52425Y95390D01*
Y95732D01*
X54143Y97450D02*
X55118Y98425D01*
X57713Y59583D02*
X58106D01*
X57579Y59449D02*
X57713Y59583D01*
X58106D02*
X58957Y60433D01*
X52559Y97539D02*
X53543Y96555D01*
X52559Y97539D02*
Y98425D01*
X52425Y95732D02*
X52559Y95866D01*
X56050Y64030D02*
Y65271D01*
X51578Y102562D02*
X52559Y103543D01*
X50382Y92402D02*
Y93317D01*
X50000Y98425D02*
X50978Y97447D01*
X50492Y94685D02*
X50978Y95171D01*
Y97447D01*
X61122Y48327D02*
Y51177D01*
X59136Y53163D02*
X61122Y51177D01*
X57072Y53163D02*
X59136D01*
X58867Y52513D02*
X59699Y51681D01*
Y49876D02*
Y51681D01*
Y49876D02*
X59941Y49634D01*
Y46358D02*
Y49634D01*
Y46358D02*
X61122Y45177D01*
X59099Y50240D02*
Y51433D01*
X57972Y49114D02*
X59099Y50240D01*
X58618Y51913D02*
X59099Y51433D01*
X56554Y51913D02*
X58618D01*
X56450Y50837D02*
X58021D01*
X58071Y50787D01*
X57972Y48327D02*
Y49114D01*
X50000Y94685D02*
X50492D01*
X48749Y93565D02*
Y94615D01*
X46473Y91289D02*
X48749Y93565D01*
X43583Y94567D02*
X47441Y98425D01*
X42795Y96338D02*
X47441Y100984D01*
X44283Y92708D02*
X47441Y95866D01*
X42008Y98110D02*
X47441Y103543D01*
X45059Y92137D02*
X47157Y94235D01*
X45748Y91413D02*
X48149Y93813D01*
Y94863D01*
X48749Y94615D02*
X50000Y95866D01*
X48149Y94863D02*
X48493Y95208D01*
X54035Y104626D02*
X55118Y103543D01*
X52067Y104626D02*
X54035D01*
X51378Y103937D02*
X52067Y104626D01*
X50295Y102264D02*
X51378Y103347D01*
Y103937D01*
X49114Y102264D02*
X50295D01*
X48493Y101643D02*
X49114Y102264D01*
X48493Y95208D02*
Y101643D01*
X52755Y48327D02*
X54823D01*
X48819Y104724D02*
X50000Y103543D01*
X52952Y42028D02*
X57972D01*
X54135Y43995D02*
X56789D01*
X57972Y45177D01*
X54606D02*
X54823D01*
D117*
X63189Y13484D02*
D03*
X126673Y131988D02*
D03*
X48032Y5414D02*
D03*
X127461Y125689D02*
D03*
X52348Y9550D02*
D03*
X127264Y129035D02*
D03*
X49909Y5145D02*
D03*
X48343Y14666D02*
D03*
X96214Y47619D02*
D03*
X100563Y82258D02*
D03*
X83207Y47510D02*
D03*
X80015Y60526D02*
D03*
X96752Y56201D02*
D03*
X95177Y52362D02*
D03*
X95866Y53953D02*
D03*
X93209Y49311D02*
D03*
X94291Y50787D02*
D03*
X107098Y146121D02*
D03*
X94674Y131094D02*
D03*
X93504Y135039D02*
D03*
X103642Y116831D02*
D03*
X57480Y136024D02*
D03*
X58563Y144095D02*
D03*
X47027Y134829D02*
D03*
X44882Y126673D02*
D03*
X43406Y127559D02*
D03*
X42126Y126476D02*
D03*
X47933Y136319D02*
D03*
X116831Y46850D02*
D03*
X42533Y111516D02*
D03*
X35925Y126969D02*
D03*
X46360Y63398D02*
D03*
X111909Y144488D02*
D03*
X116929D02*
D03*
X99213Y124409D02*
D03*
X79871Y52214D02*
D03*
X69439Y66435D02*
D03*
X65433Y66135D02*
D03*
X64764Y47047D02*
D03*
X64862Y49409D02*
D03*
X64468Y51673D02*
D03*
X73917Y45276D02*
D03*
X73594Y47025D02*
D03*
X73524Y49114D02*
D03*
X70910Y66138D02*
D03*
X77175Y44337D02*
D03*
X79652Y40382D02*
D03*
X79958Y42225D02*
D03*
X79962Y54468D02*
D03*
X80002Y57170D02*
D03*
X126673Y56988D02*
D03*
D119*
X130052Y118267D02*
D03*
X113548Y56620D02*
D03*
X44882Y43012D02*
D03*
X46740Y52949D02*
D03*
X46656Y56863D02*
D03*
X59524Y149330D02*
D03*
X61133Y163534D02*
D03*
X63281Y163687D02*
D03*
X66707Y170652D02*
D03*
X65100Y170685D02*
D03*
X78232Y148390D02*
D03*
X74500Y148135D02*
D03*
X73032Y149409D02*
D03*
X96653Y154134D02*
D03*
X70965Y171653D02*
D03*
X57284D02*
D03*
X42028Y65453D02*
D03*
X39961Y65551D02*
D03*
X38091D02*
D03*
X34154Y43307D02*
D03*
X71260Y148032D02*
D03*
X55512Y171654D02*
D03*
X25984Y104724D02*
D03*
D122*
X81226Y9954D02*
D03*
X60033Y14896D02*
D03*
D123*
X78839Y13386D02*
D03*
X86696Y46354D02*
D03*
X89961Y47933D02*
D03*
X99016Y107283D02*
D03*
X107263Y57406D02*
D03*
X122771Y120101D02*
D03*
X123409Y121555D02*
D03*
X94784Y57874D02*
D03*
X95371Y103543D02*
D03*
X118799Y62598D02*
D03*
X61122Y42028D02*
D03*
X86828Y58770D02*
D03*
X86910Y67126D02*
D03*
X90059Y98228D02*
D03*
X97199Y111113D02*
D03*
X97858Y112261D02*
D03*
X98233Y113522D02*
D03*
X98881Y114814D02*
D03*
X99436Y116084D02*
D03*
X75242Y95829D02*
D03*
X44580Y106068D02*
D03*
X67785Y129739D02*
D03*
X43028Y64546D02*
D03*
X46905Y124567D02*
D03*
X59760Y88050D02*
D03*
X63915Y89386D02*
D03*
X58829Y90623D02*
D03*
X56389Y93398D02*
D03*
X60656Y90641D02*
D03*
X60551Y93383D02*
D03*
X60452Y95970D02*
D03*
X58455Y95992D02*
D03*
X83267Y95866D02*
D03*
X57693Y56294D02*
D03*
X57751Y58017D02*
D03*
X55783Y89235D02*
D03*
X56380Y95958D02*
D03*
X57972Y61221D02*
D03*
X57579Y59449D02*
D03*
X49825Y90959D02*
D03*
X56050Y64030D02*
D03*
X52465Y51152D02*
D03*
X57874Y54626D02*
D03*
X50382Y93317D02*
D03*
X47157Y94235D02*
D03*
X54921Y50787D02*
D03*
X58071D02*
D03*
X54823Y48327D02*
D03*
X57972D02*
D03*
X61122D02*
D03*
Y45177D02*
D03*
X57972Y42028D02*
D03*
Y45177D02*
D03*
X54823D02*
D03*
X65355Y90748D02*
D03*
Y98424D02*
D03*
Y100983D02*
D03*
X78149Y111221D02*
D03*
X83267Y98425D02*
D03*
X62795Y93307D02*
D03*
X67914Y95866D02*
D03*
X62795D02*
D03*
X52559D02*
D03*
X50000D02*
D03*
X47441D02*
D03*
X80708Y98425D02*
D03*
X75590D02*
D03*
X62795D02*
D03*
X52559D02*
D03*
X55118D02*
D03*
X50000D02*
D03*
X47441D02*
D03*
X83267Y100984D02*
D03*
X52559D02*
D03*
X55118D02*
D03*
X47441D02*
D03*
X52559Y103543D02*
D03*
X55118D02*
D03*
X50000D02*
D03*
X47441D02*
D03*
X57677Y106102D02*
D03*
X55118D02*
D03*
X57677Y108662D02*
D03*
X55118D02*
D03*
X75590Y116338D02*
D03*
X52559D02*
D03*
X55118D02*
D03*
X67914Y118897D02*
D03*
X70472D02*
D03*
X73031D02*
D03*
X57677D02*
D03*
X60236D02*
D03*
X55118D02*
D03*
X67914Y121456D02*
D03*
X57677D02*
D03*
X62795D02*
D03*
X52559D02*
D03*
X55118D02*
D03*
X50000D02*
D03*
X47441D02*
D03*
X70472Y124015D02*
D03*
X52559D02*
D03*
X50000D02*
D03*
X62795Y126574D02*
D03*
M02*
