G04*
G04 #@! TF.GenerationSoftware,Altium Limited,Altium Designer,21.7.2 (23)*
G04*
G04 Layer_Color=8388736*
%FSLAX25Y25*%
%MOIN*%
G70*
G04*
G04 #@! TF.SameCoordinates,CC107787-991B-443C-84B7-B8317AFA6C2B*
G04*
G04*
G04 #@! TF.FilePolarity,Negative*
G04*
G01*
G75*
%ADD26R,0.03353X0.06896*%
%ADD27R,0.12998X0.07487*%
G04:AMPARAMS|DCode=28|XSize=43.37mil|YSize=82.74mil|CornerRadius=11.84mil|HoleSize=0mil|Usage=FLASHONLY|Rotation=270.000|XOffset=0mil|YOffset=0mil|HoleType=Round|Shape=RoundedRectangle|*
%AMROUNDEDRECTD28*
21,1,0.04337,0.05906,0,0,270.0*
21,1,0.01968,0.08274,0,0,270.0*
1,1,0.02368,-0.02953,-0.00984*
1,1,0.02368,-0.02953,0.00984*
1,1,0.02368,0.02953,0.00984*
1,1,0.02368,0.02953,-0.00984*
%
%ADD28ROUNDEDRECTD28*%
G04:AMPARAMS|DCode=29|XSize=38.19mil|YSize=42.13mil|CornerRadius=10.7mil|HoleSize=0mil|Usage=FLASHONLY|Rotation=270.000|XOffset=0mil|YOffset=0mil|HoleType=Round|Shape=RoundedRectangle|*
%AMROUNDEDRECTD29*
21,1,0.03819,0.02072,0,0,270.0*
21,1,0.01678,0.04213,0,0,270.0*
1,1,0.02141,-0.01036,-0.00839*
1,1,0.02141,-0.01036,0.00839*
1,1,0.02141,0.01036,0.00839*
1,1,0.02141,0.01036,-0.00839*
%
%ADD29ROUNDEDRECTD29*%
G04:AMPARAMS|DCode=30|XSize=29mil|YSize=39mil|CornerRadius=8.25mil|HoleSize=0mil|Usage=FLASHONLY|Rotation=180.000|XOffset=0mil|YOffset=0mil|HoleType=Round|Shape=RoundedRectangle|*
%AMROUNDEDRECTD30*
21,1,0.02900,0.02250,0,0,180.0*
21,1,0.01250,0.03900,0,0,180.0*
1,1,0.01650,-0.00625,0.01125*
1,1,0.01650,0.00625,0.01125*
1,1,0.01650,0.00625,-0.01125*
1,1,0.01650,-0.00625,-0.01125*
%
%ADD30ROUNDEDRECTD30*%
G04:AMPARAMS|DCode=31|XSize=28.74mil|YSize=26.77mil|CornerRadius=7.91mil|HoleSize=0mil|Usage=FLASHONLY|Rotation=180.000|XOffset=0mil|YOffset=0mil|HoleType=Round|Shape=RoundedRectangle|*
%AMROUNDEDRECTD31*
21,1,0.02874,0.01096,0,0,180.0*
21,1,0.01293,0.02677,0,0,180.0*
1,1,0.01581,-0.00647,0.00548*
1,1,0.01581,0.00647,0.00548*
1,1,0.01581,0.00647,-0.00548*
1,1,0.01581,-0.00647,-0.00548*
%
%ADD31ROUNDEDRECTD31*%
G04:AMPARAMS|DCode=32|XSize=43.37mil|YSize=43.37mil|CornerRadius=21.69mil|HoleSize=0mil|Usage=FLASHONLY|Rotation=0.000|XOffset=0mil|YOffset=0mil|HoleType=Round|Shape=RoundedRectangle|*
%AMROUNDEDRECTD32*
21,1,0.04337,0.00000,0,0,0.0*
21,1,0.00000,0.04337,0,0,0.0*
1,1,0.04337,0.00000,0.00000*
1,1,0.04337,0.00000,0.00000*
1,1,0.04337,0.00000,0.00000*
1,1,0.04337,0.00000,0.00000*
%
%ADD32ROUNDEDRECTD32*%
%ADD33C,0.21400*%
%ADD34C,0.07400*%
%ADD35O,0.06306X0.12211*%
%ADD36C,0.05124*%
%ADD37C,0.07191*%
D26*
X57300Y72047D02*
D03*
X62300D02*
D03*
X67300D02*
D03*
X72300D02*
D03*
X77300D02*
D03*
X82300D02*
D03*
X87300D02*
D03*
X92300D02*
D03*
Y105905D02*
D03*
X87300D02*
D03*
X82300D02*
D03*
X77300D02*
D03*
X72300D02*
D03*
X67300D02*
D03*
X62300D02*
D03*
X57300D02*
D03*
D27*
X128343Y112599D02*
D03*
Y90551D02*
D03*
X11808Y125196D02*
D03*
Y147244D02*
D03*
Y112599D02*
D03*
Y90551D02*
D03*
X128343Y125196D02*
D03*
Y147244D02*
D03*
D28*
X113383Y49999D02*
D03*
Y38188D02*
D03*
X36217Y50000D02*
D03*
Y38189D02*
D03*
D29*
X122044Y63779D02*
D03*
Y69882D02*
D03*
D30*
X121500Y6299D02*
D03*
X115500D02*
D03*
X28493Y6299D02*
D03*
X34493D02*
D03*
D31*
X48584Y107700D02*
D03*
X52009D02*
D03*
X101409Y107500D02*
D03*
X97984D02*
D03*
D32*
X24406Y16535D02*
D03*
X109446Y60630D02*
D03*
X114957Y171654D02*
D03*
X25194D02*
D03*
D33*
X127997Y163000D02*
D03*
X11997D02*
D03*
D34*
X16296Y6299D02*
D03*
Y16299D02*
D03*
Y26299D02*
D03*
Y36299D02*
D03*
Y46299D02*
D03*
Y56299D02*
D03*
Y66299D02*
D03*
Y76299D02*
D03*
X133855Y6299D02*
D03*
Y16299D02*
D03*
Y26299D02*
D03*
Y36299D02*
D03*
Y46299D02*
D03*
Y56299D02*
D03*
Y66299D02*
D03*
Y76299D02*
D03*
X6296Y6299D02*
D03*
Y16299D02*
D03*
Y26299D02*
D03*
Y36299D02*
D03*
Y46299D02*
D03*
Y56299D02*
D03*
Y66299D02*
D03*
Y76299D02*
D03*
D35*
X111615Y24015D02*
D03*
X38229D02*
D03*
D36*
X60863Y57086D02*
D03*
X64879Y61418D02*
D03*
X68894Y57086D02*
D03*
X72910Y61418D02*
D03*
X76926Y57086D02*
D03*
X80941Y61418D02*
D03*
X84957Y57086D02*
D03*
X88973Y61418D02*
D03*
D37*
X106690Y119370D02*
D03*
X96690D02*
D03*
X43265D02*
D03*
X33265D02*
D03*
Y164173D02*
D03*
X43265D02*
D03*
X96690D02*
D03*
X106690D02*
D03*
M02*
