G04*
G04 #@! TF.GenerationSoftware,Altium Limited,Altium Designer,21.7.2 (23)*
G04*
G04 Layer_Physical_Order=2*
G04 Layer_Color=16711680*
%FSLAX25Y25*%
%MOIN*%
G70*
G04*
G04 #@! TF.SameCoordinates,2ED69007-8404-4F84-9E22-07974BFFE74B*
G04*
G04*
G04 #@! TF.FilePolarity,Positive*
G04*
G01*
G75*
%ADD15C,0.00800*%
G04:AMPARAMS|DCode=21|XSize=39.37mil|YSize=78.74mil|CornerRadius=9.84mil|HoleSize=0mil|Usage=FLASHONLY|Rotation=270.000|XOffset=0mil|YOffset=0mil|HoleType=Round|Shape=RoundedRectangle|*
%AMROUNDEDRECTD21*
21,1,0.03937,0.05906,0,0,270.0*
21,1,0.01968,0.07874,0,0,270.0*
1,1,0.01968,-0.02953,-0.00984*
1,1,0.01968,-0.02953,0.00984*
1,1,0.01968,0.02953,0.00984*
1,1,0.01968,0.02953,-0.00984*
%
%ADD21ROUNDEDRECTD21*%
G04:AMPARAMS|DCode=24|XSize=24.8mil|YSize=22.84mil|CornerRadius=5.94mil|HoleSize=0mil|Usage=FLASHONLY|Rotation=0.000|XOffset=0mil|YOffset=0mil|HoleType=Round|Shape=RoundedRectangle|*
%AMROUNDEDRECTD24*
21,1,0.02480,0.01096,0,0,0.0*
21,1,0.01293,0.02284,0,0,0.0*
1,1,0.01187,0.00647,-0.00548*
1,1,0.01187,-0.00647,-0.00548*
1,1,0.01187,-0.00647,0.00548*
1,1,0.01187,0.00647,0.00548*
%
%ADD24ROUNDEDRECTD24*%
G04:AMPARAMS|DCode=25|XSize=39.37mil|YSize=39.37mil|CornerRadius=19.68mil|HoleSize=0mil|Usage=FLASHONLY|Rotation=0.000|XOffset=0mil|YOffset=0mil|HoleType=Round|Shape=RoundedRectangle|*
%AMROUNDEDRECTD25*
21,1,0.03937,0.00000,0,0,0.0*
21,1,0.00000,0.03937,0,0,0.0*
1,1,0.03937,0.00000,0.00000*
1,1,0.03937,0.00000,0.00000*
1,1,0.03937,0.00000,0.00000*
1,1,0.03937,0.00000,0.00000*
%
%ADD25ROUNDEDRECTD25*%
%ADD38C,0.02400*%
%ADD39C,0.01000*%
%ADD40C,0.07000*%
%ADD41C,0.21000*%
%ADD42O,0.05906X0.11811*%
%ADD43C,0.04724*%
%ADD44C,0.06791*%
%ADD45C,0.01800*%
%ADD46C,0.03000*%
%ADD47C,0.04000*%
%ADD48C,0.03600*%
%ADD49R,0.03150X0.03150*%
%ADD50R,0.07087X0.03346*%
G04:AMPARAMS|DCode=51|XSize=38.98mil|YSize=57.87mil|CornerRadius=9.94mil|HoleSize=0mil|Usage=FLASHONLY|Rotation=90.000|XOffset=0mil|YOffset=0mil|HoleType=Round|Shape=RoundedRectangle|*
%AMROUNDEDRECTD51*
21,1,0.03898,0.03800,0,0,90.0*
21,1,0.01910,0.05787,0,0,90.0*
1,1,0.01988,0.01900,0.00955*
1,1,0.01988,0.01900,-0.00955*
1,1,0.01988,-0.01900,-0.00955*
1,1,0.01988,-0.01900,0.00955*
%
%ADD51ROUNDEDRECTD51*%
G04:AMPARAMS|DCode=52|XSize=21.65mil|YSize=22.84mil|CornerRadius=5.52mil|HoleSize=0mil|Usage=FLASHONLY|Rotation=0.000|XOffset=0mil|YOffset=0mil|HoleType=Round|Shape=RoundedRectangle|*
%AMROUNDEDRECTD52*
21,1,0.02165,0.01179,0,0,0.0*
21,1,0.01061,0.02284,0,0,0.0*
1,1,0.01104,0.00531,-0.00590*
1,1,0.01104,-0.00531,-0.00590*
1,1,0.01104,-0.00531,0.00590*
1,1,0.01104,0.00531,0.00590*
%
%ADD52ROUNDEDRECTD52*%
%ADD53R,0.09252X0.06102*%
%ADD54R,0.06299X0.08858*%
G04:AMPARAMS|DCode=55|XSize=74.8mil|YSize=133.86mil|CornerRadius=18.7mil|HoleSize=0mil|Usage=FLASHONLY|Rotation=90.000|XOffset=0mil|YOffset=0mil|HoleType=Round|Shape=RoundedRectangle|*
%AMROUNDEDRECTD55*
21,1,0.07480,0.09646,0,0,90.0*
21,1,0.03740,0.13386,0,0,90.0*
1,1,0.03740,0.04823,0.01870*
1,1,0.03740,0.04823,-0.01870*
1,1,0.03740,-0.04823,-0.01870*
1,1,0.03740,-0.04823,0.01870*
%
%ADD55ROUNDEDRECTD55*%
G04:AMPARAMS|DCode=56|XSize=39.37mil|YSize=78.74mil|CornerRadius=9.84mil|HoleSize=0mil|Usage=FLASHONLY|Rotation=0.000|XOffset=0mil|YOffset=0mil|HoleType=Round|Shape=RoundedRectangle|*
%AMROUNDEDRECTD56*
21,1,0.03937,0.05906,0,0,0.0*
21,1,0.01968,0.07874,0,0,0.0*
1,1,0.01968,0.00984,-0.02953*
1,1,0.01968,-0.00984,-0.02953*
1,1,0.01968,-0.00984,0.02953*
1,1,0.01968,0.00984,0.02953*
%
%ADD56ROUNDEDRECTD56*%
%ADD57C,0.01500*%
%ADD58C,0.04000*%
%ADD59C,0.02000*%
G36*
X-62979Y145383D02*
X-63855Y145021D01*
X-65345Y144108D01*
X-66673Y142973D01*
X-67808Y141645D01*
X-68721Y140155D01*
X-69389Y138541D01*
X-69797Y136842D01*
X-69934Y135100D01*
X-69797Y133358D01*
X-69389Y131659D01*
X-68721Y130045D01*
X-67808Y128555D01*
X-66673Y127227D01*
X-65345Y126092D01*
X-63855Y125179D01*
X-62241Y124511D01*
X-60542Y124103D01*
X-58800Y123966D01*
X-57058Y124103D01*
X-55359Y124511D01*
X-53745Y125179D01*
X-52255Y126092D01*
X-50927Y127227D01*
X-49792Y128555D01*
X-48879Y130045D01*
X-48211Y131659D01*
X-48163Y131859D01*
X-47663Y131800D01*
Y-26880D01*
X-78693D01*
Y-13897D01*
X-78264Y-13640D01*
X-78048Y-13756D01*
X-76643Y-14182D01*
X-75182Y-14326D01*
X-73721Y-14182D01*
X-72316Y-13756D01*
X-71021Y-13064D01*
X-69887Y-12133D01*
X-68955Y-10998D01*
X-68263Y-9703D01*
X-67837Y-8298D01*
X-67693Y-6837D01*
Y-932D01*
X-67837Y529D01*
X-68263Y1934D01*
X-68955Y3229D01*
X-69887Y4364D01*
X-71021Y5295D01*
X-72316Y5987D01*
X-73721Y6413D01*
X-75182Y6557D01*
X-76643Y6413D01*
X-78048Y5987D01*
X-78264Y5871D01*
X-78693Y6128D01*
Y20919D01*
X-78771Y21309D01*
X-78992Y21640D01*
X-79323Y21861D01*
X-79713Y21939D01*
X-100423D01*
X-100495Y22424D01*
X-99201Y22816D01*
X-98009Y23453D01*
X-96964Y24311D01*
X-96107Y25356D01*
X-95470Y26548D01*
X-95298Y27113D01*
X-95185Y27147D01*
X-93993Y27784D01*
X-92948Y28642D01*
X-92091Y29687D01*
X-91454Y30879D01*
X-91061Y32172D01*
X-90929Y33518D01*
X-91061Y34863D01*
X-91454Y36156D01*
X-92091Y37348D01*
X-92948Y38393D01*
X-93993Y39251D01*
X-95185Y39888D01*
X-96479Y40280D01*
X-97824Y40413D01*
X-99169Y40280D01*
X-100463Y39888D01*
X-101655Y39251D01*
X-101840Y39099D01*
X-102025Y39251D01*
X-103217Y39888D01*
X-104511Y40280D01*
X-105856Y40413D01*
X-107201Y40280D01*
X-108495Y39888D01*
X-109687Y39251D01*
X-109871Y39099D01*
X-110056Y39251D01*
X-111248Y39888D01*
X-112542Y40280D01*
X-113887Y40413D01*
X-115232Y40280D01*
X-116526Y39888D01*
X-117718Y39251D01*
X-117903Y39099D01*
X-118087Y39251D01*
X-119279Y39888D01*
X-120573Y40280D01*
X-121918Y40413D01*
X-123263Y40280D01*
X-124557Y39888D01*
X-125749Y39251D01*
X-126794Y38393D01*
X-127105Y38014D01*
X-127604Y37989D01*
X-137663Y48047D01*
Y59009D01*
X-137247Y59286D01*
X-136491Y58973D01*
X-135003Y58777D01*
X-116420D01*
X-114933Y58973D01*
X-113546Y59548D01*
X-112355Y60461D01*
X-106377Y66439D01*
X-98934D01*
Y76439D01*
Y85401D01*
X-97601D01*
X-97029Y85327D01*
X-96468Y85401D01*
X-96100D01*
X-95288Y85508D01*
X-94515Y84873D01*
X-93143Y84140D01*
X-92493Y83943D01*
X-92371Y83458D01*
X-94411Y81418D01*
X-95293Y80269D01*
X-95847Y78931D01*
X-96036Y77495D01*
Y64843D01*
X-106832Y54048D01*
X-122050D01*
X-122093Y54070D01*
X-123224Y54413D01*
X-124400Y54529D01*
X-125576Y54413D01*
X-126707Y54070D01*
X-127750Y53513D01*
X-128663Y52763D01*
X-129413Y51850D01*
X-129970Y50807D01*
X-130313Y49676D01*
X-130429Y48500D01*
X-130313Y47324D01*
X-129970Y46193D01*
X-129413Y45151D01*
X-128663Y44237D01*
X-127750Y43487D01*
X-126707Y42930D01*
X-125576Y42587D01*
X-124400Y42471D01*
X-123224Y42587D01*
X-122093Y42930D01*
X-122050Y42952D01*
X-104534D01*
X-103098Y43142D01*
X-102748Y43286D01*
X-101707Y42730D01*
X-100576Y42387D01*
X-99400Y42271D01*
X-98224Y42387D01*
X-97093Y42730D01*
X-97050Y42753D01*
X-94600D01*
X-93164Y42942D01*
X-91826Y43496D01*
X-90677Y44377D01*
X-80023Y55031D01*
X-79142Y56180D01*
X-78588Y57518D01*
X-78399Y58954D01*
Y66439D01*
X-75902D01*
Y66865D01*
X-75010Y66982D01*
X-74989Y66991D01*
X-74968Y66982D01*
X-73649Y66809D01*
X-73505D01*
X-73020Y66745D01*
X-67509D01*
X-66772Y66842D01*
X-66025Y66940D01*
X-66023Y66940D01*
X-66021Y66941D01*
X-65496Y67158D01*
X-63768D01*
X-62337Y67347D01*
X-61002Y67900D01*
X-59857Y68779D01*
X-58978Y69924D01*
X-58425Y71258D01*
X-58237Y72690D01*
Y74658D01*
X-58425Y76090D01*
X-58978Y77424D01*
X-59122Y77612D01*
X-58978Y77799D01*
X-58425Y79133D01*
X-58237Y80565D01*
Y82533D01*
X-58425Y83965D01*
X-58978Y85299D01*
X-59857Y86444D01*
X-61002Y87324D01*
X-62337Y87876D01*
X-63768Y88065D01*
X-65493D01*
X-66021Y88283D01*
X-66023Y88283D01*
X-66025Y88284D01*
X-66772Y88382D01*
X-67509Y88479D01*
X-72344D01*
X-72642Y88881D01*
X-72326Y89922D01*
X-72173Y91470D01*
X-72326Y93018D01*
X-72777Y94506D01*
X-73510Y95878D01*
X-74099Y96595D01*
X-74001Y97592D01*
Y101332D01*
X-74124Y102581D01*
X-74488Y103781D01*
X-75080Y104888D01*
X-75876Y105858D01*
X-76846Y106654D01*
X-77952Y107246D01*
X-79153Y107610D01*
X-80402Y107733D01*
X-90048D01*
X-91297Y107610D01*
X-92497Y107246D01*
X-92669Y107154D01*
X-93258Y107406D01*
X-93634Y108312D01*
X-93131Y109525D01*
X-92942Y110959D01*
Y111182D01*
X-92442Y111352D01*
X-92095Y110899D01*
X-91495Y110439D01*
X-90797Y110150D01*
X-90048Y110051D01*
X-85825D01*
Y114816D01*
X-85225D01*
Y115416D01*
X-77507D01*
Y116686D01*
X-77606Y117435D01*
X-77895Y118133D01*
X-78355Y118733D01*
X-78955Y119193D01*
X-79653Y119482D01*
X-80402Y119581D01*
X-85470D01*
X-85737Y120081D01*
X-85696Y120143D01*
X-85582Y120713D01*
X-87843D01*
Y121913D01*
X-85582D01*
X-85696Y122483D01*
X-86048Y123010D01*
X-86575Y123362D01*
X-87197Y123486D01*
X-88029D01*
X-88297Y123986D01*
X-88260Y124041D01*
X-88137Y124659D01*
Y126145D01*
X-87836Y126537D01*
X-87574Y127169D01*
X-87485Y127848D01*
Y133249D01*
X-87257Y133423D01*
X-87083Y133651D01*
X-83131D01*
X-82957Y133423D01*
X-82122Y132783D01*
X-81467Y132512D01*
X-81378Y132149D01*
X-81380Y131935D01*
X-81779Y131339D01*
X-81932Y130565D01*
Y128212D01*
X-75918D01*
Y130565D01*
X-76072Y131339D01*
X-76510Y131995D01*
X-77167Y132434D01*
X-77610Y132522D01*
X-77735Y133057D01*
X-77257Y133423D01*
X-76617Y134258D01*
X-76214Y135230D01*
X-76077Y136273D01*
X-76214Y137316D01*
X-76617Y138288D01*
X-77257Y139123D01*
X-78092Y139763D01*
X-79064Y140166D01*
X-80107Y140303D01*
X-81150Y140166D01*
X-82122Y139763D01*
X-82957Y139123D01*
X-83131Y138895D01*
X-87083D01*
X-87257Y139123D01*
X-88092Y139763D01*
X-89064Y140166D01*
X-90107Y140303D01*
X-91150Y140166D01*
X-92122Y139763D01*
X-92957Y139123D01*
X-93597Y138288D01*
X-94000Y137316D01*
X-94137Y136273D01*
X-94000Y135230D01*
X-93597Y134258D01*
X-92957Y133423D01*
X-92729Y133249D01*
Y132596D01*
X-98946D01*
Y134895D01*
X-99033Y135104D01*
X-99103Y135318D01*
X-102170Y138897D01*
X-102194Y138909D01*
X-102204Y138933D01*
X-102412Y139020D01*
X-102613Y139121D01*
X-102639Y139113D01*
X-102663Y139123D01*
X-105895D01*
X-106354Y138933D01*
X-106544Y138474D01*
Y126810D01*
X-107044Y126710D01*
X-107157Y126982D01*
X-107573Y127525D01*
X-108117Y127942D01*
X-108749Y128203D01*
X-109428Y128293D01*
X-109864Y128235D01*
X-110364Y128588D01*
Y138474D01*
X-110554Y138933D01*
X-111013Y139123D01*
X-114245D01*
X-114269Y139113D01*
X-114295Y139121D01*
X-114496Y139020D01*
X-114704Y138933D01*
X-114714Y138909D01*
X-114738Y138897D01*
X-117805Y135318D01*
X-117875Y135104D01*
X-117962Y134895D01*
Y131376D01*
X-121759D01*
X-121780Y131409D01*
X-122175Y131673D01*
X-122641Y131765D01*
X-123934D01*
X-124400Y131673D01*
X-124746Y131441D01*
X-124917Y131697D01*
X-125444Y132049D01*
X-126066Y132173D01*
X-126113D01*
Y130000D01*
X-126713D01*
D01*
X-126113D01*
Y127827D01*
X-126066D01*
X-125444Y127951D01*
X-124917Y128303D01*
X-124746Y128559D01*
X-124400Y128328D01*
X-123934Y128235D01*
X-122641D01*
X-122175Y128328D01*
X-121780Y128591D01*
X-121759Y128624D01*
X-119353D01*
X-119279Y128133D01*
X-119911Y127871D01*
X-120454Y127454D01*
X-120871Y126911D01*
X-121133Y126279D01*
X-121222Y125600D01*
X-121133Y124921D01*
X-120871Y124289D01*
X-120454Y123746D01*
X-119911Y123329D01*
X-119279Y123067D01*
X-118600Y122978D01*
X-117921Y123067D01*
X-117289Y123329D01*
X-116928Y123606D01*
X-114738Y121051D01*
X-114714Y121039D01*
X-114704Y121015D01*
X-114496Y120929D01*
X-114295Y120826D01*
X-114269Y120835D01*
X-114245Y120825D01*
X-111013D01*
X-110554Y121015D01*
X-110364Y121474D01*
Y122752D01*
X-109864Y123105D01*
X-109428Y123048D01*
X-108749Y123137D01*
X-108117Y123399D01*
X-107573Y123816D01*
X-107157Y124359D01*
X-107044Y124630D01*
X-106544Y124531D01*
Y121474D01*
X-106354Y121015D01*
X-105895Y120825D01*
X-102663D01*
X-102639Y120835D01*
X-102613Y120826D01*
X-102412Y120929D01*
X-102204Y121015D01*
X-102194Y121039D01*
X-102170Y121051D01*
X-99103Y124630D01*
X-99033Y124844D01*
X-98946Y125053D01*
Y127352D01*
X-93336D01*
Y124659D01*
X-93213Y124041D01*
X-92863Y123517D01*
X-92645Y123372D01*
Y122809D01*
X-92776Y122722D01*
X-93040Y122327D01*
X-93132Y121861D01*
Y120765D01*
X-93040Y120299D01*
X-92776Y119904D01*
X-92381Y119641D01*
X-91915Y119548D01*
X-91854D01*
X-91684Y119048D01*
X-92095Y118733D01*
X-92555Y118133D01*
X-92844Y117435D01*
X-92943Y116686D01*
Y115156D01*
X-93443Y115056D01*
X-93685Y115640D01*
X-94565Y116788D01*
X-95713Y117668D01*
X-97049Y118222D01*
X-98484Y118411D01*
X-102283D01*
X-103717Y118222D01*
X-105054Y117668D01*
X-105323Y117462D01*
X-105349D01*
X-105618Y117668D01*
X-106954Y118222D01*
X-108389Y118411D01*
X-112188D01*
X-113622Y118222D01*
X-114959Y117668D01*
X-116106Y116788D01*
X-116294Y116543D01*
X-116794D01*
X-116982Y116788D01*
X-118130Y117668D01*
X-119466Y118222D01*
X-120900Y118411D01*
X-124700D01*
X-126134Y118222D01*
X-127471Y117668D01*
X-127799Y117416D01*
X-129680D01*
X-129948Y117623D01*
X-131285Y118176D01*
X-132719Y118365D01*
X-136519D01*
X-137953Y118176D01*
X-139289Y117623D01*
X-140437Y116742D01*
X-140814Y116251D01*
X-141287Y116412D01*
Y116686D01*
X-141386Y117435D01*
X-141675Y118133D01*
X-142135Y118733D01*
X-142735Y119193D01*
X-143433Y119482D01*
X-144182Y119581D01*
X-148405D01*
Y114816D01*
Y110051D01*
X-144182D01*
X-143433Y110150D01*
X-142735Y110439D01*
X-142523Y110601D01*
X-141990Y110380D01*
X-141871Y109480D01*
X-141369Y108266D01*
X-141785Y107262D01*
X-142933Y107610D01*
X-144182Y107733D01*
X-153828D01*
X-155077Y107610D01*
X-156278Y107246D01*
X-157384Y106654D01*
X-158354Y105858D01*
X-159150Y104888D01*
X-159742Y103781D01*
X-160106Y102581D01*
X-160229Y101332D01*
Y97592D01*
X-160106Y96343D01*
X-160009Y96024D01*
X-160129Y95878D01*
X-160862Y94506D01*
X-161245Y93242D01*
X-161745Y93317D01*
Y94344D01*
X-161899Y95118D01*
X-162338Y95775D01*
X-162994Y96213D01*
X-163768Y96367D01*
X-166121D01*
Y93360D01*
Y90352D01*
X-163768D01*
X-162994Y90507D01*
X-162338Y90945D01*
X-161960Y91510D01*
X-161623Y91483D01*
X-161533Y91454D01*
X-161461Y91425D01*
X-161313Y89922D01*
X-160997Y88881D01*
X-161295Y88479D01*
X-165934D01*
X-167422Y88283D01*
X-167950Y88065D01*
X-169674D01*
X-171105Y87876D01*
X-172440Y87324D01*
X-173585Y86444D01*
X-174464Y85299D01*
X-175017Y83965D01*
X-175205Y82533D01*
Y80565D01*
X-175017Y79133D01*
X-174464Y77799D01*
X-174320Y77612D01*
X-174464Y77424D01*
X-175017Y76090D01*
X-175205Y74658D01*
Y72690D01*
X-175017Y71258D01*
X-174464Y69924D01*
X-173585Y68779D01*
X-172440Y67900D01*
X-171105Y67347D01*
X-169674Y67158D01*
X-167947D01*
X-167422Y66941D01*
X-165934Y66745D01*
X-160422D01*
X-159937Y66809D01*
X-159794D01*
X-158513Y66977D01*
X-158407Y66948D01*
X-158033Y66759D01*
Y65139D01*
X-154540D01*
Y58524D01*
X-155040Y58317D01*
X-156151Y59429D01*
X-156137Y59502D01*
X-156253Y60087D01*
X-156585Y60583D01*
X-157081Y60915D01*
X-157666Y61031D01*
X-158251Y60915D01*
X-158747Y60583D01*
X-159079Y60087D01*
X-159195Y59502D01*
X-159079Y58917D01*
X-158747Y58421D01*
X-158424Y58205D01*
X-158421Y58195D01*
Y57659D01*
X-158424Y57649D01*
X-158747Y57433D01*
X-159079Y56937D01*
X-159195Y56352D01*
X-159079Y55767D01*
X-158747Y55271D01*
X-158686Y55229D01*
Y22128D01*
X-160743Y20072D01*
X-160816Y20086D01*
X-161401Y19970D01*
X-161897Y19638D01*
X-162229Y19142D01*
X-162345Y18557D01*
X-162229Y17972D01*
X-161897Y17476D01*
X-161401Y17144D01*
X-160816Y17028D01*
X-160231Y17144D01*
X-159735Y17476D01*
X-159403Y17972D01*
X-159287Y18557D01*
X-159301Y18630D01*
X-156945Y20985D01*
X-156945Y20985D01*
X-156945Y20985D01*
X-156917Y21028D01*
X-156488Y20921D01*
X-156417Y20876D01*
Y14161D01*
X-160743Y9835D01*
X-160816Y9849D01*
X-161401Y9733D01*
X-161897Y9401D01*
X-162229Y8905D01*
X-162345Y8320D01*
X-162229Y7735D01*
X-161897Y7239D01*
X-161401Y6907D01*
X-160816Y6791D01*
X-160231Y6907D01*
X-159735Y7239D01*
X-159403Y7735D01*
X-159287Y8320D01*
X-159301Y8393D01*
X-154676Y13018D01*
X-154455Y13349D01*
X-154377Y13739D01*
Y44018D01*
X-153877Y44118D01*
X-153865Y44086D01*
X-153063Y43042D01*
X-132422Y22400D01*
X-132613Y21939D01*
X-144280D01*
X-144670Y21861D01*
X-145001Y21640D01*
X-145222Y21309D01*
X-145300Y20919D01*
Y6254D01*
X-145800Y6017D01*
X-147107Y6413D01*
X-148568Y6557D01*
X-150029Y6413D01*
X-151434Y5987D01*
X-152729Y5295D01*
X-153863Y4364D01*
X-154795Y3229D01*
X-155487Y1934D01*
X-155913Y529D01*
X-156057Y-932D01*
Y-6837D01*
X-155913Y-8298D01*
X-155487Y-9703D01*
X-154795Y-10998D01*
X-153863Y-12133D01*
X-152729Y-13064D01*
X-151434Y-13756D01*
X-150029Y-14182D01*
X-148568Y-14326D01*
X-147107Y-14182D01*
X-145800Y-13786D01*
X-145300Y-14023D01*
Y-26880D01*
X-185780D01*
Y131297D01*
X-185280Y131396D01*
X-184721Y130045D01*
X-183808Y128555D01*
X-182673Y127227D01*
X-181345Y126092D01*
X-179855Y125179D01*
X-178241Y124511D01*
X-176542Y124103D01*
X-174800Y123966D01*
X-173058Y124103D01*
X-171359Y124511D01*
X-169745Y125179D01*
X-168255Y126092D01*
X-166927Y127227D01*
X-165792Y128555D01*
X-164879Y130045D01*
X-164211Y131659D01*
X-163803Y133358D01*
X-163666Y135100D01*
X-163803Y136842D01*
X-164211Y138541D01*
X-164879Y140155D01*
X-165792Y141645D01*
X-166927Y142973D01*
X-168255Y144108D01*
X-169745Y145021D01*
X-170621Y145383D01*
X-170521Y145883D01*
X-163837D01*
X-163590Y145383D01*
X-163847Y145049D01*
X-164105Y144424D01*
X-164194Y143754D01*
X-164105Y143084D01*
X-163847Y142459D01*
X-163435Y141922D01*
X-162898Y141510D01*
X-162274Y141252D01*
X-161603Y141163D01*
X-160933Y141252D01*
X-160308Y141510D01*
X-159771Y141922D01*
X-159359Y142459D01*
X-159101Y143084D01*
X-159012Y143754D01*
X-159101Y144424D01*
X-159359Y145049D01*
X-159616Y145383D01*
X-159369Y145883D01*
X-74073D01*
X-73826Y145383D01*
X-74083Y145048D01*
X-74342Y144424D01*
X-74430Y143753D01*
X-74342Y143083D01*
X-74083Y142458D01*
X-73671Y141921D01*
X-73135Y141510D01*
X-72510Y141251D01*
X-71839Y141163D01*
X-71169Y141251D01*
X-70544Y141510D01*
X-70007Y141921D01*
X-69596Y142458D01*
X-69337Y143083D01*
X-69249Y143753D01*
X-69337Y144424D01*
X-69596Y145048D01*
X-69853Y145383D01*
X-69606Y145883D01*
X-63079D01*
X-62979Y145383D01*
D02*
G37*
G36*
X-99596Y134895D02*
Y125053D01*
X-102663Y121474D01*
X-105895D01*
Y138474D01*
X-102663D01*
X-99596Y134895D01*
D02*
G37*
G36*
X-111013Y121474D02*
X-114245D01*
X-117312Y125053D01*
Y134895D01*
X-114245Y138474D01*
X-111013D01*
Y121474D01*
D02*
G37*
%LPC*%
G36*
X-142932Y140627D02*
Y136873D01*
X-139178D01*
X-139250Y137420D01*
X-139692Y138490D01*
X-140397Y139408D01*
X-141315Y140112D01*
X-142385Y140555D01*
X-142932Y140627D01*
D02*
G37*
G36*
X-152932D02*
Y136873D01*
X-149178D01*
X-149250Y137420D01*
X-149692Y138490D01*
X-150397Y139408D01*
X-151315Y140112D01*
X-152384Y140555D01*
X-152932Y140627D01*
D02*
G37*
G36*
X-144132D02*
X-144679Y140555D01*
X-145749Y140112D01*
X-146667Y139408D01*
X-147371Y138490D01*
X-147814Y137420D01*
X-147886Y136873D01*
X-144132D01*
Y140627D01*
D02*
G37*
G36*
X-154132D02*
X-154680Y140555D01*
X-155749Y140112D01*
X-156667Y139408D01*
X-157371Y138490D01*
X-157814Y137420D01*
X-157886Y136873D01*
X-154132D01*
Y140627D01*
D02*
G37*
G36*
X-139178Y135673D02*
X-142932D01*
Y131919D01*
X-142385Y131991D01*
X-141315Y132433D01*
X-140397Y133138D01*
X-139692Y134056D01*
X-139250Y135126D01*
X-139178Y135673D01*
D02*
G37*
G36*
X-149178D02*
X-152932D01*
Y131919D01*
X-152384Y131991D01*
X-151315Y132433D01*
X-150397Y133138D01*
X-149692Y134056D01*
X-149250Y135126D01*
X-149178Y135673D01*
D02*
G37*
G36*
X-144132D02*
X-147886D01*
X-147814Y135126D01*
X-147371Y134056D01*
X-146667Y133138D01*
X-145749Y132433D01*
X-144679Y131991D01*
X-144132Y131919D01*
Y135673D01*
D02*
G37*
G36*
X-154132D02*
X-157886D01*
X-157814Y135126D01*
X-157371Y134056D01*
X-156667Y133138D01*
X-155749Y132433D01*
X-154680Y131991D01*
X-154132Y131919D01*
Y135673D01*
D02*
G37*
G36*
X-127313Y132173D02*
X-127359D01*
X-127981Y132049D01*
X-128508Y131697D01*
X-128860Y131170D01*
X-128974Y130600D01*
X-127313D01*
Y132173D01*
D02*
G37*
G36*
Y129400D02*
X-128974D01*
X-128860Y128830D01*
X-128508Y128303D01*
X-127981Y127951D01*
X-127359Y127827D01*
X-127313D01*
Y129400D01*
D02*
G37*
G36*
X-75918Y127012D02*
X-78325D01*
Y122636D01*
X-77941D01*
X-77167Y122790D01*
X-76510Y123229D01*
X-76072Y123885D01*
X-75918Y124659D01*
Y127012D01*
D02*
G37*
G36*
X-79525D02*
X-81932D01*
Y124659D01*
X-81779Y123885D01*
X-81340Y123229D01*
X-80684Y122790D01*
X-79909Y122636D01*
X-79525D01*
Y127012D01*
D02*
G37*
G36*
X-149605Y119581D02*
X-153828D01*
X-154577Y119482D01*
X-155275Y119193D01*
X-155875Y118733D01*
X-156335Y118133D01*
X-156624Y117435D01*
X-156723Y116686D01*
Y115416D01*
X-149605D01*
Y119581D01*
D02*
G37*
G36*
X-77507Y114216D02*
X-84625D01*
Y110051D01*
X-80402D01*
X-79653Y110150D01*
X-78955Y110439D01*
X-78355Y110899D01*
X-77895Y111499D01*
X-77606Y112197D01*
X-77507Y112946D01*
Y114216D01*
D02*
G37*
G36*
X-149605D02*
X-156723D01*
Y112946D01*
X-156624Y112197D01*
X-156335Y111499D01*
X-155875Y110899D01*
X-155275Y110439D01*
X-154577Y110150D01*
X-153828Y110051D01*
X-149605D01*
Y114216D01*
D02*
G37*
G36*
X-63768Y96367D02*
X-66121D01*
Y93960D01*
X-61745D01*
Y94344D01*
X-61899Y95118D01*
X-62338Y95775D01*
X-62994Y96213D01*
X-63768Y96367D01*
D02*
G37*
G36*
X-67321D02*
X-69674D01*
X-70448Y96213D01*
X-71104Y95775D01*
X-71543Y95118D01*
X-71697Y94344D01*
Y93960D01*
X-67321D01*
Y96367D01*
D02*
G37*
G36*
X-167321D02*
X-169674D01*
X-170448Y96213D01*
X-171104Y95775D01*
X-171543Y95118D01*
X-171697Y94344D01*
Y93960D01*
X-167321D01*
Y96367D01*
D02*
G37*
G36*
X-61745Y92760D02*
X-66121D01*
Y90352D01*
X-63768D01*
X-62994Y90507D01*
X-62338Y90945D01*
X-61899Y91601D01*
X-61745Y92376D01*
Y92760D01*
D02*
G37*
G36*
X-67321D02*
X-71697D01*
Y92376D01*
X-71543Y91601D01*
X-71104Y90945D01*
X-70448Y90507D01*
X-69674Y90352D01*
X-67321D01*
Y92760D01*
D02*
G37*
G36*
X-167321D02*
X-171697D01*
Y92376D01*
X-171543Y91601D01*
X-171104Y90945D01*
X-170448Y90507D01*
X-169674Y90352D01*
X-167321D01*
Y92760D01*
D02*
G37*
G36*
X-53729Y93445D02*
X-54665Y93259D01*
X-55459Y92728D01*
X-55990Y91934D01*
X-56176Y90998D01*
X-55990Y90062D01*
X-55459Y89268D01*
X-54665Y88737D01*
X-53729Y88551D01*
X-52793Y88737D01*
X-51999Y89268D01*
X-51468Y90062D01*
X-51282Y90998D01*
X-51468Y91934D01*
X-51999Y92728D01*
X-52793Y93259D01*
X-53729Y93445D01*
D02*
G37*
G36*
X-179713D02*
X-180649Y93259D01*
X-181443Y92728D01*
X-181974Y91934D01*
X-182160Y90998D01*
X-181974Y90062D01*
X-181443Y89268D01*
X-180649Y88737D01*
X-179713Y88551D01*
X-178777Y88737D01*
X-177983Y89268D01*
X-177452Y90062D01*
X-177266Y90998D01*
X-177452Y91934D01*
X-177983Y92728D01*
X-178777Y93259D01*
X-179713Y93445D01*
D02*
G37*
G36*
X-63768Y64871D02*
X-66121D01*
Y62463D01*
X-61745D01*
Y62847D01*
X-61899Y63622D01*
X-62338Y64278D01*
X-62994Y64717D01*
X-63768Y64871D01*
D02*
G37*
G36*
X-163768D02*
X-166121D01*
Y62463D01*
X-161745D01*
Y62847D01*
X-161899Y63622D01*
X-162338Y64278D01*
X-162994Y64717D01*
X-163768Y64871D01*
D02*
G37*
G36*
X-67321D02*
X-69674D01*
X-70448Y64717D01*
X-71104Y64278D01*
X-71543Y63622D01*
X-71697Y62847D01*
Y62463D01*
X-67321D01*
Y64871D01*
D02*
G37*
G36*
X-167321D02*
X-169674D01*
X-170448Y64717D01*
X-171104Y64278D01*
X-171543Y63622D01*
X-171697Y62847D01*
Y62463D01*
X-167321D01*
Y64871D01*
D02*
G37*
G36*
X-61745Y61263D02*
X-66121D01*
Y58856D01*
X-63768D01*
X-62994Y59010D01*
X-62338Y59448D01*
X-61899Y60105D01*
X-61745Y60879D01*
Y61263D01*
D02*
G37*
G36*
X-67321D02*
X-71697D01*
Y60879D01*
X-71543Y60105D01*
X-71104Y59448D01*
X-70448Y59010D01*
X-69674Y58856D01*
X-67321D01*
Y61263D01*
D02*
G37*
G36*
X-161745D02*
X-166121D01*
Y58856D01*
X-163768D01*
X-162994Y59010D01*
X-162338Y59448D01*
X-161899Y60105D01*
X-161745Y60879D01*
Y61263D01*
D02*
G37*
G36*
X-167321D02*
X-171697D01*
Y60879D01*
X-171543Y60105D01*
X-171104Y59448D01*
X-170448Y59010D01*
X-169674Y58856D01*
X-167321D01*
Y61263D01*
D02*
G37*
G36*
X-52942Y52534D02*
X-54012Y52394D01*
X-55010Y51980D01*
X-55866Y51323D01*
X-56523Y50467D01*
X-56937Y49469D01*
X-57077Y48399D01*
X-56937Y47329D01*
X-56523Y46331D01*
X-55866Y45475D01*
X-55010Y44818D01*
X-54012Y44405D01*
X-52942Y44264D01*
X-51872Y44405D01*
X-50874Y44818D01*
X-50018Y45475D01*
X-49361Y46331D01*
X-48948Y47329D01*
X-48807Y48399D01*
X-48948Y49469D01*
X-49361Y50467D01*
X-50018Y51323D01*
X-50874Y51980D01*
X-51872Y52394D01*
X-52942Y52534D01*
D02*
G37*
G36*
X-170501D02*
X-171571Y52394D01*
X-172569Y51980D01*
X-173425Y51323D01*
X-174082Y50467D01*
X-174495Y49469D01*
X-174636Y48399D01*
X-174495Y47329D01*
X-174082Y46331D01*
X-173425Y45475D01*
X-172569Y44818D01*
X-171571Y44405D01*
X-170501Y44264D01*
X-169431Y44405D01*
X-168433Y44818D01*
X-167577Y45475D01*
X-166920Y46331D01*
X-166507Y47329D01*
X-166366Y48399D01*
X-166507Y49469D01*
X-166920Y50467D01*
X-167577Y51323D01*
X-168433Y51980D01*
X-169431Y52394D01*
X-170501Y52534D01*
D02*
G37*
G36*
X-180501D02*
X-181571Y52394D01*
X-182569Y51980D01*
X-183425Y51323D01*
X-184082Y50467D01*
X-184495Y49469D01*
X-184636Y48399D01*
X-184495Y47329D01*
X-184082Y46331D01*
X-183425Y45475D01*
X-182569Y44818D01*
X-181571Y44405D01*
X-180501Y44264D01*
X-179431Y44405D01*
X-178433Y44818D01*
X-177577Y45475D01*
X-176920Y46331D01*
X-176506Y47329D01*
X-176366Y48399D01*
X-176506Y49469D01*
X-176920Y50467D01*
X-177577Y51323D01*
X-178433Y51980D01*
X-179431Y52394D01*
X-180501Y52534D01*
D02*
G37*
G36*
X-52942Y42534D02*
X-54012Y42393D01*
X-55010Y41980D01*
X-55866Y41323D01*
X-56523Y40467D01*
X-56937Y39469D01*
X-57077Y38399D01*
X-56937Y37329D01*
X-56523Y36331D01*
X-55866Y35475D01*
X-55010Y34818D01*
X-54012Y34405D01*
X-52942Y34264D01*
X-51872Y34405D01*
X-50874Y34818D01*
X-50018Y35475D01*
X-49361Y36331D01*
X-48948Y37329D01*
X-48807Y38399D01*
X-48948Y39469D01*
X-49361Y40467D01*
X-50018Y41323D01*
X-50874Y41980D01*
X-51872Y42393D01*
X-52942Y42534D01*
D02*
G37*
G36*
X-170501D02*
X-171571Y42393D01*
X-172569Y41980D01*
X-173425Y41323D01*
X-174082Y40467D01*
X-174495Y39469D01*
X-174636Y38399D01*
X-174495Y37329D01*
X-174082Y36331D01*
X-173425Y35475D01*
X-172569Y34818D01*
X-171571Y34405D01*
X-170501Y34264D01*
X-169431Y34405D01*
X-168433Y34818D01*
X-167577Y35475D01*
X-166920Y36331D01*
X-166507Y37329D01*
X-166366Y38399D01*
X-166507Y39469D01*
X-166920Y40467D01*
X-167577Y41323D01*
X-168433Y41980D01*
X-169431Y42393D01*
X-170501Y42534D01*
D02*
G37*
G36*
X-180501D02*
X-181571Y42393D01*
X-182569Y41980D01*
X-183425Y41323D01*
X-184082Y40467D01*
X-184495Y39469D01*
X-184636Y38399D01*
X-184495Y37329D01*
X-184082Y36331D01*
X-183425Y35475D01*
X-182569Y34818D01*
X-181571Y34405D01*
X-180501Y34264D01*
X-179431Y34405D01*
X-178433Y34818D01*
X-177577Y35475D01*
X-176920Y36331D01*
X-176506Y37329D01*
X-176366Y38399D01*
X-176506Y39469D01*
X-176920Y40467D01*
X-177577Y41323D01*
X-178433Y41980D01*
X-179431Y42393D01*
X-180501Y42534D01*
D02*
G37*
G36*
X-64753Y50925D02*
X-65689Y50739D01*
X-66483Y50208D01*
X-67014Y49414D01*
X-67200Y48478D01*
X-67014Y47542D01*
X-66588Y46905D01*
Y41106D01*
X-68502D01*
Y31048D01*
X-61004D01*
Y41106D01*
X-62918D01*
Y46905D01*
X-62492Y47542D01*
X-62306Y48478D01*
X-62492Y49414D01*
X-63023Y50208D01*
X-63817Y50739D01*
X-64753Y50925D01*
D02*
G37*
G36*
X-52942Y32534D02*
X-54012Y32394D01*
X-55010Y31980D01*
X-55866Y31323D01*
X-56523Y30467D01*
X-56937Y29469D01*
X-57077Y28399D01*
X-56937Y27329D01*
X-56523Y26331D01*
X-55866Y25475D01*
X-55010Y24818D01*
X-54012Y24405D01*
X-52942Y24264D01*
X-51872Y24405D01*
X-50874Y24818D01*
X-50018Y25475D01*
X-49361Y26331D01*
X-48948Y27329D01*
X-48807Y28399D01*
X-48948Y29469D01*
X-49361Y30467D01*
X-50018Y31323D01*
X-50874Y31980D01*
X-51872Y32394D01*
X-52942Y32534D01*
D02*
G37*
G36*
X-170501D02*
X-171571Y32394D01*
X-172569Y31980D01*
X-173425Y31323D01*
X-174082Y30467D01*
X-174495Y29469D01*
X-174636Y28399D01*
X-174495Y27329D01*
X-174082Y26331D01*
X-173425Y25475D01*
X-172569Y24818D01*
X-171571Y24405D01*
X-170501Y24264D01*
X-169431Y24405D01*
X-168433Y24818D01*
X-167577Y25475D01*
X-166920Y26331D01*
X-166507Y27329D01*
X-166366Y28399D01*
X-166507Y29469D01*
X-166920Y30467D01*
X-167577Y31323D01*
X-168433Y31980D01*
X-169431Y32394D01*
X-170501Y32534D01*
D02*
G37*
G36*
X-180501D02*
X-181571Y32394D01*
X-182569Y31980D01*
X-183425Y31323D01*
X-184082Y30467D01*
X-184495Y29469D01*
X-184636Y28399D01*
X-184495Y27329D01*
X-184082Y26331D01*
X-183425Y25475D01*
X-182569Y24818D01*
X-181571Y24405D01*
X-180501Y24264D01*
X-179431Y24405D01*
X-178433Y24818D01*
X-177577Y25475D01*
X-176920Y26331D01*
X-176506Y27329D01*
X-176366Y28399D01*
X-176506Y29469D01*
X-176920Y30467D01*
X-177577Y31323D01*
X-178433Y31980D01*
X-179431Y32394D01*
X-180501Y32534D01*
D02*
G37*
G36*
X-52942Y22534D02*
X-54012Y22393D01*
X-55010Y21980D01*
X-55866Y21323D01*
X-56523Y20467D01*
X-56937Y19469D01*
X-57077Y18399D01*
X-56937Y17329D01*
X-56523Y16331D01*
X-55866Y15475D01*
X-55010Y14818D01*
X-54012Y14404D01*
X-52942Y14264D01*
X-51872Y14404D01*
X-50874Y14818D01*
X-50018Y15475D01*
X-49361Y16331D01*
X-48948Y17329D01*
X-48807Y18399D01*
X-48948Y19469D01*
X-49361Y20467D01*
X-50018Y21323D01*
X-50874Y21980D01*
X-51872Y22393D01*
X-52942Y22534D01*
D02*
G37*
G36*
X-170501D02*
X-171571Y22393D01*
X-172569Y21980D01*
X-173425Y21323D01*
X-174082Y20467D01*
X-174495Y19469D01*
X-174636Y18399D01*
X-174495Y17329D01*
X-174082Y16331D01*
X-173425Y15475D01*
X-172569Y14818D01*
X-171571Y14404D01*
X-170501Y14264D01*
X-169431Y14404D01*
X-168433Y14818D01*
X-167577Y15475D01*
X-166920Y16331D01*
X-166507Y17329D01*
X-166366Y18399D01*
X-166507Y19469D01*
X-166920Y20467D01*
X-167577Y21323D01*
X-168433Y21980D01*
X-169431Y22393D01*
X-170501Y22534D01*
D02*
G37*
G36*
X-180501D02*
X-181571Y22393D01*
X-182569Y21980D01*
X-183425Y21323D01*
X-184082Y20467D01*
X-184495Y19469D01*
X-184636Y18399D01*
X-184495Y17329D01*
X-184082Y16331D01*
X-183425Y15475D01*
X-182569Y14818D01*
X-181571Y14404D01*
X-180501Y14264D01*
X-179431Y14404D01*
X-178433Y14818D01*
X-177577Y15475D01*
X-176920Y16331D01*
X-176506Y17329D01*
X-176366Y18399D01*
X-176506Y19469D01*
X-176920Y20467D01*
X-177577Y21323D01*
X-178433Y21980D01*
X-179431Y22393D01*
X-180501Y22534D01*
D02*
G37*
G36*
X-61004Y24964D02*
X-68502D01*
Y14906D01*
X-62319D01*
X-60682Y13269D01*
Y-5695D01*
X-60603Y-6092D01*
X-60543Y-6397D01*
X-60543Y-6397D01*
X-60543Y-6397D01*
X-60352Y-6682D01*
X-60145Y-6993D01*
X-56840Y-10298D01*
X-56937Y-10531D01*
X-57077Y-11601D01*
X-56937Y-12671D01*
X-56523Y-13669D01*
X-55866Y-14525D01*
X-55010Y-15182D01*
X-54012Y-15596D01*
X-52942Y-15736D01*
X-51872Y-15596D01*
X-50874Y-15182D01*
X-50018Y-14525D01*
X-49361Y-13669D01*
X-48948Y-12671D01*
X-48807Y-11601D01*
X-48948Y-10531D01*
X-49361Y-9533D01*
X-50018Y-8677D01*
X-50874Y-8020D01*
X-51872Y-7606D01*
X-52942Y-7466D01*
X-54012Y-7606D01*
X-54244Y-7703D01*
X-57012Y-4935D01*
Y-3796D01*
X-56561Y-3679D01*
X-56512Y-3684D01*
X-55866Y-4525D01*
X-55010Y-5182D01*
X-54012Y-5596D01*
X-52942Y-5736D01*
X-51872Y-5596D01*
X-50874Y-5182D01*
X-50018Y-4525D01*
X-49361Y-3669D01*
X-48948Y-2671D01*
X-48807Y-1601D01*
X-48948Y-531D01*
X-49361Y467D01*
X-50018Y1323D01*
X-50874Y1980D01*
X-51872Y2393D01*
X-52942Y2534D01*
X-54012Y2393D01*
X-55010Y1980D01*
X-55866Y1323D01*
X-56512Y482D01*
X-56561Y477D01*
X-57012Y594D01*
Y6204D01*
X-56561Y6321D01*
X-56512Y6316D01*
X-55866Y5475D01*
X-55010Y4818D01*
X-54012Y4405D01*
X-52942Y4264D01*
X-51872Y4405D01*
X-50874Y4818D01*
X-50018Y5475D01*
X-49361Y6331D01*
X-48948Y7329D01*
X-48807Y8399D01*
X-48948Y9469D01*
X-49361Y10467D01*
X-50018Y11323D01*
X-50874Y11980D01*
X-51872Y12393D01*
X-52942Y12534D01*
X-54012Y12393D01*
X-55010Y11980D01*
X-55866Y11323D01*
X-56512Y10482D01*
X-56561Y10477D01*
X-57012Y10594D01*
Y14029D01*
X-57151Y14731D01*
X-57549Y15327D01*
X-61004Y18781D01*
Y24964D01*
D02*
G37*
G36*
X-170501Y12534D02*
X-171571Y12393D01*
X-172569Y11980D01*
X-173425Y11323D01*
X-174082Y10467D01*
X-174495Y9469D01*
X-174636Y8399D01*
X-174495Y7329D01*
X-174082Y6331D01*
X-173425Y5475D01*
X-172569Y4818D01*
X-171571Y4405D01*
X-170501Y4264D01*
X-169431Y4405D01*
X-168433Y4818D01*
X-167577Y5475D01*
X-166920Y6331D01*
X-166507Y7329D01*
X-166366Y8399D01*
X-166507Y9469D01*
X-166920Y10467D01*
X-167577Y11323D01*
X-168433Y11980D01*
X-169431Y12393D01*
X-170501Y12534D01*
D02*
G37*
G36*
X-180501D02*
X-181571Y12393D01*
X-182569Y11980D01*
X-183425Y11323D01*
X-184082Y10467D01*
X-184495Y9469D01*
X-184636Y8399D01*
X-184495Y7329D01*
X-184082Y6331D01*
X-183425Y5475D01*
X-182569Y4818D01*
X-181571Y4405D01*
X-180501Y4264D01*
X-179431Y4405D01*
X-178433Y4818D01*
X-177577Y5475D01*
X-176920Y6331D01*
X-176506Y7329D01*
X-176366Y8399D01*
X-176506Y9469D01*
X-176920Y10467D01*
X-177577Y11323D01*
X-178433Y11980D01*
X-179431Y12393D01*
X-180501Y12534D01*
D02*
G37*
G36*
X-170501Y2534D02*
X-171571Y2393D01*
X-172569Y1980D01*
X-173425Y1323D01*
X-174082Y467D01*
X-174495Y-531D01*
X-174636Y-1601D01*
X-174495Y-2671D01*
X-174082Y-3669D01*
X-173425Y-4525D01*
X-172569Y-5182D01*
X-171571Y-5596D01*
X-170501Y-5736D01*
X-169431Y-5596D01*
X-168433Y-5182D01*
X-167577Y-4525D01*
X-166920Y-3669D01*
X-166507Y-2671D01*
X-166366Y-1601D01*
X-166507Y-531D01*
X-166920Y467D01*
X-167577Y1323D01*
X-168433Y1980D01*
X-169431Y2393D01*
X-170501Y2534D01*
D02*
G37*
G36*
X-180501D02*
X-181571Y2393D01*
X-182569Y1980D01*
X-183425Y1323D01*
X-184082Y467D01*
X-184495Y-531D01*
X-184636Y-1601D01*
X-184495Y-2671D01*
X-184082Y-3669D01*
X-183425Y-4525D01*
X-182569Y-5182D01*
X-181571Y-5596D01*
X-180501Y-5736D01*
X-179431Y-5596D01*
X-178433Y-5182D01*
X-177577Y-4525D01*
X-176920Y-3669D01*
X-176506Y-2671D01*
X-176366Y-1601D01*
X-176506Y-531D01*
X-176920Y467D01*
X-177577Y1323D01*
X-178433Y1980D01*
X-179431Y2393D01*
X-180501Y2534D01*
D02*
G37*
G36*
X-170501Y-7466D02*
X-171571Y-7606D01*
X-172569Y-8020D01*
X-173425Y-8677D01*
X-174082Y-9533D01*
X-174495Y-10531D01*
X-174636Y-11601D01*
X-174495Y-12671D01*
X-174082Y-13669D01*
X-173425Y-14525D01*
X-172569Y-15182D01*
X-171571Y-15596D01*
X-170501Y-15736D01*
X-169431Y-15596D01*
X-168433Y-15182D01*
X-167577Y-14525D01*
X-166920Y-13669D01*
X-166507Y-12671D01*
X-166366Y-11601D01*
X-166507Y-10531D01*
X-166920Y-9533D01*
X-167577Y-8677D01*
X-168433Y-8020D01*
X-169431Y-7606D01*
X-170501Y-7466D01*
D02*
G37*
G36*
X-180501D02*
X-181571Y-7606D01*
X-182569Y-8020D01*
X-183425Y-8677D01*
X-184082Y-9533D01*
X-184495Y-10531D01*
X-184636Y-11601D01*
X-184495Y-12671D01*
X-184082Y-13669D01*
X-183425Y-14525D01*
X-182569Y-15182D01*
X-181571Y-15596D01*
X-180501Y-15736D01*
X-179431Y-15596D01*
X-178433Y-15182D01*
X-177577Y-14525D01*
X-176920Y-13669D01*
X-176506Y-12671D01*
X-176366Y-11601D01*
X-176506Y-10531D01*
X-176920Y-9533D01*
X-177577Y-8677D01*
X-178433Y-8020D01*
X-179431Y-7606D01*
X-180501Y-7466D01*
D02*
G37*
G36*
X-52342Y-17141D02*
Y-21001D01*
X-48482D01*
X-48558Y-20426D01*
X-49011Y-19332D01*
X-49733Y-18392D01*
X-50673Y-17670D01*
X-51767Y-17217D01*
X-52342Y-17141D01*
D02*
G37*
G36*
X-169901D02*
Y-21001D01*
X-166041D01*
X-166117Y-20426D01*
X-166570Y-19332D01*
X-167292Y-18392D01*
X-168232Y-17670D01*
X-169326Y-17217D01*
X-169901Y-17141D01*
D02*
G37*
G36*
X-53542D02*
X-54117Y-17217D01*
X-55211Y-17670D01*
X-56151Y-18392D01*
X-56873Y-19332D01*
X-57326Y-20426D01*
X-57402Y-21001D01*
X-53542D01*
Y-17141D01*
D02*
G37*
G36*
X-171101D02*
X-171676Y-17217D01*
X-172770Y-17670D01*
X-173710Y-18392D01*
X-174432Y-19332D01*
X-174885Y-20426D01*
X-174961Y-21001D01*
X-171101D01*
Y-17141D01*
D02*
G37*
G36*
X-71839Y-19010D02*
X-72509Y-19099D01*
X-73134Y-19357D01*
X-73671Y-19769D01*
X-74083Y-20306D01*
X-74341Y-20931D01*
X-74430Y-21601D01*
X-74341Y-22272D01*
X-74083Y-22896D01*
X-73671Y-23433D01*
X-73134Y-23845D01*
X-72509Y-24103D01*
X-71839Y-24192D01*
X-71169Y-24103D01*
X-70544Y-23845D01*
X-70007Y-23433D01*
X-69595Y-22896D01*
X-69337Y-22272D01*
X-69248Y-21601D01*
X-69337Y-20931D01*
X-69595Y-20306D01*
X-70007Y-19769D01*
X-70544Y-19357D01*
X-71169Y-19099D01*
X-71839Y-19010D01*
D02*
G37*
G36*
X-151367D02*
X-152038Y-19099D01*
X-152662Y-19357D01*
X-153199Y-19769D01*
X-153611Y-20306D01*
X-153869Y-20931D01*
X-153958Y-21601D01*
X-153869Y-22272D01*
X-153611Y-22896D01*
X-153199Y-23433D01*
X-152662Y-23845D01*
X-152038Y-24103D01*
X-151367Y-24192D01*
X-150697Y-24103D01*
X-150072Y-23845D01*
X-149535Y-23433D01*
X-149123Y-22896D01*
X-148865Y-22272D01*
X-148776Y-21601D01*
X-148865Y-20931D01*
X-149123Y-20306D01*
X-149535Y-19769D01*
X-150072Y-19357D01*
X-150697Y-19099D01*
X-151367Y-19010D01*
D02*
G37*
G36*
X-180501Y-17466D02*
X-181571Y-17606D01*
X-182569Y-18020D01*
X-183425Y-18677D01*
X-184082Y-19533D01*
X-184495Y-20531D01*
X-184636Y-21601D01*
X-184495Y-22671D01*
X-184082Y-23669D01*
X-183425Y-24525D01*
X-182569Y-25182D01*
X-181571Y-25596D01*
X-180501Y-25736D01*
X-179431Y-25596D01*
X-178433Y-25182D01*
X-177577Y-24525D01*
X-176920Y-23669D01*
X-176506Y-22671D01*
X-176366Y-21601D01*
X-176506Y-20531D01*
X-176920Y-19533D01*
X-177577Y-18677D01*
X-178433Y-18020D01*
X-179431Y-17606D01*
X-180501Y-17466D01*
D02*
G37*
G36*
X-48482Y-22201D02*
X-52342D01*
Y-26061D01*
X-51767Y-25985D01*
X-50673Y-25532D01*
X-49733Y-24810D01*
X-49011Y-23870D01*
X-48558Y-22776D01*
X-48482Y-22201D01*
D02*
G37*
G36*
X-166041D02*
X-169901D01*
Y-26061D01*
X-169326Y-25985D01*
X-168232Y-25532D01*
X-167292Y-24810D01*
X-166570Y-23870D01*
X-166117Y-22776D01*
X-166041Y-22201D01*
D02*
G37*
G36*
X-53542D02*
X-57402D01*
X-57326Y-22776D01*
X-56873Y-23870D01*
X-56151Y-24810D01*
X-55211Y-25532D01*
X-54117Y-25985D01*
X-53542Y-26061D01*
Y-22201D01*
D02*
G37*
G36*
X-171101D02*
X-174961D01*
X-174885Y-22776D01*
X-174432Y-23870D01*
X-173710Y-24810D01*
X-172770Y-25532D01*
X-171676Y-25985D01*
X-171101Y-26061D01*
Y-22201D01*
D02*
G37*
%LPD*%
D15*
X-160816Y8320D02*
X-155397Y13739D01*
Y57232D01*
X-157666Y59502D02*
X-155397Y57232D01*
X-160816Y18557D02*
X-157666Y21706D01*
Y56352D01*
D21*
X-166721Y73674D02*
D03*
Y61863D02*
D03*
Y93360D02*
D03*
Y81549D02*
D03*
X-66721D02*
D03*
Y93360D02*
D03*
Y61863D02*
D03*
Y73674D02*
D03*
D24*
X-123287Y130000D02*
D03*
X-126713D02*
D03*
X-91269Y121313D02*
D03*
X-87843D02*
D03*
D25*
X-161603Y143754D02*
D03*
X-151367Y-21601D02*
D03*
X-71839D02*
D03*
X-71839Y143753D02*
D03*
D38*
X-64753Y36077D02*
Y48478D01*
Y36076D02*
Y36077D01*
X-118744Y125456D02*
X-118581Y125294D01*
X-118906D02*
X-118581D01*
X-118744Y125456D02*
X-118600Y125600D01*
X-118906Y125294D02*
X-118744Y125456D01*
X-117706Y125643D02*
X-109455D01*
X-109428Y125670D01*
X-90107Y91470D02*
Y99462D01*
X-85225D02*
X-80107D01*
X-90107D02*
X-85225D01*
X-123451Y95095D02*
Y102861D01*
X-126465Y94147D02*
X-125739Y94874D01*
X-126465Y82612D02*
Y94147D01*
X-125186Y93360D02*
X-123451Y95095D01*
X-136409Y74460D02*
X-129192Y81677D01*
X-128257Y82612D01*
X-109771Y94874D02*
X-108257Y93360D01*
X-110737Y94874D02*
Y102809D01*
X-108257Y93360D02*
X-106977D01*
X-110737Y94874D02*
X-109771D01*
X-73500Y28300D02*
X-73356Y28156D01*
X-70808D02*
X-70658Y28006D01*
X-73356Y28156D02*
X-70808D01*
X-70658Y14226D02*
Y28006D01*
X-83945Y72612D02*
X-77076D01*
X-83946D02*
X-83945D01*
X-156367D02*
X-149497D01*
X-136409Y65932D02*
Y74460D01*
X-135003Y64526D02*
X-116420D01*
X-136409Y65932D02*
X-135003Y64526D01*
X-116420D02*
X-108335Y72612D01*
X-106977D01*
X-97036Y91076D02*
X-96643Y91470D01*
X-90107D01*
X-80107D01*
Y99462D01*
X-136800Y91470D02*
X-136406Y91076D01*
X-143532Y91470D02*
X-136800D01*
X-143532D02*
Y99462D01*
X-149005D02*
X-143532D01*
X-153532Y91470D02*
X-143532D01*
X-153532D02*
Y99462D01*
X-149005D01*
X-166721Y81943D02*
X-165934Y82730D01*
X-160422D01*
X-166721Y73281D02*
X-165934Y72494D01*
X-160422D01*
X-67509D02*
X-66721Y73281D01*
X-73020Y72494D02*
X-67509D01*
Y82730D02*
X-66721Y81943D01*
X-73020Y82730D02*
X-67509D01*
X-58847Y-5695D02*
Y14029D01*
Y-5695D02*
X-52942Y-11601D01*
X-64753Y19935D02*
X-58847Y14029D01*
X-128257Y82612D02*
X-126465D01*
X-124477Y72612D02*
X-114477Y82612D01*
X-106977D01*
X-126465Y72612D02*
X-124477D01*
X-106977Y82612D02*
Y93360D01*
X-77076Y72612D02*
X-76957Y72494D01*
X-83828Y82730D02*
X-76957D01*
X-149615D02*
X-149497Y82612D01*
X-156485Y82730D02*
X-149615D01*
X-156485Y72494D02*
X-156367Y72612D01*
X-70658Y49659D02*
X-66721Y53596D01*
X-70658Y28006D02*
Y49659D01*
X-66721Y53596D02*
Y62257D01*
X-70658Y14226D02*
X-62391Y5958D01*
Y-21601D02*
Y5958D01*
X-66721Y62257D02*
X-57272D01*
X-166721Y92966D02*
Y114817D01*
X-66721Y92966D02*
Y114817D01*
X-179713Y66194D02*
Y73675D01*
X-57272Y62257D02*
X-53729Y65801D01*
Y73675D01*
X-183650Y77612D02*
Y104383D01*
Y77612D02*
X-179713Y73675D01*
X-183650Y104383D02*
X-179713Y108320D01*
X-53729Y73675D02*
X-49792Y77612D01*
Y104383D01*
X-53729Y108320D02*
X-49792Y104383D01*
X-60225Y114817D02*
X-53729Y108320D01*
X-66721Y114817D02*
X-60225D01*
X-85225D02*
X-66721D01*
X-179713Y108320D02*
X-173217Y114817D01*
X-166721D01*
X-149005D01*
X-86997D02*
Y121313D01*
Y114817D02*
X-85225D01*
X-86997Y121313D02*
X-79320D01*
Y127612D01*
D39*
X-127745Y24856D02*
X-114202D01*
X-149497Y46608D02*
X-127745Y24856D01*
X-149497Y46608D02*
Y72612D01*
X-121918Y33202D02*
Y33517D01*
X-125934Y29187D02*
X-121918Y33202D01*
X-142706Y45958D02*
Y80761D01*
Y45958D02*
X-125934Y29187D01*
X-144556Y82612D02*
X-142706Y80761D01*
X-149497Y82612D02*
X-144556D01*
X-113887Y33202D02*
Y33517D01*
Y33202D02*
X-109871Y29187D01*
X-114202Y24856D02*
X-109871Y29187D01*
D40*
X-180501Y48399D02*
D03*
Y38399D02*
D03*
Y28399D02*
D03*
Y18399D02*
D03*
Y8399D02*
D03*
Y-1601D02*
D03*
Y-11601D02*
D03*
Y-21601D02*
D03*
X-52942Y48399D02*
D03*
Y38399D02*
D03*
Y28399D02*
D03*
Y18399D02*
D03*
Y8399D02*
D03*
Y-1601D02*
D03*
Y-11601D02*
D03*
Y-21601D02*
D03*
X-170501Y48399D02*
D03*
Y38399D02*
D03*
Y28399D02*
D03*
Y18399D02*
D03*
Y8399D02*
D03*
Y-1601D02*
D03*
Y-11601D02*
D03*
Y-21601D02*
D03*
D41*
X-174800Y135100D02*
D03*
X-58800D02*
D03*
D42*
X-148568Y-3884D02*
D03*
X-75182D02*
D03*
D43*
X-97824Y33518D02*
D03*
X-101840Y29186D02*
D03*
X-105856Y33518D02*
D03*
X-109871Y29186D02*
D03*
X-113887Y33518D02*
D03*
X-117903Y29186D02*
D03*
X-121918Y33518D02*
D03*
X-125934Y29186D02*
D03*
D44*
X-80107Y136273D02*
D03*
X-90107D02*
D03*
X-143532D02*
D03*
X-153532D02*
D03*
Y91470D02*
D03*
X-143532D02*
D03*
X-90107D02*
D03*
X-80107D02*
D03*
D45*
X-173038Y104900D02*
D03*
X-175400D02*
D03*
X-174219Y102932D02*
D03*
X-56879Y68163D02*
D03*
X-160816Y8320D02*
D03*
X-157666Y59502D02*
D03*
X-160816Y18557D02*
D03*
X-157666Y56352D02*
D03*
X-55698Y77218D02*
D03*
X-54517Y79187D02*
D03*
X-56879D02*
D03*
Y113832D02*
D03*
X-55698Y104777D02*
D03*
X-54517Y102809D02*
D03*
X-56879D02*
D03*
X-177745Y104777D02*
D03*
Y77218D02*
D03*
X-176564Y113832D02*
D03*
X-178926Y102809D02*
D03*
X-176564D02*
D03*
X-178926Y79187D02*
D03*
X-176564Y68163D02*
D03*
Y79187D02*
D03*
D46*
X-97300Y137900D02*
D03*
X-126600Y135100D02*
D03*
X-97489Y69940D02*
D03*
X-134200Y56600D02*
D03*
X-114700Y56400D02*
D03*
X-61400Y54000D02*
D03*
X-65200Y-3800D02*
D03*
X-160100Y-3300D02*
D03*
X-78200Y42300D02*
D03*
X-72400Y130500D02*
D03*
X-159200Y63600D02*
D03*
X-75200Y62600D02*
D03*
X-150800Y36200D02*
D03*
X-124400Y48500D02*
D03*
X-99400Y48300D02*
D03*
D47*
X-118600Y125600D02*
D03*
X-109428Y125670D02*
D03*
D48*
X-73500Y28300D02*
D03*
X-150600Y27700D02*
D03*
X-64753Y48478D02*
D03*
X-53729Y90998D02*
D03*
X-179713D02*
D03*
X-161603Y28006D02*
D03*
X-53729Y108320D02*
D03*
Y73675D02*
D03*
X-179713D02*
D03*
Y108320D02*
D03*
D49*
X-102549Y129974D02*
D03*
X-114359D02*
D03*
D50*
X-149990Y71312D02*
D03*
Y81312D02*
D03*
X-126958D02*
D03*
Y71312D02*
D03*
X-106977Y82612D02*
D03*
Y72612D02*
D03*
X-83945D02*
D03*
Y82612D02*
D03*
D51*
X-110288Y111914D02*
D03*
Y104710D02*
D03*
X-136100Y91598D02*
D03*
Y98802D02*
D03*
X-134619Y104664D02*
D03*
Y111869D02*
D03*
X-122800Y111914D02*
D03*
Y104710D02*
D03*
X-98000Y91898D02*
D03*
Y99102D02*
D03*
X-100383Y104710D02*
D03*
Y111914D02*
D03*
D52*
X-156584Y82730D02*
D03*
X-160324D02*
D03*
X-76859D02*
D03*
X-73119D02*
D03*
X-76859Y72494D02*
D03*
X-73119D02*
D03*
X-156584D02*
D03*
X-160324D02*
D03*
D53*
X-125186Y93360D02*
D03*
X-108256D02*
D03*
D54*
X-64753Y19935D02*
D03*
Y36077D02*
D03*
D55*
X-149005Y114816D02*
D03*
Y99462D02*
D03*
X-85225D02*
D03*
Y114816D02*
D03*
D56*
X-78925Y127612D02*
D03*
X-90736D02*
D03*
D57*
X-91269Y127080D02*
X-90736Y127612D01*
X-91269Y121313D02*
Y127080D01*
X-114385Y130000D02*
X-114359Y129974D01*
X-123287Y130000D02*
X-114385D01*
D58*
X-90974Y129974D02*
X-90400Y129400D01*
X-102549Y129974D02*
X-90974D01*
X-90107Y127848D02*
Y136273D01*
X-90343Y127612D02*
X-90107Y127848D01*
Y136273D02*
X-80107D01*
X-153532D02*
X-143532D01*
D59*
X-136406Y98500D02*
Y103375D01*
X-98067Y99102D02*
X-98000D01*
X-99016Y100051D02*
Y103761D01*
X-99965Y104710D02*
X-99016Y103761D01*
Y100051D02*
X-98067Y99102D01*
X-100383Y104710D02*
X-99965D01*
X-136406Y103375D02*
X-136172Y103610D01*
X-134619Y111869D02*
X-122846D01*
X-122800Y111914D01*
X-110288D02*
X-99283D01*
X-104534Y48500D02*
X-90489Y62545D01*
X-124400Y48500D02*
X-104534D01*
X-90489Y62545D02*
Y77495D01*
X-86488Y81495D01*
X-85775Y82653D02*
X-85331D01*
X-86488Y81939D02*
X-85775Y82653D01*
X-86488Y81495D02*
Y81939D01*
X-83946Y58954D02*
Y72612D01*
X-94600Y48300D02*
X-83946Y58954D01*
X-99400Y48300D02*
X-94600D01*
M02*
