G04*
G04 #@! TF.GenerationSoftware,Altium Limited,Altium Designer,21.7.2 (23)*
G04*
G04 Layer_Color=16711935*
%FSLAX25Y25*%
%MOIN*%
G70*
G04*
G04 #@! TF.SameCoordinates,CC107787-991B-443C-84B7-B8317AFA6C2B*
G04*
G04*
G04 #@! TF.FilePolarity,Negative*
G04*
G01*
G75*
G04:AMPARAMS|DCode=28|XSize=43.37mil|YSize=82.74mil|CornerRadius=11.84mil|HoleSize=0mil|Usage=FLASHONLY|Rotation=270.000|XOffset=0mil|YOffset=0mil|HoleType=Round|Shape=RoundedRectangle|*
%AMROUNDEDRECTD28*
21,1,0.04337,0.05906,0,0,270.0*
21,1,0.01968,0.08274,0,0,270.0*
1,1,0.02368,-0.02953,-0.00984*
1,1,0.02368,-0.02953,0.00984*
1,1,0.02368,0.02953,0.00984*
1,1,0.02368,0.02953,-0.00984*
%
%ADD28ROUNDEDRECTD28*%
G04:AMPARAMS|DCode=31|XSize=28.74mil|YSize=26.77mil|CornerRadius=7.91mil|HoleSize=0mil|Usage=FLASHONLY|Rotation=180.000|XOffset=0mil|YOffset=0mil|HoleType=Round|Shape=RoundedRectangle|*
%AMROUNDEDRECTD31*
21,1,0.02874,0.01096,0,0,180.0*
21,1,0.01293,0.02677,0,0,180.0*
1,1,0.01581,-0.00647,0.00548*
1,1,0.01581,0.00647,0.00548*
1,1,0.01581,0.00647,-0.00548*
1,1,0.01581,-0.00647,-0.00548*
%
%ADD31ROUNDEDRECTD31*%
G04:AMPARAMS|DCode=32|XSize=43.37mil|YSize=43.37mil|CornerRadius=21.69mil|HoleSize=0mil|Usage=FLASHONLY|Rotation=0.000|XOffset=0mil|YOffset=0mil|HoleType=Round|Shape=RoundedRectangle|*
%AMROUNDEDRECTD32*
21,1,0.04337,0.00000,0,0,0.0*
21,1,0.00000,0.04337,0,0,0.0*
1,1,0.04337,0.00000,0.00000*
1,1,0.04337,0.00000,0.00000*
1,1,0.04337,0.00000,0.00000*
1,1,0.04337,0.00000,0.00000*
%
%ADD32ROUNDEDRECTD32*%
%ADD33C,0.21400*%
%ADD34C,0.07400*%
%ADD35O,0.06306X0.12211*%
%ADD36C,0.05124*%
%ADD37C,0.07191*%
%ADD60R,0.07487X0.03746*%
G04:AMPARAMS|DCode=61|XSize=42.98mil|YSize=61.87mil|CornerRadius=11.94mil|HoleSize=0mil|Usage=FLASHONLY|Rotation=270.000|XOffset=0mil|YOffset=0mil|HoleType=Round|Shape=RoundedRectangle|*
%AMROUNDEDRECTD61*
21,1,0.04298,0.03800,0,0,270.0*
21,1,0.01910,0.06187,0,0,270.0*
1,1,0.02388,-0.01900,-0.00955*
1,1,0.02388,-0.01900,0.00955*
1,1,0.02388,0.01900,0.00955*
1,1,0.02388,0.01900,-0.00955*
%
%ADD61ROUNDEDRECTD61*%
G04:AMPARAMS|DCode=62|XSize=25.59mil|YSize=26.77mil|CornerRadius=7.49mil|HoleSize=0mil|Usage=FLASHONLY|Rotation=180.000|XOffset=0mil|YOffset=0mil|HoleType=Round|Shape=RoundedRectangle|*
%AMROUNDEDRECTD62*
21,1,0.02559,0.01179,0,0,180.0*
21,1,0.01061,0.02677,0,0,180.0*
1,1,0.01498,-0.00531,0.00590*
1,1,0.01498,0.00531,0.00590*
1,1,0.01498,0.00531,-0.00590*
1,1,0.01498,-0.00531,-0.00590*
%
%ADD62ROUNDEDRECTD62*%
%ADD63R,0.09652X0.06502*%
%ADD64R,0.06699X0.09258*%
G04:AMPARAMS|DCode=65|XSize=78.8mil|YSize=137.86mil|CornerRadius=20.7mil|HoleSize=0mil|Usage=FLASHONLY|Rotation=90.000|XOffset=0mil|YOffset=0mil|HoleType=Round|Shape=RoundedRectangle|*
%AMROUNDEDRECTD65*
21,1,0.07880,0.09646,0,0,90.0*
21,1,0.03740,0.13786,0,0,90.0*
1,1,0.04140,0.04823,0.01870*
1,1,0.04140,0.04823,-0.01870*
1,1,0.04140,-0.04823,-0.01870*
1,1,0.04140,-0.04823,0.01870*
%
%ADD65ROUNDEDRECTD65*%
G04:AMPARAMS|DCode=66|XSize=43.37mil|YSize=82.74mil|CornerRadius=11.84mil|HoleSize=0mil|Usage=FLASHONLY|Rotation=0.000|XOffset=0mil|YOffset=0mil|HoleType=Round|Shape=RoundedRectangle|*
%AMROUNDEDRECTD66*
21,1,0.04337,0.05906,0,0,0.0*
21,1,0.01968,0.08274,0,0,0.0*
1,1,0.02368,0.00984,-0.02953*
1,1,0.02368,-0.00984,-0.02953*
1,1,0.02368,-0.00984,0.02953*
1,1,0.02368,0.00984,0.02953*
%
%ADD66ROUNDEDRECTD66*%
G36*
X72455Y166874D02*
X69091Y162992D01*
Y152756D01*
X72455Y148874D01*
X76177D01*
Y166874D01*
X72455D01*
D02*
G37*
G36*
X84230D02*
X80508D01*
Y148874D01*
X84230D01*
X87595Y152756D01*
Y162992D01*
X84230Y166874D01*
D02*
G37*
D28*
X20076Y89763D02*
D03*
Y101574D02*
D03*
Y109449D02*
D03*
Y121260D02*
D03*
X120076D02*
D03*
Y109449D02*
D03*
Y101574D02*
D03*
Y89763D02*
D03*
D31*
X60084Y157900D02*
D03*
X63509D02*
D03*
X98953Y149213D02*
D03*
X95528D02*
D03*
D32*
X25194Y171654D02*
D03*
X35430Y6299D02*
D03*
X114958D02*
D03*
X114957Y171653D02*
D03*
D33*
X127997Y163000D02*
D03*
X11997D02*
D03*
D34*
X16296Y6299D02*
D03*
Y16299D02*
D03*
Y26299D02*
D03*
Y36299D02*
D03*
Y46299D02*
D03*
Y56299D02*
D03*
Y66299D02*
D03*
Y76299D02*
D03*
X133855Y6299D02*
D03*
Y16299D02*
D03*
Y26299D02*
D03*
Y36299D02*
D03*
Y46299D02*
D03*
Y56299D02*
D03*
Y66299D02*
D03*
Y76299D02*
D03*
X6296Y6299D02*
D03*
Y16299D02*
D03*
Y26299D02*
D03*
Y36299D02*
D03*
Y46299D02*
D03*
Y56299D02*
D03*
Y66299D02*
D03*
Y76299D02*
D03*
D35*
X111615Y24015D02*
D03*
X38229D02*
D03*
D36*
X60863Y57086D02*
D03*
X64879Y61418D02*
D03*
X68894Y57086D02*
D03*
X72910Y61418D02*
D03*
X76926Y57086D02*
D03*
X80941Y61418D02*
D03*
X84957Y57086D02*
D03*
X88973Y61418D02*
D03*
D37*
X106690Y119370D02*
D03*
X96690D02*
D03*
X43265D02*
D03*
X33265D02*
D03*
Y164173D02*
D03*
X43265D02*
D03*
X96690D02*
D03*
X106690D02*
D03*
D60*
X59839Y99212D02*
D03*
Y109212D02*
D03*
X36807D02*
D03*
Y99212D02*
D03*
X102852Y110512D02*
D03*
Y100512D02*
D03*
X79820D02*
D03*
Y110512D02*
D03*
D61*
X76508Y132610D02*
D03*
Y139814D02*
D03*
X50697Y126702D02*
D03*
Y119498D02*
D03*
X52178Y139769D02*
D03*
Y132564D02*
D03*
X63997Y132610D02*
D03*
Y139814D02*
D03*
X88797Y127002D02*
D03*
Y119798D02*
D03*
X86413Y139814D02*
D03*
Y132610D02*
D03*
D62*
X26473Y110630D02*
D03*
X30213D02*
D03*
X113678D02*
D03*
X109938D02*
D03*
X113678Y100394D02*
D03*
X109938D02*
D03*
X26473D02*
D03*
X30213D02*
D03*
D63*
X78541Y121260D02*
D03*
X61611D02*
D03*
D64*
X122044Y63977D02*
D03*
Y47835D02*
D03*
D65*
X37792Y127362D02*
D03*
Y142716D02*
D03*
X101572D02*
D03*
Y127362D02*
D03*
D66*
X96061Y155512D02*
D03*
X107871D02*
D03*
M02*
