G04*
G04 #@! TF.GenerationSoftware,Altium Limited,Altium Designer,21.7.2 (23)*
G04*
G04 Layer_Color=16711935*
%FSLAX25Y25*%
%MOIN*%
G70*
G04*
G04 #@! TF.SameCoordinates,2ED69007-8404-4F84-9E22-07974BFFE74B*
G04*
G04*
G04 #@! TF.FilePolarity,Positive*
G04*
G01*
G75*
%ADD10C,0.00500*%
%ADD13C,0.00787*%
%ADD14C,0.00591*%
%ADD39C,0.01000*%
%ADD68C,0.00394*%
%ADD69C,0.00472*%
G36*
X-56447Y66554D02*
X-56424D01*
X-56400Y66552D01*
X-56373Y66550D01*
X-56343Y66548D01*
X-56312Y66546D01*
X-56277Y66542D01*
X-56205Y66536D01*
X-56127Y66524D01*
X-56047Y66511D01*
X-55963Y66495D01*
X-55881Y66473D01*
X-55799Y66448D01*
X-55719Y66419D01*
X-55643Y66384D01*
X-55574Y66345D01*
X-55543Y66323D01*
X-55512Y66300D01*
X-55508Y66298D01*
X-55500Y66288D01*
X-55484Y66274D01*
X-55465Y66253D01*
X-55440Y66228D01*
X-55416Y66198D01*
X-55387Y66161D01*
X-55361Y66120D01*
X-55332Y66075D01*
X-55303Y66026D01*
X-55279Y65970D01*
X-55254Y65911D01*
X-55236Y65847D01*
X-55219Y65780D01*
X-55211Y65708D01*
X-55207Y65632D01*
Y65620D01*
X-55209Y65603D01*
Y65583D01*
X-55211Y65558D01*
X-55215Y65530D01*
X-55219Y65497D01*
X-55227Y65462D01*
X-55236Y65425D01*
X-55246Y65386D01*
X-55258Y65347D01*
X-55274Y65306D01*
X-55291Y65267D01*
X-55313Y65228D01*
X-55336Y65189D01*
X-55365Y65154D01*
X-55367Y65152D01*
X-55373Y65146D01*
X-55381Y65138D01*
X-55393Y65126D01*
X-55412Y65111D01*
X-55430Y65095D01*
X-55455Y65076D01*
X-55484Y65058D01*
X-55514Y65038D01*
X-55549Y65019D01*
X-55588Y64999D01*
X-55631Y64980D01*
X-55676Y64964D01*
X-55726Y64947D01*
X-55779Y64933D01*
X-55836Y64923D01*
X-55889Y65390D01*
X-55888D01*
X-55883D01*
X-55875Y65392D01*
X-55867Y65394D01*
X-55855Y65396D01*
X-55840Y65398D01*
X-55810Y65407D01*
X-55775Y65419D01*
X-55740Y65435D01*
X-55705Y65454D01*
X-55676Y65478D01*
X-55674Y65482D01*
X-55666Y65491D01*
X-55656Y65507D01*
X-55643Y65530D01*
X-55629Y65556D01*
X-55619Y65589D01*
X-55611Y65626D01*
X-55609Y65669D01*
Y65683D01*
X-55611Y65693D01*
X-55613Y65708D01*
X-55617Y65722D01*
X-55625Y65757D01*
X-55641Y65796D01*
X-55654Y65819D01*
X-55666Y65839D01*
X-55682Y65862D01*
X-55701Y65882D01*
X-55721Y65903D01*
X-55746Y65923D01*
X-55748Y65925D01*
X-55752Y65927D01*
X-55762Y65933D01*
X-55775Y65939D01*
X-55791Y65948D01*
X-55812Y65958D01*
X-55838Y65968D01*
X-55869Y65978D01*
X-55906Y65991D01*
X-55947Y66001D01*
X-55992Y66013D01*
X-56045Y66024D01*
X-56105Y66034D01*
X-56168Y66042D01*
X-56240Y66050D01*
X-56318Y66056D01*
X-56316Y66054D01*
X-56310Y66048D01*
X-56300Y66038D01*
X-56285Y66024D01*
X-56269Y66007D01*
X-56250Y65985D01*
X-56232Y65960D01*
X-56213Y65931D01*
X-56193Y65900D01*
X-56174Y65866D01*
X-56156Y65829D01*
X-56140Y65788D01*
X-56127Y65745D01*
X-56115Y65700D01*
X-56109Y65653D01*
X-56107Y65601D01*
Y65589D01*
X-56109Y65573D01*
X-56111Y65552D01*
X-56113Y65525D01*
X-56119Y65497D01*
X-56125Y65462D01*
X-56135Y65425D01*
X-56148Y65386D01*
X-56162Y65345D01*
X-56181Y65304D01*
X-56203Y65259D01*
X-56230Y65216D01*
X-56261Y65173D01*
X-56295Y65130D01*
X-56336Y65089D01*
X-56339Y65087D01*
X-56347Y65081D01*
X-56361Y65068D01*
X-56377Y65056D01*
X-56400Y65039D01*
X-56429Y65021D01*
X-56462Y65001D01*
X-56496Y64982D01*
X-56537Y64962D01*
X-56582Y64941D01*
X-56632Y64923D01*
X-56685Y64906D01*
X-56742Y64894D01*
X-56802Y64884D01*
X-56865Y64876D01*
X-56933Y64873D01*
X-56935D01*
X-56937D01*
X-56943D01*
X-56949D01*
X-56970Y64876D01*
X-56997Y64878D01*
X-57029Y64880D01*
X-57066Y64886D01*
X-57109Y64892D01*
X-57154Y64902D01*
X-57201Y64915D01*
X-57253Y64929D01*
X-57304Y64947D01*
X-57355Y64970D01*
X-57407Y64996D01*
X-57458Y65025D01*
X-57507Y65060D01*
X-57552Y65101D01*
X-57554Y65103D01*
X-57562Y65111D01*
X-57575Y65124D01*
X-57589Y65142D01*
X-57607Y65165D01*
X-57626Y65191D01*
X-57648Y65224D01*
X-57671Y65259D01*
X-57691Y65298D01*
X-57714Y65343D01*
X-57732Y65390D01*
X-57751Y65441D01*
X-57765Y65497D01*
X-57778Y65554D01*
X-57786Y65618D01*
X-57788Y65681D01*
Y65698D01*
X-57786Y65718D01*
X-57784Y65745D01*
X-57780Y65777D01*
X-57771Y65816D01*
X-57763Y65857D01*
X-57751Y65905D01*
X-57735Y65952D01*
X-57716Y66003D01*
X-57691Y66056D01*
X-57663Y66108D01*
X-57628Y66161D01*
X-57589Y66212D01*
X-57544Y66263D01*
X-57490Y66311D01*
X-57486Y66313D01*
X-57476Y66321D01*
X-57458Y66333D01*
X-57433Y66350D01*
X-57400Y66368D01*
X-57361Y66388D01*
X-57312Y66411D01*
X-57257Y66434D01*
X-57193Y66456D01*
X-57158Y66468D01*
X-57122Y66479D01*
X-57083Y66489D01*
X-57042Y66499D01*
X-56999Y66509D01*
X-56953Y66518D01*
X-56906Y66526D01*
X-56855Y66534D01*
X-56804Y66540D01*
X-56751Y66546D01*
X-56695Y66550D01*
X-56636Y66554D01*
X-56576Y66557D01*
X-56513D01*
X-56511D01*
X-56504D01*
X-56496D01*
X-56482D01*
X-56466D01*
X-56447Y66554D01*
D02*
G37*
G36*
X-55254Y64131D02*
X-55801Y63764D01*
X-55805Y63762D01*
X-55814Y63756D01*
X-55830Y63746D01*
X-55848Y63732D01*
X-55873Y63717D01*
X-55900Y63699D01*
X-55928Y63678D01*
X-55959Y63658D01*
X-56023Y63613D01*
X-56054Y63590D01*
X-56082Y63568D01*
X-56111Y63547D01*
X-56135Y63529D01*
X-56156Y63510D01*
X-56172Y63496D01*
X-56177Y63492D01*
X-56185Y63484D01*
X-56199Y63469D01*
X-56215Y63451D01*
X-56232Y63426D01*
X-56250Y63402D01*
X-56267Y63373D01*
X-56279Y63342D01*
X-56281Y63338D01*
X-56283Y63328D01*
X-56287Y63307D01*
X-56291Y63295D01*
X-56293Y63281D01*
X-56295Y63264D01*
X-56300Y63244D01*
X-56301Y63223D01*
X-56304Y63201D01*
X-56306Y63176D01*
Y63147D01*
X-56308Y63119D01*
Y62983D01*
X-55254D01*
Y62475D01*
X-57778D01*
Y63611D01*
X-57775Y63643D01*
X-57774Y63682D01*
X-57771Y63726D01*
X-57769Y63771D01*
X-57765Y63818D01*
X-57761Y63865D01*
X-57749Y63963D01*
X-57741Y64011D01*
X-57730Y64053D01*
X-57720Y64095D01*
X-57708Y64131D01*
Y64134D01*
X-57704Y64140D01*
X-57700Y64150D01*
X-57696Y64162D01*
X-57687Y64179D01*
X-57677Y64195D01*
X-57665Y64215D01*
X-57652Y64238D01*
X-57636Y64261D01*
X-57620Y64285D01*
X-57599Y64310D01*
X-57577Y64334D01*
X-57552Y64359D01*
X-57527Y64381D01*
X-57497Y64406D01*
X-57466Y64427D01*
X-57464Y64429D01*
X-57458Y64431D01*
X-57450Y64437D01*
X-57435Y64443D01*
X-57419Y64453D01*
X-57400Y64461D01*
X-57378Y64472D01*
X-57351Y64482D01*
X-57324Y64492D01*
X-57294Y64502D01*
X-57261Y64513D01*
X-57226Y64521D01*
X-57150Y64533D01*
X-57109Y64535D01*
X-57068Y64537D01*
X-57064D01*
X-57056D01*
X-57042Y64535D01*
X-57021D01*
X-56997Y64533D01*
X-56970Y64529D01*
X-56937Y64523D01*
X-56904Y64517D01*
X-56867Y64507D01*
X-56828Y64496D01*
X-56789Y64482D01*
X-56751Y64465D01*
X-56712Y64447D01*
X-56673Y64425D01*
X-56636Y64398D01*
X-56599Y64369D01*
X-56597Y64367D01*
X-56591Y64361D01*
X-56582Y64351D01*
X-56570Y64338D01*
X-56554Y64320D01*
X-56537Y64299D01*
X-56519Y64275D01*
X-56500Y64244D01*
X-56482Y64211D01*
X-56462Y64174D01*
X-56441Y64134D01*
X-56423Y64088D01*
X-56406Y64041D01*
X-56390Y63988D01*
X-56377Y63930D01*
X-56367Y63871D01*
X-56365Y63873D01*
X-56363Y63879D01*
X-56357Y63888D01*
X-56351Y63898D01*
X-56340Y63912D01*
X-56330Y63928D01*
X-56304Y63967D01*
X-56273Y64008D01*
X-56236Y64053D01*
X-56197Y64099D01*
X-56154Y64142D01*
X-56152Y64144D01*
X-56148Y64146D01*
X-56142Y64154D01*
X-56131Y64162D01*
X-56119Y64172D01*
X-56103Y64185D01*
X-56082Y64201D01*
X-56060Y64220D01*
X-56033Y64238D01*
X-56004Y64261D01*
X-55971Y64285D01*
X-55933Y64310D01*
X-55892Y64338D01*
X-55848Y64367D01*
X-55799Y64400D01*
X-55746Y64433D01*
X-55254Y64742D01*
Y64131D01*
D02*
G37*
G36*
X-75208Y21666D02*
X-75209Y21654D01*
Y21639D01*
X-75210Y21622D01*
X-75211Y21606D01*
X-75214Y21568D01*
X-75219Y21531D01*
X-75222Y21513D01*
X-75225Y21497D01*
X-75229Y21482D01*
X-75234Y21467D01*
Y21466D01*
X-75235Y21464D01*
X-75237Y21461D01*
X-75239Y21455D01*
X-75242Y21450D01*
X-75246Y21443D01*
X-75255Y21428D01*
X-75268Y21409D01*
X-75284Y21391D01*
X-75304Y21373D01*
X-75327Y21355D01*
X-75328Y21354D01*
X-75330Y21353D01*
X-75334Y21351D01*
X-75339Y21349D01*
X-75345Y21346D01*
X-75352Y21341D01*
X-75361Y21338D01*
X-75371Y21334D01*
X-75393Y21327D01*
X-75419Y21319D01*
X-75447Y21315D01*
X-75462Y21313D01*
X-75478D01*
X-75479D01*
X-75483D01*
X-75488D01*
X-75496Y21314D01*
X-75505Y21315D01*
X-75516Y21316D01*
X-75528Y21317D01*
X-75541Y21320D01*
X-75569Y21328D01*
X-75584Y21334D01*
X-75599Y21339D01*
X-75614Y21347D01*
X-75629Y21355D01*
X-75643Y21365D01*
X-75657Y21376D01*
X-75658Y21377D01*
X-75660Y21380D01*
X-75664Y21384D01*
X-75668Y21388D01*
X-75674Y21396D01*
X-75680Y21404D01*
X-75687Y21414D01*
X-75694Y21425D01*
X-75702Y21437D01*
X-75709Y21451D01*
X-75717Y21466D01*
X-75724Y21484D01*
X-75731Y21502D01*
X-75737Y21522D01*
X-75742Y21543D01*
X-75746Y21566D01*
Y21565D01*
X-75748Y21564D01*
X-75750Y21561D01*
X-75752Y21555D01*
X-75760Y21544D01*
X-75769Y21530D01*
X-75781Y21513D01*
X-75795Y21497D01*
X-75810Y21478D01*
X-75826Y21463D01*
Y21462D01*
X-75828Y21461D01*
X-75831Y21459D01*
X-75835Y21454D01*
X-75840Y21451D01*
X-75846Y21445D01*
X-75853Y21441D01*
X-75862Y21433D01*
X-75872Y21426D01*
X-75884Y21418D01*
X-75896Y21408D01*
X-75911Y21398D01*
X-75927Y21388D01*
X-75944Y21377D01*
X-75963Y21365D01*
X-75983Y21352D01*
X-76170Y21235D01*
Y21467D01*
X-75961Y21607D01*
X-75960Y21608D01*
X-75956Y21610D01*
X-75950Y21613D01*
X-75943Y21619D01*
X-75934Y21624D01*
X-75924Y21632D01*
X-75901Y21647D01*
X-75877Y21666D01*
X-75854Y21682D01*
X-75844Y21690D01*
X-75834Y21698D01*
X-75826Y21704D01*
X-75820Y21711D01*
X-75819Y21711D01*
X-75815Y21715D01*
X-75810Y21721D01*
X-75804Y21727D01*
X-75797Y21736D01*
X-75790Y21746D01*
X-75784Y21757D01*
X-75779Y21768D01*
X-75778Y21769D01*
X-75777Y21775D01*
X-75775Y21781D01*
X-75773Y21792D01*
X-75771Y21806D01*
X-75770Y21823D01*
X-75768Y21844D01*
Y21905D01*
X-76170D01*
Y22099D01*
X-75208D01*
Y21666D01*
D02*
G37*
G36*
X-75448Y21121D02*
X-75447Y21118D01*
X-75445Y21114D01*
X-75443Y21109D01*
X-75441Y21102D01*
X-75437Y21094D01*
X-75433Y21086D01*
X-75428Y21075D01*
X-75416Y21052D01*
X-75401Y21025D01*
X-75382Y20997D01*
X-75371Y20981D01*
X-75359Y20966D01*
X-75358Y20965D01*
X-75356Y20962D01*
X-75352Y20957D01*
X-75347Y20952D01*
X-75341Y20944D01*
X-75333Y20936D01*
X-75325Y20929D01*
X-75315Y20920D01*
X-75304Y20910D01*
X-75292Y20899D01*
X-75266Y20880D01*
X-75237Y20864D01*
X-75221Y20855D01*
X-75205Y20850D01*
Y20699D01*
X-76170D01*
Y20884D01*
X-75476D01*
X-75477Y20885D01*
X-75480Y20888D01*
X-75485Y20893D01*
X-75491Y20901D01*
X-75499Y20911D01*
X-75508Y20922D01*
X-75518Y20936D01*
X-75529Y20952D01*
X-75540Y20967D01*
X-75551Y20986D01*
X-75563Y21005D01*
X-75574Y21026D01*
X-75585Y21048D01*
X-75596Y21071D01*
X-75606Y21096D01*
X-75615Y21122D01*
X-75448D01*
Y21121D01*
D02*
G37*
G36*
X-111016Y105969D02*
X-111035Y105958D01*
X-111053Y105945D01*
X-111071Y105931D01*
X-111086Y105918D01*
X-111100Y105905D01*
X-111110Y105895D01*
X-111114Y105891D01*
X-111117Y105888D01*
X-111118Y105886D01*
X-111119Y105885D01*
X-111138Y105862D01*
X-111155Y105839D01*
X-111171Y105815D01*
X-111184Y105794D01*
X-111194Y105775D01*
X-111199Y105767D01*
X-111202Y105760D01*
X-111205Y105755D01*
X-111207Y105751D01*
X-111209Y105748D01*
Y105747D01*
X-111301D01*
X-111294Y105764D01*
X-111286Y105781D01*
X-111278Y105798D01*
X-111270Y105813D01*
X-111263Y105826D01*
X-111257Y105837D01*
X-111255Y105841D01*
X-111253Y105844D01*
X-111252Y105845D01*
Y105846D01*
X-111240Y105866D01*
X-111228Y105883D01*
X-111217Y105899D01*
X-111207Y105912D01*
X-111199Y105922D01*
X-111192Y105930D01*
X-111188Y105934D01*
X-111187Y105936D01*
X-111788D01*
Y106030D01*
X-111016D01*
Y105969D01*
D02*
G37*
G36*
X-111697Y105214D02*
X-111019D01*
Y105112D01*
X-111788D01*
Y105592D01*
X-111697D01*
Y105214D01*
D02*
G37*
G36*
X-63893Y37833D02*
X-63880D01*
X-63865Y37832D01*
X-63849Y37831D01*
X-63815Y37827D01*
X-63779Y37822D01*
X-63743Y37815D01*
X-63726Y37811D01*
X-63710Y37806D01*
X-63709D01*
X-63706Y37805D01*
X-63702Y37803D01*
X-63697Y37801D01*
X-63690Y37798D01*
X-63682Y37795D01*
X-63664Y37786D01*
X-63643Y37774D01*
X-63622Y37760D01*
X-63602Y37743D01*
X-63584Y37724D01*
Y37723D01*
X-63582Y37722D01*
X-63580Y37719D01*
X-63577Y37714D01*
X-63574Y37709D01*
X-63570Y37703D01*
X-63566Y37695D01*
X-63562Y37687D01*
X-63554Y37667D01*
X-63547Y37643D01*
X-63542Y37617D01*
X-63541Y37602D01*
X-63540Y37587D01*
Y37582D01*
X-63541Y37577D01*
Y37569D01*
X-63542Y37560D01*
X-63544Y37549D01*
X-63546Y37537D01*
X-63550Y37525D01*
X-63554Y37511D01*
X-63559Y37497D01*
X-63565Y37483D01*
X-63573Y37468D01*
X-63581Y37454D01*
X-63592Y37441D01*
X-63603Y37427D01*
X-63617Y37415D01*
X-63618Y37414D01*
X-63622Y37412D01*
X-63627Y37408D01*
X-63635Y37403D01*
X-63646Y37398D01*
X-63658Y37392D01*
X-63674Y37385D01*
X-63691Y37378D01*
X-63711Y37371D01*
X-63734Y37364D01*
X-63760Y37358D01*
X-63787Y37353D01*
X-63818Y37348D01*
X-63851Y37344D01*
X-63887Y37342D01*
X-63926Y37341D01*
X-63928D01*
X-63932D01*
X-63939D01*
X-63948D01*
X-63960Y37342D01*
X-63973D01*
X-63987Y37343D01*
X-64003Y37344D01*
X-64038Y37348D01*
X-64074Y37352D01*
X-64109Y37359D01*
X-64126Y37363D01*
X-64142Y37368D01*
X-64143D01*
X-64146Y37369D01*
X-64150Y37371D01*
X-64156Y37373D01*
X-64162Y37376D01*
X-64170Y37380D01*
X-64189Y37389D01*
X-64209Y37400D01*
X-64230Y37414D01*
X-64250Y37431D01*
X-64268Y37450D01*
X-64269Y37451D01*
X-64270Y37453D01*
X-64272Y37456D01*
X-64275Y37460D01*
X-64278Y37465D01*
X-64282Y37471D01*
X-64286Y37479D01*
X-64291Y37487D01*
X-64299Y37507D01*
X-64306Y37531D01*
X-64311Y37557D01*
X-64313Y37572D01*
Y37597D01*
X-64312Y37609D01*
X-64310Y37623D01*
X-64307Y37640D01*
X-64302Y37658D01*
X-64296Y37676D01*
X-64288Y37694D01*
Y37695D01*
X-64287Y37696D01*
X-64283Y37702D01*
X-64278Y37710D01*
X-64270Y37721D01*
X-64260Y37733D01*
X-64248Y37745D01*
X-64233Y37757D01*
X-64217Y37769D01*
X-64216D01*
X-64215Y37770D01*
X-64212Y37772D01*
X-64209Y37774D01*
X-64199Y37779D01*
X-64186Y37786D01*
X-64169Y37794D01*
X-64150Y37802D01*
X-64128Y37809D01*
X-64104Y37816D01*
X-64103D01*
X-64101Y37817D01*
X-64097Y37818D01*
X-64092Y37819D01*
X-64085Y37820D01*
X-64077Y37822D01*
X-64068Y37823D01*
X-64057Y37825D01*
X-64045Y37827D01*
X-64032Y37828D01*
X-64017Y37830D01*
X-64001Y37831D01*
X-63984Y37832D01*
X-63966Y37833D01*
X-63946Y37834D01*
X-63926D01*
X-63925D01*
X-63920D01*
X-63913D01*
X-63904D01*
X-63893Y37833D01*
D02*
G37*
G36*
X-63553Y37010D02*
X-64145D01*
X-64144Y37008D01*
X-64140Y37004D01*
X-64133Y36996D01*
X-64125Y36986D01*
X-64115Y36973D01*
X-64105Y36958D01*
X-64093Y36941D01*
X-64081Y36921D01*
Y36920D01*
X-64080Y36919D01*
X-64078Y36916D01*
X-64076Y36912D01*
X-64070Y36902D01*
X-64063Y36889D01*
X-64055Y36874D01*
X-64047Y36857D01*
X-64040Y36841D01*
X-64033Y36824D01*
X-64123D01*
Y36825D01*
X-64125Y36827D01*
X-64127Y36832D01*
X-64129Y36837D01*
X-64133Y36844D01*
X-64137Y36852D01*
X-64148Y36870D01*
X-64160Y36892D01*
X-64175Y36914D01*
X-64192Y36938D01*
X-64211Y36960D01*
X-64212Y36961D01*
X-64213Y36963D01*
X-64216Y36966D01*
X-64220Y36969D01*
X-64230Y36980D01*
X-64243Y36992D01*
X-64259Y37006D01*
X-64276Y37020D01*
X-64294Y37032D01*
X-64313Y37043D01*
Y37103D01*
X-63553D01*
Y37010D01*
D02*
G37*
G36*
Y36569D02*
X-63710Y36469D01*
X-63711D01*
X-63713Y36467D01*
X-63717Y36465D01*
X-63721Y36462D01*
X-63727Y36458D01*
X-63733Y36454D01*
X-63749Y36444D01*
X-63765Y36432D01*
X-63783Y36420D01*
X-63799Y36408D01*
X-63814Y36397D01*
X-63816Y36396D01*
X-63820Y36392D01*
X-63826Y36387D01*
X-63834Y36380D01*
X-63842Y36372D01*
X-63850Y36364D01*
X-63858Y36355D01*
X-63864Y36346D01*
X-63865Y36345D01*
X-63866Y36342D01*
X-63869Y36338D01*
X-63872Y36332D01*
X-63876Y36325D01*
X-63879Y36317D01*
X-63885Y36300D01*
Y36299D01*
X-63886Y36297D01*
Y36293D01*
X-63887Y36287D01*
X-63888Y36279D01*
Y36270D01*
X-63889Y36258D01*
Y36129D01*
X-63553D01*
Y36029D01*
X-64310D01*
Y36381D01*
X-64309Y36389D01*
Y36399D01*
X-64308Y36410D01*
X-64307Y36421D01*
X-64305Y36446D01*
X-64301Y36472D01*
X-64296Y36496D01*
X-64293Y36508D01*
X-64289Y36518D01*
Y36519D01*
X-64288Y36520D01*
X-64287Y36523D01*
X-64285Y36527D01*
X-64280Y36536D01*
X-64273Y36548D01*
X-64263Y36562D01*
X-64250Y36576D01*
X-64235Y36590D01*
X-64217Y36602D01*
X-64216D01*
X-64215Y36603D01*
X-64212Y36605D01*
X-64208Y36607D01*
X-64197Y36612D01*
X-64183Y36618D01*
X-64166Y36624D01*
X-64147Y36629D01*
X-64126Y36633D01*
X-64103Y36634D01*
X-64102D01*
X-64099D01*
X-64095D01*
X-64090Y36633D01*
X-64083Y36632D01*
X-64074Y36631D01*
X-64056Y36627D01*
X-64034Y36621D01*
X-64011Y36612D01*
X-63999Y36606D01*
X-63988Y36599D01*
X-63977Y36590D01*
X-63966Y36581D01*
X-63965Y36580D01*
X-63964Y36579D01*
X-63961Y36576D01*
X-63957Y36571D01*
X-63953Y36566D01*
X-63948Y36559D01*
X-63942Y36551D01*
X-63937Y36541D01*
X-63931Y36531D01*
X-63925Y36519D01*
X-63919Y36506D01*
X-63914Y36491D01*
X-63909Y36475D01*
X-63904Y36458D01*
X-63900Y36440D01*
X-63897Y36420D01*
X-63896Y36422D01*
X-63894Y36427D01*
X-63890Y36434D01*
X-63885Y36443D01*
X-63873Y36463D01*
X-63866Y36472D01*
X-63859Y36481D01*
Y36482D01*
X-63857Y36483D01*
X-63852Y36489D01*
X-63843Y36497D01*
X-63831Y36508D01*
X-63817Y36521D01*
X-63800Y36535D01*
X-63780Y36549D01*
X-63758Y36564D01*
X-63553Y36695D01*
Y36569D01*
D02*
G37*
G36*
X-159619Y83125D02*
X-159634Y83103D01*
X-159648Y83083D01*
X-159662Y83066D01*
X-159675Y83052D01*
X-159686Y83040D01*
X-159694Y83031D01*
X-159700Y83026D01*
X-159701Y83024D01*
X-159702D01*
X-159711Y83017D01*
X-159720Y83010D01*
X-159740Y82998D01*
X-159749Y82993D01*
X-159756Y82989D01*
X-159761Y82987D01*
X-159763Y82986D01*
X-159743Y82983D01*
X-159725Y82979D01*
X-159708Y82974D01*
X-159692Y82969D01*
X-159677Y82964D01*
X-159664Y82958D01*
X-159652Y82952D01*
X-159642Y82946D01*
X-159632Y82941D01*
X-159624Y82935D01*
X-159617Y82930D01*
X-159612Y82926D01*
X-159607Y82922D01*
X-159604Y82919D01*
X-159603Y82918D01*
X-159602Y82917D01*
X-159593Y82906D01*
X-159584Y82895D01*
X-159577Y82884D01*
X-159571Y82872D01*
X-159562Y82849D01*
X-159556Y82827D01*
X-159552Y82809D01*
X-159551Y82800D01*
X-159550Y82793D01*
X-159549Y82788D01*
Y82784D01*
Y82781D01*
Y82780D01*
X-159550Y82757D01*
X-159554Y82736D01*
X-159559Y82717D01*
X-159565Y82700D01*
X-159571Y82686D01*
X-159576Y82675D01*
X-159578Y82671D01*
X-159580Y82668D01*
X-159581Y82667D01*
Y82666D01*
X-159593Y82648D01*
X-159607Y82633D01*
X-159621Y82620D01*
X-159635Y82610D01*
X-159647Y82603D01*
X-159656Y82598D01*
X-159660Y82596D01*
X-159663Y82595D01*
X-159664Y82594D01*
X-159665D01*
X-159675Y82590D01*
X-159687Y82587D01*
X-159711Y82582D01*
X-159737Y82578D01*
X-159762Y82576D01*
X-159773Y82575D01*
X-159784Y82574D01*
X-159794D01*
X-159802Y82573D01*
X-160154D01*
Y83330D01*
X-160054D01*
Y82994D01*
X-159925D01*
X-159913Y82995D01*
X-159904D01*
X-159896Y82996D01*
X-159890Y82997D01*
X-159886D01*
X-159884Y82998D01*
X-159883D01*
X-159866Y83004D01*
X-159858Y83007D01*
X-159851Y83011D01*
X-159845Y83014D01*
X-159841Y83017D01*
X-159838Y83018D01*
X-159837Y83019D01*
X-159828Y83025D01*
X-159819Y83033D01*
X-159811Y83041D01*
X-159803Y83049D01*
X-159796Y83057D01*
X-159791Y83063D01*
X-159787Y83067D01*
X-159786Y83069D01*
X-159775Y83084D01*
X-159763Y83100D01*
X-159751Y83118D01*
X-159739Y83134D01*
X-159729Y83150D01*
X-159725Y83156D01*
X-159721Y83162D01*
X-159718Y83166D01*
X-159716Y83170D01*
X-159714Y83172D01*
Y83173D01*
X-159614Y83330D01*
X-159488D01*
X-159619Y83125D01*
D02*
G37*
G36*
X-159164Y83342D02*
X-159142Y83339D01*
X-159122Y83335D01*
X-159103Y83329D01*
X-159085Y83322D01*
X-159069Y83314D01*
X-159054Y83306D01*
X-159040Y83297D01*
X-159028Y83289D01*
X-159018Y83281D01*
X-159009Y83273D01*
X-159001Y83266D01*
X-158996Y83260D01*
X-158991Y83256D01*
X-158989Y83253D01*
X-158988Y83252D01*
X-158977Y83238D01*
X-158968Y83223D01*
X-158960Y83208D01*
X-158953Y83193D01*
X-158947Y83177D01*
X-158943Y83163D01*
X-158935Y83135D01*
X-158933Y83122D01*
X-158931Y83111D01*
X-158930Y83100D01*
X-158929Y83091D01*
X-158928Y83084D01*
Y83079D01*
Y83075D01*
Y83074D01*
X-158929Y83054D01*
X-158931Y83035D01*
X-158934Y83018D01*
X-158939Y83001D01*
X-158944Y82985D01*
X-158950Y82971D01*
X-158956Y82957D01*
X-158962Y82945D01*
X-158969Y82934D01*
X-158975Y82924D01*
X-158981Y82916D01*
X-158986Y82909D01*
X-158991Y82904D01*
X-158994Y82900D01*
X-158996Y82898D01*
X-158997Y82897D01*
X-159010Y82885D01*
X-159024Y82874D01*
X-159038Y82865D01*
X-159052Y82857D01*
X-159066Y82850D01*
X-159080Y82845D01*
X-159093Y82840D01*
X-159106Y82837D01*
X-159118Y82834D01*
X-159129Y82832D01*
X-159139Y82830D01*
X-159147Y82829D01*
X-159154Y82828D01*
X-159164D01*
X-159178Y82829D01*
X-159192Y82830D01*
X-159218Y82835D01*
X-159242Y82843D01*
X-159264Y82852D01*
X-159273Y82856D01*
X-159281Y82861D01*
X-159289Y82865D01*
X-159295Y82868D01*
X-159300Y82872D01*
X-159304Y82874D01*
X-159306Y82875D01*
X-159307Y82876D01*
X-159267Y82672D01*
X-158964D01*
Y82583D01*
X-159340D01*
X-159413Y82972D01*
X-159326Y82984D01*
X-159318Y82973D01*
X-159309Y82962D01*
X-159299Y82953D01*
X-159290Y82945D01*
X-159282Y82939D01*
X-159276Y82935D01*
X-159272Y82932D01*
X-159270Y82931D01*
X-159256Y82924D01*
X-159242Y82919D01*
X-159229Y82915D01*
X-159216Y82913D01*
X-159205Y82911D01*
X-159197Y82910D01*
X-159176D01*
X-159163Y82912D01*
X-159140Y82917D01*
X-159120Y82925D01*
X-159103Y82933D01*
X-159090Y82942D01*
X-159080Y82950D01*
X-159074Y82955D01*
X-159072Y82956D01*
Y82957D01*
X-159064Y82966D01*
X-159057Y82976D01*
X-159046Y82996D01*
X-159038Y83017D01*
X-159033Y83037D01*
X-159029Y83055D01*
X-159028Y83062D01*
Y83069D01*
X-159027Y83074D01*
Y83078D01*
Y83081D01*
Y83082D01*
Y83097D01*
X-159029Y83112D01*
X-159034Y83138D01*
X-159042Y83162D01*
X-159050Y83181D01*
X-159054Y83189D01*
X-159058Y83196D01*
X-159062Y83203D01*
X-159066Y83208D01*
X-159069Y83212D01*
X-159071Y83215D01*
X-159072Y83216D01*
X-159073Y83217D01*
X-159082Y83226D01*
X-159091Y83233D01*
X-159101Y83240D01*
X-159110Y83246D01*
X-159129Y83255D01*
X-159147Y83261D01*
X-159163Y83264D01*
X-159170Y83265D01*
X-159176Y83266D01*
X-159180Y83267D01*
X-159187D01*
X-159207Y83265D01*
X-159226Y83261D01*
X-159242Y83256D01*
X-159256Y83249D01*
X-159267Y83243D01*
X-159276Y83237D01*
X-159281Y83233D01*
X-159283Y83232D01*
X-159296Y83217D01*
X-159307Y83200D01*
X-159316Y83182D01*
X-159322Y83165D01*
X-159327Y83149D01*
X-159328Y83143D01*
X-159330Y83137D01*
X-159331Y83132D01*
Y83128D01*
X-159332Y83126D01*
Y83125D01*
X-159430Y83132D01*
X-159428Y83150D01*
X-159424Y83166D01*
X-159420Y83182D01*
X-159415Y83197D01*
X-159409Y83210D01*
X-159403Y83223D01*
X-159396Y83234D01*
X-159390Y83245D01*
X-159383Y83254D01*
X-159377Y83263D01*
X-159371Y83270D01*
X-159366Y83275D01*
X-159362Y83280D01*
X-159359Y83283D01*
X-159357Y83285D01*
X-159356Y83286D01*
X-159343Y83296D01*
X-159330Y83305D01*
X-159316Y83312D01*
X-159302Y83319D01*
X-159288Y83324D01*
X-159274Y83329D01*
X-159247Y83336D01*
X-159235Y83338D01*
X-159223Y83340D01*
X-159213Y83341D01*
X-159204Y83342D01*
X-159197Y83343D01*
X-159187D01*
X-159164Y83342D01*
D02*
G37*
G36*
X-65496Y-21711D02*
X-65630D01*
Y-20820D01*
X-66127D01*
Y-20701D01*
X-65496D01*
Y-21711D01*
D02*
G37*
G36*
X-66289D02*
X-67018D01*
Y-21592D01*
X-66423D01*
Y-21283D01*
X-66980D01*
Y-21164D01*
X-66423D01*
Y-20820D01*
X-67041D01*
Y-20701D01*
X-66289D01*
Y-21711D01*
D02*
G37*
G36*
X-67226D02*
X-67602D01*
X-67614Y-21710D01*
X-67626D01*
X-67640Y-21709D01*
X-67669Y-21707D01*
X-67699Y-21705D01*
X-67727Y-21701D01*
X-67741Y-21699D01*
X-67753Y-21696D01*
X-67754D01*
X-67757Y-21695D01*
X-67761Y-21694D01*
X-67767Y-21692D01*
X-67775Y-21690D01*
X-67784Y-21687D01*
X-67793Y-21684D01*
X-67804Y-21680D01*
X-67827Y-21670D01*
X-67852Y-21657D01*
X-67877Y-21642D01*
X-67901Y-21624D01*
X-67902Y-21623D01*
X-67905Y-21621D01*
X-67909Y-21617D01*
X-67914Y-21612D01*
X-67921Y-21605D01*
X-67928Y-21597D01*
X-67937Y-21588D01*
X-67946Y-21577D01*
X-67955Y-21565D01*
X-67965Y-21552D01*
X-67975Y-21538D01*
X-67985Y-21522D01*
X-67994Y-21506D01*
X-68003Y-21489D01*
X-68020Y-21451D01*
Y-21450D01*
X-68022Y-21446D01*
X-68024Y-21440D01*
X-68026Y-21433D01*
X-68029Y-21423D01*
X-68033Y-21411D01*
X-68036Y-21397D01*
X-68040Y-21382D01*
X-68044Y-21365D01*
X-68047Y-21346D01*
X-68051Y-21327D01*
X-68054Y-21305D01*
X-68056Y-21283D01*
X-68058Y-21260D01*
X-68060Y-21211D01*
Y-21210D01*
Y-21206D01*
Y-21200D01*
Y-21192D01*
X-68059Y-21182D01*
Y-21170D01*
X-68058Y-21157D01*
X-68057Y-21142D01*
X-68055Y-21127D01*
X-68053Y-21111D01*
X-68049Y-21076D01*
X-68042Y-21041D01*
X-68033Y-21007D01*
Y-21006D01*
X-68032Y-21003D01*
X-68030Y-20998D01*
X-68028Y-20992D01*
X-68025Y-20985D01*
X-68022Y-20976D01*
X-68019Y-20966D01*
X-68014Y-20955D01*
X-68004Y-20932D01*
X-67993Y-20907D01*
X-67979Y-20883D01*
X-67964Y-20860D01*
Y-20859D01*
X-67962Y-20857D01*
X-67960Y-20854D01*
X-67957Y-20850D01*
X-67948Y-20840D01*
X-67937Y-20827D01*
X-67923Y-20812D01*
X-67908Y-20797D01*
X-67890Y-20782D01*
X-67872Y-20768D01*
X-67871D01*
X-67870Y-20767D01*
X-67867Y-20765D01*
X-67863Y-20763D01*
X-67858Y-20760D01*
X-67852Y-20757D01*
X-67838Y-20749D01*
X-67821Y-20741D01*
X-67800Y-20733D01*
X-67777Y-20725D01*
X-67751Y-20718D01*
X-67750D01*
X-67748Y-20717D01*
X-67744Y-20716D01*
X-67739Y-20715D01*
X-67732Y-20714D01*
X-67724Y-20713D01*
X-67715Y-20711D01*
X-67705Y-20710D01*
X-67693Y-20708D01*
X-67681Y-20706D01*
X-67654Y-20704D01*
X-67623Y-20702D01*
X-67590Y-20701D01*
X-67226D01*
Y-21711D01*
D02*
G37*
G36*
X-68536Y-21491D02*
X-68534Y-21489D01*
X-68531Y-21487D01*
X-68528Y-21484D01*
X-68518Y-21475D01*
X-68504Y-21464D01*
X-68487Y-21451D01*
X-68467Y-21437D01*
X-68444Y-21421D01*
X-68418Y-21405D01*
X-68417D01*
X-68415Y-21403D01*
X-68411Y-21401D01*
X-68406Y-21398D01*
X-68399Y-21395D01*
X-68392Y-21391D01*
X-68374Y-21381D01*
X-68354Y-21371D01*
X-68332Y-21360D01*
X-68310Y-21350D01*
X-68288Y-21341D01*
Y-21461D01*
X-68289Y-21462D01*
X-68293Y-21463D01*
X-68298Y-21466D01*
X-68305Y-21470D01*
X-68315Y-21475D01*
X-68325Y-21480D01*
X-68337Y-21487D01*
X-68350Y-21494D01*
X-68378Y-21511D01*
X-68408Y-21531D01*
X-68439Y-21554D01*
X-68469Y-21579D01*
X-68470Y-21580D01*
X-68472Y-21582D01*
X-68476Y-21586D01*
X-68482Y-21591D01*
X-68488Y-21597D01*
X-68495Y-21605D01*
X-68512Y-21622D01*
X-68530Y-21643D01*
X-68549Y-21666D01*
X-68566Y-21690D01*
X-68573Y-21703D01*
X-68580Y-21715D01*
X-68660D01*
Y-20701D01*
X-68536D01*
Y-21491D01*
D02*
G37*
G36*
X-147824Y11539D02*
X-148518D01*
X-148517Y11538D01*
X-148514Y11534D01*
X-148509Y11529D01*
X-148503Y11521D01*
X-148495Y11511D01*
X-148486Y11500D01*
X-148476Y11486D01*
X-148465Y11471D01*
X-148454Y11455D01*
X-148443Y11437D01*
X-148431Y11417D01*
X-148420Y11396D01*
X-148409Y11374D01*
X-148398Y11351D01*
X-148388Y11326D01*
X-148379Y11301D01*
X-148546D01*
Y11302D01*
X-148547Y11304D01*
X-148549Y11308D01*
X-148551Y11314D01*
X-148553Y11320D01*
X-148557Y11328D01*
X-148561Y11337D01*
X-148566Y11348D01*
X-148578Y11371D01*
X-148593Y11397D01*
X-148612Y11426D01*
X-148623Y11441D01*
X-148635Y11457D01*
X-148636Y11458D01*
X-148638Y11461D01*
X-148642Y11465D01*
X-148647Y11471D01*
X-148653Y11478D01*
X-148661Y11486D01*
X-148669Y11494D01*
X-148679Y11503D01*
X-148690Y11513D01*
X-148702Y11523D01*
X-148728Y11542D01*
X-148757Y11559D01*
X-148773Y11567D01*
X-148789Y11573D01*
Y11723D01*
X-147824D01*
Y11539D01*
D02*
G37*
G36*
X-148114Y11124D02*
X-148106Y11121D01*
X-148095Y11118D01*
X-148082Y11113D01*
X-148067Y11107D01*
X-148050Y11100D01*
X-148032Y11091D01*
X-148013Y11082D01*
X-147994Y11071D01*
X-147974Y11059D01*
X-147954Y11046D01*
X-147935Y11032D01*
X-147917Y11016D01*
X-147900Y10999D01*
X-147885Y10981D01*
X-147884Y10980D01*
X-147882Y10976D01*
X-147878Y10971D01*
X-147873Y10963D01*
X-147867Y10953D01*
X-147861Y10941D01*
X-147854Y10927D01*
X-147847Y10912D01*
X-147839Y10894D01*
X-147832Y10875D01*
X-147826Y10854D01*
X-147820Y10831D01*
X-147815Y10807D01*
X-147811Y10781D01*
X-147809Y10754D01*
X-147808Y10726D01*
Y10718D01*
X-147809Y10708D01*
X-147810Y10694D01*
X-147812Y10678D01*
X-147815Y10659D01*
X-147819Y10638D01*
X-147824Y10615D01*
X-147831Y10591D01*
X-147840Y10565D01*
X-147850Y10539D01*
X-147863Y10513D01*
X-147878Y10487D01*
X-147895Y10461D01*
X-147915Y10436D01*
X-147938Y10412D01*
X-147940Y10411D01*
X-147944Y10407D01*
X-147952Y10401D01*
X-147962Y10393D01*
X-147975Y10384D01*
X-147991Y10373D01*
X-148010Y10362D01*
X-148032Y10351D01*
X-148056Y10339D01*
X-148083Y10328D01*
X-148112Y10318D01*
X-148144Y10308D01*
X-148179Y10300D01*
X-148215Y10294D01*
X-148255Y10290D01*
X-148296Y10289D01*
X-148297D01*
X-148299D01*
X-148302D01*
X-148307D01*
X-148312Y10290D01*
X-148319D01*
X-148327D01*
X-148336Y10291D01*
X-148356Y10293D01*
X-148379Y10296D01*
X-148405Y10299D01*
X-148433Y10304D01*
X-148462Y10311D01*
X-148493Y10319D01*
X-148524Y10329D01*
X-148555Y10341D01*
X-148585Y10355D01*
X-148615Y10371D01*
X-148643Y10390D01*
X-148669Y10412D01*
X-148671Y10413D01*
X-148675Y10418D01*
X-148681Y10425D01*
X-148690Y10435D01*
X-148700Y10447D01*
X-148711Y10462D01*
X-148723Y10479D01*
X-148736Y10499D01*
X-148748Y10522D01*
X-148760Y10546D01*
X-148771Y10573D01*
X-148781Y10602D01*
X-148790Y10633D01*
X-148796Y10666D01*
X-148801Y10701D01*
X-148802Y10738D01*
Y10746D01*
X-148801Y10755D01*
X-148800Y10767D01*
X-148799Y10782D01*
X-148796Y10800D01*
X-148793Y10819D01*
X-148789Y10840D01*
X-148783Y10862D01*
X-148776Y10885D01*
X-148768Y10909D01*
X-148758Y10933D01*
X-148746Y10957D01*
X-148732Y10980D01*
X-148716Y11003D01*
X-148697Y11024D01*
X-148696Y11025D01*
X-148694Y11027D01*
X-148691Y11030D01*
X-148686Y11035D01*
X-148679Y11040D01*
X-148672Y11047D01*
X-148663Y11054D01*
X-148652Y11061D01*
X-148640Y11069D01*
X-148627Y11077D01*
X-148613Y11085D01*
X-148597Y11094D01*
X-148580Y11102D01*
X-148562Y11109D01*
X-148542Y11116D01*
X-148521Y11123D01*
X-148475Y10931D01*
X-148476D01*
X-148478Y10930D01*
X-148482Y10929D01*
X-148487Y10927D01*
X-148494Y10925D01*
X-148501Y10922D01*
X-148517Y10915D01*
X-148536Y10906D01*
X-148556Y10893D01*
X-148575Y10878D01*
X-148592Y10859D01*
X-148593Y10858D01*
X-148594Y10857D01*
X-148596Y10854D01*
X-148599Y10849D01*
X-148602Y10844D01*
X-148606Y10838D01*
X-148614Y10822D01*
X-148622Y10803D01*
X-148629Y10781D01*
X-148634Y10756D01*
X-148636Y10742D01*
Y10718D01*
X-148635Y10710D01*
X-148634Y10701D01*
X-148632Y10691D01*
X-148630Y10679D01*
X-148626Y10666D01*
X-148622Y10653D01*
X-148617Y10639D01*
X-148611Y10624D01*
X-148604Y10610D01*
X-148595Y10596D01*
X-148584Y10581D01*
X-148573Y10568D01*
X-148559Y10555D01*
X-148558Y10554D01*
X-148555Y10552D01*
X-148551Y10549D01*
X-148544Y10545D01*
X-148536Y10540D01*
X-148526Y10534D01*
X-148513Y10528D01*
X-148499Y10522D01*
X-148483Y10516D01*
X-148464Y10510D01*
X-148444Y10504D01*
X-148422Y10499D01*
X-148397Y10495D01*
X-148370Y10492D01*
X-148341Y10490D01*
X-148310Y10489D01*
X-148308D01*
X-148302D01*
X-148293D01*
X-148280Y10490D01*
X-148265Y10491D01*
X-148248Y10492D01*
X-148230Y10494D01*
X-148209Y10497D01*
X-148167Y10505D01*
X-148145Y10510D01*
X-148124Y10516D01*
X-148104Y10524D01*
X-148084Y10533D01*
X-148067Y10543D01*
X-148051Y10554D01*
X-148050Y10555D01*
X-148048Y10557D01*
X-148044Y10561D01*
X-148039Y10566D01*
X-148033Y10573D01*
X-148027Y10580D01*
X-148020Y10590D01*
X-148013Y10600D01*
X-148005Y10612D01*
X-147998Y10625D01*
X-147992Y10639D01*
X-147986Y10654D01*
X-147981Y10670D01*
X-147977Y10687D01*
X-147975Y10705D01*
X-147974Y10724D01*
Y10732D01*
X-147975Y10737D01*
X-147976Y10744D01*
X-147977Y10752D01*
X-147980Y10770D01*
X-147986Y10791D01*
X-147995Y10813D01*
X-148000Y10824D01*
X-148007Y10836D01*
X-148014Y10846D01*
X-148023Y10857D01*
X-148024Y10858D01*
X-148025Y10859D01*
X-148028Y10862D01*
X-148032Y10866D01*
X-148038Y10871D01*
X-148044Y10876D01*
X-148052Y10882D01*
X-148061Y10888D01*
X-148071Y10895D01*
X-148083Y10901D01*
X-148095Y10908D01*
X-148110Y10915D01*
X-148125Y10921D01*
X-148142Y10927D01*
X-148160Y10933D01*
X-148179Y10938D01*
X-148121Y11126D01*
X-148119D01*
X-148114Y11124D01*
D02*
G37*
G36*
X-124333Y130041D02*
X-124321Y130023D01*
X-124307Y130006D01*
X-124293Y129990D01*
X-124281Y129977D01*
X-124270Y129967D01*
X-124267Y129963D01*
X-124264Y129960D01*
X-124262Y129959D01*
X-124261Y129958D01*
X-124239Y129939D01*
X-124215Y129922D01*
X-124193Y129907D01*
X-124171Y129895D01*
X-124153Y129884D01*
X-124145Y129880D01*
X-124138Y129876D01*
X-124133Y129874D01*
X-124128Y129872D01*
X-124126Y129870D01*
X-124125D01*
Y129780D01*
X-124142Y129787D01*
X-124158Y129794D01*
X-124175Y129802D01*
X-124190Y129810D01*
X-124203Y129817D01*
X-124213Y129823D01*
X-124217Y129825D01*
X-124220Y129827D01*
X-124221Y129828D01*
X-124222D01*
X-124242Y129840D01*
X-124259Y129852D01*
X-124274Y129862D01*
X-124287Y129872D01*
X-124297Y129880D01*
X-124305Y129887D01*
X-124309Y129891D01*
X-124311Y129892D01*
Y129300D01*
X-124404D01*
Y130060D01*
X-124344D01*
X-124333Y130041D01*
D02*
G37*
G36*
X-124921D02*
X-124909Y130023D01*
X-124895Y130006D01*
X-124881Y129990D01*
X-124869Y129977D01*
X-124858Y129967D01*
X-124855Y129963D01*
X-124852Y129960D01*
X-124850Y129959D01*
X-124849Y129958D01*
X-124827Y129939D01*
X-124803Y129922D01*
X-124781Y129907D01*
X-124759Y129895D01*
X-124741Y129884D01*
X-124733Y129880D01*
X-124726Y129876D01*
X-124721Y129874D01*
X-124716Y129872D01*
X-124714Y129870D01*
X-124713D01*
Y129780D01*
X-124730Y129787D01*
X-124746Y129794D01*
X-124763Y129802D01*
X-124778Y129810D01*
X-124791Y129817D01*
X-124801Y129823D01*
X-124805Y129825D01*
X-124808Y129827D01*
X-124809Y129828D01*
X-124810D01*
X-124830Y129840D01*
X-124847Y129852D01*
X-124862Y129862D01*
X-124875Y129872D01*
X-124885Y129880D01*
X-124893Y129887D01*
X-124897Y129891D01*
X-124899Y129892D01*
Y129300D01*
X-124992D01*
Y130060D01*
X-124932D01*
X-124921Y130041D01*
D02*
G37*
G36*
X-123619Y130068D02*
X-123585Y130063D01*
X-123554Y130055D01*
X-123540Y130051D01*
X-123527Y130047D01*
X-123515Y130043D01*
X-123505Y130039D01*
X-123495Y130035D01*
X-123488Y130031D01*
X-123481Y130028D01*
X-123477Y130026D01*
X-123474Y130025D01*
X-123473Y130024D01*
X-123444Y130005D01*
X-123418Y129984D01*
X-123396Y129961D01*
X-123378Y129940D01*
X-123364Y129920D01*
X-123358Y129912D01*
X-123353Y129905D01*
X-123350Y129898D01*
X-123347Y129894D01*
X-123346Y129891D01*
X-123345Y129890D01*
X-123337Y129873D01*
X-123330Y129856D01*
X-123319Y129821D01*
X-123311Y129786D01*
X-123308Y129770D01*
X-123306Y129754D01*
X-123304Y129739D01*
X-123302Y129726D01*
X-123301Y129714D01*
Y129704D01*
X-123300Y129696D01*
Y129689D01*
Y129685D01*
Y129684D01*
X-123302Y129644D01*
X-123306Y129606D01*
X-123309Y129588D01*
X-123312Y129572D01*
X-123316Y129556D01*
X-123320Y129541D01*
X-123323Y129528D01*
X-123327Y129516D01*
X-123330Y129505D01*
X-123333Y129497D01*
X-123335Y129490D01*
X-123337Y129484D01*
X-123339Y129481D01*
Y129480D01*
X-123347Y129463D01*
X-123356Y129447D01*
X-123365Y129432D01*
X-123374Y129418D01*
X-123384Y129405D01*
X-123393Y129393D01*
X-123403Y129382D01*
X-123412Y129373D01*
X-123421Y129364D01*
X-123429Y129357D01*
X-123436Y129350D01*
X-123443Y129345D01*
X-123448Y129341D01*
X-123452Y129338D01*
X-123454Y129337D01*
X-123455Y129336D01*
X-123470Y129327D01*
X-123486Y129320D01*
X-123502Y129313D01*
X-123519Y129308D01*
X-123552Y129299D01*
X-123584Y129293D01*
X-123599Y129291D01*
X-123612Y129290D01*
X-123624Y129289D01*
X-123635Y129288D01*
X-123643Y129287D01*
X-123655D01*
X-123677Y129288D01*
X-123697Y129290D01*
X-123717Y129293D01*
X-123736Y129297D01*
X-123753Y129302D01*
X-123770Y129307D01*
X-123785Y129313D01*
X-123799Y129319D01*
X-123811Y129325D01*
X-123822Y129331D01*
X-123832Y129336D01*
X-123840Y129341D01*
X-123846Y129345D01*
X-123850Y129348D01*
X-123853Y129350D01*
X-123854Y129351D01*
X-123869Y129364D01*
X-123882Y129378D01*
X-123895Y129393D01*
X-123906Y129408D01*
X-123917Y129424D01*
X-123926Y129439D01*
X-123934Y129455D01*
X-123942Y129470D01*
X-123948Y129484D01*
X-123954Y129497D01*
X-123958Y129509D01*
X-123962Y129520D01*
X-123965Y129528D01*
X-123966Y129535D01*
X-123968Y129539D01*
Y129540D01*
X-123868Y129565D01*
X-123864Y129548D01*
X-123859Y129532D01*
X-123853Y129516D01*
X-123847Y129502D01*
X-123840Y129490D01*
X-123833Y129478D01*
X-123827Y129467D01*
X-123820Y129457D01*
X-123814Y129449D01*
X-123808Y129442D01*
X-123802Y129435D01*
X-123798Y129430D01*
X-123794Y129426D01*
X-123791Y129423D01*
X-123789Y129422D01*
X-123788Y129421D01*
X-123777Y129413D01*
X-123765Y129405D01*
X-123741Y129393D01*
X-123718Y129385D01*
X-123695Y129379D01*
X-123685Y129377D01*
X-123676Y129376D01*
X-123667Y129374D01*
X-123660D01*
X-123654Y129373D01*
X-123646D01*
X-123621Y129375D01*
X-123597Y129379D01*
X-123575Y129384D01*
X-123556Y129391D01*
X-123540Y129397D01*
X-123534Y129400D01*
X-123528Y129403D01*
X-123524Y129405D01*
X-123521Y129407D01*
X-123519Y129408D01*
X-123518D01*
X-123497Y129423D01*
X-123480Y129440D01*
X-123465Y129458D01*
X-123452Y129476D01*
X-123443Y129491D01*
X-123439Y129498D01*
X-123436Y129504D01*
X-123434Y129509D01*
X-123432Y129513D01*
X-123431Y129515D01*
Y129516D01*
X-123422Y129544D01*
X-123415Y129573D01*
X-123410Y129601D01*
X-123407Y129627D01*
X-123405Y129639D01*
Y129650D01*
X-123404Y129660D01*
X-123403Y129668D01*
Y129675D01*
Y129680D01*
Y129683D01*
Y129684D01*
X-123404Y129712D01*
X-123407Y129738D01*
X-123410Y129763D01*
X-123415Y129785D01*
X-123417Y129794D01*
X-123419Y129803D01*
X-123421Y129811D01*
X-123422Y129817D01*
X-123424Y129822D01*
X-123425Y129826D01*
X-123426Y129828D01*
Y129829D01*
X-123436Y129854D01*
X-123449Y129877D01*
X-123463Y129896D01*
X-123476Y129912D01*
X-123488Y129925D01*
X-123499Y129934D01*
X-123503Y129938D01*
X-123505Y129940D01*
X-123507Y129942D01*
X-123508D01*
X-123531Y129956D01*
X-123556Y129966D01*
X-123580Y129974D01*
X-123603Y129979D01*
X-123614Y129981D01*
X-123623Y129982D01*
X-123632Y129983D01*
X-123640D01*
X-123646Y129984D01*
X-123654D01*
X-123681Y129982D01*
X-123705Y129978D01*
X-123727Y129972D01*
X-123745Y129965D01*
X-123759Y129958D01*
X-123765Y129955D01*
X-123770Y129952D01*
X-123774Y129950D01*
X-123777Y129948D01*
X-123778Y129946D01*
X-123779D01*
X-123788Y129938D01*
X-123797Y129930D01*
X-123812Y129911D01*
X-123825Y129891D01*
X-123836Y129872D01*
X-123845Y129854D01*
X-123848Y129846D01*
X-123851Y129839D01*
X-123853Y129834D01*
X-123855Y129830D01*
X-123856Y129827D01*
Y129826D01*
X-123955Y129849D01*
X-123949Y129868D01*
X-123941Y129886D01*
X-123933Y129903D01*
X-123925Y129919D01*
X-123916Y129933D01*
X-123907Y129947D01*
X-123898Y129959D01*
X-123889Y129970D01*
X-123880Y129980D01*
X-123872Y129988D01*
X-123865Y129995D01*
X-123859Y130001D01*
X-123853Y130006D01*
X-123849Y130009D01*
X-123847Y130011D01*
X-123846Y130012D01*
X-123831Y130022D01*
X-123816Y130031D01*
X-123800Y130039D01*
X-123784Y130046D01*
X-123768Y130051D01*
X-123752Y130056D01*
X-123722Y130063D01*
X-123708Y130065D01*
X-123696Y130067D01*
X-123685Y130068D01*
X-123675Y130069D01*
X-123667Y130070D01*
X-123637D01*
X-123619Y130068D01*
D02*
G37*
G36*
X-135780Y80512D02*
X-135771Y80511D01*
X-135761Y80510D01*
X-135749Y80508D01*
X-135737Y80506D01*
X-135710Y80499D01*
X-135696Y80494D01*
X-135682Y80489D01*
X-135668Y80482D01*
X-135654Y80475D01*
X-135641Y80466D01*
X-135628Y80456D01*
X-135627Y80455D01*
X-135625Y80453D01*
X-135622Y80450D01*
X-135618Y80445D01*
X-135613Y80440D01*
X-135607Y80433D01*
X-135601Y80424D01*
X-135594Y80415D01*
X-135588Y80404D01*
X-135581Y80393D01*
X-135575Y80380D01*
X-135569Y80367D01*
X-135564Y80352D01*
X-135560Y80336D01*
X-135556Y80320D01*
X-135554Y80302D01*
X-135652Y80295D01*
Y80296D01*
X-135653Y80298D01*
Y80302D01*
X-135654Y80307D01*
X-135656Y80313D01*
X-135657Y80319D01*
X-135662Y80335D01*
X-135668Y80352D01*
X-135677Y80370D01*
X-135688Y80387D01*
X-135701Y80402D01*
X-135703Y80403D01*
X-135708Y80407D01*
X-135717Y80413D01*
X-135728Y80419D01*
X-135742Y80426D01*
X-135758Y80431D01*
X-135777Y80435D01*
X-135797Y80437D01*
X-135804D01*
X-135808Y80436D01*
X-135814Y80435D01*
X-135821Y80434D01*
X-135837Y80431D01*
X-135855Y80425D01*
X-135874Y80416D01*
X-135883Y80410D01*
X-135893Y80403D01*
X-135902Y80396D01*
X-135911Y80387D01*
X-135912Y80386D01*
X-135913Y80385D01*
X-135915Y80382D01*
X-135918Y80378D01*
X-135922Y80373D01*
X-135926Y80366D01*
X-135930Y80359D01*
X-135934Y80351D01*
X-135942Y80332D01*
X-135950Y80308D01*
X-135955Y80282D01*
X-135957Y80267D01*
Y80252D01*
Y80251D01*
Y80248D01*
Y80244D01*
X-135956Y80239D01*
Y80232D01*
X-135955Y80225D01*
X-135951Y80207D01*
X-135946Y80187D01*
X-135938Y80166D01*
X-135927Y80146D01*
X-135920Y80136D01*
X-135912Y80127D01*
Y80126D01*
X-135910Y80125D01*
X-135904Y80120D01*
X-135894Y80112D01*
X-135881Y80103D01*
X-135864Y80095D01*
X-135844Y80087D01*
X-135821Y80082D01*
X-135808Y80080D01*
X-135787D01*
X-135779Y80081D01*
X-135768Y80083D01*
X-135755Y80085D01*
X-135742Y80089D01*
X-135728Y80094D01*
X-135714Y80101D01*
X-135712Y80102D01*
X-135708Y80105D01*
X-135702Y80109D01*
X-135694Y80115D01*
X-135685Y80123D01*
X-135675Y80132D01*
X-135666Y80143D01*
X-135658Y80154D01*
X-135571Y80142D01*
X-135644Y79753D01*
X-136020D01*
Y79842D01*
X-135717D01*
X-135677Y80046D01*
X-135678Y80045D01*
X-135680Y80044D01*
X-135684Y80042D01*
X-135689Y80038D01*
X-135695Y80035D01*
X-135703Y80031D01*
X-135711Y80026D01*
X-135720Y80022D01*
X-135742Y80013D01*
X-135766Y80005D01*
X-135792Y80000D01*
X-135806Y79999D01*
X-135820Y79998D01*
X-135830D01*
X-135837Y79999D01*
X-135845Y80000D01*
X-135855Y80002D01*
X-135866Y80004D01*
X-135878Y80007D01*
X-135891Y80010D01*
X-135904Y80015D01*
X-135918Y80020D01*
X-135932Y80027D01*
X-135946Y80035D01*
X-135960Y80044D01*
X-135974Y80055D01*
X-135987Y80067D01*
X-135988Y80068D01*
X-135990Y80070D01*
X-135993Y80074D01*
X-135998Y80079D01*
X-136003Y80086D01*
X-136009Y80094D01*
X-136015Y80104D01*
X-136022Y80115D01*
X-136028Y80127D01*
X-136034Y80141D01*
X-136040Y80155D01*
X-136045Y80171D01*
X-136050Y80188D01*
X-136053Y80205D01*
X-136055Y80224D01*
X-136056Y80244D01*
Y80245D01*
Y80249D01*
Y80254D01*
X-136055Y80261D01*
X-136054Y80270D01*
X-136053Y80281D01*
X-136051Y80292D01*
X-136049Y80305D01*
X-136041Y80333D01*
X-136037Y80347D01*
X-136031Y80363D01*
X-136024Y80378D01*
X-136016Y80393D01*
X-136007Y80408D01*
X-135996Y80422D01*
X-135995Y80423D01*
X-135993Y80426D01*
X-135988Y80430D01*
X-135983Y80436D01*
X-135975Y80443D01*
X-135966Y80451D01*
X-135956Y80459D01*
X-135944Y80467D01*
X-135930Y80476D01*
X-135915Y80484D01*
X-135899Y80492D01*
X-135881Y80499D01*
X-135862Y80505D01*
X-135842Y80509D01*
X-135820Y80512D01*
X-135797Y80513D01*
X-135787D01*
X-135780Y80512D01*
D02*
G37*
G36*
X-135135D02*
X-135124Y80511D01*
X-135112Y80510D01*
X-135099Y80509D01*
X-135084Y80507D01*
X-135052Y80501D01*
X-135019Y80492D01*
X-135002Y80487D01*
X-134986Y80480D01*
X-134970Y80473D01*
X-134955Y80464D01*
X-134954Y80463D01*
X-134952Y80462D01*
X-134948Y80459D01*
X-134943Y80455D01*
X-134936Y80450D01*
X-134929Y80443D01*
X-134921Y80436D01*
X-134912Y80427D01*
X-134903Y80418D01*
X-134893Y80407D01*
X-134884Y80395D01*
X-134874Y80382D01*
X-134865Y80368D01*
X-134856Y80353D01*
X-134847Y80337D01*
X-134839Y80320D01*
Y80319D01*
X-134837Y80316D01*
X-134835Y80310D01*
X-134833Y80303D01*
X-134830Y80295D01*
X-134827Y80284D01*
X-134823Y80272D01*
X-134820Y80259D01*
X-134816Y80244D01*
X-134812Y80228D01*
X-134809Y80212D01*
X-134806Y80194D01*
X-134802Y80156D01*
X-134800Y80116D01*
Y80115D01*
Y80111D01*
Y80104D01*
X-134801Y80096D01*
Y80086D01*
X-134802Y80074D01*
X-134804Y80061D01*
X-134806Y80046D01*
X-134808Y80030D01*
X-134811Y80014D01*
X-134819Y79979D01*
X-134830Y79944D01*
X-134837Y79927D01*
X-134845Y79910D01*
X-134846Y79909D01*
X-134847Y79906D01*
X-134850Y79902D01*
X-134853Y79895D01*
X-134858Y79888D01*
X-134864Y79880D01*
X-134878Y79860D01*
X-134896Y79839D01*
X-134918Y79816D01*
X-134944Y79795D01*
X-134973Y79776D01*
X-134974Y79775D01*
X-134977Y79774D01*
X-134981Y79772D01*
X-134988Y79769D01*
X-134995Y79765D01*
X-135005Y79761D01*
X-135015Y79757D01*
X-135027Y79753D01*
X-135040Y79749D01*
X-135054Y79745D01*
X-135085Y79737D01*
X-135119Y79732D01*
X-135137Y79730D01*
X-135167D01*
X-135175Y79731D01*
X-135185Y79732D01*
X-135196Y79733D01*
X-135208Y79735D01*
X-135222Y79737D01*
X-135252Y79744D01*
X-135268Y79749D01*
X-135284Y79754D01*
X-135300Y79761D01*
X-135316Y79769D01*
X-135331Y79778D01*
X-135346Y79788D01*
X-135347Y79789D01*
X-135349Y79791D01*
X-135353Y79794D01*
X-135359Y79799D01*
X-135365Y79805D01*
X-135372Y79812D01*
X-135380Y79820D01*
X-135389Y79830D01*
X-135398Y79841D01*
X-135407Y79853D01*
X-135416Y79867D01*
X-135425Y79881D01*
X-135433Y79897D01*
X-135441Y79914D01*
X-135449Y79932D01*
X-135455Y79951D01*
X-135356Y79974D01*
Y79973D01*
X-135355Y79970D01*
X-135353Y79966D01*
X-135351Y79961D01*
X-135348Y79954D01*
X-135345Y79946D01*
X-135336Y79928D01*
X-135325Y79909D01*
X-135312Y79889D01*
X-135297Y79870D01*
X-135288Y79862D01*
X-135279Y79854D01*
X-135278D01*
X-135277Y79852D01*
X-135274Y79850D01*
X-135270Y79848D01*
X-135265Y79845D01*
X-135259Y79842D01*
X-135245Y79835D01*
X-135227Y79828D01*
X-135205Y79822D01*
X-135181Y79818D01*
X-135154Y79816D01*
X-135146D01*
X-135140Y79817D01*
X-135132D01*
X-135123Y79818D01*
X-135114Y79819D01*
X-135103Y79821D01*
X-135080Y79826D01*
X-135056Y79834D01*
X-135031Y79844D01*
X-135008Y79858D01*
X-135007D01*
X-135005Y79860D01*
X-135003Y79862D01*
X-134999Y79866D01*
X-134988Y79875D01*
X-134976Y79888D01*
X-134963Y79904D01*
X-134949Y79923D01*
X-134936Y79946D01*
X-134926Y79971D01*
Y79972D01*
X-134925Y79974D01*
X-134924Y79978D01*
X-134922Y79983D01*
X-134921Y79989D01*
X-134919Y79997D01*
X-134917Y80006D01*
X-134915Y80015D01*
X-134910Y80037D01*
X-134907Y80062D01*
X-134904Y80088D01*
X-134903Y80116D01*
Y80117D01*
Y80120D01*
Y80125D01*
Y80132D01*
X-134904Y80140D01*
X-134905Y80150D01*
Y80161D01*
X-134907Y80173D01*
X-134910Y80199D01*
X-134915Y80227D01*
X-134922Y80256D01*
X-134931Y80284D01*
Y80285D01*
X-134932Y80287D01*
X-134934Y80291D01*
X-134936Y80296D01*
X-134939Y80302D01*
X-134943Y80309D01*
X-134952Y80324D01*
X-134965Y80342D01*
X-134980Y80360D01*
X-134997Y80377D01*
X-135018Y80392D01*
X-135019D01*
X-135021Y80393D01*
X-135024Y80395D01*
X-135028Y80397D01*
X-135034Y80400D01*
X-135040Y80403D01*
X-135056Y80409D01*
X-135075Y80416D01*
X-135097Y80421D01*
X-135121Y80425D01*
X-135146Y80427D01*
X-135154D01*
X-135160Y80426D01*
X-135167D01*
X-135176Y80424D01*
X-135185Y80423D01*
X-135195Y80421D01*
X-135218Y80415D01*
X-135241Y80407D01*
X-135265Y80395D01*
X-135277Y80387D01*
X-135288Y80379D01*
X-135289Y80378D01*
X-135291Y80377D01*
X-135294Y80374D01*
X-135298Y80370D01*
X-135302Y80365D01*
X-135308Y80358D01*
X-135314Y80351D01*
X-135320Y80343D01*
X-135327Y80333D01*
X-135333Y80322D01*
X-135340Y80310D01*
X-135347Y80298D01*
X-135353Y80284D01*
X-135359Y80268D01*
X-135364Y80252D01*
X-135368Y80235D01*
X-135468Y80260D01*
Y80261D01*
X-135466Y80265D01*
X-135465Y80272D01*
X-135462Y80280D01*
X-135458Y80291D01*
X-135454Y80303D01*
X-135448Y80316D01*
X-135442Y80330D01*
X-135434Y80345D01*
X-135426Y80361D01*
X-135417Y80376D01*
X-135406Y80392D01*
X-135395Y80407D01*
X-135382Y80422D01*
X-135369Y80436D01*
X-135354Y80449D01*
X-135353Y80450D01*
X-135350Y80452D01*
X-135346Y80455D01*
X-135340Y80459D01*
X-135332Y80464D01*
X-135322Y80469D01*
X-135311Y80475D01*
X-135299Y80481D01*
X-135285Y80487D01*
X-135270Y80493D01*
X-135253Y80498D01*
X-135236Y80503D01*
X-135217Y80507D01*
X-135197Y80510D01*
X-135177Y80512D01*
X-135155Y80513D01*
X-135143D01*
X-135135Y80512D01*
D02*
G37*
G36*
X-88425Y79669D02*
X-88415Y79668D01*
X-88404Y79667D01*
X-88392Y79665D01*
X-88378Y79663D01*
X-88348Y79656D01*
X-88332Y79651D01*
X-88316Y79646D01*
X-88300Y79639D01*
X-88284Y79631D01*
X-88269Y79622D01*
X-88254Y79612D01*
X-88253Y79611D01*
X-88251Y79609D01*
X-88247Y79606D01*
X-88241Y79601D01*
X-88235Y79595D01*
X-88228Y79588D01*
X-88220Y79580D01*
X-88211Y79570D01*
X-88202Y79559D01*
X-88193Y79547D01*
X-88184Y79533D01*
X-88175Y79519D01*
X-88167Y79503D01*
X-88159Y79486D01*
X-88151Y79468D01*
X-88145Y79449D01*
X-88244Y79426D01*
Y79427D01*
X-88245Y79430D01*
X-88247Y79434D01*
X-88249Y79439D01*
X-88252Y79446D01*
X-88255Y79454D01*
X-88264Y79472D01*
X-88275Y79491D01*
X-88288Y79511D01*
X-88303Y79530D01*
X-88312Y79538D01*
X-88321Y79546D01*
X-88322D01*
X-88323Y79548D01*
X-88326Y79550D01*
X-88330Y79552D01*
X-88335Y79555D01*
X-88341Y79558D01*
X-88355Y79565D01*
X-88373Y79572D01*
X-88395Y79578D01*
X-88419Y79582D01*
X-88446Y79584D01*
X-88454D01*
X-88460Y79583D01*
X-88468D01*
X-88477Y79582D01*
X-88486Y79581D01*
X-88497Y79579D01*
X-88520Y79574D01*
X-88544Y79566D01*
X-88569Y79556D01*
X-88592Y79542D01*
X-88593D01*
X-88595Y79540D01*
X-88597Y79538D01*
X-88601Y79534D01*
X-88612Y79525D01*
X-88624Y79512D01*
X-88637Y79496D01*
X-88651Y79477D01*
X-88664Y79454D01*
X-88674Y79429D01*
Y79428D01*
X-88675Y79426D01*
X-88676Y79422D01*
X-88678Y79417D01*
X-88679Y79411D01*
X-88681Y79403D01*
X-88683Y79394D01*
X-88685Y79385D01*
X-88690Y79363D01*
X-88693Y79338D01*
X-88696Y79312D01*
X-88697Y79284D01*
Y79283D01*
Y79280D01*
Y79275D01*
Y79268D01*
X-88696Y79260D01*
X-88695Y79250D01*
Y79239D01*
X-88693Y79227D01*
X-88690Y79201D01*
X-88685Y79173D01*
X-88678Y79144D01*
X-88669Y79116D01*
Y79115D01*
X-88668Y79113D01*
X-88666Y79109D01*
X-88664Y79104D01*
X-88661Y79098D01*
X-88657Y79091D01*
X-88648Y79076D01*
X-88635Y79058D01*
X-88620Y79040D01*
X-88603Y79023D01*
X-88582Y79008D01*
X-88581D01*
X-88579Y79007D01*
X-88576Y79005D01*
X-88572Y79003D01*
X-88566Y79000D01*
X-88560Y78997D01*
X-88544Y78991D01*
X-88525Y78984D01*
X-88503Y78979D01*
X-88479Y78975D01*
X-88454Y78973D01*
X-88446D01*
X-88440Y78974D01*
X-88433D01*
X-88424Y78976D01*
X-88415Y78977D01*
X-88405Y78979D01*
X-88382Y78985D01*
X-88359Y78993D01*
X-88335Y79005D01*
X-88323Y79013D01*
X-88312Y79021D01*
X-88311Y79022D01*
X-88309Y79023D01*
X-88306Y79026D01*
X-88302Y79030D01*
X-88298Y79035D01*
X-88292Y79042D01*
X-88286Y79049D01*
X-88280Y79057D01*
X-88273Y79067D01*
X-88267Y79078D01*
X-88260Y79090D01*
X-88253Y79102D01*
X-88247Y79116D01*
X-88241Y79132D01*
X-88236Y79148D01*
X-88232Y79165D01*
X-88132Y79140D01*
Y79139D01*
X-88134Y79135D01*
X-88135Y79128D01*
X-88138Y79120D01*
X-88142Y79109D01*
X-88146Y79097D01*
X-88152Y79084D01*
X-88158Y79070D01*
X-88166Y79055D01*
X-88174Y79039D01*
X-88183Y79024D01*
X-88194Y79008D01*
X-88205Y78993D01*
X-88218Y78978D01*
X-88231Y78964D01*
X-88246Y78951D01*
X-88247Y78950D01*
X-88250Y78948D01*
X-88254Y78945D01*
X-88260Y78941D01*
X-88268Y78936D01*
X-88278Y78931D01*
X-88289Y78925D01*
X-88301Y78919D01*
X-88315Y78913D01*
X-88330Y78907D01*
X-88347Y78902D01*
X-88364Y78897D01*
X-88383Y78893D01*
X-88403Y78890D01*
X-88423Y78888D01*
X-88445Y78887D01*
X-88457D01*
X-88465Y78888D01*
X-88476Y78889D01*
X-88488Y78890D01*
X-88501Y78891D01*
X-88516Y78893D01*
X-88548Y78899D01*
X-88581Y78908D01*
X-88598Y78913D01*
X-88614Y78920D01*
X-88630Y78927D01*
X-88645Y78936D01*
X-88646Y78937D01*
X-88648Y78938D01*
X-88652Y78941D01*
X-88657Y78945D01*
X-88664Y78950D01*
X-88671Y78957D01*
X-88679Y78964D01*
X-88688Y78973D01*
X-88697Y78982D01*
X-88707Y78993D01*
X-88716Y79005D01*
X-88726Y79018D01*
X-88735Y79032D01*
X-88744Y79047D01*
X-88753Y79063D01*
X-88761Y79080D01*
Y79081D01*
X-88763Y79084D01*
X-88765Y79090D01*
X-88767Y79097D01*
X-88770Y79105D01*
X-88773Y79116D01*
X-88777Y79128D01*
X-88780Y79141D01*
X-88784Y79156D01*
X-88788Y79172D01*
X-88791Y79188D01*
X-88794Y79206D01*
X-88798Y79244D01*
X-88800Y79284D01*
Y79285D01*
Y79289D01*
Y79296D01*
X-88799Y79304D01*
Y79314D01*
X-88798Y79326D01*
X-88796Y79339D01*
X-88794Y79354D01*
X-88792Y79370D01*
X-88789Y79386D01*
X-88781Y79421D01*
X-88770Y79456D01*
X-88763Y79473D01*
X-88755Y79490D01*
X-88754Y79491D01*
X-88753Y79494D01*
X-88750Y79498D01*
X-88747Y79505D01*
X-88742Y79512D01*
X-88736Y79520D01*
X-88722Y79540D01*
X-88704Y79561D01*
X-88682Y79584D01*
X-88656Y79605D01*
X-88627Y79624D01*
X-88626Y79625D01*
X-88623Y79626D01*
X-88619Y79628D01*
X-88612Y79631D01*
X-88605Y79635D01*
X-88595Y79639D01*
X-88585Y79643D01*
X-88573Y79647D01*
X-88560Y79651D01*
X-88546Y79655D01*
X-88515Y79663D01*
X-88481Y79668D01*
X-88463Y79670D01*
X-88433D01*
X-88425Y79669D01*
D02*
G37*
G36*
X-87655Y79166D02*
X-87553D01*
Y79081D01*
X-87655D01*
Y78900D01*
X-87748D01*
Y79081D01*
X-88078D01*
Y79166D01*
X-87731Y79657D01*
X-87655D01*
Y79166D01*
D02*
G37*
G36*
X-90271Y130383D02*
X-90244Y130381D01*
X-90218Y130377D01*
X-90194Y130372D01*
X-90171Y130366D01*
X-90150Y130360D01*
X-90131Y130353D01*
X-90113Y130345D01*
X-90098Y130338D01*
X-90084Y130331D01*
X-90072Y130325D01*
X-90062Y130319D01*
X-90054Y130314D01*
X-90049Y130310D01*
X-90045Y130308D01*
X-90044Y130307D01*
X-90026Y130292D01*
X-90009Y130275D01*
X-89993Y130257D01*
X-89979Y130238D01*
X-89966Y130218D01*
X-89954Y130198D01*
X-89943Y130179D01*
X-89934Y130160D01*
X-89925Y130142D01*
X-89918Y130125D01*
X-89912Y130110D01*
X-89907Y130097D01*
X-89904Y130086D01*
X-89901Y130078D01*
X-89899Y130073D01*
Y130071D01*
X-90087Y130013D01*
X-90092Y130032D01*
X-90098Y130050D01*
X-90104Y130067D01*
X-90110Y130082D01*
X-90117Y130097D01*
X-90124Y130109D01*
X-90130Y130121D01*
X-90137Y130131D01*
X-90143Y130140D01*
X-90149Y130148D01*
X-90154Y130154D01*
X-90159Y130160D01*
X-90163Y130164D01*
X-90166Y130167D01*
X-90167Y130168D01*
X-90168Y130169D01*
X-90179Y130178D01*
X-90189Y130185D01*
X-90201Y130192D01*
X-90212Y130197D01*
X-90234Y130206D01*
X-90255Y130212D01*
X-90273Y130215D01*
X-90281Y130216D01*
X-90288Y130217D01*
X-90293Y130218D01*
X-90301D01*
X-90320Y130217D01*
X-90338Y130215D01*
X-90355Y130211D01*
X-90371Y130206D01*
X-90386Y130200D01*
X-90400Y130194D01*
X-90413Y130187D01*
X-90425Y130179D01*
X-90435Y130172D01*
X-90445Y130165D01*
X-90452Y130159D01*
X-90459Y130153D01*
X-90464Y130148D01*
X-90468Y130144D01*
X-90470Y130142D01*
X-90471Y130141D01*
X-90482Y130125D01*
X-90492Y130108D01*
X-90501Y130088D01*
X-90509Y130068D01*
X-90515Y130047D01*
X-90520Y130025D01*
X-90528Y129983D01*
X-90531Y129962D01*
X-90533Y129944D01*
X-90534Y129927D01*
X-90535Y129912D01*
X-90536Y129899D01*
Y129890D01*
Y129884D01*
Y129882D01*
X-90535Y129851D01*
X-90533Y129822D01*
X-90530Y129795D01*
X-90526Y129770D01*
X-90521Y129748D01*
X-90515Y129728D01*
X-90509Y129709D01*
X-90503Y129693D01*
X-90497Y129679D01*
X-90491Y129666D01*
X-90485Y129656D01*
X-90480Y129648D01*
X-90476Y129641D01*
X-90473Y129637D01*
X-90471Y129634D01*
X-90470Y129633D01*
X-90457Y129619D01*
X-90444Y129608D01*
X-90429Y129597D01*
X-90415Y129588D01*
X-90401Y129581D01*
X-90386Y129575D01*
X-90372Y129570D01*
X-90359Y129566D01*
X-90346Y129562D01*
X-90334Y129560D01*
X-90324Y129558D01*
X-90315Y129557D01*
X-90307Y129556D01*
X-90283D01*
X-90269Y129558D01*
X-90244Y129563D01*
X-90222Y129570D01*
X-90203Y129578D01*
X-90187Y129586D01*
X-90181Y129590D01*
X-90176Y129593D01*
X-90171Y129596D01*
X-90168Y129598D01*
X-90167Y129599D01*
X-90166Y129600D01*
X-90147Y129617D01*
X-90132Y129636D01*
X-90119Y129656D01*
X-90110Y129675D01*
X-90103Y129691D01*
X-90100Y129698D01*
X-90098Y129705D01*
X-90096Y129710D01*
X-90095Y129714D01*
X-90094Y129716D01*
Y129717D01*
X-89902Y129671D01*
X-89909Y129650D01*
X-89916Y129630D01*
X-89923Y129612D01*
X-89931Y129595D01*
X-89940Y129579D01*
X-89948Y129565D01*
X-89956Y129552D01*
X-89964Y129540D01*
X-89971Y129529D01*
X-89978Y129520D01*
X-89985Y129513D01*
X-89990Y129506D01*
X-89995Y129501D01*
X-89998Y129498D01*
X-90000Y129496D01*
X-90001Y129495D01*
X-90022Y129476D01*
X-90045Y129460D01*
X-90068Y129446D01*
X-90092Y129434D01*
X-90116Y129424D01*
X-90140Y129416D01*
X-90163Y129409D01*
X-90185Y129403D01*
X-90206Y129399D01*
X-90225Y129396D01*
X-90243Y129393D01*
X-90258Y129392D01*
X-90270Y129391D01*
X-90279Y129390D01*
X-90287D01*
X-90324Y129391D01*
X-90359Y129396D01*
X-90392Y129402D01*
X-90423Y129411D01*
X-90452Y129421D01*
X-90479Y129432D01*
X-90503Y129444D01*
X-90526Y129456D01*
X-90546Y129469D01*
X-90563Y129481D01*
X-90578Y129492D01*
X-90590Y129502D01*
X-90600Y129511D01*
X-90607Y129517D01*
X-90612Y129521D01*
X-90613Y129523D01*
X-90635Y129549D01*
X-90654Y129577D01*
X-90670Y129607D01*
X-90684Y129637D01*
X-90696Y129668D01*
X-90706Y129699D01*
X-90714Y129730D01*
X-90721Y129759D01*
X-90726Y129787D01*
X-90729Y129813D01*
X-90732Y129836D01*
X-90734Y129856D01*
X-90735Y129865D01*
Y129873D01*
Y129880D01*
X-90736Y129885D01*
Y129890D01*
Y129893D01*
Y129895D01*
Y129896D01*
X-90735Y129937D01*
X-90731Y129977D01*
X-90725Y130013D01*
X-90717Y130048D01*
X-90707Y130080D01*
X-90697Y130109D01*
X-90686Y130136D01*
X-90674Y130160D01*
X-90663Y130182D01*
X-90652Y130201D01*
X-90641Y130217D01*
X-90632Y130230D01*
X-90624Y130240D01*
X-90618Y130248D01*
X-90614Y130252D01*
X-90613Y130254D01*
X-90589Y130277D01*
X-90564Y130297D01*
X-90538Y130314D01*
X-90512Y130329D01*
X-90486Y130342D01*
X-90460Y130352D01*
X-90434Y130361D01*
X-90410Y130368D01*
X-90387Y130373D01*
X-90366Y130377D01*
X-90347Y130380D01*
X-90331Y130382D01*
X-90317Y130383D01*
X-90307Y130384D01*
X-90299D01*
X-90271Y130383D01*
D02*
G37*
G36*
X-89415D02*
X-89392Y130380D01*
X-89369Y130376D01*
X-89348Y130370D01*
X-89329Y130364D01*
X-89310Y130356D01*
X-89294Y130348D01*
X-89278Y130340D01*
X-89265Y130332D01*
X-89253Y130324D01*
X-89242Y130316D01*
X-89234Y130310D01*
X-89227Y130304D01*
X-89222Y130300D01*
X-89219Y130297D01*
X-89218Y130296D01*
X-89203Y130279D01*
X-89189Y130260D01*
X-89178Y130241D01*
X-89168Y130221D01*
X-89159Y130202D01*
X-89152Y130182D01*
X-89146Y130163D01*
X-89142Y130144D01*
X-89138Y130127D01*
X-89136Y130110D01*
X-89134Y130096D01*
X-89132Y130083D01*
Y130073D01*
X-89131Y130066D01*
Y130061D01*
Y130059D01*
X-89132Y130034D01*
X-89135Y130010D01*
X-89139Y129987D01*
X-89144Y129965D01*
X-89150Y129945D01*
X-89157Y129927D01*
X-89165Y129910D01*
X-89172Y129894D01*
X-89180Y129880D01*
X-89188Y129868D01*
X-89195Y129858D01*
X-89201Y129849D01*
X-89206Y129842D01*
X-89210Y129837D01*
X-89213Y129834D01*
X-89214Y129833D01*
X-89230Y129817D01*
X-89246Y129804D01*
X-89263Y129792D01*
X-89279Y129782D01*
X-89296Y129774D01*
X-89312Y129766D01*
X-89328Y129761D01*
X-89343Y129756D01*
X-89357Y129752D01*
X-89370Y129750D01*
X-89382Y129748D01*
X-89392Y129746D01*
X-89400D01*
X-89406Y129745D01*
X-89411D01*
X-89430Y129746D01*
X-89448Y129748D01*
X-89465Y129753D01*
X-89481Y129758D01*
X-89496Y129764D01*
X-89510Y129771D01*
X-89523Y129778D01*
X-89535Y129786D01*
X-89545Y129794D01*
X-89555Y129801D01*
X-89563Y129808D01*
X-89570Y129814D01*
X-89575Y129819D01*
X-89579Y129823D01*
X-89581Y129826D01*
X-89582Y129827D01*
X-89580Y129797D01*
X-89577Y129770D01*
X-89574Y129745D01*
X-89570Y129723D01*
X-89566Y129703D01*
X-89562Y129685D01*
X-89557Y129669D01*
X-89553Y129656D01*
X-89549Y129644D01*
X-89545Y129634D01*
X-89542Y129626D01*
X-89538Y129620D01*
X-89536Y129615D01*
X-89534Y129612D01*
X-89532Y129610D01*
Y129609D01*
X-89524Y129600D01*
X-89516Y129591D01*
X-89508Y129584D01*
X-89499Y129578D01*
X-89483Y129569D01*
X-89467Y129563D01*
X-89453Y129559D01*
X-89443Y129557D01*
X-89439Y129556D01*
X-89433D01*
X-89417Y129557D01*
X-89403Y129560D01*
X-89391Y129565D01*
X-89381Y129569D01*
X-89373Y129574D01*
X-89367Y129579D01*
X-89363Y129582D01*
X-89362Y129583D01*
X-89352Y129594D01*
X-89345Y129606D01*
X-89339Y129620D01*
X-89334Y129633D01*
X-89331Y129645D01*
X-89328Y129654D01*
Y129658D01*
X-89327Y129661D01*
Y129662D01*
Y129663D01*
X-89149Y129644D01*
X-89153Y129623D01*
X-89159Y129603D01*
X-89165Y129584D01*
X-89172Y129567D01*
X-89179Y129551D01*
X-89187Y129536D01*
X-89195Y129523D01*
X-89202Y129511D01*
X-89210Y129500D01*
X-89217Y129491D01*
X-89224Y129483D01*
X-89229Y129476D01*
X-89234Y129471D01*
X-89238Y129468D01*
X-89240Y129466D01*
X-89241Y129465D01*
X-89255Y129454D01*
X-89269Y129445D01*
X-89284Y129436D01*
X-89300Y129429D01*
X-89315Y129423D01*
X-89330Y129418D01*
X-89358Y129411D01*
X-89372Y129408D01*
X-89384Y129406D01*
X-89394Y129405D01*
X-89404Y129404D01*
X-89411Y129403D01*
X-89422D01*
X-89451Y129404D01*
X-89478Y129408D01*
X-89503Y129414D01*
X-89527Y129421D01*
X-89550Y129430D01*
X-89571Y129440D01*
X-89590Y129451D01*
X-89607Y129461D01*
X-89623Y129472D01*
X-89637Y129483D01*
X-89648Y129493D01*
X-89658Y129502D01*
X-89666Y129509D01*
X-89671Y129515D01*
X-89675Y129519D01*
X-89676Y129520D01*
X-89693Y129544D01*
X-89708Y129570D01*
X-89721Y129599D01*
X-89732Y129629D01*
X-89741Y129660D01*
X-89749Y129692D01*
X-89756Y129724D01*
X-89761Y129754D01*
X-89765Y129784D01*
X-89768Y129811D01*
X-89770Y129836D01*
X-89771Y129858D01*
X-89772Y129867D01*
Y129876D01*
X-89773Y129883D01*
Y129889D01*
Y129894D01*
Y129898D01*
Y129900D01*
Y129901D01*
X-89772Y129947D01*
X-89769Y129991D01*
X-89764Y130031D01*
X-89758Y130067D01*
X-89751Y130101D01*
X-89744Y130131D01*
X-89735Y130158D01*
X-89726Y130182D01*
X-89718Y130203D01*
X-89709Y130222D01*
X-89702Y130237D01*
X-89694Y130249D01*
X-89689Y130259D01*
X-89684Y130266D01*
X-89681Y130270D01*
X-89680Y130271D01*
X-89662Y130291D01*
X-89643Y130308D01*
X-89623Y130323D01*
X-89603Y130336D01*
X-89583Y130347D01*
X-89563Y130356D01*
X-89543Y130364D01*
X-89525Y130370D01*
X-89507Y130375D01*
X-89491Y130378D01*
X-89477Y130381D01*
X-89464Y130382D01*
X-89454Y130383D01*
X-89446Y130384D01*
X-89440D01*
X-89415Y130383D01*
D02*
G37*
G36*
X-90879Y122025D02*
X-90859Y122023D01*
X-90839Y122020D01*
X-90820Y122016D01*
X-90803Y122011D01*
X-90786Y122006D01*
X-90771Y122000D01*
X-90757Y121994D01*
X-90745Y121988D01*
X-90734Y121982D01*
X-90724Y121977D01*
X-90716Y121972D01*
X-90710Y121968D01*
X-90706Y121965D01*
X-90703Y121963D01*
X-90702Y121962D01*
X-90687Y121949D01*
X-90674Y121935D01*
X-90661Y121920D01*
X-90650Y121905D01*
X-90639Y121889D01*
X-90630Y121874D01*
X-90622Y121858D01*
X-90614Y121843D01*
X-90608Y121829D01*
X-90602Y121816D01*
X-90598Y121804D01*
X-90594Y121793D01*
X-90591Y121785D01*
X-90590Y121778D01*
X-90588Y121774D01*
Y121773D01*
X-90688Y121748D01*
X-90692Y121765D01*
X-90697Y121781D01*
X-90703Y121797D01*
X-90709Y121811D01*
X-90716Y121823D01*
X-90723Y121835D01*
X-90729Y121846D01*
X-90736Y121856D01*
X-90742Y121864D01*
X-90748Y121871D01*
X-90754Y121878D01*
X-90758Y121883D01*
X-90762Y121887D01*
X-90765Y121890D01*
X-90767Y121891D01*
X-90768Y121892D01*
X-90779Y121900D01*
X-90791Y121908D01*
X-90815Y121920D01*
X-90838Y121928D01*
X-90861Y121934D01*
X-90871Y121936D01*
X-90880Y121937D01*
X-90889Y121939D01*
X-90896D01*
X-90902Y121940D01*
X-90910D01*
X-90935Y121938D01*
X-90959Y121934D01*
X-90981Y121929D01*
X-91000Y121922D01*
X-91016Y121916D01*
X-91022Y121913D01*
X-91028Y121910D01*
X-91032Y121908D01*
X-91035Y121906D01*
X-91037Y121905D01*
X-91038D01*
X-91059Y121890D01*
X-91076Y121873D01*
X-91091Y121855D01*
X-91104Y121837D01*
X-91113Y121822D01*
X-91117Y121815D01*
X-91120Y121809D01*
X-91122Y121804D01*
X-91124Y121800D01*
X-91125Y121798D01*
Y121797D01*
X-91134Y121769D01*
X-91141Y121740D01*
X-91146Y121712D01*
X-91149Y121686D01*
X-91151Y121674D01*
Y121663D01*
X-91152Y121653D01*
X-91153Y121645D01*
Y121638D01*
Y121633D01*
Y121630D01*
Y121629D01*
X-91152Y121601D01*
X-91149Y121575D01*
X-91146Y121550D01*
X-91141Y121528D01*
X-91139Y121519D01*
X-91137Y121510D01*
X-91135Y121502D01*
X-91134Y121496D01*
X-91132Y121491D01*
X-91131Y121487D01*
X-91130Y121485D01*
Y121484D01*
X-91120Y121459D01*
X-91107Y121436D01*
X-91093Y121417D01*
X-91080Y121401D01*
X-91068Y121388D01*
X-91057Y121379D01*
X-91053Y121375D01*
X-91051Y121373D01*
X-91049Y121371D01*
X-91048D01*
X-91025Y121357D01*
X-91000Y121347D01*
X-90976Y121339D01*
X-90953Y121334D01*
X-90942Y121332D01*
X-90933Y121331D01*
X-90924Y121330D01*
X-90916D01*
X-90910Y121329D01*
X-90902D01*
X-90875Y121331D01*
X-90851Y121335D01*
X-90829Y121341D01*
X-90811Y121348D01*
X-90797Y121355D01*
X-90791Y121358D01*
X-90786Y121361D01*
X-90782Y121363D01*
X-90779Y121365D01*
X-90778Y121367D01*
X-90777D01*
X-90768Y121375D01*
X-90759Y121383D01*
X-90744Y121402D01*
X-90731Y121422D01*
X-90720Y121441D01*
X-90711Y121459D01*
X-90708Y121467D01*
X-90705Y121474D01*
X-90703Y121479D01*
X-90701Y121483D01*
X-90700Y121486D01*
Y121487D01*
X-90601Y121464D01*
X-90607Y121445D01*
X-90615Y121427D01*
X-90623Y121410D01*
X-90631Y121394D01*
X-90640Y121380D01*
X-90649Y121366D01*
X-90658Y121354D01*
X-90667Y121343D01*
X-90676Y121333D01*
X-90684Y121325D01*
X-90691Y121318D01*
X-90697Y121312D01*
X-90703Y121307D01*
X-90707Y121304D01*
X-90709Y121302D01*
X-90710Y121301D01*
X-90725Y121291D01*
X-90740Y121282D01*
X-90756Y121274D01*
X-90772Y121267D01*
X-90788Y121262D01*
X-90804Y121257D01*
X-90834Y121250D01*
X-90848Y121248D01*
X-90860Y121246D01*
X-90871Y121245D01*
X-90881Y121244D01*
X-90889Y121243D01*
X-90919D01*
X-90937Y121245D01*
X-90971Y121250D01*
X-91002Y121258D01*
X-91016Y121262D01*
X-91029Y121266D01*
X-91041Y121270D01*
X-91051Y121274D01*
X-91061Y121278D01*
X-91068Y121282D01*
X-91075Y121285D01*
X-91079Y121287D01*
X-91082Y121288D01*
X-91083Y121289D01*
X-91112Y121308D01*
X-91138Y121329D01*
X-91160Y121352D01*
X-91178Y121373D01*
X-91192Y121393D01*
X-91198Y121401D01*
X-91203Y121408D01*
X-91206Y121415D01*
X-91209Y121419D01*
X-91210Y121422D01*
X-91211Y121423D01*
X-91219Y121440D01*
X-91226Y121457D01*
X-91237Y121492D01*
X-91245Y121527D01*
X-91248Y121543D01*
X-91250Y121559D01*
X-91252Y121574D01*
X-91254Y121587D01*
X-91255Y121599D01*
Y121609D01*
X-91256Y121617D01*
Y121624D01*
Y121628D01*
Y121629D01*
X-91254Y121669D01*
X-91250Y121707D01*
X-91247Y121725D01*
X-91244Y121741D01*
X-91240Y121757D01*
X-91236Y121772D01*
X-91233Y121785D01*
X-91229Y121797D01*
X-91226Y121808D01*
X-91223Y121816D01*
X-91221Y121823D01*
X-91219Y121829D01*
X-91217Y121832D01*
Y121833D01*
X-91209Y121850D01*
X-91200Y121866D01*
X-91191Y121881D01*
X-91182Y121895D01*
X-91172Y121908D01*
X-91163Y121920D01*
X-91153Y121931D01*
X-91144Y121940D01*
X-91135Y121949D01*
X-91127Y121956D01*
X-91120Y121963D01*
X-91113Y121968D01*
X-91108Y121972D01*
X-91104Y121975D01*
X-91102Y121976D01*
X-91101Y121977D01*
X-91086Y121986D01*
X-91070Y121993D01*
X-91054Y122000D01*
X-91037Y122005D01*
X-91004Y122014D01*
X-90972Y122020D01*
X-90957Y122022D01*
X-90944Y122023D01*
X-90932Y122024D01*
X-90921Y122025D01*
X-90913Y122026D01*
X-90901D01*
X-90879Y122025D01*
D02*
G37*
G36*
X-90291Y121972D02*
X-90287Y121933D01*
X-90284Y121915D01*
X-90281Y121897D01*
X-90278Y121881D01*
X-90275Y121867D01*
X-90272Y121853D01*
X-90269Y121841D01*
X-90267Y121830D01*
X-90264Y121822D01*
X-90263Y121814D01*
X-90261Y121809D01*
X-90260Y121806D01*
Y121805D01*
X-90244Y121755D01*
X-90226Y121707D01*
X-90217Y121685D01*
X-90208Y121663D01*
X-90199Y121643D01*
X-90190Y121624D01*
X-90182Y121606D01*
X-90174Y121591D01*
X-90168Y121577D01*
X-90162Y121565D01*
X-90157Y121556D01*
X-90153Y121549D01*
X-90151Y121544D01*
X-90150Y121543D01*
X-90137Y121520D01*
X-90123Y121497D01*
X-90110Y121477D01*
X-90098Y121457D01*
X-90085Y121439D01*
X-90073Y121422D01*
X-90062Y121407D01*
X-90051Y121393D01*
X-90042Y121381D01*
X-90033Y121370D01*
X-90025Y121361D01*
X-90018Y121353D01*
X-90013Y121347D01*
X-90009Y121342D01*
X-90007Y121340D01*
X-90006Y121339D01*
Y121266D01*
X-90496D01*
Y121355D01*
X-90125D01*
X-90151Y121387D01*
X-90176Y121420D01*
X-90199Y121454D01*
X-90219Y121485D01*
X-90227Y121499D01*
X-90235Y121512D01*
X-90242Y121524D01*
X-90248Y121534D01*
X-90253Y121543D01*
X-90256Y121549D01*
X-90258Y121553D01*
X-90259Y121554D01*
X-90281Y121598D01*
X-90301Y121641D01*
X-90317Y121683D01*
X-90325Y121702D01*
X-90331Y121720D01*
X-90337Y121737D01*
X-90342Y121752D01*
X-90346Y121765D01*
X-90350Y121776D01*
X-90352Y121785D01*
X-90354Y121792D01*
X-90356Y121797D01*
Y121798D01*
X-90362Y121821D01*
X-90367Y121843D01*
X-90371Y121865D01*
X-90375Y121885D01*
X-90378Y121904D01*
X-90381Y121921D01*
X-90384Y121938D01*
X-90385Y121953D01*
X-90387Y121966D01*
X-90388Y121978D01*
X-90389Y121988D01*
Y121997D01*
X-90390Y122004D01*
Y122009D01*
Y122012D01*
Y122013D01*
X-90295D01*
X-90291Y121972D01*
D02*
G37*
G36*
X-175665Y118384D02*
X-175668Y118351D01*
X-175670Y118313D01*
X-175672Y118270D01*
X-175674Y118224D01*
X-175678Y118177D01*
X-175682Y118130D01*
X-175694Y118032D01*
X-175702Y117984D01*
X-175713Y117941D01*
X-175723Y117901D01*
X-175735Y117864D01*
Y117862D01*
X-175739Y117855D01*
X-175743Y117845D01*
X-175748Y117833D01*
X-175756Y117816D01*
X-175766Y117800D01*
X-175778Y117780D01*
X-175791Y117757D01*
X-175807Y117734D01*
X-175823Y117710D01*
X-175844Y117685D01*
X-175866Y117661D01*
X-175891Y117636D01*
X-175916Y117613D01*
X-175946Y117589D01*
X-175977Y117568D01*
X-175979Y117566D01*
X-175985Y117564D01*
X-175994Y117558D01*
X-176008Y117552D01*
X-176024Y117542D01*
X-176043Y117534D01*
X-176065Y117523D01*
X-176092Y117513D01*
X-176119Y117503D01*
X-176149Y117493D01*
X-176182Y117482D01*
X-176217Y117474D01*
X-176293Y117462D01*
X-176334Y117460D01*
X-176375Y117458D01*
X-176379D01*
X-176387D01*
X-176401Y117460D01*
X-176422D01*
X-176446Y117462D01*
X-176473Y117466D01*
X-176506Y117472D01*
X-176539Y117478D01*
X-176576Y117488D01*
X-176615Y117499D01*
X-176654Y117513D01*
X-176692Y117529D01*
X-176731Y117548D01*
X-176770Y117570D01*
X-176807Y117597D01*
X-176844Y117626D01*
X-176846Y117628D01*
X-176852Y117634D01*
X-176861Y117644D01*
X-176873Y117657D01*
X-176889Y117675D01*
X-176906Y117695D01*
X-176924Y117720D01*
X-176943Y117751D01*
X-176961Y117784D01*
X-176981Y117821D01*
X-177002Y117862D01*
X-177021Y117907D01*
X-177037Y117954D01*
X-177053Y118007D01*
X-177066Y118064D01*
X-177076Y118124D01*
X-177078Y118122D01*
X-177080Y118116D01*
X-177086Y118107D01*
X-177092Y118097D01*
X-177102Y118083D01*
X-177113Y118067D01*
X-177139Y118028D01*
X-177170Y117987D01*
X-177207Y117941D01*
X-177246Y117896D01*
X-177289Y117853D01*
X-177291Y117851D01*
X-177295Y117849D01*
X-177301Y117841D01*
X-177312Y117833D01*
X-177324Y117823D01*
X-177340Y117810D01*
X-177361Y117794D01*
X-177383Y117775D01*
X-177410Y117757D01*
X-177439Y117734D01*
X-177471Y117710D01*
X-177510Y117685D01*
X-177551Y117657D01*
X-177594Y117628D01*
X-177644Y117595D01*
X-177697Y117562D01*
X-178189Y117253D01*
Y117864D01*
X-177642Y118230D01*
X-177638Y118233D01*
X-177629Y118239D01*
X-177613Y118249D01*
X-177594Y118263D01*
X-177570Y118278D01*
X-177543Y118296D01*
X-177515Y118317D01*
X-177484Y118337D01*
X-177420Y118382D01*
X-177390Y118405D01*
X-177361Y118427D01*
X-177332Y118448D01*
X-177307Y118466D01*
X-177287Y118485D01*
X-177271Y118499D01*
X-177267Y118503D01*
X-177258Y118511D01*
X-177244Y118526D01*
X-177227Y118544D01*
X-177211Y118569D01*
X-177193Y118593D01*
X-177176Y118622D01*
X-177164Y118653D01*
X-177162Y118657D01*
X-177160Y118667D01*
X-177156Y118688D01*
X-177152Y118700D01*
X-177150Y118714D01*
X-177148Y118731D01*
X-177144Y118751D01*
X-177141Y118772D01*
X-177139Y118794D01*
X-177137Y118819D01*
Y118848D01*
X-177135Y118876D01*
Y119012D01*
X-178189D01*
Y119520D01*
X-175665D01*
Y118384D01*
D02*
G37*
G36*
X-176916Y117083D02*
X-176898D01*
X-176875D01*
X-176850Y117080D01*
X-176822Y117078D01*
X-176793Y117076D01*
X-176760Y117074D01*
X-176727Y117070D01*
X-176656Y117064D01*
X-176578Y117052D01*
X-176496Y117040D01*
X-176414Y117021D01*
X-176330Y117000D01*
X-176248Y116976D01*
X-176168Y116947D01*
X-176094Y116912D01*
X-176024Y116874D01*
X-175991Y116851D01*
X-175963Y116828D01*
X-175959Y116826D01*
X-175950Y116816D01*
X-175934Y116802D01*
X-175916Y116781D01*
X-175891Y116757D01*
X-175866Y116726D01*
X-175838Y116689D01*
X-175809Y116650D01*
X-175780Y116603D01*
X-175751Y116554D01*
X-175727Y116498D01*
X-175702Y116441D01*
X-175684Y116377D01*
X-175668Y116310D01*
X-175659Y116238D01*
X-175655Y116164D01*
Y116135D01*
X-175657Y116117D01*
X-175659Y116090D01*
X-175663Y116064D01*
X-175670Y116031D01*
X-175676Y115996D01*
X-175684Y115959D01*
X-175694Y115920D01*
X-175708Y115881D01*
X-175723Y115842D01*
X-175741Y115801D01*
X-175764Y115762D01*
X-175788Y115726D01*
X-175817Y115689D01*
X-175819Y115687D01*
X-175825Y115680D01*
X-175833Y115670D01*
X-175846Y115658D01*
X-175864Y115644D01*
X-175885Y115625D01*
X-175907Y115606D01*
X-175936Y115588D01*
X-175967Y115568D01*
X-176002Y115547D01*
X-176039Y115527D01*
X-176082Y115506D01*
X-176127Y115490D01*
X-176174Y115473D01*
X-176227Y115459D01*
X-176283Y115447D01*
X-176334Y115914D01*
X-176332D01*
X-176328D01*
X-176319Y115916D01*
X-176311Y115918D01*
X-176299Y115920D01*
X-176285Y115924D01*
X-176254Y115933D01*
X-176219Y115945D01*
X-176184Y115961D01*
X-176151Y115982D01*
X-176123Y116006D01*
X-176121Y116010D01*
X-176112Y116019D01*
X-176100Y116035D01*
X-176088Y116056D01*
X-176075Y116084D01*
X-176063Y116115D01*
X-176055Y116152D01*
X-176053Y116193D01*
Y116207D01*
X-176055Y116218D01*
X-176057Y116232D01*
X-176061Y116246D01*
X-176069Y116283D01*
X-176086Y116324D01*
X-176098Y116345D01*
X-176110Y116367D01*
X-176127Y116390D01*
X-176145Y116412D01*
X-176166Y116433D01*
X-176190Y116453D01*
X-176192Y116455D01*
X-176196Y116457D01*
X-176207Y116463D01*
X-176219Y116470D01*
X-176235Y116478D01*
X-176256Y116488D01*
X-176283Y116498D01*
X-176313Y116508D01*
X-176350Y116521D01*
X-176391Y116531D01*
X-176438Y116543D01*
X-176490Y116554D01*
X-176549Y116564D01*
X-176615Y116572D01*
X-176686Y116580D01*
X-176764Y116586D01*
X-176762Y116584D01*
X-176754Y116578D01*
X-176744Y116568D01*
X-176731Y116554D01*
X-176715Y116535D01*
X-176697Y116515D01*
X-176676Y116490D01*
X-176656Y116461D01*
X-176637Y116431D01*
X-176617Y116396D01*
X-176598Y116359D01*
X-176582Y116320D01*
X-176569Y116277D01*
X-176557Y116232D01*
X-176551Y116185D01*
X-176549Y116135D01*
Y116121D01*
X-176551Y116107D01*
X-176553Y116084D01*
X-176555Y116058D01*
X-176561Y116029D01*
X-176567Y115994D01*
X-176578Y115957D01*
X-176590Y115916D01*
X-176606Y115875D01*
X-176625Y115832D01*
X-176647Y115789D01*
X-176674Y115744D01*
X-176705Y115701D01*
X-176740Y115658D01*
X-176781Y115617D01*
X-176783Y115615D01*
X-176791Y115606D01*
X-176805Y115596D01*
X-176822Y115582D01*
X-176846Y115566D01*
X-176873Y115547D01*
X-176906Y115529D01*
X-176943Y115508D01*
X-176984Y115488D01*
X-177029Y115469D01*
X-177078Y115451D01*
X-177129Y115434D01*
X-177187Y115420D01*
X-177246Y115410D01*
X-177310Y115401D01*
X-177377Y115400D01*
X-177379D01*
X-177381D01*
X-177387D01*
X-177394D01*
X-177414Y115401D01*
X-177441Y115404D01*
X-177474Y115406D01*
X-177513Y115412D01*
X-177553Y115418D01*
X-177601Y115428D01*
X-177648Y115440D01*
X-177699Y115455D01*
X-177750Y115473D01*
X-177804Y115496D01*
X-177855Y115523D01*
X-177904Y115551D01*
X-177953Y115586D01*
X-177998Y115627D01*
X-178000Y115629D01*
X-178009Y115637D01*
X-178019Y115650D01*
X-178035Y115668D01*
X-178052Y115691D01*
X-178072Y115717D01*
X-178093Y115750D01*
X-178115Y115785D01*
X-178138Y115826D01*
X-178158Y115869D01*
X-178179Y115918D01*
X-178195Y115969D01*
X-178209Y116025D01*
X-178222Y116084D01*
X-178230Y116146D01*
X-178232Y116211D01*
Y116228D01*
X-178230Y116248D01*
X-178228Y116275D01*
X-178224Y116308D01*
X-178216Y116345D01*
X-178207Y116388D01*
X-178195Y116433D01*
X-178179Y116482D01*
X-178160Y116531D01*
X-178136Y116584D01*
X-178107Y116638D01*
X-178074Y116689D01*
X-178033Y116740D01*
X-177988Y116791D01*
X-177937Y116839D01*
X-177933Y116841D01*
X-177922Y116849D01*
X-177904Y116861D01*
X-177879Y116877D01*
X-177847Y116896D01*
X-177808Y116917D01*
X-177759Y116939D01*
X-177703Y116962D01*
X-177640Y116984D01*
X-177568Y117007D01*
X-177529Y117017D01*
X-177488Y117027D01*
X-177445Y117037D01*
X-177400Y117046D01*
X-177353Y117054D01*
X-177303Y117062D01*
X-177252Y117068D01*
X-177199Y117074D01*
X-177144Y117078D01*
X-177086Y117083D01*
X-177025Y117085D01*
X-176963D01*
X-176961D01*
X-176955D01*
X-176945D01*
X-176932D01*
X-176916Y117083D01*
D02*
G37*
G36*
X-173927Y66563D02*
X-173919Y66557D01*
X-173909Y66544D01*
X-173892Y66530D01*
X-173870Y66511D01*
X-173845Y66489D01*
X-173814Y66464D01*
X-173782Y66436D01*
X-173743Y66405D01*
X-173698Y66372D01*
X-173650Y66337D01*
X-173599Y66302D01*
X-173542Y66263D01*
X-173482Y66227D01*
X-173419Y66185D01*
X-173349Y66147D01*
X-173347D01*
X-173345Y66145D01*
X-173339Y66140D01*
X-173333Y66138D01*
X-173312Y66126D01*
X-173283Y66112D01*
X-173249Y66093D01*
X-173208Y66075D01*
X-173160Y66052D01*
X-173107Y66028D01*
X-173050Y66001D01*
X-172988Y65974D01*
X-172921Y65948D01*
X-172851Y65921D01*
X-172779Y65896D01*
X-172703Y65870D01*
X-172627Y65847D01*
X-172547Y65825D01*
X-172546D01*
X-172543Y65823D01*
X-172537D01*
X-172529Y65821D01*
X-172519Y65816D01*
X-172506Y65814D01*
X-172476Y65808D01*
X-172439Y65800D01*
X-172396Y65790D01*
X-172347Y65780D01*
X-172293Y65769D01*
X-172236Y65759D01*
X-172176Y65749D01*
X-172113Y65741D01*
X-172049Y65732D01*
X-171918Y65720D01*
X-171853Y65716D01*
X-171789D01*
Y65251D01*
X-171791D01*
X-171795D01*
X-171803D01*
X-171814D01*
X-171826Y65253D01*
X-171840D01*
X-171859Y65255D01*
X-171879D01*
X-171902Y65257D01*
X-171926Y65259D01*
X-171953Y65261D01*
X-171984Y65265D01*
X-172047Y65271D01*
X-172119Y65281D01*
X-172195Y65294D01*
X-172279Y65308D01*
X-172367Y65324D01*
X-172459Y65345D01*
X-172556Y65370D01*
X-172654Y65396D01*
X-172755Y65429D01*
X-172855Y65464D01*
X-172857D01*
X-172861Y65466D01*
X-172869Y65470D01*
X-172880Y65474D01*
X-172892Y65478D01*
X-172908Y65484D01*
X-172927Y65493D01*
X-172947Y65501D01*
X-172970Y65511D01*
X-172994Y65521D01*
X-173050Y65546D01*
X-173113Y65577D01*
X-173181Y65610D01*
X-173255Y65646D01*
X-173333Y65687D01*
X-173415Y65732D01*
X-173497Y65780D01*
X-173581Y65833D01*
X-173665Y65888D01*
X-173749Y65948D01*
X-173831Y66009D01*
Y64910D01*
X-174280D01*
Y66565D01*
X-173929D01*
X-173927Y66563D01*
D02*
G37*
G36*
X-171789Y64131D02*
X-172336Y63764D01*
X-172341Y63762D01*
X-172349Y63756D01*
X-172365Y63746D01*
X-172383Y63732D01*
X-172408Y63717D01*
X-172435Y63699D01*
X-172463Y63678D01*
X-172494Y63658D01*
X-172558Y63613D01*
X-172589Y63590D01*
X-172617Y63568D01*
X-172646Y63547D01*
X-172670Y63529D01*
X-172691Y63510D01*
X-172707Y63496D01*
X-172712Y63492D01*
X-172720Y63484D01*
X-172734Y63469D01*
X-172750Y63451D01*
X-172767Y63426D01*
X-172785Y63402D01*
X-172802Y63373D01*
X-172814Y63342D01*
X-172816Y63338D01*
X-172818Y63328D01*
X-172822Y63307D01*
X-172826Y63295D01*
X-172828Y63281D01*
X-172830Y63264D01*
X-172835Y63244D01*
X-172837Y63223D01*
X-172839Y63201D01*
X-172841Y63176D01*
Y63147D01*
X-172843Y63119D01*
Y62983D01*
X-171789D01*
Y62475D01*
X-174313D01*
Y63611D01*
X-174311Y63643D01*
X-174308Y63682D01*
X-174306Y63726D01*
X-174304Y63771D01*
X-174300Y63818D01*
X-174296Y63865D01*
X-174284Y63963D01*
X-174276Y64011D01*
X-174265Y64053D01*
X-174255Y64095D01*
X-174243Y64131D01*
Y64134D01*
X-174239Y64140D01*
X-174235Y64150D01*
X-174231Y64162D01*
X-174222Y64179D01*
X-174212Y64195D01*
X-174200Y64215D01*
X-174188Y64238D01*
X-174171Y64261D01*
X-174155Y64285D01*
X-174134Y64310D01*
X-174112Y64334D01*
X-174087Y64359D01*
X-174062Y64381D01*
X-174032Y64406D01*
X-174001Y64427D01*
X-173999Y64429D01*
X-173993Y64431D01*
X-173985Y64437D01*
X-173970Y64443D01*
X-173954Y64453D01*
X-173935Y64461D01*
X-173913Y64472D01*
X-173886Y64482D01*
X-173860Y64492D01*
X-173829Y64502D01*
X-173796Y64513D01*
X-173761Y64521D01*
X-173685Y64533D01*
X-173644Y64535D01*
X-173603Y64537D01*
X-173599D01*
X-173591D01*
X-173577Y64535D01*
X-173556D01*
X-173531Y64533D01*
X-173505Y64529D01*
X-173472Y64523D01*
X-173439Y64517D01*
X-173402Y64507D01*
X-173363Y64496D01*
X-173325Y64482D01*
X-173285Y64465D01*
X-173247Y64447D01*
X-173208Y64425D01*
X-173171Y64398D01*
X-173134Y64369D01*
X-173132Y64367D01*
X-173126Y64361D01*
X-173117Y64351D01*
X-173105Y64338D01*
X-173089Y64320D01*
X-173072Y64299D01*
X-173054Y64275D01*
X-173035Y64244D01*
X-173017Y64211D01*
X-172996Y64174D01*
X-172976Y64134D01*
X-172958Y64088D01*
X-172941Y64041D01*
X-172925Y63988D01*
X-172912Y63930D01*
X-172902Y63871D01*
X-172900Y63873D01*
X-172898Y63879D01*
X-172892Y63888D01*
X-172886Y63898D01*
X-172875Y63912D01*
X-172865Y63928D01*
X-172839Y63967D01*
X-172808Y64008D01*
X-172771Y64053D01*
X-172732Y64099D01*
X-172689Y64142D01*
X-172687Y64144D01*
X-172683Y64146D01*
X-172677Y64154D01*
X-172666Y64162D01*
X-172654Y64172D01*
X-172638Y64185D01*
X-172617Y64201D01*
X-172595Y64220D01*
X-172568Y64238D01*
X-172539Y64261D01*
X-172506Y64285D01*
X-172468Y64310D01*
X-172426Y64338D01*
X-172383Y64367D01*
X-172334Y64400D01*
X-172281Y64433D01*
X-171789Y64742D01*
Y64131D01*
D02*
G37*
G36*
X-59130Y118384D02*
X-59132Y118351D01*
X-59135Y118313D01*
X-59137Y118270D01*
X-59139Y118224D01*
X-59143Y118177D01*
X-59147Y118130D01*
X-59159Y118032D01*
X-59167Y117984D01*
X-59178Y117941D01*
X-59188Y117901D01*
X-59200Y117864D01*
Y117862D01*
X-59204Y117855D01*
X-59208Y117845D01*
X-59212Y117833D01*
X-59221Y117816D01*
X-59231Y117800D01*
X-59243Y117780D01*
X-59255Y117757D01*
X-59272Y117734D01*
X-59288Y117710D01*
X-59309Y117685D01*
X-59331Y117661D01*
X-59356Y117636D01*
X-59381Y117613D01*
X-59411Y117589D01*
X-59442Y117568D01*
X-59444Y117566D01*
X-59450Y117564D01*
X-59459Y117558D01*
X-59473Y117552D01*
X-59489Y117542D01*
X-59508Y117534D01*
X-59530Y117523D01*
X-59557Y117513D01*
X-59583Y117503D01*
X-59614Y117493D01*
X-59647Y117482D01*
X-59682Y117474D01*
X-59758Y117462D01*
X-59799Y117460D01*
X-59840Y117458D01*
X-59844D01*
X-59852D01*
X-59866Y117460D01*
X-59887D01*
X-59912Y117462D01*
X-59938Y117466D01*
X-59971Y117472D01*
X-60004Y117478D01*
X-60041Y117488D01*
X-60080Y117499D01*
X-60119Y117513D01*
X-60158Y117529D01*
X-60197Y117548D01*
X-60235Y117570D01*
X-60272Y117597D01*
X-60309Y117626D01*
X-60311Y117628D01*
X-60317Y117634D01*
X-60326Y117644D01*
X-60338Y117657D01*
X-60354Y117675D01*
X-60371Y117695D01*
X-60389Y117720D01*
X-60408Y117751D01*
X-60426Y117784D01*
X-60447Y117821D01*
X-60467Y117862D01*
X-60486Y117907D01*
X-60502Y117954D01*
X-60518Y118007D01*
X-60531Y118064D01*
X-60541Y118124D01*
X-60543Y118122D01*
X-60545Y118116D01*
X-60551Y118107D01*
X-60557Y118097D01*
X-60567Y118083D01*
X-60578Y118067D01*
X-60604Y118028D01*
X-60635Y117987D01*
X-60672Y117941D01*
X-60711Y117896D01*
X-60754Y117853D01*
X-60756Y117851D01*
X-60760Y117849D01*
X-60766Y117841D01*
X-60777Y117833D01*
X-60789Y117823D01*
X-60805Y117810D01*
X-60826Y117794D01*
X-60848Y117775D01*
X-60875Y117757D01*
X-60904Y117734D01*
X-60936Y117710D01*
X-60975Y117685D01*
X-61016Y117657D01*
X-61059Y117628D01*
X-61109Y117595D01*
X-61162Y117562D01*
X-61654Y117253D01*
Y117864D01*
X-61107Y118230D01*
X-61102Y118233D01*
X-61094Y118239D01*
X-61078Y118249D01*
X-61059Y118263D01*
X-61035Y118278D01*
X-61008Y118296D01*
X-60979Y118317D01*
X-60949Y118337D01*
X-60885Y118382D01*
X-60855Y118405D01*
X-60826Y118427D01*
X-60797Y118448D01*
X-60773Y118466D01*
X-60752Y118485D01*
X-60736Y118499D01*
X-60732Y118503D01*
X-60723Y118511D01*
X-60709Y118526D01*
X-60693Y118544D01*
X-60676Y118569D01*
X-60658Y118593D01*
X-60641Y118622D01*
X-60629Y118653D01*
X-60627Y118657D01*
X-60625Y118667D01*
X-60621Y118688D01*
X-60617Y118700D01*
X-60615Y118714D01*
X-60613Y118731D01*
X-60609Y118751D01*
X-60606Y118772D01*
X-60604Y118794D01*
X-60602Y118819D01*
Y118848D01*
X-60600Y118876D01*
Y119012D01*
X-61654D01*
Y119520D01*
X-59130D01*
Y118384D01*
D02*
G37*
G36*
X-60900Y117091D02*
X-60881Y117089D01*
X-60861Y117087D01*
X-60836Y117085D01*
X-60812Y117080D01*
X-60752Y117068D01*
X-60690Y117050D01*
X-60658Y117040D01*
X-60625Y117025D01*
X-60592Y117011D01*
X-60559Y116992D01*
X-60557Y116990D01*
X-60551Y116988D01*
X-60543Y116982D01*
X-60531Y116972D01*
X-60516Y116962D01*
X-60500Y116949D01*
X-60481Y116933D01*
X-60461Y116914D01*
X-60440Y116892D01*
X-60420Y116869D01*
X-60397Y116843D01*
X-60375Y116814D01*
X-60354Y116781D01*
X-60332Y116746D01*
X-60313Y116709D01*
X-60295Y116671D01*
Y116673D01*
X-60291Y116679D01*
X-60287Y116689D01*
X-60281Y116701D01*
X-60272Y116718D01*
X-60262Y116734D01*
X-60237Y116775D01*
X-60207Y116820D01*
X-60170Y116865D01*
X-60127Y116908D01*
X-60102Y116929D01*
X-60078Y116945D01*
X-60075D01*
X-60071Y116949D01*
X-60063Y116953D01*
X-60053Y116957D01*
X-60041Y116964D01*
X-60024Y116972D01*
X-60008Y116980D01*
X-59987Y116986D01*
X-59942Y117003D01*
X-59889Y117017D01*
X-59834Y117025D01*
X-59772Y117029D01*
X-59768D01*
X-59760D01*
X-59746Y117027D01*
X-59725Y117025D01*
X-59700Y117023D01*
X-59674Y117019D01*
X-59641Y117013D01*
X-59608Y117005D01*
X-59571Y116994D01*
X-59534Y116982D01*
X-59495Y116966D01*
X-59456Y116945D01*
X-59415Y116923D01*
X-59378Y116898D01*
X-59339Y116867D01*
X-59305Y116832D01*
X-59303Y116830D01*
X-59297Y116822D01*
X-59288Y116812D01*
X-59276Y116796D01*
X-59262Y116775D01*
X-59245Y116751D01*
X-59229Y116722D01*
X-59212Y116689D01*
X-59196Y116650D01*
X-59178Y116609D01*
X-59163Y116562D01*
X-59149Y116513D01*
X-59137Y116457D01*
X-59128Y116400D01*
X-59122Y116336D01*
X-59120Y116271D01*
Y116254D01*
X-59122Y116236D01*
Y116211D01*
X-59126Y116181D01*
X-59130Y116146D01*
X-59137Y116109D01*
X-59143Y116066D01*
X-59153Y116023D01*
X-59165Y115978D01*
X-59180Y115930D01*
X-59198Y115883D01*
X-59219Y115838D01*
X-59243Y115795D01*
X-59272Y115752D01*
X-59305Y115713D01*
X-59307Y115711D01*
X-59313Y115705D01*
X-59323Y115695D01*
X-59338Y115682D01*
X-59356Y115666D01*
X-59378Y115650D01*
X-59403Y115631D01*
X-59432Y115613D01*
X-59465Y115594D01*
X-59500Y115576D01*
X-59538Y115559D01*
X-59579Y115543D01*
X-59624Y115531D01*
X-59672Y115521D01*
X-59721Y115514D01*
X-59772Y115512D01*
X-59774D01*
X-59780D01*
X-59789D01*
X-59801Y115514D01*
X-59817D01*
X-59836Y115516D01*
X-59856Y115521D01*
X-59877Y115524D01*
X-59926Y115535D01*
X-59979Y115551D01*
X-60032Y115574D01*
X-60059Y115588D01*
X-60086Y115604D01*
X-60088D01*
X-60092Y115609D01*
X-60098Y115615D01*
X-60108Y115621D01*
X-60133Y115641D01*
X-60162Y115670D01*
X-60197Y115707D01*
X-60231Y115752D01*
X-60264Y115803D01*
X-60295Y115861D01*
Y115859D01*
X-60299Y115850D01*
X-60303Y115840D01*
X-60311Y115826D01*
X-60319Y115810D01*
X-60330Y115789D01*
X-60342Y115767D01*
X-60356Y115742D01*
X-60391Y115691D01*
X-60434Y115639D01*
X-60483Y115588D01*
X-60512Y115563D01*
X-60541Y115543D01*
X-60543Y115541D01*
X-60549Y115539D01*
X-60557Y115533D01*
X-60570Y115527D01*
X-60584Y115516D01*
X-60602Y115508D01*
X-60625Y115498D01*
X-60647Y115488D01*
X-60674Y115477D01*
X-60703Y115467D01*
X-60734Y115457D01*
X-60766Y115449D01*
X-60838Y115436D01*
X-60875Y115434D01*
X-60914Y115432D01*
X-60918D01*
X-60930D01*
X-60947Y115434D01*
X-60971Y115436D01*
X-61002Y115438D01*
X-61037Y115445D01*
X-61074Y115451D01*
X-61117Y115461D01*
X-61160Y115471D01*
X-61207Y115488D01*
X-61254Y115504D01*
X-61301Y115527D01*
X-61351Y115551D01*
X-61396Y115582D01*
X-61441Y115617D01*
X-61484Y115656D01*
X-61486Y115658D01*
X-61494Y115666D01*
X-61504Y115678D01*
X-61519Y115697D01*
X-61535Y115719D01*
X-61554Y115746D01*
X-61572Y115777D01*
X-61593Y115814D01*
X-61613Y115855D01*
X-61631Y115900D01*
X-61650Y115949D01*
X-61666Y116000D01*
X-61681Y116058D01*
X-61691Y116119D01*
X-61699Y116183D01*
X-61701Y116250D01*
Y116265D01*
X-61699Y116283D01*
Y116308D01*
X-61695Y116336D01*
X-61691Y116371D01*
X-61687Y116410D01*
X-61679Y116451D01*
X-61668Y116496D01*
X-61656Y116541D01*
X-61642Y116588D01*
X-61625Y116638D01*
X-61605Y116687D01*
X-61580Y116734D01*
X-61551Y116779D01*
X-61521Y116824D01*
X-61519Y116826D01*
X-61510Y116837D01*
X-61498Y116849D01*
X-61482Y116865D01*
X-61459Y116886D01*
X-61433Y116908D01*
X-61402Y116933D01*
X-61367Y116957D01*
X-61328Y116984D01*
X-61283Y117009D01*
X-61236Y117031D01*
X-61182Y117050D01*
X-61127Y117068D01*
X-61068Y117080D01*
X-61002Y117089D01*
X-60935Y117093D01*
X-60932D01*
X-60926D01*
X-60914D01*
X-60900Y117091D01*
D02*
G37*
G36*
X-74243Y82889D02*
X-74225Y82888D01*
X-74207Y82885D01*
X-74191Y82881D01*
X-74175Y82877D01*
X-74161Y82872D01*
X-74148Y82867D01*
X-74137Y82862D01*
X-74126Y82856D01*
X-74117Y82851D01*
X-74109Y82846D01*
X-74103Y82842D01*
X-74098Y82838D01*
X-74094Y82835D01*
X-74092Y82834D01*
X-74091Y82833D01*
X-74080Y82822D01*
X-74070Y82810D01*
X-74061Y82797D01*
X-74053Y82784D01*
X-74046Y82771D01*
X-74040Y82757D01*
X-74031Y82731D01*
X-74027Y82719D01*
X-74024Y82708D01*
X-74022Y82697D01*
X-74020Y82688D01*
X-74019Y82681D01*
Y82676D01*
X-74018Y82672D01*
Y82671D01*
X-74113Y82661D01*
X-74115Y82686D01*
X-74119Y82708D01*
X-74126Y82727D01*
X-74133Y82743D01*
X-74140Y82756D01*
X-74147Y82765D01*
X-74151Y82770D01*
X-74153Y82772D01*
X-74169Y82786D01*
X-74187Y82796D01*
X-74205Y82803D01*
X-74222Y82808D01*
X-74238Y82811D01*
X-74244Y82812D01*
X-74250D01*
X-74255Y82813D01*
X-74261D01*
X-74284Y82811D01*
X-74304Y82807D01*
X-74322Y82801D01*
X-74337Y82794D01*
X-74349Y82787D01*
X-74358Y82781D01*
X-74363Y82777D01*
X-74365Y82775D01*
X-74378Y82760D01*
X-74388Y82744D01*
X-74395Y82729D01*
X-74400Y82714D01*
X-74403Y82701D01*
X-74404Y82690D01*
X-74405Y82686D01*
Y82684D01*
Y82682D01*
Y82681D01*
Y82671D01*
X-74403Y82661D01*
X-74398Y82642D01*
X-74391Y82623D01*
X-74383Y82606D01*
X-74375Y82591D01*
X-74371Y82585D01*
X-74368Y82579D01*
X-74365Y82575D01*
X-74363Y82572D01*
X-74362Y82570D01*
X-74361Y82569D01*
X-74352Y82558D01*
X-74341Y82545D01*
X-74329Y82532D01*
X-74316Y82519D01*
X-74289Y82492D01*
X-74261Y82467D01*
X-74248Y82455D01*
X-74235Y82444D01*
X-74224Y82434D01*
X-74214Y82426D01*
X-74206Y82419D01*
X-74199Y82413D01*
X-74195Y82410D01*
X-74194Y82409D01*
X-74166Y82385D01*
X-74141Y82364D01*
X-74120Y82344D01*
X-74103Y82327D01*
X-74090Y82313D01*
X-74080Y82303D01*
X-74076Y82299D01*
X-74074Y82296D01*
X-74073Y82295D01*
X-74072Y82294D01*
X-74057Y82276D01*
X-74045Y82258D01*
X-74034Y82241D01*
X-74025Y82226D01*
X-74019Y82213D01*
X-74014Y82203D01*
X-74012Y82199D01*
X-74011Y82196D01*
X-74010Y82195D01*
Y82194D01*
X-74006Y82182D01*
X-74003Y82171D01*
X-74002Y82160D01*
X-74001Y82150D01*
X-74000Y82142D01*
Y82136D01*
Y82132D01*
Y82130D01*
X-74501D01*
Y82219D01*
X-74129D01*
X-74141Y82237D01*
X-74148Y82246D01*
X-74154Y82253D01*
X-74160Y82260D01*
X-74164Y82265D01*
X-74167Y82268D01*
X-74168Y82269D01*
X-74173Y82274D01*
X-74180Y82280D01*
X-74195Y82294D01*
X-74213Y82310D01*
X-74231Y82326D01*
X-74248Y82341D01*
X-74256Y82347D01*
X-74263Y82353D01*
X-74268Y82357D01*
X-74272Y82361D01*
X-74275Y82363D01*
X-74276Y82364D01*
X-74294Y82380D01*
X-74311Y82394D01*
X-74326Y82408D01*
X-74341Y82421D01*
X-74354Y82433D01*
X-74365Y82443D01*
X-74376Y82453D01*
X-74385Y82462D01*
X-74393Y82470D01*
X-74400Y82477D01*
X-74406Y82483D01*
X-74411Y82488D01*
X-74414Y82492D01*
X-74417Y82495D01*
X-74419Y82496D01*
Y82497D01*
X-74434Y82515D01*
X-74447Y82532D01*
X-74458Y82548D01*
X-74466Y82562D01*
X-74473Y82574D01*
X-74477Y82582D01*
X-74480Y82588D01*
X-74481Y82590D01*
X-74487Y82606D01*
X-74492Y82623D01*
X-74495Y82638D01*
X-74498Y82651D01*
X-74499Y82662D01*
X-74500Y82671D01*
Y82677D01*
Y82679D01*
X-74499Y82696D01*
X-74497Y82711D01*
X-74494Y82726D01*
X-74490Y82740D01*
X-74480Y82766D01*
X-74474Y82777D01*
X-74468Y82788D01*
X-74462Y82797D01*
X-74456Y82805D01*
X-74451Y82812D01*
X-74446Y82818D01*
X-74442Y82823D01*
X-74439Y82826D01*
X-74437Y82828D01*
X-74436Y82829D01*
X-74424Y82840D01*
X-74410Y82849D01*
X-74396Y82857D01*
X-74382Y82864D01*
X-74368Y82870D01*
X-74353Y82875D01*
X-74326Y82882D01*
X-74313Y82885D01*
X-74301Y82887D01*
X-74290Y82888D01*
X-74281Y82889D01*
X-74274Y82890D01*
X-74263D01*
X-74243Y82889D01*
D02*
G37*
G36*
X-73289Y82130D02*
X-73389D01*
Y82466D01*
X-73518D01*
X-73530Y82465D01*
X-73539D01*
X-73547Y82464D01*
X-73553Y82463D01*
X-73557D01*
X-73559Y82462D01*
X-73560D01*
X-73577Y82456D01*
X-73585Y82453D01*
X-73592Y82449D01*
X-73598Y82446D01*
X-73602Y82443D01*
X-73605Y82442D01*
X-73606Y82441D01*
X-73615Y82435D01*
X-73624Y82427D01*
X-73632Y82419D01*
X-73640Y82411D01*
X-73647Y82403D01*
X-73652Y82397D01*
X-73656Y82393D01*
X-73657Y82391D01*
X-73668Y82376D01*
X-73680Y82360D01*
X-73692Y82342D01*
X-73704Y82326D01*
X-73714Y82310D01*
X-73718Y82304D01*
X-73722Y82298D01*
X-73725Y82294D01*
X-73727Y82290D01*
X-73729Y82288D01*
Y82287D01*
X-73829Y82130D01*
X-73955D01*
X-73824Y82335D01*
X-73809Y82357D01*
X-73795Y82377D01*
X-73781Y82394D01*
X-73768Y82408D01*
X-73757Y82420D01*
X-73749Y82429D01*
X-73743Y82434D01*
X-73742Y82436D01*
X-73741D01*
X-73732Y82443D01*
X-73723Y82450D01*
X-73703Y82462D01*
X-73694Y82467D01*
X-73687Y82471D01*
X-73682Y82473D01*
X-73680Y82474D01*
X-73700Y82477D01*
X-73718Y82481D01*
X-73735Y82486D01*
X-73751Y82491D01*
X-73766Y82496D01*
X-73779Y82502D01*
X-73791Y82508D01*
X-73801Y82514D01*
X-73811Y82519D01*
X-73819Y82525D01*
X-73826Y82530D01*
X-73831Y82534D01*
X-73836Y82538D01*
X-73839Y82541D01*
X-73840Y82542D01*
X-73841Y82543D01*
X-73850Y82554D01*
X-73859Y82565D01*
X-73866Y82576D01*
X-73872Y82588D01*
X-73881Y82611D01*
X-73887Y82633D01*
X-73891Y82651D01*
X-73892Y82660D01*
X-73893Y82667D01*
X-73894Y82672D01*
Y82676D01*
Y82679D01*
Y82680D01*
X-73893Y82703D01*
X-73889Y82724D01*
X-73884Y82743D01*
X-73878Y82760D01*
X-73872Y82774D01*
X-73867Y82785D01*
X-73865Y82789D01*
X-73863Y82792D01*
X-73862Y82793D01*
Y82794D01*
X-73850Y82812D01*
X-73836Y82827D01*
X-73822Y82840D01*
X-73808Y82850D01*
X-73796Y82857D01*
X-73787Y82862D01*
X-73783Y82864D01*
X-73780Y82865D01*
X-73779Y82866D01*
X-73778D01*
X-73768Y82870D01*
X-73756Y82873D01*
X-73732Y82878D01*
X-73706Y82882D01*
X-73681Y82884D01*
X-73670Y82885D01*
X-73659Y82886D01*
X-73649D01*
X-73641Y82887D01*
X-73289D01*
Y82130D01*
D02*
G37*
G36*
X-74234Y72653D02*
X-74218Y72652D01*
X-74188Y72646D01*
X-74163Y72638D01*
X-74151Y72633D01*
X-74141Y72628D01*
X-74131Y72623D01*
X-74123Y72618D01*
X-74116Y72614D01*
X-74110Y72610D01*
X-74105Y72607D01*
X-74102Y72604D01*
X-74100Y72603D01*
X-74099Y72602D01*
X-74088Y72592D01*
X-74078Y72581D01*
X-74062Y72558D01*
X-74048Y72534D01*
X-74038Y72511D01*
X-74031Y72490D01*
X-74028Y72481D01*
X-74026Y72473D01*
X-74024Y72467D01*
X-74023Y72462D01*
X-74022Y72459D01*
Y72458D01*
X-74115Y72441D01*
X-74120Y72465D01*
X-74126Y72486D01*
X-74134Y72503D01*
X-74142Y72518D01*
X-74149Y72529D01*
X-74155Y72537D01*
X-74159Y72541D01*
X-74161Y72543D01*
X-74176Y72555D01*
X-74191Y72563D01*
X-74206Y72569D01*
X-74220Y72574D01*
X-74233Y72576D01*
X-74243Y72577D01*
X-74247Y72578D01*
X-74252D01*
X-74272Y72577D01*
X-74289Y72573D01*
X-74305Y72567D01*
X-74318Y72561D01*
X-74328Y72555D01*
X-74336Y72549D01*
X-74340Y72545D01*
X-74342Y72544D01*
X-74354Y72531D01*
X-74362Y72517D01*
X-74368Y72503D01*
X-74373Y72490D01*
X-74375Y72478D01*
X-74376Y72469D01*
X-74377Y72462D01*
Y72461D01*
Y72460D01*
X-74376Y72448D01*
X-74375Y72437D01*
X-74370Y72418D01*
X-74362Y72401D01*
X-74353Y72388D01*
X-74344Y72377D01*
X-74337Y72370D01*
X-74331Y72365D01*
X-74330Y72364D01*
X-74329D01*
X-74311Y72354D01*
X-74292Y72346D01*
X-74274Y72341D01*
X-74257Y72337D01*
X-74243Y72335D01*
X-74231Y72334D01*
X-74227Y72333D01*
X-74216D01*
X-74211Y72334D01*
X-74208Y72335D01*
X-74206D01*
X-74196Y72253D01*
X-74210Y72256D01*
X-74223Y72259D01*
X-74234Y72261D01*
X-74243Y72262D01*
X-74251Y72263D01*
X-74261D01*
X-74284Y72261D01*
X-74305Y72256D01*
X-74323Y72250D01*
X-74339Y72242D01*
X-74351Y72234D01*
X-74360Y72228D01*
X-74366Y72223D01*
X-74368Y72221D01*
X-74382Y72205D01*
X-74392Y72187D01*
X-74400Y72170D01*
X-74405Y72153D01*
X-74408Y72138D01*
X-74409Y72127D01*
X-74410Y72122D01*
Y72119D01*
Y72117D01*
Y72116D01*
Y72104D01*
X-74408Y72092D01*
X-74403Y72070D01*
X-74396Y72050D01*
X-74388Y72034D01*
X-74379Y72021D01*
X-74372Y72011D01*
X-74367Y72005D01*
X-74366Y72004D01*
X-74365Y72003D01*
X-74356Y71995D01*
X-74347Y71988D01*
X-74329Y71977D01*
X-74310Y71969D01*
X-74293Y71964D01*
X-74277Y71960D01*
X-74271Y71959D01*
X-74265D01*
X-74260Y71958D01*
X-74254D01*
X-74234Y71959D01*
X-74216Y71963D01*
X-74200Y71969D01*
X-74186Y71975D01*
X-74175Y71981D01*
X-74167Y71987D01*
X-74162Y71991D01*
X-74160Y71992D01*
X-74153Y71999D01*
X-74147Y72007D01*
X-74136Y72025D01*
X-74126Y72043D01*
X-74119Y72062D01*
X-74113Y72079D01*
X-74111Y72087D01*
X-74109Y72093D01*
X-74108Y72099D01*
X-74107Y72103D01*
X-74106Y72105D01*
Y72106D01*
X-74013Y72094D01*
X-74015Y72077D01*
X-74019Y72060D01*
X-74029Y72030D01*
X-74034Y72016D01*
X-74041Y72004D01*
X-74047Y71992D01*
X-74054Y71981D01*
X-74060Y71972D01*
X-74067Y71964D01*
X-74072Y71957D01*
X-74078Y71951D01*
X-74082Y71946D01*
X-74085Y71943D01*
X-74087Y71941D01*
X-74088Y71940D01*
X-74101Y71930D01*
X-74114Y71921D01*
X-74128Y71913D01*
X-74142Y71906D01*
X-74156Y71900D01*
X-74169Y71895D01*
X-74195Y71888D01*
X-74207Y71886D01*
X-74218Y71884D01*
X-74228Y71883D01*
X-74237Y71882D01*
X-74243Y71881D01*
X-74253D01*
X-74273Y71882D01*
X-74293Y71884D01*
X-74311Y71887D01*
X-74328Y71892D01*
X-74345Y71897D01*
X-74360Y71903D01*
X-74374Y71909D01*
X-74386Y71916D01*
X-74397Y71922D01*
X-74407Y71928D01*
X-74416Y71934D01*
X-74423Y71939D01*
X-74429Y71944D01*
X-74433Y71947D01*
X-74435Y71949D01*
X-74436Y71950D01*
X-74449Y71963D01*
X-74460Y71977D01*
X-74470Y71991D01*
X-74478Y72005D01*
X-74485Y72020D01*
X-74491Y72034D01*
X-74496Y72047D01*
X-74500Y72060D01*
X-74503Y72072D01*
X-74505Y72083D01*
X-74507Y72093D01*
X-74508Y72101D01*
X-74509Y72108D01*
Y72114D01*
Y72117D01*
Y72118D01*
X-74507Y72144D01*
X-74503Y72168D01*
X-74497Y72189D01*
X-74490Y72206D01*
X-74483Y72221D01*
X-74480Y72226D01*
X-74477Y72231D01*
X-74475Y72235D01*
X-74473Y72238D01*
X-74471Y72239D01*
Y72240D01*
X-74456Y72257D01*
X-74439Y72271D01*
X-74422Y72282D01*
X-74405Y72290D01*
X-74390Y72297D01*
X-74384Y72299D01*
X-74378Y72301D01*
X-74373Y72302D01*
X-74370Y72303D01*
X-74368Y72304D01*
X-74367D01*
X-74385Y72314D01*
X-74401Y72324D01*
X-74415Y72335D01*
X-74426Y72345D01*
X-74434Y72354D01*
X-74440Y72361D01*
X-74444Y72366D01*
X-74445Y72368D01*
X-74454Y72383D01*
X-74461Y72399D01*
X-74465Y72414D01*
X-74469Y72428D01*
X-74471Y72439D01*
X-74472Y72449D01*
Y72455D01*
Y72456D01*
Y72457D01*
X-74471Y72476D01*
X-74468Y72494D01*
X-74463Y72511D01*
X-74458Y72525D01*
X-74453Y72537D01*
X-74448Y72546D01*
X-74445Y72552D01*
X-74444Y72554D01*
X-74433Y72570D01*
X-74420Y72585D01*
X-74406Y72597D01*
X-74394Y72608D01*
X-74382Y72616D01*
X-74373Y72622D01*
X-74366Y72626D01*
X-74365Y72627D01*
X-74364D01*
X-74344Y72636D01*
X-74324Y72643D01*
X-74305Y72647D01*
X-74288Y72651D01*
X-74272Y72653D01*
X-74266D01*
X-74261Y72654D01*
X-74250D01*
X-74234Y72653D01*
D02*
G37*
G36*
X-73289Y71894D02*
X-73389D01*
Y72230D01*
X-73518D01*
X-73530Y72229D01*
X-73539D01*
X-73547Y72228D01*
X-73553Y72227D01*
X-73557D01*
X-73559Y72226D01*
X-73560D01*
X-73577Y72220D01*
X-73585Y72217D01*
X-73592Y72213D01*
X-73598Y72210D01*
X-73602Y72207D01*
X-73605Y72206D01*
X-73606Y72205D01*
X-73615Y72199D01*
X-73624Y72191D01*
X-73632Y72183D01*
X-73640Y72175D01*
X-73647Y72167D01*
X-73652Y72161D01*
X-73656Y72157D01*
X-73657Y72155D01*
X-73668Y72140D01*
X-73680Y72124D01*
X-73692Y72106D01*
X-73704Y72090D01*
X-73714Y72074D01*
X-73718Y72068D01*
X-73722Y72062D01*
X-73725Y72058D01*
X-73727Y72054D01*
X-73729Y72052D01*
Y72051D01*
X-73829Y71894D01*
X-73955D01*
X-73824Y72099D01*
X-73809Y72121D01*
X-73795Y72141D01*
X-73781Y72158D01*
X-73768Y72172D01*
X-73757Y72184D01*
X-73749Y72193D01*
X-73743Y72198D01*
X-73742Y72200D01*
X-73741D01*
X-73732Y72207D01*
X-73723Y72214D01*
X-73703Y72226D01*
X-73694Y72231D01*
X-73687Y72235D01*
X-73682Y72237D01*
X-73680Y72238D01*
X-73700Y72241D01*
X-73718Y72245D01*
X-73735Y72250D01*
X-73751Y72255D01*
X-73766Y72260D01*
X-73779Y72266D01*
X-73791Y72272D01*
X-73801Y72278D01*
X-73811Y72283D01*
X-73819Y72289D01*
X-73826Y72294D01*
X-73831Y72298D01*
X-73836Y72302D01*
X-73839Y72305D01*
X-73840Y72306D01*
X-73841Y72307D01*
X-73850Y72318D01*
X-73859Y72329D01*
X-73866Y72340D01*
X-73872Y72352D01*
X-73881Y72375D01*
X-73887Y72397D01*
X-73891Y72415D01*
X-73892Y72424D01*
X-73893Y72431D01*
X-73894Y72436D01*
Y72440D01*
Y72443D01*
Y72444D01*
X-73893Y72467D01*
X-73889Y72488D01*
X-73884Y72507D01*
X-73878Y72524D01*
X-73872Y72538D01*
X-73867Y72549D01*
X-73865Y72553D01*
X-73863Y72556D01*
X-73862Y72557D01*
Y72558D01*
X-73850Y72576D01*
X-73836Y72591D01*
X-73822Y72604D01*
X-73808Y72614D01*
X-73796Y72621D01*
X-73787Y72626D01*
X-73783Y72628D01*
X-73780Y72629D01*
X-73779Y72630D01*
X-73778D01*
X-73768Y72634D01*
X-73756Y72637D01*
X-73732Y72642D01*
X-73706Y72646D01*
X-73681Y72648D01*
X-73670Y72649D01*
X-73659Y72650D01*
X-73649D01*
X-73641Y72651D01*
X-73289D01*
Y71894D01*
D02*
G37*
G36*
X-159619Y72889D02*
X-159634Y72867D01*
X-159648Y72847D01*
X-159662Y72830D01*
X-159675Y72816D01*
X-159686Y72804D01*
X-159694Y72795D01*
X-159700Y72790D01*
X-159701Y72788D01*
X-159702D01*
X-159711Y72781D01*
X-159720Y72774D01*
X-159740Y72762D01*
X-159749Y72757D01*
X-159756Y72753D01*
X-159761Y72751D01*
X-159763Y72750D01*
X-159743Y72747D01*
X-159725Y72743D01*
X-159708Y72738D01*
X-159692Y72733D01*
X-159677Y72728D01*
X-159664Y72722D01*
X-159652Y72716D01*
X-159642Y72710D01*
X-159632Y72705D01*
X-159624Y72699D01*
X-159617Y72694D01*
X-159612Y72690D01*
X-159607Y72686D01*
X-159604Y72683D01*
X-159603Y72682D01*
X-159602Y72681D01*
X-159593Y72670D01*
X-159584Y72659D01*
X-159577Y72648D01*
X-159571Y72636D01*
X-159562Y72613D01*
X-159556Y72591D01*
X-159552Y72573D01*
X-159551Y72564D01*
X-159550Y72557D01*
X-159549Y72552D01*
Y72548D01*
Y72545D01*
Y72544D01*
X-159550Y72521D01*
X-159554Y72500D01*
X-159559Y72481D01*
X-159565Y72464D01*
X-159571Y72450D01*
X-159576Y72439D01*
X-159578Y72435D01*
X-159580Y72432D01*
X-159581Y72431D01*
Y72430D01*
X-159593Y72412D01*
X-159607Y72397D01*
X-159621Y72384D01*
X-159635Y72374D01*
X-159647Y72367D01*
X-159656Y72362D01*
X-159660Y72360D01*
X-159663Y72359D01*
X-159664Y72358D01*
X-159665D01*
X-159675Y72354D01*
X-159687Y72351D01*
X-159711Y72346D01*
X-159737Y72342D01*
X-159762Y72340D01*
X-159773Y72339D01*
X-159784Y72338D01*
X-159794D01*
X-159802Y72337D01*
X-160154D01*
Y73094D01*
X-160054D01*
Y72758D01*
X-159925D01*
X-159913Y72759D01*
X-159904D01*
X-159896Y72760D01*
X-159890Y72761D01*
X-159886D01*
X-159884Y72762D01*
X-159883D01*
X-159866Y72768D01*
X-159858Y72771D01*
X-159851Y72775D01*
X-159845Y72778D01*
X-159841Y72781D01*
X-159838Y72782D01*
X-159837Y72783D01*
X-159828Y72789D01*
X-159819Y72797D01*
X-159811Y72805D01*
X-159803Y72813D01*
X-159796Y72821D01*
X-159791Y72827D01*
X-159787Y72831D01*
X-159786Y72833D01*
X-159775Y72848D01*
X-159763Y72864D01*
X-159751Y72882D01*
X-159739Y72898D01*
X-159729Y72914D01*
X-159725Y72920D01*
X-159721Y72926D01*
X-159718Y72930D01*
X-159716Y72934D01*
X-159714Y72936D01*
Y72937D01*
X-159614Y73094D01*
X-159488D01*
X-159619Y72889D01*
D02*
G37*
G36*
X-159039Y72913D02*
X-158937D01*
Y72828D01*
X-159039D01*
Y72337D01*
X-159115D01*
X-159462Y72828D01*
Y72913D01*
X-159132D01*
Y73094D01*
X-159039D01*
Y72913D01*
D02*
G37*
G36*
X-164396Y73673D02*
X-164356Y73669D01*
X-164320Y73663D01*
X-164285Y73655D01*
X-164253Y73645D01*
X-164224Y73635D01*
X-164197Y73624D01*
X-164173Y73612D01*
X-164151Y73601D01*
X-164132Y73590D01*
X-164116Y73579D01*
X-164103Y73570D01*
X-164093Y73562D01*
X-164085Y73556D01*
X-164081Y73552D01*
X-164079Y73551D01*
X-164056Y73527D01*
X-164036Y73502D01*
X-164019Y73476D01*
X-164004Y73450D01*
X-163991Y73424D01*
X-163981Y73398D01*
X-163972Y73372D01*
X-163965Y73348D01*
X-163960Y73325D01*
X-163956Y73304D01*
X-163953Y73285D01*
X-163951Y73269D01*
X-163950Y73255D01*
X-163949Y73245D01*
Y73237D01*
X-163950Y73209D01*
X-163952Y73182D01*
X-163956Y73156D01*
X-163961Y73132D01*
X-163967Y73109D01*
X-163973Y73088D01*
X-163980Y73069D01*
X-163988Y73051D01*
X-163995Y73036D01*
X-164002Y73022D01*
X-164008Y73010D01*
X-164014Y73000D01*
X-164019Y72992D01*
X-164023Y72987D01*
X-164025Y72983D01*
X-164026Y72982D01*
X-164041Y72964D01*
X-164058Y72947D01*
X-164076Y72931D01*
X-164095Y72917D01*
X-164115Y72904D01*
X-164135Y72892D01*
X-164154Y72881D01*
X-164173Y72872D01*
X-164191Y72863D01*
X-164208Y72856D01*
X-164223Y72850D01*
X-164236Y72845D01*
X-164247Y72842D01*
X-164255Y72839D01*
X-164260Y72837D01*
X-164262D01*
X-164320Y73025D01*
X-164301Y73030D01*
X-164283Y73036D01*
X-164266Y73042D01*
X-164251Y73048D01*
X-164236Y73055D01*
X-164224Y73062D01*
X-164212Y73068D01*
X-164202Y73075D01*
X-164193Y73081D01*
X-164185Y73087D01*
X-164179Y73092D01*
X-164173Y73097D01*
X-164169Y73101D01*
X-164166Y73104D01*
X-164165Y73105D01*
X-164164Y73106D01*
X-164155Y73117D01*
X-164148Y73127D01*
X-164141Y73139D01*
X-164136Y73150D01*
X-164127Y73172D01*
X-164121Y73193D01*
X-164118Y73211D01*
X-164117Y73219D01*
X-164116Y73226D01*
X-164115Y73231D01*
Y73239D01*
X-164116Y73258D01*
X-164118Y73276D01*
X-164122Y73293D01*
X-164127Y73309D01*
X-164133Y73324D01*
X-164139Y73338D01*
X-164146Y73351D01*
X-164154Y73363D01*
X-164161Y73373D01*
X-164168Y73383D01*
X-164174Y73390D01*
X-164180Y73397D01*
X-164185Y73402D01*
X-164189Y73406D01*
X-164191Y73408D01*
X-164192Y73409D01*
X-164208Y73420D01*
X-164225Y73430D01*
X-164245Y73439D01*
X-164265Y73447D01*
X-164286Y73453D01*
X-164308Y73458D01*
X-164350Y73466D01*
X-164371Y73469D01*
X-164389Y73471D01*
X-164406Y73472D01*
X-164421Y73473D01*
X-164434Y73474D01*
X-164443D01*
X-164449D01*
X-164451D01*
X-164482Y73473D01*
X-164511Y73471D01*
X-164538Y73468D01*
X-164563Y73464D01*
X-164585Y73459D01*
X-164605Y73453D01*
X-164624Y73447D01*
X-164640Y73441D01*
X-164654Y73435D01*
X-164667Y73429D01*
X-164677Y73423D01*
X-164685Y73418D01*
X-164692Y73414D01*
X-164696Y73411D01*
X-164699Y73409D01*
X-164700Y73408D01*
X-164714Y73395D01*
X-164725Y73382D01*
X-164736Y73367D01*
X-164745Y73353D01*
X-164752Y73339D01*
X-164758Y73324D01*
X-164763Y73310D01*
X-164767Y73297D01*
X-164771Y73284D01*
X-164773Y73272D01*
X-164775Y73262D01*
X-164776Y73253D01*
X-164777Y73245D01*
Y73221D01*
X-164775Y73207D01*
X-164770Y73182D01*
X-164763Y73160D01*
X-164755Y73141D01*
X-164747Y73125D01*
X-164743Y73119D01*
X-164740Y73114D01*
X-164737Y73109D01*
X-164735Y73106D01*
X-164734Y73105D01*
X-164733Y73104D01*
X-164716Y73085D01*
X-164697Y73070D01*
X-164677Y73057D01*
X-164658Y73048D01*
X-164642Y73041D01*
X-164635Y73038D01*
X-164628Y73036D01*
X-164623Y73034D01*
X-164619Y73033D01*
X-164617Y73032D01*
X-164616D01*
X-164662Y72840D01*
X-164683Y72847D01*
X-164703Y72854D01*
X-164721Y72861D01*
X-164738Y72869D01*
X-164754Y72878D01*
X-164768Y72886D01*
X-164781Y72894D01*
X-164793Y72902D01*
X-164804Y72909D01*
X-164813Y72916D01*
X-164820Y72923D01*
X-164827Y72928D01*
X-164832Y72933D01*
X-164835Y72936D01*
X-164837Y72938D01*
X-164838Y72939D01*
X-164857Y72960D01*
X-164873Y72983D01*
X-164887Y73006D01*
X-164899Y73030D01*
X-164909Y73054D01*
X-164917Y73078D01*
X-164924Y73101D01*
X-164930Y73123D01*
X-164934Y73144D01*
X-164937Y73163D01*
X-164940Y73181D01*
X-164941Y73196D01*
X-164942Y73208D01*
X-164943Y73217D01*
Y73225D01*
X-164942Y73262D01*
X-164937Y73297D01*
X-164931Y73330D01*
X-164922Y73361D01*
X-164912Y73390D01*
X-164901Y73417D01*
X-164889Y73441D01*
X-164877Y73464D01*
X-164864Y73484D01*
X-164852Y73501D01*
X-164841Y73516D01*
X-164831Y73528D01*
X-164822Y73538D01*
X-164816Y73545D01*
X-164812Y73550D01*
X-164810Y73551D01*
X-164784Y73573D01*
X-164756Y73592D01*
X-164726Y73608D01*
X-164696Y73622D01*
X-164665Y73634D01*
X-164634Y73644D01*
X-164603Y73652D01*
X-164574Y73659D01*
X-164546Y73664D01*
X-164520Y73667D01*
X-164497Y73670D01*
X-164477Y73672D01*
X-164468Y73673D01*
X-164460D01*
X-164453D01*
X-164448Y73674D01*
X-164443D01*
X-164440D01*
X-164438D01*
X-164437D01*
X-164396Y73673D01*
D02*
G37*
G36*
X-164529Y72637D02*
X-164539Y72612D01*
X-164550Y72589D01*
X-164561Y72567D01*
X-164572Y72546D01*
X-164584Y72526D01*
X-164595Y72508D01*
X-164606Y72492D01*
X-164617Y72477D01*
X-164627Y72463D01*
X-164636Y72452D01*
X-164644Y72442D01*
X-164650Y72434D01*
X-164655Y72429D01*
X-164658Y72425D01*
X-164659Y72424D01*
X-163965D01*
Y72240D01*
X-164930D01*
Y72390D01*
X-164914Y72396D01*
X-164898Y72404D01*
X-164869Y72421D01*
X-164843Y72440D01*
X-164831Y72450D01*
X-164820Y72460D01*
X-164810Y72469D01*
X-164802Y72477D01*
X-164794Y72485D01*
X-164788Y72492D01*
X-164783Y72498D01*
X-164779Y72502D01*
X-164777Y72505D01*
X-164776Y72506D01*
X-164764Y72522D01*
X-164753Y72537D01*
X-164734Y72566D01*
X-164719Y72592D01*
X-164707Y72615D01*
X-164702Y72626D01*
X-164698Y72635D01*
X-164694Y72643D01*
X-164692Y72649D01*
X-164690Y72655D01*
X-164688Y72659D01*
X-164687Y72661D01*
Y72662D01*
X-164520D01*
X-164529Y72637D01*
D02*
G37*
G36*
X-164391Y71964D02*
X-164345Y71961D01*
X-164303Y71957D01*
X-164264Y71952D01*
X-164229Y71945D01*
X-164197Y71938D01*
X-164169Y71930D01*
X-164145Y71922D01*
X-164123Y71914D01*
X-164105Y71906D01*
X-164090Y71899D01*
X-164077Y71892D01*
X-164068Y71887D01*
X-164061Y71883D01*
X-164057Y71880D01*
X-164056Y71879D01*
X-164037Y71862D01*
X-164021Y71845D01*
X-164006Y71826D01*
X-163994Y71807D01*
X-163984Y71788D01*
X-163975Y71770D01*
X-163968Y71751D01*
X-163962Y71734D01*
X-163958Y71717D01*
X-163955Y71702D01*
X-163952Y71688D01*
X-163951Y71676D01*
X-163950Y71666D01*
X-163949Y71659D01*
Y71653D01*
X-163950Y71627D01*
X-163953Y71603D01*
X-163958Y71581D01*
X-163964Y71560D01*
X-163972Y71540D01*
X-163980Y71522D01*
X-163989Y71506D01*
X-163998Y71491D01*
X-164007Y71478D01*
X-164016Y71467D01*
X-164024Y71457D01*
X-164032Y71449D01*
X-164038Y71443D01*
X-164043Y71439D01*
X-164046Y71436D01*
X-164047Y71435D01*
X-164071Y71418D01*
X-164098Y71404D01*
X-164127Y71391D01*
X-164158Y71380D01*
X-164191Y71371D01*
X-164223Y71363D01*
X-164256Y71357D01*
X-164288Y71352D01*
X-164318Y71348D01*
X-164346Y71345D01*
X-164372Y71343D01*
X-164395Y71341D01*
X-164404D01*
X-164413D01*
X-164421Y71340D01*
X-164427D01*
X-164432D01*
X-164436D01*
X-164438D01*
X-164439D01*
X-164488Y71341D01*
X-164534Y71344D01*
X-164576Y71349D01*
X-164615Y71355D01*
X-164651Y71362D01*
X-164683Y71370D01*
X-164711Y71378D01*
X-164737Y71387D01*
X-164759Y71396D01*
X-164778Y71404D01*
X-164794Y71412D01*
X-164807Y71419D01*
X-164817Y71425D01*
X-164824Y71430D01*
X-164829Y71433D01*
X-164830Y71434D01*
X-164848Y71449D01*
X-164863Y71466D01*
X-164876Y71484D01*
X-164888Y71502D01*
X-164898Y71520D01*
X-164906Y71538D01*
X-164912Y71556D01*
X-164918Y71573D01*
X-164922Y71589D01*
X-164925Y71605D01*
X-164927Y71618D01*
X-164928Y71630D01*
X-164929Y71640D01*
X-164930Y71647D01*
Y71653D01*
X-164929Y71678D01*
X-164926Y71703D01*
X-164921Y71725D01*
X-164915Y71746D01*
X-164907Y71766D01*
X-164899Y71783D01*
X-164890Y71800D01*
X-164881Y71814D01*
X-164871Y71828D01*
X-164862Y71839D01*
X-164854Y71849D01*
X-164847Y71857D01*
X-164840Y71863D01*
X-164835Y71867D01*
X-164832Y71870D01*
X-164831Y71871D01*
X-164807Y71888D01*
X-164780Y71902D01*
X-164751Y71915D01*
X-164720Y71925D01*
X-164688Y71934D01*
X-164655Y71942D01*
X-164623Y71948D01*
X-164591Y71953D01*
X-164561Y71957D01*
X-164533Y71960D01*
X-164508Y71962D01*
X-164485Y71963D01*
X-164476Y71964D01*
X-164467D01*
X-164459Y71965D01*
X-164453D01*
X-164448D01*
X-164444D01*
X-164442D01*
X-164441D01*
X-164391Y71964D01*
D02*
G37*
G36*
X-134600Y97920D02*
X-134691D01*
Y98298D01*
X-135369D01*
Y98400D01*
X-134600D01*
Y97920D01*
D02*
G37*
G36*
X-134923Y97841D02*
X-134890Y97839D01*
X-134859Y97835D01*
X-134830Y97830D01*
X-134805Y97825D01*
X-134781Y97819D01*
X-134760Y97812D01*
X-134741Y97805D01*
X-134725Y97798D01*
X-134711Y97791D01*
X-134699Y97785D01*
X-134690Y97780D01*
X-134682Y97775D01*
X-134677Y97771D01*
X-134674Y97769D01*
X-134673Y97768D01*
X-134658Y97753D01*
X-134645Y97738D01*
X-134633Y97722D01*
X-134623Y97706D01*
X-134615Y97690D01*
X-134608Y97674D01*
X-134602Y97658D01*
X-134598Y97643D01*
X-134594Y97629D01*
X-134592Y97616D01*
X-134590Y97605D01*
X-134588Y97595D01*
Y97586D01*
X-134587Y97580D01*
Y97575D01*
X-134588Y97550D01*
X-134592Y97527D01*
X-134597Y97506D01*
X-134604Y97488D01*
X-134610Y97473D01*
X-134612Y97467D01*
X-134615Y97461D01*
X-134617Y97457D01*
X-134619Y97454D01*
X-134620Y97453D01*
Y97452D01*
X-134634Y97432D01*
X-134649Y97415D01*
X-134665Y97401D01*
X-134680Y97388D01*
X-134694Y97379D01*
X-134705Y97372D01*
X-134709Y97369D01*
X-134712Y97367D01*
X-134714Y97366D01*
X-134715D01*
X-134739Y97355D01*
X-134762Y97347D01*
X-134785Y97342D01*
X-134805Y97338D01*
X-134823Y97336D01*
X-134830Y97335D01*
X-134837Y97334D01*
X-134842D01*
X-134846D01*
X-134848D01*
X-134849D01*
X-134869Y97335D01*
X-134888Y97337D01*
X-134906Y97340D01*
X-134924Y97344D01*
X-134940Y97350D01*
X-134954Y97355D01*
X-134968Y97361D01*
X-134980Y97367D01*
X-134991Y97374D01*
X-135001Y97380D01*
X-135009Y97385D01*
X-135016Y97390D01*
X-135022Y97395D01*
X-135026Y97398D01*
X-135028Y97400D01*
X-135029Y97401D01*
X-135041Y97414D01*
X-135052Y97427D01*
X-135061Y97440D01*
X-135070Y97454D01*
X-135076Y97468D01*
X-135082Y97481D01*
X-135087Y97494D01*
X-135090Y97506D01*
X-135093Y97518D01*
X-135095Y97528D01*
X-135097Y97538D01*
X-135098Y97546D01*
X-135099Y97553D01*
Y97562D01*
X-135098Y97582D01*
X-135095Y97601D01*
X-135091Y97618D01*
X-135086Y97634D01*
X-135081Y97647D01*
X-135077Y97656D01*
X-135075Y97660D01*
X-135074Y97663D01*
X-135073Y97664D01*
Y97665D01*
X-135063Y97683D01*
X-135050Y97699D01*
X-135038Y97713D01*
X-135025Y97725D01*
X-135014Y97735D01*
X-135005Y97742D01*
X-134998Y97746D01*
X-134997Y97748D01*
X-135017D01*
X-135037Y97747D01*
X-135056Y97745D01*
X-135073Y97743D01*
X-135089Y97741D01*
X-135103Y97739D01*
X-135117Y97737D01*
X-135129Y97735D01*
X-135139Y97732D01*
X-135148Y97730D01*
X-135156Y97728D01*
X-135163Y97726D01*
X-135168Y97724D01*
X-135171Y97723D01*
X-135173Y97722D01*
X-135174D01*
X-135196Y97711D01*
X-135215Y97700D01*
X-135231Y97688D01*
X-135244Y97677D01*
X-135255Y97667D01*
X-135262Y97659D01*
X-135267Y97654D01*
X-135268Y97652D01*
X-135277Y97638D01*
X-135283Y97625D01*
X-135288Y97611D01*
X-135291Y97599D01*
X-135293Y97588D01*
X-135294Y97580D01*
Y97572D01*
X-135292Y97552D01*
X-135288Y97533D01*
X-135281Y97517D01*
X-135274Y97503D01*
X-135267Y97492D01*
X-135260Y97484D01*
X-135256Y97479D01*
X-135254Y97477D01*
X-135243Y97469D01*
X-135231Y97462D01*
X-135218Y97455D01*
X-135205Y97450D01*
X-135193Y97446D01*
X-135183Y97443D01*
X-135179Y97442D01*
X-135176D01*
X-135175Y97441D01*
X-135174D01*
X-135181Y97347D01*
X-135197Y97350D01*
X-135213Y97353D01*
X-135240Y97363D01*
X-135253Y97369D01*
X-135264Y97374D01*
X-135275Y97380D01*
X-135284Y97386D01*
X-135293Y97392D01*
X-135300Y97398D01*
X-135306Y97403D01*
X-135312Y97408D01*
X-135316Y97412D01*
X-135319Y97414D01*
X-135320Y97416D01*
X-135321Y97417D01*
X-135330Y97428D01*
X-135338Y97440D01*
X-135345Y97452D01*
X-135351Y97465D01*
X-135360Y97490D01*
X-135366Y97513D01*
X-135368Y97524D01*
X-135369Y97534D01*
X-135370Y97543D01*
X-135371Y97551D01*
X-135372Y97557D01*
Y97566D01*
X-135371Y97588D01*
X-135368Y97609D01*
X-135364Y97629D01*
X-135358Y97648D01*
X-135351Y97665D01*
X-135344Y97681D01*
X-135336Y97696D01*
X-135328Y97709D01*
X-135319Y97720D01*
X-135311Y97731D01*
X-135304Y97740D01*
X-135297Y97747D01*
X-135291Y97753D01*
X-135287Y97757D01*
X-135284Y97759D01*
X-135283Y97760D01*
X-135263Y97774D01*
X-135240Y97787D01*
X-135216Y97798D01*
X-135190Y97807D01*
X-135163Y97815D01*
X-135136Y97822D01*
X-135109Y97827D01*
X-135083Y97832D01*
X-135058Y97835D01*
X-135035Y97838D01*
X-135014Y97839D01*
X-134995Y97841D01*
X-134980D01*
X-134974Y97842D01*
X-134969D01*
X-134965D01*
X-134962D01*
X-134960D01*
X-134959D01*
X-134923Y97841D01*
D02*
G37*
G36*
X-133119Y110986D02*
X-133210D01*
Y111364D01*
X-133888D01*
Y111466D01*
X-133119D01*
Y110986D01*
D02*
G37*
G36*
X-133303Y110601D02*
X-133119D01*
Y110507D01*
X-133303D01*
Y110403D01*
X-133390D01*
Y110507D01*
X-133888D01*
Y110584D01*
X-133390Y110935D01*
X-133303D01*
Y110601D01*
D02*
G37*
G36*
X-124209Y105792D02*
X-124191Y105805D01*
X-124182Y105812D01*
X-124175Y105818D01*
X-124168Y105824D01*
X-124163Y105828D01*
X-124160Y105831D01*
X-124159Y105832D01*
X-124154Y105837D01*
X-124147Y105844D01*
X-124140Y105851D01*
X-124133Y105859D01*
X-124117Y105877D01*
X-124101Y105896D01*
X-124086Y105913D01*
X-124079Y105921D01*
X-124073Y105927D01*
X-124069Y105933D01*
X-124065Y105937D01*
X-124063Y105940D01*
X-124062Y105941D01*
X-124046Y105959D01*
X-124031Y105977D01*
X-124018Y105992D01*
X-124005Y106007D01*
X-123993Y106020D01*
X-123981Y106032D01*
X-123971Y106043D01*
X-123962Y106052D01*
X-123954Y106061D01*
X-123947Y106068D01*
X-123941Y106074D01*
X-123936Y106079D01*
X-123932Y106082D01*
X-123929Y106085D01*
X-123928Y106087D01*
X-123927D01*
X-123909Y106102D01*
X-123891Y106115D01*
X-123875Y106126D01*
X-123861Y106135D01*
X-123850Y106142D01*
X-123841Y106146D01*
X-123835Y106149D01*
X-123833Y106150D01*
X-123816Y106156D01*
X-123800Y106161D01*
X-123784Y106164D01*
X-123771Y106167D01*
X-123759Y106168D01*
X-123750Y106169D01*
X-123744D01*
X-123742D01*
X-123725Y106168D01*
X-123709Y106166D01*
X-123694Y106163D01*
X-123680Y106159D01*
X-123654Y106148D01*
X-123642Y106143D01*
X-123632Y106137D01*
X-123622Y106130D01*
X-123614Y106125D01*
X-123607Y106119D01*
X-123601Y106114D01*
X-123596Y106110D01*
X-123593Y106107D01*
X-123591Y106105D01*
X-123590Y106104D01*
X-123579Y106091D01*
X-123570Y106078D01*
X-123561Y106064D01*
X-123554Y106049D01*
X-123548Y106034D01*
X-123543Y106020D01*
X-123536Y105992D01*
X-123533Y105979D01*
X-123531Y105967D01*
X-123530Y105956D01*
X-123529Y105946D01*
X-123528Y105939D01*
Y105928D01*
X-123529Y105908D01*
X-123530Y105889D01*
X-123533Y105871D01*
X-123537Y105855D01*
X-123541Y105839D01*
X-123546Y105825D01*
X-123551Y105812D01*
X-123556Y105800D01*
X-123562Y105789D01*
X-123567Y105780D01*
X-123572Y105772D01*
X-123576Y105765D01*
X-123580Y105760D01*
X-123583Y105756D01*
X-123584Y105754D01*
X-123585Y105753D01*
X-123596Y105741D01*
X-123608Y105731D01*
X-123621Y105722D01*
X-123635Y105714D01*
X-123648Y105707D01*
X-123662Y105701D01*
X-123689Y105692D01*
X-123701Y105688D01*
X-123713Y105685D01*
X-123723Y105683D01*
X-123732Y105681D01*
X-123740Y105680D01*
X-123745D01*
X-123749Y105679D01*
X-123750D01*
X-123760Y105776D01*
X-123734Y105778D01*
X-123712Y105782D01*
X-123693Y105789D01*
X-123676Y105797D01*
X-123664Y105804D01*
X-123654Y105811D01*
X-123649Y105815D01*
X-123647Y105817D01*
X-123633Y105833D01*
X-123623Y105851D01*
X-123616Y105870D01*
X-123611Y105887D01*
X-123608Y105902D01*
X-123607Y105909D01*
Y105915D01*
X-123606Y105919D01*
Y105926D01*
X-123608Y105949D01*
X-123612Y105970D01*
X-123618Y105988D01*
X-123625Y106003D01*
X-123633Y106015D01*
X-123639Y106024D01*
X-123643Y106029D01*
X-123645Y106031D01*
X-123660Y106045D01*
X-123676Y106055D01*
X-123691Y106062D01*
X-123706Y106067D01*
X-123719Y106070D01*
X-123730Y106071D01*
X-123734Y106072D01*
X-123736D01*
X-123738D01*
X-123739D01*
X-123749D01*
X-123759Y106070D01*
X-123780Y106065D01*
X-123799Y106058D01*
X-123816Y106050D01*
X-123831Y106041D01*
X-123837Y106037D01*
X-123843Y106034D01*
X-123847Y106031D01*
X-123850Y106029D01*
X-123852Y106028D01*
X-123853Y106027D01*
X-123865Y106018D01*
X-123877Y106007D01*
X-123890Y105995D01*
X-123904Y105982D01*
X-123931Y105954D01*
X-123957Y105926D01*
X-123969Y105913D01*
X-123980Y105900D01*
X-123990Y105888D01*
X-123999Y105878D01*
X-124006Y105870D01*
X-124011Y105863D01*
X-124015Y105859D01*
X-124016Y105858D01*
X-124040Y105829D01*
X-124062Y105804D01*
X-124082Y105783D01*
X-124099Y105766D01*
X-124113Y105752D01*
X-124124Y105742D01*
X-124128Y105739D01*
X-124131Y105736D01*
X-124132Y105735D01*
X-124133Y105734D01*
X-124152Y105719D01*
X-124170Y105706D01*
X-124187Y105696D01*
X-124203Y105687D01*
X-124216Y105680D01*
X-124226Y105676D01*
X-124230Y105674D01*
X-124233Y105673D01*
X-124234Y105672D01*
X-124235D01*
X-124247Y105668D01*
X-124258Y105665D01*
X-124269Y105663D01*
X-124279Y105662D01*
X-124288Y105661D01*
X-124294D01*
X-124298D01*
X-124300D01*
Y106170D01*
X-124209D01*
Y105792D01*
D02*
G37*
G36*
Y105214D02*
X-123531D01*
Y105112D01*
X-124300D01*
Y105592D01*
X-124209D01*
Y105214D01*
D02*
G37*
G36*
X-96500Y98220D02*
X-96591D01*
Y98598D01*
X-97269D01*
Y98700D01*
X-96500D01*
Y98220D01*
D02*
G37*
G36*
X-96683Y98135D02*
X-96666Y98131D01*
X-96651Y98127D01*
X-96636Y98121D01*
X-96622Y98116D01*
X-96609Y98109D01*
X-96597Y98103D01*
X-96587Y98096D01*
X-96577Y98090D01*
X-96569Y98083D01*
X-96562Y98078D01*
X-96556Y98072D01*
X-96551Y98068D01*
X-96548Y98065D01*
X-96546Y98063D01*
X-96545Y98062D01*
X-96535Y98049D01*
X-96526Y98036D01*
X-96518Y98022D01*
X-96512Y98007D01*
X-96506Y97993D01*
X-96501Y97979D01*
X-96494Y97952D01*
X-96492Y97939D01*
X-96490Y97928D01*
X-96489Y97917D01*
X-96488Y97908D01*
X-96487Y97901D01*
Y97891D01*
X-96488Y97868D01*
X-96491Y97846D01*
X-96496Y97825D01*
X-96502Y97805D01*
X-96509Y97787D01*
X-96516Y97771D01*
X-96525Y97756D01*
X-96534Y97742D01*
X-96542Y97730D01*
X-96551Y97719D01*
X-96558Y97710D01*
X-96566Y97703D01*
X-96571Y97697D01*
X-96576Y97692D01*
X-96579Y97690D01*
X-96580Y97689D01*
X-96595Y97678D01*
X-96610Y97669D01*
X-96625Y97661D01*
X-96640Y97654D01*
X-96655Y97648D01*
X-96670Y97643D01*
X-96699Y97636D01*
X-96711Y97633D01*
X-96723Y97631D01*
X-96734Y97630D01*
X-96743Y97629D01*
X-96750Y97628D01*
X-96755D01*
X-96759D01*
X-96760D01*
X-96780Y97629D01*
X-96799Y97631D01*
X-96817Y97634D01*
X-96835Y97639D01*
X-96851Y97644D01*
X-96865Y97650D01*
X-96879Y97656D01*
X-96891Y97663D01*
X-96902Y97669D01*
X-96912Y97676D01*
X-96920Y97682D01*
X-96927Y97687D01*
X-96933Y97692D01*
X-96937Y97695D01*
X-96939Y97697D01*
X-96940Y97698D01*
X-96952Y97711D01*
X-96963Y97725D01*
X-96972Y97739D01*
X-96981Y97753D01*
X-96987Y97768D01*
X-96993Y97782D01*
X-96998Y97795D01*
X-97001Y97808D01*
X-97004Y97821D01*
X-97006Y97832D01*
X-97008Y97842D01*
X-97009Y97850D01*
X-97010Y97857D01*
Y97867D01*
X-97009Y97881D01*
X-97008Y97895D01*
X-97002Y97922D01*
X-96995Y97946D01*
X-96986Y97968D01*
X-96981Y97978D01*
X-96977Y97986D01*
X-96972Y97994D01*
X-96969Y98000D01*
X-96966Y98005D01*
X-96963Y98009D01*
X-96962Y98011D01*
X-96961Y98012D01*
X-97169Y97971D01*
Y97664D01*
X-97259D01*
Y98046D01*
X-96864Y98120D01*
X-96851Y98031D01*
X-96863Y98023D01*
X-96873Y98014D01*
X-96883Y98004D01*
X-96890Y97995D01*
X-96897Y97987D01*
X-96901Y97981D01*
X-96904Y97977D01*
X-96905Y97975D01*
X-96912Y97961D01*
X-96918Y97946D01*
X-96922Y97932D01*
X-96924Y97920D01*
X-96926Y97908D01*
X-96927Y97900D01*
Y97878D01*
X-96925Y97866D01*
X-96920Y97842D01*
X-96912Y97822D01*
X-96904Y97805D01*
X-96895Y97791D01*
X-96887Y97781D01*
X-96884Y97778D01*
X-96882Y97775D01*
X-96881Y97773D01*
X-96880D01*
X-96871Y97765D01*
X-96861Y97758D01*
X-96840Y97747D01*
X-96819Y97739D01*
X-96798Y97734D01*
X-96780Y97730D01*
X-96772Y97729D01*
X-96765D01*
X-96760Y97728D01*
X-96756D01*
X-96753D01*
X-96752D01*
X-96736D01*
X-96722Y97730D01*
X-96695Y97735D01*
X-96672Y97743D01*
X-96652Y97751D01*
X-96644Y97756D01*
X-96637Y97760D01*
X-96630Y97764D01*
X-96625Y97768D01*
X-96621Y97771D01*
X-96618Y97773D01*
X-96617Y97774D01*
X-96616Y97775D01*
X-96607Y97784D01*
X-96599Y97793D01*
X-96592Y97803D01*
X-96587Y97813D01*
X-96577Y97832D01*
X-96571Y97851D01*
X-96568Y97867D01*
X-96567Y97874D01*
X-96566Y97879D01*
X-96565Y97884D01*
Y97891D01*
X-96567Y97912D01*
X-96571Y97930D01*
X-96576Y97947D01*
X-96583Y97961D01*
X-96589Y97972D01*
X-96595Y97981D01*
X-96599Y97986D01*
X-96600Y97988D01*
X-96615Y98001D01*
X-96632Y98012D01*
X-96650Y98021D01*
X-96668Y98028D01*
X-96683Y98032D01*
X-96690Y98034D01*
X-96696Y98036D01*
X-96701Y98037D01*
X-96705D01*
X-96707Y98038D01*
X-96708D01*
X-96701Y98137D01*
X-96683Y98135D01*
D02*
G37*
G36*
X-98883Y111032D02*
X-98974D01*
Y111410D01*
X-99652D01*
Y111512D01*
X-98883D01*
Y111032D01*
D02*
G37*
G36*
X-99069Y110947D02*
X-99052Y110943D01*
X-99037Y110939D01*
X-99022Y110933D01*
X-99008Y110927D01*
X-98995Y110921D01*
X-98983Y110914D01*
X-98972Y110908D01*
X-98963Y110901D01*
X-98954Y110895D01*
X-98947Y110889D01*
X-98941Y110884D01*
X-98936Y110879D01*
X-98933Y110876D01*
X-98931Y110874D01*
X-98930Y110873D01*
X-98919Y110860D01*
X-98910Y110847D01*
X-98902Y110833D01*
X-98895Y110818D01*
X-98890Y110804D01*
X-98885Y110790D01*
X-98878Y110764D01*
X-98875Y110752D01*
X-98873Y110740D01*
X-98872Y110730D01*
X-98871Y110722D01*
X-98870Y110715D01*
Y110705D01*
X-98871Y110684D01*
X-98873Y110665D01*
X-98876Y110646D01*
X-98881Y110629D01*
X-98886Y110612D01*
X-98892Y110597D01*
X-98898Y110583D01*
X-98905Y110570D01*
X-98911Y110559D01*
X-98917Y110549D01*
X-98923Y110540D01*
X-98928Y110533D01*
X-98933Y110527D01*
X-98936Y110523D01*
X-98938Y110521D01*
X-98939Y110520D01*
X-98952Y110507D01*
X-98966Y110496D01*
X-98981Y110486D01*
X-98995Y110477D01*
X-99010Y110470D01*
X-99024Y110464D01*
X-99038Y110459D01*
X-99051Y110455D01*
X-99063Y110452D01*
X-99074Y110450D01*
X-99084Y110448D01*
X-99093Y110447D01*
X-99100Y110446D01*
X-99106D01*
X-99109D01*
X-99110D01*
X-99137Y110448D01*
X-99160Y110452D01*
X-99181Y110458D01*
X-99199Y110465D01*
X-99214Y110472D01*
X-99219Y110475D01*
X-99224Y110478D01*
X-99228Y110480D01*
X-99231Y110482D01*
X-99232Y110484D01*
X-99233D01*
X-99250Y110499D01*
X-99264Y110517D01*
X-99276Y110534D01*
X-99285Y110551D01*
X-99291Y110566D01*
X-99294Y110573D01*
X-99296Y110579D01*
X-99297Y110583D01*
X-99298Y110587D01*
X-99299Y110589D01*
Y110590D01*
X-99309Y110572D01*
X-99319Y110556D01*
X-99330Y110542D01*
X-99341Y110531D01*
X-99350Y110522D01*
X-99357Y110516D01*
X-99362Y110512D01*
X-99364Y110511D01*
X-99380Y110502D01*
X-99396Y110495D01*
X-99411Y110491D01*
X-99425Y110487D01*
X-99437Y110485D01*
X-99447Y110484D01*
X-99453D01*
X-99454D01*
X-99455D01*
X-99474Y110485D01*
X-99492Y110488D01*
X-99509Y110493D01*
X-99524Y110498D01*
X-99536Y110504D01*
X-99546Y110508D01*
X-99552Y110512D01*
X-99553Y110513D01*
X-99554D01*
X-99571Y110524D01*
X-99585Y110537D01*
X-99598Y110551D01*
X-99609Y110564D01*
X-99617Y110576D01*
X-99623Y110585D01*
X-99625Y110589D01*
X-99627Y110592D01*
X-99628Y110593D01*
Y110594D01*
X-99637Y110614D01*
X-99644Y110634D01*
X-99648Y110653D01*
X-99652Y110671D01*
X-99654Y110686D01*
Y110693D01*
X-99655Y110698D01*
Y110709D01*
X-99654Y110726D01*
X-99653Y110742D01*
X-99647Y110772D01*
X-99638Y110798D01*
X-99633Y110809D01*
X-99629Y110820D01*
X-99624Y110829D01*
X-99619Y110838D01*
X-99614Y110845D01*
X-99610Y110851D01*
X-99607Y110856D01*
X-99604Y110859D01*
X-99603Y110861D01*
X-99602Y110862D01*
X-99592Y110873D01*
X-99581Y110883D01*
X-99557Y110900D01*
X-99533Y110913D01*
X-99510Y110924D01*
X-99499Y110928D01*
X-99489Y110931D01*
X-99479Y110934D01*
X-99472Y110936D01*
X-99465Y110938D01*
X-99460Y110939D01*
X-99457Y110940D01*
X-99456D01*
X-99439Y110846D01*
X-99463Y110841D01*
X-99484Y110835D01*
X-99502Y110827D01*
X-99516Y110819D01*
X-99528Y110812D01*
X-99536Y110806D01*
X-99540Y110802D01*
X-99542Y110800D01*
X-99554Y110785D01*
X-99562Y110770D01*
X-99568Y110754D01*
X-99573Y110740D01*
X-99575Y110727D01*
X-99576Y110716D01*
X-99577Y110712D01*
Y110707D01*
X-99576Y110687D01*
X-99572Y110670D01*
X-99566Y110654D01*
X-99560Y110641D01*
X-99553Y110631D01*
X-99548Y110623D01*
X-99544Y110619D01*
X-99542Y110617D01*
X-99529Y110605D01*
X-99514Y110596D01*
X-99500Y110590D01*
X-99487Y110585D01*
X-99475Y110583D01*
X-99466Y110582D01*
X-99459Y110581D01*
X-99458D01*
X-99457D01*
X-99445Y110582D01*
X-99434Y110583D01*
X-99414Y110589D01*
X-99397Y110596D01*
X-99383Y110605D01*
X-99373Y110614D01*
X-99365Y110622D01*
X-99361Y110628D01*
X-99359Y110629D01*
Y110630D01*
X-99349Y110648D01*
X-99341Y110667D01*
X-99336Y110685D01*
X-99332Y110702D01*
X-99330Y110716D01*
X-99329Y110728D01*
X-99328Y110732D01*
Y110743D01*
X-99329Y110748D01*
X-99330Y110751D01*
Y110753D01*
X-99247Y110764D01*
X-99250Y110750D01*
X-99253Y110737D01*
X-99255Y110725D01*
X-99256Y110715D01*
X-99257Y110708D01*
Y110697D01*
X-99255Y110673D01*
X-99250Y110652D01*
X-99244Y110634D01*
X-99236Y110618D01*
X-99228Y110606D01*
X-99222Y110597D01*
X-99217Y110591D01*
X-99215Y110589D01*
X-99207Y110581D01*
X-99198Y110575D01*
X-99181Y110564D01*
X-99163Y110556D01*
X-99146Y110551D01*
X-99131Y110548D01*
X-99124Y110547D01*
X-99119D01*
X-99114Y110546D01*
X-99111D01*
X-99109D01*
X-99108D01*
X-99096D01*
X-99084Y110548D01*
X-99062Y110553D01*
X-99042Y110561D01*
X-99026Y110569D01*
X-99012Y110577D01*
X-99002Y110585D01*
X-98999Y110588D01*
X-98996Y110590D01*
X-98995Y110591D01*
X-98994Y110592D01*
X-98986Y110601D01*
X-98979Y110610D01*
X-98967Y110629D01*
X-98959Y110648D01*
X-98954Y110666D01*
X-98950Y110681D01*
X-98949Y110688D01*
Y110694D01*
X-98948Y110698D01*
Y110705D01*
X-98950Y110725D01*
X-98954Y110744D01*
X-98959Y110760D01*
X-98966Y110774D01*
X-98972Y110786D01*
X-98978Y110794D01*
X-98982Y110799D01*
X-98983Y110801D01*
X-98990Y110808D01*
X-98998Y110814D01*
X-99017Y110825D01*
X-99036Y110835D01*
X-99055Y110842D01*
X-99073Y110848D01*
X-99080Y110850D01*
X-99087Y110852D01*
X-99092Y110853D01*
X-99096Y110854D01*
X-99099Y110855D01*
X-99100D01*
X-99087Y110949D01*
X-99069Y110947D01*
D02*
G37*
G36*
X-168759Y83880D02*
X-168739Y83878D01*
X-168720Y83873D01*
X-168702Y83868D01*
X-168685Y83862D01*
X-168669Y83855D01*
X-168655Y83848D01*
X-168642Y83840D01*
X-168630Y83832D01*
X-168619Y83825D01*
X-168610Y83818D01*
X-168603Y83812D01*
X-168597Y83807D01*
X-168592Y83803D01*
X-168590Y83800D01*
X-168589Y83799D01*
X-168575Y83783D01*
X-168564Y83766D01*
X-168553Y83748D01*
X-168544Y83730D01*
X-168537Y83711D01*
X-168531Y83693D01*
X-168526Y83675D01*
X-168522Y83657D01*
X-168518Y83641D01*
X-168516Y83625D01*
X-168514Y83611D01*
X-168513Y83599D01*
X-168512Y83590D01*
Y83576D01*
X-168513Y83552D01*
X-168515Y83529D01*
X-168518Y83508D01*
X-168522Y83487D01*
X-168528Y83468D01*
X-168533Y83450D01*
X-168539Y83434D01*
X-168545Y83419D01*
X-168552Y83405D01*
X-168558Y83393D01*
X-168563Y83383D01*
X-168568Y83375D01*
X-168573Y83368D01*
X-168576Y83363D01*
X-168578Y83360D01*
X-168579Y83359D01*
X-168592Y83344D01*
X-168607Y83330D01*
X-168624Y83318D01*
X-168641Y83307D01*
X-168659Y83297D01*
X-168677Y83289D01*
X-168695Y83282D01*
X-168713Y83276D01*
X-168730Y83271D01*
X-168745Y83267D01*
X-168760Y83263D01*
X-168772Y83261D01*
X-168783Y83259D01*
X-168790Y83258D01*
X-168795Y83257D01*
X-168797D01*
X-168815Y83441D01*
X-168800Y83442D01*
X-168787Y83444D01*
X-168775Y83446D01*
X-168763Y83449D01*
X-168743Y83456D01*
X-168727Y83462D01*
X-168715Y83469D01*
X-168707Y83475D01*
X-168702Y83479D01*
X-168700Y83480D01*
X-168688Y83494D01*
X-168680Y83509D01*
X-168674Y83524D01*
X-168669Y83538D01*
X-168667Y83551D01*
X-168666Y83562D01*
X-168665Y83566D01*
Y83571D01*
X-168666Y83592D01*
X-168670Y83610D01*
X-168676Y83625D01*
X-168682Y83638D01*
X-168688Y83649D01*
X-168694Y83656D01*
X-168698Y83661D01*
X-168699Y83662D01*
X-168712Y83673D01*
X-168728Y83682D01*
X-168743Y83688D01*
X-168758Y83692D01*
X-168772Y83694D01*
X-168783Y83696D01*
X-168787D01*
X-168790D01*
X-168792D01*
X-168793D01*
X-168814Y83694D01*
X-168834Y83690D01*
X-168853Y83684D01*
X-168870Y83677D01*
X-168885Y83669D01*
X-168896Y83663D01*
X-168900Y83661D01*
X-168903Y83659D01*
X-168905Y83657D01*
X-168906D01*
X-168914Y83651D01*
X-168924Y83642D01*
X-168936Y83633D01*
X-168948Y83621D01*
X-168974Y83597D01*
X-169000Y83571D01*
X-169012Y83558D01*
X-169024Y83546D01*
X-169035Y83535D01*
X-169044Y83525D01*
X-169052Y83517D01*
X-169058Y83510D01*
X-169062Y83506D01*
X-169063Y83505D01*
X-169089Y83477D01*
X-169114Y83452D01*
X-169138Y83428D01*
X-169160Y83407D01*
X-169180Y83388D01*
X-169199Y83371D01*
X-169217Y83356D01*
X-169232Y83343D01*
X-169247Y83332D01*
X-169259Y83322D01*
X-169269Y83314D01*
X-169278Y83308D01*
X-169285Y83303D01*
X-169290Y83300D01*
X-169293Y83298D01*
X-169294Y83297D01*
X-169327Y83279D01*
X-169359Y83265D01*
X-169390Y83255D01*
X-169404Y83250D01*
X-169418Y83247D01*
X-169430Y83243D01*
X-169442Y83241D01*
X-169452Y83239D01*
X-169460Y83237D01*
X-169467Y83236D01*
X-169473D01*
X-169476Y83235D01*
X-169477D01*
Y83881D01*
X-169306D01*
Y83514D01*
X-169288Y83526D01*
X-169280Y83532D01*
X-169272Y83538D01*
X-169265Y83543D01*
X-169260Y83547D01*
X-169257Y83550D01*
X-169256Y83551D01*
X-169250Y83556D01*
X-169244Y83563D01*
X-169236Y83570D01*
X-169228Y83579D01*
X-169210Y83597D01*
X-169192Y83616D01*
X-169176Y83633D01*
X-169168Y83641D01*
X-169162Y83648D01*
X-169157Y83654D01*
X-169152Y83658D01*
X-169150Y83661D01*
X-169149Y83662D01*
X-169134Y83678D01*
X-169121Y83692D01*
X-169108Y83706D01*
X-169096Y83718D01*
X-169085Y83729D01*
X-169075Y83739D01*
X-169066Y83748D01*
X-169058Y83756D01*
X-169051Y83762D01*
X-169044Y83768D01*
X-169035Y83777D01*
X-169029Y83781D01*
X-169027Y83783D01*
X-169003Y83801D01*
X-168980Y83816D01*
X-168959Y83829D01*
X-168941Y83839D01*
X-168926Y83847D01*
X-168919Y83850D01*
X-168914Y83853D01*
X-168910Y83855D01*
X-168907Y83856D01*
X-168905Y83857D01*
X-168904D01*
X-168882Y83865D01*
X-168860Y83871D01*
X-168839Y83875D01*
X-168820Y83878D01*
X-168804Y83880D01*
X-168797D01*
X-168791Y83881D01*
X-168786D01*
X-168783D01*
X-168781D01*
X-168780D01*
X-168759Y83880D01*
D02*
G37*
G36*
X-168512Y82833D02*
X-168528Y82827D01*
X-168544Y82819D01*
X-168573Y82802D01*
X-168599Y82783D01*
X-168611Y82773D01*
X-168622Y82763D01*
X-168632Y82754D01*
X-168640Y82746D01*
X-168648Y82738D01*
X-168654Y82731D01*
X-168659Y82725D01*
X-168663Y82721D01*
X-168665Y82718D01*
X-168666Y82717D01*
X-168678Y82701D01*
X-168689Y82686D01*
X-168708Y82657D01*
X-168723Y82631D01*
X-168735Y82608D01*
X-168740Y82597D01*
X-168744Y82588D01*
X-168748Y82580D01*
X-168750Y82574D01*
X-168752Y82568D01*
X-168754Y82564D01*
X-168755Y82562D01*
Y82561D01*
X-168922D01*
X-168913Y82586D01*
X-168903Y82611D01*
X-168892Y82634D01*
X-168881Y82656D01*
X-168870Y82677D01*
X-168858Y82697D01*
X-168847Y82715D01*
X-168836Y82731D01*
X-168825Y82746D01*
X-168815Y82760D01*
X-168806Y82771D01*
X-168798Y82781D01*
X-168792Y82789D01*
X-168787Y82794D01*
X-168784Y82798D01*
X-168783Y82799D01*
X-169477D01*
Y82983D01*
X-168512D01*
Y82833D01*
D02*
G37*
G36*
X-169122Y82198D02*
X-169141Y82193D01*
X-169159Y82187D01*
X-169176Y82181D01*
X-169191Y82175D01*
X-169206Y82168D01*
X-169218Y82161D01*
X-169230Y82155D01*
X-169240Y82148D01*
X-169249Y82142D01*
X-169257Y82136D01*
X-169263Y82131D01*
X-169269Y82126D01*
X-169273Y82122D01*
X-169276Y82119D01*
X-169277Y82118D01*
X-169278Y82117D01*
X-169287Y82106D01*
X-169294Y82096D01*
X-169301Y82084D01*
X-169306Y82073D01*
X-169315Y82051D01*
X-169321Y82030D01*
X-169324Y82012D01*
X-169325Y82004D01*
X-169326Y81997D01*
X-169327Y81992D01*
Y81984D01*
X-169326Y81965D01*
X-169324Y81947D01*
X-169320Y81930D01*
X-169315Y81914D01*
X-169309Y81899D01*
X-169303Y81885D01*
X-169296Y81872D01*
X-169288Y81860D01*
X-169281Y81850D01*
X-169274Y81840D01*
X-169268Y81833D01*
X-169262Y81826D01*
X-169257Y81821D01*
X-169253Y81817D01*
X-169251Y81815D01*
X-169250Y81814D01*
X-169234Y81803D01*
X-169217Y81793D01*
X-169197Y81784D01*
X-169177Y81776D01*
X-169156Y81770D01*
X-169134Y81765D01*
X-169092Y81757D01*
X-169071Y81754D01*
X-169053Y81752D01*
X-169036Y81751D01*
X-169021Y81750D01*
X-169008Y81749D01*
X-168999D01*
X-168993D01*
X-168991D01*
X-168960Y81750D01*
X-168931Y81752D01*
X-168904Y81755D01*
X-168879Y81759D01*
X-168857Y81764D01*
X-168837Y81770D01*
X-168818Y81776D01*
X-168802Y81782D01*
X-168788Y81788D01*
X-168775Y81794D01*
X-168765Y81800D01*
X-168757Y81805D01*
X-168750Y81809D01*
X-168746Y81812D01*
X-168743Y81814D01*
X-168742Y81815D01*
X-168728Y81828D01*
X-168717Y81841D01*
X-168706Y81856D01*
X-168697Y81870D01*
X-168690Y81884D01*
X-168684Y81899D01*
X-168679Y81913D01*
X-168675Y81926D01*
X-168671Y81939D01*
X-168669Y81951D01*
X-168667Y81961D01*
X-168666Y81970D01*
X-168665Y81978D01*
Y82002D01*
X-168667Y82016D01*
X-168672Y82041D01*
X-168679Y82063D01*
X-168687Y82082D01*
X-168695Y82098D01*
X-168699Y82104D01*
X-168702Y82109D01*
X-168705Y82114D01*
X-168707Y82117D01*
X-168708Y82118D01*
X-168709Y82119D01*
X-168726Y82138D01*
X-168745Y82153D01*
X-168765Y82166D01*
X-168784Y82175D01*
X-168800Y82182D01*
X-168807Y82185D01*
X-168814Y82187D01*
X-168819Y82189D01*
X-168823Y82190D01*
X-168825Y82191D01*
X-168826D01*
X-168780Y82383D01*
X-168759Y82376D01*
X-168739Y82369D01*
X-168721Y82362D01*
X-168704Y82354D01*
X-168688Y82345D01*
X-168674Y82337D01*
X-168661Y82329D01*
X-168649Y82321D01*
X-168638Y82314D01*
X-168629Y82307D01*
X-168622Y82300D01*
X-168615Y82295D01*
X-168610Y82290D01*
X-168607Y82287D01*
X-168605Y82285D01*
X-168604Y82284D01*
X-168585Y82263D01*
X-168569Y82240D01*
X-168555Y82217D01*
X-168543Y82193D01*
X-168533Y82169D01*
X-168525Y82145D01*
X-168518Y82122D01*
X-168512Y82100D01*
X-168508Y82079D01*
X-168505Y82060D01*
X-168502Y82042D01*
X-168501Y82027D01*
X-168500Y82015D01*
X-168499Y82006D01*
Y81998D01*
X-168500Y81961D01*
X-168505Y81926D01*
X-168511Y81893D01*
X-168520Y81862D01*
X-168530Y81833D01*
X-168541Y81806D01*
X-168553Y81782D01*
X-168565Y81759D01*
X-168578Y81739D01*
X-168590Y81722D01*
X-168601Y81707D01*
X-168611Y81695D01*
X-168620Y81685D01*
X-168626Y81678D01*
X-168630Y81673D01*
X-168632Y81672D01*
X-168658Y81650D01*
X-168686Y81631D01*
X-168716Y81615D01*
X-168746Y81601D01*
X-168777Y81589D01*
X-168808Y81579D01*
X-168839Y81571D01*
X-168868Y81564D01*
X-168896Y81559D01*
X-168922Y81556D01*
X-168945Y81553D01*
X-168965Y81551D01*
X-168974Y81550D01*
X-168982D01*
X-168989D01*
X-168994Y81549D01*
X-168999D01*
X-169002D01*
X-169004D01*
X-169005D01*
X-169046Y81550D01*
X-169086Y81554D01*
X-169122Y81560D01*
X-169157Y81568D01*
X-169189Y81578D01*
X-169218Y81588D01*
X-169245Y81599D01*
X-169269Y81611D01*
X-169291Y81622D01*
X-169310Y81633D01*
X-169326Y81644D01*
X-169339Y81653D01*
X-169349Y81661D01*
X-169357Y81667D01*
X-169361Y81671D01*
X-169363Y81672D01*
X-169386Y81696D01*
X-169406Y81721D01*
X-169423Y81747D01*
X-169438Y81773D01*
X-169451Y81799D01*
X-169461Y81825D01*
X-169470Y81851D01*
X-169477Y81875D01*
X-169482Y81898D01*
X-169486Y81919D01*
X-169489Y81938D01*
X-169491Y81954D01*
X-169492Y81968D01*
X-169493Y81978D01*
Y81986D01*
X-169492Y82014D01*
X-169490Y82041D01*
X-169486Y82067D01*
X-169481Y82091D01*
X-169475Y82114D01*
X-169469Y82135D01*
X-169462Y82154D01*
X-169454Y82172D01*
X-169447Y82187D01*
X-169440Y82201D01*
X-169434Y82213D01*
X-169428Y82223D01*
X-169423Y82231D01*
X-169419Y82236D01*
X-169417Y82240D01*
X-169416Y82241D01*
X-169401Y82259D01*
X-169384Y82276D01*
X-169366Y82292D01*
X-169347Y82306D01*
X-169327Y82319D01*
X-169307Y82331D01*
X-169288Y82342D01*
X-169269Y82351D01*
X-169251Y82360D01*
X-169234Y82367D01*
X-169219Y82373D01*
X-169206Y82378D01*
X-169195Y82381D01*
X-169187Y82384D01*
X-169182Y82386D01*
X-169180D01*
X-169122Y82198D01*
D02*
G37*
G36*
X-69166Y83140D02*
X-69139Y83135D01*
X-69114Y83129D01*
X-69094Y83121D01*
X-69085Y83117D01*
X-69077Y83113D01*
X-69070Y83110D01*
X-69064Y83107D01*
X-69059Y83104D01*
X-69056Y83102D01*
X-69054Y83101D01*
X-69053Y83100D01*
X-69031Y83083D01*
X-69012Y83063D01*
X-68996Y83043D01*
X-68983Y83023D01*
X-68972Y83006D01*
X-68968Y82998D01*
X-68965Y82991D01*
X-68962Y82986D01*
X-68960Y82982D01*
X-68959Y82979D01*
Y82978D01*
X-68947Y83000D01*
X-68935Y83020D01*
X-68921Y83037D01*
X-68908Y83051D01*
X-68897Y83062D01*
X-68888Y83070D01*
X-68881Y83074D01*
X-68880Y83076D01*
X-68879D01*
X-68859Y83088D01*
X-68838Y83096D01*
X-68818Y83102D01*
X-68800Y83107D01*
X-68784Y83109D01*
X-68777Y83110D01*
X-68771D01*
X-68766Y83111D01*
X-68763D01*
X-68761D01*
X-68760D01*
X-68740Y83110D01*
X-68722Y83108D01*
X-68704Y83104D01*
X-68687Y83099D01*
X-68672Y83093D01*
X-68657Y83087D01*
X-68644Y83080D01*
X-68631Y83073D01*
X-68620Y83066D01*
X-68611Y83059D01*
X-68602Y83053D01*
X-68596Y83047D01*
X-68590Y83042D01*
X-68586Y83038D01*
X-68584Y83036D01*
X-68583Y83035D01*
X-68570Y83020D01*
X-68560Y83004D01*
X-68550Y82987D01*
X-68542Y82970D01*
X-68535Y82952D01*
X-68529Y82934D01*
X-68525Y82917D01*
X-68521Y82900D01*
X-68518Y82884D01*
X-68516Y82869D01*
X-68514Y82856D01*
X-68513Y82845D01*
X-68512Y82835D01*
Y82822D01*
X-68513Y82797D01*
X-68515Y82773D01*
X-68519Y82751D01*
X-68523Y82730D01*
X-68528Y82711D01*
X-68534Y82693D01*
X-68541Y82677D01*
X-68547Y82663D01*
X-68554Y82650D01*
X-68561Y82639D01*
X-68567Y82630D01*
X-68572Y82622D01*
X-68576Y82616D01*
X-68580Y82612D01*
X-68582Y82609D01*
X-68583Y82608D01*
X-68596Y82595D01*
X-68611Y82583D01*
X-68625Y82573D01*
X-68640Y82565D01*
X-68655Y82557D01*
X-68670Y82551D01*
X-68684Y82546D01*
X-68698Y82542D01*
X-68711Y82539D01*
X-68722Y82537D01*
X-68733Y82535D01*
X-68742Y82534D01*
X-68750D01*
X-68755Y82533D01*
X-68759D01*
X-68760D01*
X-68783Y82534D01*
X-68805Y82538D01*
X-68824Y82543D01*
X-68842Y82549D01*
X-68856Y82555D01*
X-68867Y82560D01*
X-68871Y82562D01*
X-68874Y82564D01*
X-68875Y82565D01*
X-68876D01*
X-68894Y82579D01*
X-68911Y82595D01*
X-68925Y82612D01*
X-68937Y82629D01*
X-68946Y82645D01*
X-68950Y82652D01*
X-68953Y82657D01*
X-68956Y82662D01*
X-68958Y82666D01*
X-68959Y82668D01*
Y82669D01*
X-68966Y82654D01*
X-68973Y82640D01*
X-68981Y82627D01*
X-68990Y82615D01*
X-68998Y82604D01*
X-69006Y82594D01*
X-69023Y82577D01*
X-69037Y82564D01*
X-69049Y82554D01*
X-69054Y82551D01*
X-69057Y82549D01*
X-69059Y82547D01*
X-69060D01*
X-69085Y82534D01*
X-69110Y82525D01*
X-69134Y82518D01*
X-69156Y82514D01*
X-69166Y82512D01*
X-69175Y82511D01*
X-69183Y82510D01*
X-69190D01*
X-69195Y82509D01*
X-69199D01*
X-69202D01*
X-69203D01*
X-69229Y82510D01*
X-69253Y82513D01*
X-69276Y82519D01*
X-69298Y82525D01*
X-69318Y82533D01*
X-69336Y82542D01*
X-69353Y82551D01*
X-69368Y82561D01*
X-69381Y82570D01*
X-69393Y82579D01*
X-69403Y82588D01*
X-69411Y82596D01*
X-69418Y82603D01*
X-69422Y82608D01*
X-69425Y82611D01*
X-69426Y82612D01*
X-69438Y82629D01*
X-69449Y82646D01*
X-69458Y82664D01*
X-69466Y82683D01*
X-69473Y82701D01*
X-69478Y82719D01*
X-69483Y82737D01*
X-69486Y82754D01*
X-69489Y82769D01*
X-69491Y82784D01*
X-69493Y82797D01*
X-69494Y82808D01*
X-69495Y82817D01*
Y82830D01*
X-69494Y82856D01*
X-69491Y82880D01*
X-69487Y82903D01*
X-69482Y82925D01*
X-69476Y82945D01*
X-69469Y82964D01*
X-69461Y82981D01*
X-69453Y82996D01*
X-69446Y83010D01*
X-69438Y83022D01*
X-69431Y83032D01*
X-69425Y83041D01*
X-69420Y83047D01*
X-69416Y83052D01*
X-69413Y83055D01*
X-69412Y83056D01*
X-69396Y83071D01*
X-69379Y83084D01*
X-69361Y83096D01*
X-69343Y83106D01*
X-69325Y83114D01*
X-69307Y83121D01*
X-69289Y83127D01*
X-69272Y83131D01*
X-69256Y83135D01*
X-69242Y83137D01*
X-69229Y83139D01*
X-69217Y83141D01*
X-69208D01*
X-69201Y83142D01*
X-69196D01*
X-69195D01*
X-69166Y83140D01*
D02*
G37*
G36*
X-69122Y82198D02*
X-69141Y82193D01*
X-69159Y82187D01*
X-69176Y82181D01*
X-69191Y82175D01*
X-69206Y82168D01*
X-69218Y82161D01*
X-69230Y82155D01*
X-69240Y82148D01*
X-69249Y82142D01*
X-69257Y82136D01*
X-69263Y82131D01*
X-69269Y82126D01*
X-69273Y82122D01*
X-69276Y82119D01*
X-69277Y82118D01*
X-69278Y82117D01*
X-69287Y82106D01*
X-69294Y82096D01*
X-69301Y82084D01*
X-69306Y82073D01*
X-69315Y82051D01*
X-69321Y82030D01*
X-69324Y82012D01*
X-69325Y82004D01*
X-69326Y81997D01*
X-69327Y81992D01*
Y81984D01*
X-69326Y81965D01*
X-69324Y81947D01*
X-69320Y81930D01*
X-69315Y81914D01*
X-69309Y81899D01*
X-69303Y81885D01*
X-69296Y81872D01*
X-69288Y81860D01*
X-69281Y81850D01*
X-69274Y81840D01*
X-69268Y81833D01*
X-69262Y81826D01*
X-69257Y81821D01*
X-69253Y81817D01*
X-69251Y81815D01*
X-69250Y81814D01*
X-69234Y81803D01*
X-69217Y81793D01*
X-69197Y81784D01*
X-69177Y81776D01*
X-69156Y81770D01*
X-69134Y81765D01*
X-69092Y81757D01*
X-69071Y81754D01*
X-69053Y81752D01*
X-69036Y81751D01*
X-69021Y81750D01*
X-69008Y81749D01*
X-68999D01*
X-68993D01*
X-68991D01*
X-68960Y81750D01*
X-68931Y81752D01*
X-68904Y81755D01*
X-68879Y81759D01*
X-68857Y81764D01*
X-68837Y81770D01*
X-68818Y81776D01*
X-68802Y81782D01*
X-68788Y81788D01*
X-68775Y81794D01*
X-68765Y81800D01*
X-68757Y81805D01*
X-68750Y81809D01*
X-68746Y81812D01*
X-68743Y81814D01*
X-68742Y81815D01*
X-68728Y81828D01*
X-68717Y81841D01*
X-68706Y81856D01*
X-68697Y81870D01*
X-68690Y81884D01*
X-68684Y81899D01*
X-68679Y81913D01*
X-68675Y81926D01*
X-68671Y81939D01*
X-68669Y81951D01*
X-68667Y81961D01*
X-68666Y81970D01*
X-68665Y81978D01*
Y82002D01*
X-68667Y82016D01*
X-68672Y82041D01*
X-68679Y82063D01*
X-68687Y82082D01*
X-68695Y82098D01*
X-68699Y82104D01*
X-68702Y82109D01*
X-68705Y82114D01*
X-68707Y82117D01*
X-68708Y82118D01*
X-68709Y82119D01*
X-68726Y82138D01*
X-68745Y82153D01*
X-68765Y82166D01*
X-68784Y82175D01*
X-68800Y82182D01*
X-68807Y82185D01*
X-68814Y82187D01*
X-68819Y82189D01*
X-68823Y82190D01*
X-68825Y82191D01*
X-68826D01*
X-68780Y82383D01*
X-68759Y82376D01*
X-68739Y82369D01*
X-68721Y82362D01*
X-68704Y82354D01*
X-68688Y82345D01*
X-68674Y82337D01*
X-68661Y82329D01*
X-68649Y82321D01*
X-68638Y82314D01*
X-68629Y82307D01*
X-68622Y82300D01*
X-68615Y82295D01*
X-68610Y82290D01*
X-68607Y82287D01*
X-68605Y82285D01*
X-68604Y82284D01*
X-68585Y82263D01*
X-68569Y82240D01*
X-68555Y82217D01*
X-68543Y82193D01*
X-68533Y82169D01*
X-68525Y82145D01*
X-68518Y82122D01*
X-68512Y82100D01*
X-68508Y82079D01*
X-68505Y82060D01*
X-68502Y82042D01*
X-68501Y82027D01*
X-68500Y82015D01*
X-68499Y82006D01*
Y81998D01*
X-68500Y81961D01*
X-68505Y81926D01*
X-68511Y81893D01*
X-68520Y81862D01*
X-68530Y81833D01*
X-68541Y81806D01*
X-68553Y81782D01*
X-68565Y81759D01*
X-68578Y81739D01*
X-68590Y81722D01*
X-68601Y81707D01*
X-68611Y81695D01*
X-68620Y81685D01*
X-68626Y81678D01*
X-68630Y81673D01*
X-68632Y81672D01*
X-68658Y81650D01*
X-68686Y81631D01*
X-68716Y81615D01*
X-68746Y81601D01*
X-68777Y81589D01*
X-68808Y81579D01*
X-68839Y81571D01*
X-68868Y81564D01*
X-68896Y81559D01*
X-68922Y81556D01*
X-68945Y81553D01*
X-68965Y81551D01*
X-68974Y81550D01*
X-68982D01*
X-68989D01*
X-68994Y81549D01*
X-68999D01*
X-69002D01*
X-69004D01*
X-69005D01*
X-69046Y81550D01*
X-69086Y81554D01*
X-69122Y81560D01*
X-69157Y81568D01*
X-69189Y81578D01*
X-69218Y81588D01*
X-69245Y81599D01*
X-69269Y81611D01*
X-69291Y81622D01*
X-69310Y81633D01*
X-69326Y81644D01*
X-69339Y81653D01*
X-69349Y81661D01*
X-69357Y81667D01*
X-69361Y81671D01*
X-69363Y81672D01*
X-69386Y81696D01*
X-69406Y81721D01*
X-69423Y81747D01*
X-69438Y81773D01*
X-69451Y81799D01*
X-69461Y81825D01*
X-69470Y81851D01*
X-69477Y81875D01*
X-69482Y81898D01*
X-69486Y81919D01*
X-69489Y81938D01*
X-69491Y81954D01*
X-69492Y81968D01*
X-69493Y81978D01*
Y81986D01*
X-69492Y82014D01*
X-69490Y82041D01*
X-69486Y82067D01*
X-69481Y82091D01*
X-69475Y82114D01*
X-69469Y82135D01*
X-69462Y82154D01*
X-69454Y82172D01*
X-69447Y82187D01*
X-69440Y82201D01*
X-69434Y82213D01*
X-69428Y82223D01*
X-69423Y82231D01*
X-69419Y82236D01*
X-69417Y82240D01*
X-69416Y82241D01*
X-69401Y82259D01*
X-69384Y82276D01*
X-69366Y82292D01*
X-69347Y82306D01*
X-69327Y82319D01*
X-69307Y82331D01*
X-69288Y82342D01*
X-69269Y82351D01*
X-69251Y82360D01*
X-69234Y82367D01*
X-69219Y82373D01*
X-69206Y82378D01*
X-69195Y82381D01*
X-69187Y82384D01*
X-69182Y82386D01*
X-69180D01*
X-69122Y82198D01*
D02*
G37*
G36*
X-64396Y73673D02*
X-64356Y73669D01*
X-64320Y73663D01*
X-64285Y73655D01*
X-64253Y73645D01*
X-64224Y73635D01*
X-64197Y73624D01*
X-64173Y73612D01*
X-64151Y73601D01*
X-64132Y73590D01*
X-64116Y73579D01*
X-64103Y73570D01*
X-64093Y73562D01*
X-64085Y73556D01*
X-64081Y73552D01*
X-64079Y73551D01*
X-64056Y73527D01*
X-64036Y73502D01*
X-64019Y73476D01*
X-64004Y73450D01*
X-63991Y73424D01*
X-63981Y73398D01*
X-63972Y73372D01*
X-63965Y73348D01*
X-63960Y73325D01*
X-63956Y73304D01*
X-63953Y73285D01*
X-63951Y73269D01*
X-63950Y73255D01*
X-63949Y73245D01*
Y73237D01*
X-63950Y73209D01*
X-63952Y73182D01*
X-63956Y73156D01*
X-63961Y73132D01*
X-63967Y73109D01*
X-63973Y73088D01*
X-63980Y73069D01*
X-63988Y73051D01*
X-63995Y73036D01*
X-64002Y73022D01*
X-64008Y73010D01*
X-64014Y73000D01*
X-64019Y72992D01*
X-64023Y72987D01*
X-64025Y72983D01*
X-64026Y72982D01*
X-64041Y72964D01*
X-64058Y72947D01*
X-64076Y72931D01*
X-64095Y72917D01*
X-64115Y72904D01*
X-64135Y72892D01*
X-64154Y72881D01*
X-64173Y72872D01*
X-64191Y72863D01*
X-64208Y72856D01*
X-64223Y72850D01*
X-64236Y72845D01*
X-64247Y72842D01*
X-64255Y72839D01*
X-64260Y72837D01*
X-64262D01*
X-64320Y73025D01*
X-64301Y73030D01*
X-64283Y73036D01*
X-64266Y73042D01*
X-64251Y73048D01*
X-64236Y73055D01*
X-64224Y73062D01*
X-64212Y73068D01*
X-64202Y73075D01*
X-64193Y73081D01*
X-64185Y73087D01*
X-64179Y73092D01*
X-64173Y73097D01*
X-64169Y73101D01*
X-64166Y73104D01*
X-64165Y73105D01*
X-64164Y73106D01*
X-64155Y73117D01*
X-64148Y73127D01*
X-64141Y73139D01*
X-64136Y73150D01*
X-64127Y73172D01*
X-64121Y73193D01*
X-64118Y73211D01*
X-64117Y73219D01*
X-64116Y73226D01*
X-64115Y73231D01*
Y73239D01*
X-64116Y73258D01*
X-64118Y73276D01*
X-64122Y73293D01*
X-64127Y73309D01*
X-64133Y73324D01*
X-64139Y73338D01*
X-64146Y73351D01*
X-64154Y73363D01*
X-64161Y73373D01*
X-64168Y73383D01*
X-64174Y73390D01*
X-64180Y73397D01*
X-64185Y73402D01*
X-64189Y73406D01*
X-64191Y73408D01*
X-64192Y73409D01*
X-64208Y73420D01*
X-64225Y73430D01*
X-64245Y73439D01*
X-64265Y73447D01*
X-64286Y73453D01*
X-64308Y73458D01*
X-64350Y73466D01*
X-64371Y73469D01*
X-64389Y73471D01*
X-64406Y73472D01*
X-64421Y73473D01*
X-64434Y73474D01*
X-64443D01*
X-64449D01*
X-64451D01*
X-64482Y73473D01*
X-64511Y73471D01*
X-64538Y73468D01*
X-64563Y73464D01*
X-64585Y73459D01*
X-64605Y73453D01*
X-64624Y73447D01*
X-64640Y73441D01*
X-64654Y73435D01*
X-64667Y73429D01*
X-64677Y73423D01*
X-64685Y73418D01*
X-64692Y73414D01*
X-64696Y73411D01*
X-64699Y73409D01*
X-64700Y73408D01*
X-64714Y73395D01*
X-64725Y73382D01*
X-64736Y73367D01*
X-64745Y73353D01*
X-64752Y73339D01*
X-64758Y73324D01*
X-64763Y73310D01*
X-64767Y73297D01*
X-64771Y73284D01*
X-64773Y73272D01*
X-64775Y73262D01*
X-64776Y73253D01*
X-64777Y73245D01*
Y73221D01*
X-64775Y73207D01*
X-64770Y73182D01*
X-64763Y73160D01*
X-64755Y73141D01*
X-64747Y73125D01*
X-64743Y73119D01*
X-64740Y73114D01*
X-64737Y73109D01*
X-64735Y73106D01*
X-64734Y73105D01*
X-64733Y73104D01*
X-64716Y73085D01*
X-64697Y73070D01*
X-64677Y73057D01*
X-64658Y73048D01*
X-64642Y73041D01*
X-64635Y73038D01*
X-64628Y73036D01*
X-64623Y73034D01*
X-64619Y73033D01*
X-64617Y73032D01*
X-64616D01*
X-64662Y72840D01*
X-64683Y72847D01*
X-64703Y72854D01*
X-64721Y72861D01*
X-64738Y72869D01*
X-64754Y72878D01*
X-64768Y72886D01*
X-64781Y72894D01*
X-64793Y72902D01*
X-64804Y72909D01*
X-64813Y72916D01*
X-64820Y72923D01*
X-64827Y72928D01*
X-64832Y72933D01*
X-64835Y72936D01*
X-64837Y72938D01*
X-64838Y72939D01*
X-64857Y72960D01*
X-64873Y72983D01*
X-64887Y73006D01*
X-64899Y73030D01*
X-64909Y73054D01*
X-64917Y73078D01*
X-64924Y73101D01*
X-64930Y73123D01*
X-64934Y73144D01*
X-64937Y73163D01*
X-64940Y73181D01*
X-64941Y73196D01*
X-64942Y73208D01*
X-64943Y73217D01*
Y73225D01*
X-64942Y73262D01*
X-64937Y73297D01*
X-64931Y73330D01*
X-64922Y73361D01*
X-64912Y73390D01*
X-64901Y73417D01*
X-64889Y73441D01*
X-64877Y73464D01*
X-64864Y73484D01*
X-64852Y73501D01*
X-64841Y73516D01*
X-64831Y73528D01*
X-64822Y73538D01*
X-64816Y73545D01*
X-64812Y73550D01*
X-64810Y73551D01*
X-64784Y73573D01*
X-64756Y73592D01*
X-64726Y73608D01*
X-64696Y73622D01*
X-64665Y73634D01*
X-64634Y73644D01*
X-64603Y73652D01*
X-64574Y73659D01*
X-64546Y73664D01*
X-64520Y73667D01*
X-64497Y73670D01*
X-64477Y73672D01*
X-64468Y73673D01*
X-64460D01*
X-64453D01*
X-64448Y73674D01*
X-64443D01*
X-64440D01*
X-64438D01*
X-64437D01*
X-64396Y73673D01*
D02*
G37*
G36*
X-64579Y72724D02*
X-64555Y72721D01*
X-64532Y72717D01*
X-64510Y72712D01*
X-64490Y72706D01*
X-64471Y72699D01*
X-64454Y72692D01*
X-64438Y72684D01*
X-64424Y72676D01*
X-64412Y72669D01*
X-64402Y72662D01*
X-64393Y72656D01*
X-64386Y72651D01*
X-64381Y72646D01*
X-64378Y72644D01*
X-64377Y72643D01*
X-64362Y72627D01*
X-64348Y72611D01*
X-64337Y72595D01*
X-64327Y72578D01*
X-64318Y72561D01*
X-64311Y72545D01*
X-64306Y72530D01*
X-64301Y72515D01*
X-64297Y72501D01*
X-64295Y72488D01*
X-64293Y72477D01*
X-64291Y72467D01*
Y72459D01*
X-64290Y72453D01*
Y72448D01*
X-64291Y72429D01*
X-64293Y72411D01*
X-64297Y72393D01*
X-64303Y72377D01*
X-64309Y72362D01*
X-64315Y72348D01*
X-64323Y72334D01*
X-64330Y72322D01*
X-64337Y72312D01*
X-64345Y72302D01*
X-64351Y72294D01*
X-64358Y72287D01*
X-64363Y72282D01*
X-64367Y72278D01*
X-64369Y72276D01*
X-64370Y72275D01*
X-64340Y72277D01*
X-64313Y72280D01*
X-64289Y72284D01*
X-64266Y72288D01*
X-64246Y72292D01*
X-64229Y72296D01*
X-64213Y72300D01*
X-64199Y72305D01*
X-64187Y72309D01*
X-64178Y72313D01*
X-64169Y72316D01*
X-64163Y72320D01*
X-64158Y72322D01*
X-64155Y72324D01*
X-64153Y72326D01*
X-64152D01*
X-64143Y72333D01*
X-64135Y72341D01*
X-64128Y72349D01*
X-64122Y72357D01*
X-64113Y72373D01*
X-64107Y72389D01*
X-64103Y72402D01*
X-64101Y72412D01*
X-64100Y72416D01*
Y72422D01*
X-64101Y72438D01*
X-64104Y72452D01*
X-64108Y72464D01*
X-64113Y72474D01*
X-64118Y72483D01*
X-64122Y72489D01*
X-64125Y72493D01*
X-64126Y72494D01*
X-64137Y72503D01*
X-64150Y72511D01*
X-64163Y72516D01*
X-64176Y72521D01*
X-64188Y72524D01*
X-64198Y72526D01*
X-64202D01*
X-64205Y72527D01*
X-64206D01*
X-64207D01*
X-64187Y72705D01*
X-64165Y72701D01*
X-64145Y72696D01*
X-64126Y72690D01*
X-64108Y72683D01*
X-64092Y72676D01*
X-64077Y72669D01*
X-64064Y72661D01*
X-64052Y72654D01*
X-64041Y72647D01*
X-64032Y72640D01*
X-64025Y72634D01*
X-64018Y72628D01*
X-64013Y72623D01*
X-64010Y72620D01*
X-64008Y72618D01*
X-64007Y72617D01*
X-63996Y72603D01*
X-63987Y72589D01*
X-63979Y72574D01*
X-63972Y72559D01*
X-63967Y72544D01*
X-63962Y72529D01*
X-63955Y72500D01*
X-63952Y72486D01*
X-63950Y72474D01*
X-63949Y72463D01*
X-63948Y72454D01*
X-63947Y72446D01*
Y72435D01*
X-63948Y72406D01*
X-63952Y72379D01*
X-63958Y72354D01*
X-63965Y72330D01*
X-63974Y72307D01*
X-63984Y72286D01*
X-63994Y72267D01*
X-64005Y72250D01*
X-64016Y72234D01*
X-64026Y72221D01*
X-64036Y72209D01*
X-64045Y72200D01*
X-64052Y72192D01*
X-64058Y72186D01*
X-64062Y72183D01*
X-64063Y72182D01*
X-64087Y72165D01*
X-64113Y72150D01*
X-64142Y72137D01*
X-64172Y72125D01*
X-64203Y72116D01*
X-64235Y72108D01*
X-64267Y72101D01*
X-64297Y72096D01*
X-64327Y72092D01*
X-64354Y72089D01*
X-64379Y72087D01*
X-64401Y72085D01*
X-64410D01*
X-64419D01*
X-64426Y72084D01*
X-64432D01*
X-64437D01*
X-64441D01*
X-64443D01*
X-64444D01*
X-64491Y72085D01*
X-64534Y72088D01*
X-64575Y72093D01*
X-64611Y72099D01*
X-64645Y72106D01*
X-64676Y72114D01*
X-64703Y72122D01*
X-64727Y72131D01*
X-64748Y72140D01*
X-64767Y72148D01*
X-64782Y72156D01*
X-64794Y72163D01*
X-64804Y72169D01*
X-64811Y72174D01*
X-64815Y72177D01*
X-64816Y72178D01*
X-64836Y72196D01*
X-64854Y72215D01*
X-64869Y72235D01*
X-64882Y72255D01*
X-64893Y72275D01*
X-64902Y72295D01*
X-64910Y72315D01*
X-64916Y72333D01*
X-64920Y72351D01*
X-64924Y72367D01*
X-64927Y72381D01*
X-64928Y72394D01*
X-64929Y72404D01*
X-64930Y72412D01*
Y72418D01*
X-64929Y72443D01*
X-64926Y72466D01*
X-64922Y72488D01*
X-64916Y72509D01*
X-64909Y72529D01*
X-64902Y72547D01*
X-64893Y72564D01*
X-64885Y72579D01*
X-64877Y72592D01*
X-64869Y72604D01*
X-64861Y72615D01*
X-64854Y72623D01*
X-64848Y72630D01*
X-64844Y72635D01*
X-64841Y72638D01*
X-64840Y72639D01*
X-64823Y72654D01*
X-64804Y72667D01*
X-64785Y72679D01*
X-64766Y72689D01*
X-64746Y72697D01*
X-64727Y72704D01*
X-64707Y72710D01*
X-64689Y72714D01*
X-64672Y72718D01*
X-64656Y72720D01*
X-64642Y72722D01*
X-64629Y72724D01*
X-64619D01*
X-64611Y72725D01*
X-64607D01*
X-64605D01*
X-64579Y72724D01*
D02*
G37*
G36*
X-155057Y-21488D02*
X-155047D01*
X-155035Y-21489D01*
X-155021Y-21491D01*
X-155005Y-21494D01*
X-154988Y-21497D01*
X-154970Y-21501D01*
X-154951Y-21507D01*
X-154932Y-21513D01*
X-154913Y-21521D01*
X-154894Y-21530D01*
X-154875Y-21541D01*
X-154858Y-21554D01*
X-154841Y-21568D01*
X-154840Y-21569D01*
X-154837Y-21572D01*
X-154833Y-21576D01*
X-154828Y-21582D01*
X-154821Y-21590D01*
X-154814Y-21600D01*
X-154806Y-21611D01*
X-154798Y-21623D01*
X-154791Y-21637D01*
X-154783Y-21652D01*
X-154776Y-21669D01*
X-154769Y-21687D01*
X-154764Y-21705D01*
X-154760Y-21725D01*
X-154757Y-21746D01*
X-154756Y-21768D01*
Y-21769D01*
Y-21771D01*
Y-21774D01*
Y-21778D01*
X-154757Y-21784D01*
Y-21790D01*
X-154759Y-21806D01*
X-154762Y-21824D01*
X-154767Y-21844D01*
X-154773Y-21866D01*
X-154781Y-21888D01*
Y-21889D01*
X-154782Y-21891D01*
X-154784Y-21894D01*
X-154786Y-21898D01*
X-154789Y-21903D01*
X-154792Y-21910D01*
X-154801Y-21925D01*
X-154812Y-21943D01*
X-154827Y-21964D01*
X-154844Y-21987D01*
X-154864Y-22011D01*
X-154865Y-22012D01*
X-154867Y-22014D01*
X-154870Y-22018D01*
X-154875Y-22023D01*
X-154881Y-22029D01*
X-154889Y-22037D01*
X-154898Y-22046D01*
X-154909Y-22057D01*
X-154922Y-22069D01*
X-154936Y-22082D01*
X-154951Y-22097D01*
X-154969Y-22113D01*
X-154988Y-22130D01*
X-155008Y-22148D01*
X-155031Y-22167D01*
X-155055Y-22188D01*
X-155056Y-22189D01*
X-155060Y-22192D01*
X-155065Y-22197D01*
X-155073Y-22203D01*
X-155082Y-22211D01*
X-155092Y-22220D01*
X-155114Y-22239D01*
X-155139Y-22261D01*
X-155162Y-22282D01*
X-155173Y-22292D01*
X-155183Y-22301D01*
X-155191Y-22309D01*
X-155198Y-22316D01*
X-155199Y-22317D01*
X-155203Y-22322D01*
X-155209Y-22328D01*
X-155217Y-22337D01*
X-155225Y-22347D01*
X-155234Y-22358D01*
X-155243Y-22370D01*
X-155251Y-22382D01*
X-154755D01*
Y-22501D01*
X-155422D01*
Y-22500D01*
Y-22499D01*
Y-22493D01*
Y-22485D01*
X-155421Y-22474D01*
X-155419Y-22461D01*
X-155417Y-22446D01*
X-155413Y-22431D01*
X-155408Y-22415D01*
Y-22414D01*
X-155407Y-22412D01*
X-155405Y-22408D01*
X-155403Y-22403D01*
X-155400Y-22397D01*
X-155397Y-22390D01*
X-155388Y-22373D01*
X-155377Y-22353D01*
X-155363Y-22330D01*
X-155347Y-22306D01*
X-155327Y-22282D01*
X-155326Y-22281D01*
X-155324Y-22279D01*
X-155321Y-22275D01*
X-155316Y-22270D01*
X-155311Y-22264D01*
X-155303Y-22256D01*
X-155295Y-22248D01*
X-155285Y-22238D01*
X-155274Y-22227D01*
X-155262Y-22216D01*
X-155249Y-22203D01*
X-155235Y-22190D01*
X-155219Y-22175D01*
X-155202Y-22161D01*
X-155184Y-22145D01*
X-155165Y-22129D01*
X-155163Y-22127D01*
X-155158Y-22123D01*
X-155149Y-22116D01*
X-155138Y-22106D01*
X-155125Y-22095D01*
X-155110Y-22082D01*
X-155093Y-22067D01*
X-155075Y-22051D01*
X-155038Y-22017D01*
X-155001Y-21981D01*
X-154984Y-21964D01*
X-154968Y-21947D01*
X-154954Y-21930D01*
X-154942Y-21915D01*
X-154941Y-21914D01*
X-154939Y-21911D01*
X-154937Y-21907D01*
X-154933Y-21902D01*
X-154928Y-21894D01*
X-154923Y-21886D01*
X-154918Y-21877D01*
X-154912Y-21867D01*
X-154902Y-21844D01*
X-154892Y-21818D01*
X-154888Y-21805D01*
X-154886Y-21792D01*
X-154884Y-21778D01*
X-154883Y-21765D01*
Y-21764D01*
Y-21762D01*
Y-21758D01*
X-154884Y-21753D01*
X-154885Y-21746D01*
X-154886Y-21739D01*
X-154890Y-21722D01*
X-154896Y-21703D01*
X-154905Y-21682D01*
X-154911Y-21671D01*
X-154918Y-21661D01*
X-154927Y-21651D01*
X-154936Y-21641D01*
X-154937Y-21640D01*
X-154938Y-21639D01*
X-154941Y-21636D01*
X-154946Y-21633D01*
X-154951Y-21629D01*
X-154957Y-21625D01*
X-154965Y-21620D01*
X-154973Y-21615D01*
X-154993Y-21606D01*
X-155017Y-21598D01*
X-155044Y-21592D01*
X-155058Y-21591D01*
X-155074Y-21590D01*
X-155083D01*
X-155089Y-21591D01*
X-155096Y-21592D01*
X-155105Y-21593D01*
X-155115Y-21594D01*
X-155126Y-21597D01*
X-155149Y-21603D01*
X-155173Y-21613D01*
X-155185Y-21619D01*
X-155196Y-21626D01*
X-155207Y-21634D01*
X-155218Y-21644D01*
X-155219Y-21645D01*
X-155220Y-21646D01*
X-155223Y-21650D01*
X-155226Y-21654D01*
X-155230Y-21659D01*
X-155235Y-21666D01*
X-155240Y-21674D01*
X-155245Y-21683D01*
X-155250Y-21693D01*
X-155255Y-21704D01*
X-155259Y-21716D01*
X-155264Y-21729D01*
X-155267Y-21743D01*
X-155270Y-21759D01*
X-155271Y-21775D01*
X-155272Y-21792D01*
X-155399Y-21779D01*
Y-21777D01*
X-155398Y-21773D01*
X-155397Y-21765D01*
X-155396Y-21756D01*
X-155393Y-21744D01*
X-155390Y-21730D01*
X-155387Y-21715D01*
X-155382Y-21699D01*
X-155376Y-21681D01*
X-155369Y-21664D01*
X-155361Y-21646D01*
X-155352Y-21628D01*
X-155342Y-21610D01*
X-155330Y-21593D01*
X-155316Y-21577D01*
X-155301Y-21562D01*
X-155300Y-21561D01*
X-155297Y-21559D01*
X-155292Y-21555D01*
X-155285Y-21550D01*
X-155277Y-21545D01*
X-155266Y-21538D01*
X-155254Y-21531D01*
X-155240Y-21524D01*
X-155224Y-21517D01*
X-155207Y-21511D01*
X-155188Y-21504D01*
X-155168Y-21499D01*
X-155146Y-21494D01*
X-155122Y-21490D01*
X-155097Y-21488D01*
X-155071Y-21487D01*
X-155065D01*
X-155057Y-21488D01*
D02*
G37*
G36*
X-155986Y-21492D02*
X-155974D01*
X-155960Y-21493D01*
X-155931Y-21495D01*
X-155901Y-21497D01*
X-155873Y-21501D01*
X-155859Y-21503D01*
X-155847Y-21506D01*
X-155846D01*
X-155843Y-21507D01*
X-155839Y-21508D01*
X-155833Y-21510D01*
X-155825Y-21512D01*
X-155816Y-21515D01*
X-155807Y-21518D01*
X-155796Y-21522D01*
X-155773Y-21532D01*
X-155748Y-21545D01*
X-155723Y-21560D01*
X-155699Y-21578D01*
X-155698Y-21579D01*
X-155695Y-21581D01*
X-155691Y-21585D01*
X-155686Y-21590D01*
X-155679Y-21597D01*
X-155672Y-21605D01*
X-155663Y-21614D01*
X-155654Y-21625D01*
X-155645Y-21637D01*
X-155635Y-21650D01*
X-155625Y-21664D01*
X-155615Y-21680D01*
X-155606Y-21696D01*
X-155597Y-21713D01*
X-155580Y-21751D01*
Y-21752D01*
X-155578Y-21756D01*
X-155576Y-21762D01*
X-155574Y-21769D01*
X-155571Y-21779D01*
X-155567Y-21791D01*
X-155564Y-21805D01*
X-155560Y-21820D01*
X-155556Y-21837D01*
X-155553Y-21856D01*
X-155549Y-21875D01*
X-155546Y-21897D01*
X-155544Y-21919D01*
X-155542Y-21942D01*
X-155540Y-21991D01*
Y-21992D01*
Y-21996D01*
Y-22002D01*
Y-22010D01*
X-155541Y-22020D01*
Y-22032D01*
X-155542Y-22045D01*
X-155543Y-22060D01*
X-155545Y-22075D01*
X-155547Y-22091D01*
X-155551Y-22126D01*
X-155558Y-22161D01*
X-155567Y-22195D01*
Y-22196D01*
X-155568Y-22199D01*
X-155570Y-22204D01*
X-155572Y-22210D01*
X-155575Y-22217D01*
X-155578Y-22226D01*
X-155581Y-22236D01*
X-155586Y-22247D01*
X-155596Y-22270D01*
X-155607Y-22295D01*
X-155621Y-22319D01*
X-155636Y-22342D01*
Y-22343D01*
X-155638Y-22345D01*
X-155640Y-22348D01*
X-155643Y-22352D01*
X-155652Y-22362D01*
X-155663Y-22375D01*
X-155677Y-22390D01*
X-155692Y-22405D01*
X-155710Y-22420D01*
X-155728Y-22434D01*
X-155729D01*
X-155730Y-22435D01*
X-155733Y-22437D01*
X-155737Y-22439D01*
X-155742Y-22442D01*
X-155748Y-22445D01*
X-155762Y-22453D01*
X-155779Y-22461D01*
X-155800Y-22469D01*
X-155823Y-22477D01*
X-155849Y-22484D01*
X-155850D01*
X-155852Y-22485D01*
X-155856Y-22486D01*
X-155861Y-22487D01*
X-155868Y-22488D01*
X-155876Y-22489D01*
X-155885Y-22491D01*
X-155895Y-22492D01*
X-155907Y-22494D01*
X-155919Y-22496D01*
X-155946Y-22498D01*
X-155977Y-22500D01*
X-156010Y-22501D01*
X-156374D01*
Y-21491D01*
X-155998D01*
X-155986Y-21492D01*
D02*
G37*
G36*
X-156582Y-21610D02*
X-157177D01*
Y-21919D01*
X-156620D01*
Y-22038D01*
X-157177D01*
Y-22382D01*
X-156559D01*
Y-22501D01*
X-157311D01*
Y-21491D01*
X-156582D01*
Y-21610D01*
D02*
G37*
G36*
X-157970Y-22382D02*
X-157473D01*
Y-22501D01*
X-158104D01*
Y-21491D01*
X-157970D01*
Y-22382D01*
D02*
G37*
%LPC*%
G36*
X-56855Y66015D02*
X-56894D01*
X-56896D01*
X-56904D01*
X-56916D01*
X-56933Y66013D01*
X-56951Y66011D01*
X-56974Y66009D01*
X-57001Y66007D01*
X-57027Y66001D01*
X-57085Y65989D01*
X-57146Y65970D01*
X-57175Y65958D01*
X-57204Y65944D01*
X-57232Y65925D01*
X-57257Y65907D01*
X-57259Y65905D01*
X-57263Y65903D01*
X-57269Y65896D01*
X-57277Y65888D01*
X-57288Y65878D01*
X-57298Y65866D01*
X-57323Y65835D01*
X-57345Y65800D01*
X-57366Y65757D01*
X-57374Y65734D01*
X-57380Y65710D01*
X-57384Y65685D01*
X-57386Y65659D01*
Y65646D01*
X-57384Y65636D01*
X-57382Y65626D01*
X-57380Y65611D01*
X-57374Y65581D01*
X-57359Y65546D01*
X-57341Y65509D01*
X-57329Y65491D01*
X-57314Y65472D01*
X-57298Y65454D01*
X-57279Y65437D01*
X-57277D01*
X-57275Y65433D01*
X-57267Y65429D01*
X-57259Y65423D01*
X-57247Y65417D01*
X-57232Y65409D01*
X-57216Y65402D01*
X-57195Y65394D01*
X-57173Y65386D01*
X-57148Y65378D01*
X-57120Y65370D01*
X-57089Y65364D01*
X-57054Y65357D01*
X-57017Y65353D01*
X-56976Y65351D01*
X-56933Y65349D01*
X-56931D01*
X-56923D01*
X-56910D01*
X-56894Y65351D01*
X-56874D01*
X-56849Y65353D01*
X-56824Y65357D01*
X-56798Y65361D01*
X-56738Y65372D01*
X-56679Y65388D01*
X-56623Y65413D01*
X-56597Y65427D01*
X-56574Y65443D01*
X-56572Y65446D01*
X-56570Y65447D01*
X-56564Y65454D01*
X-56556Y65460D01*
X-56539Y65482D01*
X-56519Y65509D01*
X-56496Y65544D01*
X-56480Y65587D01*
X-56466Y65634D01*
X-56463Y65659D01*
X-56462Y65685D01*
Y65700D01*
X-56463Y65708D01*
X-56466Y65720D01*
X-56468Y65734D01*
X-56476Y65767D01*
X-56488Y65804D01*
X-56507Y65843D01*
X-56519Y65862D01*
X-56535Y65882D01*
X-56552Y65900D01*
X-56570Y65919D01*
X-56572Y65921D01*
X-56576Y65923D01*
X-56582Y65927D01*
X-56591Y65933D01*
X-56603Y65942D01*
X-56617Y65950D01*
X-56634Y65958D01*
X-56652Y65968D01*
X-56675Y65976D01*
X-56697Y65985D01*
X-56724Y65993D01*
X-56753Y66001D01*
X-56785Y66007D01*
X-56818Y66011D01*
X-56855Y66015D01*
D02*
G37*
G36*
X-57035Y64012D02*
X-57038D01*
X-57042D01*
X-57048D01*
X-57056D01*
X-57081Y64008D01*
X-57109Y64004D01*
X-57142Y63996D01*
X-57177Y63984D01*
X-57212Y63965D01*
X-57243Y63943D01*
X-57247Y63939D01*
X-57255Y63930D01*
X-57269Y63914D01*
X-57284Y63894D01*
X-57300Y63867D01*
X-57316Y63834D01*
X-57331Y63795D01*
X-57341Y63752D01*
Y63744D01*
X-57343Y63738D01*
Y63727D01*
X-57345Y63717D01*
Y63701D01*
X-57347Y63682D01*
Y63633D01*
X-57349Y63604D01*
Y63570D01*
X-57351Y63529D01*
Y62983D01*
X-56709D01*
Y63447D01*
X-56712Y63480D01*
Y63516D01*
X-56714Y63553D01*
X-56718Y63631D01*
X-56720Y63670D01*
X-56722Y63707D01*
X-56726Y63740D01*
X-56730Y63771D01*
X-56734Y63795D01*
X-56740Y63816D01*
Y63818D01*
X-56742Y63820D01*
X-56746Y63830D01*
X-56755Y63849D01*
X-56765Y63869D01*
X-56779Y63892D01*
X-56798Y63916D01*
X-56820Y63939D01*
X-56847Y63959D01*
X-56851Y63961D01*
X-56861Y63967D01*
X-56878Y63976D01*
X-56898Y63986D01*
X-56927Y63996D01*
X-56958Y64004D01*
X-56994Y64011D01*
X-57035Y64012D01*
D02*
G37*
G36*
X-75371Y21905D02*
X-75615D01*
Y21729D01*
X-75614Y21716D01*
Y21689D01*
X-75612Y21658D01*
X-75611Y21644D01*
X-75610Y21630D01*
X-75609Y21617D01*
X-75608Y21606D01*
X-75606Y21596D01*
X-75604Y21587D01*
X-75603Y21586D01*
X-75602Y21581D01*
X-75599Y21576D01*
X-75594Y21567D01*
X-75589Y21558D01*
X-75582Y21550D01*
X-75573Y21541D01*
X-75563Y21532D01*
X-75562Y21531D01*
X-75558Y21530D01*
X-75552Y21527D01*
X-75543Y21522D01*
X-75533Y21519D01*
X-75520Y21516D01*
X-75506Y21513D01*
X-75491Y21512D01*
X-75490D01*
X-75489D01*
X-75483D01*
X-75474Y21513D01*
X-75463Y21516D01*
X-75450Y21519D01*
X-75437Y21523D01*
X-75425Y21530D01*
X-75413Y21539D01*
X-75412Y21540D01*
X-75408Y21543D01*
X-75403Y21550D01*
X-75397Y21557D01*
X-75391Y21567D01*
X-75384Y21580D01*
X-75379Y21596D01*
X-75375Y21612D01*
Y21613D01*
X-75374Y21618D01*
Y21626D01*
X-75373Y21632D01*
Y21647D01*
X-75372Y21657D01*
Y21682D01*
X-75371Y21698D01*
Y21905D01*
D02*
G37*
G36*
X-63892Y37739D02*
X-63926D01*
X-63927D01*
X-63928D01*
X-63934D01*
X-63944D01*
X-63956Y37738D01*
X-63971D01*
X-63988Y37737D01*
X-64007Y37735D01*
X-64027Y37734D01*
X-64069Y37728D01*
X-64089Y37725D01*
X-64110Y37720D01*
X-64128Y37715D01*
X-64146Y37710D01*
X-64161Y37703D01*
X-64174Y37695D01*
X-64175D01*
X-64177Y37693D01*
X-64180Y37691D01*
X-64184Y37687D01*
X-64194Y37678D01*
X-64205Y37665D01*
X-64216Y37649D01*
X-64226Y37630D01*
X-64230Y37620D01*
X-64233Y37609D01*
X-64235Y37598D01*
X-64236Y37586D01*
Y37580D01*
X-64235Y37575D01*
X-64233Y37564D01*
X-64229Y37549D01*
X-64223Y37533D01*
X-64213Y37516D01*
X-64207Y37507D01*
X-64199Y37499D01*
X-64191Y37491D01*
X-64181Y37483D01*
X-64180D01*
X-64178Y37481D01*
X-64173Y37479D01*
X-64167Y37476D01*
X-64159Y37472D01*
X-64149Y37468D01*
X-64137Y37464D01*
X-64123Y37460D01*
X-64107Y37455D01*
X-64088Y37451D01*
X-64068Y37447D01*
X-64044Y37443D01*
X-64019Y37440D01*
X-63990Y37438D01*
X-63960Y37437D01*
X-63926Y37436D01*
X-63925D01*
X-63924D01*
X-63918D01*
X-63908D01*
X-63896Y37437D01*
X-63881D01*
X-63863Y37438D01*
X-63844Y37440D01*
X-63824Y37441D01*
X-63783Y37447D01*
X-63762Y37450D01*
X-63742Y37454D01*
X-63723Y37459D01*
X-63705Y37465D01*
X-63690Y37471D01*
X-63677Y37479D01*
X-63676Y37480D01*
X-63674Y37481D01*
X-63671Y37484D01*
X-63668Y37487D01*
X-63658Y37496D01*
X-63647Y37509D01*
X-63635Y37525D01*
X-63626Y37543D01*
X-63622Y37553D01*
X-63619Y37564D01*
X-63617Y37575D01*
X-63616Y37587D01*
Y37593D01*
X-63617Y37598D01*
X-63618Y37603D01*
X-63619Y37610D01*
X-63624Y37625D01*
X-63631Y37642D01*
X-63636Y37650D01*
X-63642Y37660D01*
X-63649Y37669D01*
X-63657Y37678D01*
X-63666Y37687D01*
X-63677Y37695D01*
X-63678Y37696D01*
X-63680Y37697D01*
X-63684Y37699D01*
X-63690Y37702D01*
X-63697Y37705D01*
X-63707Y37709D01*
X-63718Y37713D01*
X-63731Y37717D01*
X-63747Y37721D01*
X-63765Y37725D01*
X-63785Y37729D01*
X-63808Y37732D01*
X-63834Y37735D01*
X-63862Y37737D01*
X-63892Y37739D01*
D02*
G37*
G36*
X-64103Y36531D02*
X-64104D01*
X-64105D01*
X-64108D01*
X-64112Y36530D01*
X-64122Y36529D01*
X-64134Y36526D01*
X-64148Y36521D01*
X-64163Y36514D01*
X-64177Y36504D01*
X-64191Y36491D01*
X-64193Y36489D01*
X-64197Y36484D01*
X-64202Y36474D01*
X-64209Y36461D01*
X-64212Y36453D01*
X-64215Y36444D01*
X-64218Y36434D01*
X-64221Y36423D01*
X-64223Y36411D01*
X-64225Y36397D01*
X-64226Y36383D01*
Y36129D01*
X-63976D01*
Y36361D01*
X-63977Y36368D01*
X-63978Y36383D01*
X-63979Y36400D01*
X-63982Y36418D01*
X-63985Y36436D01*
X-63990Y36451D01*
X-63991Y36453D01*
X-63993Y36457D01*
X-63996Y36464D01*
X-64001Y36473D01*
X-64007Y36483D01*
X-64015Y36492D01*
X-64024Y36502D01*
X-64035Y36510D01*
X-64036Y36511D01*
X-64040Y36513D01*
X-64047Y36517D01*
X-64055Y36521D01*
X-64065Y36524D01*
X-64077Y36528D01*
X-64089Y36530D01*
X-64103Y36531D01*
D02*
G37*
G36*
X-159822Y82907D02*
X-160054D01*
Y82657D01*
X-159800D01*
X-159786Y82658D01*
X-159772Y82660D01*
X-159760Y82662D01*
X-159749Y82665D01*
X-159739Y82668D01*
X-159730Y82671D01*
X-159722Y82674D01*
X-159709Y82681D01*
X-159699Y82686D01*
X-159694Y82690D01*
X-159692Y82692D01*
X-159679Y82706D01*
X-159669Y82720D01*
X-159662Y82735D01*
X-159657Y82749D01*
X-159654Y82761D01*
X-159653Y82771D01*
X-159652Y82775D01*
Y82778D01*
Y82779D01*
Y82780D01*
X-159653Y82794D01*
X-159655Y82806D01*
X-159659Y82818D01*
X-159662Y82828D01*
X-159666Y82836D01*
X-159670Y82843D01*
X-159672Y82847D01*
X-159673Y82848D01*
X-159681Y82859D01*
X-159691Y82868D01*
X-159700Y82876D01*
X-159710Y82882D01*
X-159719Y82887D01*
X-159726Y82890D01*
X-159730Y82892D01*
X-159732Y82893D01*
X-159747Y82898D01*
X-159765Y82901D01*
X-159783Y82904D01*
X-159800Y82905D01*
X-159815Y82906D01*
X-159822Y82907D01*
D02*
G37*
G36*
X-67360Y-20820D02*
X-67591D01*
X-67600Y-20821D01*
X-67609D01*
X-67620Y-20822D01*
X-67632D01*
X-67657Y-20824D01*
X-67683Y-20828D01*
X-67708Y-20832D01*
X-67731Y-20838D01*
X-67732D01*
X-67734Y-20839D01*
X-67737Y-20840D01*
X-67740Y-20842D01*
X-67751Y-20846D01*
X-67764Y-20852D01*
X-67778Y-20859D01*
X-67793Y-20868D01*
X-67808Y-20879D01*
X-67821Y-20891D01*
X-67822Y-20892D01*
X-67823Y-20893D01*
X-67826Y-20896D01*
X-67829Y-20900D01*
X-67833Y-20904D01*
X-67838Y-20910D01*
X-67848Y-20925D01*
X-67860Y-20943D01*
X-67873Y-20964D01*
X-67884Y-20990D01*
X-67895Y-21018D01*
Y-21019D01*
X-67896Y-21022D01*
X-67898Y-21026D01*
X-67899Y-21032D01*
X-67901Y-21040D01*
X-67904Y-21050D01*
X-67906Y-21061D01*
X-67909Y-21073D01*
X-67911Y-21086D01*
X-67913Y-21101D01*
X-67916Y-21117D01*
X-67918Y-21134D01*
X-67920Y-21153D01*
X-67921Y-21172D01*
X-67922Y-21213D01*
Y-21215D01*
Y-21220D01*
Y-21228D01*
X-67921Y-21239D01*
X-67920Y-21253D01*
X-67919Y-21268D01*
X-67918Y-21285D01*
X-67916Y-21303D01*
X-67909Y-21342D01*
X-67900Y-21383D01*
X-67894Y-21403D01*
X-67887Y-21422D01*
X-67879Y-21440D01*
X-67870Y-21457D01*
X-67869Y-21458D01*
X-67868Y-21461D01*
X-67865Y-21465D01*
X-67861Y-21471D01*
X-67856Y-21478D01*
X-67850Y-21485D01*
X-67835Y-21503D01*
X-67816Y-21522D01*
X-67795Y-21541D01*
X-67771Y-21558D01*
X-67758Y-21565D01*
X-67744Y-21571D01*
X-67743D01*
X-67741Y-21572D01*
X-67738Y-21573D01*
X-67734Y-21574D01*
X-67728Y-21576D01*
X-67721Y-21578D01*
X-67712Y-21580D01*
X-67702Y-21582D01*
X-67691Y-21583D01*
X-67678Y-21585D01*
X-67664Y-21587D01*
X-67648Y-21589D01*
X-67631Y-21590D01*
X-67613Y-21591D01*
X-67593Y-21592D01*
X-67360D01*
Y-20820D01*
D02*
G37*
G36*
X-87748Y79508D02*
X-87987Y79166D01*
X-87748D01*
Y79508D01*
D02*
G37*
G36*
X-89429Y130231D02*
X-89431D01*
X-89441Y130230D01*
X-89450Y130229D01*
X-89468Y130223D01*
X-89484Y130216D01*
X-89498Y130207D01*
X-89509Y130198D01*
X-89518Y130190D01*
X-89523Y130185D01*
X-89524Y130184D01*
X-89525Y130183D01*
X-89539Y130163D01*
X-89549Y130141D01*
X-89556Y130118D01*
X-89561Y130096D01*
X-89564Y130076D01*
X-89565Y130067D01*
Y130060D01*
X-89566Y130054D01*
Y130049D01*
Y130046D01*
Y130045D01*
X-89564Y130016D01*
X-89560Y129992D01*
X-89555Y129971D01*
X-89548Y129954D01*
X-89541Y129940D01*
X-89536Y129931D01*
X-89532Y129925D01*
X-89530Y129923D01*
X-89515Y129909D01*
X-89500Y129899D01*
X-89485Y129891D01*
X-89471Y129886D01*
X-89459Y129883D01*
X-89449Y129882D01*
X-89445Y129881D01*
X-89430D01*
X-89420Y129883D01*
X-89402Y129888D01*
X-89387Y129895D01*
X-89373Y129903D01*
X-89363Y129911D01*
X-89355Y129918D01*
X-89350Y129923D01*
X-89348Y129924D01*
Y129925D01*
X-89341Y129934D01*
X-89336Y129943D01*
X-89327Y129964D01*
X-89320Y129987D01*
X-89316Y130009D01*
X-89313Y130029D01*
X-89312Y130038D01*
Y130046D01*
X-89311Y130052D01*
Y130057D01*
Y130060D01*
Y130061D01*
Y130077D01*
X-89312Y130093D01*
X-89314Y130107D01*
X-89316Y130120D01*
X-89319Y130132D01*
X-89322Y130142D01*
X-89325Y130152D01*
X-89328Y130161D01*
X-89332Y130168D01*
X-89335Y130175D01*
X-89338Y130180D01*
X-89340Y130184D01*
X-89343Y130188D01*
X-89344Y130190D01*
X-89346Y130192D01*
X-89359Y130205D01*
X-89374Y130215D01*
X-89388Y130221D01*
X-89401Y130226D01*
X-89413Y130229D01*
X-89422Y130230D01*
X-89429Y130231D01*
D02*
G37*
G36*
X-176092Y119012D02*
X-176734D01*
Y118548D01*
X-176731Y118516D01*
Y118479D01*
X-176729Y118442D01*
X-176725Y118364D01*
X-176723Y118325D01*
X-176721Y118288D01*
X-176717Y118255D01*
X-176713Y118224D01*
X-176709Y118200D01*
X-176703Y118179D01*
Y118177D01*
X-176701Y118175D01*
X-176697Y118165D01*
X-176688Y118147D01*
X-176678Y118126D01*
X-176664Y118103D01*
X-176645Y118079D01*
X-176623Y118056D01*
X-176596Y118036D01*
X-176592Y118034D01*
X-176582Y118028D01*
X-176565Y118019D01*
X-176545Y118009D01*
X-176516Y117999D01*
X-176485Y117991D01*
X-176449Y117984D01*
X-176408Y117982D01*
X-176406D01*
X-176401D01*
X-176395D01*
X-176387D01*
X-176362Y117987D01*
X-176334Y117991D01*
X-176301Y117999D01*
X-176266Y118011D01*
X-176231Y118030D01*
X-176200Y118052D01*
X-176196Y118056D01*
X-176188Y118064D01*
X-176174Y118081D01*
X-176160Y118101D01*
X-176143Y118128D01*
X-176127Y118161D01*
X-176112Y118200D01*
X-176102Y118243D01*
Y118251D01*
X-176100Y118257D01*
Y118268D01*
X-176098Y118278D01*
Y118294D01*
X-176096Y118313D01*
Y118362D01*
X-176094Y118391D01*
Y118425D01*
X-176092Y118466D01*
Y119012D01*
D02*
G37*
G36*
X-177338Y116543D02*
X-177340D01*
X-177348D01*
X-177361D01*
X-177377Y116541D01*
X-177398Y116539D01*
X-177420Y116537D01*
X-177445Y116535D01*
X-177471Y116529D01*
X-177531Y116517D01*
X-177593Y116498D01*
X-177621Y116486D01*
X-177650Y116472D01*
X-177679Y116455D01*
X-177703Y116437D01*
X-177705Y116435D01*
X-177709Y116433D01*
X-177716Y116427D01*
X-177724Y116418D01*
X-177732Y116408D01*
X-177744Y116396D01*
X-177767Y116365D01*
X-177789Y116328D01*
X-177810Y116285D01*
X-177818Y116263D01*
X-177824Y116238D01*
X-177828Y116213D01*
X-177830Y116187D01*
Y116174D01*
X-177828Y116164D01*
X-177826Y116154D01*
X-177824Y116140D01*
X-177818Y116109D01*
X-177806Y116074D01*
X-177785Y116037D01*
X-177775Y116017D01*
X-177761Y115998D01*
X-177744Y115980D01*
X-177726Y115963D01*
X-177724Y115961D01*
X-177722Y115959D01*
X-177713Y115955D01*
X-177705Y115949D01*
X-177695Y115943D01*
X-177681Y115935D01*
X-177662Y115926D01*
X-177644Y115918D01*
X-177621Y115910D01*
X-177597Y115902D01*
X-177568Y115894D01*
X-177537Y115887D01*
X-177502Y115881D01*
X-177465Y115877D01*
X-177424Y115873D01*
X-177381D01*
X-177379D01*
X-177371D01*
X-177359D01*
X-177340Y115875D01*
X-177320D01*
X-177297Y115877D01*
X-177271Y115881D01*
X-177244Y115885D01*
X-177184Y115898D01*
X-177125Y115914D01*
X-177070Y115939D01*
X-177043Y115955D01*
X-177021Y115972D01*
X-177018Y115973D01*
X-177016Y115975D01*
X-177010Y115982D01*
X-177002Y115988D01*
X-176984Y116010D01*
X-176963Y116037D01*
X-176943Y116072D01*
X-176924Y116113D01*
X-176910Y116160D01*
X-176908Y116185D01*
X-176906Y116211D01*
Y116226D01*
X-176908Y116234D01*
X-176910Y116246D01*
X-176912Y116261D01*
X-176920Y116293D01*
X-176932Y116330D01*
X-176953Y116369D01*
X-176965Y116390D01*
X-176979Y116410D01*
X-176996Y116429D01*
X-177016Y116447D01*
X-177018D01*
X-177021Y116451D01*
X-177029Y116455D01*
X-177037Y116461D01*
X-177047Y116470D01*
X-177061Y116478D01*
X-177078Y116486D01*
X-177096Y116494D01*
X-177119Y116504D01*
X-177144Y116513D01*
X-177168Y116521D01*
X-177199Y116529D01*
X-177230Y116535D01*
X-177262Y116539D01*
X-177299Y116541D01*
X-177338Y116543D01*
D02*
G37*
G36*
X-173571Y64012D02*
X-173573D01*
X-173577D01*
X-173583D01*
X-173591D01*
X-173616Y64008D01*
X-173644Y64004D01*
X-173677Y63996D01*
X-173712Y63984D01*
X-173747Y63965D01*
X-173777Y63943D01*
X-173782Y63939D01*
X-173790Y63930D01*
X-173804Y63914D01*
X-173819Y63894D01*
X-173835Y63867D01*
X-173851Y63834D01*
X-173866Y63795D01*
X-173876Y63752D01*
Y63744D01*
X-173878Y63738D01*
Y63727D01*
X-173880Y63717D01*
Y63701D01*
X-173882Y63682D01*
Y63633D01*
X-173884Y63604D01*
Y63570D01*
X-173886Y63529D01*
Y62983D01*
X-173245D01*
Y63447D01*
X-173247Y63480D01*
Y63516D01*
X-173249Y63553D01*
X-173253Y63631D01*
X-173255Y63670D01*
X-173257Y63707D01*
X-173261Y63740D01*
X-173265Y63771D01*
X-173269Y63795D01*
X-173275Y63816D01*
Y63818D01*
X-173277Y63820D01*
X-173281Y63830D01*
X-173290Y63849D01*
X-173300Y63869D01*
X-173314Y63892D01*
X-173333Y63916D01*
X-173355Y63939D01*
X-173382Y63959D01*
X-173386Y63961D01*
X-173396Y63967D01*
X-173413Y63976D01*
X-173433Y63986D01*
X-173462Y63996D01*
X-173493Y64004D01*
X-173529Y64011D01*
X-173571Y64012D01*
D02*
G37*
G36*
X-59557Y119012D02*
X-60198D01*
Y118548D01*
X-60197Y118516D01*
Y118479D01*
X-60194Y118442D01*
X-60190Y118364D01*
X-60188Y118325D01*
X-60186Y118288D01*
X-60182Y118255D01*
X-60178Y118224D01*
X-60174Y118200D01*
X-60168Y118179D01*
Y118177D01*
X-60166Y118175D01*
X-60162Y118165D01*
X-60153Y118147D01*
X-60143Y118126D01*
X-60129Y118103D01*
X-60110Y118079D01*
X-60088Y118056D01*
X-60061Y118036D01*
X-60057Y118034D01*
X-60047Y118028D01*
X-60030Y118019D01*
X-60010Y118009D01*
X-59981Y117999D01*
X-59951Y117991D01*
X-59913Y117984D01*
X-59873Y117982D01*
X-59870D01*
X-59866D01*
X-59860D01*
X-59852D01*
X-59827Y117987D01*
X-59799Y117991D01*
X-59766Y117999D01*
X-59731Y118011D01*
X-59696Y118030D01*
X-59666Y118052D01*
X-59661Y118056D01*
X-59653Y118064D01*
X-59639Y118081D01*
X-59624Y118101D01*
X-59608Y118128D01*
X-59592Y118161D01*
X-59577Y118200D01*
X-59567Y118243D01*
Y118251D01*
X-59565Y118257D01*
Y118268D01*
X-59563Y118278D01*
Y118294D01*
X-59561Y118313D01*
Y118362D01*
X-59559Y118391D01*
Y118425D01*
X-59557Y118466D01*
Y119012D01*
D02*
G37*
G36*
X-59807Y116572D02*
X-59809D01*
X-59813D01*
X-59821D01*
X-59832Y116570D01*
X-59842D01*
X-59856Y116568D01*
X-59889Y116562D01*
X-59926Y116552D01*
X-59963Y116537D01*
X-60000Y116517D01*
X-60032Y116490D01*
X-60036Y116486D01*
X-60045Y116476D01*
X-60057Y116457D01*
X-60071Y116433D01*
X-60088Y116402D01*
X-60100Y116363D01*
X-60108Y116320D01*
X-60112Y116273D01*
Y116258D01*
X-60110Y116250D01*
Y116238D01*
X-60108Y116224D01*
X-60102Y116193D01*
X-60092Y116158D01*
X-60080Y116121D01*
X-60059Y116084D01*
X-60032Y116051D01*
X-60028Y116047D01*
X-60018Y116039D01*
X-60000Y116025D01*
X-59973Y116008D01*
X-59940Y115994D01*
X-59901Y115980D01*
X-59856Y115972D01*
X-59805Y115967D01*
X-59803D01*
X-59799D01*
X-59793D01*
X-59782Y115969D01*
X-59770D01*
X-59758Y115972D01*
X-59725Y115978D01*
X-59690Y115988D01*
X-59655Y116002D01*
X-59618Y116023D01*
X-59586Y116051D01*
X-59581Y116056D01*
X-59573Y116066D01*
X-59559Y116084D01*
X-59545Y116109D01*
X-59530Y116140D01*
X-59516Y116176D01*
X-59508Y116219D01*
X-59504Y116267D01*
Y116281D01*
X-59506Y116289D01*
Y116302D01*
X-59508Y116316D01*
X-59514Y116347D01*
X-59524Y116384D01*
X-59538Y116420D01*
X-59559Y116457D01*
X-59588Y116490D01*
X-59592Y116494D01*
X-59602Y116502D01*
X-59620Y116517D01*
X-59645Y116531D01*
X-59678Y116545D01*
X-59715Y116560D01*
X-59758Y116568D01*
X-59807Y116572D01*
D02*
G37*
G36*
X-60889Y116615D02*
X-60891D01*
X-60898D01*
X-60908D01*
X-60922Y116613D01*
X-60939Y116611D01*
X-60959Y116609D01*
X-60979Y116607D01*
X-61002Y116603D01*
X-61053Y116591D01*
X-61105Y116572D01*
X-61131Y116560D01*
X-61156Y116545D01*
X-61178Y116531D01*
X-61201Y116513D01*
X-61203Y116511D01*
X-61205Y116508D01*
X-61211Y116502D01*
X-61217Y116494D01*
X-61225Y116484D01*
X-61236Y116472D01*
X-61256Y116443D01*
X-61277Y116406D01*
X-61295Y116363D01*
X-61308Y116314D01*
X-61310Y116287D01*
X-61312Y116258D01*
Y116244D01*
X-61310Y116234D01*
X-61308Y116219D01*
X-61305Y116205D01*
X-61297Y116170D01*
X-61285Y116131D01*
X-61266Y116088D01*
X-61254Y116068D01*
X-61240Y116047D01*
X-61224Y116027D01*
X-61205Y116008D01*
X-61203Y116006D01*
X-61199Y116004D01*
X-61193Y116000D01*
X-61185Y115992D01*
X-61174Y115986D01*
X-61160Y115978D01*
X-61144Y115967D01*
X-61125Y115959D01*
X-61105Y115949D01*
X-61082Y115941D01*
X-61055Y115933D01*
X-61027Y115924D01*
X-60998Y115918D01*
X-60965Y115914D01*
X-60930Y115912D01*
X-60893Y115910D01*
X-60891D01*
X-60885D01*
X-60877D01*
X-60865Y115912D01*
X-60848D01*
X-60832Y115916D01*
X-60791Y115922D01*
X-60746Y115935D01*
X-60699Y115953D01*
X-60674Y115963D01*
X-60651Y115978D01*
X-60629Y115992D01*
X-60609Y116010D01*
X-60606Y116012D01*
X-60604Y116015D01*
X-60598Y116021D01*
X-60592Y116029D01*
X-60584Y116039D01*
X-60574Y116049D01*
X-60553Y116080D01*
X-60535Y116117D01*
X-60516Y116160D01*
X-60504Y116209D01*
X-60502Y116236D01*
X-60500Y116265D01*
Y116281D01*
X-60502Y116293D01*
X-60504Y116308D01*
X-60506Y116326D01*
X-60514Y116365D01*
X-60531Y116408D01*
X-60539Y116429D01*
X-60551Y116451D01*
X-60565Y116472D01*
X-60582Y116492D01*
X-60600Y116513D01*
X-60623Y116529D01*
X-60625D01*
X-60629Y116533D01*
X-60635Y116537D01*
X-60643Y116543D01*
X-60656Y116550D01*
X-60670Y116556D01*
X-60703Y116572D01*
X-60742Y116588D01*
X-60787Y116601D01*
X-60836Y116611D01*
X-60889Y116615D01*
D02*
G37*
G36*
X-73389Y82803D02*
X-73643D01*
X-73657Y82802D01*
X-73671Y82800D01*
X-73683Y82798D01*
X-73694Y82795D01*
X-73704Y82792D01*
X-73713Y82789D01*
X-73721Y82786D01*
X-73734Y82779D01*
X-73744Y82774D01*
X-73749Y82770D01*
X-73751Y82768D01*
X-73764Y82754D01*
X-73774Y82740D01*
X-73781Y82725D01*
X-73786Y82711D01*
X-73789Y82699D01*
X-73790Y82689D01*
X-73791Y82685D01*
Y82682D01*
Y82681D01*
Y82680D01*
X-73790Y82666D01*
X-73788Y82654D01*
X-73784Y82642D01*
X-73781Y82632D01*
X-73777Y82624D01*
X-73773Y82617D01*
X-73771Y82613D01*
X-73770Y82612D01*
X-73762Y82601D01*
X-73752Y82592D01*
X-73743Y82584D01*
X-73733Y82578D01*
X-73724Y82573D01*
X-73717Y82570D01*
X-73713Y82568D01*
X-73711Y82567D01*
X-73696Y82562D01*
X-73678Y82559D01*
X-73660Y82556D01*
X-73643Y82555D01*
X-73628Y82554D01*
X-73621Y82553D01*
X-73389D01*
Y82803D01*
D02*
G37*
G36*
Y72567D02*
X-73643D01*
X-73657Y72566D01*
X-73671Y72564D01*
X-73683Y72562D01*
X-73694Y72559D01*
X-73704Y72556D01*
X-73713Y72553D01*
X-73721Y72550D01*
X-73734Y72543D01*
X-73744Y72538D01*
X-73749Y72534D01*
X-73751Y72532D01*
X-73764Y72518D01*
X-73774Y72504D01*
X-73781Y72489D01*
X-73786Y72475D01*
X-73789Y72463D01*
X-73790Y72453D01*
X-73791Y72449D01*
Y72446D01*
Y72445D01*
Y72444D01*
X-73790Y72430D01*
X-73788Y72418D01*
X-73784Y72406D01*
X-73781Y72396D01*
X-73777Y72388D01*
X-73773Y72381D01*
X-73771Y72377D01*
X-73770Y72376D01*
X-73762Y72365D01*
X-73752Y72356D01*
X-73743Y72348D01*
X-73733Y72342D01*
X-73724Y72337D01*
X-73717Y72334D01*
X-73713Y72332D01*
X-73711Y72331D01*
X-73696Y72326D01*
X-73678Y72323D01*
X-73660Y72320D01*
X-73643Y72319D01*
X-73628Y72318D01*
X-73621Y72317D01*
X-73389D01*
Y72567D01*
D02*
G37*
G36*
X-159822Y72671D02*
X-160054D01*
Y72421D01*
X-159800D01*
X-159786Y72422D01*
X-159772Y72424D01*
X-159760Y72426D01*
X-159749Y72429D01*
X-159739Y72432D01*
X-159730Y72435D01*
X-159722Y72438D01*
X-159709Y72445D01*
X-159699Y72450D01*
X-159694Y72454D01*
X-159692Y72456D01*
X-159679Y72470D01*
X-159669Y72484D01*
X-159662Y72499D01*
X-159657Y72513D01*
X-159654Y72525D01*
X-159653Y72535D01*
X-159652Y72539D01*
Y72542D01*
Y72543D01*
Y72544D01*
X-159653Y72558D01*
X-159655Y72570D01*
X-159659Y72582D01*
X-159662Y72592D01*
X-159666Y72600D01*
X-159670Y72607D01*
X-159672Y72611D01*
X-159673Y72612D01*
X-159681Y72623D01*
X-159691Y72632D01*
X-159700Y72640D01*
X-159710Y72646D01*
X-159719Y72651D01*
X-159726Y72654D01*
X-159730Y72656D01*
X-159732Y72657D01*
X-159747Y72662D01*
X-159765Y72665D01*
X-159783Y72668D01*
X-159800Y72669D01*
X-159815Y72670D01*
X-159822Y72671D01*
D02*
G37*
G36*
X-159132Y72828D02*
X-159371D01*
X-159132Y72486D01*
Y72828D01*
D02*
G37*
G36*
X-164412Y71772D02*
X-164423D01*
X-164432D01*
X-164437D01*
X-164439D01*
X-164470D01*
X-164498Y71771D01*
X-164524Y71770D01*
X-164548Y71769D01*
X-164570Y71768D01*
X-164589Y71766D01*
X-164607Y71764D01*
X-164622Y71762D01*
X-164636Y71761D01*
X-164648Y71759D01*
X-164657Y71757D01*
X-164665Y71756D01*
X-164671Y71755D01*
X-164676Y71754D01*
X-164678Y71753D01*
X-164679D01*
X-164698Y71747D01*
X-164714Y71741D01*
X-164727Y71734D01*
X-164738Y71728D01*
X-164745Y71722D01*
X-164751Y71717D01*
X-164754Y71714D01*
X-164755Y71713D01*
X-164762Y71703D01*
X-164768Y71692D01*
X-164772Y71682D01*
X-164774Y71673D01*
X-164776Y71665D01*
X-164777Y71659D01*
Y71653D01*
X-164776Y71641D01*
X-164774Y71630D01*
X-164770Y71620D01*
X-164766Y71611D01*
X-164762Y71604D01*
X-164758Y71599D01*
X-164756Y71595D01*
X-164755Y71594D01*
X-164745Y71585D01*
X-164733Y71576D01*
X-164719Y71569D01*
X-164705Y71563D01*
X-164692Y71558D01*
X-164681Y71554D01*
X-164677Y71553D01*
X-164674Y71552D01*
X-164672Y71551D01*
X-164671D01*
X-164658Y71548D01*
X-164643Y71545D01*
X-164626Y71543D01*
X-164608Y71541D01*
X-164570Y71537D01*
X-164531Y71535D01*
X-164513Y71534D01*
X-164496D01*
X-164480D01*
X-164466Y71533D01*
X-164455D01*
X-164446D01*
X-164441D01*
X-164439D01*
X-164408D01*
X-164380Y71534D01*
X-164354Y71535D01*
X-164330Y71536D01*
X-164308Y71538D01*
X-164289Y71539D01*
X-164271Y71541D01*
X-164256Y71543D01*
X-164242Y71545D01*
X-164230Y71547D01*
X-164221Y71548D01*
X-164213Y71550D01*
X-164207Y71551D01*
X-164202Y71552D01*
X-164200Y71553D01*
X-164199D01*
X-164180Y71559D01*
X-164164Y71565D01*
X-164151Y71572D01*
X-164140Y71579D01*
X-164133Y71585D01*
X-164127Y71590D01*
X-164124Y71593D01*
X-164123Y71594D01*
X-164116Y71604D01*
X-164111Y71614D01*
X-164107Y71624D01*
X-164105Y71633D01*
X-164103Y71641D01*
X-164102Y71647D01*
Y71653D01*
X-164103Y71665D01*
X-164105Y71676D01*
X-164108Y71686D01*
X-164112Y71695D01*
X-164116Y71702D01*
X-164119Y71707D01*
X-164121Y71711D01*
X-164122Y71712D01*
X-164132Y71721D01*
X-164144Y71730D01*
X-164158Y71737D01*
X-164172Y71743D01*
X-164185Y71748D01*
X-164196Y71752D01*
X-164200Y71753D01*
X-164203Y71754D01*
X-164205Y71755D01*
X-164206D01*
X-164219Y71758D01*
X-164234Y71761D01*
X-164251Y71763D01*
X-164269Y71765D01*
X-164308Y71768D01*
X-164347Y71770D01*
X-164365Y71771D01*
X-164382D01*
X-164398D01*
X-164412Y71772D01*
D02*
G37*
G36*
X-134841Y97733D02*
X-134847D01*
X-134848D01*
X-134849D01*
X-134863Y97732D01*
X-134876Y97731D01*
X-134900Y97726D01*
X-134920Y97719D01*
X-134938Y97711D01*
X-134952Y97703D01*
X-134962Y97696D01*
X-134965Y97693D01*
X-134968Y97691D01*
X-134969Y97689D01*
X-134970D01*
X-134978Y97681D01*
X-134985Y97672D01*
X-134997Y97654D01*
X-135005Y97635D01*
X-135010Y97618D01*
X-135014Y97604D01*
X-135015Y97597D01*
Y97592D01*
X-135016Y97587D01*
Y97569D01*
X-135014Y97558D01*
X-135009Y97537D01*
X-135001Y97519D01*
X-134993Y97503D01*
X-134985Y97491D01*
X-134977Y97482D01*
X-134972Y97476D01*
X-134971Y97474D01*
X-134970D01*
X-134961Y97466D01*
X-134951Y97460D01*
X-134931Y97449D01*
X-134910Y97441D01*
X-134890Y97436D01*
X-134872Y97433D01*
X-134864Y97432D01*
X-134857D01*
X-134852Y97431D01*
X-134848D01*
X-134845D01*
X-134844D01*
X-134829D01*
X-134815Y97433D01*
X-134789Y97438D01*
X-134766Y97445D01*
X-134747Y97452D01*
X-134740Y97456D01*
X-134733Y97460D01*
X-134727Y97464D01*
X-134722Y97467D01*
X-134718Y97470D01*
X-134715Y97472D01*
X-134714Y97473D01*
X-134713Y97474D01*
X-134705Y97482D01*
X-134697Y97491D01*
X-134685Y97508D01*
X-134677Y97525D01*
X-134671Y97542D01*
X-134668Y97556D01*
X-134666Y97567D01*
X-134665Y97571D01*
Y97577D01*
X-134666Y97592D01*
X-134669Y97606D01*
X-134672Y97620D01*
X-134677Y97631D01*
X-134681Y97641D01*
X-134684Y97649D01*
X-134687Y97653D01*
X-134688Y97655D01*
X-134698Y97668D01*
X-134708Y97680D01*
X-134719Y97690D01*
X-134730Y97698D01*
X-134740Y97704D01*
X-134748Y97709D01*
X-134753Y97712D01*
X-134755Y97713D01*
X-134772Y97720D01*
X-134789Y97725D01*
X-134805Y97728D01*
X-134819Y97730D01*
X-134831Y97732D01*
X-134841Y97733D01*
D02*
G37*
G36*
X-133390Y110843D02*
X-133737Y110601D01*
X-133390D01*
Y110843D01*
D02*
G37*
G36*
X-68764Y82938D02*
X-68768D01*
X-68771D01*
X-68772D01*
X-68773D01*
X-68792Y82937D01*
X-68810Y82933D01*
X-68824Y82928D01*
X-68837Y82922D01*
X-68846Y82916D01*
X-68853Y82911D01*
X-68858Y82907D01*
X-68859Y82906D01*
X-68869Y82893D01*
X-68877Y82879D01*
X-68882Y82865D01*
X-68886Y82852D01*
X-68888Y82839D01*
X-68889Y82830D01*
X-68890Y82826D01*
Y82821D01*
X-68889Y82803D01*
X-68885Y82786D01*
X-68880Y82772D01*
X-68875Y82760D01*
X-68869Y82751D01*
X-68865Y82744D01*
X-68861Y82739D01*
X-68860Y82738D01*
X-68847Y82728D01*
X-68833Y82720D01*
X-68819Y82715D01*
X-68805Y82711D01*
X-68793Y82709D01*
X-68783Y82708D01*
X-68779Y82707D01*
X-68776D01*
X-68775D01*
X-68774D01*
X-68755Y82708D01*
X-68739Y82712D01*
X-68725Y82717D01*
X-68712Y82723D01*
X-68703Y82728D01*
X-68696Y82733D01*
X-68691Y82737D01*
X-68690Y82738D01*
X-68679Y82751D01*
X-68671Y82765D01*
X-68666Y82779D01*
X-68662Y82793D01*
X-68660Y82805D01*
X-68658Y82814D01*
Y82823D01*
X-68659Y82842D01*
X-68663Y82858D01*
X-68668Y82872D01*
X-68674Y82884D01*
X-68680Y82893D01*
X-68685Y82900D01*
X-68689Y82905D01*
X-68690Y82906D01*
X-68702Y82917D01*
X-68716Y82925D01*
X-68730Y82930D01*
X-68743Y82934D01*
X-68755Y82936D01*
X-68764Y82938D01*
D02*
G37*
G36*
X-69180Y82960D02*
X-69184D01*
X-69186D01*
X-69187D01*
X-69214Y82958D01*
X-69238Y82954D01*
X-69259Y82948D01*
X-69276Y82941D01*
X-69289Y82934D01*
X-69298Y82928D01*
X-69304Y82924D01*
X-69306Y82922D01*
X-69320Y82907D01*
X-69330Y82892D01*
X-69337Y82876D01*
X-69342Y82861D01*
X-69345Y82847D01*
X-69346Y82837D01*
X-69347Y82833D01*
Y82827D01*
X-69345Y82806D01*
X-69340Y82787D01*
X-69334Y82771D01*
X-69326Y82757D01*
X-69318Y82745D01*
X-69312Y82737D01*
X-69307Y82732D01*
X-69305Y82730D01*
X-69287Y82717D01*
X-69268Y82707D01*
X-69248Y82701D01*
X-69229Y82696D01*
X-69212Y82693D01*
X-69204Y82692D01*
X-69198D01*
X-69192Y82691D01*
X-69188D01*
X-69186D01*
X-69185D01*
X-69165Y82692D01*
X-69146Y82696D01*
X-69129Y82701D01*
X-69113Y82708D01*
X-69101Y82714D01*
X-69091Y82719D01*
X-69085Y82723D01*
X-69084Y82724D01*
X-69083D01*
X-69075Y82731D01*
X-69067Y82738D01*
X-69056Y82754D01*
X-69047Y82770D01*
X-69042Y82787D01*
X-69038Y82802D01*
X-69037Y82814D01*
X-69036Y82819D01*
Y82825D01*
X-69038Y82846D01*
X-69043Y82865D01*
X-69049Y82881D01*
X-69057Y82895D01*
X-69065Y82906D01*
X-69071Y82914D01*
X-69076Y82919D01*
X-69078Y82921D01*
X-69094Y82934D01*
X-69112Y82944D01*
X-69130Y82951D01*
X-69148Y82955D01*
X-69163Y82958D01*
X-69170Y82959D01*
X-69176D01*
X-69180Y82960D01*
D02*
G37*
G36*
X-64595Y72544D02*
X-64600D01*
X-64603D01*
X-64604D01*
X-64621D01*
X-64636Y72543D01*
X-64650Y72541D01*
X-64663Y72539D01*
X-64675Y72536D01*
X-64686Y72534D01*
X-64696Y72531D01*
X-64705Y72527D01*
X-64712Y72524D01*
X-64719Y72521D01*
X-64724Y72519D01*
X-64728Y72516D01*
X-64732Y72514D01*
X-64734Y72512D01*
X-64736Y72511D01*
X-64750Y72498D01*
X-64760Y72483D01*
X-64767Y72469D01*
X-64772Y72456D01*
X-64775Y72444D01*
X-64776Y72434D01*
X-64777Y72428D01*
Y72426D01*
X-64776Y72416D01*
X-64775Y72407D01*
X-64769Y72389D01*
X-64761Y72373D01*
X-64752Y72359D01*
X-64743Y72348D01*
X-64735Y72339D01*
X-64729Y72334D01*
X-64728Y72332D01*
X-64727D01*
X-64707Y72318D01*
X-64685Y72308D01*
X-64662Y72301D01*
X-64640Y72296D01*
X-64620Y72293D01*
X-64611Y72292D01*
X-64604D01*
X-64598Y72291D01*
X-64593D01*
X-64590D01*
X-64589D01*
X-64560Y72293D01*
X-64536Y72297D01*
X-64515Y72303D01*
X-64497Y72309D01*
X-64484Y72316D01*
X-64474Y72322D01*
X-64468Y72326D01*
X-64466Y72328D01*
X-64452Y72342D01*
X-64442Y72357D01*
X-64435Y72372D01*
X-64430Y72386D01*
X-64427Y72398D01*
X-64426Y72408D01*
X-64425Y72412D01*
Y72417D01*
X-64426Y72427D01*
X-64427Y72436D01*
X-64432Y72454D01*
X-64439Y72469D01*
X-64447Y72483D01*
X-64454Y72493D01*
X-64461Y72501D01*
X-64466Y72506D01*
X-64468Y72508D01*
X-64477Y72514D01*
X-64487Y72520D01*
X-64508Y72529D01*
X-64530Y72535D01*
X-64553Y72539D01*
X-64573Y72542D01*
X-64581Y72543D01*
X-64589D01*
X-64595Y72544D01*
D02*
G37*
G36*
X-156007Y-21610D02*
X-156240D01*
Y-22382D01*
X-156009D01*
X-156000Y-22381D01*
X-155991D01*
X-155980Y-22380D01*
X-155968D01*
X-155943Y-22378D01*
X-155917Y-22374D01*
X-155892Y-22370D01*
X-155869Y-22364D01*
X-155868D01*
X-155866Y-22363D01*
X-155863Y-22362D01*
X-155860Y-22360D01*
X-155849Y-22356D01*
X-155836Y-22350D01*
X-155822Y-22343D01*
X-155807Y-22334D01*
X-155792Y-22323D01*
X-155779Y-22311D01*
X-155778Y-22310D01*
X-155777Y-22309D01*
X-155774Y-22306D01*
X-155771Y-22302D01*
X-155767Y-22298D01*
X-155762Y-22292D01*
X-155752Y-22277D01*
X-155740Y-22259D01*
X-155727Y-22238D01*
X-155716Y-22212D01*
X-155705Y-22184D01*
Y-22183D01*
X-155704Y-22180D01*
X-155702Y-22176D01*
X-155701Y-22170D01*
X-155699Y-22162D01*
X-155696Y-22152D01*
X-155694Y-22141D01*
X-155691Y-22129D01*
X-155689Y-22116D01*
X-155687Y-22101D01*
X-155684Y-22085D01*
X-155682Y-22068D01*
X-155680Y-22049D01*
X-155679Y-22030D01*
X-155678Y-21989D01*
Y-21987D01*
Y-21982D01*
Y-21974D01*
X-155679Y-21963D01*
X-155680Y-21949D01*
X-155681Y-21934D01*
X-155682Y-21917D01*
X-155684Y-21899D01*
X-155691Y-21860D01*
X-155700Y-21819D01*
X-155706Y-21799D01*
X-155713Y-21780D01*
X-155721Y-21762D01*
X-155730Y-21745D01*
X-155731Y-21744D01*
X-155732Y-21741D01*
X-155735Y-21737D01*
X-155739Y-21731D01*
X-155744Y-21724D01*
X-155750Y-21717D01*
X-155765Y-21699D01*
X-155784Y-21680D01*
X-155805Y-21661D01*
X-155829Y-21644D01*
X-155842Y-21637D01*
X-155856Y-21631D01*
X-155857D01*
X-155859Y-21630D01*
X-155862Y-21629D01*
X-155866Y-21628D01*
X-155872Y-21626D01*
X-155879Y-21624D01*
X-155888Y-21622D01*
X-155898Y-21620D01*
X-155909Y-21619D01*
X-155922Y-21617D01*
X-155936Y-21615D01*
X-155952Y-21613D01*
X-155969Y-21612D01*
X-155987Y-21611D01*
X-156007Y-21610D01*
D02*
G37*
%LPD*%
D10*
X-149300Y69423D02*
G03*
X-149300Y69423I-984J0D01*
G01*
X-133379Y43576D02*
G03*
X-133379Y43576I-1118J0D01*
G01*
X-122608Y93143D02*
G03*
X-122608Y93143I-984J0D01*
G01*
X-63551Y21135D02*
G03*
X-63551Y21135I-984J0D01*
G01*
X-82666Y84502D02*
G03*
X-82666Y84502I-984J0D01*
G01*
X-108454Y129974D02*
Y132974D01*
X-111454Y129974D02*
X-108454D01*
Y126974D02*
Y129974D01*
X-105454D01*
X-116328Y122100D02*
X-100580D01*
X-116328D02*
Y137848D01*
X-100580D01*
Y122100D02*
Y137848D01*
X-152253Y66470D02*
X-124694D01*
Y86155D01*
X-152253D02*
X-124694D01*
X-152253Y66470D02*
Y86155D01*
X-138474Y74344D02*
Y78281D01*
X-140442Y76312D02*
X-136505D01*
X-116497Y61076D02*
X-111997D01*
X-112034Y56558D02*
Y61058D01*
X-111997Y61076D02*
X-107497D01*
X-111997D02*
Y65576D01*
X-137185Y41692D02*
Y80576D01*
X-86731D01*
Y41692D02*
Y80576D01*
X-137185Y41692D02*
X-86731D01*
X-125579Y88439D02*
Y98281D01*
X-107863D01*
Y88439D02*
Y98281D01*
X-125579Y88439D02*
X-107863D01*
X-69674Y19148D02*
X-59832D01*
X-69674D02*
Y36864D01*
X-59832D01*
Y19148D02*
Y36864D01*
X-143099Y98281D02*
Y115997D01*
X-154911D02*
X-143099D01*
X-154911Y98281D02*
Y115997D01*
Y98281D02*
X-143099D01*
X-75107Y86273D02*
Y141273D01*
X-158607D02*
X-75107D01*
X-158607Y86273D02*
Y141273D01*
Y86273D02*
X-75107D01*
X-84107Y136273D02*
X-80107D01*
Y132273D02*
Y136273D01*
X-76107D01*
X-80107D02*
Y140273D01*
X-97430Y77612D02*
X-93493D01*
X-95461Y75643D02*
Y79580D01*
X-81682Y67769D02*
Y87454D01*
X-109240Y67769D02*
X-81682D01*
X-109240D02*
Y87454D01*
X-81682D01*
X-91131Y98281D02*
X-79320D01*
X-91131D02*
Y115997D01*
X-79320D01*
Y98281D02*
Y115997D01*
X-85134Y71972D02*
Y69473D01*
X-86384D01*
X-86800Y69889D01*
Y70306D01*
X-86384Y70722D01*
X-85134D01*
X-86384D01*
X-86800Y71139D01*
Y71555D01*
X-86384Y71972D01*
X-85134D01*
X-87633Y69473D02*
Y71972D01*
X-88883D01*
X-89299Y71555D01*
Y70722D01*
X-88883Y70306D01*
X-87633D01*
X-88467D02*
X-89299Y69473D01*
X-90133D02*
X-90966D01*
X-90549D01*
Y71972D01*
X-90133Y71555D01*
X-101867Y124924D02*
Y122425D01*
X-103533D01*
X-104367Y124924D02*
X-106033D01*
Y124508D01*
X-104367Y122842D01*
Y122425D01*
X-124095Y95063D02*
Y97562D01*
X-122845D01*
X-122429Y97146D01*
Y95480D01*
X-122845Y95063D01*
X-124095D01*
X-121596Y97562D02*
X-120763D01*
X-121179D01*
Y95063D01*
X-121596Y95480D01*
X-148800Y81953D02*
Y84452D01*
X-147551D01*
X-147134Y84035D01*
Y83619D01*
X-147551Y83202D01*
X-148800D01*
X-147551D01*
X-147134Y82786D01*
Y82369D01*
X-147551Y81953D01*
X-148800D01*
X-146301Y84452D02*
Y81953D01*
X-145052D01*
X-144635Y82369D01*
Y83202D01*
X-145052Y83619D01*
X-146301D01*
X-145468D02*
X-144635Y84452D01*
X-142136D02*
X-143802D01*
X-142136Y82786D01*
Y82369D01*
X-142552Y81953D01*
X-143385D01*
X-143802Y82369D01*
X-88329Y102415D02*
X-87912Y101999D01*
Y101166D01*
X-88329Y100749D01*
X-89995D01*
X-90412Y101166D01*
Y101999D01*
X-89995Y102415D01*
X-90412Y104915D02*
Y103248D01*
X-88745Y104915D01*
X-88329D01*
X-87912Y104498D01*
Y103665D01*
X-88329Y103248D01*
X-86607Y123023D02*
X-87440D01*
X-87024D01*
Y125523D01*
X-86607D01*
X-87440D01*
X-90356Y123440D02*
X-89939Y123023D01*
X-89106D01*
X-88690Y123440D01*
Y125106D01*
X-89106Y125523D01*
X-89939D01*
X-90356Y125106D01*
X-91189Y125523D02*
X-92022D01*
X-91605D01*
Y123023D01*
X-91189Y123440D01*
X-152109Y102415D02*
X-151692Y101999D01*
Y101166D01*
X-152109Y100749D01*
X-153775D01*
X-154192Y101166D01*
Y101999D01*
X-153775Y102415D01*
X-152109Y103248D02*
X-151692Y103665D01*
Y104498D01*
X-152109Y104915D01*
X-152525D01*
X-152942Y104498D01*
Y104081D01*
Y104498D01*
X-153359Y104915D01*
X-153775D01*
X-154192Y104498D01*
Y103665D01*
X-153775Y103248D01*
X-66456Y20632D02*
X-68955D01*
Y21882D01*
X-68539Y22298D01*
X-66873D01*
X-66456Y21882D01*
Y20632D01*
X-68955Y24797D02*
Y23131D01*
X-67289Y24797D01*
X-66873D01*
X-66456Y24381D01*
Y23548D01*
X-66873Y23131D01*
X-92747Y52076D02*
Y53742D01*
Y52909D01*
X-90247D01*
Y54575D02*
Y55408D01*
Y54992D01*
X-92747D01*
X-92330Y54575D01*
D13*
X-101560Y129974D02*
G03*
X-101560Y129974I-394J0D01*
G01*
D14*
X-73414Y16194D02*
Y16194D01*
Y16194D02*
X-72233D01*
X-73414Y16194D02*
Y17375D01*
X-74595Y16194D02*
X-73414D01*
X-73414Y15013D02*
Y16194D01*
X-150580Y16194D02*
Y17375D01*
X-150580Y16194D02*
X-149399D01*
X-150580Y15013D02*
Y16195D01*
X-151761Y16194D02*
X-150580D01*
Y16194D02*
Y16194D01*
X-84831Y127612D02*
X-84831D01*
Y126431D02*
Y127612D01*
X-86012Y127612D02*
X-84830D01*
X-84831Y127612D02*
Y128793D01*
X-84831Y127612D02*
X-83650D01*
X-166721Y66588D02*
Y67769D01*
X-166721Y67769D02*
X-165540D01*
X-166721Y67768D02*
Y68950D01*
X-167902Y67769D02*
X-166721D01*
Y67769D01*
X-166721Y87454D02*
Y87454D01*
X-165540D01*
X-166721Y86273D02*
Y87455D01*
X-167902Y87454D02*
X-166721D01*
X-166721Y87454D02*
Y88635D01*
X-66721Y87454D02*
Y88635D01*
X-67902Y87454D02*
X-66721D01*
X-66721Y86273D02*
Y87455D01*
X-66721Y87454D02*
X-65540D01*
X-66721Y87454D02*
Y87454D01*
X-66721Y67769D02*
Y67769D01*
X-67902Y67769D02*
X-66721D01*
X-66721Y67768D02*
Y68950D01*
X-66721Y67769D02*
X-65540D01*
X-66721Y66588D02*
Y67769D01*
D39*
X-63826Y-21601D02*
G03*
X-63826Y-21601I-139J0D01*
G01*
X-159495Y-21601D02*
G03*
X-159495Y-21601I-139J0D01*
G01*
D68*
X-52354Y61075D02*
Y86175D01*
X-64459Y61075D02*
Y86175D01*
X-52354D01*
X-64459Y61075D02*
X-52354D01*
X-76564Y9993D02*
Y22493D01*
X-70264Y9993D02*
Y22493D01*
X-76564Y9993D02*
X-70264D01*
X-76564Y22493D02*
X-70264D01*
X-71643Y-20027D02*
X-64950D01*
X-71643Y-23176D02*
X-64950D01*
X-71643D02*
Y-20027D01*
X-64950Y-23176D02*
Y-20027D01*
X-153730Y9895D02*
X-147430D01*
X-153730Y22395D02*
X-147430D01*
X-153730Y9895D02*
Y22395D01*
X-147430Y9895D02*
Y22395D01*
X-91130Y130762D02*
X-78630D01*
X-91130Y124462D02*
X-78630D01*
Y130762D01*
X-91130Y124462D02*
Y130762D01*
X-181089Y95820D02*
Y120920D01*
X-168984Y95820D02*
Y120920D01*
X-181089Y95820D02*
X-168984D01*
X-181089Y120920D02*
X-168984D01*
X-168889Y61075D02*
Y86175D01*
X-180993Y61075D02*
Y86175D01*
X-168889D01*
X-180993Y61075D02*
X-168889D01*
X-64554Y95820D02*
Y120920D01*
X-52450Y95820D02*
Y120920D01*
X-64554Y95820D02*
X-52450D01*
X-64554Y120920D02*
X-52450D01*
X-169871Y74068D02*
X-163571D01*
X-169871Y61568D02*
X-163571D01*
X-169871D02*
Y74068D01*
X-163571Y61568D02*
Y74068D01*
X-169871Y81155D02*
Y93655D01*
X-163571Y81155D02*
Y93655D01*
X-169871D02*
X-163571D01*
X-169871Y81155D02*
X-163571D01*
X-69871D02*
X-63571D01*
X-69871Y93655D02*
X-63571D01*
Y81155D02*
Y93655D01*
X-69871Y81155D02*
Y93655D01*
X-63571Y61568D02*
Y74068D01*
X-69871Y61568D02*
Y74068D01*
Y61568D02*
X-63571D01*
X-69871Y74068D02*
X-63571D01*
X-158650Y-23176D02*
X-151957D01*
X-158650Y-20026D02*
X-151957D01*
Y-23176D02*
Y-20026D01*
X-158650Y-23176D02*
Y-20026D01*
D69*
X-112749Y104312D02*
X-107788D01*
Y112249D01*
X-112749D02*
X-107788D01*
X-112749Y104312D02*
Y112249D01*
X-66643Y35564D02*
X-62863D01*
X-66643D02*
Y42494D01*
X-62863D01*
Y35564D02*
Y42494D01*
X-160541Y81628D02*
Y83832D01*
Y81628D02*
X-156367D01*
Y83832D01*
X-160541D02*
X-156367D01*
X-122913Y128898D02*
Y131102D01*
X-127087D02*
X-122913D01*
X-127087Y128898D02*
Y131102D01*
Y128898D02*
X-122913D01*
X-134413Y78698D02*
Y80902D01*
X-138587Y78698D02*
X-134413D01*
X-138587D02*
Y80902D01*
X-134413D01*
X-89187Y78498D02*
Y80702D01*
X-85013D01*
Y78498D02*
Y80702D01*
X-89187Y78498D02*
X-85013D01*
X-91643Y120211D02*
Y122415D01*
Y120211D02*
X-87469D01*
Y122415D01*
X-91643D02*
X-87469D01*
X-72902Y81628D02*
Y83832D01*
X-77076D02*
X-72902D01*
X-77076Y81628D02*
Y83832D01*
Y81628D02*
X-72902D01*
Y71392D02*
Y73596D01*
X-77076D02*
X-72902D01*
X-77076Y71392D02*
Y73596D01*
Y71392D02*
X-72902D01*
X-160541D02*
Y73596D01*
Y71392D02*
X-156367D01*
Y73596D01*
X-160541D02*
X-156367D01*
X-138600Y99200D02*
X-133640D01*
X-138600Y91263D02*
Y99200D01*
Y91263D02*
X-133640D01*
Y99200D01*
X-137119Y112266D02*
X-132159D01*
X-137119Y104329D02*
Y112266D01*
Y104329D02*
X-132159D01*
Y112266D01*
X-125260Y104312D02*
X-120300D01*
Y112249D01*
X-125260D02*
X-120300D01*
X-125260Y104312D02*
Y112249D01*
X-100500Y99500D02*
X-95540D01*
X-100500Y91563D02*
Y99500D01*
Y91563D02*
X-95540D01*
Y99500D01*
X-102883Y112312D02*
X-97923D01*
X-102883Y104375D02*
Y112312D01*
Y104375D02*
X-97923D01*
Y112312D01*
M02*
