G04*
G04 #@! TF.GenerationSoftware,Altium Limited,Altium Designer,21.7.2 (23)*
G04*
G04 Layer_Color=32896*
%FSLAX25Y25*%
%MOIN*%
G70*
G04*
G04 #@! TF.SameCoordinates,2ED69007-8404-4F84-9E22-07974BFFE74B*
G04*
G04*
G04 #@! TF.FilePolarity,Positive*
G04*
G01*
G75*
%ADD10C,0.00500*%
%ADD12C,0.00787*%
%ADD13C,0.00787*%
%ADD14C,0.00591*%
%ADD16C,0.00544*%
%ADD17C,0.00598*%
%ADD18C,0.00527*%
%ADD67C,0.00984*%
G36*
X-95000Y61600D02*
X-94400D01*
Y61500D01*
X-94000D01*
Y61400D01*
X-93700D01*
Y61300D01*
X-93400D01*
Y61200D01*
X-93200D01*
Y61100D01*
X-92900D01*
Y61000D01*
X-92700D01*
Y60900D01*
X-92500D01*
Y60800D01*
X-92400D01*
Y60700D01*
X-92200D01*
Y60600D01*
X-92100D01*
Y60500D01*
X-91900D01*
Y60400D01*
X-91800D01*
Y60300D01*
X-91900D01*
Y60200D01*
X-92100D01*
Y60100D01*
X-92200D01*
Y60000D01*
X-92400D01*
Y59900D01*
X-92600D01*
Y59800D01*
X-92800D01*
Y59700D01*
X-92900D01*
Y59600D01*
X-93100D01*
Y59500D01*
X-93300D01*
Y59400D01*
X-93500D01*
Y59300D01*
X-93600D01*
Y59200D01*
X-93800D01*
Y59100D01*
X-94000D01*
Y59000D01*
X-94200D01*
Y58900D01*
X-94300D01*
Y58800D01*
X-94500D01*
Y58700D01*
X-94700D01*
Y58600D01*
X-94800D01*
Y58500D01*
X-95000D01*
Y58400D01*
X-95200D01*
Y58300D01*
X-95400D01*
Y58200D01*
X-95600D01*
Y58100D01*
X-95700D01*
Y58000D01*
X-95900D01*
Y57900D01*
X-96100D01*
Y57800D01*
X-96200D01*
Y57700D01*
X-96400D01*
Y57600D01*
X-96600D01*
Y57500D01*
X-96800D01*
Y57400D01*
X-96900D01*
Y57300D01*
X-97100D01*
Y57200D01*
X-97300D01*
Y57100D01*
X-97400D01*
Y57200D01*
Y57300D01*
Y57400D01*
Y57500D01*
Y57600D01*
Y57700D01*
Y57800D01*
Y57900D01*
Y58000D01*
Y58100D01*
Y58200D01*
Y58300D01*
Y58400D01*
Y58500D01*
Y58600D01*
Y58700D01*
Y58800D01*
Y58900D01*
Y59000D01*
Y59100D01*
Y59200D01*
Y59300D01*
Y59400D01*
Y59500D01*
Y59600D01*
Y59700D01*
Y59800D01*
Y59900D01*
Y60000D01*
Y60100D01*
Y60200D01*
Y60300D01*
Y60400D01*
Y60500D01*
Y60600D01*
Y60700D01*
Y60800D01*
Y60900D01*
Y61000D01*
Y61100D01*
Y61200D01*
Y61300D01*
Y61400D01*
Y61500D01*
X-97200D01*
Y61600D01*
X-96600D01*
Y61700D01*
X-95000D01*
Y61600D01*
D02*
G37*
G36*
X-98200Y61100D02*
Y61000D01*
Y60900D01*
Y60800D01*
Y60700D01*
Y60600D01*
Y60500D01*
Y60400D01*
Y60300D01*
Y60200D01*
Y60100D01*
Y60000D01*
Y59900D01*
Y59800D01*
Y59700D01*
Y59600D01*
Y59500D01*
Y59400D01*
Y59300D01*
Y59200D01*
Y59100D01*
Y59000D01*
Y58900D01*
Y58800D01*
Y58700D01*
Y58600D01*
Y58500D01*
Y58400D01*
Y58300D01*
Y58200D01*
Y58100D01*
Y58000D01*
Y57900D01*
Y57800D01*
Y57700D01*
Y57600D01*
Y57500D01*
Y57400D01*
Y57300D01*
Y57200D01*
Y57100D01*
Y57000D01*
Y56900D01*
Y56800D01*
Y56700D01*
Y56600D01*
Y56500D01*
Y56400D01*
Y56300D01*
Y56200D01*
Y56100D01*
Y56000D01*
Y55900D01*
Y55800D01*
Y55700D01*
Y55600D01*
Y55500D01*
Y55400D01*
Y55300D01*
Y55200D01*
Y55100D01*
Y55000D01*
Y54900D01*
Y54800D01*
X-98300D01*
Y54900D01*
X-98500D01*
Y55000D01*
X-98700D01*
Y55100D01*
X-98800D01*
Y55200D01*
X-99000D01*
Y55300D01*
X-99200D01*
Y55400D01*
X-99400D01*
Y55500D01*
X-99500D01*
Y55600D01*
X-99700D01*
Y55700D01*
X-99900D01*
Y55800D01*
X-100100D01*
Y55900D01*
X-100200D01*
Y56000D01*
X-100400D01*
Y56100D01*
X-100600D01*
Y56200D01*
X-100800D01*
Y56300D01*
X-100900D01*
Y56400D01*
X-101100D01*
Y56500D01*
X-101300D01*
Y56600D01*
X-101500D01*
Y56700D01*
X-101600D01*
Y56800D01*
X-101800D01*
Y56900D01*
X-102000D01*
Y57000D01*
Y57100D01*
Y57200D01*
Y57300D01*
X-101900D01*
Y57400D01*
Y57500D01*
Y57600D01*
X-101800D01*
Y57700D01*
Y57800D01*
X-101700D01*
Y57900D01*
Y58000D01*
X-101600D01*
Y58100D01*
Y58200D01*
X-101500D01*
Y58300D01*
Y58400D01*
X-101400D01*
Y58500D01*
Y58600D01*
X-101300D01*
Y58700D01*
X-101200D01*
Y58800D01*
Y58900D01*
X-101100D01*
Y59000D01*
X-101000D01*
Y59100D01*
Y59200D01*
X-100900D01*
Y59300D01*
X-100800D01*
Y59400D01*
X-100700D01*
Y59500D01*
X-100600D01*
Y59600D01*
X-100500D01*
Y59700D01*
X-100400D01*
Y59800D01*
X-100300D01*
Y59900D01*
X-100200D01*
Y60000D01*
X-100100D01*
Y60100D01*
X-100000D01*
Y60200D01*
X-99900D01*
Y60300D01*
X-99800D01*
Y60400D01*
X-99600D01*
Y60500D01*
X-99500D01*
Y60600D01*
X-99300D01*
Y60700D01*
X-99200D01*
Y60800D01*
X-99000D01*
Y60900D01*
X-98800D01*
Y61000D01*
X-98600D01*
Y61100D01*
X-98400D01*
Y61200D01*
X-98200D01*
Y61100D01*
D02*
G37*
G36*
X-91000Y59600D02*
X-90900D01*
Y59500D01*
X-90800D01*
Y59400D01*
Y59300D01*
X-90700D01*
Y59200D01*
X-90600D01*
Y59100D01*
X-90500D01*
Y59000D01*
Y58900D01*
X-90400D01*
Y58800D01*
X-90300D01*
Y58700D01*
Y58600D01*
X-90200D01*
Y58500D01*
X-90100D01*
Y58400D01*
Y58300D01*
X-90000D01*
Y58200D01*
Y58100D01*
X-89900D01*
Y58000D01*
Y57900D01*
X-89800D01*
Y57800D01*
Y57700D01*
X-89700D01*
Y57600D01*
Y57500D01*
Y57400D01*
X-89600D01*
Y57300D01*
Y57200D01*
Y57100D01*
X-89500D01*
Y57000D01*
Y56900D01*
Y56800D01*
Y56700D01*
X-89400D01*
Y56600D01*
Y56500D01*
Y56400D01*
Y56300D01*
Y56200D01*
X-89300D01*
Y56100D01*
Y56000D01*
Y55900D01*
Y55800D01*
Y55700D01*
Y55600D01*
Y55500D01*
Y55400D01*
Y55300D01*
Y55200D01*
Y55100D01*
Y55000D01*
Y54900D01*
Y54800D01*
Y54700D01*
Y54600D01*
Y54500D01*
Y54400D01*
Y54300D01*
X-89400D01*
Y54400D01*
X-89600D01*
Y54500D01*
X-89800D01*
Y54600D01*
X-90000D01*
Y54700D01*
X-90100D01*
Y54800D01*
X-90300D01*
Y54900D01*
X-90500D01*
Y55000D01*
X-90600D01*
Y55100D01*
X-90800D01*
Y55200D01*
X-91000D01*
Y55300D01*
X-91200D01*
Y55400D01*
X-91300D01*
Y55500D01*
X-91500D01*
Y55600D01*
X-91700D01*
Y55700D01*
X-91900D01*
Y55800D01*
X-92000D01*
Y55900D01*
X-92200D01*
Y56000D01*
X-92400D01*
Y56100D01*
X-92600D01*
Y56200D01*
X-92700D01*
Y56300D01*
X-92900D01*
Y56400D01*
X-93100D01*
Y56500D01*
X-93200D01*
Y56600D01*
X-93400D01*
Y56700D01*
X-93600D01*
Y56800D01*
X-93800D01*
Y56900D01*
X-93900D01*
Y57000D01*
X-94100D01*
Y57100D01*
X-94300D01*
Y57200D01*
X-94500D01*
Y57300D01*
X-94600D01*
Y57400D01*
X-94800D01*
Y57500D01*
X-94900D01*
Y57600D01*
X-94700D01*
Y57700D01*
X-94600D01*
Y57800D01*
X-94400D01*
Y57900D01*
X-94200D01*
Y58000D01*
X-94000D01*
Y58100D01*
X-93900D01*
Y58200D01*
X-93700D01*
Y58300D01*
X-93500D01*
Y58400D01*
X-93300D01*
Y58500D01*
X-93200D01*
Y58600D01*
X-93000D01*
Y58700D01*
X-92800D01*
Y58800D01*
X-92600D01*
Y58900D01*
X-92500D01*
Y59000D01*
X-92300D01*
Y59100D01*
X-92100D01*
Y59200D01*
X-92000D01*
Y59300D01*
X-91800D01*
Y59400D01*
X-91600D01*
Y59500D01*
X-91400D01*
Y59600D01*
X-91200D01*
Y59700D01*
X-91000D01*
Y59600D01*
D02*
G37*
G36*
X-122400Y57200D02*
Y57100D01*
Y57000D01*
Y56900D01*
Y56800D01*
Y56700D01*
Y56600D01*
Y56500D01*
Y56400D01*
Y56300D01*
X-122300D01*
Y56200D01*
Y56100D01*
Y56000D01*
Y55900D01*
Y55800D01*
Y55700D01*
Y55600D01*
Y55500D01*
Y55400D01*
Y55300D01*
Y55200D01*
Y55100D01*
Y55000D01*
Y54900D01*
Y54800D01*
X-122200D01*
Y54700D01*
Y54600D01*
Y54500D01*
Y54400D01*
Y54300D01*
Y54200D01*
Y54100D01*
Y54000D01*
Y53900D01*
Y53800D01*
Y53700D01*
X-122100D01*
Y53600D01*
Y53500D01*
Y53400D01*
Y53300D01*
Y53200D01*
Y53100D01*
Y53000D01*
Y52900D01*
Y52800D01*
Y52700D01*
Y52600D01*
Y52500D01*
X-122000D01*
Y52400D01*
Y52300D01*
Y52200D01*
Y52100D01*
Y52000D01*
Y51900D01*
Y51800D01*
Y51700D01*
Y51600D01*
X-121900D01*
Y51500D01*
Y51400D01*
Y51300D01*
Y51200D01*
Y51100D01*
Y51000D01*
Y50900D01*
X-123600D01*
Y51000D01*
Y51100D01*
Y51200D01*
Y51300D01*
Y51400D01*
Y51500D01*
Y51600D01*
Y51700D01*
Y51800D01*
Y51900D01*
Y52000D01*
Y52100D01*
Y52200D01*
Y52300D01*
Y52400D01*
Y52500D01*
Y52600D01*
Y52700D01*
Y52800D01*
Y52900D01*
Y53000D01*
X-123700D01*
Y53100D01*
Y53200D01*
Y53300D01*
Y53400D01*
Y53500D01*
Y53600D01*
Y53700D01*
Y53800D01*
Y53900D01*
Y54000D01*
Y54100D01*
Y54200D01*
Y54300D01*
Y54400D01*
Y54500D01*
X-123800D01*
Y54600D01*
Y54700D01*
Y54800D01*
Y54900D01*
Y55000D01*
Y55100D01*
Y55200D01*
Y55300D01*
Y55400D01*
X-123900D01*
Y55300D01*
Y55200D01*
Y55100D01*
Y55000D01*
Y54900D01*
X-124000D01*
Y54800D01*
Y54700D01*
Y54600D01*
Y54500D01*
X-124100D01*
Y54400D01*
Y54300D01*
Y54200D01*
Y54100D01*
X-124200D01*
Y54000D01*
Y53900D01*
Y53800D01*
Y53700D01*
X-124300D01*
Y53600D01*
Y53500D01*
Y53400D01*
Y53300D01*
Y53200D01*
X-124400D01*
Y53100D01*
Y53000D01*
Y52900D01*
Y52800D01*
X-124500D01*
Y52700D01*
Y52600D01*
Y52500D01*
Y52400D01*
X-124600D01*
Y52300D01*
Y52200D01*
Y52100D01*
Y52000D01*
Y51900D01*
X-124700D01*
Y51800D01*
Y51700D01*
Y51600D01*
Y51500D01*
X-124800D01*
Y51400D01*
Y51300D01*
Y51200D01*
Y51100D01*
Y51000D01*
X-124900D01*
Y50900D01*
X-126600D01*
Y51000D01*
X-126700D01*
Y51100D01*
Y51200D01*
Y51300D01*
X-126800D01*
Y51400D01*
Y51500D01*
Y51600D01*
X-126900D01*
Y51700D01*
Y51800D01*
Y51900D01*
X-127000D01*
Y52000D01*
Y52100D01*
Y52200D01*
X-127100D01*
Y52300D01*
Y52400D01*
Y52500D01*
X-127200D01*
Y52600D01*
Y52700D01*
Y52800D01*
X-127300D01*
Y52900D01*
Y53000D01*
Y53100D01*
X-127400D01*
Y53200D01*
Y53300D01*
Y53400D01*
X-127500D01*
Y53500D01*
Y53600D01*
Y53700D01*
X-127600D01*
Y53800D01*
Y53900D01*
Y54000D01*
X-127700D01*
Y54100D01*
Y54200D01*
Y54300D01*
X-127800D01*
Y54400D01*
Y54500D01*
Y54600D01*
Y54700D01*
X-127900D01*
Y54800D01*
Y54900D01*
X-128000D01*
Y55000D01*
Y55100D01*
Y55200D01*
Y55300D01*
X-128100D01*
Y55200D01*
Y55100D01*
Y55000D01*
Y54900D01*
Y54800D01*
Y54700D01*
Y54600D01*
Y54500D01*
Y54400D01*
Y54300D01*
Y54200D01*
Y54100D01*
Y54000D01*
Y53900D01*
Y53800D01*
Y53700D01*
Y53600D01*
Y53500D01*
Y53400D01*
Y53300D01*
Y53200D01*
Y53100D01*
Y53000D01*
Y52900D01*
Y52800D01*
Y52700D01*
Y52600D01*
Y52500D01*
Y52400D01*
Y52300D01*
Y52200D01*
X-128000D01*
Y52100D01*
Y52000D01*
Y51900D01*
Y51800D01*
Y51700D01*
Y51600D01*
Y51500D01*
Y51400D01*
Y51300D01*
Y51200D01*
Y51100D01*
Y51000D01*
Y50900D01*
X-129700D01*
Y51000D01*
Y51100D01*
Y51200D01*
Y51300D01*
Y51400D01*
Y51500D01*
Y51600D01*
Y51700D01*
Y51800D01*
Y51900D01*
Y52000D01*
Y52100D01*
Y52200D01*
Y52300D01*
Y52400D01*
Y52500D01*
Y52600D01*
Y52700D01*
Y52800D01*
Y52900D01*
X-129800D01*
Y53000D01*
Y53100D01*
Y53200D01*
Y53300D01*
Y53400D01*
Y53500D01*
Y53600D01*
Y53700D01*
Y53800D01*
Y53900D01*
Y54000D01*
Y54100D01*
Y54200D01*
Y54300D01*
Y54400D01*
Y54500D01*
Y54600D01*
Y54700D01*
Y54800D01*
Y54900D01*
Y55000D01*
Y55100D01*
Y55200D01*
Y55300D01*
Y55400D01*
Y55500D01*
Y55600D01*
Y55700D01*
Y55800D01*
Y55900D01*
Y56000D01*
Y56100D01*
Y56200D01*
X-129900D01*
Y56300D01*
Y56400D01*
Y56500D01*
Y56600D01*
Y56700D01*
Y56800D01*
Y56900D01*
Y57000D01*
Y57100D01*
Y57200D01*
Y57300D01*
X-127200D01*
Y57200D01*
Y57100D01*
Y57000D01*
X-127100D01*
Y56900D01*
Y56800D01*
Y56700D01*
X-127000D01*
Y56600D01*
Y56500D01*
Y56400D01*
X-126900D01*
Y56300D01*
Y56200D01*
Y56100D01*
X-126800D01*
Y56000D01*
Y55900D01*
Y55800D01*
X-126700D01*
Y55700D01*
Y55600D01*
X-126600D01*
Y55500D01*
Y55400D01*
Y55300D01*
X-126500D01*
Y55200D01*
Y55100D01*
Y55000D01*
X-126400D01*
Y54900D01*
Y54800D01*
Y54700D01*
X-126300D01*
Y54600D01*
Y54500D01*
Y54400D01*
X-126200D01*
Y54300D01*
Y54200D01*
Y54100D01*
X-126100D01*
Y54000D01*
Y53900D01*
Y53800D01*
Y53700D01*
X-126000D01*
Y53600D01*
Y53500D01*
Y53400D01*
X-125900D01*
Y53500D01*
Y53600D01*
Y53700D01*
X-125800D01*
Y53800D01*
Y53900D01*
Y54000D01*
Y54100D01*
Y54200D01*
X-125700D01*
Y54300D01*
Y54400D01*
Y54500D01*
Y54600D01*
Y54700D01*
X-125600D01*
Y54800D01*
Y54900D01*
Y55000D01*
Y55100D01*
Y55200D01*
X-125500D01*
Y55300D01*
Y55400D01*
Y55500D01*
X-125400D01*
Y55600D01*
Y55700D01*
Y55800D01*
Y55900D01*
X-125300D01*
Y56000D01*
Y56100D01*
Y56200D01*
Y56300D01*
X-125200D01*
Y56400D01*
Y56500D01*
Y56600D01*
Y56700D01*
X-125100D01*
Y56800D01*
Y56900D01*
Y57000D01*
Y57100D01*
Y57200D01*
Y57300D01*
X-122400D01*
Y57200D01*
D02*
G37*
G36*
X-130400D02*
Y57100D01*
Y57000D01*
X-130500D01*
Y56900D01*
Y56800D01*
X-130600D01*
Y56700D01*
Y56600D01*
Y56500D01*
X-130700D01*
Y56400D01*
Y56300D01*
Y56200D01*
X-130800D01*
Y56100D01*
Y56000D01*
Y55900D01*
X-130900D01*
Y55800D01*
Y55700D01*
Y55600D01*
X-131000D01*
Y55500D01*
Y55400D01*
Y55300D01*
X-131100D01*
Y55200D01*
Y55100D01*
X-131200D01*
Y55000D01*
Y54900D01*
Y54800D01*
X-131300D01*
Y54700D01*
Y54600D01*
Y54500D01*
X-131400D01*
Y54400D01*
Y54300D01*
Y54200D01*
X-131500D01*
Y54100D01*
Y54000D01*
Y53900D01*
X-131600D01*
Y53800D01*
Y53700D01*
Y53600D01*
X-131700D01*
Y53500D01*
Y53400D01*
Y53300D01*
X-131800D01*
Y53200D01*
Y53100D01*
Y53000D01*
X-131900D01*
Y52900D01*
Y52800D01*
X-132000D01*
Y52700D01*
Y52600D01*
Y52500D01*
X-132100D01*
Y52400D01*
Y52300D01*
Y52200D01*
X-132200D01*
Y52100D01*
Y52000D01*
Y51900D01*
X-132300D01*
Y51800D01*
Y51700D01*
Y51600D01*
X-132400D01*
Y51500D01*
Y51400D01*
Y51300D01*
X-132500D01*
Y51200D01*
Y51100D01*
Y51000D01*
X-132600D01*
Y50900D01*
X-134900D01*
Y51000D01*
X-135000D01*
Y51100D01*
Y51200D01*
X-135100D01*
Y51300D01*
Y51400D01*
X-135200D01*
Y51500D01*
Y51600D01*
Y51700D01*
X-135300D01*
Y51800D01*
Y51900D01*
X-135400D01*
Y52000D01*
Y52100D01*
X-135500D01*
Y52200D01*
Y52300D01*
X-135600D01*
Y52400D01*
Y52500D01*
X-135700D01*
Y52600D01*
Y52700D01*
X-135800D01*
Y52800D01*
Y52900D01*
X-135900D01*
Y53000D01*
X-136000D01*
Y53100D01*
Y53200D01*
X-136100D01*
Y53300D01*
Y53400D01*
X-136200D01*
Y53500D01*
Y53600D01*
X-136300D01*
Y53700D01*
Y53800D01*
X-136400D01*
Y53900D01*
Y54000D01*
X-136500D01*
Y54100D01*
Y54200D01*
X-136600D01*
Y54300D01*
Y54400D01*
X-136700D01*
Y54500D01*
Y54600D01*
X-136800D01*
Y54700D01*
Y54800D01*
X-136900D01*
Y54900D01*
Y55000D01*
X-137000D01*
Y55100D01*
Y55200D01*
X-137100D01*
Y55300D01*
Y55400D01*
X-137200D01*
Y55500D01*
Y55600D01*
X-137300D01*
Y55700D01*
Y55800D01*
X-137400D01*
Y55900D01*
Y56000D01*
X-137500D01*
Y56100D01*
Y56200D01*
X-137600D01*
Y56300D01*
Y56400D01*
X-137700D01*
Y56500D01*
Y56600D01*
X-137800D01*
Y56700D01*
Y56800D01*
X-137900D01*
Y56900D01*
Y57000D01*
X-138000D01*
Y57100D01*
Y57200D01*
X-138100D01*
Y57300D01*
X-136000D01*
Y57200D01*
X-135900D01*
Y57100D01*
Y57000D01*
Y56900D01*
X-135800D01*
Y56800D01*
Y56700D01*
X-135700D01*
Y56600D01*
Y56500D01*
X-135600D01*
Y56400D01*
Y56300D01*
Y56200D01*
X-135500D01*
Y56100D01*
Y56000D01*
X-135400D01*
Y55900D01*
Y55800D01*
X-135300D01*
Y55700D01*
Y55600D01*
X-135200D01*
Y55500D01*
Y55400D01*
X-135100D01*
Y55300D01*
Y55200D01*
Y55100D01*
X-135000D01*
Y55000D01*
Y54900D01*
X-134900D01*
Y54800D01*
Y54700D01*
X-134800D01*
Y54600D01*
Y54500D01*
X-134700D01*
Y54400D01*
Y54300D01*
X-134600D01*
Y54200D01*
Y54100D01*
X-134500D01*
Y54000D01*
Y53900D01*
Y53800D01*
X-134400D01*
Y53700D01*
Y53600D01*
X-134300D01*
Y53500D01*
Y53400D01*
X-134200D01*
Y53300D01*
Y53200D01*
X-134100D01*
Y53100D01*
Y53000D01*
Y52900D01*
X-134000D01*
Y52800D01*
Y52700D01*
X-133900D01*
Y52600D01*
X-133800D01*
Y52700D01*
Y52800D01*
Y52900D01*
Y53000D01*
X-133700D01*
Y53100D01*
Y53200D01*
Y53300D01*
Y53400D01*
X-133600D01*
Y53500D01*
Y53600D01*
Y53700D01*
X-133500D01*
Y53800D01*
Y53900D01*
Y54000D01*
X-133400D01*
Y54100D01*
Y54200D01*
Y54300D01*
X-133300D01*
Y54400D01*
Y54500D01*
Y54600D01*
Y54700D01*
X-133200D01*
Y54800D01*
Y54900D01*
Y55000D01*
X-133100D01*
Y55100D01*
Y55200D01*
Y55300D01*
X-133000D01*
Y55400D01*
Y55500D01*
Y55600D01*
X-132900D01*
Y55700D01*
Y55800D01*
Y55900D01*
X-132800D01*
Y56000D01*
Y56100D01*
Y56200D01*
X-132700D01*
Y56300D01*
Y56400D01*
Y56500D01*
Y56600D01*
X-132600D01*
Y56700D01*
Y56800D01*
Y56900D01*
X-132500D01*
Y57000D01*
Y57100D01*
Y57200D01*
Y57300D01*
X-130400D01*
Y57200D01*
D02*
G37*
G36*
X-111500Y55700D02*
X-111100D01*
Y55600D01*
X-110900D01*
Y55500D01*
X-110700D01*
Y55400D01*
X-110600D01*
Y55300D01*
X-110400D01*
Y55200D01*
X-110300D01*
Y55100D01*
X-110200D01*
Y55000D01*
X-110100D01*
Y54900D01*
Y54800D01*
X-110000D01*
Y54700D01*
X-109900D01*
Y54600D01*
Y54500D01*
X-109800D01*
Y54400D01*
Y54300D01*
X-109700D01*
Y54200D01*
Y54100D01*
Y54000D01*
X-109600D01*
Y53900D01*
Y53800D01*
Y53700D01*
Y53600D01*
Y53500D01*
X-109500D01*
Y53400D01*
Y53300D01*
Y53200D01*
Y53100D01*
Y53000D01*
Y52900D01*
Y52800D01*
X-109600D01*
Y52700D01*
Y52600D01*
Y52500D01*
Y52400D01*
Y52300D01*
X-109700D01*
Y52200D01*
Y52100D01*
Y52000D01*
X-109800D01*
Y51900D01*
Y51800D01*
X-109900D01*
Y51700D01*
X-110000D01*
Y51600D01*
X-110100D01*
Y51500D01*
X-110200D01*
Y51400D01*
X-110300D01*
Y51300D01*
X-110400D01*
Y51200D01*
X-110500D01*
Y51100D01*
X-110700D01*
Y51000D01*
X-111000D01*
Y50900D01*
X-111400D01*
Y50800D01*
X-113500D01*
Y50900D01*
X-114100D01*
Y51000D01*
Y51100D01*
Y51200D01*
Y51300D01*
X-114200D01*
Y51400D01*
Y51500D01*
Y51600D01*
Y51700D01*
Y51800D01*
Y51900D01*
X-114300D01*
Y52000D01*
Y52100D01*
Y52200D01*
Y52300D01*
X-114100D01*
Y52200D01*
X-113700D01*
Y52100D01*
X-113200D01*
Y52000D01*
X-112200D01*
Y52100D01*
X-111900D01*
Y52200D01*
X-111700D01*
Y52300D01*
X-111600D01*
Y52400D01*
X-111500D01*
Y52500D01*
Y52600D01*
X-111400D01*
Y52700D01*
Y52800D01*
Y52900D01*
Y53000D01*
Y53100D01*
X-114700D01*
Y53200D01*
Y53300D01*
Y53400D01*
Y53500D01*
Y53600D01*
X-114800D01*
Y53700D01*
Y53800D01*
X-114700D01*
Y53900D01*
Y54000D01*
Y54100D01*
Y54200D01*
Y54300D01*
Y54400D01*
X-114600D01*
Y54500D01*
Y54600D01*
Y54700D01*
X-114500D01*
Y54800D01*
Y54900D01*
X-114400D01*
Y55000D01*
X-114300D01*
Y55100D01*
X-114200D01*
Y55200D01*
X-114100D01*
Y55300D01*
X-114000D01*
Y55400D01*
X-113900D01*
Y55500D01*
X-113700D01*
Y55600D01*
X-113500D01*
Y55700D01*
X-113100D01*
Y55800D01*
X-111500D01*
Y55700D01*
D02*
G37*
G36*
X-118600D02*
X-118200D01*
Y55600D01*
X-118000D01*
Y55500D01*
X-117900D01*
Y55400D01*
X-117700D01*
Y55300D01*
X-117600D01*
Y55200D01*
X-117500D01*
Y55300D01*
Y55400D01*
Y55500D01*
Y55600D01*
Y55700D01*
X-115600D01*
Y55600D01*
Y55500D01*
Y55400D01*
Y55300D01*
Y55200D01*
Y55100D01*
Y55000D01*
Y54900D01*
Y54800D01*
Y54700D01*
Y54600D01*
Y54500D01*
Y54400D01*
Y54300D01*
Y54200D01*
Y54100D01*
Y54000D01*
Y53900D01*
Y53800D01*
Y53700D01*
Y53600D01*
X-115500D01*
Y53500D01*
Y53400D01*
Y53300D01*
Y53200D01*
Y53100D01*
Y53000D01*
Y52900D01*
Y52800D01*
Y52700D01*
Y52600D01*
Y52500D01*
Y52400D01*
Y52300D01*
Y52200D01*
Y52100D01*
X-115400D01*
Y52000D01*
Y51900D01*
Y51800D01*
Y51700D01*
Y51600D01*
Y51500D01*
Y51400D01*
Y51300D01*
Y51200D01*
X-115300D01*
Y51100D01*
Y51000D01*
Y50900D01*
X-117300D01*
Y51000D01*
Y51100D01*
Y51200D01*
Y51300D01*
Y51400D01*
Y51500D01*
Y51600D01*
Y51700D01*
Y51800D01*
Y51900D01*
Y52000D01*
Y52100D01*
Y52200D01*
Y52300D01*
Y52400D01*
Y52500D01*
Y52600D01*
Y52700D01*
X-117400D01*
Y52800D01*
Y52900D01*
Y53000D01*
Y53100D01*
Y53200D01*
Y53300D01*
X-117500D01*
Y53400D01*
Y53500D01*
Y53600D01*
Y53700D01*
X-117600D01*
Y53800D01*
Y53900D01*
X-117700D01*
Y54000D01*
X-117800D01*
Y54100D01*
X-117900D01*
Y54200D01*
X-118100D01*
Y54300D01*
X-118700D01*
Y54200D01*
X-118900D01*
Y54100D01*
X-119000D01*
Y54000D01*
Y53900D01*
X-119100D01*
Y53800D01*
Y53700D01*
Y53600D01*
Y53500D01*
Y53400D01*
Y53300D01*
Y53200D01*
Y53100D01*
Y53000D01*
Y52900D01*
Y52800D01*
Y52700D01*
Y52600D01*
Y52500D01*
Y52400D01*
Y52300D01*
Y52200D01*
Y52100D01*
Y52000D01*
Y51900D01*
Y51800D01*
Y51700D01*
Y51600D01*
X-119000D01*
Y51500D01*
Y51400D01*
Y51300D01*
Y51200D01*
Y51100D01*
Y51000D01*
Y50900D01*
X-120900D01*
Y51000D01*
Y51100D01*
Y51200D01*
Y51300D01*
Y51400D01*
Y51500D01*
Y51600D01*
Y51700D01*
Y51800D01*
Y51900D01*
Y52000D01*
Y52100D01*
Y52200D01*
Y52300D01*
X-121000D01*
Y52400D01*
Y52500D01*
Y52600D01*
Y52700D01*
Y52800D01*
Y52900D01*
Y53000D01*
Y53100D01*
Y53200D01*
Y53300D01*
Y53400D01*
Y53500D01*
Y53600D01*
Y53700D01*
Y53800D01*
Y53900D01*
Y54000D01*
Y54100D01*
Y54200D01*
X-121100D01*
Y54300D01*
Y54400D01*
X-121000D01*
Y54500D01*
Y54600D01*
Y54700D01*
Y54800D01*
Y54900D01*
X-120900D01*
Y55000D01*
Y55100D01*
X-120800D01*
Y55200D01*
Y55300D01*
X-120700D01*
Y55400D01*
X-120600D01*
Y55500D01*
X-120400D01*
Y55600D01*
X-120200D01*
Y55700D01*
X-119900D01*
Y55800D01*
X-118600D01*
Y55700D01*
D02*
G37*
G36*
X-102100Y56000D02*
X-101900D01*
Y55900D01*
X-101800D01*
Y55800D01*
X-101600D01*
Y55700D01*
X-101400D01*
Y55600D01*
X-101200D01*
Y55500D01*
X-101100D01*
Y55400D01*
X-100900D01*
Y55300D01*
X-100700D01*
Y55200D01*
X-100500D01*
Y55100D01*
X-100400D01*
Y55000D01*
X-100200D01*
Y54900D01*
X-100000D01*
Y54800D01*
X-99800D01*
Y54700D01*
X-99700D01*
Y54600D01*
X-99500D01*
Y54500D01*
X-99300D01*
Y54400D01*
X-99200D01*
Y54300D01*
X-99000D01*
Y54200D01*
X-98800D01*
Y54100D01*
X-98600D01*
Y54000D01*
X-98500D01*
Y53900D01*
X-98300D01*
Y53800D01*
X-98100D01*
Y53700D01*
X-97900D01*
Y53600D01*
X-97800D01*
Y53500D01*
X-97600D01*
Y53400D01*
X-97400D01*
Y53300D01*
X-97200D01*
Y53200D01*
X-97100D01*
Y53100D01*
X-96900D01*
Y53000D01*
X-96700D01*
Y52900D01*
Y52800D01*
X-96900D01*
Y52700D01*
X-97000D01*
Y52600D01*
X-97200D01*
Y52500D01*
X-97400D01*
Y52400D01*
X-97600D01*
Y52300D01*
X-97700D01*
Y52200D01*
X-97900D01*
Y52100D01*
X-98100D01*
Y52000D01*
X-98300D01*
Y51900D01*
X-98400D01*
Y51800D01*
X-98600D01*
Y51700D01*
X-98800D01*
Y51600D01*
X-99000D01*
Y51500D01*
X-99100D01*
Y51400D01*
X-99300D01*
Y51300D01*
X-99500D01*
Y51200D01*
X-99600D01*
Y51100D01*
X-99800D01*
Y51000D01*
X-100000D01*
Y50900D01*
X-100200D01*
Y50800D01*
X-100300D01*
Y50700D01*
X-100500D01*
Y50800D01*
X-100600D01*
Y50900D01*
X-100700D01*
Y51000D01*
X-100800D01*
Y51100D01*
X-100900D01*
Y51200D01*
Y51300D01*
X-101000D01*
Y51400D01*
X-101100D01*
Y51500D01*
X-101200D01*
Y51600D01*
Y51700D01*
X-101300D01*
Y51800D01*
X-101400D01*
Y51900D01*
Y52000D01*
X-101500D01*
Y52100D01*
Y52200D01*
X-101600D01*
Y52300D01*
Y52400D01*
X-101700D01*
Y52500D01*
Y52600D01*
X-101800D01*
Y52700D01*
Y52800D01*
Y52900D01*
X-101900D01*
Y53000D01*
Y53100D01*
X-102000D01*
Y53200D01*
Y53300D01*
Y53400D01*
Y53500D01*
X-102100D01*
Y53600D01*
Y53700D01*
Y53800D01*
Y53900D01*
X-102200D01*
Y54000D01*
Y54100D01*
Y54200D01*
Y54300D01*
Y54400D01*
Y54500D01*
Y54600D01*
X-102300D01*
Y54700D01*
Y54800D01*
Y54900D01*
Y55000D01*
Y55100D01*
Y55200D01*
Y55300D01*
Y55400D01*
Y55500D01*
Y55600D01*
Y55700D01*
Y55800D01*
Y55900D01*
X-102200D01*
Y56000D01*
Y56100D01*
X-102100D01*
Y56000D01*
D02*
G37*
G36*
X-93200Y55500D02*
X-93000D01*
Y55400D01*
X-92900D01*
Y55300D01*
X-92700D01*
Y55200D01*
X-92500D01*
Y55100D01*
X-92300D01*
Y55000D01*
X-92200D01*
Y54900D01*
X-92000D01*
Y54800D01*
X-91800D01*
Y54700D01*
X-91600D01*
Y54600D01*
X-91500D01*
Y54500D01*
X-91300D01*
Y54400D01*
X-91100D01*
Y54300D01*
X-90900D01*
Y54200D01*
X-90800D01*
Y54100D01*
X-90600D01*
Y54000D01*
X-90400D01*
Y53900D01*
X-90300D01*
Y53800D01*
X-90100D01*
Y53700D01*
X-89900D01*
Y53600D01*
X-89700D01*
Y53500D01*
X-89600D01*
Y53400D01*
X-89500D01*
Y53300D01*
X-89600D01*
Y53200D01*
Y53100D01*
Y53000D01*
X-89700D01*
Y52900D01*
Y52800D01*
Y52700D01*
X-89800D01*
Y52600D01*
Y52500D01*
X-89900D01*
Y52400D01*
Y52300D01*
X-90000D01*
Y52200D01*
Y52100D01*
X-90100D01*
Y52000D01*
X-90200D01*
Y51900D01*
Y51800D01*
X-90300D01*
Y51700D01*
Y51600D01*
X-90400D01*
Y51500D01*
X-90500D01*
Y51400D01*
Y51300D01*
X-90600D01*
Y51200D01*
X-90700D01*
Y51100D01*
X-90800D01*
Y51000D01*
X-90900D01*
Y50900D01*
Y50800D01*
X-91100D01*
Y50700D01*
Y50600D01*
X-91200D01*
Y50500D01*
X-91300D01*
Y50400D01*
X-91500D01*
Y50300D01*
X-91600D01*
Y50200D01*
X-91700D01*
Y50100D01*
X-91800D01*
Y50000D01*
X-92000D01*
Y49900D01*
X-92100D01*
Y49800D01*
X-92200D01*
Y49700D01*
X-92400D01*
Y49600D01*
X-92600D01*
Y49500D01*
X-92700D01*
Y49400D01*
X-92900D01*
Y49300D01*
X-93200D01*
Y49200D01*
X-93400D01*
Y49300D01*
Y49400D01*
Y49500D01*
Y49600D01*
Y49700D01*
Y49800D01*
Y49900D01*
Y50000D01*
Y50100D01*
Y50200D01*
Y50300D01*
Y50400D01*
Y50500D01*
X-93300D01*
Y50600D01*
X-93400D01*
Y50700D01*
Y50800D01*
Y50900D01*
Y51000D01*
Y51100D01*
X-93300D01*
Y51200D01*
Y51300D01*
X-93400D01*
Y51400D01*
Y51500D01*
Y51600D01*
Y51700D01*
X-93300D01*
Y51800D01*
Y51900D01*
X-93400D01*
Y52000D01*
Y52100D01*
Y52200D01*
Y52300D01*
Y52400D01*
X-93300D01*
Y52500D01*
X-93400D01*
Y52600D01*
Y52700D01*
Y52800D01*
Y52900D01*
Y53000D01*
X-93300D01*
Y53100D01*
X-93400D01*
Y53200D01*
Y53300D01*
Y53400D01*
Y53500D01*
Y53600D01*
X-93300D01*
Y53700D01*
X-93400D01*
Y53800D01*
Y53900D01*
Y54000D01*
Y54100D01*
Y54200D01*
X-93300D01*
Y54300D01*
X-93400D01*
Y54400D01*
Y54500D01*
Y54600D01*
Y54700D01*
X-93300D01*
Y54800D01*
Y54900D01*
Y55000D01*
X-93400D01*
Y55100D01*
Y55200D01*
Y55300D01*
X-93300D01*
Y55400D01*
Y55500D01*
Y55600D01*
X-93200D01*
Y55500D01*
D02*
G37*
G36*
X-94200Y53200D02*
Y53100D01*
Y53000D01*
Y52900D01*
Y52800D01*
Y52700D01*
Y52600D01*
Y52500D01*
Y52400D01*
Y52300D01*
Y52200D01*
Y52100D01*
Y52000D01*
Y51900D01*
Y51800D01*
Y51700D01*
Y51600D01*
Y51500D01*
Y51400D01*
Y51300D01*
Y51200D01*
Y51100D01*
Y51000D01*
Y50900D01*
Y50800D01*
Y50700D01*
Y50600D01*
Y50500D01*
Y50400D01*
Y50300D01*
Y50200D01*
Y50100D01*
Y50000D01*
Y49900D01*
Y49800D01*
Y49700D01*
Y49600D01*
Y49500D01*
Y49400D01*
Y49300D01*
Y49200D01*
Y49100D01*
Y49000D01*
Y48900D01*
X-94300D01*
Y48800D01*
X-95000D01*
Y48700D01*
X-96500D01*
Y48800D01*
X-97200D01*
Y48900D01*
X-97600D01*
Y49000D01*
X-97900D01*
Y49100D01*
X-98200D01*
Y49200D01*
X-98400D01*
Y49300D01*
X-98600D01*
Y49400D01*
X-98800D01*
Y49500D01*
X-99000D01*
Y49600D01*
X-99200D01*
Y49700D01*
X-99300D01*
Y49800D01*
X-99500D01*
Y49900D01*
X-99600D01*
Y50000D01*
X-99800D01*
Y50100D01*
X-99700D01*
Y50200D01*
X-99500D01*
Y50300D01*
X-99300D01*
Y50400D01*
X-99200D01*
Y50500D01*
X-99000D01*
Y50600D01*
X-98800D01*
Y50700D01*
X-98700D01*
Y50800D01*
X-98500D01*
Y50900D01*
X-98300D01*
Y51000D01*
X-98100D01*
Y51100D01*
X-97900D01*
Y51200D01*
X-97800D01*
Y51300D01*
X-97600D01*
Y51400D01*
X-97400D01*
Y51500D01*
X-97300D01*
Y51600D01*
X-97100D01*
Y51700D01*
X-96900D01*
Y51800D01*
X-96800D01*
Y51900D01*
X-96600D01*
Y52000D01*
X-96400D01*
Y52100D01*
X-96200D01*
Y52200D01*
X-96100D01*
Y52300D01*
X-95900D01*
Y52400D01*
X-95700D01*
Y52500D01*
X-95500D01*
Y52600D01*
X-95400D01*
Y52700D01*
X-95200D01*
Y52800D01*
X-95000D01*
Y52900D01*
X-94800D01*
Y53000D01*
X-94700D01*
Y53100D01*
X-94500D01*
Y53200D01*
X-94300D01*
Y53300D01*
X-94200D01*
Y53200D01*
D02*
G37*
G36*
X-104800Y55700D02*
X-104000D01*
Y55600D01*
X-103500D01*
Y55500D01*
Y55400D01*
Y55300D01*
Y55200D01*
Y55100D01*
Y55000D01*
Y54900D01*
Y54800D01*
Y54700D01*
Y54600D01*
Y54500D01*
Y54400D01*
Y54300D01*
Y54200D01*
Y54100D01*
Y54000D01*
Y53900D01*
Y53800D01*
Y53700D01*
Y53600D01*
Y53500D01*
Y53400D01*
Y53300D01*
Y53200D01*
Y53100D01*
Y53000D01*
Y52900D01*
Y52800D01*
Y52700D01*
Y52600D01*
Y52500D01*
X-103400D01*
Y52400D01*
Y52300D01*
Y52200D01*
Y52100D01*
Y52000D01*
Y51900D01*
Y51800D01*
Y51700D01*
Y51600D01*
Y51500D01*
Y51400D01*
Y51300D01*
Y51200D01*
Y51100D01*
Y51000D01*
Y50900D01*
X-103300D01*
Y50800D01*
Y50700D01*
Y50600D01*
Y50500D01*
Y50400D01*
Y50300D01*
Y50200D01*
Y50100D01*
Y50000D01*
Y49900D01*
Y49800D01*
Y49700D01*
Y49600D01*
Y49500D01*
X-103200D01*
Y49400D01*
Y49300D01*
Y49200D01*
Y49100D01*
Y49000D01*
Y48900D01*
Y48800D01*
Y48700D01*
X-105100D01*
Y48800D01*
Y48900D01*
Y49000D01*
Y49100D01*
Y49200D01*
Y49300D01*
Y49400D01*
Y49500D01*
Y49600D01*
Y49700D01*
Y49800D01*
Y49900D01*
Y50000D01*
Y50100D01*
Y50200D01*
Y50300D01*
X-105200D01*
Y50400D01*
Y50500D01*
Y50600D01*
Y50700D01*
Y50800D01*
Y50900D01*
Y51000D01*
Y51100D01*
Y51200D01*
Y51300D01*
X-105400D01*
Y51200D01*
X-105500D01*
Y51100D01*
X-105700D01*
Y51000D01*
X-105900D01*
Y50900D01*
X-106300D01*
Y50800D01*
X-107400D01*
Y50900D01*
X-107700D01*
Y51000D01*
X-107900D01*
Y51100D01*
X-108000D01*
Y51200D01*
X-108200D01*
Y51300D01*
X-108300D01*
Y51400D01*
Y51500D01*
X-108400D01*
Y51600D01*
X-108500D01*
Y51700D01*
X-108600D01*
Y51800D01*
Y51900D01*
X-108700D01*
Y52000D01*
Y52100D01*
X-108800D01*
Y52200D01*
Y52300D01*
Y52400D01*
X-108900D01*
Y52500D01*
Y52600D01*
Y52700D01*
Y52800D01*
Y52900D01*
X-109000D01*
Y53000D01*
Y53100D01*
Y53200D01*
Y53300D01*
Y53400D01*
Y53500D01*
Y53600D01*
Y53700D01*
X-108900D01*
Y53800D01*
Y53900D01*
Y54000D01*
Y54100D01*
X-108800D01*
Y54200D01*
Y54300D01*
Y54400D01*
X-108700D01*
Y54500D01*
Y54600D01*
Y54700D01*
X-108600D01*
Y54800D01*
X-108500D01*
Y54900D01*
Y55000D01*
X-108400D01*
Y55100D01*
X-108300D01*
Y55200D01*
X-108200D01*
Y55300D01*
X-108100D01*
Y55400D01*
X-107900D01*
Y55500D01*
X-107800D01*
Y55600D01*
X-107500D01*
Y55700D01*
X-107000D01*
Y55800D01*
X-104800D01*
Y55700D01*
D02*
G37*
G36*
X-132100Y40100D02*
X-132000D01*
Y40000D01*
X-131900D01*
Y39900D01*
X-131800D01*
Y39800D01*
X-131600D01*
Y39700D01*
X-131500D01*
Y39600D01*
X-131600D01*
Y39500D01*
X-131700D01*
Y39400D01*
X-131800D01*
Y39300D01*
X-131900D01*
Y39200D01*
X-132100D01*
Y39100D01*
X-132200D01*
Y39000D01*
X-132300D01*
Y38900D01*
X-132400D01*
Y38800D01*
X-132500D01*
Y38700D01*
X-132600D01*
Y38600D01*
X-132800D01*
Y38500D01*
X-132900D01*
Y38400D01*
X-133000D01*
Y38300D01*
X-133100D01*
Y38200D01*
X-133200D01*
Y38100D01*
X-133300D01*
Y38000D01*
X-133500D01*
Y37900D01*
X-133600D01*
Y37800D01*
X-133700D01*
Y37700D01*
X-133800D01*
Y37600D01*
X-133900D01*
Y37500D01*
X-134000D01*
Y37400D01*
X-134100D01*
Y37300D01*
X-134300D01*
Y37200D01*
X-134400D01*
Y37100D01*
X-134500D01*
Y37000D01*
X-134600D01*
Y36900D01*
X-134700D01*
Y36800D01*
X-134800D01*
Y36700D01*
X-135000D01*
Y36600D01*
Y36500D01*
X-135100D01*
Y36400D01*
Y36300D01*
Y36200D01*
Y36100D01*
Y36000D01*
Y35900D01*
Y35800D01*
Y35700D01*
X-135200D01*
Y35600D01*
Y35500D01*
Y35400D01*
Y35300D01*
Y35200D01*
Y35100D01*
Y35000D01*
Y34900D01*
X-135300D01*
Y34800D01*
Y34700D01*
Y34600D01*
Y34500D01*
Y34400D01*
Y34300D01*
Y34200D01*
Y34100D01*
Y34000D01*
Y33900D01*
X-135400D01*
Y33800D01*
Y33700D01*
Y33600D01*
Y33500D01*
Y33400D01*
Y33300D01*
Y33200D01*
Y33100D01*
X-135500D01*
Y33000D01*
Y32900D01*
Y32800D01*
Y32700D01*
Y32600D01*
Y32500D01*
Y32400D01*
Y32300D01*
X-135600D01*
Y32200D01*
Y32100D01*
Y32000D01*
Y31900D01*
Y31800D01*
Y31700D01*
Y31600D01*
Y31500D01*
X-135500D01*
Y31400D01*
X-135400D01*
Y31300D01*
X-135300D01*
Y31200D01*
X-135100D01*
Y31100D01*
X-135000D01*
Y31000D01*
X-134900D01*
Y30900D01*
X-134800D01*
Y30800D01*
X-134700D01*
Y30700D01*
X-134600D01*
Y30600D01*
X-134500D01*
Y30500D01*
X-134300D01*
Y30400D01*
X-134200D01*
Y30300D01*
X-134100D01*
Y30200D01*
X-134000D01*
Y30100D01*
X-133900D01*
Y30000D01*
X-133800D01*
Y29900D01*
X-133700D01*
Y29800D01*
X-133500D01*
Y29700D01*
X-133400D01*
Y29600D01*
X-133300D01*
Y29500D01*
X-133200D01*
Y29400D01*
X-133100D01*
Y29300D01*
X-133000D01*
Y29200D01*
X-132800D01*
Y29100D01*
X-132700D01*
Y29000D01*
X-132600D01*
Y28900D01*
X-132500D01*
Y28800D01*
X-132400D01*
Y28700D01*
X-132300D01*
Y28600D01*
X-132200D01*
Y28500D01*
X-132000D01*
Y28400D01*
X-131900D01*
Y28300D01*
X-131800D01*
Y28200D01*
X-131700D01*
Y28100D01*
X-131600D01*
Y28000D01*
Y27900D01*
X-131700D01*
Y27800D01*
X-131800D01*
Y27700D01*
X-131900D01*
Y27600D01*
X-132000D01*
Y27500D01*
X-132100D01*
Y27400D01*
X-132200D01*
Y27500D01*
X-132300D01*
Y27600D01*
X-132500D01*
Y27700D01*
X-132600D01*
Y27800D01*
X-132700D01*
Y27900D01*
X-132800D01*
Y28000D01*
X-132900D01*
Y28100D01*
X-133000D01*
Y28200D01*
X-133100D01*
Y28300D01*
X-133300D01*
Y28400D01*
X-133400D01*
Y28500D01*
X-133500D01*
Y28600D01*
X-133600D01*
Y28700D01*
X-133700D01*
Y28800D01*
X-133800D01*
Y28900D01*
X-134000D01*
Y29000D01*
X-134100D01*
Y29100D01*
X-134200D01*
Y29200D01*
X-134300D01*
Y29300D01*
X-134400D01*
Y29400D01*
X-134500D01*
Y29500D01*
X-134600D01*
Y29600D01*
X-134800D01*
Y29700D01*
X-134900D01*
Y29800D01*
X-135000D01*
Y29900D01*
X-135100D01*
Y30000D01*
X-135200D01*
Y30100D01*
X-135300D01*
Y30200D01*
X-135500D01*
Y30300D01*
X-135600D01*
Y30400D01*
X-135800D01*
Y30300D01*
Y30200D01*
Y30100D01*
Y30000D01*
Y29900D01*
Y29800D01*
Y29700D01*
X-135900D01*
Y29600D01*
Y29500D01*
Y29400D01*
Y29300D01*
Y29200D01*
Y29100D01*
Y29000D01*
Y28900D01*
Y28800D01*
X-136000D01*
Y28700D01*
X-136100D01*
Y28600D01*
X-136400D01*
Y28500D01*
Y28400D01*
Y28300D01*
Y28200D01*
Y28100D01*
Y28000D01*
Y27900D01*
X-137000D01*
Y28000D01*
X-137100D01*
Y28100D01*
Y28200D01*
Y28300D01*
Y28400D01*
Y28500D01*
Y28600D01*
X-140400D01*
Y28500D01*
X-140500D01*
Y28400D01*
Y28300D01*
X-140600D01*
Y28200D01*
X-140700D01*
Y28100D01*
X-140900D01*
Y28000D01*
X-141200D01*
Y27900D01*
X-141600D01*
Y28000D01*
X-141900D01*
Y28100D01*
X-142100D01*
Y28200D01*
X-142200D01*
Y28300D01*
X-142300D01*
Y28400D01*
Y28500D01*
X-142400D01*
Y28600D01*
Y28700D01*
Y28800D01*
Y28900D01*
Y29000D01*
Y29100D01*
X-142300D01*
Y29200D01*
Y29300D01*
X-142200D01*
Y29400D01*
X-142100D01*
Y29500D01*
X-141900D01*
Y29600D01*
Y29700D01*
Y29800D01*
Y29900D01*
Y30000D01*
X-142000D01*
Y30100D01*
Y30200D01*
Y30300D01*
Y30400D01*
Y30500D01*
X-142100D01*
Y30400D01*
X-142200D01*
Y30300D01*
X-142300D01*
Y30200D01*
X-142500D01*
Y30100D01*
X-142600D01*
Y30000D01*
X-142700D01*
Y29900D01*
X-142800D01*
Y29800D01*
X-142900D01*
Y29700D01*
X-143000D01*
Y29600D01*
X-143200D01*
Y29500D01*
X-143300D01*
Y29400D01*
X-143400D01*
Y29300D01*
X-143500D01*
Y29200D01*
X-143600D01*
Y29100D01*
X-143700D01*
Y29000D01*
X-143800D01*
Y28900D01*
X-144000D01*
Y28800D01*
X-144100D01*
Y28700D01*
X-144200D01*
Y28600D01*
X-144300D01*
Y28500D01*
X-144400D01*
Y28400D01*
X-144500D01*
Y28300D01*
X-144700D01*
Y28200D01*
X-144800D01*
Y28100D01*
X-144900D01*
Y28000D01*
X-145000D01*
Y27900D01*
X-145100D01*
Y27800D01*
X-145200D01*
Y27700D01*
X-145300D01*
Y27600D01*
X-145500D01*
Y27500D01*
X-145600D01*
Y27400D01*
X-145700D01*
Y27500D01*
X-145800D01*
Y27600D01*
X-145900D01*
Y27700D01*
X-146000D01*
Y27800D01*
X-146100D01*
Y27900D01*
X-146200D01*
Y28000D01*
Y28100D01*
X-146100D01*
Y28200D01*
X-146000D01*
Y28300D01*
X-145900D01*
Y28400D01*
X-145800D01*
Y28500D01*
X-145600D01*
Y28600D01*
X-145500D01*
Y28700D01*
X-145400D01*
Y28800D01*
X-145300D01*
Y28900D01*
X-145200D01*
Y29000D01*
X-145100D01*
Y29100D01*
X-145000D01*
Y29200D01*
X-144800D01*
Y29300D01*
X-144700D01*
Y29400D01*
X-144600D01*
Y29500D01*
X-144500D01*
Y29600D01*
X-144400D01*
Y29700D01*
X-144300D01*
Y29800D01*
X-144100D01*
Y29900D01*
X-144000D01*
Y30000D01*
X-143900D01*
Y30100D01*
X-143800D01*
Y30200D01*
X-143700D01*
Y30300D01*
X-143600D01*
Y30400D01*
X-143500D01*
Y30500D01*
X-143300D01*
Y30600D01*
X-143200D01*
Y30700D01*
X-143100D01*
Y30800D01*
X-143000D01*
Y30900D01*
X-142900D01*
Y31000D01*
X-142800D01*
Y31100D01*
X-142600D01*
Y31200D01*
X-142500D01*
Y31300D01*
X-142400D01*
Y31400D01*
X-142300D01*
Y31500D01*
X-142200D01*
Y31600D01*
Y31700D01*
Y31800D01*
Y31900D01*
Y32000D01*
Y32100D01*
Y32200D01*
Y32300D01*
Y32400D01*
Y32500D01*
Y32600D01*
X-142300D01*
Y32700D01*
Y32800D01*
Y32900D01*
Y33000D01*
Y33100D01*
Y33200D01*
Y33300D01*
Y33400D01*
X-142400D01*
Y33500D01*
Y33600D01*
Y33700D01*
Y33800D01*
Y33900D01*
Y34000D01*
Y34100D01*
Y34200D01*
X-142500D01*
Y34300D01*
Y34400D01*
Y34500D01*
Y34600D01*
Y34700D01*
Y34800D01*
Y34900D01*
Y35000D01*
Y35100D01*
Y35200D01*
X-142600D01*
Y35300D01*
Y35400D01*
Y35500D01*
Y35600D01*
Y35700D01*
Y35800D01*
Y35900D01*
Y36000D01*
X-142700D01*
Y36100D01*
Y36200D01*
Y36300D01*
Y36400D01*
Y36500D01*
Y36600D01*
X-142800D01*
Y36700D01*
X-143000D01*
Y36800D01*
X-143100D01*
Y36900D01*
X-143500D01*
Y37000D01*
Y37100D01*
Y37200D01*
Y37300D01*
X-143700D01*
Y37400D01*
X-143800D01*
Y37500D01*
X-143900D01*
Y37600D01*
X-144000D01*
Y37700D01*
X-144100D01*
Y37800D01*
X-144200D01*
Y37900D01*
X-144300D01*
Y38000D01*
X-144500D01*
Y38100D01*
X-144600D01*
Y38200D01*
X-144700D01*
Y38300D01*
X-144800D01*
Y38400D01*
X-144900D01*
Y38500D01*
X-145000D01*
Y38600D01*
X-145200D01*
Y38700D01*
X-145300D01*
Y38800D01*
X-145400D01*
Y38900D01*
X-145500D01*
Y39000D01*
X-145600D01*
Y39100D01*
X-145700D01*
Y39200D01*
X-145900D01*
Y39300D01*
X-146000D01*
Y39400D01*
X-146100D01*
Y39500D01*
X-146200D01*
Y39600D01*
X-146300D01*
Y39700D01*
X-146200D01*
Y39800D01*
X-146000D01*
Y39900D01*
X-145900D01*
Y40000D01*
X-145800D01*
Y40100D01*
X-145700D01*
Y40200D01*
X-145600D01*
Y40100D01*
X-145400D01*
Y40000D01*
X-145300D01*
Y39900D01*
X-145200D01*
Y39800D01*
X-145100D01*
Y39700D01*
X-145000D01*
Y39600D01*
X-144900D01*
Y39500D01*
X-144700D01*
Y39400D01*
X-144600D01*
Y39300D01*
X-144500D01*
Y39200D01*
X-144400D01*
Y39100D01*
X-144300D01*
Y39000D01*
X-144200D01*
Y38900D01*
X-144100D01*
Y38800D01*
X-143900D01*
Y38700D01*
X-143800D01*
Y38600D01*
X-143700D01*
Y38500D01*
X-143600D01*
Y38400D01*
X-143500D01*
Y38300D01*
X-143400D01*
Y38200D01*
X-143200D01*
Y38100D01*
X-143100D01*
Y38000D01*
X-143000D01*
Y37900D01*
X-142900D01*
Y38000D01*
Y38100D01*
Y38200D01*
Y38300D01*
X-143300D01*
Y38400D01*
X-143400D01*
Y38500D01*
X-143500D01*
Y38600D01*
Y38700D01*
Y38800D01*
Y38900D01*
Y39000D01*
X-143400D01*
Y39100D01*
X-143300D01*
Y39200D01*
X-142600D01*
Y39300D01*
X-142200D01*
Y39400D01*
X-141500D01*
Y39500D01*
X-140000D01*
Y39600D01*
X-138000D01*
Y39500D01*
X-136100D01*
Y39600D01*
Y39700D01*
X-135600D01*
Y39600D01*
Y39500D01*
Y39400D01*
X-135400D01*
Y39300D01*
X-135100D01*
Y39200D01*
X-135000D01*
Y39100D01*
X-134900D01*
Y39000D01*
Y38900D01*
X-134800D01*
Y38800D01*
X-134300D01*
Y38700D01*
Y38600D01*
Y38500D01*
Y38400D01*
X-134200D01*
Y38500D01*
X-134100D01*
Y38600D01*
X-134000D01*
Y38700D01*
X-133900D01*
Y38800D01*
X-133700D01*
Y38900D01*
X-133600D01*
Y39000D01*
X-133500D01*
Y39100D01*
X-133400D01*
Y39200D01*
X-133300D01*
Y39300D01*
X-133200D01*
Y39400D01*
X-133100D01*
Y39500D01*
X-132900D01*
Y39600D01*
X-132800D01*
Y39700D01*
X-132700D01*
Y39800D01*
X-132600D01*
Y39900D01*
X-132500D01*
Y40000D01*
X-132400D01*
Y40100D01*
X-132200D01*
Y40200D01*
X-132100D01*
Y40100D01*
D02*
G37*
G36*
X-131400Y27100D02*
Y27000D01*
Y26900D01*
Y26800D01*
Y26700D01*
Y26600D01*
Y26500D01*
Y26400D01*
Y26300D01*
Y26200D01*
Y26100D01*
Y26000D01*
Y25900D01*
Y25800D01*
Y25700D01*
Y25600D01*
Y25500D01*
Y25400D01*
Y25300D01*
X-146400D01*
Y25400D01*
Y25500D01*
Y25600D01*
Y25700D01*
Y25800D01*
Y25900D01*
Y26000D01*
Y26100D01*
Y26200D01*
Y26300D01*
Y26400D01*
Y26500D01*
Y26600D01*
Y26700D01*
Y26800D01*
Y26900D01*
Y27000D01*
Y27100D01*
Y27200D01*
X-131400D01*
Y27100D01*
D02*
G37*
G36*
X-85500Y40900D02*
X-84200D01*
Y40800D01*
X-83800D01*
Y40700D01*
X-83500D01*
Y40600D01*
X-83100D01*
Y40500D01*
X-82900D01*
Y40400D01*
X-82500D01*
Y40300D01*
X-82400D01*
Y40200D01*
X-82300D01*
Y40100D01*
X-82000D01*
Y40000D01*
X-81800D01*
Y39900D01*
X-81500D01*
Y39800D01*
Y39700D01*
X-81300D01*
Y39600D01*
X-81100D01*
Y39500D01*
X-81000D01*
Y39400D01*
X-80800D01*
Y39300D01*
Y39200D01*
X-80500D01*
Y39100D01*
Y39000D01*
X-80400D01*
Y38900D01*
X-80300D01*
Y38800D01*
X-80200D01*
Y38700D01*
X-80000D01*
Y38600D01*
Y38500D01*
X-79900D01*
Y38400D01*
X-79800D01*
Y38300D01*
X-79700D01*
Y38200D01*
X-79500D01*
Y38100D01*
Y38000D01*
Y37900D01*
X-79300D01*
Y37800D01*
Y37700D01*
X-79200D01*
Y37600D01*
X-79100D01*
Y37500D01*
Y37400D01*
X-79000D01*
Y37300D01*
Y37200D01*
X-78800D01*
Y37100D01*
Y37000D01*
Y36900D01*
X-78700D01*
Y36800D01*
X-78600D01*
Y36700D01*
Y36600D01*
Y36500D01*
X-78500D01*
Y36400D01*
Y36300D01*
X-78400D01*
Y36200D01*
X-78300D01*
Y36100D01*
Y36000D01*
Y35900D01*
Y35800D01*
X-78200D01*
Y35700D01*
X-78100D01*
Y35600D01*
Y35500D01*
Y35400D01*
Y35300D01*
Y35200D01*
X-78000D01*
Y35100D01*
Y35000D01*
X-77900D01*
Y34900D01*
Y34800D01*
Y34700D01*
Y34600D01*
X-77800D01*
Y34500D01*
Y34400D01*
Y34300D01*
Y34200D01*
Y34100D01*
Y34000D01*
Y33900D01*
Y33800D01*
Y33700D01*
Y33600D01*
Y33500D01*
Y33400D01*
Y33300D01*
X-77700D01*
Y33200D01*
Y33100D01*
Y33000D01*
Y32900D01*
Y32800D01*
Y32700D01*
Y32600D01*
X-77800D01*
Y32500D01*
Y32400D01*
Y32300D01*
Y32200D01*
Y32100D01*
Y32000D01*
Y31900D01*
Y31800D01*
Y31700D01*
Y31600D01*
Y31500D01*
Y31400D01*
X-77900D01*
Y31300D01*
Y31200D01*
Y31100D01*
Y31000D01*
X-78000D01*
Y30900D01*
Y30800D01*
X-78100D01*
Y30700D01*
Y30600D01*
Y30500D01*
Y30400D01*
Y30300D01*
X-78200D01*
Y30200D01*
X-78300D01*
Y30100D01*
Y30000D01*
Y29900D01*
Y29800D01*
X-78400D01*
Y29700D01*
Y29600D01*
X-78500D01*
Y29500D01*
X-78600D01*
Y29400D01*
Y29300D01*
Y29200D01*
X-78700D01*
Y29100D01*
X-78800D01*
Y29000D01*
Y28900D01*
Y28800D01*
X-79000D01*
Y28700D01*
Y28600D01*
X-79100D01*
Y28500D01*
Y28400D01*
X-79200D01*
Y28300D01*
X-79300D01*
Y28200D01*
Y28100D01*
X-79500D01*
Y28000D01*
Y27900D01*
Y27800D01*
X-79700D01*
Y27700D01*
X-79800D01*
Y27600D01*
X-79900D01*
Y27500D01*
X-80000D01*
Y27400D01*
Y27300D01*
X-80200D01*
Y27200D01*
X-80300D01*
Y27100D01*
X-80400D01*
Y27000D01*
X-80500D01*
Y26900D01*
Y26800D01*
X-80800D01*
Y26700D01*
Y26600D01*
X-81000D01*
Y26500D01*
X-81100D01*
Y26400D01*
X-81300D01*
Y26300D01*
X-81500D01*
Y26200D01*
Y26100D01*
X-81800D01*
Y26000D01*
X-82000D01*
Y25900D01*
X-82200D01*
Y25800D01*
X-82400D01*
Y25700D01*
X-82500D01*
Y25600D01*
X-82900D01*
Y25500D01*
X-83100D01*
Y25400D01*
X-83500D01*
Y25300D01*
X-83800D01*
Y25200D01*
X-87600D01*
Y25300D01*
X-87900D01*
Y25400D01*
X-88300D01*
Y25500D01*
X-88500D01*
Y25600D01*
X-88900D01*
Y25700D01*
X-89000D01*
Y25800D01*
X-89100D01*
Y25900D01*
X-89400D01*
Y26000D01*
X-89600D01*
Y26100D01*
X-89800D01*
Y26200D01*
X-89900D01*
Y26300D01*
X-90000D01*
Y26400D01*
X-90200D01*
Y26500D01*
X-90400D01*
Y26600D01*
X-90600D01*
Y26700D01*
Y26800D01*
X-90800D01*
Y26900D01*
X-90900D01*
Y27000D01*
X-91000D01*
Y27100D01*
X-91100D01*
Y27200D01*
X-91200D01*
Y27300D01*
X-91400D01*
Y27400D01*
Y27500D01*
X-91500D01*
Y27600D01*
X-91600D01*
Y27700D01*
X-91700D01*
Y27800D01*
X-91800D01*
Y27900D01*
X-91900D01*
Y28000D01*
Y28100D01*
X-92100D01*
Y28200D01*
Y28300D01*
X-92200D01*
Y28400D01*
Y28500D01*
X-92300D01*
Y28600D01*
Y28700D01*
X-92400D01*
Y28800D01*
X-92500D01*
Y28900D01*
X-92600D01*
Y29000D01*
Y29100D01*
X-92700D01*
Y29200D01*
Y29300D01*
X-92800D01*
Y29400D01*
Y29500D01*
Y29600D01*
X-92900D01*
Y29700D01*
X-93000D01*
Y29800D01*
X-93100D01*
Y29900D01*
Y30000D01*
Y30100D01*
Y30200D01*
Y30300D01*
X-93200D01*
Y30400D01*
X-93300D01*
Y30500D01*
Y30600D01*
Y30700D01*
Y30800D01*
Y30900D01*
X-93400D01*
Y31000D01*
Y31100D01*
Y31200D01*
X-93500D01*
Y31300D01*
Y31400D01*
Y31500D01*
X-93600D01*
Y31600D01*
Y31700D01*
Y31800D01*
Y31900D01*
Y32000D01*
Y32100D01*
Y32200D01*
Y32300D01*
Y32400D01*
Y32500D01*
Y32600D01*
Y32700D01*
Y32800D01*
Y32900D01*
Y33000D01*
Y33100D01*
Y33200D01*
Y33300D01*
Y33400D01*
Y33500D01*
Y33600D01*
Y33700D01*
Y33800D01*
Y33900D01*
Y34000D01*
Y34100D01*
Y34200D01*
Y34300D01*
Y34400D01*
Y34500D01*
X-93500D01*
Y34600D01*
Y34700D01*
Y34800D01*
X-93400D01*
Y34900D01*
Y35000D01*
Y35100D01*
X-93300D01*
Y35200D01*
Y35300D01*
Y35400D01*
Y35500D01*
Y35600D01*
X-93200D01*
Y35700D01*
X-93100D01*
Y35800D01*
Y35900D01*
Y36000D01*
Y36100D01*
X-93000D01*
Y36200D01*
Y36300D01*
X-92900D01*
Y36400D01*
X-92800D01*
Y36500D01*
Y36600D01*
Y36700D01*
X-92700D01*
Y36800D01*
Y36900D01*
X-92600D01*
Y37000D01*
Y37100D01*
X-92500D01*
Y37200D01*
X-92400D01*
Y37300D01*
X-92300D01*
Y37400D01*
Y37500D01*
X-92200D01*
Y37600D01*
Y37700D01*
X-92100D01*
Y37800D01*
X-92000D01*
Y37900D01*
X-91900D01*
Y38000D01*
Y38100D01*
X-91800D01*
Y38200D01*
X-91700D01*
Y38300D01*
X-91600D01*
Y38400D01*
X-91500D01*
Y38500D01*
X-91400D01*
Y38600D01*
Y38700D01*
X-91200D01*
Y38800D01*
X-91100D01*
Y38900D01*
X-91000D01*
Y39000D01*
X-90900D01*
Y39100D01*
X-90800D01*
Y39200D01*
X-90600D01*
Y39300D01*
Y39400D01*
X-90400D01*
Y39500D01*
X-90200D01*
Y39600D01*
X-90000D01*
Y39700D01*
X-89900D01*
Y39800D01*
X-89800D01*
Y39900D01*
X-89600D01*
Y40000D01*
X-89400D01*
Y40100D01*
X-89100D01*
Y40200D01*
X-89000D01*
Y40300D01*
X-88900D01*
Y40400D01*
X-88500D01*
Y40500D01*
X-88300D01*
Y40600D01*
X-87800D01*
Y40700D01*
X-87600D01*
Y40800D01*
X-87200D01*
Y40900D01*
X-85800D01*
Y41000D01*
X-85500D01*
Y40900D01*
D02*
G37*
%LPC*%
G36*
X-111900Y54700D02*
X-112600D01*
Y54600D01*
X-112800D01*
Y54500D01*
X-112900D01*
Y54400D01*
Y54300D01*
X-113000D01*
Y54200D01*
Y54100D01*
Y54000D01*
Y53900D01*
Y53800D01*
X-111400D01*
Y53900D01*
X-111500D01*
Y54000D01*
Y54100D01*
Y54200D01*
Y54300D01*
X-111600D01*
Y54400D01*
X-111700D01*
Y54500D01*
X-111800D01*
Y54600D01*
X-111900D01*
Y54700D01*
D02*
G37*
G36*
X-105700Y54500D02*
X-106400D01*
Y54400D01*
X-106600D01*
Y54300D01*
X-106800D01*
Y54200D01*
X-106900D01*
Y54100D01*
Y54000D01*
X-107000D01*
Y53900D01*
Y53800D01*
X-107100D01*
Y53700D01*
Y53600D01*
Y53500D01*
Y53400D01*
Y53300D01*
Y53200D01*
Y53100D01*
Y53000D01*
Y52900D01*
X-107000D01*
Y52800D01*
Y52700D01*
Y52600D01*
X-106900D01*
Y52500D01*
X-106800D01*
Y52400D01*
Y52300D01*
X-106600D01*
Y52200D01*
X-106400D01*
Y52100D01*
X-105900D01*
Y52200D01*
X-105700D01*
Y52300D01*
X-105600D01*
Y52400D01*
X-105500D01*
Y52500D01*
X-105400D01*
Y52600D01*
Y52700D01*
X-105300D01*
Y52800D01*
Y52900D01*
Y53000D01*
Y53100D01*
Y53200D01*
Y53300D01*
Y53400D01*
Y53500D01*
Y53600D01*
Y53700D01*
Y53800D01*
Y53900D01*
Y54000D01*
Y54100D01*
Y54200D01*
Y54300D01*
Y54400D01*
X-105700D01*
Y54500D01*
D02*
G37*
G36*
X-138200Y39500D02*
X-139700D01*
Y39400D01*
X-138200D01*
Y39500D01*
D02*
G37*
G36*
X-137100Y39400D02*
X-138000D01*
Y39300D01*
Y39200D01*
X-140000D01*
Y39300D01*
Y39400D01*
X-140300D01*
Y39300D01*
X-141600D01*
Y39200D01*
X-142300D01*
Y39100D01*
X-142600D01*
Y39000D01*
X-142500D01*
Y38900D01*
X-136100D01*
Y39000D01*
Y39100D01*
Y39200D01*
Y39300D01*
X-137100D01*
Y39400D01*
D02*
G37*
G36*
X-135300Y39200D02*
X-135600D01*
Y39100D01*
Y39000D01*
Y38900D01*
X-135100D01*
Y39000D01*
Y39100D01*
X-135300D01*
Y39200D01*
D02*
G37*
G36*
X-134500Y38700D02*
X-142400D01*
Y38600D01*
X-142500D01*
Y38500D01*
X-134500D01*
Y38600D01*
Y38700D01*
D02*
G37*
G36*
X-134300Y38400D02*
X-134800D01*
Y38300D01*
X-134900D01*
Y38200D01*
Y38100D01*
Y38000D01*
Y37900D01*
X-134800D01*
Y38000D01*
X-134700D01*
Y38100D01*
X-134600D01*
Y38200D01*
X-134400D01*
Y38300D01*
X-134300D01*
Y38400D01*
D02*
G37*
G36*
X-135100D02*
X-142700D01*
Y38300D01*
Y38200D01*
Y38100D01*
Y38000D01*
Y37900D01*
Y37800D01*
X-142600D01*
Y37700D01*
Y37600D01*
Y37500D01*
X-142400D01*
Y37400D01*
X-142300D01*
Y37300D01*
X-142200D01*
Y37200D01*
X-142100D01*
Y37100D01*
X-142000D01*
Y37000D01*
X-141900D01*
Y36900D01*
X-141700D01*
Y36800D01*
X-141600D01*
Y36700D01*
X-141500D01*
Y36600D01*
X-141400D01*
Y36500D01*
X-141300D01*
Y36400D01*
X-141200D01*
Y36300D01*
X-141000D01*
Y36200D01*
X-140900D01*
Y36100D01*
X-140800D01*
Y36000D01*
X-138200D01*
Y35900D01*
Y35800D01*
Y35700D01*
Y35600D01*
Y35500D01*
X-140100D01*
Y35400D01*
X-140000D01*
Y35300D01*
X-139900D01*
Y35200D01*
X-139800D01*
Y35100D01*
X-139700D01*
Y35000D01*
X-139500D01*
Y34900D01*
X-139400D01*
Y34800D01*
X-139300D01*
Y34700D01*
X-139200D01*
Y34600D01*
X-139100D01*
Y34500D01*
X-139000D01*
Y34400D01*
X-138800D01*
Y34500D01*
X-138700D01*
Y34600D01*
X-138600D01*
Y34700D01*
X-138500D01*
Y34800D01*
X-138400D01*
Y34900D01*
X-138300D01*
Y35000D01*
X-138100D01*
Y35100D01*
X-138000D01*
Y35200D01*
X-137900D01*
Y35300D01*
X-137800D01*
Y35400D01*
X-137700D01*
Y35500D01*
X-137600D01*
Y35600D01*
X-137400D01*
Y35700D01*
X-137300D01*
Y35800D01*
X-137200D01*
Y35900D01*
X-137100D01*
Y36000D01*
X-137000D01*
Y36100D01*
X-136900D01*
Y36200D01*
X-136800D01*
Y36300D01*
X-136600D01*
Y36400D01*
X-136500D01*
Y36500D01*
X-136400D01*
Y36600D01*
X-136300D01*
Y36700D01*
X-136200D01*
Y36800D01*
X-136100D01*
Y36900D01*
X-135900D01*
Y37000D01*
X-135800D01*
Y37100D01*
X-135700D01*
Y37200D01*
X-135600D01*
Y37300D01*
X-135500D01*
Y37400D01*
X-135400D01*
Y37500D01*
X-135200D01*
Y37600D01*
X-135100D01*
Y37700D01*
Y37800D01*
Y37900D01*
Y38000D01*
Y38100D01*
Y38200D01*
Y38300D01*
Y38400D01*
D02*
G37*
G36*
X-135300Y36300D02*
X-135400D01*
Y36200D01*
X-135500D01*
Y36100D01*
X-135600D01*
Y36000D01*
X-135800D01*
Y35900D01*
X-135900D01*
Y35800D01*
X-136000D01*
Y35700D01*
X-136100D01*
Y35600D01*
X-136200D01*
Y35500D01*
X-136300D01*
Y35400D01*
X-136500D01*
Y35300D01*
X-136600D01*
Y35200D01*
X-136700D01*
Y35100D01*
X-136800D01*
Y35000D01*
X-136900D01*
Y34900D01*
X-137000D01*
Y34800D01*
X-137200D01*
Y34700D01*
X-137300D01*
Y34600D01*
X-137400D01*
Y34500D01*
X-137500D01*
Y34400D01*
X-137600D01*
Y34300D01*
X-137700D01*
Y34200D01*
X-137800D01*
Y34100D01*
X-137900D01*
Y34000D01*
X-138100D01*
Y33900D01*
X-138200D01*
Y33800D01*
Y33700D01*
X-138000D01*
Y33600D01*
X-137900D01*
Y33500D01*
X-137800D01*
Y33400D01*
X-137700D01*
Y33300D01*
X-137600D01*
Y33200D01*
X-137500D01*
Y33100D01*
X-137300D01*
Y33000D01*
X-137200D01*
Y32900D01*
X-137100D01*
Y32800D01*
X-137000D01*
Y32700D01*
X-136900D01*
Y32600D01*
X-136800D01*
Y32500D01*
X-136600D01*
Y32400D01*
X-136500D01*
Y32300D01*
X-136400D01*
Y32200D01*
X-136300D01*
Y32100D01*
X-136200D01*
Y32000D01*
X-136100D01*
Y31900D01*
X-136000D01*
Y31800D01*
X-135800D01*
Y31900D01*
Y32000D01*
Y32100D01*
Y32200D01*
X-135700D01*
Y32300D01*
Y32400D01*
Y32500D01*
Y32600D01*
Y32700D01*
Y32800D01*
Y32900D01*
Y33000D01*
Y33100D01*
X-135600D01*
Y33200D01*
Y33300D01*
Y33400D01*
Y33500D01*
Y33600D01*
Y33700D01*
Y33800D01*
Y33900D01*
Y34000D01*
X-135500D01*
Y34100D01*
Y34200D01*
Y34300D01*
Y34400D01*
Y34500D01*
Y34600D01*
Y34700D01*
Y34800D01*
Y34900D01*
X-135400D01*
Y35000D01*
Y35100D01*
Y35200D01*
Y35300D01*
Y35400D01*
Y35500D01*
Y35600D01*
Y35700D01*
X-135300D01*
Y35800D01*
Y35900D01*
Y36000D01*
Y36100D01*
Y36200D01*
Y36300D01*
D02*
G37*
G36*
X-142400D02*
X-142500D01*
Y36200D01*
Y36100D01*
Y36000D01*
X-142400D01*
Y35900D01*
Y35800D01*
Y35700D01*
Y35600D01*
Y35500D01*
Y35400D01*
Y35300D01*
Y35200D01*
Y35100D01*
X-142300D01*
Y35000D01*
Y34900D01*
Y34800D01*
Y34700D01*
Y34600D01*
Y34500D01*
Y34400D01*
X-142200D01*
Y34300D01*
Y34200D01*
Y34100D01*
Y34000D01*
Y33900D01*
Y33800D01*
Y33700D01*
Y33600D01*
Y33500D01*
Y33400D01*
X-142100D01*
Y33300D01*
Y33200D01*
Y33100D01*
Y33000D01*
Y32900D01*
Y32800D01*
Y32700D01*
Y32600D01*
Y32500D01*
X-142000D01*
Y32400D01*
Y32300D01*
Y32200D01*
Y32100D01*
Y32000D01*
Y31900D01*
Y31800D01*
X-141800D01*
Y31900D01*
X-141700D01*
Y32000D01*
X-141600D01*
Y32100D01*
X-141500D01*
Y32200D01*
X-141400D01*
Y32300D01*
X-141300D01*
Y32400D01*
X-141100D01*
Y32500D01*
X-141000D01*
Y32600D01*
X-140900D01*
Y32700D01*
X-140800D01*
Y32800D01*
X-140700D01*
Y32900D01*
X-140600D01*
Y33000D01*
X-140500D01*
Y33100D01*
X-140300D01*
Y33200D01*
X-140200D01*
Y33300D01*
X-140100D01*
Y33400D01*
X-140000D01*
Y33500D01*
X-139900D01*
Y33600D01*
X-139800D01*
Y33700D01*
X-139600D01*
Y33800D01*
Y33900D01*
X-139700D01*
Y34000D01*
X-139800D01*
Y34100D01*
X-140000D01*
Y34200D01*
X-140100D01*
Y34300D01*
X-140200D01*
Y34400D01*
X-140300D01*
Y34500D01*
X-140400D01*
Y34600D01*
X-140500D01*
Y34700D01*
X-140600D01*
Y34800D01*
X-140800D01*
Y34900D01*
X-140900D01*
Y35000D01*
X-141000D01*
Y35100D01*
X-141100D01*
Y35200D01*
X-141200D01*
Y35300D01*
X-141300D01*
Y35400D01*
X-141500D01*
Y35500D01*
X-141600D01*
Y35600D01*
X-141700D01*
Y35700D01*
X-141800D01*
Y35800D01*
X-141900D01*
Y35900D01*
X-142000D01*
Y36000D01*
X-142200D01*
Y36100D01*
X-142300D01*
Y36200D01*
X-142400D01*
Y36300D01*
D02*
G37*
G36*
X-138800Y33200D02*
X-139000D01*
Y33100D01*
X-139100D01*
Y33000D01*
X-139200D01*
Y32900D01*
X-139300D01*
Y32800D01*
X-139400D01*
Y32700D01*
X-139600D01*
Y32600D01*
X-139700D01*
Y32500D01*
X-139800D01*
Y32400D01*
X-139900D01*
Y32300D01*
X-140000D01*
Y32200D01*
X-140100D01*
Y32100D01*
X-140300D01*
Y32000D01*
X-140400D01*
Y31900D01*
X-140500D01*
Y31800D01*
X-140600D01*
Y31700D01*
X-140700D01*
Y31600D01*
X-140800D01*
Y31500D01*
X-141000D01*
Y31400D01*
X-141100D01*
Y31300D01*
X-141200D01*
Y31200D01*
X-141300D01*
Y31100D01*
X-141400D01*
Y31000D01*
X-141500D01*
Y30900D01*
X-141600D01*
Y30800D01*
X-141800D01*
Y30700D01*
Y30600D01*
Y30500D01*
Y30400D01*
Y30300D01*
Y30200D01*
Y30100D01*
Y30000D01*
Y29900D01*
X-141700D01*
Y29800D01*
Y29700D01*
X-141100D01*
Y29600D01*
X-140900D01*
Y29500D01*
X-140700D01*
Y29400D01*
X-140600D01*
Y29300D01*
X-140500D01*
Y29200D01*
Y29100D01*
X-140400D01*
Y29000D01*
Y28900D01*
Y28800D01*
X-136200D01*
Y28900D01*
X-136100D01*
Y29000D01*
Y29100D01*
Y29200D01*
Y29300D01*
Y29400D01*
Y29500D01*
Y29600D01*
X-136000D01*
Y29700D01*
Y29800D01*
Y29900D01*
Y30000D01*
Y30100D01*
Y30200D01*
Y30300D01*
Y30400D01*
Y30500D01*
X-135900D01*
Y30600D01*
Y30700D01*
X-136000D01*
Y30800D01*
X-136200D01*
Y30900D01*
X-136300D01*
Y31000D01*
X-136400D01*
Y31100D01*
X-136500D01*
Y31200D01*
X-136600D01*
Y31300D01*
X-136700D01*
Y31400D01*
X-136800D01*
Y31500D01*
X-137000D01*
Y31600D01*
X-137100D01*
Y31700D01*
X-137200D01*
Y31800D01*
X-137300D01*
Y31900D01*
X-137400D01*
Y32000D01*
X-137500D01*
Y32100D01*
X-137700D01*
Y32200D01*
X-137800D01*
Y32300D01*
X-137900D01*
Y32400D01*
X-138000D01*
Y32500D01*
X-138100D01*
Y32600D01*
X-138200D01*
Y32700D01*
X-138400D01*
Y32800D01*
X-138500D01*
Y32900D01*
X-138600D01*
Y33000D01*
X-138700D01*
Y33100D01*
X-138800D01*
Y33200D01*
D02*
G37*
G36*
X-141100Y29300D02*
X-141700D01*
Y29200D01*
X-141900D01*
Y29100D01*
Y29000D01*
X-142000D01*
Y28900D01*
Y28800D01*
Y28700D01*
Y28600D01*
X-141900D01*
Y28500D01*
Y28400D01*
X-141700D01*
Y28300D01*
X-141100D01*
Y28400D01*
X-140900D01*
Y28500D01*
Y28600D01*
X-140800D01*
Y28700D01*
Y28800D01*
Y28900D01*
Y29000D01*
X-140900D01*
Y29100D01*
Y29200D01*
X-141100D01*
Y29300D01*
D02*
G37*
%LPD*%
G36*
X-141200Y29100D02*
X-141000D01*
Y29000D01*
Y28900D01*
X-140900D01*
Y28800D01*
X-141000D01*
Y28700D01*
Y28600D01*
X-141100D01*
Y28500D01*
X-141200D01*
Y28400D01*
X-141600D01*
Y28500D01*
X-141700D01*
Y28600D01*
X-141800D01*
Y28700D01*
Y28800D01*
Y28900D01*
Y29000D01*
Y29100D01*
X-141600D01*
Y29200D01*
X-141200D01*
Y29100D01*
D02*
G37*
%LPC*%
G36*
X-84900Y40400D02*
X-86500D01*
Y40300D01*
X-87000D01*
Y40200D01*
X-87400D01*
Y40100D01*
X-87900D01*
Y40000D01*
X-88100D01*
Y39900D01*
X-88500D01*
Y39800D01*
X-88700D01*
Y39700D01*
X-88800D01*
Y39600D01*
X-89100D01*
Y39500D01*
X-89200D01*
Y39400D01*
X-89500D01*
Y39300D01*
X-89600D01*
Y39200D01*
X-89900D01*
Y39100D01*
Y39000D01*
X-90000D01*
Y38900D01*
X-90200D01*
Y38800D01*
X-90300D01*
Y38700D01*
X-90500D01*
Y38600D01*
X-90600D01*
Y38500D01*
Y38400D01*
X-90800D01*
Y38300D01*
X-90900D01*
Y38200D01*
X-91000D01*
Y38100D01*
X-91100D01*
Y38000D01*
Y37900D01*
X-91300D01*
Y37800D01*
X-91400D01*
Y37700D01*
X-91500D01*
Y37600D01*
Y37500D01*
X-91600D01*
Y37400D01*
X-91700D01*
Y37300D01*
Y37200D01*
X-91900D01*
Y37100D01*
Y37000D01*
Y36900D01*
X-92000D01*
Y36800D01*
X-92100D01*
Y36700D01*
Y36600D01*
X-92200D01*
Y36500D01*
Y36400D01*
X-92300D01*
Y36300D01*
Y36200D01*
X-92400D01*
Y36100D01*
Y36000D01*
X-92500D01*
Y35900D01*
X-92600D01*
Y35800D01*
Y35700D01*
Y35600D01*
Y35500D01*
X-92700D01*
Y35400D01*
Y35300D01*
X-92800D01*
Y35200D01*
Y35100D01*
Y35000D01*
Y34900D01*
X-92900D01*
Y34800D01*
Y34700D01*
Y34600D01*
Y34500D01*
X-93000D01*
Y34400D01*
Y34300D01*
Y34200D01*
X-93100D01*
Y34100D01*
Y34000D01*
Y33900D01*
Y33800D01*
Y33700D01*
Y33600D01*
Y33500D01*
Y33400D01*
Y33300D01*
Y33200D01*
Y33100D01*
Y33000D01*
Y32900D01*
Y32800D01*
Y32700D01*
Y32600D01*
Y32500D01*
Y32400D01*
Y32300D01*
Y32200D01*
Y32100D01*
Y32000D01*
Y31900D01*
Y31800D01*
Y31700D01*
X-93000D01*
Y31600D01*
Y31500D01*
Y31400D01*
Y31300D01*
X-92900D01*
Y31200D01*
Y31100D01*
Y31000D01*
X-92800D01*
Y30900D01*
Y30800D01*
Y30700D01*
Y30600D01*
Y30500D01*
X-92700D01*
Y30400D01*
Y30300D01*
X-92600D01*
Y30200D01*
Y30100D01*
Y30000D01*
X-92500D01*
Y29900D01*
Y29800D01*
X-92400D01*
Y29700D01*
X-92300D01*
Y29600D01*
Y29500D01*
Y29400D01*
X-92200D01*
Y29300D01*
X-92100D01*
Y29200D01*
Y29100D01*
X-92000D01*
Y29000D01*
Y28900D01*
X-91900D01*
Y28800D01*
Y28700D01*
X-91800D01*
Y28600D01*
X-91700D01*
Y28500D01*
X-91600D01*
Y28400D01*
Y28300D01*
X-91400D01*
Y28200D01*
Y28100D01*
X-91300D01*
Y28000D01*
X-91200D01*
Y27900D01*
X-91100D01*
Y27800D01*
X-91000D01*
Y27700D01*
X-90900D01*
Y27600D01*
X-90800D01*
Y27500D01*
X-90700D01*
Y27400D01*
X-90600D01*
Y27300D01*
X-90500D01*
Y27200D01*
X-90400D01*
Y27100D01*
X-90200D01*
Y27000D01*
X-90100D01*
Y26900D01*
X-90000D01*
Y26800D01*
X-89800D01*
Y26700D01*
X-89700D01*
Y26600D01*
X-89400D01*
Y26500D01*
Y26400D01*
X-89100D01*
Y26300D01*
X-88900D01*
Y26200D01*
X-88800D01*
Y26100D01*
X-88400D01*
Y26000D01*
X-88300D01*
Y25900D01*
X-87900D01*
Y25800D01*
X-87600D01*
Y25700D01*
X-87300D01*
Y25600D01*
X-86400D01*
Y25500D01*
X-85000D01*
Y25600D01*
X-84100D01*
Y25700D01*
X-83800D01*
Y25800D01*
X-83500D01*
Y25900D01*
X-83100D01*
Y26000D01*
X-83000D01*
Y26100D01*
X-82600D01*
Y26200D01*
X-82500D01*
Y26300D01*
X-82300D01*
Y26400D01*
X-82000D01*
Y26500D01*
Y26600D01*
X-81700D01*
Y26700D01*
X-81600D01*
Y26800D01*
X-81400D01*
Y26900D01*
X-81300D01*
Y27000D01*
X-81200D01*
Y27100D01*
X-81000D01*
Y27200D01*
Y27300D01*
X-80800D01*
Y27400D01*
X-80700D01*
Y27500D01*
X-80600D01*
Y27600D01*
X-80500D01*
Y27700D01*
X-80400D01*
Y27800D01*
X-80300D01*
Y27900D01*
X-80200D01*
Y28000D01*
X-80100D01*
Y28100D01*
X-80000D01*
Y28200D01*
Y28300D01*
X-79800D01*
Y28400D01*
Y28500D01*
Y28600D01*
X-79600D01*
Y28700D01*
X-79500D01*
Y28800D01*
Y28900D01*
X-79400D01*
Y29000D01*
Y29100D01*
X-79300D01*
Y29200D01*
Y29300D01*
X-79200D01*
Y29400D01*
X-79100D01*
Y29500D01*
Y29600D01*
Y29700D01*
X-79000D01*
Y29800D01*
X-78900D01*
Y29900D01*
Y30000D01*
X-78800D01*
Y30100D01*
Y30200D01*
Y30300D01*
X-78700D01*
Y30400D01*
Y30500D01*
X-78600D01*
Y30600D01*
Y30700D01*
Y30800D01*
Y30900D01*
Y31000D01*
X-78500D01*
Y31100D01*
Y31200D01*
Y31300D01*
X-78400D01*
Y31400D01*
Y31500D01*
Y31600D01*
Y31700D01*
X-78300D01*
Y31800D01*
Y31900D01*
Y32000D01*
Y32100D01*
Y32200D01*
Y32300D01*
Y32400D01*
Y32500D01*
Y32600D01*
Y32700D01*
Y32800D01*
Y32900D01*
Y33000D01*
Y33100D01*
Y33200D01*
Y33300D01*
Y33400D01*
Y33500D01*
Y33600D01*
Y33700D01*
Y33800D01*
Y33900D01*
Y34000D01*
Y34100D01*
Y34200D01*
X-78400D01*
Y34300D01*
Y34400D01*
Y34500D01*
X-78500D01*
Y34600D01*
Y34700D01*
Y34800D01*
X-78600D01*
Y34900D01*
Y35000D01*
Y35100D01*
Y35200D01*
Y35300D01*
X-78700D01*
Y35400D01*
Y35500D01*
X-78800D01*
Y35600D01*
Y35700D01*
Y35800D01*
Y35900D01*
X-78900D01*
Y36000D01*
X-79000D01*
Y36100D01*
Y36200D01*
X-79100D01*
Y36300D01*
Y36400D01*
X-79200D01*
Y36500D01*
Y36600D01*
X-79300D01*
Y36700D01*
Y36800D01*
X-79400D01*
Y36900D01*
X-79500D01*
Y37000D01*
Y37100D01*
Y37200D01*
X-79700D01*
Y37300D01*
Y37400D01*
X-79800D01*
Y37500D01*
X-79900D01*
Y37600D01*
X-80000D01*
Y37700D01*
Y37800D01*
X-80100D01*
Y37900D01*
X-80300D01*
Y38000D01*
Y38100D01*
X-80400D01*
Y38200D01*
X-80500D01*
Y38300D01*
X-80600D01*
Y38400D01*
X-80800D01*
Y38500D01*
Y38600D01*
X-80900D01*
Y38700D01*
X-81100D01*
Y38800D01*
X-81200D01*
Y38900D01*
X-81400D01*
Y39000D01*
X-81500D01*
Y39100D01*
X-81600D01*
Y39200D01*
X-81800D01*
Y39300D01*
X-81900D01*
Y39400D01*
X-82200D01*
Y39500D01*
X-82300D01*
Y39600D01*
X-82600D01*
Y39700D01*
X-82700D01*
Y39800D01*
X-82900D01*
Y39900D01*
X-83300D01*
Y40000D01*
X-83500D01*
Y40100D01*
X-84000D01*
Y40200D01*
X-84400D01*
Y40300D01*
X-84900D01*
Y40400D01*
D02*
G37*
%LPD*%
G36*
X-88400Y38800D02*
Y38700D01*
X-88200D01*
Y38600D01*
Y38500D01*
X-88100D01*
Y38400D01*
X-87900D01*
Y38300D01*
Y38200D01*
X-87700D01*
Y38100D01*
Y38000D01*
X-87600D01*
Y37900D01*
X-87400D01*
Y37800D01*
Y37700D01*
X-87300D01*
Y37600D01*
X-87200D01*
Y37500D01*
Y37400D01*
X-87100D01*
Y37300D01*
Y37200D01*
X-86900D01*
Y37100D01*
Y37000D01*
Y36900D01*
X-86800D01*
Y36800D01*
X-86700D01*
Y36700D01*
Y36600D01*
X-86600D01*
Y36500D01*
Y36400D01*
X-86500D01*
Y36300D01*
X-86400D01*
Y36200D01*
Y36100D01*
X-86300D01*
Y36000D01*
X-86200D01*
Y35900D01*
Y35800D01*
Y35700D01*
X-86100D01*
Y35600D01*
Y35500D01*
X-86000D01*
Y35400D01*
X-85900D01*
Y35300D01*
Y35200D01*
Y35100D01*
X-85800D01*
Y35000D01*
X-85700D01*
Y34900D01*
Y34800D01*
Y34700D01*
X-85600D01*
Y34600D01*
Y34500D01*
X-85500D01*
Y34400D01*
Y34300D01*
Y34200D01*
X-85400D01*
Y34100D01*
Y34000D01*
X-85300D01*
Y33900D01*
X-85200D01*
Y33800D01*
Y33700D01*
Y33600D01*
X-85100D01*
Y33500D01*
X-85000D01*
Y33400D01*
Y33300D01*
Y33200D01*
X-84900D01*
Y33100D01*
X-84700D01*
Y33200D01*
X-84600D01*
Y33300D01*
Y33400D01*
X-84500D01*
Y33500D01*
Y33600D01*
Y33700D01*
X-84400D01*
Y33800D01*
X-84300D01*
Y33900D01*
Y34000D01*
X-84200D01*
Y34100D01*
Y34200D01*
Y34300D01*
X-84100D01*
Y34400D01*
Y34500D01*
X-84000D01*
Y34600D01*
Y34700D01*
Y34800D01*
X-83900D01*
Y34900D01*
Y35000D01*
X-83800D01*
Y34900D01*
X-83600D01*
Y34800D01*
X-83500D01*
Y34700D01*
X-83300D01*
Y34600D01*
X-83200D01*
Y34500D01*
X-83000D01*
Y34400D01*
Y34300D01*
X-82900D01*
Y34200D01*
X-82700D01*
Y34100D01*
X-82600D01*
Y34000D01*
X-82500D01*
Y33900D01*
X-82400D01*
Y33800D01*
X-82300D01*
Y33700D01*
X-82200D01*
Y33600D01*
Y33500D01*
X-82300D01*
Y33400D01*
X-82400D01*
Y33300D01*
X-82500D01*
Y33200D01*
X-82600D01*
Y33100D01*
X-82700D01*
Y33000D01*
X-82900D01*
Y32900D01*
X-83000D01*
Y32800D01*
X-83100D01*
Y32700D01*
X-83200D01*
Y32600D01*
Y32500D01*
X-83400D01*
Y32400D01*
X-83500D01*
Y32300D01*
X-83700D01*
Y32200D01*
Y32100D01*
X-83800D01*
Y32000D01*
X-83900D01*
Y31900D01*
X-84000D01*
Y31800D01*
X-84100D01*
Y31700D01*
X-84200D01*
Y31600D01*
Y31500D01*
X-84300D01*
Y31400D01*
X-84400D01*
Y31300D01*
X-84500D01*
Y31200D01*
Y31100D01*
Y31000D01*
X-84700D01*
Y30900D01*
Y30800D01*
X-84800D01*
Y30700D01*
Y30600D01*
X-85000D01*
Y30700D01*
Y30800D01*
Y30900D01*
X-85100D01*
Y31000D01*
X-85200D01*
Y31100D01*
Y31200D01*
Y31300D01*
X-85300D01*
Y31400D01*
Y31500D01*
X-85400D01*
Y31600D01*
X-85500D01*
Y31700D01*
Y31800D01*
X-85600D01*
Y31900D01*
Y32000D01*
X-85700D01*
Y32100D01*
Y32200D01*
Y32300D01*
X-85900D01*
Y32400D01*
Y32500D01*
Y32600D01*
X-86000D01*
Y32700D01*
X-86100D01*
Y32800D01*
X-86200D01*
Y32900D01*
Y33000D01*
X-86300D01*
Y33100D01*
X-86400D01*
Y33200D01*
Y33300D01*
X-86500D01*
Y33400D01*
Y33500D01*
X-86700D01*
Y33600D01*
Y33700D01*
X-86800D01*
Y33800D01*
X-86900D01*
Y33900D01*
Y34000D01*
X-87000D01*
Y34100D01*
X-87100D01*
Y34200D01*
X-87200D01*
Y34300D01*
Y34400D01*
X-87300D01*
Y34500D01*
X-87400D01*
Y34600D01*
Y34700D01*
X-87600D01*
Y34800D01*
X-87700D01*
Y34900D01*
Y35000D01*
X-87900D01*
Y35100D01*
Y35200D01*
X-88100D01*
Y35300D01*
X-88200D01*
Y35400D01*
Y35500D01*
X-88400D01*
Y35600D01*
X-88500D01*
Y35700D01*
X-88700D01*
Y35800D01*
Y35900D01*
Y36000D01*
Y36100D01*
Y36200D01*
Y36300D01*
Y36400D01*
Y36500D01*
Y36600D01*
Y36700D01*
Y36800D01*
Y36900D01*
Y37000D01*
Y37100D01*
Y37200D01*
Y37300D01*
Y37400D01*
Y37500D01*
Y37600D01*
Y37700D01*
Y37800D01*
Y37900D01*
Y38000D01*
Y38100D01*
Y38200D01*
Y38300D01*
Y38400D01*
Y38500D01*
Y38600D01*
Y38700D01*
Y38800D01*
Y38900D01*
X-88400D01*
Y38800D01*
D02*
G37*
G36*
X-86100Y30600D02*
Y30500D01*
Y30400D01*
Y30300D01*
Y30200D01*
Y30100D01*
Y30000D01*
Y29900D01*
Y29800D01*
Y29700D01*
Y29600D01*
Y29500D01*
Y29400D01*
Y29300D01*
Y29200D01*
Y29100D01*
Y29000D01*
Y28900D01*
Y28800D01*
Y28700D01*
Y28600D01*
Y28500D01*
Y28400D01*
Y28300D01*
Y28200D01*
Y28100D01*
Y28000D01*
Y27900D01*
Y27800D01*
Y27700D01*
X-86400D01*
Y27800D01*
Y27900D01*
Y28000D01*
Y28100D01*
Y28200D01*
Y28300D01*
Y28400D01*
Y28500D01*
Y28600D01*
Y28700D01*
Y28800D01*
Y28900D01*
Y29000D01*
Y29100D01*
X-87700D01*
Y29000D01*
Y28900D01*
Y28800D01*
Y28700D01*
Y28600D01*
Y28500D01*
Y28400D01*
Y28300D01*
Y28200D01*
Y28100D01*
Y28000D01*
Y27900D01*
Y27800D01*
Y27700D01*
X-88000D01*
Y27800D01*
Y27900D01*
Y28000D01*
Y28100D01*
Y28200D01*
Y28300D01*
Y28400D01*
Y28500D01*
Y28600D01*
Y28700D01*
Y28800D01*
Y28900D01*
Y29000D01*
Y29100D01*
Y29200D01*
Y29300D01*
Y29400D01*
Y29500D01*
Y29600D01*
Y29700D01*
Y29800D01*
Y29900D01*
Y30000D01*
Y30100D01*
Y30200D01*
Y30300D01*
Y30400D01*
Y30500D01*
Y30600D01*
Y30700D01*
X-87900D01*
Y30600D01*
X-87700D01*
Y30500D01*
Y30400D01*
Y30300D01*
Y30200D01*
Y30100D01*
Y30000D01*
Y29900D01*
Y29800D01*
Y29700D01*
Y29600D01*
Y29500D01*
Y29400D01*
X-86400D01*
Y29500D01*
Y29600D01*
Y29700D01*
Y29800D01*
Y29900D01*
Y30000D01*
Y30100D01*
Y30200D01*
Y30300D01*
Y30400D01*
Y30500D01*
Y30600D01*
X-86200D01*
Y30700D01*
X-86100D01*
Y30600D01*
D02*
G37*
G36*
X-81100D02*
Y30500D01*
Y30400D01*
Y30300D01*
Y30200D01*
Y30100D01*
Y30000D01*
Y29900D01*
Y29800D01*
Y29700D01*
Y29600D01*
Y29500D01*
Y29400D01*
Y29300D01*
Y29200D01*
Y29100D01*
Y29000D01*
Y28900D01*
Y28800D01*
Y28700D01*
Y28600D01*
Y28500D01*
Y28400D01*
Y28300D01*
Y28200D01*
Y28100D01*
Y28000D01*
Y27900D01*
Y27800D01*
Y27700D01*
X-81500D01*
Y27800D01*
Y27900D01*
Y28000D01*
Y28100D01*
Y28200D01*
Y28300D01*
Y28400D01*
Y28500D01*
Y28600D01*
Y28700D01*
Y28800D01*
Y28900D01*
Y29000D01*
X-82000D01*
Y28900D01*
X-82300D01*
Y28800D01*
X-82400D01*
Y28700D01*
Y28600D01*
X-82500D01*
Y28500D01*
Y28400D01*
Y28300D01*
X-82600D01*
Y28200D01*
X-82700D01*
Y28100D01*
Y28000D01*
Y27900D01*
X-82800D01*
Y27800D01*
X-82900D01*
Y27700D01*
X-83200D01*
Y27800D01*
Y27900D01*
X-83100D01*
Y28000D01*
Y28100D01*
X-83000D01*
Y28200D01*
Y28300D01*
X-82900D01*
Y28400D01*
Y28500D01*
X-82800D01*
Y28600D01*
X-82700D01*
Y28700D01*
Y28800D01*
X-82600D01*
Y28900D01*
X-82500D01*
Y29000D01*
X-82400D01*
Y29100D01*
X-82500D01*
Y29200D01*
X-82600D01*
Y29300D01*
X-82800D01*
Y29400D01*
Y29500D01*
X-82900D01*
Y29600D01*
Y29700D01*
Y29800D01*
Y29900D01*
Y30000D01*
Y30100D01*
Y30200D01*
X-82800D01*
Y30300D01*
X-82700D01*
Y30400D01*
Y30500D01*
X-82400D01*
Y30600D01*
X-81300D01*
Y30700D01*
X-81100D01*
Y30600D01*
D02*
G37*
G36*
X-84200Y29800D02*
X-84000D01*
Y29700D01*
X-83900D01*
Y29600D01*
X-83700D01*
Y29500D01*
Y29400D01*
Y29300D01*
Y29200D01*
Y29100D01*
X-83600D01*
Y29000D01*
Y28900D01*
Y28800D01*
Y28700D01*
Y28600D01*
X-83700D01*
Y28500D01*
Y28400D01*
Y28300D01*
Y28200D01*
Y28100D01*
X-83800D01*
Y28000D01*
Y27900D01*
X-83900D01*
Y27800D01*
X-84100D01*
Y27700D01*
X-84300D01*
Y27600D01*
X-84700D01*
Y27700D01*
X-85000D01*
Y27800D01*
X-85200D01*
Y27900D01*
Y28000D01*
X-85300D01*
Y28100D01*
X-85400D01*
Y28200D01*
Y28300D01*
X-85500D01*
Y28400D01*
Y28500D01*
Y28600D01*
Y28700D01*
Y28800D01*
Y28900D01*
Y29000D01*
Y29100D01*
Y29200D01*
Y29300D01*
X-85400D01*
Y29400D01*
Y29500D01*
X-85300D01*
Y29600D01*
X-85200D01*
Y29700D01*
Y29800D01*
X-85000D01*
Y29900D01*
X-84200D01*
Y29800D01*
D02*
G37*
G36*
X-89200Y30600D02*
X-89100D01*
Y30500D01*
X-88900D01*
Y30400D01*
X-88800D01*
Y30300D01*
X-88700D01*
Y30200D01*
Y30100D01*
Y30000D01*
Y29900D01*
Y29800D01*
Y29700D01*
Y29600D01*
Y29500D01*
Y29400D01*
X-88800D01*
Y29300D01*
X-89000D01*
Y29200D01*
X-89100D01*
Y29100D01*
X-89600D01*
Y29000D01*
X-89900D01*
Y28900D01*
X-90000D01*
Y28800D01*
X-90100D01*
Y28700D01*
Y28600D01*
Y28500D01*
Y28400D01*
Y28300D01*
Y28200D01*
Y28100D01*
X-89900D01*
Y28000D01*
Y27900D01*
X-89100D01*
Y28000D01*
X-88900D01*
Y28100D01*
X-88700D01*
Y28000D01*
Y27900D01*
Y27800D01*
X-88900D01*
Y27700D01*
X-89100D01*
Y27600D01*
X-89800D01*
Y27700D01*
X-90100D01*
Y27800D01*
X-90300D01*
Y27900D01*
X-90400D01*
Y28000D01*
Y28100D01*
Y28200D01*
X-90500D01*
Y28300D01*
Y28400D01*
Y28500D01*
Y28600D01*
Y28700D01*
Y28800D01*
X-90400D01*
Y28900D01*
Y29000D01*
X-90300D01*
Y29100D01*
X-90100D01*
Y29200D01*
X-90000D01*
Y29300D01*
X-89600D01*
Y29400D01*
X-89300D01*
Y29500D01*
X-89100D01*
Y29600D01*
X-89000D01*
Y29700D01*
X-88900D01*
Y29800D01*
Y29900D01*
Y30000D01*
Y30100D01*
X-89000D01*
Y30200D01*
X-89100D01*
Y30300D01*
X-89200D01*
Y30400D01*
X-90000D01*
Y30300D01*
X-90400D01*
Y30400D01*
Y30500D01*
X-90200D01*
Y30600D01*
X-90000D01*
Y30700D01*
X-89200D01*
Y30600D01*
D02*
G37*
%LPC*%
G36*
X-81500Y30400D02*
X-82100D01*
Y30300D01*
X-82400D01*
Y30200D01*
X-82500D01*
Y30100D01*
Y30000D01*
Y29900D01*
Y29800D01*
Y29700D01*
Y29600D01*
Y29500D01*
Y29400D01*
X-82400D01*
Y29300D01*
X-81500D01*
Y29400D01*
Y29500D01*
Y29600D01*
Y29700D01*
Y29800D01*
Y29900D01*
Y30000D01*
Y30100D01*
Y30200D01*
Y30300D01*
Y30400D01*
D02*
G37*
G36*
X-84300Y29700D02*
X-84800D01*
Y29600D01*
X-85000D01*
Y29500D01*
Y29400D01*
X-85100D01*
Y29300D01*
Y29200D01*
X-85200D01*
Y29100D01*
Y29000D01*
Y28900D01*
Y28800D01*
Y28700D01*
Y28600D01*
Y28500D01*
Y28400D01*
X-85100D01*
Y28300D01*
Y28200D01*
X-85000D01*
Y28100D01*
Y28000D01*
X-84800D01*
Y27900D01*
X-84600D01*
Y27800D01*
X-84500D01*
Y27900D01*
X-84200D01*
Y28000D01*
Y28100D01*
X-84000D01*
Y28200D01*
Y28300D01*
Y28400D01*
Y28500D01*
Y28600D01*
Y28700D01*
Y28800D01*
Y28900D01*
Y29000D01*
Y29100D01*
Y29200D01*
Y29300D01*
Y29400D01*
X-84100D01*
Y29500D01*
Y29600D01*
X-84300D01*
Y29700D01*
D02*
G37*
%LPD*%
D10*
X-149142Y67735D02*
G03*
X-149142Y67735I-1060J0D01*
G01*
X-82673Y86190D02*
G03*
X-82673Y86190I-1060J0D01*
G01*
X-109635Y122100D02*
X-107273D01*
X-109635Y137848D02*
X-107273D01*
X-143099Y104186D02*
Y110092D01*
X-154932Y104186D02*
Y110092D01*
X-91152Y104186D02*
Y110092D01*
X-79320Y104186D02*
Y110092D01*
D12*
X-145068Y66962D02*
X-131880D01*
Y85662D01*
X-145068D02*
X-131880D01*
X-145068Y66962D02*
Y85662D01*
X-128237Y88234D02*
X-106493D01*
X-126949Y98486D02*
X-106493D01*
X-59863Y37856D02*
X-59832Y18164D01*
X-69643Y18156D02*
Y37856D01*
X-88867Y68262D02*
Y86962D01*
X-102055Y68262D02*
X-88867D01*
X-102055D02*
Y86962D01*
X-88867D01*
D13*
X-99060Y121974D02*
G03*
X-99060Y121974I-394J0D01*
G01*
X-87587Y123675D02*
X-82075D01*
X-87587Y131549D02*
X-82075D01*
X-162784Y65013D02*
Y70525D01*
X-170658Y65013D02*
Y70525D01*
X-162784Y84698D02*
Y90210D01*
X-170658Y84698D02*
Y90210D01*
X-70658Y84698D02*
Y90210D01*
X-62784Y84698D02*
Y90210D01*
X-70658Y65013D02*
Y70525D01*
X-62784Y65013D02*
Y70525D01*
D14*
X-158848Y83813D02*
X-158060D01*
X-158848Y81647D02*
X-158060D01*
X-125197Y131181D02*
X-124803D01*
X-125197Y128819D02*
X-124803D01*
X-89753Y120132D02*
X-89359D01*
X-89753Y122494D02*
X-89359D01*
X-75383Y81647D02*
X-74595D01*
X-75383Y83813D02*
X-74595D01*
X-75383Y71411D02*
X-74595D01*
X-75383Y73577D02*
X-74595D01*
X-158848D02*
X-158060D01*
X-158848Y71411D02*
X-158060D01*
D16*
X-130500Y125400D02*
Y128119D01*
X-131860D01*
X-132313Y127666D01*
Y126760D01*
X-131860Y126306D01*
X-130500D01*
X-133672Y125400D02*
X-134579D01*
X-135032Y125853D01*
Y126760D01*
X-134579Y127213D01*
X-133672D01*
X-133219Y126760D01*
Y125853D01*
X-133672Y125400D01*
X-137751Y128119D02*
X-135938D01*
Y125400D01*
X-137751D01*
X-135938Y126760D02*
X-136845D01*
X-143189Y127666D02*
X-142736Y128119D01*
X-141830D01*
X-141376Y127666D01*
Y127213D01*
X-141830Y126760D01*
X-142736D01*
X-143189Y126306D01*
Y125853D01*
X-142736Y125400D01*
X-141830D01*
X-141376Y125853D01*
X-144096Y128119D02*
Y125400D01*
Y126760D01*
X-144549Y127213D01*
X-145455D01*
X-145908Y126760D01*
Y125400D01*
X-146815D02*
X-147721D01*
X-147268D01*
Y127213D01*
X-146815D01*
X-150440Y125400D02*
X-149534D01*
X-149081Y125853D01*
Y126760D01*
X-149534Y127213D01*
X-150440D01*
X-150893Y126760D01*
Y126306D01*
X-149081D01*
X-151800Y125400D02*
X-152706D01*
X-152253D01*
Y128119D01*
X-151800D01*
X-155878D02*
Y125400D01*
X-154519D01*
X-154066Y125853D01*
Y126760D01*
X-154519Y127213D01*
X-155878D01*
X-159504Y125400D02*
Y128119D01*
X-160863D01*
X-161317Y127666D01*
Y126760D01*
X-160863Y126306D01*
X-159504D01*
X-160410D02*
X-161317Y125400D01*
X-162223D02*
X-163129D01*
X-162676D01*
Y128119D01*
X-162223Y127666D01*
X-120300Y123519D02*
Y120800D01*
Y122160D01*
X-120753Y122613D01*
X-121660D01*
X-122113Y122160D01*
Y120800D01*
X-123472Y123066D02*
Y122613D01*
X-123019D01*
X-123925D01*
X-123472D01*
Y121253D01*
X-123925Y120800D01*
X-125738Y123066D02*
Y122613D01*
X-125285D01*
X-126191D01*
X-125738D01*
Y121253D01*
X-126191Y120800D01*
X-127551Y119894D02*
Y122613D01*
X-128911D01*
X-129364Y122160D01*
Y121253D01*
X-128911Y120800D01*
X-127551D01*
X-130270D02*
X-131630D01*
X-132083Y121253D01*
X-131630Y121706D01*
X-130723D01*
X-130270Y122160D01*
X-130723Y122613D01*
X-132083D01*
X-132989D02*
X-133442D01*
Y122160D01*
X-132989D01*
Y122613D01*
Y121253D02*
X-133442D01*
Y120800D01*
X-132989D01*
Y121253D01*
X-135255Y120800D02*
X-137068Y122613D01*
X-137974Y120800D02*
X-139787Y122613D01*
X-141147Y120800D02*
X-142053D01*
X-142506Y121253D01*
Y122160D01*
X-142053Y122613D01*
X-141147D01*
X-140693Y122160D01*
Y121253D01*
X-141147Y120800D01*
X-143412Y119894D02*
Y122613D01*
X-144772D01*
X-145225Y122160D01*
Y121253D01*
X-144772Y120800D01*
X-143412D01*
X-147491D02*
X-146585D01*
X-146132Y121253D01*
Y122160D01*
X-146585Y122613D01*
X-147491D01*
X-147944Y122160D01*
Y121706D01*
X-146132D01*
X-148851Y120800D02*
Y122613D01*
X-150210D01*
X-150663Y122160D01*
Y120800D01*
X-151570D02*
Y122613D01*
X-152023D01*
X-152476Y122160D01*
Y120800D01*
Y122160D01*
X-152929Y122613D01*
X-153383Y122160D01*
Y120800D01*
X-154289Y122613D02*
X-155195Y120800D01*
X-156102Y122613D01*
X-157008Y120800D02*
Y121253D01*
X-157461D01*
Y120800D01*
X-157008D01*
X-159274D02*
X-160180D01*
X-159727D01*
Y122613D01*
X-159274D01*
X-161993Y120800D02*
X-162899D01*
X-163353Y121253D01*
Y122160D01*
X-162899Y122613D01*
X-161993D01*
X-161540Y122160D01*
Y121253D01*
X-161993Y120800D01*
X-122800Y117866D02*
X-123253Y118319D01*
X-124160D01*
X-124613Y117866D01*
Y117413D01*
X-124160Y116960D01*
X-123706D01*
X-124160D01*
X-124613Y116506D01*
Y116053D01*
X-124160Y115600D01*
X-123253D01*
X-122800Y116053D01*
X-125519Y115600D02*
Y116053D01*
X-125972D01*
Y115600D01*
X-125519D01*
X-129598D02*
X-127785D01*
X-129598Y117413D01*
Y117866D01*
X-129145Y118319D01*
X-128238D01*
X-127785Y117866D01*
X-132317Y118319D02*
X-131411Y117866D01*
X-130504Y116960D01*
Y116053D01*
X-130957Y115600D01*
X-131864D01*
X-132317Y116053D01*
Y116506D01*
X-131864Y116960D01*
X-130504D01*
X-133223Y115600D02*
Y116053D01*
X-133677D01*
Y115600D01*
X-133223D01*
X-137302D02*
X-135489D01*
X-137302Y117413D01*
Y117866D01*
X-136849Y118319D01*
X-135942D01*
X-135489Y117866D01*
X-138208D02*
X-138662Y118319D01*
X-139568D01*
X-140021Y117866D01*
Y117413D01*
X-139568Y116960D01*
X-139115D01*
X-139568D01*
X-140021Y116506D01*
Y116053D01*
X-139568Y115600D01*
X-138662D01*
X-138208Y116053D01*
D17*
X-59241Y-14226D02*
X-61054D01*
X-61960Y-13319D01*
X-61054Y-12413D01*
X-59241D01*
Y-11507D02*
Y-10600D01*
Y-11054D01*
X-61960D01*
Y-11507D01*
Y-10600D01*
Y-9241D02*
X-59241D01*
X-61960Y-7428D01*
X-59241D01*
X-59694Y-22314D02*
X-59241Y-22767D01*
Y-23674D01*
X-59694Y-24127D01*
X-61507D01*
X-61960Y-23674D01*
Y-22767D01*
X-61507Y-22314D01*
X-60601D01*
Y-23221D01*
X-61960Y-21408D02*
X-59241D01*
X-61960Y-19595D01*
X-59241D01*
Y-18689D02*
X-61960D01*
Y-17329D01*
X-61507Y-16876D01*
X-59694D01*
X-59241Y-17329D01*
Y-18689D01*
X-156522Y44935D02*
X-159241D01*
Y46748D01*
X-156522Y49467D02*
Y47654D01*
X-159241D01*
Y49467D01*
X-157881Y47654D02*
Y48561D01*
X-156522Y50373D02*
X-159241D01*
Y51733D01*
X-158788Y52186D01*
X-156975D01*
X-156522Y51733D01*
Y50373D01*
X-159241Y33911D02*
X-156522D01*
Y35271D01*
X-156975Y35724D01*
X-157881D01*
X-158335Y35271D01*
Y33911D01*
Y34817D02*
X-159241Y35724D01*
X-156522Y36630D02*
X-159241Y38443D01*
X-156522D02*
X-159241Y36630D01*
Y39349D02*
X-156522D01*
X-159241Y41162D01*
X-156522D01*
X-159241Y24462D02*
X-156522D01*
Y25822D01*
X-156975Y26275D01*
X-157881D01*
X-158335Y25822D01*
Y24462D01*
Y25368D02*
X-159241Y26275D01*
X-156522Y27181D02*
X-159241Y28994D01*
X-156522D02*
X-159241Y27181D01*
Y29900D02*
X-156522D01*
Y31260D01*
X-156975Y31713D01*
X-157881D01*
X-158335Y31260D01*
Y29900D01*
X-156522Y13832D02*
Y15645D01*
Y14738D01*
X-159241D01*
X-156522Y16551D02*
X-159241Y18364D01*
X-156522D02*
X-159241Y16551D01*
Y19270D02*
X-156522D01*
X-159241Y21083D01*
X-156522D01*
Y3990D02*
Y5803D01*
Y4896D01*
X-159241D01*
X-156522Y6709D02*
X-159241Y8522D01*
X-156522D02*
X-159241Y6709D01*
Y9428D02*
X-156522D01*
Y10788D01*
X-156975Y11241D01*
X-157881D01*
X-158335Y10788D01*
Y9428D01*
X-156975Y-23725D02*
X-156522Y-24178D01*
Y-25085D01*
X-156975Y-25538D01*
X-158788D01*
X-159241Y-25085D01*
Y-24178D01*
X-158788Y-23725D01*
X-157881D01*
Y-24632D01*
X-159241Y-22819D02*
X-156522D01*
X-159241Y-21006D01*
X-156522D01*
Y-20100D02*
X-159241D01*
Y-18740D01*
X-158788Y-18287D01*
X-156975D01*
X-156522Y-18740D01*
Y-20100D01*
D18*
X-57394Y104383D02*
X-60028D01*
X-58711D01*
Y106139D01*
X-57394D01*
X-60028D01*
Y107456D02*
Y108334D01*
X-59589Y108773D01*
X-58711D01*
X-58272Y108334D01*
Y107456D01*
X-58711Y107017D01*
X-59589D01*
X-60028Y107456D01*
X-57833Y110090D02*
X-58272D01*
Y109651D01*
Y110529D01*
Y110090D01*
X-59589D01*
X-60028Y110529D01*
X-57394Y69738D02*
X-60028D01*
X-58711D01*
Y71494D01*
X-57394D01*
X-60028D01*
Y72811D02*
Y73689D01*
X-59589Y74128D01*
X-58711D01*
X-58272Y73689D01*
Y72811D01*
X-58711Y72372D01*
X-59589D01*
X-60028Y72811D01*
X-57833Y75445D02*
X-58272D01*
Y75006D01*
Y75884D01*
Y75445D01*
X-59589D01*
X-60028Y75884D01*
X-173930Y69738D02*
X-176564D01*
X-175247D01*
Y71494D01*
X-173930D01*
X-176564D01*
Y72811D02*
Y73689D01*
X-176125Y74128D01*
X-175247D01*
X-174808Y73689D01*
Y72811D01*
X-175247Y72372D01*
X-176125D01*
X-176564Y72811D01*
X-174369Y75445D02*
X-174808D01*
Y75006D01*
Y75884D01*
Y75445D01*
X-176125D01*
X-176564Y75884D01*
X-173930Y104383D02*
X-176564D01*
X-175247D01*
Y106139D01*
X-173930D01*
X-176564D01*
Y107456D02*
Y108334D01*
X-176125Y108773D01*
X-175247D01*
X-174808Y108334D01*
Y107456D01*
X-175247Y107017D01*
X-176125D01*
X-176564Y107456D01*
X-174369Y110090D02*
X-174808D01*
Y109651D01*
Y110529D01*
Y110090D01*
X-176125D01*
X-176564Y110529D01*
D67*
X-131485Y88439D02*
Y98281D01*
X-69674Y14227D02*
X-59832D01*
M02*
