G04*
G04 #@! TF.GenerationSoftware,Altium Limited,Altium Designer,21.7.2 (23)*
G04*
G04 Layer_Color=32896*
%FSLAX25Y25*%
%MOIN*%
G70*
G04*
G04 #@! TF.SameCoordinates,CC107787-991B-443C-84B7-B8317AFA6C2B*
G04*
G04*
G04 #@! TF.FilePolarity,Positive*
G04*
G01*
G75*
%ADD10C,0.00500*%
%ADD12C,0.00787*%
%ADD13C,0.00787*%
%ADD14C,0.00591*%
%ADD16C,0.00544*%
%ADD17C,0.00598*%
%ADD18C,0.00527*%
%ADD67C,0.00984*%
G36*
X91797Y89500D02*
X92397D01*
Y89400D01*
X92797D01*
Y89300D01*
X93097D01*
Y89200D01*
X93397D01*
Y89100D01*
X93597D01*
Y89000D01*
X93897D01*
Y88900D01*
X94097D01*
Y88800D01*
X94297D01*
Y88700D01*
X94397D01*
Y88600D01*
X94597D01*
Y88500D01*
X94697D01*
Y88400D01*
X94897D01*
Y88300D01*
X94997D01*
Y88200D01*
X94897D01*
Y88100D01*
X94697D01*
Y88000D01*
X94597D01*
Y87900D01*
X94397D01*
Y87800D01*
X94197D01*
Y87700D01*
X93997D01*
Y87600D01*
X93897D01*
Y87500D01*
X93697D01*
Y87400D01*
X93497D01*
Y87300D01*
X93297D01*
Y87200D01*
X93197D01*
Y87100D01*
X92997D01*
Y87000D01*
X92797D01*
Y86900D01*
X92597D01*
Y86800D01*
X92497D01*
Y86700D01*
X92297D01*
Y86600D01*
X92097D01*
Y86500D01*
X91997D01*
Y86400D01*
X91797D01*
Y86300D01*
X91597D01*
Y86200D01*
X91397D01*
Y86100D01*
X91197D01*
Y86000D01*
X91097D01*
Y85900D01*
X90897D01*
Y85800D01*
X90697D01*
Y85700D01*
X90597D01*
Y85600D01*
X90397D01*
Y85500D01*
X90197D01*
Y85400D01*
X89997D01*
Y85300D01*
X89897D01*
Y85200D01*
X89697D01*
Y85100D01*
X89497D01*
Y85000D01*
X89397D01*
Y85100D01*
Y85200D01*
Y85300D01*
Y85400D01*
Y85500D01*
Y85600D01*
Y85700D01*
Y85800D01*
Y85900D01*
Y86000D01*
Y86100D01*
Y86200D01*
Y86300D01*
Y86400D01*
Y86500D01*
Y86600D01*
Y86700D01*
Y86800D01*
Y86900D01*
Y87000D01*
Y87100D01*
Y87200D01*
Y87300D01*
Y87400D01*
Y87500D01*
Y87600D01*
Y87700D01*
Y87800D01*
Y87900D01*
Y88000D01*
Y88100D01*
Y88200D01*
Y88300D01*
Y88400D01*
Y88500D01*
Y88600D01*
Y88700D01*
Y88800D01*
Y88900D01*
Y89000D01*
Y89100D01*
Y89200D01*
Y89300D01*
Y89400D01*
X89597D01*
Y89500D01*
X90197D01*
Y89600D01*
X91797D01*
Y89500D01*
D02*
G37*
G36*
X88597Y89000D02*
Y88900D01*
Y88800D01*
Y88700D01*
Y88600D01*
Y88500D01*
Y88400D01*
Y88300D01*
Y88200D01*
Y88100D01*
Y88000D01*
Y87900D01*
Y87800D01*
Y87700D01*
Y87600D01*
Y87500D01*
Y87400D01*
Y87300D01*
Y87200D01*
Y87100D01*
Y87000D01*
Y86900D01*
Y86800D01*
Y86700D01*
Y86600D01*
Y86500D01*
Y86400D01*
Y86300D01*
Y86200D01*
Y86100D01*
Y86000D01*
Y85900D01*
Y85800D01*
Y85700D01*
Y85600D01*
Y85500D01*
Y85400D01*
Y85300D01*
Y85200D01*
Y85100D01*
Y85000D01*
Y84900D01*
Y84800D01*
Y84700D01*
Y84600D01*
Y84500D01*
Y84400D01*
Y84300D01*
Y84200D01*
Y84100D01*
Y84000D01*
Y83900D01*
Y83800D01*
Y83700D01*
Y83600D01*
Y83500D01*
Y83400D01*
Y83300D01*
Y83200D01*
Y83100D01*
Y83000D01*
Y82900D01*
Y82800D01*
Y82700D01*
X88497D01*
Y82800D01*
X88297D01*
Y82900D01*
X88097D01*
Y83000D01*
X87997D01*
Y83100D01*
X87797D01*
Y83200D01*
X87597D01*
Y83300D01*
X87397D01*
Y83400D01*
X87297D01*
Y83500D01*
X87097D01*
Y83600D01*
X86897D01*
Y83700D01*
X86697D01*
Y83800D01*
X86597D01*
Y83900D01*
X86397D01*
Y84000D01*
X86197D01*
Y84100D01*
X85997D01*
Y84200D01*
X85897D01*
Y84300D01*
X85697D01*
Y84400D01*
X85497D01*
Y84500D01*
X85297D01*
Y84600D01*
X85197D01*
Y84700D01*
X84997D01*
Y84800D01*
X84797D01*
Y84900D01*
Y85000D01*
Y85100D01*
Y85200D01*
X84897D01*
Y85300D01*
Y85400D01*
Y85500D01*
X84997D01*
Y85600D01*
Y85700D01*
X85097D01*
Y85800D01*
Y85900D01*
X85197D01*
Y86000D01*
Y86100D01*
X85297D01*
Y86200D01*
Y86300D01*
X85397D01*
Y86400D01*
Y86500D01*
X85497D01*
Y86600D01*
X85597D01*
Y86700D01*
Y86800D01*
X85697D01*
Y86900D01*
X85797D01*
Y87000D01*
Y87100D01*
X85897D01*
Y87200D01*
X85997D01*
Y87300D01*
X86097D01*
Y87400D01*
X86197D01*
Y87500D01*
X86297D01*
Y87600D01*
X86397D01*
Y87700D01*
X86497D01*
Y87800D01*
X86597D01*
Y87900D01*
X86697D01*
Y88000D01*
X86797D01*
Y88100D01*
X86897D01*
Y88200D01*
X86997D01*
Y88300D01*
X87197D01*
Y88400D01*
X87297D01*
Y88500D01*
X87497D01*
Y88600D01*
X87597D01*
Y88700D01*
X87797D01*
Y88800D01*
X87997D01*
Y88900D01*
X88197D01*
Y89000D01*
X88397D01*
Y89100D01*
X88597D01*
Y89000D01*
D02*
G37*
G36*
X95797Y87500D02*
X95897D01*
Y87400D01*
X95997D01*
Y87300D01*
Y87200D01*
X96097D01*
Y87100D01*
X96197D01*
Y87000D01*
X96297D01*
Y86900D01*
Y86800D01*
X96397D01*
Y86700D01*
X96497D01*
Y86600D01*
Y86500D01*
X96597D01*
Y86400D01*
X96697D01*
Y86300D01*
Y86200D01*
X96797D01*
Y86100D01*
Y86000D01*
X96897D01*
Y85900D01*
Y85800D01*
X96997D01*
Y85700D01*
Y85600D01*
X97097D01*
Y85500D01*
Y85400D01*
Y85300D01*
X97197D01*
Y85200D01*
Y85100D01*
Y85000D01*
X97297D01*
Y84900D01*
Y84800D01*
Y84700D01*
Y84600D01*
X97397D01*
Y84500D01*
Y84400D01*
Y84300D01*
Y84200D01*
Y84100D01*
X97497D01*
Y84000D01*
Y83900D01*
Y83800D01*
Y83700D01*
Y83600D01*
Y83500D01*
Y83400D01*
Y83300D01*
Y83200D01*
Y83100D01*
Y83000D01*
Y82900D01*
Y82800D01*
Y82700D01*
Y82600D01*
Y82500D01*
Y82400D01*
Y82300D01*
Y82200D01*
X97397D01*
Y82300D01*
X97197D01*
Y82400D01*
X96997D01*
Y82500D01*
X96797D01*
Y82600D01*
X96697D01*
Y82700D01*
X96497D01*
Y82800D01*
X96297D01*
Y82900D01*
X96197D01*
Y83000D01*
X95997D01*
Y83100D01*
X95797D01*
Y83200D01*
X95597D01*
Y83300D01*
X95497D01*
Y83400D01*
X95297D01*
Y83500D01*
X95097D01*
Y83600D01*
X94897D01*
Y83700D01*
X94797D01*
Y83800D01*
X94597D01*
Y83900D01*
X94397D01*
Y84000D01*
X94197D01*
Y84100D01*
X94097D01*
Y84200D01*
X93897D01*
Y84300D01*
X93697D01*
Y84400D01*
X93597D01*
Y84500D01*
X93397D01*
Y84600D01*
X93197D01*
Y84700D01*
X92997D01*
Y84800D01*
X92897D01*
Y84900D01*
X92697D01*
Y85000D01*
X92497D01*
Y85100D01*
X92297D01*
Y85200D01*
X92197D01*
Y85300D01*
X91997D01*
Y85400D01*
X91897D01*
Y85500D01*
X92097D01*
Y85600D01*
X92197D01*
Y85700D01*
X92397D01*
Y85800D01*
X92597D01*
Y85900D01*
X92797D01*
Y86000D01*
X92897D01*
Y86100D01*
X93097D01*
Y86200D01*
X93297D01*
Y86300D01*
X93497D01*
Y86400D01*
X93597D01*
Y86500D01*
X93797D01*
Y86600D01*
X93997D01*
Y86700D01*
X94197D01*
Y86800D01*
X94297D01*
Y86900D01*
X94497D01*
Y87000D01*
X94697D01*
Y87100D01*
X94797D01*
Y87200D01*
X94997D01*
Y87300D01*
X95197D01*
Y87400D01*
X95397D01*
Y87500D01*
X95597D01*
Y87600D01*
X95797D01*
Y87500D01*
D02*
G37*
G36*
X64397Y85100D02*
Y85000D01*
Y84900D01*
Y84800D01*
Y84700D01*
Y84600D01*
Y84500D01*
Y84400D01*
Y84300D01*
Y84200D01*
X64497D01*
Y84100D01*
Y84000D01*
Y83900D01*
Y83800D01*
Y83700D01*
Y83600D01*
Y83500D01*
Y83400D01*
Y83300D01*
Y83200D01*
Y83100D01*
Y83000D01*
Y82900D01*
Y82800D01*
Y82700D01*
X64597D01*
Y82600D01*
Y82500D01*
Y82400D01*
Y82300D01*
Y82200D01*
Y82100D01*
Y82000D01*
Y81900D01*
Y81800D01*
Y81700D01*
Y81600D01*
X64697D01*
Y81500D01*
Y81400D01*
Y81300D01*
Y81200D01*
Y81100D01*
Y81000D01*
Y80900D01*
Y80800D01*
Y80700D01*
Y80600D01*
Y80500D01*
Y80400D01*
X64797D01*
Y80300D01*
Y80200D01*
Y80100D01*
Y80000D01*
Y79900D01*
Y79800D01*
Y79700D01*
Y79600D01*
Y79500D01*
X64897D01*
Y79400D01*
Y79300D01*
Y79200D01*
Y79100D01*
Y79000D01*
Y78900D01*
Y78800D01*
X63197D01*
Y78900D01*
Y79000D01*
Y79100D01*
Y79200D01*
Y79300D01*
Y79400D01*
Y79500D01*
Y79600D01*
Y79700D01*
Y79800D01*
Y79900D01*
Y80000D01*
Y80100D01*
Y80200D01*
Y80300D01*
Y80400D01*
Y80500D01*
Y80600D01*
Y80700D01*
Y80800D01*
Y80900D01*
X63097D01*
Y81000D01*
Y81100D01*
Y81200D01*
Y81300D01*
Y81400D01*
Y81500D01*
Y81600D01*
Y81700D01*
Y81800D01*
Y81900D01*
Y82000D01*
Y82100D01*
Y82200D01*
Y82300D01*
Y82400D01*
X62997D01*
Y82500D01*
Y82600D01*
Y82700D01*
Y82800D01*
Y82900D01*
Y83000D01*
Y83100D01*
Y83200D01*
Y83300D01*
X62897D01*
Y83200D01*
Y83100D01*
Y83000D01*
Y82900D01*
Y82800D01*
X62797D01*
Y82700D01*
Y82600D01*
Y82500D01*
Y82400D01*
X62697D01*
Y82300D01*
Y82200D01*
Y82100D01*
Y82000D01*
X62597D01*
Y81900D01*
Y81800D01*
Y81700D01*
Y81600D01*
X62497D01*
Y81500D01*
Y81400D01*
Y81300D01*
Y81200D01*
Y81100D01*
X62397D01*
Y81000D01*
Y80900D01*
Y80800D01*
Y80700D01*
X62297D01*
Y80600D01*
Y80500D01*
Y80400D01*
Y80300D01*
X62197D01*
Y80200D01*
Y80100D01*
Y80000D01*
Y79900D01*
Y79800D01*
X62097D01*
Y79700D01*
Y79600D01*
Y79500D01*
Y79400D01*
X61997D01*
Y79300D01*
Y79200D01*
Y79100D01*
Y79000D01*
Y78900D01*
X61897D01*
Y78800D01*
X60197D01*
Y78900D01*
X60097D01*
Y79000D01*
Y79100D01*
Y79200D01*
X59997D01*
Y79300D01*
Y79400D01*
Y79500D01*
X59897D01*
Y79600D01*
Y79700D01*
Y79800D01*
X59797D01*
Y79900D01*
Y80000D01*
Y80100D01*
X59697D01*
Y80200D01*
Y80300D01*
Y80400D01*
X59597D01*
Y80500D01*
Y80600D01*
Y80700D01*
X59497D01*
Y80800D01*
Y80900D01*
Y81000D01*
X59397D01*
Y81100D01*
Y81200D01*
Y81300D01*
X59297D01*
Y81400D01*
Y81500D01*
Y81600D01*
X59197D01*
Y81700D01*
Y81800D01*
Y81900D01*
X59097D01*
Y82000D01*
Y82100D01*
Y82200D01*
X58997D01*
Y82300D01*
Y82400D01*
Y82500D01*
Y82600D01*
X58897D01*
Y82700D01*
Y82800D01*
X58797D01*
Y82900D01*
Y83000D01*
Y83100D01*
Y83200D01*
X58697D01*
Y83100D01*
Y83000D01*
Y82900D01*
Y82800D01*
Y82700D01*
Y82600D01*
Y82500D01*
Y82400D01*
Y82300D01*
Y82200D01*
Y82100D01*
Y82000D01*
Y81900D01*
Y81800D01*
Y81700D01*
Y81600D01*
Y81500D01*
Y81400D01*
Y81300D01*
Y81200D01*
Y81100D01*
Y81000D01*
Y80900D01*
Y80800D01*
Y80700D01*
Y80600D01*
Y80500D01*
Y80400D01*
Y80300D01*
Y80200D01*
Y80100D01*
X58797D01*
Y80000D01*
Y79900D01*
Y79800D01*
Y79700D01*
Y79600D01*
Y79500D01*
Y79400D01*
Y79300D01*
Y79200D01*
Y79100D01*
Y79000D01*
Y78900D01*
Y78800D01*
X57097D01*
Y78900D01*
Y79000D01*
Y79100D01*
Y79200D01*
Y79300D01*
Y79400D01*
Y79500D01*
Y79600D01*
Y79700D01*
Y79800D01*
Y79900D01*
Y80000D01*
Y80100D01*
Y80200D01*
Y80300D01*
Y80400D01*
Y80500D01*
Y80600D01*
Y80700D01*
Y80800D01*
X56997D01*
Y80900D01*
Y81000D01*
Y81100D01*
Y81200D01*
Y81300D01*
Y81400D01*
Y81500D01*
Y81600D01*
Y81700D01*
Y81800D01*
Y81900D01*
Y82000D01*
Y82100D01*
Y82200D01*
Y82300D01*
Y82400D01*
Y82500D01*
Y82600D01*
Y82700D01*
Y82800D01*
Y82900D01*
Y83000D01*
Y83100D01*
Y83200D01*
Y83300D01*
Y83400D01*
Y83500D01*
Y83600D01*
Y83700D01*
Y83800D01*
Y83900D01*
Y84000D01*
Y84100D01*
X56897D01*
Y84200D01*
Y84300D01*
Y84400D01*
Y84500D01*
Y84600D01*
Y84700D01*
Y84800D01*
Y84900D01*
Y85000D01*
Y85100D01*
Y85200D01*
X59597D01*
Y85100D01*
Y85000D01*
Y84900D01*
X59697D01*
Y84800D01*
Y84700D01*
Y84600D01*
X59797D01*
Y84500D01*
Y84400D01*
Y84300D01*
X59897D01*
Y84200D01*
Y84100D01*
Y84000D01*
X59997D01*
Y83900D01*
Y83800D01*
Y83700D01*
X60097D01*
Y83600D01*
Y83500D01*
X60197D01*
Y83400D01*
Y83300D01*
Y83200D01*
X60297D01*
Y83100D01*
Y83000D01*
Y82900D01*
X60397D01*
Y82800D01*
Y82700D01*
Y82600D01*
X60497D01*
Y82500D01*
Y82400D01*
Y82300D01*
X60597D01*
Y82200D01*
Y82100D01*
Y82000D01*
X60697D01*
Y81900D01*
Y81800D01*
Y81700D01*
Y81600D01*
X60797D01*
Y81500D01*
Y81400D01*
Y81300D01*
X60897D01*
Y81400D01*
Y81500D01*
Y81600D01*
X60997D01*
Y81700D01*
Y81800D01*
Y81900D01*
Y82000D01*
Y82100D01*
X61097D01*
Y82200D01*
Y82300D01*
Y82400D01*
Y82500D01*
Y82600D01*
X61197D01*
Y82700D01*
Y82800D01*
Y82900D01*
Y83000D01*
Y83100D01*
X61297D01*
Y83200D01*
Y83300D01*
Y83400D01*
X61397D01*
Y83500D01*
Y83600D01*
Y83700D01*
Y83800D01*
X61497D01*
Y83900D01*
Y84000D01*
Y84100D01*
Y84200D01*
X61597D01*
Y84300D01*
Y84400D01*
Y84500D01*
Y84600D01*
X61697D01*
Y84700D01*
Y84800D01*
Y84900D01*
Y85000D01*
Y85100D01*
Y85200D01*
X64397D01*
Y85100D01*
D02*
G37*
G36*
X56397D02*
Y85000D01*
Y84900D01*
X56297D01*
Y84800D01*
Y84700D01*
X56197D01*
Y84600D01*
Y84500D01*
Y84400D01*
X56097D01*
Y84300D01*
Y84200D01*
Y84100D01*
X55997D01*
Y84000D01*
Y83900D01*
Y83800D01*
X55897D01*
Y83700D01*
Y83600D01*
Y83500D01*
X55797D01*
Y83400D01*
Y83300D01*
Y83200D01*
X55697D01*
Y83100D01*
Y83000D01*
X55597D01*
Y82900D01*
Y82800D01*
Y82700D01*
X55497D01*
Y82600D01*
Y82500D01*
Y82400D01*
X55397D01*
Y82300D01*
Y82200D01*
Y82100D01*
X55297D01*
Y82000D01*
Y81900D01*
Y81800D01*
X55197D01*
Y81700D01*
Y81600D01*
Y81500D01*
X55097D01*
Y81400D01*
Y81300D01*
Y81200D01*
X54997D01*
Y81100D01*
Y81000D01*
Y80900D01*
X54897D01*
Y80800D01*
Y80700D01*
X54797D01*
Y80600D01*
Y80500D01*
Y80400D01*
X54697D01*
Y80300D01*
Y80200D01*
Y80100D01*
X54597D01*
Y80000D01*
Y79900D01*
Y79800D01*
X54497D01*
Y79700D01*
Y79600D01*
Y79500D01*
X54397D01*
Y79400D01*
Y79300D01*
Y79200D01*
X54297D01*
Y79100D01*
Y79000D01*
Y78900D01*
X54197D01*
Y78800D01*
X51897D01*
Y78900D01*
X51797D01*
Y79000D01*
Y79100D01*
X51697D01*
Y79200D01*
Y79300D01*
X51597D01*
Y79400D01*
Y79500D01*
Y79600D01*
X51497D01*
Y79700D01*
Y79800D01*
X51397D01*
Y79900D01*
Y80000D01*
X51297D01*
Y80100D01*
Y80200D01*
X51197D01*
Y80300D01*
Y80400D01*
X51097D01*
Y80500D01*
Y80600D01*
X50997D01*
Y80700D01*
Y80800D01*
X50897D01*
Y80900D01*
X50797D01*
Y81000D01*
Y81100D01*
X50697D01*
Y81200D01*
Y81300D01*
X50597D01*
Y81400D01*
Y81500D01*
X50497D01*
Y81600D01*
Y81700D01*
X50397D01*
Y81800D01*
Y81900D01*
X50297D01*
Y82000D01*
Y82100D01*
X50197D01*
Y82200D01*
Y82300D01*
X50097D01*
Y82400D01*
Y82500D01*
X49997D01*
Y82600D01*
Y82700D01*
X49897D01*
Y82800D01*
Y82900D01*
X49797D01*
Y83000D01*
Y83100D01*
X49697D01*
Y83200D01*
Y83300D01*
X49597D01*
Y83400D01*
Y83500D01*
X49497D01*
Y83600D01*
Y83700D01*
X49397D01*
Y83800D01*
Y83900D01*
X49297D01*
Y84000D01*
Y84100D01*
X49197D01*
Y84200D01*
Y84300D01*
X49097D01*
Y84400D01*
Y84500D01*
X48997D01*
Y84600D01*
Y84700D01*
X48897D01*
Y84800D01*
Y84900D01*
X48797D01*
Y85000D01*
Y85100D01*
X48697D01*
Y85200D01*
X50797D01*
Y85100D01*
X50897D01*
Y85000D01*
Y84900D01*
Y84800D01*
X50997D01*
Y84700D01*
Y84600D01*
X51097D01*
Y84500D01*
Y84400D01*
X51197D01*
Y84300D01*
Y84200D01*
Y84100D01*
X51297D01*
Y84000D01*
Y83900D01*
X51397D01*
Y83800D01*
Y83700D01*
X51497D01*
Y83600D01*
Y83500D01*
X51597D01*
Y83400D01*
Y83300D01*
X51697D01*
Y83200D01*
Y83100D01*
Y83000D01*
X51797D01*
Y82900D01*
Y82800D01*
X51897D01*
Y82700D01*
Y82600D01*
X51997D01*
Y82500D01*
Y82400D01*
X52097D01*
Y82300D01*
Y82200D01*
X52197D01*
Y82100D01*
Y82000D01*
X52297D01*
Y81900D01*
Y81800D01*
Y81700D01*
X52397D01*
Y81600D01*
Y81500D01*
X52497D01*
Y81400D01*
Y81300D01*
X52597D01*
Y81200D01*
Y81100D01*
X52697D01*
Y81000D01*
Y80900D01*
Y80800D01*
X52797D01*
Y80700D01*
Y80600D01*
X52897D01*
Y80500D01*
X52997D01*
Y80600D01*
Y80700D01*
Y80800D01*
Y80900D01*
X53097D01*
Y81000D01*
Y81100D01*
Y81200D01*
Y81300D01*
X53197D01*
Y81400D01*
Y81500D01*
Y81600D01*
X53297D01*
Y81700D01*
Y81800D01*
Y81900D01*
X53397D01*
Y82000D01*
Y82100D01*
Y82200D01*
X53497D01*
Y82300D01*
Y82400D01*
Y82500D01*
Y82600D01*
X53597D01*
Y82700D01*
Y82800D01*
Y82900D01*
X53697D01*
Y83000D01*
Y83100D01*
Y83200D01*
X53797D01*
Y83300D01*
Y83400D01*
Y83500D01*
X53897D01*
Y83600D01*
Y83700D01*
Y83800D01*
X53997D01*
Y83900D01*
Y84000D01*
Y84100D01*
X54097D01*
Y84200D01*
Y84300D01*
Y84400D01*
Y84500D01*
X54197D01*
Y84600D01*
Y84700D01*
Y84800D01*
X54297D01*
Y84900D01*
Y85000D01*
Y85100D01*
Y85200D01*
X56397D01*
Y85100D01*
D02*
G37*
G36*
X75297Y83600D02*
X75697D01*
Y83500D01*
X75897D01*
Y83400D01*
X76097D01*
Y83300D01*
X76197D01*
Y83200D01*
X76397D01*
Y83100D01*
X76497D01*
Y83000D01*
X76597D01*
Y82900D01*
X76697D01*
Y82800D01*
Y82700D01*
X76797D01*
Y82600D01*
X76897D01*
Y82500D01*
Y82400D01*
X76997D01*
Y82300D01*
Y82200D01*
X77097D01*
Y82100D01*
Y82000D01*
Y81900D01*
X77197D01*
Y81800D01*
Y81700D01*
Y81600D01*
Y81500D01*
Y81400D01*
X77297D01*
Y81300D01*
Y81200D01*
Y81100D01*
Y81000D01*
Y80900D01*
Y80800D01*
Y80700D01*
X77197D01*
Y80600D01*
Y80500D01*
Y80400D01*
Y80300D01*
Y80200D01*
X77097D01*
Y80100D01*
Y80000D01*
Y79900D01*
X76997D01*
Y79800D01*
Y79700D01*
X76897D01*
Y79600D01*
X76797D01*
Y79500D01*
X76697D01*
Y79400D01*
X76597D01*
Y79300D01*
X76497D01*
Y79200D01*
X76397D01*
Y79100D01*
X76297D01*
Y79000D01*
X76097D01*
Y78900D01*
X75797D01*
Y78800D01*
X75397D01*
Y78700D01*
X73297D01*
Y78800D01*
X72697D01*
Y78900D01*
Y79000D01*
Y79100D01*
Y79200D01*
X72597D01*
Y79300D01*
Y79400D01*
Y79500D01*
Y79600D01*
Y79700D01*
Y79800D01*
X72497D01*
Y79900D01*
Y80000D01*
Y80100D01*
Y80200D01*
X72697D01*
Y80100D01*
X73097D01*
Y80000D01*
X73597D01*
Y79900D01*
X74597D01*
Y80000D01*
X74897D01*
Y80100D01*
X75097D01*
Y80200D01*
X75197D01*
Y80300D01*
X75297D01*
Y80400D01*
Y80500D01*
X75397D01*
Y80600D01*
Y80700D01*
Y80800D01*
Y80900D01*
Y81000D01*
X72097D01*
Y81100D01*
Y81200D01*
Y81300D01*
Y81400D01*
Y81500D01*
X71997D01*
Y81600D01*
Y81700D01*
X72097D01*
Y81800D01*
Y81900D01*
Y82000D01*
Y82100D01*
Y82200D01*
Y82300D01*
X72197D01*
Y82400D01*
Y82500D01*
Y82600D01*
X72297D01*
Y82700D01*
Y82800D01*
X72397D01*
Y82900D01*
X72497D01*
Y83000D01*
X72597D01*
Y83100D01*
X72697D01*
Y83200D01*
X72797D01*
Y83300D01*
X72897D01*
Y83400D01*
X73097D01*
Y83500D01*
X73297D01*
Y83600D01*
X73697D01*
Y83700D01*
X75297D01*
Y83600D01*
D02*
G37*
G36*
X68197D02*
X68597D01*
Y83500D01*
X68797D01*
Y83400D01*
X68897D01*
Y83300D01*
X69097D01*
Y83200D01*
X69197D01*
Y83100D01*
X69297D01*
Y83200D01*
Y83300D01*
Y83400D01*
Y83500D01*
Y83600D01*
X71197D01*
Y83500D01*
Y83400D01*
Y83300D01*
Y83200D01*
Y83100D01*
Y83000D01*
Y82900D01*
Y82800D01*
Y82700D01*
Y82600D01*
Y82500D01*
Y82400D01*
Y82300D01*
Y82200D01*
Y82100D01*
Y82000D01*
Y81900D01*
Y81800D01*
Y81700D01*
Y81600D01*
Y81500D01*
X71297D01*
Y81400D01*
Y81300D01*
Y81200D01*
Y81100D01*
Y81000D01*
Y80900D01*
Y80800D01*
Y80700D01*
Y80600D01*
Y80500D01*
Y80400D01*
Y80300D01*
Y80200D01*
Y80100D01*
Y80000D01*
X71397D01*
Y79900D01*
Y79800D01*
Y79700D01*
Y79600D01*
Y79500D01*
Y79400D01*
Y79300D01*
Y79200D01*
Y79100D01*
X71497D01*
Y79000D01*
Y78900D01*
Y78800D01*
X69497D01*
Y78900D01*
Y79000D01*
Y79100D01*
Y79200D01*
Y79300D01*
Y79400D01*
Y79500D01*
Y79600D01*
Y79700D01*
Y79800D01*
Y79900D01*
Y80000D01*
Y80100D01*
Y80200D01*
Y80300D01*
Y80400D01*
Y80500D01*
Y80600D01*
X69397D01*
Y80700D01*
Y80800D01*
Y80900D01*
Y81000D01*
Y81100D01*
Y81200D01*
X69297D01*
Y81300D01*
Y81400D01*
Y81500D01*
Y81600D01*
X69197D01*
Y81700D01*
Y81800D01*
X69097D01*
Y81900D01*
X68997D01*
Y82000D01*
X68897D01*
Y82100D01*
X68697D01*
Y82200D01*
X68097D01*
Y82100D01*
X67897D01*
Y82000D01*
X67797D01*
Y81900D01*
Y81800D01*
X67697D01*
Y81700D01*
Y81600D01*
Y81500D01*
Y81400D01*
Y81300D01*
Y81200D01*
Y81100D01*
Y81000D01*
Y80900D01*
Y80800D01*
Y80700D01*
Y80600D01*
Y80500D01*
Y80400D01*
Y80300D01*
Y80200D01*
Y80100D01*
Y80000D01*
Y79900D01*
Y79800D01*
Y79700D01*
Y79600D01*
Y79500D01*
X67797D01*
Y79400D01*
Y79300D01*
Y79200D01*
Y79100D01*
Y79000D01*
Y78900D01*
Y78800D01*
X65897D01*
Y78900D01*
Y79000D01*
Y79100D01*
Y79200D01*
Y79300D01*
Y79400D01*
Y79500D01*
Y79600D01*
Y79700D01*
Y79800D01*
Y79900D01*
Y80000D01*
Y80100D01*
Y80200D01*
X65797D01*
Y80300D01*
Y80400D01*
Y80500D01*
Y80600D01*
Y80700D01*
Y80800D01*
Y80900D01*
Y81000D01*
Y81100D01*
Y81200D01*
Y81300D01*
Y81400D01*
Y81500D01*
Y81600D01*
Y81700D01*
Y81800D01*
Y81900D01*
Y82000D01*
Y82100D01*
X65697D01*
Y82200D01*
Y82300D01*
X65797D01*
Y82400D01*
Y82500D01*
Y82600D01*
Y82700D01*
Y82800D01*
X65897D01*
Y82900D01*
Y83000D01*
X65997D01*
Y83100D01*
Y83200D01*
X66097D01*
Y83300D01*
X66197D01*
Y83400D01*
X66397D01*
Y83500D01*
X66597D01*
Y83600D01*
X66897D01*
Y83700D01*
X68197D01*
Y83600D01*
D02*
G37*
G36*
X84697Y83900D02*
X84897D01*
Y83800D01*
X84997D01*
Y83700D01*
X85197D01*
Y83600D01*
X85397D01*
Y83500D01*
X85597D01*
Y83400D01*
X85697D01*
Y83300D01*
X85897D01*
Y83200D01*
X86097D01*
Y83100D01*
X86297D01*
Y83000D01*
X86397D01*
Y82900D01*
X86597D01*
Y82800D01*
X86797D01*
Y82700D01*
X86997D01*
Y82600D01*
X87097D01*
Y82500D01*
X87297D01*
Y82400D01*
X87497D01*
Y82300D01*
X87597D01*
Y82200D01*
X87797D01*
Y82100D01*
X87997D01*
Y82000D01*
X88197D01*
Y81900D01*
X88297D01*
Y81800D01*
X88497D01*
Y81700D01*
X88697D01*
Y81600D01*
X88897D01*
Y81500D01*
X88997D01*
Y81400D01*
X89197D01*
Y81300D01*
X89397D01*
Y81200D01*
X89597D01*
Y81100D01*
X89697D01*
Y81000D01*
X89897D01*
Y80900D01*
X90097D01*
Y80800D01*
Y80700D01*
X89897D01*
Y80600D01*
X89797D01*
Y80500D01*
X89597D01*
Y80400D01*
X89397D01*
Y80300D01*
X89197D01*
Y80200D01*
X89097D01*
Y80100D01*
X88897D01*
Y80000D01*
X88697D01*
Y79900D01*
X88497D01*
Y79800D01*
X88397D01*
Y79700D01*
X88197D01*
Y79600D01*
X87997D01*
Y79500D01*
X87797D01*
Y79400D01*
X87697D01*
Y79300D01*
X87497D01*
Y79200D01*
X87297D01*
Y79100D01*
X87197D01*
Y79000D01*
X86997D01*
Y78900D01*
X86797D01*
Y78800D01*
X86597D01*
Y78700D01*
X86497D01*
Y78600D01*
X86297D01*
Y78700D01*
X86197D01*
Y78800D01*
X86097D01*
Y78900D01*
X85997D01*
Y79000D01*
X85897D01*
Y79100D01*
Y79200D01*
X85797D01*
Y79300D01*
X85697D01*
Y79400D01*
X85597D01*
Y79500D01*
Y79600D01*
X85497D01*
Y79700D01*
X85397D01*
Y79800D01*
Y79900D01*
X85297D01*
Y80000D01*
Y80100D01*
X85197D01*
Y80200D01*
Y80300D01*
X85097D01*
Y80400D01*
Y80500D01*
X84997D01*
Y80600D01*
Y80700D01*
Y80800D01*
X84897D01*
Y80900D01*
Y81000D01*
X84797D01*
Y81100D01*
Y81200D01*
Y81300D01*
Y81400D01*
X84697D01*
Y81500D01*
Y81600D01*
Y81700D01*
Y81800D01*
X84597D01*
Y81900D01*
Y82000D01*
Y82100D01*
Y82200D01*
Y82300D01*
Y82400D01*
Y82500D01*
X84497D01*
Y82600D01*
Y82700D01*
Y82800D01*
Y82900D01*
Y83000D01*
Y83100D01*
Y83200D01*
Y83300D01*
Y83400D01*
Y83500D01*
Y83600D01*
Y83700D01*
Y83800D01*
X84597D01*
Y83900D01*
Y84000D01*
X84697D01*
Y83900D01*
D02*
G37*
G36*
X93597Y83400D02*
X93797D01*
Y83300D01*
X93897D01*
Y83200D01*
X94097D01*
Y83100D01*
X94297D01*
Y83000D01*
X94497D01*
Y82900D01*
X94597D01*
Y82800D01*
X94797D01*
Y82700D01*
X94997D01*
Y82600D01*
X95197D01*
Y82500D01*
X95297D01*
Y82400D01*
X95497D01*
Y82300D01*
X95697D01*
Y82200D01*
X95897D01*
Y82100D01*
X95997D01*
Y82000D01*
X96197D01*
Y81900D01*
X96397D01*
Y81800D01*
X96497D01*
Y81700D01*
X96697D01*
Y81600D01*
X96897D01*
Y81500D01*
X97097D01*
Y81400D01*
X97197D01*
Y81300D01*
X97297D01*
Y81200D01*
X97197D01*
Y81100D01*
Y81000D01*
Y80900D01*
X97097D01*
Y80800D01*
Y80700D01*
Y80600D01*
X96997D01*
Y80500D01*
Y80400D01*
X96897D01*
Y80300D01*
Y80200D01*
X96797D01*
Y80100D01*
Y80000D01*
X96697D01*
Y79900D01*
X96597D01*
Y79800D01*
Y79700D01*
X96497D01*
Y79600D01*
Y79500D01*
X96397D01*
Y79400D01*
X96297D01*
Y79300D01*
Y79200D01*
X96197D01*
Y79100D01*
X96097D01*
Y79000D01*
X95997D01*
Y78900D01*
X95897D01*
Y78800D01*
Y78700D01*
X95697D01*
Y78600D01*
Y78500D01*
X95597D01*
Y78400D01*
X95497D01*
Y78300D01*
X95297D01*
Y78200D01*
X95197D01*
Y78100D01*
X95097D01*
Y78000D01*
X94997D01*
Y77900D01*
X94797D01*
Y77800D01*
X94697D01*
Y77700D01*
X94597D01*
Y77600D01*
X94397D01*
Y77500D01*
X94197D01*
Y77400D01*
X94097D01*
Y77300D01*
X93897D01*
Y77200D01*
X93597D01*
Y77100D01*
X93397D01*
Y77200D01*
Y77300D01*
Y77400D01*
Y77500D01*
Y77600D01*
Y77700D01*
Y77800D01*
Y77900D01*
Y78000D01*
Y78100D01*
Y78200D01*
Y78300D01*
Y78400D01*
X93497D01*
Y78500D01*
X93397D01*
Y78600D01*
Y78700D01*
Y78800D01*
Y78900D01*
Y79000D01*
X93497D01*
Y79100D01*
Y79200D01*
X93397D01*
Y79300D01*
Y79400D01*
Y79500D01*
Y79600D01*
X93497D01*
Y79700D01*
Y79800D01*
X93397D01*
Y79900D01*
Y80000D01*
Y80100D01*
Y80200D01*
Y80300D01*
X93497D01*
Y80400D01*
X93397D01*
Y80500D01*
Y80600D01*
Y80700D01*
Y80800D01*
Y80900D01*
X93497D01*
Y81000D01*
X93397D01*
Y81100D01*
Y81200D01*
Y81300D01*
Y81400D01*
Y81500D01*
X93497D01*
Y81600D01*
X93397D01*
Y81700D01*
Y81800D01*
Y81900D01*
Y82000D01*
Y82100D01*
X93497D01*
Y82200D01*
X93397D01*
Y82300D01*
Y82400D01*
Y82500D01*
Y82600D01*
X93497D01*
Y82700D01*
Y82800D01*
Y82900D01*
X93397D01*
Y83000D01*
Y83100D01*
Y83200D01*
X93497D01*
Y83300D01*
Y83400D01*
Y83500D01*
X93597D01*
Y83400D01*
D02*
G37*
G36*
X92597Y81100D02*
Y81000D01*
Y80900D01*
Y80800D01*
Y80700D01*
Y80600D01*
Y80500D01*
Y80400D01*
Y80300D01*
Y80200D01*
Y80100D01*
Y80000D01*
Y79900D01*
Y79800D01*
Y79700D01*
Y79600D01*
Y79500D01*
Y79400D01*
Y79300D01*
Y79200D01*
Y79100D01*
Y79000D01*
Y78900D01*
Y78800D01*
Y78700D01*
Y78600D01*
Y78500D01*
Y78400D01*
Y78300D01*
Y78200D01*
Y78100D01*
Y78000D01*
Y77900D01*
Y77800D01*
Y77700D01*
Y77600D01*
Y77500D01*
Y77400D01*
Y77300D01*
Y77200D01*
Y77100D01*
Y77000D01*
Y76900D01*
Y76800D01*
X92497D01*
Y76700D01*
X91797D01*
Y76600D01*
X90297D01*
Y76700D01*
X89597D01*
Y76800D01*
X89197D01*
Y76900D01*
X88897D01*
Y77000D01*
X88597D01*
Y77100D01*
X88397D01*
Y77200D01*
X88197D01*
Y77300D01*
X87997D01*
Y77400D01*
X87797D01*
Y77500D01*
X87597D01*
Y77600D01*
X87497D01*
Y77700D01*
X87297D01*
Y77800D01*
X87197D01*
Y77900D01*
X86997D01*
Y78000D01*
X87097D01*
Y78100D01*
X87297D01*
Y78200D01*
X87497D01*
Y78300D01*
X87597D01*
Y78400D01*
X87797D01*
Y78500D01*
X87997D01*
Y78600D01*
X88097D01*
Y78700D01*
X88297D01*
Y78800D01*
X88497D01*
Y78900D01*
X88697D01*
Y79000D01*
X88897D01*
Y79100D01*
X88997D01*
Y79200D01*
X89197D01*
Y79300D01*
X89397D01*
Y79400D01*
X89497D01*
Y79500D01*
X89697D01*
Y79600D01*
X89897D01*
Y79700D01*
X89997D01*
Y79800D01*
X90197D01*
Y79900D01*
X90397D01*
Y80000D01*
X90597D01*
Y80100D01*
X90697D01*
Y80200D01*
X90897D01*
Y80300D01*
X91097D01*
Y80400D01*
X91297D01*
Y80500D01*
X91397D01*
Y80600D01*
X91597D01*
Y80700D01*
X91797D01*
Y80800D01*
X91997D01*
Y80900D01*
X92097D01*
Y81000D01*
X92297D01*
Y81100D01*
X92497D01*
Y81200D01*
X92597D01*
Y81100D01*
D02*
G37*
G36*
X81997Y83600D02*
X82797D01*
Y83500D01*
X83297D01*
Y83400D01*
Y83300D01*
Y83200D01*
Y83100D01*
Y83000D01*
Y82900D01*
Y82800D01*
Y82700D01*
Y82600D01*
Y82500D01*
Y82400D01*
Y82300D01*
Y82200D01*
Y82100D01*
Y82000D01*
Y81900D01*
Y81800D01*
Y81700D01*
Y81600D01*
Y81500D01*
Y81400D01*
Y81300D01*
Y81200D01*
Y81100D01*
Y81000D01*
Y80900D01*
Y80800D01*
Y80700D01*
Y80600D01*
Y80500D01*
Y80400D01*
X83397D01*
Y80300D01*
Y80200D01*
Y80100D01*
Y80000D01*
Y79900D01*
Y79800D01*
Y79700D01*
Y79600D01*
Y79500D01*
Y79400D01*
Y79300D01*
Y79200D01*
Y79100D01*
Y79000D01*
Y78900D01*
Y78800D01*
X83497D01*
Y78700D01*
Y78600D01*
Y78500D01*
Y78400D01*
Y78300D01*
Y78200D01*
Y78100D01*
Y78000D01*
Y77900D01*
Y77800D01*
Y77700D01*
Y77600D01*
Y77500D01*
Y77400D01*
X83597D01*
Y77300D01*
Y77200D01*
Y77100D01*
Y77000D01*
Y76900D01*
Y76800D01*
Y76700D01*
Y76600D01*
X81697D01*
Y76700D01*
Y76800D01*
Y76900D01*
Y77000D01*
Y77100D01*
Y77200D01*
Y77300D01*
Y77400D01*
Y77500D01*
Y77600D01*
Y77700D01*
Y77800D01*
Y77900D01*
Y78000D01*
Y78100D01*
Y78200D01*
X81597D01*
Y78300D01*
Y78400D01*
Y78500D01*
Y78600D01*
Y78700D01*
Y78800D01*
Y78900D01*
Y79000D01*
Y79100D01*
Y79200D01*
X81397D01*
Y79100D01*
X81297D01*
Y79000D01*
X81097D01*
Y78900D01*
X80897D01*
Y78800D01*
X80497D01*
Y78700D01*
X79397D01*
Y78800D01*
X79097D01*
Y78900D01*
X78897D01*
Y79000D01*
X78797D01*
Y79100D01*
X78597D01*
Y79200D01*
X78497D01*
Y79300D01*
Y79400D01*
X78397D01*
Y79500D01*
X78297D01*
Y79600D01*
X78197D01*
Y79700D01*
Y79800D01*
X78097D01*
Y79900D01*
Y80000D01*
X77997D01*
Y80100D01*
Y80200D01*
Y80300D01*
X77897D01*
Y80400D01*
Y80500D01*
Y80600D01*
Y80700D01*
Y80800D01*
X77797D01*
Y80900D01*
Y81000D01*
Y81100D01*
Y81200D01*
Y81300D01*
Y81400D01*
Y81500D01*
Y81600D01*
X77897D01*
Y81700D01*
Y81800D01*
Y81900D01*
Y82000D01*
X77997D01*
Y82100D01*
Y82200D01*
Y82300D01*
X78097D01*
Y82400D01*
Y82500D01*
Y82600D01*
X78197D01*
Y82700D01*
X78297D01*
Y82800D01*
Y82900D01*
X78397D01*
Y83000D01*
X78497D01*
Y83100D01*
X78597D01*
Y83200D01*
X78697D01*
Y83300D01*
X78897D01*
Y83400D01*
X78997D01*
Y83500D01*
X79297D01*
Y83600D01*
X79797D01*
Y83700D01*
X81997D01*
Y83600D01*
D02*
G37*
G36*
X54697Y68000D02*
X54797D01*
Y67900D01*
X54897D01*
Y67800D01*
X54997D01*
Y67700D01*
X55197D01*
Y67600D01*
X55297D01*
Y67500D01*
X55197D01*
Y67400D01*
X55097D01*
Y67300D01*
X54997D01*
Y67200D01*
X54897D01*
Y67100D01*
X54697D01*
Y67000D01*
X54597D01*
Y66900D01*
X54497D01*
Y66800D01*
X54397D01*
Y66700D01*
X54297D01*
Y66600D01*
X54197D01*
Y66500D01*
X53997D01*
Y66400D01*
X53897D01*
Y66300D01*
X53797D01*
Y66200D01*
X53697D01*
Y66100D01*
X53597D01*
Y66000D01*
X53497D01*
Y65900D01*
X53297D01*
Y65800D01*
X53197D01*
Y65700D01*
X53097D01*
Y65600D01*
X52997D01*
Y65500D01*
X52897D01*
Y65400D01*
X52797D01*
Y65300D01*
X52697D01*
Y65200D01*
X52497D01*
Y65100D01*
X52397D01*
Y65000D01*
X52297D01*
Y64900D01*
X52197D01*
Y64800D01*
X52097D01*
Y64700D01*
X51997D01*
Y64600D01*
X51797D01*
Y64500D01*
Y64400D01*
X51697D01*
Y64300D01*
Y64200D01*
Y64100D01*
Y64000D01*
Y63900D01*
Y63800D01*
Y63700D01*
Y63600D01*
X51597D01*
Y63500D01*
Y63400D01*
Y63300D01*
Y63200D01*
Y63100D01*
Y63000D01*
Y62900D01*
Y62800D01*
X51497D01*
Y62700D01*
Y62600D01*
Y62500D01*
Y62400D01*
Y62300D01*
Y62200D01*
Y62100D01*
Y62000D01*
Y61900D01*
Y61800D01*
X51397D01*
Y61700D01*
Y61600D01*
Y61500D01*
Y61400D01*
Y61300D01*
Y61200D01*
Y61100D01*
Y61000D01*
X51297D01*
Y60900D01*
Y60800D01*
Y60700D01*
Y60600D01*
Y60500D01*
Y60400D01*
Y60300D01*
Y60200D01*
X51197D01*
Y60100D01*
Y60000D01*
Y59900D01*
Y59800D01*
Y59700D01*
Y59600D01*
Y59500D01*
Y59400D01*
X51297D01*
Y59300D01*
X51397D01*
Y59200D01*
X51497D01*
Y59100D01*
X51697D01*
Y59000D01*
X51797D01*
Y58900D01*
X51897D01*
Y58800D01*
X51997D01*
Y58700D01*
X52097D01*
Y58600D01*
X52197D01*
Y58500D01*
X52297D01*
Y58400D01*
X52497D01*
Y58300D01*
X52597D01*
Y58200D01*
X52697D01*
Y58100D01*
X52797D01*
Y58000D01*
X52897D01*
Y57900D01*
X52997D01*
Y57800D01*
X53097D01*
Y57700D01*
X53297D01*
Y57600D01*
X53397D01*
Y57500D01*
X53497D01*
Y57400D01*
X53597D01*
Y57300D01*
X53697D01*
Y57200D01*
X53797D01*
Y57100D01*
X53997D01*
Y57000D01*
X54097D01*
Y56900D01*
X54197D01*
Y56800D01*
X54297D01*
Y56700D01*
X54397D01*
Y56600D01*
X54497D01*
Y56500D01*
X54597D01*
Y56400D01*
X54797D01*
Y56300D01*
X54897D01*
Y56200D01*
X54997D01*
Y56100D01*
X55097D01*
Y56000D01*
X55197D01*
Y55900D01*
Y55800D01*
X55097D01*
Y55700D01*
X54997D01*
Y55600D01*
X54897D01*
Y55500D01*
X54797D01*
Y55400D01*
X54697D01*
Y55300D01*
X54597D01*
Y55400D01*
X54497D01*
Y55500D01*
X54297D01*
Y55600D01*
X54197D01*
Y55700D01*
X54097D01*
Y55800D01*
X53997D01*
Y55900D01*
X53897D01*
Y56000D01*
X53797D01*
Y56100D01*
X53697D01*
Y56200D01*
X53497D01*
Y56300D01*
X53397D01*
Y56400D01*
X53297D01*
Y56500D01*
X53197D01*
Y56600D01*
X53097D01*
Y56700D01*
X52997D01*
Y56800D01*
X52797D01*
Y56900D01*
X52697D01*
Y57000D01*
X52597D01*
Y57100D01*
X52497D01*
Y57200D01*
X52397D01*
Y57300D01*
X52297D01*
Y57400D01*
X52197D01*
Y57500D01*
X51997D01*
Y57600D01*
X51897D01*
Y57700D01*
X51797D01*
Y57800D01*
X51697D01*
Y57900D01*
X51597D01*
Y58000D01*
X51497D01*
Y58100D01*
X51297D01*
Y58200D01*
X51197D01*
Y58300D01*
X50997D01*
Y58200D01*
Y58100D01*
Y58000D01*
Y57900D01*
Y57800D01*
Y57700D01*
Y57600D01*
X50897D01*
Y57500D01*
Y57400D01*
Y57300D01*
Y57200D01*
Y57100D01*
Y57000D01*
Y56900D01*
Y56800D01*
Y56700D01*
X50797D01*
Y56600D01*
X50697D01*
Y56500D01*
X50397D01*
Y56400D01*
Y56300D01*
Y56200D01*
Y56100D01*
Y56000D01*
Y55900D01*
Y55800D01*
X49797D01*
Y55900D01*
X49697D01*
Y56000D01*
Y56100D01*
Y56200D01*
Y56300D01*
Y56400D01*
Y56500D01*
X46397D01*
Y56400D01*
X46297D01*
Y56300D01*
Y56200D01*
X46197D01*
Y56100D01*
X46097D01*
Y56000D01*
X45897D01*
Y55900D01*
X45597D01*
Y55800D01*
X45197D01*
Y55900D01*
X44897D01*
Y56000D01*
X44697D01*
Y56100D01*
X44597D01*
Y56200D01*
X44497D01*
Y56300D01*
Y56400D01*
X44397D01*
Y56500D01*
Y56600D01*
Y56700D01*
Y56800D01*
Y56900D01*
Y57000D01*
X44497D01*
Y57100D01*
Y57200D01*
X44597D01*
Y57300D01*
X44697D01*
Y57400D01*
X44897D01*
Y57500D01*
Y57600D01*
Y57700D01*
Y57800D01*
Y57900D01*
X44797D01*
Y58000D01*
Y58100D01*
Y58200D01*
Y58300D01*
Y58400D01*
X44697D01*
Y58300D01*
X44597D01*
Y58200D01*
X44497D01*
Y58100D01*
X44297D01*
Y58000D01*
X44197D01*
Y57900D01*
X44097D01*
Y57800D01*
X43997D01*
Y57700D01*
X43897D01*
Y57600D01*
X43797D01*
Y57500D01*
X43597D01*
Y57400D01*
X43497D01*
Y57300D01*
X43397D01*
Y57200D01*
X43297D01*
Y57100D01*
X43197D01*
Y57000D01*
X43097D01*
Y56900D01*
X42997D01*
Y56800D01*
X42797D01*
Y56700D01*
X42697D01*
Y56600D01*
X42597D01*
Y56500D01*
X42497D01*
Y56400D01*
X42397D01*
Y56300D01*
X42297D01*
Y56200D01*
X42097D01*
Y56100D01*
X41997D01*
Y56000D01*
X41897D01*
Y55900D01*
X41797D01*
Y55800D01*
X41697D01*
Y55700D01*
X41597D01*
Y55600D01*
X41497D01*
Y55500D01*
X41297D01*
Y55400D01*
X41197D01*
Y55300D01*
X41097D01*
Y55400D01*
X40997D01*
Y55500D01*
X40897D01*
Y55600D01*
X40797D01*
Y55700D01*
X40697D01*
Y55800D01*
X40597D01*
Y55900D01*
Y56000D01*
X40697D01*
Y56100D01*
X40797D01*
Y56200D01*
X40897D01*
Y56300D01*
X40997D01*
Y56400D01*
X41197D01*
Y56500D01*
X41297D01*
Y56600D01*
X41397D01*
Y56700D01*
X41497D01*
Y56800D01*
X41597D01*
Y56900D01*
X41697D01*
Y57000D01*
X41797D01*
Y57100D01*
X41997D01*
Y57200D01*
X42097D01*
Y57300D01*
X42197D01*
Y57400D01*
X42297D01*
Y57500D01*
X42397D01*
Y57600D01*
X42497D01*
Y57700D01*
X42697D01*
Y57800D01*
X42797D01*
Y57900D01*
X42897D01*
Y58000D01*
X42997D01*
Y58100D01*
X43097D01*
Y58200D01*
X43197D01*
Y58300D01*
X43297D01*
Y58400D01*
X43497D01*
Y58500D01*
X43597D01*
Y58600D01*
X43697D01*
Y58700D01*
X43797D01*
Y58800D01*
X43897D01*
Y58900D01*
X43997D01*
Y59000D01*
X44197D01*
Y59100D01*
X44297D01*
Y59200D01*
X44397D01*
Y59300D01*
X44497D01*
Y59400D01*
X44597D01*
Y59500D01*
Y59600D01*
Y59700D01*
Y59800D01*
Y59900D01*
Y60000D01*
Y60100D01*
Y60200D01*
Y60300D01*
Y60400D01*
Y60500D01*
X44497D01*
Y60600D01*
Y60700D01*
Y60800D01*
Y60900D01*
Y61000D01*
Y61100D01*
Y61200D01*
Y61300D01*
X44397D01*
Y61400D01*
Y61500D01*
Y61600D01*
Y61700D01*
Y61800D01*
Y61900D01*
Y62000D01*
Y62100D01*
X44297D01*
Y62200D01*
Y62300D01*
Y62400D01*
Y62500D01*
Y62600D01*
Y62700D01*
Y62800D01*
Y62900D01*
Y63000D01*
Y63100D01*
X44197D01*
Y63200D01*
Y63300D01*
Y63400D01*
Y63500D01*
Y63600D01*
Y63700D01*
Y63800D01*
Y63900D01*
X44097D01*
Y64000D01*
Y64100D01*
Y64200D01*
Y64300D01*
Y64400D01*
Y64500D01*
X43997D01*
Y64600D01*
X43797D01*
Y64700D01*
X43697D01*
Y64800D01*
X43297D01*
Y64900D01*
Y65000D01*
Y65100D01*
Y65200D01*
X43097D01*
Y65300D01*
X42997D01*
Y65400D01*
X42897D01*
Y65500D01*
X42797D01*
Y65600D01*
X42697D01*
Y65700D01*
X42597D01*
Y65800D01*
X42497D01*
Y65900D01*
X42297D01*
Y66000D01*
X42197D01*
Y66100D01*
X42097D01*
Y66200D01*
X41997D01*
Y66300D01*
X41897D01*
Y66400D01*
X41797D01*
Y66500D01*
X41597D01*
Y66600D01*
X41497D01*
Y66700D01*
X41397D01*
Y66800D01*
X41297D01*
Y66900D01*
X41197D01*
Y67000D01*
X41097D01*
Y67100D01*
X40897D01*
Y67200D01*
X40797D01*
Y67300D01*
X40697D01*
Y67400D01*
X40597D01*
Y67500D01*
X40497D01*
Y67600D01*
X40597D01*
Y67700D01*
X40797D01*
Y67800D01*
X40897D01*
Y67900D01*
X40997D01*
Y68000D01*
X41097D01*
Y68100D01*
X41197D01*
Y68000D01*
X41397D01*
Y67900D01*
X41497D01*
Y67800D01*
X41597D01*
Y67700D01*
X41697D01*
Y67600D01*
X41797D01*
Y67500D01*
X41897D01*
Y67400D01*
X42097D01*
Y67300D01*
X42197D01*
Y67200D01*
X42297D01*
Y67100D01*
X42397D01*
Y67000D01*
X42497D01*
Y66900D01*
X42597D01*
Y66800D01*
X42697D01*
Y66700D01*
X42897D01*
Y66600D01*
X42997D01*
Y66500D01*
X43097D01*
Y66400D01*
X43197D01*
Y66300D01*
X43297D01*
Y66200D01*
X43397D01*
Y66100D01*
X43597D01*
Y66000D01*
X43697D01*
Y65900D01*
X43797D01*
Y65800D01*
X43897D01*
Y65900D01*
Y66000D01*
Y66100D01*
Y66200D01*
X43497D01*
Y66300D01*
X43397D01*
Y66400D01*
X43297D01*
Y66500D01*
Y66600D01*
Y66700D01*
Y66800D01*
Y66900D01*
X43397D01*
Y67000D01*
X43497D01*
Y67100D01*
X44197D01*
Y67200D01*
X44597D01*
Y67300D01*
X45297D01*
Y67400D01*
X46797D01*
Y67500D01*
X48797D01*
Y67400D01*
X50697D01*
Y67500D01*
Y67600D01*
X51197D01*
Y67500D01*
Y67400D01*
Y67300D01*
X51397D01*
Y67200D01*
X51697D01*
Y67100D01*
X51797D01*
Y67000D01*
X51897D01*
Y66900D01*
Y66800D01*
X51997D01*
Y66700D01*
X52497D01*
Y66600D01*
Y66500D01*
Y66400D01*
Y66300D01*
X52597D01*
Y66400D01*
X52697D01*
Y66500D01*
X52797D01*
Y66600D01*
X52897D01*
Y66700D01*
X53097D01*
Y66800D01*
X53197D01*
Y66900D01*
X53297D01*
Y67000D01*
X53397D01*
Y67100D01*
X53497D01*
Y67200D01*
X53597D01*
Y67300D01*
X53697D01*
Y67400D01*
X53897D01*
Y67500D01*
X53997D01*
Y67600D01*
X54097D01*
Y67700D01*
X54197D01*
Y67800D01*
X54297D01*
Y67900D01*
X54397D01*
Y68000D01*
X54597D01*
Y68100D01*
X54697D01*
Y68000D01*
D02*
G37*
G36*
X55397Y55000D02*
Y54900D01*
Y54800D01*
Y54700D01*
Y54600D01*
Y54500D01*
Y54400D01*
Y54300D01*
Y54200D01*
Y54100D01*
Y54000D01*
Y53900D01*
Y53800D01*
Y53700D01*
Y53600D01*
Y53500D01*
Y53400D01*
Y53300D01*
Y53200D01*
X40397D01*
Y53300D01*
Y53400D01*
Y53500D01*
Y53600D01*
Y53700D01*
Y53800D01*
Y53900D01*
Y54000D01*
Y54100D01*
Y54200D01*
Y54300D01*
Y54400D01*
Y54500D01*
Y54600D01*
Y54700D01*
Y54800D01*
Y54900D01*
Y55000D01*
Y55100D01*
X55397D01*
Y55000D01*
D02*
G37*
G36*
X101297Y68800D02*
X102597D01*
Y68700D01*
X102997D01*
Y68600D01*
X103297D01*
Y68500D01*
X103697D01*
Y68400D01*
X103897D01*
Y68300D01*
X104297D01*
Y68200D01*
X104397D01*
Y68100D01*
X104497D01*
Y68000D01*
X104797D01*
Y67900D01*
X104997D01*
Y67800D01*
X105297D01*
Y67700D01*
Y67600D01*
X105497D01*
Y67500D01*
X105697D01*
Y67400D01*
X105797D01*
Y67300D01*
X105997D01*
Y67200D01*
Y67100D01*
X106297D01*
Y67000D01*
Y66900D01*
X106397D01*
Y66800D01*
X106497D01*
Y66700D01*
X106597D01*
Y66600D01*
X106797D01*
Y66500D01*
Y66400D01*
X106897D01*
Y66300D01*
X106997D01*
Y66200D01*
X107097D01*
Y66100D01*
X107297D01*
Y66000D01*
Y65900D01*
Y65800D01*
X107497D01*
Y65700D01*
Y65600D01*
X107597D01*
Y65500D01*
X107697D01*
Y65400D01*
Y65300D01*
X107797D01*
Y65200D01*
Y65100D01*
X107997D01*
Y65000D01*
Y64900D01*
Y64800D01*
X108097D01*
Y64700D01*
X108197D01*
Y64600D01*
Y64500D01*
Y64400D01*
X108297D01*
Y64300D01*
Y64200D01*
X108397D01*
Y64100D01*
X108497D01*
Y64000D01*
Y63900D01*
Y63800D01*
Y63700D01*
X108597D01*
Y63600D01*
X108697D01*
Y63500D01*
Y63400D01*
Y63300D01*
Y63200D01*
Y63100D01*
X108797D01*
Y63000D01*
Y62900D01*
X108897D01*
Y62800D01*
Y62700D01*
Y62600D01*
Y62500D01*
X108997D01*
Y62400D01*
Y62300D01*
Y62200D01*
Y62100D01*
Y62000D01*
Y61900D01*
Y61800D01*
Y61700D01*
Y61600D01*
Y61500D01*
Y61400D01*
Y61300D01*
Y61200D01*
X109097D01*
Y61100D01*
Y61000D01*
Y60900D01*
Y60800D01*
Y60700D01*
Y60600D01*
Y60500D01*
X108997D01*
Y60400D01*
Y60300D01*
Y60200D01*
Y60100D01*
Y60000D01*
Y59900D01*
Y59800D01*
Y59700D01*
Y59600D01*
Y59500D01*
Y59400D01*
Y59300D01*
X108897D01*
Y59200D01*
Y59100D01*
Y59000D01*
Y58900D01*
X108797D01*
Y58800D01*
Y58700D01*
X108697D01*
Y58600D01*
Y58500D01*
Y58400D01*
Y58300D01*
Y58200D01*
X108597D01*
Y58100D01*
X108497D01*
Y58000D01*
Y57900D01*
Y57800D01*
Y57700D01*
X108397D01*
Y57600D01*
Y57500D01*
X108297D01*
Y57400D01*
X108197D01*
Y57300D01*
Y57200D01*
Y57100D01*
X108097D01*
Y57000D01*
X107997D01*
Y56900D01*
Y56800D01*
Y56700D01*
X107797D01*
Y56600D01*
Y56500D01*
X107697D01*
Y56400D01*
Y56300D01*
X107597D01*
Y56200D01*
X107497D01*
Y56100D01*
Y56000D01*
X107297D01*
Y55900D01*
Y55800D01*
Y55700D01*
X107097D01*
Y55600D01*
X106997D01*
Y55500D01*
X106897D01*
Y55400D01*
X106797D01*
Y55300D01*
Y55200D01*
X106597D01*
Y55100D01*
X106497D01*
Y55000D01*
X106397D01*
Y54900D01*
X106297D01*
Y54800D01*
Y54700D01*
X105997D01*
Y54600D01*
Y54500D01*
X105797D01*
Y54400D01*
X105697D01*
Y54300D01*
X105497D01*
Y54200D01*
X105297D01*
Y54100D01*
Y54000D01*
X104997D01*
Y53900D01*
X104797D01*
Y53800D01*
X104597D01*
Y53700D01*
X104397D01*
Y53600D01*
X104297D01*
Y53500D01*
X103897D01*
Y53400D01*
X103697D01*
Y53300D01*
X103297D01*
Y53200D01*
X102997D01*
Y53100D01*
X99197D01*
Y53200D01*
X98897D01*
Y53300D01*
X98497D01*
Y53400D01*
X98297D01*
Y53500D01*
X97897D01*
Y53600D01*
X97797D01*
Y53700D01*
X97697D01*
Y53800D01*
X97397D01*
Y53900D01*
X97197D01*
Y54000D01*
X96997D01*
Y54100D01*
X96897D01*
Y54200D01*
X96797D01*
Y54300D01*
X96597D01*
Y54400D01*
X96397D01*
Y54500D01*
X96197D01*
Y54600D01*
Y54700D01*
X95997D01*
Y54800D01*
X95897D01*
Y54900D01*
X95797D01*
Y55000D01*
X95697D01*
Y55100D01*
X95597D01*
Y55200D01*
X95397D01*
Y55300D01*
Y55400D01*
X95297D01*
Y55500D01*
X95197D01*
Y55600D01*
X95097D01*
Y55700D01*
X94997D01*
Y55800D01*
X94897D01*
Y55900D01*
Y56000D01*
X94697D01*
Y56100D01*
Y56200D01*
X94597D01*
Y56300D01*
Y56400D01*
X94497D01*
Y56500D01*
Y56600D01*
X94397D01*
Y56700D01*
X94297D01*
Y56800D01*
X94197D01*
Y56900D01*
Y57000D01*
X94097D01*
Y57100D01*
Y57200D01*
X93997D01*
Y57300D01*
Y57400D01*
Y57500D01*
X93897D01*
Y57600D01*
X93797D01*
Y57700D01*
X93697D01*
Y57800D01*
Y57900D01*
Y58000D01*
Y58100D01*
Y58200D01*
X93597D01*
Y58300D01*
X93497D01*
Y58400D01*
Y58500D01*
Y58600D01*
Y58700D01*
Y58800D01*
X93397D01*
Y58900D01*
Y59000D01*
Y59100D01*
X93297D01*
Y59200D01*
Y59300D01*
Y59400D01*
X93197D01*
Y59500D01*
Y59600D01*
Y59700D01*
Y59800D01*
Y59900D01*
Y60000D01*
Y60100D01*
Y60200D01*
Y60300D01*
Y60400D01*
Y60500D01*
Y60600D01*
Y60700D01*
Y60800D01*
Y60900D01*
Y61000D01*
Y61100D01*
Y61200D01*
Y61300D01*
Y61400D01*
Y61500D01*
Y61600D01*
Y61700D01*
Y61800D01*
Y61900D01*
Y62000D01*
Y62100D01*
Y62200D01*
Y62300D01*
Y62400D01*
X93297D01*
Y62500D01*
Y62600D01*
Y62700D01*
X93397D01*
Y62800D01*
Y62900D01*
Y63000D01*
X93497D01*
Y63100D01*
Y63200D01*
Y63300D01*
Y63400D01*
Y63500D01*
X93597D01*
Y63600D01*
X93697D01*
Y63700D01*
Y63800D01*
Y63900D01*
Y64000D01*
X93797D01*
Y64100D01*
Y64200D01*
X93897D01*
Y64300D01*
X93997D01*
Y64400D01*
Y64500D01*
Y64600D01*
X94097D01*
Y64700D01*
Y64800D01*
X94197D01*
Y64900D01*
Y65000D01*
X94297D01*
Y65100D01*
X94397D01*
Y65200D01*
X94497D01*
Y65300D01*
Y65400D01*
X94597D01*
Y65500D01*
Y65600D01*
X94697D01*
Y65700D01*
X94797D01*
Y65800D01*
X94897D01*
Y65900D01*
Y66000D01*
X94997D01*
Y66100D01*
X95097D01*
Y66200D01*
X95197D01*
Y66300D01*
X95297D01*
Y66400D01*
X95397D01*
Y66500D01*
Y66600D01*
X95597D01*
Y66700D01*
X95697D01*
Y66800D01*
X95797D01*
Y66900D01*
X95897D01*
Y67000D01*
X95997D01*
Y67100D01*
X96197D01*
Y67200D01*
Y67300D01*
X96397D01*
Y67400D01*
X96597D01*
Y67500D01*
X96797D01*
Y67600D01*
X96897D01*
Y67700D01*
X96997D01*
Y67800D01*
X97197D01*
Y67900D01*
X97397D01*
Y68000D01*
X97697D01*
Y68100D01*
X97797D01*
Y68200D01*
X97897D01*
Y68300D01*
X98297D01*
Y68400D01*
X98497D01*
Y68500D01*
X98997D01*
Y68600D01*
X99197D01*
Y68700D01*
X99597D01*
Y68800D01*
X100997D01*
Y68900D01*
X101297D01*
Y68800D01*
D02*
G37*
%LPC*%
G36*
X74897Y82600D02*
X74197D01*
Y82500D01*
X73997D01*
Y82400D01*
X73897D01*
Y82300D01*
Y82200D01*
X73797D01*
Y82100D01*
Y82000D01*
Y81900D01*
Y81800D01*
Y81700D01*
X75397D01*
Y81800D01*
X75297D01*
Y81900D01*
Y82000D01*
Y82100D01*
Y82200D01*
X75197D01*
Y82300D01*
X75097D01*
Y82400D01*
X74997D01*
Y82500D01*
X74897D01*
Y82600D01*
D02*
G37*
G36*
X81097Y82400D02*
X80397D01*
Y82300D01*
X80197D01*
Y82200D01*
X79997D01*
Y82100D01*
X79897D01*
Y82000D01*
Y81900D01*
X79797D01*
Y81800D01*
Y81700D01*
X79697D01*
Y81600D01*
Y81500D01*
Y81400D01*
Y81300D01*
Y81200D01*
Y81100D01*
Y81000D01*
Y80900D01*
Y80800D01*
X79797D01*
Y80700D01*
Y80600D01*
Y80500D01*
X79897D01*
Y80400D01*
X79997D01*
Y80300D01*
Y80200D01*
X80197D01*
Y80100D01*
X80397D01*
Y80000D01*
X80897D01*
Y80100D01*
X81097D01*
Y80200D01*
X81197D01*
Y80300D01*
X81297D01*
Y80400D01*
X81397D01*
Y80500D01*
Y80600D01*
X81497D01*
Y80700D01*
Y80800D01*
Y80900D01*
Y81000D01*
Y81100D01*
Y81200D01*
Y81300D01*
Y81400D01*
Y81500D01*
Y81600D01*
Y81700D01*
Y81800D01*
Y81900D01*
Y82000D01*
Y82100D01*
Y82200D01*
Y82300D01*
X81097D01*
Y82400D01*
D02*
G37*
G36*
X48597Y67400D02*
X47097D01*
Y67300D01*
X48597D01*
Y67400D01*
D02*
G37*
G36*
X49697Y67300D02*
X48797D01*
Y67200D01*
Y67100D01*
X46797D01*
Y67200D01*
Y67300D01*
X46497D01*
Y67200D01*
X45197D01*
Y67100D01*
X44497D01*
Y67000D01*
X44197D01*
Y66900D01*
X44297D01*
Y66800D01*
X50697D01*
Y66900D01*
Y67000D01*
Y67100D01*
Y67200D01*
X49697D01*
Y67300D01*
D02*
G37*
G36*
X51497Y67100D02*
X51197D01*
Y67000D01*
Y66900D01*
Y66800D01*
X51697D01*
Y66900D01*
Y67000D01*
X51497D01*
Y67100D01*
D02*
G37*
G36*
X52297Y66600D02*
X44397D01*
Y66500D01*
X44297D01*
Y66400D01*
X52297D01*
Y66500D01*
Y66600D01*
D02*
G37*
G36*
X52497Y66300D02*
X51997D01*
Y66200D01*
X51897D01*
Y66100D01*
Y66000D01*
Y65900D01*
Y65800D01*
X51997D01*
Y65900D01*
X52097D01*
Y66000D01*
X52197D01*
Y66100D01*
X52397D01*
Y66200D01*
X52497D01*
Y66300D01*
D02*
G37*
G36*
X51697D02*
X44097D01*
Y66200D01*
Y66100D01*
Y66000D01*
Y65900D01*
Y65800D01*
Y65700D01*
X44197D01*
Y65600D01*
Y65500D01*
Y65400D01*
X44397D01*
Y65300D01*
X44497D01*
Y65200D01*
X44597D01*
Y65100D01*
X44697D01*
Y65000D01*
X44797D01*
Y64900D01*
X44897D01*
Y64800D01*
X45097D01*
Y64700D01*
X45197D01*
Y64600D01*
X45297D01*
Y64500D01*
X45397D01*
Y64400D01*
X45497D01*
Y64300D01*
X45597D01*
Y64200D01*
X45797D01*
Y64100D01*
X45897D01*
Y64000D01*
X45997D01*
Y63900D01*
X48597D01*
Y63800D01*
Y63700D01*
Y63600D01*
Y63500D01*
Y63400D01*
X46697D01*
Y63300D01*
X46797D01*
Y63200D01*
X46897D01*
Y63100D01*
X46997D01*
Y63000D01*
X47097D01*
Y62900D01*
X47297D01*
Y62800D01*
X47397D01*
Y62700D01*
X47497D01*
Y62600D01*
X47597D01*
Y62500D01*
X47697D01*
Y62400D01*
X47797D01*
Y62300D01*
X47997D01*
Y62400D01*
X48097D01*
Y62500D01*
X48197D01*
Y62600D01*
X48297D01*
Y62700D01*
X48397D01*
Y62800D01*
X48497D01*
Y62900D01*
X48697D01*
Y63000D01*
X48797D01*
Y63100D01*
X48897D01*
Y63200D01*
X48997D01*
Y63300D01*
X49097D01*
Y63400D01*
X49197D01*
Y63500D01*
X49397D01*
Y63600D01*
X49497D01*
Y63700D01*
X49597D01*
Y63800D01*
X49697D01*
Y63900D01*
X49797D01*
Y64000D01*
X49897D01*
Y64100D01*
X49997D01*
Y64200D01*
X50197D01*
Y64300D01*
X50297D01*
Y64400D01*
X50397D01*
Y64500D01*
X50497D01*
Y64600D01*
X50597D01*
Y64700D01*
X50697D01*
Y64800D01*
X50897D01*
Y64900D01*
X50997D01*
Y65000D01*
X51097D01*
Y65100D01*
X51197D01*
Y65200D01*
X51297D01*
Y65300D01*
X51397D01*
Y65400D01*
X51597D01*
Y65500D01*
X51697D01*
Y65600D01*
Y65700D01*
Y65800D01*
Y65900D01*
Y66000D01*
Y66100D01*
Y66200D01*
Y66300D01*
D02*
G37*
G36*
X51497Y64200D02*
X51397D01*
Y64100D01*
X51297D01*
Y64000D01*
X51197D01*
Y63900D01*
X50997D01*
Y63800D01*
X50897D01*
Y63700D01*
X50797D01*
Y63600D01*
X50697D01*
Y63500D01*
X50597D01*
Y63400D01*
X50497D01*
Y63300D01*
X50297D01*
Y63200D01*
X50197D01*
Y63100D01*
X50097D01*
Y63000D01*
X49997D01*
Y62900D01*
X49897D01*
Y62800D01*
X49797D01*
Y62700D01*
X49597D01*
Y62600D01*
X49497D01*
Y62500D01*
X49397D01*
Y62400D01*
X49297D01*
Y62300D01*
X49197D01*
Y62200D01*
X49097D01*
Y62100D01*
X48997D01*
Y62000D01*
X48897D01*
Y61900D01*
X48697D01*
Y61800D01*
X48597D01*
Y61700D01*
Y61600D01*
X48797D01*
Y61500D01*
X48897D01*
Y61400D01*
X48997D01*
Y61300D01*
X49097D01*
Y61200D01*
X49197D01*
Y61100D01*
X49297D01*
Y61000D01*
X49497D01*
Y60900D01*
X49597D01*
Y60800D01*
X49697D01*
Y60700D01*
X49797D01*
Y60600D01*
X49897D01*
Y60500D01*
X49997D01*
Y60400D01*
X50197D01*
Y60300D01*
X50297D01*
Y60200D01*
X50397D01*
Y60100D01*
X50497D01*
Y60000D01*
X50597D01*
Y59900D01*
X50697D01*
Y59800D01*
X50797D01*
Y59700D01*
X50997D01*
Y59800D01*
Y59900D01*
Y60000D01*
Y60100D01*
X51097D01*
Y60200D01*
Y60300D01*
Y60400D01*
Y60500D01*
Y60600D01*
Y60700D01*
Y60800D01*
Y60900D01*
Y61000D01*
X51197D01*
Y61100D01*
Y61200D01*
Y61300D01*
Y61400D01*
Y61500D01*
Y61600D01*
Y61700D01*
Y61800D01*
Y61900D01*
X51297D01*
Y62000D01*
Y62100D01*
Y62200D01*
Y62300D01*
Y62400D01*
Y62500D01*
Y62600D01*
Y62700D01*
Y62800D01*
X51397D01*
Y62900D01*
Y63000D01*
Y63100D01*
Y63200D01*
Y63300D01*
Y63400D01*
Y63500D01*
Y63600D01*
X51497D01*
Y63700D01*
Y63800D01*
Y63900D01*
Y64000D01*
Y64100D01*
Y64200D01*
D02*
G37*
G36*
X44397D02*
X44297D01*
Y64100D01*
Y64000D01*
Y63900D01*
X44397D01*
Y63800D01*
Y63700D01*
Y63600D01*
Y63500D01*
Y63400D01*
Y63300D01*
Y63200D01*
Y63100D01*
Y63000D01*
X44497D01*
Y62900D01*
Y62800D01*
Y62700D01*
Y62600D01*
Y62500D01*
Y62400D01*
Y62300D01*
X44597D01*
Y62200D01*
Y62100D01*
Y62000D01*
Y61900D01*
Y61800D01*
Y61700D01*
Y61600D01*
Y61500D01*
Y61400D01*
Y61300D01*
X44697D01*
Y61200D01*
Y61100D01*
Y61000D01*
Y60900D01*
Y60800D01*
Y60700D01*
Y60600D01*
Y60500D01*
Y60400D01*
X44797D01*
Y60300D01*
Y60200D01*
Y60100D01*
Y60000D01*
Y59900D01*
Y59800D01*
Y59700D01*
X44997D01*
Y59800D01*
X45097D01*
Y59900D01*
X45197D01*
Y60000D01*
X45297D01*
Y60100D01*
X45397D01*
Y60200D01*
X45497D01*
Y60300D01*
X45697D01*
Y60400D01*
X45797D01*
Y60500D01*
X45897D01*
Y60600D01*
X45997D01*
Y60700D01*
X46097D01*
Y60800D01*
X46197D01*
Y60900D01*
X46297D01*
Y61000D01*
X46497D01*
Y61100D01*
X46597D01*
Y61200D01*
X46697D01*
Y61300D01*
X46797D01*
Y61400D01*
X46897D01*
Y61500D01*
X46997D01*
Y61600D01*
X47197D01*
Y61700D01*
Y61800D01*
X47097D01*
Y61900D01*
X46997D01*
Y62000D01*
X46797D01*
Y62100D01*
X46697D01*
Y62200D01*
X46597D01*
Y62300D01*
X46497D01*
Y62400D01*
X46397D01*
Y62500D01*
X46297D01*
Y62600D01*
X46197D01*
Y62700D01*
X45997D01*
Y62800D01*
X45897D01*
Y62900D01*
X45797D01*
Y63000D01*
X45697D01*
Y63100D01*
X45597D01*
Y63200D01*
X45497D01*
Y63300D01*
X45297D01*
Y63400D01*
X45197D01*
Y63500D01*
X45097D01*
Y63600D01*
X44997D01*
Y63700D01*
X44897D01*
Y63800D01*
X44797D01*
Y63900D01*
X44597D01*
Y64000D01*
X44497D01*
Y64100D01*
X44397D01*
Y64200D01*
D02*
G37*
G36*
X47997Y61100D02*
X47797D01*
Y61000D01*
X47697D01*
Y60900D01*
X47597D01*
Y60800D01*
X47497D01*
Y60700D01*
X47397D01*
Y60600D01*
X47197D01*
Y60500D01*
X47097D01*
Y60400D01*
X46997D01*
Y60300D01*
X46897D01*
Y60200D01*
X46797D01*
Y60100D01*
X46697D01*
Y60000D01*
X46497D01*
Y59900D01*
X46397D01*
Y59800D01*
X46297D01*
Y59700D01*
X46197D01*
Y59600D01*
X46097D01*
Y59500D01*
X45997D01*
Y59400D01*
X45797D01*
Y59300D01*
X45697D01*
Y59200D01*
X45597D01*
Y59100D01*
X45497D01*
Y59000D01*
X45397D01*
Y58900D01*
X45297D01*
Y58800D01*
X45197D01*
Y58700D01*
X44997D01*
Y58600D01*
Y58500D01*
Y58400D01*
Y58300D01*
Y58200D01*
Y58100D01*
Y58000D01*
Y57900D01*
Y57800D01*
X45097D01*
Y57700D01*
Y57600D01*
X45697D01*
Y57500D01*
X45897D01*
Y57400D01*
X46097D01*
Y57300D01*
X46197D01*
Y57200D01*
X46297D01*
Y57100D01*
Y57000D01*
X46397D01*
Y56900D01*
Y56800D01*
Y56700D01*
X50597D01*
Y56800D01*
X50697D01*
Y56900D01*
Y57000D01*
Y57100D01*
Y57200D01*
Y57300D01*
Y57400D01*
Y57500D01*
X50797D01*
Y57600D01*
Y57700D01*
Y57800D01*
Y57900D01*
Y58000D01*
Y58100D01*
Y58200D01*
Y58300D01*
Y58400D01*
X50897D01*
Y58500D01*
Y58600D01*
X50797D01*
Y58700D01*
X50597D01*
Y58800D01*
X50497D01*
Y58900D01*
X50397D01*
Y59000D01*
X50297D01*
Y59100D01*
X50197D01*
Y59200D01*
X50097D01*
Y59300D01*
X49997D01*
Y59400D01*
X49797D01*
Y59500D01*
X49697D01*
Y59600D01*
X49597D01*
Y59700D01*
X49497D01*
Y59800D01*
X49397D01*
Y59900D01*
X49297D01*
Y60000D01*
X49097D01*
Y60100D01*
X48997D01*
Y60200D01*
X48897D01*
Y60300D01*
X48797D01*
Y60400D01*
X48697D01*
Y60500D01*
X48597D01*
Y60600D01*
X48397D01*
Y60700D01*
X48297D01*
Y60800D01*
X48197D01*
Y60900D01*
X48097D01*
Y61000D01*
X47997D01*
Y61100D01*
D02*
G37*
G36*
X45697Y57200D02*
X45097D01*
Y57100D01*
X44897D01*
Y57000D01*
Y56900D01*
X44797D01*
Y56800D01*
Y56700D01*
Y56600D01*
Y56500D01*
X44897D01*
Y56400D01*
Y56300D01*
X45097D01*
Y56200D01*
X45697D01*
Y56300D01*
X45897D01*
Y56400D01*
Y56500D01*
X45997D01*
Y56600D01*
Y56700D01*
Y56800D01*
Y56900D01*
X45897D01*
Y57000D01*
Y57100D01*
X45697D01*
Y57200D01*
D02*
G37*
%LPD*%
G36*
X45597Y57000D02*
X45797D01*
Y56900D01*
Y56800D01*
X45897D01*
Y56700D01*
X45797D01*
Y56600D01*
Y56500D01*
X45697D01*
Y56400D01*
X45597D01*
Y56300D01*
X45197D01*
Y56400D01*
X45097D01*
Y56500D01*
X44997D01*
Y56600D01*
Y56700D01*
Y56800D01*
Y56900D01*
Y57000D01*
X45197D01*
Y57100D01*
X45597D01*
Y57000D01*
D02*
G37*
%LPC*%
G36*
X101897Y68300D02*
X100297D01*
Y68200D01*
X99797D01*
Y68100D01*
X99397D01*
Y68000D01*
X98897D01*
Y67900D01*
X98697D01*
Y67800D01*
X98297D01*
Y67700D01*
X98097D01*
Y67600D01*
X97997D01*
Y67500D01*
X97697D01*
Y67400D01*
X97597D01*
Y67300D01*
X97297D01*
Y67200D01*
X97197D01*
Y67100D01*
X96897D01*
Y67000D01*
Y66900D01*
X96797D01*
Y66800D01*
X96597D01*
Y66700D01*
X96497D01*
Y66600D01*
X96297D01*
Y66500D01*
X96197D01*
Y66400D01*
Y66300D01*
X95997D01*
Y66200D01*
X95897D01*
Y66100D01*
X95797D01*
Y66000D01*
X95697D01*
Y65900D01*
Y65800D01*
X95497D01*
Y65700D01*
X95397D01*
Y65600D01*
X95297D01*
Y65500D01*
Y65400D01*
X95197D01*
Y65300D01*
X95097D01*
Y65200D01*
Y65100D01*
X94897D01*
Y65000D01*
Y64900D01*
Y64800D01*
X94797D01*
Y64700D01*
X94697D01*
Y64600D01*
Y64500D01*
X94597D01*
Y64400D01*
Y64300D01*
X94497D01*
Y64200D01*
Y64100D01*
X94397D01*
Y64000D01*
Y63900D01*
X94297D01*
Y63800D01*
X94197D01*
Y63700D01*
Y63600D01*
Y63500D01*
Y63400D01*
X94097D01*
Y63300D01*
Y63200D01*
X93997D01*
Y63100D01*
Y63000D01*
Y62900D01*
Y62800D01*
X93897D01*
Y62700D01*
Y62600D01*
Y62500D01*
Y62400D01*
X93797D01*
Y62300D01*
Y62200D01*
Y62100D01*
X93697D01*
Y62000D01*
Y61900D01*
Y61800D01*
Y61700D01*
Y61600D01*
Y61500D01*
Y61400D01*
Y61300D01*
Y61200D01*
Y61100D01*
Y61000D01*
Y60900D01*
Y60800D01*
Y60700D01*
Y60600D01*
Y60500D01*
Y60400D01*
Y60300D01*
Y60200D01*
Y60100D01*
Y60000D01*
Y59900D01*
Y59800D01*
Y59700D01*
Y59600D01*
X93797D01*
Y59500D01*
Y59400D01*
Y59300D01*
Y59200D01*
X93897D01*
Y59100D01*
Y59000D01*
Y58900D01*
X93997D01*
Y58800D01*
Y58700D01*
Y58600D01*
Y58500D01*
Y58400D01*
X94097D01*
Y58300D01*
Y58200D01*
X94197D01*
Y58100D01*
Y58000D01*
Y57900D01*
X94297D01*
Y57800D01*
Y57700D01*
X94397D01*
Y57600D01*
X94497D01*
Y57500D01*
Y57400D01*
Y57300D01*
X94597D01*
Y57200D01*
X94697D01*
Y57100D01*
Y57000D01*
X94797D01*
Y56900D01*
Y56800D01*
X94897D01*
Y56700D01*
Y56600D01*
X94997D01*
Y56500D01*
X95097D01*
Y56400D01*
X95197D01*
Y56300D01*
Y56200D01*
X95397D01*
Y56100D01*
Y56000D01*
X95497D01*
Y55900D01*
X95597D01*
Y55800D01*
X95697D01*
Y55700D01*
X95797D01*
Y55600D01*
X95897D01*
Y55500D01*
X95997D01*
Y55400D01*
X96097D01*
Y55300D01*
X96197D01*
Y55200D01*
X96297D01*
Y55100D01*
X96397D01*
Y55000D01*
X96597D01*
Y54900D01*
X96697D01*
Y54800D01*
X96797D01*
Y54700D01*
X96997D01*
Y54600D01*
X97097D01*
Y54500D01*
X97397D01*
Y54400D01*
Y54300D01*
X97697D01*
Y54200D01*
X97897D01*
Y54100D01*
X97997D01*
Y54000D01*
X98397D01*
Y53900D01*
X98497D01*
Y53800D01*
X98897D01*
Y53700D01*
X99197D01*
Y53600D01*
X99497D01*
Y53500D01*
X100397D01*
Y53400D01*
X101797D01*
Y53500D01*
X102697D01*
Y53600D01*
X102997D01*
Y53700D01*
X103297D01*
Y53800D01*
X103697D01*
Y53900D01*
X103797D01*
Y54000D01*
X104197D01*
Y54100D01*
X104297D01*
Y54200D01*
X104497D01*
Y54300D01*
X104797D01*
Y54400D01*
Y54500D01*
X105097D01*
Y54600D01*
X105197D01*
Y54700D01*
X105397D01*
Y54800D01*
X105497D01*
Y54900D01*
X105597D01*
Y55000D01*
X105797D01*
Y55100D01*
Y55200D01*
X105997D01*
Y55300D01*
X106097D01*
Y55400D01*
X106197D01*
Y55500D01*
X106297D01*
Y55600D01*
X106397D01*
Y55700D01*
X106497D01*
Y55800D01*
X106597D01*
Y55900D01*
X106697D01*
Y56000D01*
X106797D01*
Y56100D01*
Y56200D01*
X106997D01*
Y56300D01*
Y56400D01*
Y56500D01*
X107197D01*
Y56600D01*
X107297D01*
Y56700D01*
Y56800D01*
X107397D01*
Y56900D01*
Y57000D01*
X107497D01*
Y57100D01*
Y57200D01*
X107597D01*
Y57300D01*
X107697D01*
Y57400D01*
Y57500D01*
Y57600D01*
X107797D01*
Y57700D01*
X107897D01*
Y57800D01*
Y57900D01*
X107997D01*
Y58000D01*
Y58100D01*
Y58200D01*
X108097D01*
Y58300D01*
Y58400D01*
X108197D01*
Y58500D01*
Y58600D01*
Y58700D01*
Y58800D01*
Y58900D01*
X108297D01*
Y59000D01*
Y59100D01*
Y59200D01*
X108397D01*
Y59300D01*
Y59400D01*
Y59500D01*
Y59600D01*
X108497D01*
Y59700D01*
Y59800D01*
Y59900D01*
Y60000D01*
Y60100D01*
Y60200D01*
Y60300D01*
Y60400D01*
Y60500D01*
Y60600D01*
Y60700D01*
Y60800D01*
Y60900D01*
Y61000D01*
Y61100D01*
Y61200D01*
Y61300D01*
Y61400D01*
Y61500D01*
Y61600D01*
Y61700D01*
Y61800D01*
Y61900D01*
Y62000D01*
Y62100D01*
X108397D01*
Y62200D01*
Y62300D01*
Y62400D01*
X108297D01*
Y62500D01*
Y62600D01*
Y62700D01*
X108197D01*
Y62800D01*
Y62900D01*
Y63000D01*
Y63100D01*
Y63200D01*
X108097D01*
Y63300D01*
Y63400D01*
X107997D01*
Y63500D01*
Y63600D01*
Y63700D01*
Y63800D01*
X107897D01*
Y63900D01*
X107797D01*
Y64000D01*
Y64100D01*
X107697D01*
Y64200D01*
Y64300D01*
X107597D01*
Y64400D01*
Y64500D01*
X107497D01*
Y64600D01*
Y64700D01*
X107397D01*
Y64800D01*
X107297D01*
Y64900D01*
Y65000D01*
Y65100D01*
X107097D01*
Y65200D01*
Y65300D01*
X106997D01*
Y65400D01*
X106897D01*
Y65500D01*
X106797D01*
Y65600D01*
Y65700D01*
X106697D01*
Y65800D01*
X106497D01*
Y65900D01*
Y66000D01*
X106397D01*
Y66100D01*
X106297D01*
Y66200D01*
X106197D01*
Y66300D01*
X105997D01*
Y66400D01*
Y66500D01*
X105897D01*
Y66600D01*
X105697D01*
Y66700D01*
X105597D01*
Y66800D01*
X105397D01*
Y66900D01*
X105297D01*
Y67000D01*
X105197D01*
Y67100D01*
X104997D01*
Y67200D01*
X104897D01*
Y67300D01*
X104597D01*
Y67400D01*
X104497D01*
Y67500D01*
X104197D01*
Y67600D01*
X104097D01*
Y67700D01*
X103897D01*
Y67800D01*
X103497D01*
Y67900D01*
X103297D01*
Y68000D01*
X102797D01*
Y68100D01*
X102397D01*
Y68200D01*
X101897D01*
Y68300D01*
D02*
G37*
%LPD*%
G36*
X98397Y66700D02*
Y66600D01*
X98597D01*
Y66500D01*
Y66400D01*
X98697D01*
Y66300D01*
X98897D01*
Y66200D01*
Y66100D01*
X99097D01*
Y66000D01*
Y65900D01*
X99197D01*
Y65800D01*
X99397D01*
Y65700D01*
Y65600D01*
X99497D01*
Y65500D01*
X99597D01*
Y65400D01*
Y65300D01*
X99697D01*
Y65200D01*
Y65100D01*
X99897D01*
Y65000D01*
Y64900D01*
Y64800D01*
X99997D01*
Y64700D01*
X100097D01*
Y64600D01*
Y64500D01*
X100197D01*
Y64400D01*
Y64300D01*
X100297D01*
Y64200D01*
X100397D01*
Y64100D01*
Y64000D01*
X100497D01*
Y63900D01*
X100597D01*
Y63800D01*
Y63700D01*
Y63600D01*
X100697D01*
Y63500D01*
Y63400D01*
X100797D01*
Y63300D01*
X100897D01*
Y63200D01*
Y63100D01*
Y63000D01*
X100997D01*
Y62900D01*
X101097D01*
Y62800D01*
Y62700D01*
Y62600D01*
X101197D01*
Y62500D01*
Y62400D01*
X101297D01*
Y62300D01*
Y62200D01*
Y62100D01*
X101397D01*
Y62000D01*
Y61900D01*
X101497D01*
Y61800D01*
X101597D01*
Y61700D01*
Y61600D01*
Y61500D01*
X101697D01*
Y61400D01*
X101797D01*
Y61300D01*
Y61200D01*
Y61100D01*
X101897D01*
Y61000D01*
X102097D01*
Y61100D01*
X102197D01*
Y61200D01*
Y61300D01*
X102297D01*
Y61400D01*
Y61500D01*
Y61600D01*
X102397D01*
Y61700D01*
X102497D01*
Y61800D01*
Y61900D01*
X102597D01*
Y62000D01*
Y62100D01*
Y62200D01*
X102697D01*
Y62300D01*
Y62400D01*
X102797D01*
Y62500D01*
Y62600D01*
Y62700D01*
X102897D01*
Y62800D01*
Y62900D01*
X102997D01*
Y62800D01*
X103197D01*
Y62700D01*
X103297D01*
Y62600D01*
X103497D01*
Y62500D01*
X103597D01*
Y62400D01*
X103797D01*
Y62300D01*
Y62200D01*
X103897D01*
Y62100D01*
X104097D01*
Y62000D01*
X104197D01*
Y61900D01*
X104297D01*
Y61800D01*
X104397D01*
Y61700D01*
X104497D01*
Y61600D01*
X104597D01*
Y61500D01*
Y61400D01*
X104497D01*
Y61300D01*
X104397D01*
Y61200D01*
X104297D01*
Y61100D01*
X104197D01*
Y61000D01*
X104097D01*
Y60900D01*
X103897D01*
Y60800D01*
X103797D01*
Y60700D01*
X103697D01*
Y60600D01*
X103597D01*
Y60500D01*
Y60400D01*
X103397D01*
Y60300D01*
X103297D01*
Y60200D01*
X103097D01*
Y60100D01*
Y60000D01*
X102997D01*
Y59900D01*
X102897D01*
Y59800D01*
X102797D01*
Y59700D01*
X102697D01*
Y59600D01*
X102597D01*
Y59500D01*
Y59400D01*
X102497D01*
Y59300D01*
X102397D01*
Y59200D01*
X102297D01*
Y59100D01*
Y59000D01*
Y58900D01*
X102097D01*
Y58800D01*
Y58700D01*
X101997D01*
Y58600D01*
Y58500D01*
X101797D01*
Y58600D01*
Y58700D01*
Y58800D01*
X101697D01*
Y58900D01*
X101597D01*
Y59000D01*
Y59100D01*
Y59200D01*
X101497D01*
Y59300D01*
Y59400D01*
X101397D01*
Y59500D01*
X101297D01*
Y59600D01*
Y59700D01*
X101197D01*
Y59800D01*
Y59900D01*
X101097D01*
Y60000D01*
Y60100D01*
Y60200D01*
X100897D01*
Y60300D01*
Y60400D01*
Y60500D01*
X100797D01*
Y60600D01*
X100697D01*
Y60700D01*
X100597D01*
Y60800D01*
Y60900D01*
X100497D01*
Y61000D01*
X100397D01*
Y61100D01*
Y61200D01*
X100297D01*
Y61300D01*
Y61400D01*
X100097D01*
Y61500D01*
Y61600D01*
X99997D01*
Y61700D01*
X99897D01*
Y61800D01*
Y61900D01*
X99797D01*
Y62000D01*
X99697D01*
Y62100D01*
X99597D01*
Y62200D01*
Y62300D01*
X99497D01*
Y62400D01*
X99397D01*
Y62500D01*
Y62600D01*
X99197D01*
Y62700D01*
X99097D01*
Y62800D01*
Y62900D01*
X98897D01*
Y63000D01*
Y63100D01*
X98697D01*
Y63200D01*
X98597D01*
Y63300D01*
Y63400D01*
X98397D01*
Y63500D01*
X98297D01*
Y63600D01*
X98097D01*
Y63700D01*
Y63800D01*
Y63900D01*
Y64000D01*
Y64100D01*
Y64200D01*
Y64300D01*
Y64400D01*
Y64500D01*
Y64600D01*
Y64700D01*
Y64800D01*
Y64900D01*
Y65000D01*
Y65100D01*
Y65200D01*
Y65300D01*
Y65400D01*
Y65500D01*
Y65600D01*
Y65700D01*
Y65800D01*
Y65900D01*
Y66000D01*
Y66100D01*
Y66200D01*
Y66300D01*
Y66400D01*
Y66500D01*
Y66600D01*
Y66700D01*
Y66800D01*
X98397D01*
Y66700D01*
D02*
G37*
G36*
X100697Y58500D02*
Y58400D01*
Y58300D01*
Y58200D01*
Y58100D01*
Y58000D01*
Y57900D01*
Y57800D01*
Y57700D01*
Y57600D01*
Y57500D01*
Y57400D01*
Y57300D01*
Y57200D01*
Y57100D01*
Y57000D01*
Y56900D01*
Y56800D01*
Y56700D01*
Y56600D01*
Y56500D01*
Y56400D01*
Y56300D01*
Y56200D01*
Y56100D01*
Y56000D01*
Y55900D01*
Y55800D01*
Y55700D01*
Y55600D01*
X100397D01*
Y55700D01*
Y55800D01*
Y55900D01*
Y56000D01*
Y56100D01*
Y56200D01*
Y56300D01*
Y56400D01*
Y56500D01*
Y56600D01*
Y56700D01*
Y56800D01*
Y56900D01*
Y57000D01*
X99097D01*
Y56900D01*
Y56800D01*
Y56700D01*
Y56600D01*
Y56500D01*
Y56400D01*
Y56300D01*
Y56200D01*
Y56100D01*
Y56000D01*
Y55900D01*
Y55800D01*
Y55700D01*
Y55600D01*
X98797D01*
Y55700D01*
Y55800D01*
Y55900D01*
Y56000D01*
Y56100D01*
Y56200D01*
Y56300D01*
Y56400D01*
Y56500D01*
Y56600D01*
Y56700D01*
Y56800D01*
Y56900D01*
Y57000D01*
Y57100D01*
Y57200D01*
Y57300D01*
Y57400D01*
Y57500D01*
Y57600D01*
Y57700D01*
Y57800D01*
Y57900D01*
Y58000D01*
Y58100D01*
Y58200D01*
Y58300D01*
Y58400D01*
Y58500D01*
Y58600D01*
X98897D01*
Y58500D01*
X99097D01*
Y58400D01*
Y58300D01*
Y58200D01*
Y58100D01*
Y58000D01*
Y57900D01*
Y57800D01*
Y57700D01*
Y57600D01*
Y57500D01*
Y57400D01*
Y57300D01*
X100397D01*
Y57400D01*
Y57500D01*
Y57600D01*
Y57700D01*
Y57800D01*
Y57900D01*
Y58000D01*
Y58100D01*
Y58200D01*
Y58300D01*
Y58400D01*
Y58500D01*
X100597D01*
Y58600D01*
X100697D01*
Y58500D01*
D02*
G37*
G36*
X105697D02*
Y58400D01*
Y58300D01*
Y58200D01*
Y58100D01*
Y58000D01*
Y57900D01*
Y57800D01*
Y57700D01*
Y57600D01*
Y57500D01*
Y57400D01*
Y57300D01*
Y57200D01*
Y57100D01*
Y57000D01*
Y56900D01*
Y56800D01*
Y56700D01*
Y56600D01*
Y56500D01*
Y56400D01*
Y56300D01*
Y56200D01*
Y56100D01*
Y56000D01*
Y55900D01*
Y55800D01*
Y55700D01*
Y55600D01*
X105297D01*
Y55700D01*
Y55800D01*
Y55900D01*
Y56000D01*
Y56100D01*
Y56200D01*
Y56300D01*
Y56400D01*
Y56500D01*
Y56600D01*
Y56700D01*
Y56800D01*
Y56900D01*
X104797D01*
Y56800D01*
X104497D01*
Y56700D01*
X104397D01*
Y56600D01*
Y56500D01*
X104297D01*
Y56400D01*
Y56300D01*
Y56200D01*
X104197D01*
Y56100D01*
X104097D01*
Y56000D01*
Y55900D01*
Y55800D01*
X103997D01*
Y55700D01*
X103897D01*
Y55600D01*
X103597D01*
Y55700D01*
Y55800D01*
X103697D01*
Y55900D01*
Y56000D01*
X103797D01*
Y56100D01*
Y56200D01*
X103897D01*
Y56300D01*
Y56400D01*
X103997D01*
Y56500D01*
X104097D01*
Y56600D01*
Y56700D01*
X104197D01*
Y56800D01*
X104297D01*
Y56900D01*
X104397D01*
Y57000D01*
X104297D01*
Y57100D01*
X104197D01*
Y57200D01*
X103997D01*
Y57300D01*
Y57400D01*
X103897D01*
Y57500D01*
Y57600D01*
Y57700D01*
Y57800D01*
Y57900D01*
Y58000D01*
Y58100D01*
X103997D01*
Y58200D01*
X104097D01*
Y58300D01*
Y58400D01*
X104397D01*
Y58500D01*
X105497D01*
Y58600D01*
X105697D01*
Y58500D01*
D02*
G37*
G36*
X102597Y57700D02*
X102797D01*
Y57600D01*
X102897D01*
Y57500D01*
X103097D01*
Y57400D01*
Y57300D01*
Y57200D01*
Y57100D01*
Y57000D01*
X103197D01*
Y56900D01*
Y56800D01*
Y56700D01*
Y56600D01*
Y56500D01*
X103097D01*
Y56400D01*
Y56300D01*
Y56200D01*
Y56100D01*
Y56000D01*
X102997D01*
Y55900D01*
Y55800D01*
X102897D01*
Y55700D01*
X102697D01*
Y55600D01*
X102497D01*
Y55500D01*
X102097D01*
Y55600D01*
X101797D01*
Y55700D01*
X101597D01*
Y55800D01*
Y55900D01*
X101497D01*
Y56000D01*
X101397D01*
Y56100D01*
Y56200D01*
X101297D01*
Y56300D01*
Y56400D01*
Y56500D01*
Y56600D01*
Y56700D01*
Y56800D01*
Y56900D01*
Y57000D01*
Y57100D01*
Y57200D01*
X101397D01*
Y57300D01*
Y57400D01*
X101497D01*
Y57500D01*
X101597D01*
Y57600D01*
Y57700D01*
X101797D01*
Y57800D01*
X102597D01*
Y57700D01*
D02*
G37*
G36*
X97597Y58500D02*
X97697D01*
Y58400D01*
X97897D01*
Y58300D01*
X97997D01*
Y58200D01*
X98097D01*
Y58100D01*
Y58000D01*
Y57900D01*
Y57800D01*
Y57700D01*
Y57600D01*
Y57500D01*
Y57400D01*
Y57300D01*
X97997D01*
Y57200D01*
X97797D01*
Y57100D01*
X97697D01*
Y57000D01*
X97197D01*
Y56900D01*
X96897D01*
Y56800D01*
X96797D01*
Y56700D01*
X96697D01*
Y56600D01*
Y56500D01*
Y56400D01*
Y56300D01*
Y56200D01*
Y56100D01*
Y56000D01*
X96897D01*
Y55900D01*
Y55800D01*
X97697D01*
Y55900D01*
X97897D01*
Y56000D01*
X98097D01*
Y55900D01*
Y55800D01*
Y55700D01*
X97897D01*
Y55600D01*
X97697D01*
Y55500D01*
X96997D01*
Y55600D01*
X96697D01*
Y55700D01*
X96497D01*
Y55800D01*
X96397D01*
Y55900D01*
Y56000D01*
Y56100D01*
X96297D01*
Y56200D01*
Y56300D01*
Y56400D01*
Y56500D01*
Y56600D01*
Y56700D01*
X96397D01*
Y56800D01*
Y56900D01*
X96497D01*
Y57000D01*
X96697D01*
Y57100D01*
X96797D01*
Y57200D01*
X97197D01*
Y57300D01*
X97497D01*
Y57400D01*
X97697D01*
Y57500D01*
X97797D01*
Y57600D01*
X97897D01*
Y57700D01*
Y57800D01*
Y57900D01*
Y58000D01*
X97797D01*
Y58100D01*
X97697D01*
Y58200D01*
X97597D01*
Y58300D01*
X96797D01*
Y58200D01*
X96397D01*
Y58300D01*
Y58400D01*
X96597D01*
Y58500D01*
X96797D01*
Y58600D01*
X97597D01*
Y58500D01*
D02*
G37*
%LPC*%
G36*
X105297Y58300D02*
X104697D01*
Y58200D01*
X104397D01*
Y58100D01*
X104297D01*
Y58000D01*
Y57900D01*
Y57800D01*
Y57700D01*
Y57600D01*
Y57500D01*
Y57400D01*
Y57300D01*
X104397D01*
Y57200D01*
X105297D01*
Y57300D01*
Y57400D01*
Y57500D01*
Y57600D01*
Y57700D01*
Y57800D01*
Y57900D01*
Y58000D01*
Y58100D01*
Y58200D01*
Y58300D01*
D02*
G37*
G36*
X102497Y57600D02*
X101997D01*
Y57500D01*
X101797D01*
Y57400D01*
Y57300D01*
X101697D01*
Y57200D01*
Y57100D01*
X101597D01*
Y57000D01*
Y56900D01*
Y56800D01*
Y56700D01*
Y56600D01*
Y56500D01*
Y56400D01*
Y56300D01*
X101697D01*
Y56200D01*
Y56100D01*
X101797D01*
Y56000D01*
Y55900D01*
X101997D01*
Y55800D01*
X102197D01*
Y55700D01*
X102297D01*
Y55800D01*
X102597D01*
Y55900D01*
Y56000D01*
X102797D01*
Y56100D01*
Y56200D01*
Y56300D01*
Y56400D01*
Y56500D01*
Y56600D01*
Y56700D01*
Y56800D01*
Y56900D01*
Y57000D01*
Y57100D01*
Y57200D01*
Y57300D01*
X102697D01*
Y57400D01*
Y57500D01*
X102497D01*
Y57600D01*
D02*
G37*
%LPD*%
D10*
X37654Y95635D02*
G03*
X37654Y95635I-1060J0D01*
G01*
X104123Y114090D02*
G03*
X104123Y114090I-1060J0D01*
G01*
X77162Y165748D02*
X79524D01*
X77162Y150000D02*
X79524D01*
X31865Y132086D02*
Y137992D01*
X43697Y132086D02*
Y137992D01*
X107477Y132086D02*
Y137992D01*
X95645Y132086D02*
Y137992D01*
D12*
X41729Y94862D02*
Y113562D01*
X54917D01*
Y94862D02*
Y113562D01*
X41729Y94862D02*
X54917D01*
X59848Y126386D02*
X80304D01*
X58560Y116134D02*
X80304D01*
X117154Y46056D02*
Y65756D01*
X126934D02*
X126965Y46064D01*
X84742Y114862D02*
X97930D01*
X84742Y96162D02*
Y114862D01*
Y96162D02*
X97930D01*
Y114862D01*
D13*
X87736Y149874D02*
G03*
X87736Y149874I-394J0D01*
G01*
X99210Y159449D02*
X104722D01*
X99210Y151575D02*
X104722D01*
X16139Y92913D02*
Y98425D01*
X24013Y92913D02*
Y98425D01*
X16139Y112598D02*
Y118110D01*
X24013Y112598D02*
Y118110D01*
X124013Y112598D02*
Y118110D01*
X116139Y112598D02*
Y118110D01*
X124013Y92913D02*
Y98425D01*
X116139Y92913D02*
Y98425D01*
D14*
X27949Y109547D02*
X28736D01*
X27949Y111713D02*
X28736D01*
X61600Y156719D02*
X61993D01*
X61600Y159081D02*
X61993D01*
X97044Y150394D02*
X97438D01*
X97044Y148032D02*
X97438D01*
X111414Y111713D02*
X112201D01*
X111414Y109547D02*
X112201D01*
X111414Y101477D02*
X112201D01*
X111414Y99311D02*
X112201D01*
X27949D02*
X28736D01*
X27949Y101477D02*
X28736D01*
D16*
X56297Y153300D02*
Y156019D01*
X54937D01*
X54484Y155566D01*
Y154660D01*
X54937Y154206D01*
X56297D01*
X53124Y153300D02*
X52218D01*
X51765Y153753D01*
Y154660D01*
X52218Y155113D01*
X53124D01*
X53578Y154660D01*
Y153753D01*
X53124Y153300D01*
X49046Y156019D02*
X50858D01*
Y153300D01*
X49046D01*
X50858Y154660D02*
X49952D01*
X43607Y155566D02*
X44061Y156019D01*
X44967D01*
X45420Y155566D01*
Y155113D01*
X44967Y154660D01*
X44061D01*
X43607Y154206D01*
Y153753D01*
X44061Y153300D01*
X44967D01*
X45420Y153753D01*
X42701Y156019D02*
Y153300D01*
Y154660D01*
X42248Y155113D01*
X41342D01*
X40888Y154660D01*
Y153300D01*
X39982D02*
X39076D01*
X39529D01*
Y155113D01*
X39982D01*
X36356Y153300D02*
X37263D01*
X37716Y153753D01*
Y154660D01*
X37263Y155113D01*
X36356D01*
X35903Y154660D01*
Y154206D01*
X37716D01*
X34997Y153300D02*
X34091D01*
X34544D01*
Y156019D01*
X34997D01*
X30918D02*
Y153300D01*
X32278D01*
X32731Y153753D01*
Y154660D01*
X32278Y155113D01*
X30918D01*
X27293Y153300D02*
Y156019D01*
X25933D01*
X25480Y155566D01*
Y154660D01*
X25933Y154206D01*
X27293D01*
X26386D02*
X25480Y153300D01*
X24574D02*
X23667D01*
X24120D01*
Y156019D01*
X24574Y155566D01*
X66497Y151419D02*
Y148700D01*
Y150060D01*
X66044Y150513D01*
X65137D01*
X64684Y150060D01*
Y148700D01*
X63324Y150966D02*
Y150513D01*
X63778D01*
X62871D01*
X63324D01*
Y149153D01*
X62871Y148700D01*
X61058Y150966D02*
Y150513D01*
X61512D01*
X60605D01*
X61058D01*
Y149153D01*
X60605Y148700D01*
X59246Y147794D02*
Y150513D01*
X57886D01*
X57433Y150060D01*
Y149153D01*
X57886Y148700D01*
X59246D01*
X56526D02*
X55167D01*
X54714Y149153D01*
X55167Y149606D01*
X56073D01*
X56526Y150060D01*
X56073Y150513D01*
X54714D01*
X53807D02*
X53354D01*
Y150060D01*
X53807D01*
Y150513D01*
Y149153D02*
X53354D01*
Y148700D01*
X53807D01*
Y149153D01*
X51542Y148700D02*
X49729Y150513D01*
X48822Y148700D02*
X47010Y150513D01*
X45650Y148700D02*
X44744D01*
X44291Y149153D01*
Y150060D01*
X44744Y150513D01*
X45650D01*
X46103Y150060D01*
Y149153D01*
X45650Y148700D01*
X43384Y147794D02*
Y150513D01*
X42025D01*
X41571Y150060D01*
Y149153D01*
X42025Y148700D01*
X43384D01*
X39305D02*
X40212D01*
X40665Y149153D01*
Y150060D01*
X40212Y150513D01*
X39305D01*
X38852Y150060D01*
Y149606D01*
X40665D01*
X37946Y148700D02*
Y150513D01*
X36586D01*
X36133Y150060D01*
Y148700D01*
X35227D02*
Y150513D01*
X34774D01*
X34320Y150060D01*
Y148700D01*
Y150060D01*
X33867Y150513D01*
X33414Y150060D01*
Y148700D01*
X32508Y150513D02*
X31601Y148700D01*
X30695Y150513D01*
X29789Y148700D02*
Y149153D01*
X29335D01*
Y148700D01*
X29789D01*
X27523D02*
X26616D01*
X27069D01*
Y150513D01*
X27523D01*
X24803Y148700D02*
X23897D01*
X23444Y149153D01*
Y150060D01*
X23897Y150513D01*
X24803D01*
X25257Y150060D01*
Y149153D01*
X24803Y148700D01*
X63997Y145766D02*
X63543Y146219D01*
X62637D01*
X62184Y145766D01*
Y145313D01*
X62637Y144860D01*
X63090D01*
X62637D01*
X62184Y144406D01*
Y143953D01*
X62637Y143500D01*
X63543D01*
X63997Y143953D01*
X61278Y143500D02*
Y143953D01*
X60824D01*
Y143500D01*
X61278D01*
X57199D02*
X59012D01*
X57199Y145313D01*
Y145766D01*
X57652Y146219D01*
X58558D01*
X59012Y145766D01*
X54480Y146219D02*
X55386Y145766D01*
X56292Y144860D01*
Y143953D01*
X55839Y143500D01*
X54933D01*
X54480Y143953D01*
Y144406D01*
X54933Y144860D01*
X56292D01*
X53573Y143500D02*
Y143953D01*
X53120D01*
Y143500D01*
X53573D01*
X49495D02*
X51307D01*
X49495Y145313D01*
Y145766D01*
X49948Y146219D01*
X50854D01*
X51307Y145766D01*
X48588D02*
X48135Y146219D01*
X47229D01*
X46776Y145766D01*
Y145313D01*
X47229Y144860D01*
X47682D01*
X47229D01*
X46776Y144406D01*
Y143953D01*
X47229Y143500D01*
X48135D01*
X48588Y143953D01*
D17*
X127556Y13674D02*
X125743D01*
X124837Y14581D01*
X125743Y15487D01*
X127556D01*
Y16393D02*
Y17300D01*
Y16847D01*
X124837D01*
Y16393D01*
Y17300D01*
Y18659D02*
X127556D01*
X124837Y20472D01*
X127556D01*
X127102Y5586D02*
X127556Y5133D01*
Y4226D01*
X127102Y3773D01*
X125290D01*
X124837Y4226D01*
Y5133D01*
X125290Y5586D01*
X126196D01*
Y4679D01*
X124837Y6492D02*
X127556D01*
X124837Y8305D01*
X127556D01*
Y9211D02*
X124837D01*
Y10571D01*
X125290Y11024D01*
X127102D01*
X127556Y10571D01*
Y9211D01*
X30275Y72835D02*
X27556D01*
Y74648D01*
X30275Y77367D02*
Y75554D01*
X27556D01*
Y77367D01*
X28915Y75554D02*
Y76460D01*
X30275Y78273D02*
X27556D01*
Y79633D01*
X28009Y80086D01*
X29822D01*
X30275Y79633D01*
Y78273D01*
X27556Y61811D02*
X30275D01*
Y63171D01*
X29822Y63624D01*
X28915D01*
X28462Y63171D01*
Y61811D01*
Y62717D02*
X27556Y63624D01*
X30275Y64530D02*
X27556Y66343D01*
X30275D02*
X27556Y64530D01*
Y67249D02*
X30275D01*
X27556Y69062D01*
X30275D01*
X27556Y52362D02*
X30275D01*
Y53722D01*
X29822Y54175D01*
X28915D01*
X28462Y53722D01*
Y52362D01*
Y53268D02*
X27556Y54175D01*
X30275Y55081D02*
X27556Y56894D01*
X30275D02*
X27556Y55081D01*
Y57800D02*
X30275D01*
Y59160D01*
X29822Y59613D01*
X28915D01*
X28462Y59160D01*
Y57800D01*
X30275Y41732D02*
Y43545D01*
Y42638D01*
X27556D01*
X30275Y44451D02*
X27556Y46264D01*
X30275D02*
X27556Y44451D01*
Y47170D02*
X30275D01*
X27556Y48983D01*
X30275D01*
Y31890D02*
Y33703D01*
Y32796D01*
X27556D01*
X30275Y34609D02*
X27556Y36422D01*
X30275D02*
X27556Y34609D01*
Y37328D02*
X30275D01*
Y38688D01*
X29822Y39141D01*
X28915D01*
X28462Y38688D01*
Y37328D01*
X29822Y4175D02*
X30275Y3722D01*
Y2815D01*
X29822Y2362D01*
X28009D01*
X27556Y2815D01*
Y3722D01*
X28009Y4175D01*
X28915D01*
Y3268D01*
X27556Y5081D02*
X30275D01*
X27556Y6894D01*
X30275D01*
Y7800D02*
X27556D01*
Y9160D01*
X28009Y9613D01*
X29822D01*
X30275Y9160D01*
Y7800D01*
D18*
X129403Y132283D02*
X126769D01*
X128086D01*
Y134039D01*
X129403D01*
X126769D01*
Y135356D02*
Y136234D01*
X127208Y136673D01*
X128086D01*
X128525Y136234D01*
Y135356D01*
X128086Y134917D01*
X127208D01*
X126769Y135356D01*
X128964Y137990D02*
X128525D01*
Y137551D01*
Y138429D01*
Y137990D01*
X127208D01*
X126769Y138429D01*
X129403Y97638D02*
X126769D01*
X128086D01*
Y99394D01*
X129403D01*
X126769D01*
Y100711D02*
Y101589D01*
X127208Y102028D01*
X128086D01*
X128525Y101589D01*
Y100711D01*
X128086Y100272D01*
X127208D01*
X126769Y100711D01*
X128964Y103345D02*
X128525D01*
Y102906D01*
Y103784D01*
Y103345D01*
X127208D01*
X126769Y103784D01*
X12867Y97638D02*
X10233D01*
X11550D01*
Y99394D01*
X12867D01*
X10233D01*
Y100711D02*
Y101589D01*
X10672Y102028D01*
X11550D01*
X11989Y101589D01*
Y100711D01*
X11550Y100272D01*
X10672D01*
X10233Y100711D01*
X12428Y103345D02*
X11989D01*
Y102906D01*
Y103784D01*
Y103345D01*
X10672D01*
X10233Y103784D01*
X12867Y132283D02*
X10233D01*
X11550D01*
Y134039D01*
X12867D01*
X10233D01*
Y135356D02*
Y136234D01*
X10672Y136673D01*
X11550D01*
X11989Y136234D01*
Y135356D01*
X11550Y134917D01*
X10672D01*
X10233Y135356D01*
X12428Y137990D02*
X11989D01*
Y137551D01*
Y138429D01*
Y137990D01*
X10672D01*
X10233Y138429D01*
D67*
X55312Y116339D02*
Y126181D01*
X117122Y42127D02*
X126965D01*
M02*
