G04*
G04 #@! TF.GenerationSoftware,Altium Limited,Altium Designer,21.7.2 (23)*
G04*
G04 Layer_Color=8388736*
%FSLAX25Y25*%
%MOIN*%
G70*
G04*
G04 #@! TF.SameCoordinates,2ED69007-8404-4F84-9E22-07974BFFE74B*
G04*
G04*
G04 #@! TF.FilePolarity,Negative*
G04*
G01*
G75*
%ADD26R,0.03353X0.06896*%
%ADD27R,0.12998X0.07487*%
G04:AMPARAMS|DCode=28|XSize=43.37mil|YSize=82.74mil|CornerRadius=11.84mil|HoleSize=0mil|Usage=FLASHONLY|Rotation=270.000|XOffset=0mil|YOffset=0mil|HoleType=Round|Shape=RoundedRectangle|*
%AMROUNDEDRECTD28*
21,1,0.04337,0.05906,0,0,270.0*
21,1,0.01968,0.08274,0,0,270.0*
1,1,0.02368,-0.02953,-0.00984*
1,1,0.02368,-0.02953,0.00984*
1,1,0.02368,0.02953,0.00984*
1,1,0.02368,0.02953,-0.00984*
%
%ADD28ROUNDEDRECTD28*%
G04:AMPARAMS|DCode=29|XSize=38.19mil|YSize=42.13mil|CornerRadius=10.7mil|HoleSize=0mil|Usage=FLASHONLY|Rotation=90.000|XOffset=0mil|YOffset=0mil|HoleType=Round|Shape=RoundedRectangle|*
%AMROUNDEDRECTD29*
21,1,0.03819,0.02072,0,0,90.0*
21,1,0.01678,0.04213,0,0,90.0*
1,1,0.02141,0.01036,0.00839*
1,1,0.02141,0.01036,-0.00839*
1,1,0.02141,-0.01036,-0.00839*
1,1,0.02141,-0.01036,0.00839*
%
%ADD29ROUNDEDRECTD29*%
G04:AMPARAMS|DCode=30|XSize=29mil|YSize=39mil|CornerRadius=8.25mil|HoleSize=0mil|Usage=FLASHONLY|Rotation=180.000|XOffset=0mil|YOffset=0mil|HoleType=Round|Shape=RoundedRectangle|*
%AMROUNDEDRECTD30*
21,1,0.02900,0.02250,0,0,180.0*
21,1,0.01250,0.03900,0,0,180.0*
1,1,0.01650,-0.00625,0.01125*
1,1,0.01650,0.00625,0.01125*
1,1,0.01650,0.00625,-0.01125*
1,1,0.01650,-0.00625,-0.01125*
%
%ADD30ROUNDEDRECTD30*%
G04:AMPARAMS|DCode=31|XSize=28.74mil|YSize=26.77mil|CornerRadius=7.91mil|HoleSize=0mil|Usage=FLASHONLY|Rotation=0.000|XOffset=0mil|YOffset=0mil|HoleType=Round|Shape=RoundedRectangle|*
%AMROUNDEDRECTD31*
21,1,0.02874,0.01096,0,0,0.0*
21,1,0.01293,0.02677,0,0,0.0*
1,1,0.01581,0.00647,-0.00548*
1,1,0.01581,-0.00647,-0.00548*
1,1,0.01581,-0.00647,0.00548*
1,1,0.01581,0.00647,0.00548*
%
%ADD31ROUNDEDRECTD31*%
G04:AMPARAMS|DCode=32|XSize=43.37mil|YSize=43.37mil|CornerRadius=21.69mil|HoleSize=0mil|Usage=FLASHONLY|Rotation=0.000|XOffset=0mil|YOffset=0mil|HoleType=Round|Shape=RoundedRectangle|*
%AMROUNDEDRECTD32*
21,1,0.04337,0.00000,0,0,0.0*
21,1,0.00000,0.04337,0,0,0.0*
1,1,0.04337,0.00000,0.00000*
1,1,0.04337,0.00000,0.00000*
1,1,0.04337,0.00000,0.00000*
1,1,0.04337,0.00000,0.00000*
%
%ADD32ROUNDEDRECTD32*%
%ADD33C,0.07400*%
%ADD34C,0.21400*%
%ADD35O,0.06306X0.12211*%
%ADD36C,0.05124*%
%ADD37C,0.07191*%
D26*
X-129497Y78005D02*
D03*
X-124497D02*
D03*
X-119497D02*
D03*
X-114497D02*
D03*
X-109497D02*
D03*
X-104497D02*
D03*
X-99497D02*
D03*
X-94497D02*
D03*
Y44147D02*
D03*
X-99497D02*
D03*
X-104497D02*
D03*
X-109497D02*
D03*
X-114497D02*
D03*
X-119497D02*
D03*
X-124497D02*
D03*
X-129497D02*
D03*
D27*
X-58454Y62651D02*
D03*
Y84699D02*
D03*
X-174989Y119344D02*
D03*
Y97296D02*
D03*
Y62651D02*
D03*
Y84699D02*
D03*
X-58454Y119344D02*
D03*
Y97296D02*
D03*
D28*
X-73414Y10289D02*
D03*
Y22099D02*
D03*
X-150580Y10289D02*
D03*
Y22100D02*
D03*
D29*
X-64753Y41982D02*
D03*
Y35879D02*
D03*
D30*
X-71296Y-21601D02*
D03*
X-65296D02*
D03*
X-152304Y-21601D02*
D03*
X-158304D02*
D03*
D31*
X-134787Y79800D02*
D03*
X-138213D02*
D03*
X-88813Y79600D02*
D03*
X-85387D02*
D03*
D32*
X-162391Y-11365D02*
D03*
X-77351Y32730D02*
D03*
X-71839Y143754D02*
D03*
X-161603D02*
D03*
D33*
X-180501Y48399D02*
D03*
Y38399D02*
D03*
Y28399D02*
D03*
Y18399D02*
D03*
Y8399D02*
D03*
Y-1601D02*
D03*
Y-11601D02*
D03*
Y-21601D02*
D03*
X-52942Y48399D02*
D03*
Y38399D02*
D03*
Y28399D02*
D03*
Y18399D02*
D03*
Y8399D02*
D03*
Y-1601D02*
D03*
Y-11601D02*
D03*
Y-21601D02*
D03*
X-170501Y48399D02*
D03*
Y38399D02*
D03*
Y28399D02*
D03*
Y18399D02*
D03*
Y8399D02*
D03*
Y-1601D02*
D03*
Y-11601D02*
D03*
Y-21601D02*
D03*
D34*
X-174800Y135100D02*
D03*
X-58800D02*
D03*
D35*
X-148568Y-3884D02*
D03*
X-75182D02*
D03*
D36*
X-97824Y33518D02*
D03*
X-101840Y29186D02*
D03*
X-105856Y33518D02*
D03*
X-109871Y29186D02*
D03*
X-113887Y33518D02*
D03*
X-117903Y29186D02*
D03*
X-121918Y33518D02*
D03*
X-125934Y29186D02*
D03*
D37*
X-80107Y136273D02*
D03*
X-90107D02*
D03*
X-143532D02*
D03*
X-153532D02*
D03*
Y91470D02*
D03*
X-143532D02*
D03*
X-90107D02*
D03*
X-80107D02*
D03*
M02*
