M48
;Layer_Color=9474304
;FILE_FORMAT=2:5
INCH,LZ
;TYPE=PLATED
T1F00S00C0.00400
T2F00S00C0.00500
T3F00S00C0.00600
T4F00S00C0.00800
T5F00S00C0.01000
T6F00S00C0.01200
T7F00S00C0.01800
T9F00S00C0.03150
T10F00S00C0.04000
T11F00S00C0.11024
T12F00S00C0.11811
;TYPE=NON_PLATED
T13F00S00C0.02362
T14F00S00C0.02559
%
T01
X0078839Y0013386
X0086696Y0046354
X0089961Y0047933
X0086828Y005877
X008691Y0067126
X0095669
X0094784Y0057874
X0107263Y0057406
X0118799Y0062598
X0064094Y0062201
X006404Y0059613
X0064075Y0057776
X0064099Y0054597
X0057874Y0054626
X0057693Y0056294
X0057751Y0058017
X0057579Y0059449
X0057972Y0061221
X005605Y006403
X005634Y0067197
X006068Y0067165
X0060601Y0063976
X0064075Y0067225
X0061122Y0048327
X0057972
X0058071Y0050787
X0054921
X0054823Y0048327
Y0045177
X0057972
Y0042028
X0061122
Y0045177
X0054502Y0040446
X0052465Y0051152
X0043028Y0064546
X003356Y0080198
X0033957Y0081988
X0047841Y0091077
X0049825Y0090959
X0050382Y0093317
X005Y0095866
X0052559
Y0098425
X0055118
X0057677
X0060236
Y0100983
Y0103542
X0057677Y0103543
Y0100984
X0055118
X0052559
X005
Y0098425
X0047441
Y0095866
X0047157Y0094235
X0047441Y0100984
Y0103543
X005
X0052559
X0055118
Y0106102
X0057677
Y0108662
X0055118
X0052559
X0050071Y0108696
X005Y0106102
X0052559
X0047441
X004458Y0106068
X0047441Y011122
X005Y0113779
Y0116338
X0052559
Y0113779
X0055118
X0057677
Y0116338
X0055118
Y0118897
X0057677
X0060236
Y0121456
X0057677
Y0124015
X0060236
Y0126574
X0062795
Y0124015
Y0121456
Y0118897
Y0116338
X0062794Y0113779
X0060236Y011378
X0065354Y0113779
X0067914
Y0116338
X0070472
X0073031
X0073036Y011381
X0070473Y0113779
X0070472Y0118897
X0067914
Y0121456
X0070472
X0073031
Y0118897
X007559
X0078149
Y0116338
X007559
Y0121456
X0078149
Y0124015
Y0126574
X007559
X0073031
X0073027Y0124344
X0070472Y0124015
X0067914
Y0126574
X0067785Y0129739
X0070374Y0129724
X007559Y0124015
X0080709Y0124016
X0080708Y0126574
X0080398Y0121767
X0083957Y012313
X0083267Y0116338
X0080709Y011122
X0080708Y0108662
X0078149
X007559
X0075374Y010646
X0073031Y0106102
Y0103543
X0070472
X0067914Y0103542
Y0100983
Y0098425
X0070473
Y0100984
X007559
Y0098425
X0078149
X0080708
X0083267
Y0095866
Y0093307
Y0090748
X0080708
Y0093307
Y0095866
X0078736Y0095911
X0075242Y0095829
X0073031Y0095866
X0070472
X0067914
X0067914Y0093307
X0070473
X0073032
X007559
X0075394Y0090748
X0078014Y0090716
X0070473Y0090748
X0067914
X0065355
Y0093307
X0062795
X0060551Y0093383
X0058626Y0093405
X0056389Y0093398
X005638Y0095958
X0058455Y0095992
X0060452Y009597
X0062795Y0095866
Y0098425
Y0100984
Y0103543
X0062696Y0105888
X0062795Y0108662
X0065354
X0067913Y0108661
X0073031Y0108662
X0078149Y0111221
Y0106102
Y0103543
X0080589Y0103626
X0080708Y0100984
X0083267
X0078149
X007559Y0103543
X0065355Y0103542
Y0100983
Y0098424
X0063915Y0089386
X0059744Y0089468
X005976Y008805
X0060656Y0090641
X0058829Y0090623
X0055783Y0089235
X0052559Y0118897
X005
Y0121456
X0052559
X0055118
Y0124015
X0052559
X005
X0046905Y0124567
X0046977Y0126635
X0047441Y0121456
Y0116338
X0052559Y0126574
X0099436Y0116084
X0098881Y0114814
X0098233Y0113522
X0097858Y0112261
X0097199Y0111113
X0099016Y0107283
X0095371Y0103543
X0090059Y0098228
X0122771Y0120101
X0123409Y0121555
T02
X0034154Y0043307
X0036122Y0042717
X0038484Y0042618
X0041142Y004252
X0044882Y0043012
X0046632Y0048163
X004674Y0052949
X0046656Y0056863
X0042028Y0065453
X0039961Y0065551
X0038091
X0033957Y0087402
Y0088976
Y0090551
Y0092126
Y0093701
Y0095276
X0033366Y0096867
Y0098442
Y0100017
Y0101592
Y0103167
Y0104741
X0029134Y0104724
Y010315
Y0101575
Y01
Y0098425
Y009685
X0027559
X0025984
X0024409
X0022835
X002126
X0019685
X001811Y0098425
Y01
Y0101575
Y010315
X0025984Y0104724
X0027559
Y0090354
X0025984
X0024409
X0022835
X002126
X0019685
X001811Y0087402
Y0085827
Y0084252
Y0082677
X0029134Y0090354
X0018182Y0117503
X0018208Y0121195
X00182Y0122879
X001811Y0124705
X0018209Y0126476
X001811Y0128248
X001811Y0133071
X0029249Y0132178
X0015663Y0119287
X0004921Y0111023
X0053352Y01494
X0055286Y0149366
X0057185Y0149409
X0059524Y014933
X007126Y0148032
X0073032Y0149409
X00745Y0148135
X0078232Y014839
X0083231Y0149058
X0096653Y0154134
X0130052Y0118267
X0111024Y007794
X0113548Y005662
X0119193Y0055709
X0107087Y0054331
Y0052362
Y0050394
Y0048425
Y0046457
X0106009Y0056116
X0101279Y0055807
X0073183Y0056608
X0073051Y0053586
X0073228Y0059843
Y006378
Y0066142
X0081496Y0067717
X0081102Y0038583
X0123622Y0044882
X008673Y0170834
X0084646Y0171654
X0078839Y0171653
X0070965
X0069072Y0172313
X0066707Y0170652
X00651Y0170685
X0059055Y0171654
X0057284Y0171653
X0055512Y0171654
X005315
X0061133Y0163534
X0063281Y0163687
X0061137Y0156429
X007304Y016355
X0074937Y0163538
X007695Y016355
T03
X0048032Y0005414
X0049909Y0005145
X0052348Y000955
X0048343Y0014666
X0063189Y0013484
X0064764Y0047047
X0064862Y0049409
X0064468Y0051673
X006998Y0046654
X0073594Y0047025
X0073917Y0045276
X0077175Y0044337
X0079958Y0042225
X0079652Y0040382
X0083207Y004751
X0079871Y0052214
X0079962Y0054468
X0080002Y005717
X0080015Y0060526
X0069193Y0060433
X0070472Y0057579
X007091Y0066138
X0069439Y0066435
X0065433Y0066135
X0065444Y006445
X004636Y0063398
X0039469Y0056988
X0039975Y0052923
X0037205Y0052362
X0032087Y0063681
X0025787Y0062402
X0025197Y0060433
X0048917Y0040945
X0050394Y003937
X0047539Y0039173
X0073524Y0049114
X0093209Y0049311
X0094291Y0050787
X0095177Y0052362
X0095866Y0053953
X0096752Y0056201
X0096214Y0047619
X0100207Y0042132
X0102951Y0043731
X0104891Y0043757
X0109055Y0035433
X0098819
X011243Y0049327
X0114272Y0050787
X0112697Y0053729
X0116831Y004685
X0126673Y0056988
X0106496Y0077461
X0104528
X0102559
X0100695Y0077483
X009868Y0077536
X0100563Y0082258
X0100689Y0094488
X0105709
X0110827Y009941
X0110836Y0117035
X0107283Y0119291
X0103642Y0116831
X0099213Y0124409
X0094477Y0125695
X0094674Y0131094
X0093504Y0135039
X0087057Y0136063
X008248Y0147047
X0090551Y0150197
X0107098Y0146121
X0111909Y0144488
X0116929
X0121457Y0133465
X0126673Y0131988
X0127264Y0129035
X0127461Y0125689
X011699Y0117573
X0088021Y0117824
X0083858Y0108563
X0084153Y0106004
X0095768Y0109096
X0087697Y0087402
X0087459Y0082612
X0078966Y0082496
X007894Y0080982
X0074398Y0080991
X0074406Y0082461
X009498Y0069193
X0072393Y0138331
X0073228Y0144783
X0067586Y0142031
X0067323Y0148032
X0065101Y0149302
X0063031Y0147936
X0058563Y0144095
X005748Y0136024
X0053445Y0136516
X0052953Y0131398
X0051279
X005Y0129429
X0055118Y0131496
X0056932Y0131419
X0047027Y0134829
X0047933Y0136319
X004311Y0142421
X0043097Y0146001
X0033465Y0148524
X0025689Y0138681
X0035925Y0126969
X0042126Y0126476
X0043406Y0127559
X0044882Y0126673
X0037528Y011871
X003129Y0113567
X0031357Y011188
X0042533Y0111516
X0019488Y0114961
X0015439Y011593
X0004921Y0108661
Y0106496
X0026181Y0157087
X0043307Y0156595
Y0159416
Y0162238
Y0165059
X0045079Y0165059
X004813
X0049016Y0162894
Y015876
X0053051Y0162697
X0059055
X0061221Y015935
X0065945Y0161614
X0068996Y0162697
X0069021Y0156463
X0077165Y0161024
X007874Y0162598
X0083366Y0162697
X0086516
X0091142Y0162205
Y0159449
X0096693Y0159416
Y0156595
Y0162238
Y0165059
X0094921Y0165059
X0093209
X0101647Y016572
X0104626Y0169783
X0112992Y0160335
T04
X0028937Y0004232
X0026597Y0056847
X0027291Y0058918
X0046903Y0051001
X0065551Y0043209
X0075412Y0032876
X0078642Y0032874
X0101181Y0035433
X0102953Y0033858
X0104921Y0035433
X0106693Y0033858
X0081226Y0009954
X0080509Y0074559
X0088287Y0095374
X0102362Y0103937
Y0113386
X0108661Y0108661
X0114961Y0103937
X0118898Y0098819
X0114961Y0113386
X0118898Y0124016
X0114961Y0131103
Y0140551
X0108661Y0135827
X0102362Y0131103
Y0140551
X0116732Y0152067
X0138091Y013248
X013405Y0115497
X0136636Y0089274
X0024016Y0104331
X0022047Y0104724
X0020079Y0104331
X0017883Y0105312
X0016619Y0109368
X0014945Y011201
X0015244Y0114125
X0011575Y012404
X0008661Y0126772
X003937Y013622
Y0138583
X0040945Y0149606
X005315Y0145669
T05
X0028934Y0043564
X0060033Y0014896
X0089854Y0039916
X0119685Y0040157
X0093961Y0072417
X0095384Y0080373
X013375Y0107168
X0030168Y0125704
X0033563Y0132677
X0015748Y0133071
T06
X0037008Y0005414
X0047354Y0018597
X0056061Y0009998
X0063189Y0005217
X0077427Y0005913
X0076476Y0024902
X0078972Y0024855
X0081536Y002488
X0081988Y0030906
X0094094Y0035433
X011378
X0118898Y0084252
X0100798Y0150013
X0050394Y0171654
X0037008Y0170866
T07
X0063779Y0022539
X0063765Y0024694
T09
X0035433Y0025197
X0043307
T10
X0006299Y0006299
X0016299
Y0016299
Y0026299
Y0036299
Y0046299
Y0056299
Y0066299
Y0076299
X0006299
Y0066299
Y0056299
Y0046299
Y0036299
Y0026299
Y0016299
X0133858
Y0026299
Y0036299
Y0046299
Y0056299
Y0066299
Y0076299
Y0006299
T11
X0012Y0163
X0128
T12
X001Y01425
X013
T13
X0049134Y0154094
X0090866
T14
X0092559Y0025512
X0115315
M30
