M48
;Layer_Color=9474304
;FILE_FORMAT=2:5
INCH,LZ
;TYPE=PLATED
T1F00S00C0.01000
T2F00S00C0.01500
T3F00S00C0.02400
T5F00S00C0.03543
T6F00S00C0.04000
T7F00S00C0.04528
T8F00S00C0.11024
%
T01
X0025981Y003622
Y0046457
X0029131Y0084252
Y0087402
X0010233Y0096063
X0009052Y0105118
X0007871Y0107087
X0010233
Y0130709
X0007871
X0009052Y0132677
X0011397Y01328
X0013759
X0012578Y0130832
X0010233Y0141732
X0129918
X0131099Y0132677
X013228Y0130709
X0129918
Y0107087
X013228
X0131099Y0105118
X0129918Y0096063
T02
X0026697Y00246
X0035997Y00641
X0027597Y00915
X0052597Y00845
X0062397Y00764
X0072097Y00843
X0087397Y00762
X0089308Y0097839
X0111597Y00905
X0125397Y00819
X0108597Y00702
X0121597Y00241
X0114397Y01584
X0089497Y01658
X0060197Y0163
T03
X0025194Y0055906
X0036197Y00556
X0007084Y0101575
Y0118898
Y013622
X0068197Y01535
X0077369Y015357
X0133068Y013622
Y0118898
Y0101575
X0122044Y0076378
X0113297Y00562
T05
X0060863Y0057086
X0068894
X0076926
X0084957
X0080941Y0061418
X007291
X0064879
X0088973
T06
X0006296Y0006299
X0016296
Y0016299
Y0026299
Y0036299
Y0046299
Y0056299
Y0066299
Y0076299
X0006296
Y0066299
Y0056299
Y0046299
Y0036299
Y0026299
Y0016299
X0133855
Y0006299
Y0026299
Y0036299
Y0046299
Y0056299
Y0066299
Y0076299
T07
X0033265Y011937
X0043265
X009669
X010669
Y0164173
X009669
X0043265
X0033265
T08
X0011997Y0163
X0127997
M30
