M48
;Layer_Color=9474304
;FILE_FORMAT=2:5
INCH,LZ
;TYPE=PLATED
T1F00S00C0.01000
T2F00S00C0.01500
T3F00S00C0.02400
T5F00S00C0.03543
T6F00S00C0.04000
T7F00S00C0.04528
T8F00S00C0.11024
%
T01
X-0160816Y000832
Y0018557
X-0157666Y0056352
Y0059502
X-0176564Y0068163
X-0177745Y0077218
X-0178926Y0079187
X-0176564
Y0102809
X-0178926
X-0177745Y0104777
X-01754Y01049
X-0173038
X-0174219Y0102932
X-0176564Y0113832
X-0056879
X-0055698Y0104777
X-0054517Y0102809
X-0056879
Y0079187
X-0054517
X-0055698Y0077218
X-0056879Y0068163
T02
X-01601Y-00033
X-01508Y00362
X-01592Y00636
X-01342Y00566
X-01244Y00485
X-01147Y00564
X-00994Y00483
X-0097489Y006994
X-00752Y00626
X-00614Y0054
X-00782Y00423
X-00652Y-00038
X-00724Y01305
X-00973Y01379
X-01266Y01351
T03
X-0161603Y0028006
X-01506Y00277
X-0179713Y0073675
Y0090998
Y010832
X-01186Y01256
X-0109428Y012567
X-0053729Y010832
Y0090998
Y0073675
X-0064753Y0048478
X-00735Y00283
T05
X-0125934Y0029186
X-0117903
X-0109871
X-010184
X-0097824Y0033518
X-0105856
X-0113887
X-0121918
T06
X-0180501Y-0021601
Y-0011601
Y-0001601
Y0008399
Y0018399
Y0028399
Y0038399
Y0048399
X-0170501
Y0038399
Y0028399
Y0018399
Y0008399
Y-0001601
Y-0011601
Y-0021601
X-0052942
Y-0011601
Y-0001601
Y0008399
Y0018399
Y0028399
Y0038399
Y0048399
T07
X-0153532Y009147
X-0143532
X-0090107
X-0080107
Y0136273
X-0090107
X-0143532
X-0153532
T08
X-01748Y01351
X-00588
M30
